<?xml version="1.0" encoding="UTF-8"?>
<!-- Generated by Pixelmator Pro 3.7.1 -->
<svg width="600" height="370" viewBox="0 0 600 370" xmlns="http://www.w3.org/2000/svg">
    <g id="-">
        <path id="path1" fill="#929292" stroke="none" d="M 0 371 L 0 1 L 600 1 C 600 1 600 163.245438 600 230.400024 C 600 282.97406 600 371 600 371 Z"/>
        <path id="path2" fill="#ffffff" fill-opacity="0.73333" fill-rule="evenodd" stroke="none" opacity="0.1" d="M 223.731339 331.183228 C 230.629349 308.579559 300.416107 296.220886 301.678925 276.507141 C 302.943115 256.791565 230.802109 300.513794 225.641876 288.930511 C 220.481644 277.346344 300.146027 218.832642 342.308136 201.727997 C 367.714264 191.421829 387.756561 205.986969 358.504852 228.530396 C 338.934357 243.612015 348.145111 256.571503 366.152344 247.707153 C 384.159576 238.841034 393.740356 261.704956 368.862793 281.245544 C 343.985657 300.785217 215.927612 356.763885 223.731339 331.183258 Z M 413.066223 272.981567 C 432.384949 244.158371 469.3172 262.139282 445.908661 292.364563 C 425.195435 319.104462 358.665527 346.817932 355.41449 331.934937 C 353.027222 321.005157 390.337555 306.894897 413.066223 272.981567 Z M 571.938782 331.15506 C 540.48999 361.664246 513.924622 391.398956 495.217865 390.478943 C 475.780884 389.522797 493.141754 352.324493 526.144897 323.788788 C 549.527527 303.571045 526.692627 293.311737 504.269257 305.383392 C 477.170929 319.970856 456.047913 310.210175 491.020966 278.224335 C 525.994019 246.236694 579.097534 222.69873 608.063538 228.733887 C 637.028259 234.769028 567.378052 253.201675 564.614075 277.618134 C 561.899109 301.609619 604.140259 253.176224 626.164978 269.288116 C 647.542419 284.925018 601.147705 302.820679 571.938354 331.154633 Z M 219.48262 240.448013 C 223.034073 257.820038 179.687698 312.554169 126.531532 326.984528 C 73.099052 341.488953 22.862701 347.129486 20.707541 334.584259 C 18.56756 322.112213 52.457241 312.690765 94.557297 292.506073 C 114.912529 282.748047 93.37661 274.524292 80.125618 279.795654 C 36.298492 297.228394 39.722271 270.588501 76.725937 251.806305 C 105.640633 237.128677 130.09816 229.42984 144.586975 225.898026 C 165.600632 220.775299 169.981018 234.348129 157.98349 242.007233 C 134.564713 256.958069 145.825699 270.758545 166.789352 259.15741 C 180.067123 251.809433 213.73674 212.351074 219.48262 240.447998 Z M 239.040176 225.519943 C 226.613663 230.494034 223.389847 221.377487 223.389847 214.011658 C 223.389847 206.644043 235.818146 203.883148 242.723755 208.026505 C 249.629349 212.168976 247.694275 222.057785 239.040176 225.520401 Z M 588.743958 194.098785 C 584.004211 205.067856 530.872131 206.820816 491.362915 242.252747 C 477.148193 255.001114 459.723938 239.429352 463.859711 227.479141 C 467.993683 215.529373 480.628204 212.379669 500.403595 204.691544 C 520.177185 197.00209 495.032684 186.753494 462.405823 202.149384 C 443.742828 210.954361 423.746063 196.111115 446.280548 180.8246 C 465.116272 168.049011 508.515778 164.386414 507.33017 153.42717 C 506.674438 147.340698 475.169342 161.982162 469.444427 148.861526 C 464.685059 137.957199 475.963013 125.426239 507.477478 122.881836 C 539.583801 120.289658 564.553833 126.893509 564.927429 142.66568 C 565.350586 160.522049 527.682251 165.360886 544.606995 170.881332 C 561.626404 176.429031 597.097168 174.760895 588.743958 194.098358 Z M 398.048431 232.310379 C 391.703064 227.897842 391.505737 222.271133 398.250214 214.465179 C 406.993591 204.342468 421.585968 204.812958 425.871735 208.514847 C 430.157471 212.217178 420.468658 221.803787 416.769897 227.327377 C 413.070251 232.849167 406.217773 237.990204 398.048431 232.310379 Z M 398.438141 171.498215 C 360.817993 180.491562 339.649902 165.414413 348.075897 155.112701 C 357.177734 143.988739 378.963623 144.014191 380.675507 122.234543 C 383.874756 81.483002 423.960754 74.271637 406.856537 102.722107 C 400.865143 112.689911 409.662964 119.006271 414.820068 106.261932 C 417.934082 98.570709 432.702332 88.0159 440.5065 84.113129 C 475.925964 66.404541 504.166595 92.13382 478.833282 99.284485 C 462.348663 103.936707 447.539337 115.126282 438.079498 140.750671 C 433.039795 154.405624 414.962494 167.547256 398.438141 171.497772 Z M 510.530273 88.916656 C 496.270447 70.686249 540.323914 69.667572 556.592896 64.191284 C 572.862793 58.714142 539.335632 55.933594 509.841522 56.240265 C 480.344269 56.546936 484.807709 33.894135 518.33313 22.796967 C 569.841248 5.750366 615.757019 23.453156 576.287964 34.76416 C 561.568359 38.985168 572.031189 51.159943 588.3703 49.403839 C 619.224548 46.087189 642.092896 61.316132 636.900574 73.213226 C 631.040833 86.640076 616.540833 77.601196 601.877502 76.597717 C 587.213684 75.593353 599.90625 89.965668 618.893738 99.862061 C 651.508118 116.860443 624.223633 145.772919 596.218201 119.635193 C 556.317078 82.394501 521.207397 102.567139 510.530731 88.916656 Z M 362.588806 44.719971 C 383.643982 1.724884 426.872955 5.949036 420.803894 20.625336 C 414.736145 35.301208 439.699005 23.345184 451.262177 26.021271 C 462.823608 28.694244 469.680115 48.793671 426.74707 52.662506 C 373.851593 57.431702 372.615112 109.608063 354.950714 98.713104 C 342.804535 91.224091 354.783752 60.657318 362.589264 44.719513 Z M 46.80732 239.293213 C 11.54278 245.354248 3.73279 233.211197 18.4149 223.492462 C 27.5194 217.463562 62.973209 198.238144 37.07922 196.354828 C 11.18165 194.471085 30.48163 169.849731 60.893951 146.92868 C 91.305382 124.007156 157.74646 111.62439 154.843155 130.954712 C 151.93808 150.284607 73.699005 159.560074 87.787849 179.960373 C 93.906921 188.821152 123.833572 152.071045 137.119827 173.21637 C 150.406967 194.36171 68.914169 235.495789 46.80777 239.293198 Z M 276.330383 203.068924 C 265.07431 212.597946 242.054138 198.837173 262.760223 179.953247 C 267.552643 175.581787 279.871582 171.396011 272.512451 167.08168 C 250.277023 154.049423 182.508392 221.747528 171.297394 199.536667 C 165.906815 188.857315 192.935089 164.973404 222.436783 150.052917 C 244.215546 139.039215 236.274765 118.860764 203.950119 138.741928 C 171.623688 158.623993 165.920212 135.18869 183.827011 119.807983 C 201.732925 104.429077 316.134674 51.162659 323.929474 79.628723 C 329.99588 101.768188 266.079132 97.712769 274.032837 112.016754 C 279.871582 122.513092 324.324097 94.643402 340.059235 112.742584 C 355.287689 130.255676 298.283691 141.859497 301.933777 152.360291 C 304.816101 160.646118 332.092987 148.970886 332.621094 169.255585 C 333.02951 184.977325 303.572906 180.012604 276.330841 203.068924 Z M 118.18544 61.543823 C 111.342331 97.541351 47.93713 131.099792 23.61039 140.123505 C -14.667259 154.315475 -54.663513 149.584213 -32.08527 137.972351 C -9.50703 126.357819 49.843201 87.901184 19.29562 85.261688 C 4.26132 83.962708 -12.73173 72.809296 19.29562 46.355957 C 39.626301 29.562469 110.483482 6.355713 114.35321 21.194489 C 118.223381 36.032837 33.07156 61.839783 59.51997 64.421692 C 85.968384 67.001801 121.382912 44.710571 118.18544 61.543823 Z M 211.554352 74.464935 C 190.894241 84.792114 171.788437 97.299408 149.794525 102.020386 C 121.110619 108.176056 149.401703 69.366302 176.936615 56.775543 C 189.268936 51.13678 174.502029 43.621857 162.635284 49.383362 C 130.388321 65.037262 116.363289 53.011139 149.663727 30.864136 C 157.942856 25.357513 183.523056 12.320343 214.583527 8.337677 C 245.938614 4.315277 245.123962 15.858826 235.421295 20.186096 C 221.467697 26.407837 211.909668 39.897217 249.319992 28.504089 C 316.194519 8.13858 355.808655 11.529785 340.585083 28.504089 C 326.365875 44.355286 278.428864 41.038635 211.554337 74.464935 Z"/>
    </g>
    <path id="path3" fill="#000000" fill-opacity="0.480105" fill-rule="evenodd" stroke="none" d="M 464 302.5 C 464 295.596436 393.484863 290 306.5 290 C 219.515152 290 149 295.596436 149 302.5 C 149 309.403564 219.515152 315 306.5 315 C 393.484863 315 464 309.403564 464 302.5 Z"/>
    <g id="svg">
        <g id="breadboard">
            <path id="path4" fill="#1f7a34" stroke="none" d="M 136.529282 158.338181 L 171.744888 289.764587 L 463.804718 211.507385 L 428.589111 80.080994 L 136.529282 158.338181 Z M 282.817535 122.012909 C 283.804077 121.748566 284.818176 122.334045 285.082489 123.320587 C 285.346832 124.307114 284.761353 125.321213 283.774811 125.585541 C 282.7883 125.849884 281.7742 125.264404 281.509857 124.277863 C 281.245514 123.291336 281.832306 122.276901 282.817535 122.012909 Z M 190.089981 146.859177 C 191.076523 146.594833 192.090607 147.180328 192.35495 148.166855 C 192.619278 149.153381 192.033798 150.16748 191.047272 150.431824 C 190.06073 150.696167 189.046646 150.110672 188.782303 149.124146 C 188.517975 148.137604 189.104736 147.123169 190.089981 146.859177 Z M 180.817093 149.343842 C 181.803635 149.079498 182.817719 149.664993 183.082062 150.65152 C 183.346405 151.638046 182.76091 152.652145 181.774384 152.916489 C 180.787857 153.180817 179.773773 152.595337 179.50943 151.60881 C 179.245087 150.622269 179.830566 149.608185 180.817093 149.343842 Z M 146.243988 160.892181 C 148.273727 160.348312 150.360336 161.551941 150.904556 163.582962 C 151.448761 165.613983 150.243164 167.69838 148.21344 168.242233 C 146.183701 168.786102 144.097076 167.582489 143.553223 165.55275 C 143.009354 163.523026 144.214264 161.43605 146.243988 160.892181 Z M 178.894592 282.730408 C 176.864853 283.274292 174.777893 282.069366 174.234024 280.039642 C 173.69017 278.009918 174.895081 275.922943 176.924805 275.379089 C 178.954544 274.835205 181.041153 276.038818 181.585373 278.069855 C 182.127945 280.099915 180.924316 282.186554 178.894592 282.730408 Z M 163.228271 157.884521 C 162.241745 158.148865 161.227646 157.56337 160.963303 156.576843 C 160.698975 155.590317 161.284454 154.576218 162.270981 154.31189 C 163.257523 154.047546 164.271606 154.633026 164.53595 155.619568 C 164.800293 156.606094 164.213516 157.620529 163.228271 157.884521 Z M 170.236542 154.09346 C 169.972198 153.106934 170.557678 152.09285 171.54422 151.828506 C 172.530746 151.564163 173.54483 152.149643 173.809174 153.136185 C 174.073517 154.122711 173.488037 155.136795 172.501495 155.401138 C 171.514969 155.665482 170.500534 155.07872 170.236542 154.09346 Z M 223.194122 259.128662 L 202.158844 264.765015 L 200.496887 258.5625 L 221.532166 252.926117 L 223.194122 259.128662 Z M 198.065567 165.347595 L 177.030289 170.983978 L 175.368317 164.781448 L 196.40361 159.145065 L 198.065567 165.347595 Z M 200.318527 147.946213 C 199.331985 148.210556 198.317902 147.625076 198.053558 146.63855 C 197.789215 145.652008 198.37471 144.637924 199.361237 144.373581 C 200.347763 144.109238 201.361862 144.694733 201.626205 145.681259 C 201.890549 146.667786 201.305054 147.681885 200.318527 147.946213 Z M 209.592697 145.461212 C 208.606171 145.725555 207.592072 145.14006 207.327728 144.153534 C 207.063385 143.167007 207.64888 142.152908 208.635406 141.88858 C 209.621933 141.624237 210.636032 142.209717 210.900375 143.196243 C 211.164719 144.182785 210.577942 145.19722 209.592697 145.461212 Z M 218.865585 142.976547 C 217.879044 143.240891 216.86496 142.655411 216.600616 141.668869 C 216.336273 140.682343 216.921768 139.668243 217.908295 139.403915 C 218.894821 139.139572 219.908905 139.725052 220.173248 140.711594 C 220.437592 141.69812 219.852112 142.712204 218.865585 142.976547 Z M 228.138474 140.491882 C 227.151932 140.756226 226.137848 140.170746 225.873505 139.184204 C 225.609161 138.197678 226.194656 137.183594 227.181183 136.91925 C 228.167709 136.654907 229.181808 137.240402 229.446136 138.226929 C 229.71048 139.213455 229.125 140.227554 228.138474 140.491882 Z M 237.410065 138.007568 C 236.423538 138.271912 235.409439 137.686432 235.145096 136.69989 C 234.880768 135.713364 235.466248 134.699265 236.452774 134.434937 C 237.439316 134.170593 238.4534 134.756073 238.717728 135.742615 C 238.982071 136.729141 238.396591 137.743225 237.410065 138.007568 Z M 246.682938 135.522919 C 245.696411 135.787247 244.682327 135.201767 244.417984 134.215225 C 244.153641 133.228699 244.73912 132.214615 245.725662 131.950272 C 246.712189 131.685928 247.726273 132.271423 247.990616 133.25795 C 248.254959 134.244476 247.669479 135.258575 246.682938 135.522919 Z M 255.957123 133.037903 C 254.970581 133.302246 253.956497 132.716751 253.692154 131.730225 C 253.427811 130.743698 254.013306 129.729599 254.999832 129.465256 C 255.986359 129.200928 257.000458 129.786407 257.264801 130.772934 C 257.529144 131.759476 256.942352 132.773911 255.957123 133.037903 Z M 265.230011 130.553238 C 264.243469 130.817581 263.22937 130.232101 262.965027 129.24556 C 262.700714 128.259033 263.286194 127.244934 264.272705 126.980606 C 265.259247 126.716263 266.273346 127.301743 266.537689 128.288284 C 266.802032 129.274811 266.216522 130.288895 265.230011 130.553238 Z M 272.236969 126.762527 C 271.972656 125.776001 272.558136 124.761902 273.544647 124.497559 C 274.531189 124.233231 275.545288 124.81871 275.809631 125.805237 C 276.073975 126.791779 275.488464 127.805862 274.501953 128.070206 C 273.515411 128.334549 272.500977 127.747772 272.236969 126.762527 Z M 324.080536 232.096207 L 303.043945 237.732941 L 301.381989 231.530426 L 322.418579 225.893692 L 324.080536 232.096207 Z M 298.951996 138.315155 L 277.915405 143.951889 L 276.253448 137.749359 L 297.290009 132.112625 L 298.951996 138.315155 Z M 293.047363 123.099609 C 292.060822 123.363937 291.046753 122.778458 290.78241 121.791916 C 290.518066 120.805389 291.103546 119.791306 292.090088 119.526962 C 293.07663 119.262619 294.090698 119.848114 294.355042 120.834641 C 294.619385 121.821167 294.033905 122.835266 293.047363 123.099609 Z M 302.321533 120.614594 C 301.334991 120.878937 300.320923 120.293442 300.05658 119.306915 C 299.792236 118.320389 300.377716 117.30629 301.364258 117.041962 C 302.350769 116.777618 303.364868 117.363098 303.629211 118.349625 C 303.893555 119.336166 303.308075 120.35025 302.321533 120.614594 Z M 424.964355 205.064468 L 403.930359 210.700516 L 402.268402 204.498001 L 423.302399 198.861954 L 424.964355 205.064468 Z M 399.835815 111.283417 L 378.801819 116.919464 L 377.139862 110.716919 L 398.173859 105.080872 L 399.835815 111.283417 Z M 421.422852 87.151337 C 423.452576 86.607483 425.539185 87.811096 426.083405 89.842102 C 426.627625 91.873138 425.423645 93.958466 423.392639 94.502686 C 421.361633 95.046875 419.274994 93.843262 418.730774 91.812256 C 418.186584 89.781219 419.391846 87.695557 421.422852 87.151337 Z M 454.071655 208.998322 C 452.041931 209.542191 449.955322 208.338577 449.411102 206.307556 C 448.867584 204.279114 450.070862 202.191208 452.101868 201.647003 C 454.132874 201.102783 456.219849 202.307693 456.763733 204.337418 C 457.307587 206.367142 456.101379 208.454468 454.071655 208.998322 Z"/>
            <g id="g1">
                <path id="path5" fill="#9a916c" stroke="none" d="M 140.839615 166.279861 C 141.784134 169.80484 145.414612 171.901993 148.939606 170.957489 C 152.471024 170.011246 154.561386 166.381195 153.616867 162.856201 C 152.670975 159.32608 149.047363 157.233963 145.515945 158.180206 C 141.990952 159.124725 139.893723 162.749725 140.839615 166.279861 Z M 143.553223 165.55275 C 143.009354 163.523026 144.214264 161.43605 146.243988 160.892181 C 148.273727 160.348312 150.360336 161.551941 150.904556 163.582962 C 151.448761 165.613983 150.241882 167.698715 148.212143 168.242584 C 146.183701 168.786102 144.097076 167.582489 143.553223 165.55275 Z"/>
            </g>
            <g id="g2">
                <g id="g3">
                    <path id="path6" fill="#9a916c" stroke="none" d="M 459.474762 203.611008 C 458.530243 200.086014 454.89978 197.988861 451.373474 198.933731 C 447.842041 199.879974 445.751678 203.510025 446.696198 207.035004 C 447.64209 210.56514 451.265686 212.657242 454.797119 211.710999 C 458.324677 210.765793 460.42099 207.142426 459.474762 203.611008 Z M 456.763733 204.337418 C 457.307587 206.367142 456.101379 208.454468 454.071655 208.998322 C 452.041931 209.542191 449.955322 208.338577 449.411102 206.307556 C 448.867584 204.279114 450.070862 202.191208 452.101868 201.647003 C 454.132874 201.102783 456.220215 202.308975 456.763733 204.337418 Z"/>
                </g>
            </g>
            <g id="g4">
                <g id="g5">
                    <path id="path7" fill="#9a916c" stroke="none" d="M 171.520416 280.766754 C 172.464935 284.291748 176.095428 286.388885 179.620407 285.444366 C 183.15184 284.498138 185.242203 280.868073 184.297684 277.343079 C 183.351791 273.812958 179.72818 271.720886 176.196762 272.667114 C 172.671768 273.611633 170.574524 277.236633 171.520416 280.766754 Z M 174.232742 280.039978 C 173.688873 278.010254 174.893784 275.923279 176.923523 275.379425 C 178.953247 274.835571 181.039871 276.039185 181.584076 278.07019 C 182.127594 280.098633 180.923035 282.18689 178.893295 282.730774 C 176.864853 283.274292 174.776611 282.069702 174.232742 280.039978 Z"/>
                </g>
            </g>
            <path id="path8" fill="#303030" stroke="none" d="M 439.253662 167.3228 C 438.308319 167.576096 437.325287 167.008514 437.071655 166.06192 L 428.160675 132.80574 C 427.907043 131.859131 428.474579 130.876083 429.419922 130.622787 L 429.493317 130.603119 L 422.574219 104.780701 L 422.333344 103.881744 L 421.433136 104.122955 L 418.087097 102.191162 L 417.841034 101.272888 L 416.922791 101.518921 L 157.348984 171.071518 L 156.43071 171.317566 L 156.676773 172.23584 L 154.745895 175.580215 L 153.845657 175.821426 L 154.086533 176.720383 L 161.005966 202.544083 L 161.079376 202.524414 C 162.025986 202.270782 163.009048 202.838333 163.26268 203.784943 L 172.173645 237.041122 C 172.427292 237.987717 171.859726 238.970795 170.913116 239.224426 L 170.839706 239.24411 L 177.758453 265.065216 L 177.999329 265.964172 L 178.899567 265.722961 L 182.245575 267.654785 L 182.491623 268.573059 L 183.409897 268.326996 L 442.982391 198.77475 L 443.900665 198.528702 L 443.654602 197.610428 L 445.586456 194.26442 L 446.486664 194.023209 L 446.245789 193.124252 L 439.327057 167.303131 L 439.253662 167.3228 Z"/>
            <g id="g6">
                <path id="path9" fill="#87ad34" stroke="none" d="M 429.899841 178.263199 C 430.661102 181.104294 428.959351 184.051849 426.116974 184.813461 L 191.035172 247.803436 C 188.194061 248.564713 185.246506 246.862946 184.485229 244.021851 L 170.434128 191.582382 C 169.672852 188.741287 171.374619 185.793732 174.215729 185.032455 L 409.297546 122.04248 C 412.139923 121.280853 415.087463 122.982635 415.848724 125.823746 L 429.899841 178.263199 Z"/>
                <g id="g7" opacity="0.2">
                    <path id="path10" fill="#22420d" stroke="none" d="M 415.831879 125.802032 L 429.896118 178.290421 C 429.894043 178.282684 429.894531 178.274277 429.89212 178.265259 L 415.841003 125.825806 C 415.838593 125.816803 415.833954 125.809753 415.831879 125.802032 Z M 174.215729 185.032455 C 171.375916 185.793381 169.673187 188.742569 170.434128 191.582382 L 184.485229 244.021851 C 185.246155 246.861664 188.195343 248.564362 191.035172 247.803436 L 194.030823 247.000763 C 191.189713 247.762024 188.241821 246.058975 187.480881 243.219162 L 173.89151 192.502914 C 173.130234 189.661804 174.832016 186.714264 177.673111 185.952988 L 413.571411 122.744232 C 412.343933 121.949509 410.808228 121.63768 409.292389 122.043854 L 174.215729 185.032455 Z"/>
                </g>
            </g>
            <g id="g8">
                <path id="path11" fill="#1a1a1a" stroke="none" d="M 413.87442 109.72348 C 413.620758 108.776855 412.638031 108.210571 411.692719 108.463867 L 165.353394 174.470306 C 164.406784 174.723938 163.840515 175.706665 164.093811 176.651978 L 164.348145 177.601166 C 164.601776 178.547775 165.584503 179.114059 166.529816 178.860764 L 412.867859 112.854675 C 413.813202 112.601379 414.380737 111.618317 414.127441 110.673004 L 413.873108 109.723816 Z"/>
                <path id="path12" fill="#424242" stroke="none" d="M 413.426147 111.49176 C 413.259125 110.868408 412.566071 110.507477 411.889954 110.688629 L 166.395462 176.468689 C 165.718033 176.650208 165.299591 177.308945 165.466629 177.932297 C 165.633652 178.555649 166.325394 178.916916 167.002823 178.735397 L 412.497314 112.955353 C 413.173096 112.772888 413.592834 112.1138 413.426147 111.49176 Z"/>
            </g>
            <g id="g9">
                <path id="path13" fill="#1a1a1a" stroke="none" d="M 435.766357 191.425308 C 435.513062 190.479996 434.529999 189.91243 433.584656 190.165726 L 187.245346 256.17215 C 186.298737 256.425781 185.732452 257.408508 185.985748 258.353821 L 186.240433 259.304291 C 186.493729 260.249603 187.476791 260.817169 188.422104 260.563873 L 434.760132 194.5578 C 435.705475 194.304504 436.273041 193.321442 436.019745 192.376129 L 435.765045 191.425659 Z"/>
                <path id="path14" fill="#424242" stroke="none" d="M 435.31842 193.19487 C 435.151398 192.571518 434.458374 192.210602 433.782227 192.391769 L 188.28775 258.171814 C 187.610321 258.353333 187.191879 259.012085 187.358902 259.635437 C 187.525589 260.257477 188.217331 260.618744 188.89476 260.437225 L 434.389252 194.657181 C 435.065369 194.476013 435.485107 193.816925 435.31842 193.19487 Z"/>
            </g>
            <g id="g10">
                <path id="path15" fill="none" stroke="#f2f2f2" stroke-width="0.3144" stroke-opacity="0.2" stroke-linecap="round" d="M 154.908325 175.73822 L 156.900482 172.287704"/>
                <path id="path16" fill="none" stroke="#f2f2f2" stroke-width="0.3144" stroke-opacity="0.2" stroke-linecap="round" d="M 182.436966 267.477875 L 178.986115 265.484436"/>
            </g>
            <g id="g11">
                <path id="path17" fill="none" stroke="#f2f2f2" stroke-width="0.3144" stroke-opacity="0.2" stroke-linecap="round" d="M 421.356934 104.343536 L 417.905151 102.351715"/>
                <path id="path18" fill="none" stroke="#f2f2f2" stroke-width="0.3144" stroke-opacity="0.2" stroke-linecap="round" d="M 443.386261 197.556717 L 445.378052 194.104919"/>
            </g>
            <path id="path19" fill="none" stroke="#1a1a1a" stroke-width="1.886666" stroke-opacity="0.4" d="M 429.89212 178.265259 C 430.653046 181.105087 428.95163 184.053909 426.111816 184.81485 L 191.035172 247.803436 C 188.195343 248.564362 185.246155 246.861664 184.485229 244.021851 L 170.434128 191.582382 C 169.673187 188.742569 171.375916 185.793381 174.215729 185.032455 L 409.292389 122.043854 C 412.132202 121.282928 415.080078 122.985992 415.841003 125.825806 L 429.89212 178.265259 Z"/>
            <g id="g12">
                <path id="path20" fill="#9a916c" stroke="none" d="M 416.018463 92.539001 C 416.962952 96.063995 420.593475 98.161133 424.119751 97.216278 C 427.651184 96.27005 429.741547 92.639984 428.797028 89.11499 C 427.851135 85.584869 424.227509 83.492767 420.696075 84.439026 C 417.168518 85.384247 415.07254 89.008881 416.018463 92.539001 Z M 418.729523 91.812592 C 418.185638 89.782867 419.391846 87.695557 421.42157 87.151703 C 423.451294 86.607819 425.537933 87.811432 426.082153 89.842468 C 426.626343 91.873474 425.422363 93.958801 423.391327 94.503021 C 421.360321 95.047241 419.273376 93.842316 418.729523 91.812592 Z"/>
            </g>
            <g id="g13">
                <path id="path21" fill="#9a916c" stroke="none" d="M 158.449356 152.464722 L 160.088547 158.582245 C 160.547516 160.295151 162.308563 161.314087 164.024048 160.854416 C 165.736954 160.395447 166.755188 158.631805 166.296219 156.9189 L 164.657028 150.801376 L 158.449356 152.464722 Z M 163.228271 157.884521 C 162.241745 158.148865 161.227646 157.56337 160.963303 156.576843 C 160.698975 155.590317 161.284454 154.576218 162.270981 154.31189 C 163.257523 154.047546 164.271606 154.633026 164.53595 155.619568 C 164.800293 156.606094 164.213516 157.620529 163.228271 157.884521 Z"/>
            </g>
            <g id="g14">
                <path id="path22" fill="#9a916c" stroke="none" d="M 167.722244 149.980057 L 169.36142 156.09758 C 169.820389 157.810486 171.581451 158.829422 173.296936 158.369751 C 175.009842 157.910782 176.028076 156.147156 175.569107 154.43425 L 173.929916 148.316711 L 167.722244 149.980057 Z M 172.50116 155.399857 C 171.514618 155.6642 170.500534 155.07872 170.236191 154.092178 C 169.971863 153.105652 170.557343 152.091568 171.543869 151.827225 C 172.530411 151.562881 173.544495 152.148361 173.808838 153.134903 C 174.073166 154.121429 173.487686 155.135513 172.50116 155.399857 Z"/>
            </g>
            <g id="g15">
                <path id="path23" fill="#9a916c" stroke="none" d="M 176.995117 147.495392 L 178.634308 153.61293 C 179.093277 155.325836 180.85434 156.344757 182.569824 155.885086 C 184.28273 155.426117 185.300964 153.662491 184.841995 151.949585 L 183.202805 145.832062 L 176.995117 147.495392 Z M 181.774048 152.915192 C 180.787506 153.179535 179.773422 152.594055 179.509079 151.607513 C 179.244736 150.620987 179.830215 149.606903 180.816757 149.34256 C 181.803284 149.078217 182.817368 149.663712 183.081711 150.650238 C 183.346054 151.636765 182.760574 152.650864 181.774048 152.915192 Z"/>
            </g>
            <g id="g16">
                <path id="path24" fill="#9a916c" stroke="none" d="M 186.268005 145.010742 L 187.907196 151.128265 C 188.366165 152.841171 190.127228 153.860092 191.842712 153.400436 C 193.555618 152.941452 194.573853 151.177826 194.114868 149.46492 L 192.475693 143.347397 L 186.268005 145.010742 Z M 191.046921 150.430542 C 190.060394 150.69487 189.04631 150.10939 188.781967 149.122864 C 188.517624 148.136322 189.103104 147.122238 190.089645 146.857895 C 191.076172 146.593552 192.090256 147.179047 192.354599 148.165573 C 192.618942 149.1521 192.033463 150.166199 191.046921 150.430542 Z"/>
            </g>
            <g id="g17">
                <path id="path25" fill="#9a916c" stroke="none" d="M 195.539612 142.526413 L 197.178787 148.643951 C 197.637772 150.356857 199.398819 151.375778 201.114304 150.916107 C 202.827209 150.457138 203.845444 148.693512 203.386475 146.980606 L 201.747284 140.863083 L 195.539612 142.526413 Z M 200.318527 147.946213 C 199.331985 148.210556 198.317902 147.625076 198.053558 146.63855 C 197.789215 145.652008 198.37471 144.637924 199.361237 144.373581 C 200.347763 144.109238 201.361862 144.694733 201.626205 145.681259 C 201.890549 146.667786 201.305054 147.681885 200.318527 147.946213 Z"/>
            </g>
            <g id="g18">
                <path id="path26" fill="#9a916c" stroke="none" d="M 204.813782 140.041412 L 206.452957 146.158936 C 206.911926 147.871841 208.672989 148.890778 210.388474 148.431107 C 212.101379 147.972137 213.119614 146.208496 212.660645 144.49559 L 211.021454 138.378067 L 204.813782 140.041412 Z M 209.592697 145.461212 C 208.606171 145.725555 207.592072 145.14006 207.327728 144.153534 C 207.063385 143.167007 207.64888 142.152908 208.635406 141.88858 C 209.621933 141.624237 210.636032 142.209717 210.900375 143.196243 C 211.164719 144.182785 210.577942 145.19722 209.592697 145.461212 Z"/>
            </g>
            <g id="g19">
                <path id="path27" fill="#9a916c" stroke="none" d="M 214.086655 137.556747 L 215.725845 143.674271 C 216.184814 145.387177 217.945877 146.406113 219.661362 145.946442 C 221.374268 145.487473 222.392502 143.723831 221.933533 142.010925 L 220.294342 135.893402 L 214.086655 137.556747 Z M 218.865585 142.976547 C 217.879044 143.240891 216.86496 142.655411 216.600616 141.668869 C 216.336273 140.682343 216.921768 139.668243 217.908295 139.403915 C 218.894821 139.139572 219.908905 139.725052 220.173248 140.711594 C 220.437592 141.69812 219.852112 142.712204 218.865585 142.976547 Z"/>
            </g>
            <g id="g20">
                <path id="path28" fill="#9a916c" stroke="none" d="M 223.359543 135.072083 L 224.998734 141.189621 C 225.457703 142.902527 227.218765 143.921448 228.93425 143.461777 C 230.647156 143.002808 231.665375 141.239182 231.206406 139.526276 L 229.56723 133.408752 L 223.359543 135.072083 Z M 228.138474 140.491882 C 227.151932 140.756226 226.137848 140.170746 225.873505 139.184204 C 225.609161 138.197678 226.194656 137.183594 227.181183 136.91925 C 228.167709 136.654907 229.181808 137.240402 229.446136 138.226929 C 229.71048 139.213455 229.125 140.227554 228.138474 140.491882 Z"/>
            </g>
            <g id="g21">
                <path id="path29" fill="#9a916c" stroke="none" d="M 232.631149 132.587769 L 234.270325 138.705292 C 234.729309 140.418198 236.490356 141.437134 238.205841 140.977463 C 239.918747 140.518494 240.936981 138.754852 240.478012 137.041946 L 238.838821 130.924423 L 232.631149 132.587769 Z M 237.410065 138.007568 C 236.423538 138.271912 235.409439 137.686432 235.145096 136.69989 C 234.880768 135.713364 235.466248 134.699265 236.452774 134.434937 C 237.439316 134.170593 238.4534 134.756073 238.717728 135.742615 C 238.982071 136.729141 238.396591 137.743225 237.410065 138.007568 Z"/>
            </g>
            <g id="g22">
                <path id="path30" fill="#9a916c" stroke="none" d="M 241.904037 130.103104 L 243.543213 136.220627 C 244.002182 137.933533 245.763245 138.952469 247.478729 138.492813 C 249.191635 138.033829 250.209869 136.270203 249.7509 134.557297 L 248.11171 128.439774 L 241.904037 130.103104 Z M 246.682938 135.522919 C 245.696411 135.787247 244.682327 135.201767 244.417984 134.215225 C 244.153641 133.228699 244.73912 132.214615 245.725662 131.950272 C 246.712189 131.685928 247.726273 132.271423 247.990616 133.25795 C 248.254959 134.244476 247.669479 135.258575 246.682938 135.522919 Z"/>
            </g>
            <g id="g23">
                <path id="path31" fill="#9a916c" stroke="none" d="M 251.178207 127.618103 L 252.817383 133.735626 C 253.276352 135.448532 255.037415 136.467468 256.752899 136.007797 C 258.46582 135.548828 259.484039 133.785187 259.025055 132.072281 L 257.385864 125.954758 L 251.178207 127.618103 Z M 255.957123 133.037903 C 254.970581 133.302246 253.956497 132.716751 253.692154 131.730225 C 253.427811 130.743698 254.013306 129.729599 254.999832 129.465256 C 255.986359 129.200928 257.000458 129.786407 257.264801 130.772934 C 257.529144 131.759476 256.942352 132.773911 255.957123 133.037903 Z"/>
            </g>
            <g id="g24">
                <path id="path32" fill="#9a916c" stroke="none" d="M 260.45108 125.133438 L 262.090271 131.250961 C 262.549255 132.963867 264.310303 133.982803 266.025787 133.523132 C 267.738678 133.064163 268.756927 131.300522 268.297943 129.587616 L 266.658783 123.470093 L 260.45108 125.133438 Z M 265.230011 130.553238 C 264.243469 130.817581 263.22937 130.232101 262.965027 129.24556 C 262.700714 128.259033 263.286194 127.244934 264.272705 126.980606 C 265.259247 126.716263 266.273346 127.301743 266.537689 128.288284 C 266.802032 129.274811 266.216522 130.288895 265.230011 130.553238 Z"/>
            </g>
            <g id="g25">
                <path id="path33" fill="#9a916c" stroke="none" d="M 269.722687 122.649124 L 271.361877 128.766647 C 271.820831 130.479553 273.581909 131.498474 275.297394 131.038818 C 277.010284 130.579849 278.028534 128.816208 277.56955 127.103302 L 275.930359 120.985779 L 269.722687 122.649124 Z M 274.501587 128.068924 C 273.515076 128.333267 272.500977 127.747772 272.236633 126.761246 C 271.97229 125.774719 272.5578 124.76062 273.544312 124.496277 C 274.530853 124.231949 275.544952 124.817429 275.809265 125.803955 C 276.073608 126.790497 275.488129 127.804581 274.501587 128.068924 Z"/>
            </g>
            <g id="g26">
                <path id="path34" fill="#9a916c" stroke="none" d="M 278.995575 120.164459 L 280.634766 126.281982 C 281.09375 127.994888 282.854767 129.013824 284.570251 128.554153 C 286.283173 128.095184 287.302704 126.331207 286.843719 124.618301 L 285.204529 118.500778 L 278.995575 120.164459 Z M 283.774475 125.584259 C 282.787964 125.848602 281.773865 125.263123 281.509521 124.276581 C 281.245178 123.290054 281.830658 122.27597 282.8172 122.011627 C 283.803711 121.747284 284.81781 122.332764 285.082153 123.319305 C 285.346497 124.305832 284.761017 125.319916 283.774475 125.584259 Z"/>
            </g>
            <g id="g27">
                <path id="path35" fill="#9a916c" stroke="none" d="M 288.268463 117.679794 L 289.907654 123.797318 C 290.366608 125.510223 292.127686 126.52916 293.84314 126.069504 C 295.556061 125.610519 296.57431 123.846893 296.115326 122.133987 L 294.476135 116.016449 L 288.268463 117.679794 Z M 293.047363 123.099609 C 292.060822 123.363937 291.046753 122.778458 290.78241 121.791916 C 290.518066 120.805389 291.103546 119.791306 292.090088 119.526962 C 293.07663 119.262619 294.090698 119.848114 294.355042 120.834641 C 294.619385 121.821167 294.033905 122.835266 293.047363 123.099609 Z"/>
            </g>
            <g id="g28">
                <path id="path36" fill="#9a916c" stroke="none" d="M 297.542633 115.194794 L 299.181793 121.312317 C 299.640778 123.025223 301.401825 124.044159 303.11731 123.584488 C 304.830231 123.125519 305.84845 121.361877 305.389496 119.648972 L 303.750305 113.531464 L 297.542633 115.194794 Z M 302.321533 120.614594 C 301.334991 120.878937 300.320923 120.293442 300.05658 119.306915 C 299.792236 118.320389 300.377716 117.30629 301.364258 117.041962 C 302.350769 116.777618 303.364868 117.363098 303.629211 118.349625 C 303.893555 119.336166 303.308075 120.35025 302.321533 120.614594 Z"/>
            </g>
            <g id="g29">
                <path id="path37" fill="#1a1a1a" fill-opacity="0.1" stroke="none" d="M 190.047424 214.907532 L 202.961197 211.447296 L 208.662811 232.725998 L 195.749023 236.186234 Z"/>
                <path id="path38" fill="#1a1a1a" fill-opacity="0.1" stroke="none" d="M 203.884628 211.199875 L 216.798401 207.739639 L 222.500015 229.018326 L 209.586227 232.478561 Z"/>
                <path id="path39" fill="#1a1a1a" fill-opacity="0.1" stroke="none" d="M 217.721832 207.492203 L 230.635605 204.031967 L 236.337219 225.310654 L 223.423431 228.770889 Z"/>
                <path id="path40" fill="#1a1a1a" fill-opacity="0.1" stroke="none" d="M 231.559036 203.784531 L 244.474106 200.323959 L 250.175705 221.602646 L 237.260635 225.063232 Z"/>
                <path id="path41" fill="#1a1a1a" fill-opacity="0.1" stroke="none" d="M 245.398804 200.076172 L 258.312592 196.615936 L 264.014191 217.894638 L 251.100418 221.354874 Z"/>
                <path id="path42" fill="#1a1a1a" fill-opacity="0.1" stroke="none" d="M 259.236023 196.368515 L 272.14978 192.908279 L 277.85141 214.186966 L 264.937622 217.647202 Z"/>
                <path id="path43" fill="#1a1a1a" fill-opacity="0.1" stroke="none" d="M 273.073212 192.660843 L 285.987 189.200607 L 291.688599 210.479294 L 278.774811 213.939529 Z"/>
                <path id="path44" fill="#1a1a1a" fill-opacity="0.1" stroke="none" d="M 286.910431 188.953171 L 299.824219 185.492935 L 305.525818 206.771622 L 292.61203 210.231873 Z"/>
                <path id="path45" fill="#1a1a1a" fill-opacity="0.1" stroke="none" d="M 300.74762 185.245499 L 313.662689 181.784927 L 319.364319 203.063614 L 306.449249 206.5242 Z"/>
                <path id="path46" fill="#1a1a1a" fill-opacity="0.1" stroke="none" d="M 314.586121 181.537491 L 327.499908 178.077255 L 333.201508 199.355942 L 320.28772 202.816193 Z"/>
                <path id="path47" fill="#1a1a1a" fill-opacity="0.1" stroke="none" d="M 328.42334 177.829819 L 341.337097 174.369583 L 347.038727 195.648285 L 334.124939 199.108521 Z"/>
                <path id="path48" fill="#1a1a1a" fill-opacity="0.1" stroke="none" d="M 342.260529 174.122162 L 355.174316 170.661926 L 360.875916 191.940613 L 347.962158 195.400848 Z"/>
                <path id="path49" fill="#1a1a1a" fill-opacity="0.1" stroke="none" d="M 356.097748 170.41449 L 369.011536 166.954254 L 374.713135 188.232941 L 361.799347 191.693176 Z"/>
                <path id="path50" fill="#1a1a1a" fill-opacity="0.1" stroke="none" d="M 369.934937 166.706818 L 382.848724 163.246582 L 388.550354 184.525269 L 375.636566 187.985519 Z"/>
                <path id="path51" fill="#1a1a1a" fill-opacity="0.1" stroke="none" d="M 383.772156 162.999146 L 396.685913 159.538925 L 402.387512 180.817612 L 389.473755 184.277847 Z"/>
                <path id="path52" fill="#1a1a1a" fill-opacity="0.1" stroke="none" d="M 397.610626 159.291138 L 410.524445 155.830902 L 416.226044 177.109589 L 403.312225 180.569839 Z"/>
                <path id="path53" fill="#1a1a1a" fill-opacity="0.1" stroke="none" d="M 184.106323 192.735046 L 197.020096 189.274811 L 202.721695 210.553497 L 189.807922 214.013733 Z"/>
                <path id="path54" fill="#1a1a1a" fill-opacity="0.1" stroke="none" d="M 197.943527 189.027374 L 210.8573 185.567139 L 216.558914 206.845825 L 203.645126 210.306061 Z"/>
                <path id="path55" fill="#1a1a1a" fill-opacity="0.1" stroke="none" d="M 211.780731 185.319702 L 224.694504 181.859467 L 230.396103 203.138153 L 217.48233 206.598389 Z"/>
                <path id="path56" fill="#1a1a1a" fill-opacity="0.1" stroke="none" d="M 225.617935 181.61203 L 238.533005 178.151459 L 244.234604 199.430145 L 231.319534 202.890732 Z"/>
                <path id="path57" fill="#1a1a1a" fill-opacity="0.1" stroke="none" d="M 239.457703 177.903687 L 252.37149 174.443451 L 258.07309 195.722137 L 245.159317 199.182373 Z"/>
                <path id="path58" fill="#1a1a1a" fill-opacity="0.1" stroke="none" d="M 253.294922 174.196014 L 266.208679 170.735779 L 271.910309 192.014465 L 258.996521 195.474701 Z"/>
                <path id="path59" fill="#1a1a1a" fill-opacity="0.1" stroke="none" d="M 267.132111 170.488342 L 280.045898 167.028107 L 285.747498 188.306793 L 272.83371 191.767029 Z"/>
                <path id="path60" fill="#1a1a1a" fill-opacity="0.1" stroke="none" d="M 280.96933 166.78067 L 293.883118 163.320435 L 299.584717 184.599121 L 286.670929 188.059372 Z"/>
                <path id="path61" fill="#1a1a1a" fill-opacity="0.1" stroke="none" d="M 294.806519 163.073013 L 307.721588 159.612427 L 313.423218 180.891113 L 300.508148 184.3517 Z"/>
                <path id="path62" fill="#1a1a1a" fill-opacity="0.1" stroke="none" d="M 308.64502 159.36499 L 321.558807 155.904755 L 327.260406 177.183441 L 314.346619 180.643677 Z"/>
                <path id="path63" fill="#1a1a1a" fill-opacity="0.1" stroke="none" d="M 322.482239 155.657333 L 335.395996 152.197098 L 341.097626 173.475784 L 328.183838 176.93602 Z"/>
                <path id="path64" fill="#1a1a1a" fill-opacity="0.1" stroke="none" d="M 336.319427 151.949661 L 349.233215 148.489426 L 354.934814 169.768112 L 342.021057 173.228348 Z"/>
                <path id="path65" fill="#1a1a1a" fill-opacity="0.1" stroke="none" d="M 350.156616 148.241989 L 363.070435 144.781754 L 368.772034 166.06044 L 355.858246 169.520676 Z"/>
                <path id="path66" fill="#1a1a1a" fill-opacity="0.1" stroke="none" d="M 363.993835 144.534317 L 376.907623 141.074081 L 382.609222 162.352768 L 369.695435 165.813019 Z"/>
                <path id="path67" fill="#1a1a1a" fill-opacity="0.1" stroke="none" d="M 377.831055 140.82666 L 390.744812 137.366425 L 396.446411 158.645111 L 383.532654 162.105347 Z"/>
                <path id="path68" fill="#1a1a1a" fill-opacity="0.1" stroke="none" d="M 391.669525 137.118652 L 404.583344 133.658401 L 410.284943 154.937088 L 397.371124 158.397339 Z"/>
            </g>
            <g id="g30">
                <path id="path69" fill="#606060" stroke="none" d="M 171.213028 239.076431 L 178.389908 265.860901 L 178.735062 265.768402 L 171.5392 238.913116 C 171.444397 238.986832 171.322723 239.022202 171.213028 239.076431 Z"/>
                <path id="path70" fill="#606060" stroke="none" d="M 161.777588 202.482269 L 154.580704 175.623093 L 154.235535 175.715576 L 161.413452 202.503922 C 161.535583 202.496048 161.658615 202.465836 161.777588 202.482269 Z"/>
            </g>
            <path id="path71" fill="#606060" stroke="none" d="M 156.538895 171.710983 L 417.94281 101.667999 L 418.034943 102.011871 L 156.631027 172.05484 Z"/>
            <path id="path72" fill="#212121" stroke="none" d="M 156.434677 171.322037 L 417.838593 101.279053 L 417.943512 101.670593 L 156.539581 171.713547 Z"/>
            <g id="g31">
                <path id="path73" fill="#212121" stroke="none" d="M 161.079376 202.524414 C 161.191422 202.4944 161.302322 202.511612 161.414749 202.503571 L 154.236832 175.71524 L 153.846588 175.819794 L 161.007248 202.543747 L 161.079376 202.524414 Z"/>
                <path id="path74" fill="#212121" stroke="none" d="M 170.913116 239.224426 L 170.840988 239.243759 L 178.000961 265.965118 L 178.39119 265.860535 L 171.213974 239.074799 C 171.112595 239.124039 171.025162 239.194412 170.913116 239.224426 Z"/>
            </g>
            <path id="path75" fill="#212121" stroke="none" d="M 182.389038 268.185059 L 443.792969 198.142075 L 443.897522 198.532303 L 182.493591 268.575256 Z"/>
            <path id="path76" fill="#606060" stroke="none" d="M 182.297592 267.84375 L 443.701508 197.800766 L 443.79364 198.144653 L 182.389725 268.187622 Z"/>
            <g id="g32">
                <path id="path77" fill="#212121" stroke="none" d="M 439.253662 167.3228 C 439.139038 167.353516 439.028137 167.336288 438.914093 167.343384 L 446.091675 194.130432 L 446.484467 194.025177 L 439.324493 167.303818 L 439.253662 167.3228 Z"/>
                <path id="path78" fill="#212121" stroke="none" d="M 429.419922 130.622787 L 429.490753 130.603806 L 422.330078 103.879852 L 421.937286 103.985107 L 429.11554 130.774734 C 429.218201 130.725143 429.305298 130.653503 429.419922 130.622787 Z"/>
            </g>
            <g id="g33">
                <path id="path79" fill="#606060" stroke="none" d="M 438.555786 167.366241 L 445.751648 194.221542 L 446.094238 194.129745 L 438.916992 167.343994 C 438.796509 167.352814 438.673492 167.383011 438.555786 167.366241 Z"/>
                <path id="path80" fill="#606060" stroke="none" d="M 429.118103 130.774048 L 421.940216 103.985718 L 421.597626 104.077515 L 428.794159 130.935394 C 428.887695 130.862015 429.009338 130.82666 429.118103 130.774048 Z"/>
            </g>
        </g>
        <path id="connector0pin" fill="#000000" stroke="none" d="M 164.536285 155.62085 C 164.800644 156.607407 164.215164 157.62146 163.228622 157.885803 C 162.242065 158.150146 161.227997 157.564682 160.963654 156.578125 C 160.69931 155.591583 161.284775 154.577515 162.271332 154.313171 C 163.257889 154.048813 164.271942 154.634293 164.536285 155.62085 Z"/>
        <path id="connector1pin" fill="#000000" stroke="none" d="M 173.809174 153.136185 C 174.073517 154.122742 173.488052 155.136795 172.501495 155.401138 C 171.514938 155.665497 170.500885 155.080032 170.236542 154.09346 C 169.972198 153.106918 170.557663 152.09285 171.54422 151.828506 C 172.530777 151.564163 173.54483 152.149628 173.809174 153.136185 Z"/>
        <path id="connector2pin" fill="#000000" stroke="none" d="M 183.082062 150.65152 C 183.346405 151.638077 182.760941 152.65213 181.774384 152.916489 C 180.787827 153.180832 179.773773 152.595367 179.50943 151.60881 C 179.245087 150.622253 179.830536 149.608185 180.817093 149.343842 C 181.80365 149.079498 182.817719 149.664978 183.082062 150.65152 Z"/>
        <path id="connector3pin" fill="#000000" stroke="none" d="M 192.35495 148.166855 C 192.619293 149.153412 192.033829 150.167465 191.047272 150.431824 C 190.060715 150.696167 189.046661 150.110703 188.782303 149.124146 C 188.51796 148.137589 189.103424 147.12352 190.089981 146.859177 C 191.076538 146.594833 192.090607 147.180313 192.35495 148.166855 Z"/>
        <path id="connector4pin" fill="#000000" stroke="none" d="M 201.626541 145.682541 C 201.8909 146.669098 201.30542 147.683151 200.318863 147.947495 C 199.332306 148.211853 198.318253 147.626389 198.053909 146.639832 C 197.789566 145.653275 198.375031 144.639206 199.361588 144.374863 C 200.348129 144.110519 201.362198 144.695999 201.626541 145.682541 Z"/>
        <path id="connector5pin" fill="#000000" stroke="none" d="M 210.900711 143.197525 C 211.16507 144.184097 210.579605 145.198151 209.593033 145.462494 C 208.606491 145.726837 207.592422 145.141373 207.328079 144.154816 C 207.063736 143.168274 207.6492 142.154205 208.635757 141.889862 C 209.622314 141.625504 210.636368 142.210983 210.900711 143.197525 Z"/>
        <path id="connector6pin" fill="#000000" stroke="none" d="M 216.600967 141.670151 C 216.336624 140.683624 216.922104 139.66954 217.90863 139.405197 C 218.895172 139.140854 219.909256 139.726349 220.173599 140.712875 C 220.437927 141.699402 219.852448 142.713486 218.865921 142.977829 C 217.879395 143.242172 216.86496 142.655411 216.600967 141.670151"/>
        <path id="connector7pin" fill="#000000" stroke="none" d="M 229.446487 138.22821 C 229.710831 139.214767 229.125366 140.228821 228.138809 140.493164 C 227.152252 140.757523 226.138199 140.172058 225.87384 139.185501 C 225.609497 138.198944 226.194962 137.184875 227.181519 136.920532 C 228.168076 136.656189 229.182144 137.241669 229.446487 138.22821 Z"/>
        <path id="connector8pin" fill="#000000" stroke="none" d="M 238.718079 135.743896 C 238.982422 136.730453 238.396973 137.744507 237.4104 138.00885 C 236.423843 138.273209 235.40979 137.687744 235.145447 136.701172 C 234.881104 135.71463 235.466568 134.700562 236.453125 134.436218 C 237.439682 134.17186 238.453735 134.757355 238.718079 135.743896 Z"/>
        <path id="connector9pin" fill="#000000" stroke="none" d="M 247.990967 133.259232 C 248.25531 134.245789 247.669846 135.259842 246.683289 135.5242 C 245.696732 135.788544 244.682678 135.203079 244.418335 134.216507 C 244.153992 133.229965 244.739441 132.215897 245.725998 131.951553 C 246.712555 131.68721 247.726624 132.27269 247.990967 133.259232 Z"/>
        <path id="connector10pin" fill="#000000" stroke="none" d="M 257.265137 130.774216 C 257.52948 131.760788 256.944031 132.774841 255.957458 133.039185 C 254.970901 133.303528 253.956848 132.718063 253.692505 131.731506 C 253.428162 130.744965 254.013611 129.730896 255.000183 129.466553 C 255.98674 129.202194 257.000793 129.787674 257.265137 130.774216 Z"/>
        <path id="connector11pin" fill="#000000" stroke="none" d="M 266.538025 128.289566 C 266.802368 129.276123 266.216919 130.290176 265.230347 130.55452 C 264.243774 130.818878 263.229736 130.233414 262.965393 129.246841 C 262.70105 128.2603 263.286499 127.246231 264.273071 126.981888 C 265.259613 126.717529 266.273682 127.303009 266.538025 128.289566 Z"/>
        <path id="connector12pin" fill="#000000" stroke="none" d="M 275.809631 125.805237 C 276.073975 126.791809 275.488495 127.805862 274.501953 128.070206 C 273.515381 128.334549 272.501343 127.749084 272.236969 126.762527 C 271.972626 125.775986 272.558105 124.761917 273.544647 124.497559 C 274.531219 124.233215 275.545288 124.818695 275.809631 125.805237 Z"/>
        <path id="connector13pin" fill="#000000" stroke="none" d="M 285.082489 123.320587 C 285.346863 124.307144 284.761383 125.321198 283.774811 125.585541 C 282.788269 125.849899 281.7742 125.264435 281.509857 124.277863 C 281.245514 123.291321 281.830994 122.277252 282.817535 122.012909 C 283.804108 121.74855 284.818146 122.33403 285.082489 123.320587 Z"/>
        <path id="connector14pin" fill="#000000" stroke="none" d="M 294.355377 120.835922 C 294.61972 121.822479 294.034271 122.836533 293.047699 123.100891 C 292.061157 123.365234 291.047089 122.77977 290.782745 121.793198 C 290.518402 120.806656 291.103882 119.792587 292.090424 119.528244 C 293.076965 119.263901 294.091034 119.84938 294.355377 120.835922 Z"/>
        <path id="connector15pin" fill="#000000" stroke="none" d="M 303.629547 118.350922 C 303.89389 119.337479 303.308441 120.351532 302.321869 120.615875 C 301.335327 120.880219 300.321259 120.294754 300.056915 119.308197 C 299.792572 118.321655 300.378021 117.307587 301.364594 117.043243 C 302.351166 116.778885 303.365204 117.364365 303.629547 118.350922 Z"/>
    </g>
</svg>
