<?xml version="1.0" encoding="UTF-8"?>
<!-- Generated by Pixelmator Pro 3.7.1 -->
<svg width="80" height="80" viewBox="0 0 80 80" xmlns="http://www.w3.org/2000/svg">
    <g id="svg-">
        <g id="breadboard">
            <path id="path1" fill="#1f7a34" stroke="none" d="M 3.809524 23.957722 L 3.809524 56.264828 L 75.800613 56.264828 L 75.800613 23.957722 L 3.809524 23.957722 Z M 39.691734 24.616547 C 39.934906 24.616547 40.13205 24.813148 40.13205 25.055656 C 40.13205 25.298164 39.934906 25.49477 39.691734 25.49477 C 39.448559 25.49477 39.251415 25.298164 39.251415 25.055656 C 39.251415 24.813148 39.448879 24.616547 39.691734 24.616547 Z M 16.834915 24.616547 C 17.078091 24.616547 17.275234 24.813148 17.275234 25.055656 C 17.275234 25.298164 17.078091 25.49477 16.834915 25.49477 C 16.591742 25.49477 16.394598 25.298164 16.394598 25.055656 C 16.394598 24.813148 16.592058 24.616547 16.834915 24.616547 Z M 14.549203 24.616547 C 14.792377 24.616547 14.989519 24.813148 14.989519 25.055656 C 14.989519 25.298164 14.792377 25.49477 14.549203 25.49477 C 14.306027 25.49477 14.108886 25.298164 14.108886 25.055656 C 14.108886 24.813148 14.306027 24.616547 14.549203 24.616547 Z M 5.886348 25.140503 C 6.386666 25.140503 6.79238 25.544788 6.79238 26.044052 C 6.79238 26.543316 6.386666 26.947285 5.886348 26.947285 C 5.386031 26.947285 4.980317 26.542999 4.980317 26.044052 C 4.980317 25.545109 5.386031 25.140503 5.886348 25.140503 Z M 5.887301 55.090912 C 5.386983 55.090912 4.981269 54.68631 4.981269 54.187363 C 4.981269 53.688416 5.386983 53.283813 5.887301 53.283813 C 6.387618 53.283813 6.793332 53.688095 6.793332 54.187363 C 6.793015 54.68631 6.387618 55.090912 5.887301 55.090912 Z M 9.977776 25.494453 C 9.734601 25.494453 9.537458 25.297852 9.537458 25.055344 C 9.537458 24.812836 9.734601 24.61623 9.977776 24.61623 C 10.22095 24.61623 10.418093 24.812836 10.418093 25.055344 C 10.418093 25.297852 10.220633 25.494453 9.977776 25.494453 Z M 11.823172 25.055656 C 11.823172 24.813148 12.020314 24.616547 12.263489 24.616547 C 12.506664 24.616547 12.703807 24.813148 12.703807 25.055656 C 12.703807 25.298164 12.506664 25.49477 12.263489 25.49477 C 12.020314 25.49477 11.823172 25.297852 11.823172 25.055656 Z M 17.529837 52.400208 L 12.344759 52.400208 L 12.344759 50.875511 L 17.529837 50.875511 L 17.529837 52.400208 Z M 17.529837 29.347042 L 12.344759 29.347042 L 12.344759 27.822342 L 17.529837 27.822342 L 17.529837 29.347042 Z M 19.120312 25.494453 C 18.877138 25.494453 18.679995 25.297852 18.679995 25.055344 C 18.679995 24.812836 18.877138 24.61623 19.120312 24.61623 C 19.363487 24.61623 19.560631 24.812836 19.560631 25.055344 C 19.560631 25.297852 19.363487 25.494453 19.120312 25.494453 Z M 21.406343 25.494453 C 21.163168 25.494453 20.966024 25.297852 20.966024 25.055344 C 20.966024 24.812836 21.163168 24.61623 21.406343 24.61623 C 21.649517 24.61623 21.846661 24.812836 21.846661 25.055344 C 21.846661 25.297852 21.6492 25.494453 21.406343 25.494453 Z M 23.692057 25.494453 C 23.448883 25.494453 23.25174 25.297852 23.25174 25.055344 C 23.25174 24.812836 23.448883 24.61623 23.692057 24.61623 C 23.93523 24.61623 24.132372 24.812836 24.132372 25.055344 C 24.132372 25.297852 23.93523 25.494453 23.692057 25.494453 Z M 25.97777 25.494453 C 25.734596 25.494453 25.537453 25.297852 25.537453 25.055344 C 25.537453 24.812836 25.734596 24.61623 25.97777 24.61623 C 26.220945 24.61623 26.418089 24.812836 26.418089 25.055344 C 26.418089 25.297852 26.220945 25.494453 25.97777 25.494453 Z M 28.263166 25.494453 C 28.019993 25.494453 27.822849 25.297852 27.822849 25.055344 C 27.822849 24.812836 28.019993 24.61623 28.263166 24.61623 C 28.50634 24.61623 28.703482 24.812836 28.703482 25.055344 C 28.703482 25.297852 28.50634 25.494453 28.263166 25.494453 Z M 30.548878 25.494453 C 30.305704 25.494453 30.108562 25.297852 30.108562 25.055344 C 30.108562 24.812836 30.305704 24.61623 30.548878 24.61623 C 30.792055 24.61623 30.989197 24.812836 30.989197 25.055344 C 30.989197 25.297852 30.792055 25.494453 30.548878 25.494453 Z M 32.834911 25.494453 C 32.591736 25.494453 32.394592 25.297852 32.394592 25.055344 C 32.394592 24.812836 32.591736 24.61623 32.834911 24.61623 C 33.078083 24.61623 33.275227 24.812836 33.275227 25.055344 C 33.275227 25.297852 33.077766 25.494453 32.834911 25.494453 Z M 35.120625 25.494453 C 34.877449 25.494453 34.680305 25.297852 34.680305 25.055344 C 34.680305 24.812836 34.877449 24.61623 35.120625 24.61623 C 35.3638 24.61623 35.560944 24.812836 35.560944 25.055344 C 35.560944 25.297852 35.3638 25.494453 35.120625 25.494453 Z M 36.965702 25.055656 C 36.965702 24.813148 37.162846 24.616547 37.406021 24.616547 C 37.649193 24.616547 37.846336 24.813148 37.846336 25.055656 C 37.846336 25.298164 37.649193 25.49477 37.406021 25.49477 C 37.162846 25.49477 36.965702 25.297852 36.965702 25.055656 Z M 42.397766 52.400208 L 37.212368 52.400208 L 37.212368 50.875511 L 42.397766 50.875511 L 42.397766 52.400208 Z M 42.397766 29.347042 L 37.212368 29.347042 L 37.212368 27.822342 L 42.397766 27.822342 L 42.397766 29.347042 Z M 41.977444 25.494453 C 41.734272 25.494453 41.537132 25.297852 41.537132 25.055344 C 41.537132 24.812836 41.734272 24.61623 41.977444 24.61623 C 42.220623 24.61623 42.417763 24.812836 42.417763 25.055344 C 42.417763 25.297852 42.220623 25.494453 41.977444 25.494453 Z M 44.263477 25.494453 C 44.020302 25.494453 43.823158 25.297852 43.823158 25.055344 C 43.823158 24.812836 44.020302 24.61623 44.263477 24.61623 C 44.506649 24.61623 44.703793 24.812836 44.703793 25.055344 C 44.703793 25.297852 44.506649 25.494453 44.263477 25.494453 Z M 67.26506 52.400208 L 62.080296 52.400208 L 62.080296 50.875511 L 67.26506 50.875511 L 67.26506 52.400208 Z M 67.26506 29.347042 L 62.080296 29.347042 L 62.080296 27.822342 L 67.26506 27.822342 L 67.26506 29.347042 Z M 73.716805 25.138924 C 74.217117 25.138924 74.622833 25.543205 74.622833 26.042473 C 74.622833 26.541733 74.217438 26.946018 73.716805 26.946018 C 73.216171 26.946018 72.810448 26.541733 72.810448 26.042473 C 72.810448 25.543205 73.216171 25.138924 73.716805 25.138924 Z M 73.716805 55.091225 C 73.216484 55.091225 72.810768 54.686943 72.810768 54.187675 C 72.810768 53.689049 73.216171 53.28413 73.716805 53.28413 C 74.217438 53.28413 74.623154 53.688732 74.623154 54.187675 C 74.623154 54.686623 74.217117 55.091225 73.716805 55.091225 Z"/>
            <g id="g1">
                <path id="path2" fill="#9a916c" stroke="none" d="M 4.311429 26.044052 C 4.311429 26.910561 5.017142 27.614658 5.886031 27.614658 C 6.756507 27.614658 7.460951 26.910561 7.460951 26.044052 C 7.460951 25.176281 6.756507 24.473763 5.886031 24.473763 C 5.017142 24.473763 4.311429 25.176281 4.311429 26.044052 Z M 4.980317 26.044052 C 4.980317 25.545109 5.386031 25.140503 5.886348 25.140503 C 6.386666 25.140503 6.79238 25.544788 6.79238 26.044052 C 6.79238 26.543316 6.386348 26.947285 5.886031 26.947285 C 5.386031 26.947285 4.980317 26.542999 4.980317 26.044052 Z"/>
            </g>
            <g id="g2">
                <g id="g3">
                    <path id="path3" fill="#9a916c" stroke="none" d="M 75.291405 54.187675 C 75.291405 53.321171 74.585693 52.617073 73.716484 52.617073 C 72.846001 52.617073 72.141563 53.321171 72.141563 54.187675 C 72.141563 55.05545 72.846001 55.757965 73.716484 55.757965 C 74.586006 55.757965 75.291405 55.055771 75.291405 54.187675 Z M 74.623154 54.187675 C 74.623154 54.686623 74.217117 55.091225 73.716805 55.091225 C 73.216484 55.091225 72.810768 54.686943 72.810768 54.187675 C 72.810768 53.689049 73.216171 53.28413 73.716805 53.28413 C 74.217438 53.28413 74.623154 53.689049 74.623154 54.187675 Z"/>
                </g>
            </g>
            <g id="g4">
                <g id="g5">
                    <path id="path4" fill="#9a916c" stroke="none" d="M 4.312381 54.187363 C 4.312381 55.053871 5.018095 55.757965 5.886983 55.757965 C 6.75746 55.757965 7.461904 55.053871 7.461904 54.187363 C 7.461904 53.319588 6.75746 52.617073 5.886983 52.617073 C 5.018095 52.617073 4.312381 53.319588 4.312381 54.187363 Z M 4.980952 54.187363 C 4.980952 53.688416 5.386666 53.283813 5.886983 53.283813 C 6.3873 53.283813 6.793015 53.688095 6.793015 54.187363 C 6.793015 54.685989 6.3873 55.090912 5.886983 55.090912 C 5.386983 55.090912 4.980952 54.68631 4.980952 54.187363 Z"/>
                </g>
            </g>
            <path id="path5" fill="#303030" stroke="none" d="M 72.877121 44.622215 C 72.644104 44.622215 72.452995 44.431625 72.452995 44.198933 L 72.452995 36.023933 C 72.452995 35.791241 72.644104 35.600655 72.877121 35.600655 L 72.89521 35.600655 L 72.89521 29.253014 L 72.89521 29.032036 L 72.673309 29.032036 L 72.022827 28.383339 L 72.022827 28.157612 L 71.796486 28.157612 L 7.813015 28.157612 L 7.586665 28.157612 L 7.586665 28.383339 L 6.936507 29.031719 L 6.714602 29.031719 L 6.714602 29.252697 L 6.714602 35.600655 L 6.732697 35.600655 C 6.966031 35.600655 7.157142 35.791241 7.157142 36.023933 L 7.157142 44.198933 C 7.157142 44.431625 6.966031 44.622215 6.732697 44.622215 L 6.714602 44.622215 L 6.714602 50.969536 L 6.714602 51.190514 L 6.936507 51.190514 L 7.586983 51.839211 L 7.586983 52.064938 L 7.813332 52.064938 L 71.796486 52.064938 L 72.022827 52.064938 L 72.022827 51.839211 L 72.673309 51.190514 L 72.89521 51.190514 L 72.89521 50.969536 L 72.89521 44.622215 L 72.877121 44.622215 Z"/>
            <g id="g6">
                <path id="path6" fill="#87ad34" stroke="none" d="M 70.05172 46.556583 C 70.05172 47.254978 69.478706 47.826427 68.778076 47.826427 L 10.831744 47.826427 C 10.131426 47.826427 9.558411 47.254978 9.558411 46.556583 L 9.558411 33.66597 C 9.558411 32.967571 10.131426 32.396122 10.831744 32.396122 L 68.778076 32.396122 C 69.478706 32.396122 70.05172 32.967571 70.05172 33.66597 L 70.05172 46.556583 Z"/>
                <g id="g7" opacity="0.2">
                    <path id="path7" fill="#22420d" stroke="none" d="M 70.049187 33.659954 L 70.049187 46.562595 C 70.049187 46.560696 70.04982 46.5588 70.04982 46.556583 L 70.04982 33.66597 C 70.04982 33.663754 70.049187 33.661854 70.049187 33.659954 Z M 10.831744 32.396122 C 10.131744 32.396122 9.558411 32.967884 9.558411 33.66597 L 9.558411 46.556583 C 9.558411 47.254665 10.131744 47.826427 10.831744 47.826427 L 11.570156 47.826427 C 10.869839 47.826427 10.296823 47.254665 10.296823 46.556583 L 10.296823 34.089565 C 10.296823 33.391167 10.869839 32.819721 11.570156 32.819721 L 69.717751 32.819721 C 69.484421 32.562019 69.150459 32.396122 68.776802 32.396122 L 10.831744 32.396122 Z"/>
                </g>
            </g>
            <g id="g8">
                <path id="path8" fill="#1a1a1a" stroke="none" d="M 70.589821 29.852005 C 70.589821 29.619308 70.398705 29.429039 70.165688 29.429039 L 9.444443 29.429039 C 9.211109 29.429039 9.020315 29.619625 9.020315 29.852005 L 9.020315 30.085331 C 9.020315 30.318024 9.211427 30.508297 9.444443 30.508297 L 70.165367 30.508297 C 70.398392 30.508297 70.5895 30.317707 70.5895 30.085331 L 70.5895 29.852005 Z"/>
                <path id="path9" fill="#424242" stroke="none" d="M 70.377754 30.230015 C 70.377754 30.076782 70.240608 29.951412 70.073944 29.951412 L 9.56095 29.951412 C 9.393967 29.951412 9.257141 30.076782 9.257141 30.230015 C 9.257141 30.383244 9.393967 30.508614 9.56095 30.508614 L 70.073944 30.508614 C 70.240608 30.508297 70.377754 30.382927 70.377754 30.230015 Z"/>
            </g>
            <g id="g9">
                <path id="path10" fill="#1a1a1a" stroke="none" d="M 70.589821 49.935867 C 70.589821 49.703491 70.398705 49.512901 70.165688 49.512901 L 9.444443 49.512901 C 9.211109 49.512901 9.020315 49.703491 9.020315 49.935867 L 9.020315 50.16951 C 9.020315 50.40189 9.211427 50.592476 9.444443 50.592476 L 70.165367 50.592476 C 70.398392 50.592476 70.5895 50.40189 70.5895 50.16951 L 70.5895 49.935867 Z"/>
                <path id="path11" fill="#424242" stroke="none" d="M 70.377754 50.314194 C 70.377754 50.160965 70.240608 50.035595 70.073944 50.035595 L 9.56095 50.035595 C 9.393967 50.035595 9.257141 50.160965 9.257141 50.314194 C 9.257141 50.46711 9.393967 50.592476 9.56095 50.592476 L 70.073944 50.592476 C 70.240608 50.592476 70.377754 50.46711 70.377754 50.314194 Z"/>
            </g>
            <g id="g10">
                <path id="path12" fill="none" stroke="#f2f2f2" stroke-width="0.074755" stroke-opacity="0.2" stroke-linecap="round" d="M 6.964126 29.077938 L 7.63492 28.408985"/>
                <path id="path13" fill="none" stroke="#f2f2f2" stroke-width="0.074755" stroke-opacity="0.2" stroke-linecap="round" d="M 7.641903 51.810402 L 6.97111 51.141129"/>
            </g>
            <g id="g11">
                <path id="path14" fill="none" stroke="#f2f2f2" stroke-width="0.074755" stroke-opacity="0.2" stroke-linecap="round" d="M 72.642197 29.077938 L 71.971085 28.408985"/>
                <path id="path15" fill="none" stroke="#f2f2f2" stroke-width="0.074755" stroke-opacity="0.2" stroke-linecap="round" d="M 71.964424 51.810402 L 72.635216 51.141129"/>
            </g>
            <path id="path16" fill="none" stroke="#1a1a1a" stroke-width="0.448591" stroke-opacity="0.4" d="M 70.04982 46.556583 C 70.04982 47.254665 69.476807 47.826427 68.776802 47.826427 L 10.831744 47.826427 C 10.131744 47.826427 9.558411 47.254665 9.558411 46.556583 L 9.558411 33.66597 C 9.558411 32.967884 10.131744 32.396122 10.831744 32.396122 L 68.776802 32.396122 C 69.476807 32.396122 70.04982 32.967884 70.04982 33.66597 L 70.04982 46.556583 Z"/>
            <g id="g12">
                <path id="path17" fill="#9a916c" stroke="none" d="M 72.141876 26.042473 C 72.141876 26.908978 72.847595 27.613075 73.716805 27.613075 C 74.58728 27.613075 75.291725 26.908978 75.291725 26.042473 C 75.291725 25.174698 74.58728 24.472183 73.716805 24.472183 C 72.847275 24.472183 72.141876 25.174698 72.141876 26.042473 Z M 72.810135 26.042473 C 72.810135 25.543526 73.216171 25.138924 73.716484 25.138924 C 74.216805 25.138924 74.62252 25.543205 74.62252 26.042473 C 74.62252 26.541733 74.217117 26.946018 73.716484 26.946018 C 73.215851 26.946018 72.810135 26.541416 72.810135 26.042473 Z"/>
            </g>
            <g id="g13">
                <path id="path18" fill="#9a916c" stroke="none" d="M 9.212696 23.957722 L 9.212696 25.461525 C 9.212696 25.882591 9.554918 26.22451 9.977776 26.22451 C 10.399998 26.22451 10.742855 25.882591 10.742855 25.461525 L 10.742855 23.957722 L 9.212696 23.957722 Z M 9.977776 25.494453 C 9.734601 25.494453 9.537458 25.297852 9.537458 25.055344 C 9.537458 24.812836 9.734601 24.61623 9.977776 24.61623 C 10.22095 24.61623 10.418093 24.812836 10.418093 25.055344 C 10.418093 25.297852 10.220633 25.494453 9.977776 25.494453 Z"/>
            </g>
            <g id="g14">
                <path id="path19" fill="#9a916c" stroke="none" d="M 11.498409 23.957722 L 11.498409 25.461525 C 11.498409 25.882591 11.840632 26.22451 12.263489 26.22451 C 12.685711 26.22451 13.028568 25.882591 13.028568 25.461525 L 13.028568 23.957722 L 11.498409 23.957722 Z M 12.263489 25.494453 C 12.020314 25.494453 11.823172 25.297852 11.823172 25.055344 C 11.823172 24.812836 12.020314 24.61623 12.263489 24.61623 C 12.506664 24.61623 12.703807 24.812836 12.703807 25.055344 C 12.703807 25.297852 12.506664 25.494453 12.263489 25.494453 Z"/>
            </g>
            <g id="g15">
                <path id="path20" fill="#9a916c" stroke="none" d="M 13.784123 23.957722 L 13.784123 25.461525 C 13.784123 25.882591 14.126347 26.22451 14.549203 26.22451 C 14.971424 26.22451 15.314282 25.882591 15.314282 25.461525 L 15.314282 23.957722 L 13.784123 23.957722 Z M 14.549203 25.494453 C 14.306027 25.494453 14.108886 25.297852 14.108886 25.055344 C 14.108886 24.812836 14.306027 24.61623 14.549203 24.61623 C 14.792377 24.61623 14.989519 24.812836 14.989519 25.055344 C 14.989519 25.297852 14.792377 25.494453 14.549203 25.494453 Z"/>
            </g>
            <g id="g16">
                <path id="path21" fill="#9a916c" stroke="none" d="M 16.069836 23.957722 L 16.069836 25.461525 C 16.069836 25.882591 16.41206 26.22451 16.834915 26.22451 C 17.257137 26.22451 17.599995 25.882591 17.599995 25.461525 L 17.599995 23.957722 L 16.069836 23.957722 Z M 16.834915 25.494453 C 16.591742 25.494453 16.394598 25.297852 16.394598 25.055344 C 16.394598 24.812836 16.591742 24.61623 16.834915 24.61623 C 17.078091 24.61623 17.275234 24.812836 17.275234 25.055344 C 17.275234 25.297852 17.078091 25.494453 16.834915 25.494453 Z"/>
            </g>
            <g id="g17">
                <path id="path22" fill="#9a916c" stroke="none" d="M 18.355234 23.957722 L 18.355234 25.461525 C 18.355234 25.882591 18.697454 26.22451 19.120312 26.22451 C 19.542534 26.22451 19.885391 25.882591 19.885391 25.461525 L 19.885391 23.957722 L 18.355234 23.957722 Z M 19.120312 25.494453 C 18.877138 25.494453 18.679995 25.297852 18.679995 25.055344 C 18.679995 24.812836 18.877138 24.61623 19.120312 24.61623 C 19.363487 24.61623 19.560631 24.812836 19.560631 25.055344 C 19.560631 25.297852 19.363487 25.494453 19.120312 25.494453 Z"/>
            </g>
            <g id="g18">
                <path id="path23" fill="#9a916c" stroke="none" d="M 20.641264 23.957722 L 20.641264 25.461525 C 20.641264 25.882591 20.983486 26.22451 21.406343 26.22451 C 21.828564 26.22451 22.171421 25.882591 22.171421 25.461525 L 22.171421 23.957722 L 20.641264 23.957722 Z M 21.406343 25.494453 C 21.163168 25.494453 20.966024 25.297852 20.966024 25.055344 C 20.966024 24.812836 21.163168 24.61623 21.406343 24.61623 C 21.649517 24.61623 21.846661 24.812836 21.846661 25.055344 C 21.846661 25.297852 21.6492 25.494453 21.406343 25.494453 Z"/>
            </g>
            <g id="g19">
                <path id="path24" fill="#9a916c" stroke="none" d="M 22.926977 23.957722 L 22.926977 25.461525 C 22.926977 25.882591 23.269199 26.22451 23.692057 26.22451 C 24.114279 26.22451 24.457136 25.882591 24.457136 25.461525 L 24.457136 23.957722 L 22.926977 23.957722 Z M 23.692057 25.494453 C 23.448883 25.494453 23.25174 25.297852 23.25174 25.055344 C 23.25174 24.812836 23.448883 24.61623 23.692057 24.61623 C 23.93523 24.61623 24.132372 24.812836 24.132372 25.055344 C 24.132372 25.297852 23.93523 25.494453 23.692057 25.494453 Z"/>
            </g>
            <g id="g20">
                <path id="path25" fill="#9a916c" stroke="none" d="M 25.21269 23.957722 L 25.21269 25.461525 C 25.21269 25.882591 25.554913 26.22451 25.97777 26.22451 C 26.399994 26.22451 26.742847 25.882591 26.742847 25.461525 L 26.742847 23.957722 L 25.21269 23.957722 Z M 25.97777 25.494453 C 25.734596 25.494453 25.537453 25.297852 25.537453 25.055344 C 25.537453 24.812836 25.734596 24.61623 25.97777 24.61623 C 26.220945 24.61623 26.418089 24.812836 26.418089 25.055344 C 26.418089 25.297852 26.220945 25.494453 25.97777 25.494453 Z"/>
            </g>
            <g id="g21">
                <path id="path26" fill="#9a916c" stroke="none" d="M 27.498087 23.957722 L 27.498087 25.461525 C 27.498087 25.882591 27.840309 26.22451 28.263166 26.22451 C 28.685389 26.22451 29.028246 25.882591 29.028246 25.461525 L 29.028246 23.957722 L 27.498087 23.957722 Z M 28.263166 25.494453 C 28.019993 25.494453 27.822849 25.297852 27.822849 25.055344 C 27.822849 24.812836 28.019993 24.61623 28.263166 24.61623 C 28.50634 24.61623 28.703482 24.812836 28.703482 25.055344 C 28.703482 25.297852 28.50634 25.494453 28.263166 25.494453 Z"/>
            </g>
            <g id="g22">
                <path id="path27" fill="#9a916c" stroke="none" d="M 29.783802 23.957722 L 29.783802 25.461525 C 29.783802 25.882591 30.126022 26.22451 30.548878 26.22451 C 30.9711 26.22451 31.313957 25.882591 31.313957 25.461525 L 31.313957 23.957722 L 29.783802 23.957722 Z M 30.548878 25.494453 C 30.305704 25.494453 30.108562 25.297852 30.108562 25.055344 C 30.108562 24.812836 30.305704 24.61623 30.548878 24.61623 C 30.792055 24.61623 30.989197 24.812836 30.989197 25.055344 C 30.989197 25.297852 30.792055 25.494453 30.548878 25.494453 Z"/>
            </g>
            <g id="g23">
                <path id="path28" fill="#9a916c" stroke="none" d="M 32.069832 23.957722 L 32.069832 25.461525 C 32.069832 25.882591 32.412052 26.22451 32.834911 26.22451 C 33.257133 26.22451 33.599987 25.882591 33.599987 25.461525 L 33.599987 23.957722 L 32.069832 23.957722 Z M 32.834911 25.494453 C 32.591736 25.494453 32.394592 25.297852 32.394592 25.055344 C 32.394592 24.812836 32.591736 24.61623 32.834911 24.61623 C 33.078083 24.61623 33.275227 24.812836 33.275227 25.055344 C 33.275227 25.297852 33.077766 25.494453 32.834911 25.494453 Z"/>
            </g>
            <g id="g24">
                <path id="path29" fill="#9a916c" stroke="none" d="M 34.355545 23.957722 L 34.355545 25.461525 C 34.355545 25.882591 34.697765 26.22451 35.120625 26.22451 C 35.542847 26.22451 35.885704 25.882591 35.885704 25.461525 L 35.885704 23.957722 L 34.355545 23.957722 Z M 35.120625 25.494453 C 34.877449 25.494453 34.680305 25.297852 34.680305 25.055344 C 34.680305 24.812836 34.877449 24.61623 35.120625 24.61623 C 35.3638 24.61623 35.560944 24.812836 35.560944 25.055344 C 35.560944 25.297852 35.3638 25.494453 35.120625 25.494453 Z"/>
            </g>
            <g id="g25">
                <path id="path30" fill="#9a916c" stroke="none" d="M 36.640942 23.957722 L 36.640942 25.461525 C 36.640942 25.882591 36.983162 26.22451 37.406021 26.22451 C 37.828243 26.22451 38.171101 25.882591 38.171101 25.461525 L 38.171101 23.957722 L 36.640942 23.957722 Z M 37.406021 25.494453 C 37.162846 25.494453 36.965702 25.297852 36.965702 25.055344 C 36.965702 24.812836 37.162846 24.61623 37.406021 24.61623 C 37.649193 24.61623 37.846336 24.812836 37.846336 25.055344 C 37.846336 25.297852 37.649193 25.494453 37.406021 25.494453 Z"/>
            </g>
            <g id="g26">
                <path id="path31" fill="#9a916c" stroke="none" d="M 38.926659 23.957722 L 38.926659 25.461525 C 38.926659 25.882591 39.268875 26.22451 39.691734 26.22451 C 40.113953 26.22451 40.45713 25.882591 40.45713 25.461525 L 40.45713 23.957722 L 38.926659 23.957722 Z M 39.691734 25.494453 C 39.448559 25.494453 39.251415 25.297852 39.251415 25.055344 C 39.251415 24.812836 39.448559 24.61623 39.691734 24.61623 C 39.934906 24.61623 40.13205 24.812836 40.13205 25.055344 C 40.13205 25.297852 39.934906 25.494453 39.691734 25.494453 Z"/>
            </g>
            <g id="g27">
                <path id="path32" fill="#9a916c" stroke="none" d="M 41.212368 23.957722 L 41.212368 25.461525 C 41.212368 25.882591 41.554592 26.22451 41.977444 26.22451 C 42.39967 26.22451 42.742527 25.882591 42.742527 25.461525 L 42.742527 23.957722 L 41.212368 23.957722 Z M 41.977444 25.494453 C 41.734272 25.494453 41.537132 25.297852 41.537132 25.055344 C 41.537132 24.812836 41.734272 24.61623 41.977444 24.61623 C 42.220623 24.61623 42.417763 24.812836 42.417763 25.055344 C 42.417763 25.297852 42.220623 25.494453 41.977444 25.494453 Z"/>
            </g>
            <g id="g28">
                <path id="path33" fill="#9a916c" stroke="none" d="M 43.498398 23.957722 L 43.498398 25.461525 C 43.498398 25.882591 43.840618 26.22451 44.263477 26.22451 C 44.685699 26.22451 45.028557 25.882591 45.028557 25.461525 L 45.028557 23.957722 L 43.498398 23.957722 Z M 44.263477 25.494453 C 44.020302 25.494453 43.823158 25.297852 43.823158 25.055344 C 43.823158 24.812836 44.020302 24.61623 44.263477 24.61623 C 44.506649 24.61623 44.703793 24.812836 44.703793 25.055344 C 44.703793 25.297852 44.506649 25.494453 44.263477 25.494453 Z"/>
            </g>
            <g id="g29">
                <path id="path34" fill="#1a1a1a" fill-opacity="0.1" stroke="none" d="M 12.631743 40.220974 L 15.814917 40.220974 L 15.814917 45.451679 L 12.631743 45.451679 Z"/>
                <path id="path35" fill="#1a1a1a" fill-opacity="0.1" stroke="none" d="M 16.042536 40.220974 L 19.22571 40.220974 L 19.22571 45.451679 L 16.042536 45.451679 Z"/>
                <path id="path36" fill="#1a1a1a" fill-opacity="0.1" stroke="none" d="M 19.453329 40.220974 L 22.636501 40.220974 L 22.636501 45.451679 L 19.453329 45.451679 Z"/>
                <path id="path37" fill="#1a1a1a" fill-opacity="0.1" stroke="none" d="M 22.86412 40.220974 L 26.047611 40.220974 L 26.047611 45.451679 L 22.86412 45.451679 Z"/>
                <path id="path38" fill="#1a1a1a" fill-opacity="0.1" stroke="none" d="M 26.275547 40.220974 L 29.458719 40.220974 L 29.458719 45.451679 L 26.275547 45.451679 Z"/>
                <path id="path39" fill="#1a1a1a" fill-opacity="0.1" stroke="none" d="M 29.68634 40.220974 L 32.869514 40.220974 L 32.869514 45.451679 L 29.68634 45.451679 Z"/>
                <path id="path40" fill="#1a1a1a" fill-opacity="0.1" stroke="none" d="M 33.09713 40.220974 L 36.280308 40.220974 L 36.280308 45.451679 L 33.09713 45.451679 Z"/>
                <path id="path41" fill="#1a1a1a" fill-opacity="0.1" stroke="none" d="M 36.507923 40.220974 L 39.691101 40.220974 L 39.691101 45.451679 L 36.507923 45.451679 Z"/>
                <path id="path42" fill="#1a1a1a" fill-opacity="0.1" stroke="none" d="M 39.918716 40.220974 L 43.102211 40.220974 L 43.102211 45.451679 L 39.918716 45.451679 Z"/>
                <path id="path43" fill="#1a1a1a" fill-opacity="0.1" stroke="none" d="M 43.329826 40.220974 L 46.513004 40.220974 L 46.513004 45.451679 L 43.329826 45.451679 Z"/>
                <path id="path44" fill="#1a1a1a" fill-opacity="0.1" stroke="none" d="M 46.74062 40.220974 L 49.923794 40.220974 L 49.923794 45.451679 L 46.74062 45.451679 Z"/>
                <path id="path45" fill="#1a1a1a" fill-opacity="0.1" stroke="none" d="M 50.151413 40.220974 L 53.334587 40.220974 L 53.334587 45.451679 L 50.151413 45.451679 Z"/>
                <path id="path46" fill="#1a1a1a" fill-opacity="0.1" stroke="none" d="M 53.562202 40.220974 L 56.74538 40.220974 L 56.74538 45.451679 L 53.562202 45.451679 Z"/>
                <path id="path47" fill="#1a1a1a" fill-opacity="0.1" stroke="none" d="M 56.973 40.220974 L 60.156174 40.220974 L 60.156174 45.451679 L 56.973 45.451679 Z"/>
                <path id="path48" fill="#1a1a1a" fill-opacity="0.1" stroke="none" d="M 60.383793 40.220974 L 63.566959 40.220974 L 63.566959 45.451679 L 60.383793 45.451679 Z"/>
                <path id="path49" fill="#1a1a1a" fill-opacity="0.1" stroke="none" d="M 63.794899 40.220974 L 66.978073 40.220974 L 66.978073 45.451679 L 63.794899 45.451679 Z"/>
                <path id="path50" fill="#1a1a1a" fill-opacity="0.1" stroke="none" d="M 12.631743 34.770554 L 15.814917 34.770554 L 15.814917 40.001259 L 12.631743 40.001259 Z"/>
                <path id="path51" fill="#1a1a1a" fill-opacity="0.1" stroke="none" d="M 16.042536 34.770554 L 19.22571 34.770554 L 19.22571 40.001259 L 16.042536 40.001259 Z"/>
                <path id="path52" fill="#1a1a1a" fill-opacity="0.1" stroke="none" d="M 19.453329 34.770554 L 22.636501 34.770554 L 22.636501 40.001259 L 19.453329 40.001259 Z"/>
                <path id="path53" fill="#1a1a1a" fill-opacity="0.1" stroke="none" d="M 22.86412 34.770554 L 26.047611 34.770554 L 26.047611 40.001259 L 22.86412 40.001259 Z"/>
                <path id="path54" fill="#1a1a1a" fill-opacity="0.1" stroke="none" d="M 26.275547 34.770554 L 29.458719 34.770554 L 29.458719 40.001259 L 26.275547 40.001259 Z"/>
                <path id="path55" fill="#1a1a1a" fill-opacity="0.1" stroke="none" d="M 29.68634 34.770554 L 32.869514 34.770554 L 32.869514 40.001259 L 29.68634 40.001259 Z"/>
                <path id="path56" fill="#1a1a1a" fill-opacity="0.1" stroke="none" d="M 33.09713 34.770554 L 36.280308 34.770554 L 36.280308 40.001259 L 33.09713 40.001259 Z"/>
                <path id="path57" fill="#1a1a1a" fill-opacity="0.1" stroke="none" d="M 36.507923 34.770554 L 39.691101 34.770554 L 39.691101 40.001259 L 36.507923 40.001259 Z"/>
                <path id="path58" fill="#1a1a1a" fill-opacity="0.1" stroke="none" d="M 39.918716 34.770554 L 43.102211 34.770554 L 43.102211 40.001259 L 39.918716 40.001259 Z"/>
                <path id="path59" fill="#1a1a1a" fill-opacity="0.1" stroke="none" d="M 43.329826 34.770554 L 46.513004 34.770554 L 46.513004 40.001259 L 43.329826 40.001259 Z"/>
                <path id="path60" fill="#1a1a1a" fill-opacity="0.1" stroke="none" d="M 46.74062 34.770554 L 49.923794 34.770554 L 49.923794 40.001259 L 46.74062 40.001259 Z"/>
                <path id="path61" fill="#1a1a1a" fill-opacity="0.1" stroke="none" d="M 50.151413 34.770554 L 53.334587 34.770554 L 53.334587 40.001259 L 50.151413 40.001259 Z"/>
                <path id="path62" fill="#1a1a1a" fill-opacity="0.1" stroke="none" d="M 53.562202 34.770554 L 56.74538 34.770554 L 56.74538 40.001259 L 53.562202 40.001259 Z"/>
                <path id="path63" fill="#1a1a1a" fill-opacity="0.1" stroke="none" d="M 56.973 34.770554 L 60.156174 34.770554 L 60.156174 40.001259 L 56.973 40.001259 Z"/>
                <path id="path64" fill="#1a1a1a" fill-opacity="0.1" stroke="none" d="M 60.383793 34.770554 L 63.566959 34.770554 L 63.566959 40.001259 L 60.383793 40.001259 Z"/>
                <path id="path65" fill="#1a1a1a" fill-opacity="0.1" stroke="none" d="M 63.794899 34.770554 L 66.978073 34.770554 L 66.978073 40.001259 L 63.794899 40.001259 Z"/>
            </g>
            <g id="g30">
                <path id="path66" fill="#606060" stroke="none" d="M 6.810793 44.606701 L 6.810793 51.190834 L 6.895872 51.190834 L 6.895872 44.589287 C 6.869523 44.600372 6.839364 44.601006 6.810793 44.606701 Z"/>
                <path id="path67" fill="#606060" stroke="none" d="M 6.895872 35.633896 L 6.895872 29.031399 L 6.810793 29.031399 L 6.810793 35.616482 C 6.839364 35.622181 6.869523 35.622814 6.895872 35.633896 Z"/>
            </g>
            <path id="path68" fill="#606060" stroke="none" d="M 7.5873 28.25449 L 72.021881 28.25449 L 72.021881 28.339016 L 7.5873 28.339016 Z"/>
            <path id="path69" fill="#212121" stroke="none" d="M 7.5873 28.158878 L 72.021881 28.158878 L 72.021881 28.255119 L 7.5873 28.255119 Z"/>
            <g id="g31">
                <path id="path70" fill="#212121" stroke="none" d="M 6.732697 35.600655 C 6.760316 35.600655 6.784761 35.61142 6.81111 35.616482 L 6.81111 29.031399 L 6.71492 29.031399 L 6.71492 35.600655 L 6.732697 35.600655 Z"/>
                <path id="path71" fill="#212121" stroke="none" d="M 6.732697 44.622215 L 6.71492 44.622215 L 6.71492 51.190834 L 6.81111 51.190834 L 6.81111 44.606384 C 6.784761 44.61145 6.760316 44.622215 6.732697 44.622215 Z"/>
            </g>
            <path id="path72" fill="#212121" stroke="none" d="M 7.5873 51.969646 L 72.021881 51.969646 L 72.021881 52.065571 L 7.5873 52.065571 Z"/>
            <path id="path73" fill="#606060" stroke="none" d="M 7.5873 51.88575 L 72.021881 51.88575 L 72.021881 51.97028 L 7.5873 51.97028 Z"/>
            <g id="g32">
                <path id="path74" fill="#212121" stroke="none" d="M 72.877121 44.622215 C 72.848869 44.622215 72.824425 44.61145 72.79776 44.606068 L 72.79776 51.190834 L 72.894577 51.190834 L 72.894577 44.622215 L 72.877121 44.622215 Z"/>
                <path id="path75" fill="#212121" stroke="none" d="M 72.877121 35.600655 L 72.894577 35.600655 L 72.894577 29.031399 L 72.79776 29.031399 L 72.79776 35.616798 C 72.824425 35.611732 72.848869 35.600655 72.877121 35.600655 Z"/>
            </g>
            <g id="g33">
                <path id="path76" fill="#606060" stroke="none" d="M 72.713943 44.589287 L 72.713943 51.190834 L 72.798386 51.190834 L 72.798386 44.606384 C 72.770134 44.601006 72.739975 44.600372 72.713943 44.589287 Z"/>
                <path id="path77" fill="#606060" stroke="none" d="M 72.798386 35.616798 L 72.798386 29.031719 L 72.713943 29.031719 L 72.713943 35.633896 C 72.739975 35.622814 72.770134 35.622181 72.798386 35.616798 Z"/>
            </g>
        </g>
        <path id="connector0pin" fill="#000000" stroke="none" d="M 10.418093 25.055656 C 10.418093 25.298172 10.220956 25.49477 9.977776 25.49477 C 9.734594 25.49477 9.537458 25.298172 9.537458 25.055656 C 9.537458 24.813145 9.734594 24.616547 9.977776 24.616547 C 10.220956 24.616547 10.418093 24.813145 10.418093 25.055656 Z"/>
        <path id="connector1pin" fill="#000000" stroke="none" d="M 12.703807 25.055656 C 12.703807 25.298172 12.506669 25.49477 12.263489 25.49477 C 12.020308 25.49477 11.823172 25.298172 11.823172 25.055656 C 11.823172 24.813145 12.020308 24.616547 12.263489 24.616547 C 12.506669 24.616547 12.703807 24.813145 12.703807 25.055656 Z"/>
        <path id="connector2pin" fill="#000000" stroke="none" d="M 14.989519 25.055656 C 14.989519 25.298172 14.792383 25.49477 14.549203 25.49477 C 14.306022 25.49477 14.108886 25.298172 14.108886 25.055656 C 14.108886 24.813145 14.306022 24.616547 14.549203 24.616547 C 14.792383 24.616547 14.989519 24.813145 14.989519 25.055656 Z"/>
        <path id="connector3pin" fill="#000000" stroke="none" d="M 17.275234 25.055656 C 17.275234 25.298172 17.078096 25.49477 16.834915 25.49477 C 16.591736 25.49477 16.394598 25.298172 16.394598 25.055656 C 16.394598 24.813145 16.591736 24.616547 16.834915 24.616547 C 17.078096 24.616547 17.275234 24.813145 17.275234 25.055656 Z"/>
        <path id="connector4pin" fill="#000000" stroke="none" d="M 19.560631 25.055656 C 19.560631 25.298172 19.363493 25.49477 19.120312 25.49477 C 18.877132 25.49477 18.679995 25.298172 18.679995 25.055656 C 18.679995 24.813145 18.877132 24.616547 19.120312 24.616547 C 19.363493 24.616547 19.560631 24.813145 19.560631 25.055656 Z"/>
        <path id="connector5pin" fill="#000000" stroke="none" d="M 21.846661 25.055656 C 21.846661 25.298172 21.649525 25.49477 21.406343 25.49477 C 21.163162 25.49477 20.966024 25.298172 20.966024 25.055656 C 20.966024 24.813145 21.163162 24.616547 21.406343 24.616547 C 21.649525 24.616547 21.846661 24.813145 21.846661 25.055656 Z"/>
        <path id="connector6pin" fill="#000000" stroke="none" d="M 23.25174 25.055656 C 23.25174 24.813148 23.448883 24.616547 23.692057 24.616547 C 23.93523 24.616547 24.132372 24.813148 24.132372 25.055656 C 24.132372 25.298164 23.93523 25.49477 23.692057 25.49477 C 23.448883 25.49477 23.25174 25.297852 23.25174 25.055656"/>
        <path id="connector7pin" fill="#000000" stroke="none" d="M 26.418089 25.055656 C 26.418089 25.298172 26.220951 25.49477 25.97777 25.49477 C 25.734589 25.49477 25.537453 25.298172 25.537453 25.055656 C 25.537453 24.813145 25.734589 24.616547 25.97777 24.616547 C 26.220951 24.616547 26.418089 24.813145 26.418089 25.055656 Z"/>
        <path id="connector8pin" fill="#000000" stroke="none" d="M 28.703482 25.055656 C 28.703482 25.298172 28.506348 25.49477 28.263166 25.49477 C 28.019985 25.49477 27.822849 25.298172 27.822849 25.055656 C 27.822849 24.813145 28.019985 24.616547 28.263166 24.616547 C 28.506348 24.616547 28.703482 24.813145 28.703482 25.055656 Z"/>
        <path id="connector9pin" fill="#000000" stroke="none" d="M 30.989197 25.055656 C 30.989197 25.298172 30.792061 25.49477 30.548878 25.49477 C 30.305698 25.49477 30.108562 25.298172 30.108562 25.055656 C 30.108562 24.813145 30.305698 24.616547 30.548878 24.616547 C 30.792061 24.616547 30.989197 24.813145 30.989197 25.055656 Z"/>
        <path id="connector10pin" fill="#000000" stroke="none" d="M 33.275227 25.055656 C 33.275227 25.298172 33.078091 25.49477 32.834911 25.49477 C 32.591728 25.49477 32.394592 25.298172 32.394592 25.055656 C 32.394592 24.813145 32.591728 24.616547 32.834911 24.616547 C 33.078091 24.616547 33.275227 24.813145 33.275227 25.055656 Z"/>
        <path id="connector11pin" fill="#000000" stroke="none" d="M 35.560944 25.055656 C 35.560944 25.298172 35.363808 25.49477 35.120625 25.49477 C 34.877441 25.49477 34.680305 25.298172 34.680305 25.055656 C 34.680305 24.813145 34.877441 24.616547 35.120625 24.616547 C 35.363808 24.616547 35.560944 24.813145 35.560944 25.055656 Z"/>
        <path id="connector12pin" fill="#000000" stroke="none" d="M 37.846336 25.055656 C 37.846336 25.298172 37.649197 25.49477 37.406021 25.49477 C 37.162838 25.49477 36.965702 25.298172 36.965702 25.055656 C 36.965702 24.813145 37.162838 24.616547 37.406021 24.616547 C 37.649197 24.616547 37.846336 24.813145 37.846336 25.055656 Z"/>
        <path id="connector13pin" fill="#000000" stroke="none" d="M 40.13205 25.055656 C 40.13205 25.298172 39.934914 25.49477 39.691734 25.49477 C 39.448551 25.49477 39.251415 25.298172 39.251415 25.055656 C 39.251415 24.813145 39.448551 24.616547 39.691734 24.616547 C 39.934914 24.616547 40.13205 24.813145 40.13205 25.055656 Z"/>
        <path id="connector14pin" fill="#000000" stroke="none" d="M 42.417763 25.055656 C 42.417763 25.298172 42.220627 25.49477 41.977444 25.49477 C 41.734268 25.49477 41.537132 25.298172 41.537132 25.055656 C 41.537132 24.813145 41.734268 24.616547 41.977444 24.616547 C 42.220627 24.616547 42.417763 24.813145 42.417763 25.055656 Z"/>
        <path id="connector15pin" fill="#000000" stroke="none" d="M 44.703793 25.055656 C 44.703793 25.298172 44.506657 25.49477 44.263477 25.49477 C 44.020294 25.49477 43.823158 25.298172 43.823158 25.055656 C 43.823158 24.813145 44.020294 24.616547 44.263477 24.616547 C 44.506657 24.616547 44.703793 24.813145 44.703793 25.055656 Z"/>
    </g>
</svg>
