<?xml version="1.0" encoding="UTF-8"?>
<!-- Generated by Pixelmator Pro 3.7.1 -->
<svg width="80" height="80" viewBox="0 0 80 80" xmlns="http://www.w3.org/2000/svg">
    <g id="g1">
        <path id="path1" fill="#003366" fill-rule="evenodd" stroke="none" d="M 4.8 24 C 4.358179 24 4 24.358154 4 24.799999 L 4 55.200001 C 4 55.641823 4.358179 56 4.8 56 L 75.199997 56 C 75.641846 56 76 55.641823 76 55.200001 L 76 24.799999 C 76 24.358154 75.641846 24 75.199997 24 L 4.8 24 Z M 7.2 26 C 7.2 25.337257 6.662744 24.799999 6 24.799999 C 5.337256 24.799999 4.8 25.337257 4.8 26 C 4.8 26.662743 5.337256 27.200001 6 27.200001 C 6.662744 27.200001 7.2 26.662743 7.2 26 Z M 7.2 54 C 7.2 53.337257 6.662744 52.799999 6 52.799999 C 5.337256 52.799999 4.8 53.337257 4.8 54 C 4.8 54.662743 5.337256 55.200001 6 55.200001 C 6.662744 55.200001 7.2 54.662743 7.2 54 Z M 72.800003 26 C 72.800003 26.662743 73.337257 27.200001 74 27.200001 C 74.662743 27.200001 75.199997 26.662743 75.199997 26 C 75.199997 25.337257 74.662743 24.799999 74 24.799999 C 73.337257 24.799999 72.800003 25.337257 72.800003 26 Z M 72.800003 54 C 72.800003 54.662743 73.337257 55.200001 74 55.200001 C 74.662743 55.200001 75.199997 54.662743 75.199997 54 C 75.199997 53.337257 74.662743 52.799999 74 52.799999 C 73.337257 52.799999 72.800003 53.337257 72.800003 54 Z"/>
        <path id="path2" fill="none" stroke="#cccccc" stroke-width="0.4" d="M 7.2 26 C 7.2 25.337257 6.662744 24.799999 6 24.799999 C 5.337256 24.799999 4.8 25.337257 4.8 26 C 4.8 26.662743 5.337256 27.200001 6 27.200001 C 6.662744 27.200001 7.2 26.662743 7.2 26 Z M 7.2 54 C 7.2 53.337257 6.662744 52.799999 6 52.799999 C 5.337256 52.799999 4.8 53.337257 4.8 54 C 4.8 54.662743 5.337256 55.200001 6 55.200001 C 6.662744 55.200001 7.2 54.662743 7.2 54 Z M 72.800003 26 C 72.800003 26.662743 73.337257 27.200001 74 27.200001 C 74.662743 27.200001 75.199997 26.662743 75.199997 26 C 75.199997 25.337257 74.662743 24.799999 74 24.799999 C 73.337257 24.799999 72.800003 25.337257 72.800003 26 Z M 72.800003 54 C 72.800003 54.662743 73.337257 55.200001 74 55.200001 C 74.662743 55.200001 75.199997 54.662743 75.199997 54 C 75.199997 53.337257 74.662743 52.799999 74 52.799999 C 73.337257 52.799999 72.800003 53.337257 72.800003 54 Z"/>
        <path id="path3" fill="#cccccc" stroke="#999999" stroke-width="0.4" d="M 35.200001 25.200001 C 33.653614 25.200001 32.400002 26.453613 32.400002 28 C 32.400002 29.546387 33.653614 30.799999 35.200001 30.799999 L 44.799999 30.799999 C 46.346386 30.799999 47.599998 29.546387 47.599998 28 C 47.599998 26.453613 46.346386 25.200001 44.799999 25.200001 Z"/>
        <path id="path4" fill="#eeeeee" stroke="none" d="M 34.799999 25.599998 C 33.695435 25.599998 32.799999 26.495411 32.799999 27.599998 C 32.799999 28.70459 33.695435 29.599998 34.799999 29.599998 L 45.200001 29.599998 C 46.304565 29.599998 47.200001 28.70459 47.200001 27.599998 C 47.200001 26.495411 46.304565 25.599998 45.200001 25.599998 Z"/>
        <path id="path5" fill="#999999" stroke="none" d="M 35.599998 25.599998 C 34.274513 25.599998 33.200001 26.674511 33.200001 28 C 33.200001 29.325489 34.274513 30.400002 35.599998 30.400002 L 44.400002 30.400002 C 45.725487 30.400002 46.799999 29.325489 46.799999 28 C 46.799999 26.674511 45.725487 25.599998 44.400002 25.599998 Z"/>
        <path id="path6" fill="#999999" stroke="none" d="M 32.799999 52.799999 C 32.799999 53.462746 33.337257 54 34 54 C 34.662743 54 35.200001 53.462746 35.200001 52.799999 L 35.200001 51.200001 C 35.200001 50.537254 34.662743 50 34 50 C 33.337257 50 32.799999 50.537254 32.799999 51.200001 Z"/>
        <path id="path7" fill="#cccccc" stroke="none" d="M 34.599998 52 C 34.599998 52.331371 34.331371 52.599998 34 52.599998 C 33.668629 52.599998 33.400002 52.331371 33.400002 52 C 33.400002 51.668629 33.668629 51.400002 34 51.400002 C 34.331371 51.400002 34.599998 51.668629 34.599998 52 Z"/>
        <path id="path8" fill="#999999" stroke="none" d="M 36.799999 52.799999 C 36.799999 53.462746 37.337257 54 38 54 C 38.662743 54 39.200001 53.462746 39.200001 52.799999 L 39.200001 51.200001 C 39.200001 50.537254 38.662743 50 38 50 C 37.337257 50 36.799999 50.537254 36.799999 51.200001 Z"/>
        <path id="path9" fill="#cccccc" stroke="none" d="M 38.599998 52 C 38.599998 52.331371 38.331371 52.599998 38 52.599998 C 37.668629 52.599998 37.400002 52.331371 37.400002 52 C 37.400002 51.668629 37.668629 51.400002 38 51.400002 C 38.331371 51.400002 38.599998 51.668629 38.599998 52 Z"/>
        <path id="path10" fill="#999999" stroke="none" d="M 40.799999 52.799999 C 40.799999 53.462746 41.337257 54 42 54 C 42.662743 54 43.200001 53.462746 43.200001 52.799999 L 43.200001 51.200001 C 43.200001 50.537254 42.662743 50 42 50 C 41.337257 50 40.799999 50.537254 40.799999 51.200001 Z"/>
        <path id="path11" fill="#cccccc" stroke="none" d="M 42.599998 52 C 42.599998 52.331371 42.331371 52.599998 42 52.599998 C 41.668629 52.599998 41.400002 52.331371 41.400002 52 C 41.400002 51.668629 41.668629 51.400002 42 51.400002 C 42.331371 51.400002 42.599998 51.668629 42.599998 52 Z"/>
        <path id="path12" fill="#999999" stroke="none" d="M 44.799999 52.799999 C 44.799999 53.462746 45.337257 54 46 54 C 46.662743 54 47.200001 53.462746 47.200001 52.799999 L 47.200001 51.200001 C 47.200001 50.537254 46.662743 50 46 50 C 45.337257 50 44.799999 50.537254 44.799999 51.200001 Z"/>
        <path id="path13" fill="#cccccc" stroke="none" d="M 46.599998 52 C 46.599998 52.331371 46.331371 52.599998 46 52.599998 C 45.668629 52.599998 45.400002 52.331371 45.400002 52 C 45.400002 51.668629 45.668629 51.400002 46 51.400002 C 46.331371 51.400002 46.599998 51.668629 46.599998 52 Z"/>
        <g id="g2">
            <clipPath id="clipPath1">
                <path d="M 7.6 50 L 13.2 50 L 13.2 55.6 L 7.6 55.6 Z"/>
            </clipPath>
            <g id="g3" clip-path="url(#clipPath1)">
                <g id="g4">
                    <g id="g5">
                        <path id="path14" fill="none" stroke="#e3e3e3" stroke-width="0.728" stroke-linecap="round" stroke-linejoin="round" d="M 10.030396 51.030396 L 10.030396 54.446411"/>
                        <path id="path15" fill="none" stroke="#e3e3e3" stroke-width="0.728" stroke-linecap="round" stroke-linejoin="round" d="M 9.033594 51.030396 L 11.027197 51.030396"/>
                    </g>
                </g>
            </g>
        </g>
        <g id="g6">
            <clipPath id="clipPath2">
                <path d="M 66.8 50 L 72.4 50 L 72.4 55.6 L 66.8 55.6 Z"/>
            </clipPath>
            <g id="g7" clip-path="url(#clipPath2)">
                <g id="g8">
                    <g id="g9">
                        <path id="path16" fill="none" stroke="#e3e3e3" stroke-width="0.728" stroke-linecap="round" stroke-linejoin="round" d="M 68.334427 54.440796 L 68.334427 51.052807 L 69.409622 51.052807 C 69.409622 51.052807 70.221581 51.041603 70.221581 51.724804 C 70.221581 52.458397 69.896774 52.676807 69.348 52.676807 L 68.519188 52.676807"/>
                        <path id="path17" fill="none" stroke="#e3e3e3" stroke-width="0.728" stroke-linecap="round" stroke-linejoin="round" d="M 70.294388 54.440796 L 69.280807 52.676807"/>
                    </g>
                </g>
            </g>
        </g>
        <g id="g10">
            <clipPath id="clipPath3">
                <path d="M 32.8 49.2 L 32.8 42 L 35.2 42 L 35.2 49.2 Z"/>
            </clipPath>
            <g id="g11" clip-path="url(#clipPath3)">
                <g id="g12">
                    <g id="g13">
                        <path id="path18" fill="none" stroke="#e3e3e3" stroke-width="0.312" stroke-linecap="round" stroke-linejoin="round" d="M 33.2416 48.067211 L 34.645607 48.542408 L 33.2416 49.012794"/>
                    </g>
                    <g id="g14">
                        <path id="path19" fill="none" stroke="#e3e3e3" stroke-width="0.273" stroke-linecap="round" stroke-linejoin="round" d="M 33.679588 46.675194 C 33.6562 46.653587 33.539207 47.179199 33.773193 47.359203 C 33.935204 47.484009 34.392406 47.493603 34.527393 47.426392 C 34.856812 47.260792 34.680397 46.672802 34.680397 46.672802"/>
                    </g>
                    <g id="g15">
                        <path id="path20" fill="none" stroke="#e3e3e3" stroke-width="0.273" stroke-linecap="round" stroke-linejoin="round" d="M 33.679588 45.235207 C 33.6562 45.2136 33.539207 45.739208 33.773193 45.919189 C 33.935204 46.043995 34.392406 46.053589 34.527393 45.986401 C 34.856812 45.820801 34.680397 45.232788 34.680397 45.232788"/>
                    </g>
                </g>
            </g>
        </g>
        <g id="g16">
            <clipPath id="clipPath4">
                <path d="M 36.8 49.2 L 36.8 39.6 L 39.2 39.6 L 39.2 49.2 Z"/>
            </clipPath>
            <g id="g17" clip-path="url(#clipPath4)">
                <g id="g18">
                    <g id="g19">
                        <path id="path21" fill="none" stroke="#e3e3e3" stroke-width="0.273" stroke-linecap="round" stroke-linejoin="round" d="M 37.647194 48.638405 L 38.74519 48.638405"/>
                        <path id="path22" fill="none" stroke="#e3e3e3" stroke-width="0.273" stroke-linecap="round" stroke-linejoin="round" d="M 37.647194 49.065601 L 37.647194 48.211205"/>
                    </g>
                    <g id="g20">
                        <path id="path23" fill="none" stroke="#e3e3e3" stroke-width="0.273" stroke-linecap="round" stroke-linejoin="round" d="M 38.743408 47.582397 L 37.654396 47.582397 L 37.654396 47.121605 C 37.654396 47.121605 37.650806 46.773609 37.870411 46.773609 C 38.106201 46.773609 38.176392 46.912792 38.176392 47.147999 L 38.176392 47.503197"/>
                        <path id="path24" fill="none" stroke="#e3e3e3" stroke-width="0.273" stroke-linecap="round" stroke-linejoin="round" d="M 38.743408 46.742409 L 38.176392 47.176807"/>
                    </g>
                    <g id="g21">
                        <path id="path25" fill="none" stroke="#e3e3e3" stroke-width="0.273" stroke-linecap="round" stroke-linejoin="round" d="M 37.647194 46.065601 L 38.74519 46.065601"/>
                    </g>
                    <g id="g22">
                        <path id="path26" fill="none" stroke="#e3e3e3" stroke-width="0.273" stroke-linecap="round" stroke-linejoin="round" d="M 37.695801 44.462402 C 37.695801 44.462402 37.55901 44.832008 37.713795 45.098389 C 37.868603 45.364796 38.104393 45.266407 38.460793 45.266407 C 38.649803 45.266407 38.736206 44.9688 38.730812 44.726391 C 38.725391 44.512794 38.633595 44.352001 38.633595 44.352001 L 38.192604 44.352001 L 38.192604 44.771996"/>
                    </g>
                </g>
            </g>
        </g>
        <g id="g23">
            <clipPath id="clipPath5">
                <path d="M 40.8 49.2 L 40.8 39.6 L 43.2 39.6 L 43.2 49.2 Z"/>
            </clipPath>
            <g id="g24" clip-path="url(#clipPath5)">
                <g id="g25">
                    <g id="g26">
                        <path id="path27" fill="none" stroke="#e3e3e3" stroke-width="0.273" stroke-linecap="round" stroke-linejoin="round" d="M 42.743408 48.3312 L 42.743408 49.034401 L 41.654396 49.034401 L 41.654396 48.3312"/>
                        <path id="path28" fill="none" stroke="#e3e3e3" stroke-width="0.273" stroke-linecap="round" stroke-linejoin="round" d="M 42.197998 48.427197 L 42.197998 49.015209"/>
                    </g>
                    <g id="g27">
                        <path id="path29" fill="none" stroke="#e3e3e3" stroke-width="0.273" stroke-linecap="round" stroke-linejoin="round" d="M 41.679588 46.795189 C 41.6562 46.773609 41.539207 47.299194 41.773193 47.479198 C 41.935204 47.604004 42.392406 47.613598 42.527393 47.54641 C 42.856812 47.38081 42.680397 46.792797 42.680397 46.792797"/>
                    </g>
                    <g id="g28">
                        <path id="path30" fill="none" stroke="#e3e3e3" stroke-width="0.273" stroke-linecap="round" stroke-linejoin="round" d="M 41.647194 46.091991 L 42.74519 46.091991"/>
                        <path id="path31" fill="none" stroke="#e3e3e3" stroke-width="0.273" stroke-linecap="round" stroke-linejoin="round" d="M 42.160206 46.091991 L 42.160206 45.244801"/>
                        <path id="path32" fill="none" stroke="#e3e3e3" stroke-width="0.273" stroke-linecap="round" stroke-linejoin="round" d="M 41.647194 45.215992 L 42.74519 45.215992"/>
                    </g>
                    <g id="g29">
                        <path id="path33" fill="none" stroke="#e3e3e3" stroke-width="0.273" stroke-linecap="round" stroke-linejoin="round" d="M 42.74519 43.987206 L 42.74519 44.083202 C 42.74519 44.31599 42.603004 44.505592 42.428394 44.505592 L 41.953197 44.505592 C 41.778587 44.505592 41.636402 44.31599 41.636402 44.083202 L 41.636402 43.984791 C 41.636402 43.752003 41.778587 43.562401 41.953197 43.562401 L 42.430199 43.562401 C 42.603004 43.564796 42.74519 43.754395 42.74519 43.987206 Z"/>
                    </g>
                </g>
            </g>
        </g>
        <g id="g30">
            <clipPath id="clipPath6">
                <path d="M 44.8 49.2 L 44.8 42 L 47.2 42 L 47.2 49.2 Z"/>
            </clipPath>
            <g id="g31" clip-path="url(#clipPath6)">
                <g id="g32">
                    <g id="g33">
                        <path id="path34" fill="none" stroke="#e3e3e3" stroke-width="0.312" stroke-linecap="round" stroke-linejoin="round" d="M 45.306396 48.182396 C 45.306396 48.182396 45.124001 48.552002 45.330395 48.818409 C 45.536793 49.084789 45.851196 48.986401 46.326393 48.986401 C 46.578392 48.986401 46.693604 48.688793 46.686401 48.446411 C 46.679199 48.232788 46.556812 48.071999 46.556812 48.071999 L 45.9688 48.071999 L 45.9688 48.491993"/>
                    </g>
                    <g id="g34">
                        <path id="path35" fill="none" stroke="#e3e3e3" stroke-width="0.312" stroke-linecap="round" stroke-linejoin="round" d="M 46.705589 47.385597 L 45.2416 47.385597 L 46.705589 46.49519 L 45.227196 46.49519"/>
                    </g>
                    <g id="g35">
                        <path id="path36" fill="none" stroke="#e3e3e3" stroke-width="0.312" stroke-linecap="round" stroke-linejoin="round" d="M 45.267994 45.698387 L 46.657593 45.705589 C 46.657593 45.705589 46.765602 45.062401 46.487206 44.911205 C 46.266407 44.79121 45.556007 44.779198 45.378395 44.959206 C 45.200806 45.13921 45.267994 45.698387 45.267994 45.698387 Z"/>
                    </g>
                </g>
            </g>
        </g>
        <path id="path37" fill="#333333" stroke="none" opacity="0.75" d="M 6 40 L 6 42.400002 C 6 49.469238 11.730762 55.200001 18.799999 55.200001 C 25.869238 55.200001 31.6 49.469238 31.6 42.400002 L 31.6 40 Z"/>
        <path id="path38" fill="#dddddd" stroke="none" d="M 31.6 40 L 31.6 39.200001 C 31.6 32.13076 25.869238 26.400002 18.799999 26.400002 C 11.730762 26.400002 6 32.13076 6 39.200001 L 6 40 Z"/>
        <path id="path39" fill="#666666" stroke="none" d="M 28.799999 40 C 28.799999 45.52285 24.322851 50 18.799999 50 C 13.277148 50 8.8 45.52285 8.8 40 C 8.8 34.47715 13.277148 30 18.799999 30 C 24.322851 30 28.799999 34.47715 28.799999 40 Z"/>
        <path id="path40" fill="#999933" stroke="none" d="M 26.799999 40 C 26.799999 44.418285 23.218287 48 18.799999 48 C 14.381714 48 10.8 44.418285 10.8 40 C 10.8 35.581715 14.381714 32 18.799999 32 C 23.218287 32 26.799999 35.581715 26.799999 40 Z"/>
        <path id="path41" fill="#999999" stroke="none" d="M 24.839991 40 C 24.839991 43.335793 22.135792 46.039989 18.799999 46.039989 C 15.464209 46.039989 12.76001 43.335793 12.76001 40 C 12.76001 36.664207 15.464209 33.960011 18.799999 33.960011 C 22.135792 33.960011 24.839991 36.664207 24.839991 40 Z"/>
        <path id="path42" fill="none" stroke="#000000" stroke-width="2.8" opacity="0.25" d="M 7.4 40 C 7.4 35.139893 12.503955 31.200001 18.799999 31.200001 C 25.096045 31.200001 30.200001 35.139893 30.200001 40"/>
        <path id="path43" fill="none" stroke="#cccccc" stroke-width="2.8" d="M 30.200001 40 C 30.200001 46.296043 25.096045 51.400002 18.799999 51.400002 C 12.503955 51.400002 7.4 46.296043 7.4 40 C 7.4 33.703957 12.503955 28.599998 18.799999 28.599998 C 25.096045 28.599998 30.200001 33.703957 30.200001 40 Z"/>
        <path id="path44" fill="#333333" stroke="none" opacity="0.75" d="M 48.400002 40 L 48.400002 42.400002 C 48.400002 49.469238 54.13076 55.200001 61.200001 55.200001 C 68.269241 55.200001 74 49.469238 74 42.400002 L 74 40 Z"/>
        <path id="path45" fill="#dddddd" stroke="none" d="M 74 40 L 74 39.200001 C 74 32.13076 68.269241 26.400002 61.200001 26.400002 C 54.13076 26.400002 48.400002 32.13076 48.400002 39.200001 L 48.400002 40 Z"/>
        <path id="path46" fill="#666666" stroke="none" d="M 71.199997 40 C 71.199997 45.52285 66.722855 50 61.200001 50 C 55.677147 50 51.200001 45.52285 51.200001 40 C 51.200001 34.47715 55.677147 30 61.200001 30 C 66.722855 30 71.199997 34.47715 71.199997 40 Z"/>
        <path id="path47" fill="#999933" stroke="none" d="M 69.199997 40 C 69.199997 44.418285 65.618263 48 61.200001 48 C 56.781738 48 53.200001 44.418285 53.200001 40 C 53.200001 35.581715 56.781738 32 61.200001 32 C 65.618263 32 69.199997 35.581715 69.199997 40 Z"/>
        <path id="path48" fill="#999999" stroke="none" d="M 67.23999 40 C 67.23999 43.335793 64.535789 46.039989 61.200001 46.039989 C 57.864208 46.039989 55.160011 43.335793 55.160011 40 C 55.160011 36.664207 57.864208 33.960011 61.200001 33.960011 C 64.535789 33.960011 67.23999 36.664207 67.23999 40 Z"/>
        <path id="path49" fill="none" stroke="#000000" stroke-width="2.8" opacity="0.25" d="M 49.799999 40 C 49.799999 35.139893 54.903954 31.200001 61.200001 31.200001 C 67.496048 31.200001 72.599998 35.139893 72.599998 40"/>
        <path id="path50" fill="none" stroke="#cccccc" stroke-width="2.8" d="M 72.599998 40 C 72.599998 46.296043 67.496048 51.400002 61.200001 51.400002 C 54.903954 51.400002 49.799999 46.296043 49.799999 40 C 49.799999 33.703957 54.903954 28.599998 61.200001 28.599998 C 67.496048 28.599998 72.599998 33.703957 72.599998 40 Z"/>
    </g>
</svg>
