<?xml version="1.0" encoding="UTF-8"?>
<!-- Generated by Pixelmator Pro 3.6.14 -->
<svg width="600" height="370" viewBox="0 0 600 370" xmlns="http://www.w3.org/2000/svg">
    <clipPath id="clipPath1">
        <path clip-rule="evenodd" d="M -70 0 L 670 0 L 670 370 L -70 370 Z"/>
    </clipPath>
    <g id="g1" clip-path="url(#clipPath1)">
        <path id="path1" fill="#ff8000" stroke="none" d="M -70 59.634125 C -68.966469 55.602356 -68.391731 51.495361 -69.14653 47.198425 C -69.14653 44.707092 -69.442535 42.286072 -70 39.967407 L -70 0 L 395.99649 0 C 397.67627 0.024658 399.400482 0.032074 401.137024 0 L 655.270264 0 C 656.384033 0.059448 657.498962 0.059448 658.612671 0 L 670 0 L 670 370 L 208.17955 370 C 205.546402 369.288391 202.829361 368.928253 200.101242 368.930695 C 197.373108 368.928253 194.657303 369.288391 192.024124 370 L 117.071991 370 C 115.279976 369.675629 113.433655 369.506683 111.549133 369.506683 C 109.663368 369.506683 107.817062 369.675629 106.025047 370 L 40.637402 370 C 38.379292 369.752136 36.101074 369.752136 33.842964 370 L 33.205334 370 C 31.413294 369.675629 29.567007 369.506683 27.682468 369.506683 C 25.796696 369.506683 23.950401 369.675629 22.158369 370 L -40.454269 370 C -42.712379 369.752136 -44.990589 369.752136 -47.248699 370 L -64.225533 370 C -64.38784 363.841949 -66.399948 357.876343 -70 352.877655 L -70 59.634125 Z"/>
        <path id="path2" fill="none" stroke="#ffa800" stroke-width="18.5" stroke-linecap="round" d="M 296.297516 261.703461 C 280.789612 268.986298 260.53949 263.685425 255.176987 246.431091 C 249.813217 229.176773 263.129517 186.195099 285.38623 181.709473 C 307.642975 177.222595 346.93573 190.976715 362.230286 224.851456 C 377.524872 258.727448 367.263519 305.897491 329.838013 314.385315 C 292.412537 322.873108 218.709778 315.606323 192.450882 263.35614 C 166.19072 211.105972 196.01889 138.904175 249.867447 123.434464 C 303.716034 107.963531 382.715942 131.377121 415.076172 199.397919 C 447.438873 267.418762 423.36911 349.032104 352.536285 372.260712 C 349.945068 373.110474 347.304504 373.903503 344.620758 374.637329"/>
        <path id="path3" fill="none" stroke="#ffa800" stroke-width="18.5" stroke-linecap="round" d="M 247.480957 376.38623 C 200.930038 366.037262 157.208374 339.044556 134.686462 291.344177 C 94.658638 206.568542 136.025864 97.159515 223.266922 65.285278 C 310.509216 33.40976 419.136261 71.101654 466.342133 170.170395 C 500.135468 241.089523 490.949615 318.719208 446.071075 371.001465"/>
        <path id="path4" fill="none" stroke="#ffa800" stroke-width="18.5" stroke-linecap="round" d="M 128.233658 371.085327 C 112.137436 354.786835 98.522659 335.250854 88.377274 312.356445 C 37.840206 198.312607 88.524033 51.61499 207.106583 2.968628 C 209.796463 1.865173 212.506119 0.809265 215.233017 -0.198547 M 382.248535 -0.273804 C 441.286987 21.725159 492.557861 67.543488 521.923523 134.50116 C 556.465515 213.263077 553.522766 301.482178 515.679199 370.987885"/>
        <path id="path5" fill="none" stroke="#ffa800" stroke-width="18.5" stroke-linecap="round" d="M 43.8638 370.527893 C 37.134361 359.609192 31.184769 348.229187 26.059399 336.473083 C -23.931299 222.045639 1.454401 84.034393 86.327469 -2.835449 M 516.544983 -4.353668 C 546.315186 24.276917 571.270447 59.886963 589.189575 102.16684 C 626.233887 189.568253 628.825134 286.997894 598.189209 371.270325 M -54.917564 371.861084 C -61.76041 354.668427 -67.421829 337.028046 -71.862335 319.063354 M -73.714798 120.243851 C -64.231697 77.823334 -48.436401 36.898865 -26.568165 -0.542664 M 660.602051 -0.170197 C 668.766663 17.423309 675.5401 36.213135 680.744751 56.200531"/>
        <path id="path6" fill="none" stroke="#ff9900" stroke-width="18.5" stroke-linecap="round" d="M 296.253143 264.554932 C 280.069336 272.155975 258.934937 266.62323 253.336838 248.615326 C 247.738739 230.607437 261.637146 185.749863 284.867004 181.066895 C 308.095581 176.385162 349.103943 190.738693 365.066956 226.093445 C 381.029999 261.448181 370.319733 310.680359 331.25885 319.538147 C 292.199158 328.397217 215.27739 320.812195 187.871506 266.280365 C 160.465591 211.747299 191.596176 136.391861 247.796692 120.246307 C 303.997223 104.100708 386.446808 128.535538 420.220428 199.527435 C 450.916809 264.048035 432.965637 340.28775 373.942047 371.848755 M 235.351151 381.775879 C 230.607727 380.474701 225.914886 378.999634 221.280045 377.35437"/>
        <path id="path7" fill="none" stroke="#ff9900" stroke-width="18.5" stroke-linecap="round" d="M 201.313583 368.954163 C 170.423523 353.784119 143.762558 329.756317 127.58493 295.490631 C 85.808228 207.011307 128.982315 92.824371 220.034363 59.557648 C 311.085205 26.290955 424.459351 65.629395 473.726105 169.023407 C 507.86969 240.682526 499.972717 318.903015 456.934235 373.328766"/>
        <path id="path8" fill="none" stroke="#ff9900" stroke-width="18.5" stroke-linecap="round" d="M 112.31134 369.515289 C 99.209633 354.493286 87.996155 337.152649 79.253059 317.420532 C 28.1388 202.074265 76.236336 54.722992 191.897095 -0.483459 M 406.325653 -0.223236 C 459.268982 25.078613 504.517548 69.73761 531.733459 131.796463 C 566.580017 211.250259 564.87561 299.923218 529.057129 371.269073"/>
        <path id="path9" fill="none" stroke="#ff9900" stroke-width="18.5" stroke-linecap="round" d="M 27.682468 369.506683 C 22.723974 360.77713 18.228107 351.792297 14.213229 342.590424 C -36.552002 226.391907 -12.841166 86.890808 70.069664 -4.074921 M 536.92334 -2.223694 C 563.243835 25.640991 585.445129 59.138336 601.937317 98.049988 C 639.453979 186.566345 643.112061 284.939453 614.080627 371.055725 M -68.925766 48.791901 C -62.1735 31.810242 -54.351219 15.273834 -45.506001 -0.717804"/>
    </g>
    <g id="icons8-time">
        <path id="path10" fill="#000000" stroke="none" opacity="0.35" d="M 411.924988 187.959991 C 411.924988 248.650574 362.725586 297.850006 302.035004 297.850006 C 241.344421 297.850006 192.144989 248.650574 192.144989 187.959991 C 192.144989 127.269424 241.344421 78.070007 302.035004 78.070007 C 362.725586 78.070007 411.924988 127.269424 411.924988 187.959991 Z"/>
        <path id="path11" fill="#f2f2f2" stroke="none" d="M 406.929993 182.964996 C 406.929993 243.655579 357.730591 292.855011 297.039978 292.855011 C 236.349426 292.855011 187.149994 243.655579 187.149994 182.964996 C 187.149994 122.274429 236.349426 73.075012 297.039978 73.075012 C 357.730591 73.075012 406.929993 122.274429 406.929993 182.964996 Z"/>
        <path id="path12" fill="#f2f2f2" stroke="none" d="M 297.039978 285.362488 C 240.579025 285.362488 194.642502 239.42601 194.642502 182.964996 C 194.642502 126.504028 240.579025 80.567505 297.039978 80.567505 C 353.500977 80.567505 399.4375 126.504028 399.4375 182.964996 C 399.4375 239.42601 353.500977 285.362488 297.039978 285.362488 Z"/>
        <path id="path13" fill="#70bfff" stroke="none" d="M 392.009949 182.964996 C 392.009949 235.415451 349.490479 277.934937 297.039978 277.934937 C 244.589539 277.934937 202.070053 235.415451 202.070053 182.964996 C 202.070053 130.514542 244.589539 87.995056 297.039978 87.995056 C 349.490479 87.995056 392.009949 130.514542 392.009949 182.964996 Z"/>
        <path id="path14" fill="#d9eeff" stroke="none" d="M 372.029938 182.964996 C 372.029938 224.380798 338.45578 257.954956 297.039978 257.954956 C 255.624191 257.954956 222.050064 224.380798 222.050064 182.964996 C 222.050064 141.54921 255.624191 107.975067 297.039978 107.975067 C 338.45578 107.975067 372.029938 141.54921 372.029938 182.964996 Z"/>
        <path id="path15" fill="none" stroke="#40396e" stroke-width="7.4925" d="M 390.696228 182.964996 C 390.696228 234.689911 348.764923 276.621246 297.039978 276.621246 C 245.315079 276.621246 203.383743 234.689911 203.383743 182.964996 C 203.383743 131.240082 245.315079 89.308746 297.039978 89.308746 C 348.764923 89.308746 390.696228 131.240082 390.696228 182.964996 Z"/>
        <path id="path16" fill="#707cc0" stroke="none" d="M 242.095001 182.964996 C 242.095001 185.723663 239.858658 187.959991 237.100006 187.959991 C 234.341339 187.959991 232.105011 185.723663 232.105011 182.964996 C 232.105011 180.206345 234.341339 177.970001 237.100006 177.970001 C 239.858658 177.970001 242.095001 180.206345 242.095001 182.964996 Z"/>
        <path id="path17" fill="#707cc0" stroke="none" d="M 361.975006 182.964996 C 361.975006 185.723663 359.738647 187.959991 356.980011 187.959991 C 354.221344 187.959991 351.985016 185.723663 351.985016 182.964996 C 351.985016 180.206345 354.221344 177.970001 356.980011 177.970001 C 359.738647 177.970001 361.975006 180.206345 361.975006 182.964996 Z"/>
        <path id="path18" fill="#707cc0" stroke="none" d="M 302.035004 123.024994 C 302.035004 125.783661 299.798676 128.019989 297.039978 128.019989 C 294.281342 128.019989 292.044983 125.783661 292.044983 123.024994 C 292.044983 120.266342 294.281342 118.029999 297.039978 118.029999 C 299.798676 118.029999 302.035004 120.266342 302.035004 123.024994 Z"/>
        <path id="path19" fill="#707cc0" stroke="none" d="M 302.035004 242.904999 C 302.035004 245.663666 299.798676 247.899994 297.039978 247.899994 C 294.281342 247.899994 292.044983 245.663666 292.044983 242.904999 C 292.044983 240.146347 294.281342 237.910019 297.039978 237.910019 C 299.798676 237.910019 302.035004 240.146347 302.035004 242.904999 Z"/>
        <path id="path20" fill="none" stroke="#40396e" stroke-width="7.4925" stroke-linecap="round" stroke-linejoin="round" d="M 333.253754 134.263748 L 295.79126 182.964996 L 327.01001 215.432495"/>
        <path id="path21" fill="#40396e" stroke="none" d="M 307.029999 182.964996 C 307.029999 188.48233 302.557343 192.955002 297.039978 192.955002 C 291.522675 192.955002 287.049988 188.48233 287.049988 182.964996 C 287.049988 177.447678 291.522675 172.975006 297.039978 172.975006 C 302.557343 172.975006 307.029999 177.447678 307.029999 182.964996 Z"/>
    </g>
</svg>
