<?xml version="1.0" encoding="UTF-8"?>
<!-- Generated by Pixelmator Pro 3.6.10 -->
<svg width="80" height="80" viewBox="0 0 80 80" xmlns="http://www.w3.org/2000/svg">
    <path id="path1" fill="#70bfff" stroke="none" d="M 73.800888 40 C 73.800888 58.667717 58.667717 73.800888 40 73.800888 C 21.332283 73.800888 6.199111 58.667717 6.199111 40 C 6.199111 21.332283 21.332283 6.199112 40 6.199112 C 58.667717 6.199112 73.800888 21.332283 73.800888 40 Z"/>
    <path id="path2" fill="#d9eeff" stroke="none" d="M 66.689781 40 C 66.689781 54.740356 54.740356 66.689781 40 66.689781 C 25.259644 66.689781 13.310223 54.740356 13.310223 40 C 13.310223 25.259644 25.259644 13.310219 40 13.310219 C 54.740356 13.310219 66.689781 25.259644 66.689781 40 Z"/>
    <path id="path3" fill="none" stroke="#40396e" stroke-width="2.666667" d="M 73.333336 40 C 73.333336 58.409492 58.409492 73.333336 40 73.333336 C 21.590508 73.333336 6.666667 58.409492 6.666667 40 C 6.666667 21.590508 21.590508 6.666664 40 6.666664 C 58.409492 6.666664 73.333336 21.590508 73.333336 40 Z"/>
    <path id="path4" fill="#707cc0" stroke="none" d="M 20.444445 40 C 20.444445 40.981838 19.648506 41.777779 18.666666 41.777779 C 17.684826 41.777779 16.888889 40.981838 16.888889 40 C 16.888889 39.018162 17.684826 38.222221 18.666666 38.222221 C 19.648506 38.222221 20.444445 39.018162 20.444445 40 Z"/>
    <path id="path5" fill="#707cc0" stroke="none" d="M 63.111111 40 C 63.111111 40.981838 62.31517 41.777779 61.333332 41.777779 C 60.351494 41.777779 59.555557 40.981838 59.555557 40 C 59.555557 39.018162 60.351494 38.222221 61.333332 38.222221 C 62.31517 38.222221 63.111111 39.018162 63.111111 40 Z"/>
    <path id="path6" fill="#707cc0" stroke="none" d="M 41.777779 18.666668 C 41.777779 19.648506 40.981838 20.444443 40 20.444443 C 39.018162 20.444443 38.222221 19.648506 38.222221 18.666668 C 38.222221 17.68483 39.018162 16.888889 40 16.888889 C 40.981838 16.888889 41.777779 17.68483 41.777779 18.666668 Z"/>
    <path id="path7" fill="#707cc0" stroke="none" d="M 41.777779 61.333336 C 41.777779 62.31517 40.981838 63.111111 40 63.111111 C 39.018162 63.111111 38.222221 62.31517 38.222221 61.333336 C 38.222221 60.351494 39.018162 59.555557 40 59.555557 C 40.981838 59.555557 41.777779 60.351494 41.777779 61.333336 Z"/>
    <path id="path8" fill="none" stroke="#40396e" stroke-width="2.666667" stroke-linecap="round" stroke-linejoin="round" d="M 52.888889 22.666668 L 39.555557 40 L 50.666668 51.555557"/>
    <path id="path9" fill="#40396e" stroke="none" d="M 43.555557 40 C 43.555557 41.96368 41.96368 43.555557 40 43.555557 C 38.03632 43.555557 36.444443 41.96368 36.444443 40 C 36.444443 38.03632 38.03632 36.444443 40 36.444443 C 41.96368 36.444443 43.555557 38.03632 43.555557 40 Z"/>
</svg>
