<?xml version="1.0" encoding="UTF-8"?>
<!-- Generated by Pixelmator Pro 3.7.1 -->
<svg width="600" height="370" viewBox="0 0 600 370" xmlns="http://www.w3.org/2000/svg">
    <g id="g1">
        <path id="path1" fill="#ff3333" stroke="none" d="M 0 370 L 0 0 L 600 0 L 600 370 Z"/>
        <g id="g2">
            <path id="path2" fill="#e62e2e" stroke="none" d="M 361.40918 9.462708 C 361.40918 4.357117 365.548065 0.218201 370.653656 0.218201 L 413.794586 0.218201 C 418.900208 0.218201 423.039063 4.357117 423.039063 9.462708 L 423.039063 52.603607 C 423.039063 57.709229 418.900208 61.848083 413.794586 61.848083 L 370.653656 61.848083 C 365.548065 61.848083 361.40918 57.709229 361.40918 52.603607 Z M 484.668945 9.461487 C 484.668945 4.355896 488.807831 0.21701 493.913452 0.21701 L 537.054382 0.21701 C 542.159973 0.21701 546.298828 4.355896 546.298828 9.461487 L 546.298828 52.602417 C 546.298828 57.707977 542.159973 61.846863 537.054382 61.846863 L 493.913452 61.846863 C 488.807831 61.846863 484.668945 57.707977 484.668945 52.602417 Z M 607.928711 9.461487 C 607.928711 4.355896 612.067627 0.21701 617.173218 0.21701 L 660.314148 0.21701 C 665.419739 0.21701 669.558594 4.355896 669.558594 9.461487 L 669.558594 52.602417 C 669.558594 57.707977 665.419739 61.846863 660.314148 61.846863 L 617.173218 61.846863 C 612.067627 61.846863 607.928711 57.707977 607.928711 52.602417 Z M -70 194.353592 C -70 189.248001 -65.861107 185.1091 -60.755516 185.1091 L -17.614599 185.1091 C -12.509012 185.1091 -8.370116 189.248001 -8.370116 194.353592 L -8.370116 237.494507 C -8.370116 242.600098 -12.509012 246.738983 -17.614599 246.738983 L -60.755516 246.738983 C -65.861107 246.738983 -70 242.600098 -70 237.494507 Z M 176.519531 194.353592 C 176.519531 189.248001 180.658432 185.1091 185.764023 185.1091 L 228.904938 185.1091 C 234.010529 185.1091 238.149414 189.248001 238.149414 194.353592 L 238.149414 237.494507 C 238.149414 242.600098 234.010529 246.738983 228.904938 246.738983 L 185.764023 246.738983 C 180.658432 246.738983 176.519531 242.600098 176.519531 237.494507 Z M 299.779297 194.352371 C 299.779297 189.24678 303.918182 185.10788 309.023773 185.10788 L 352.164703 185.10788 C 357.270325 185.10788 361.40918 189.24678 361.40918 194.352371 L 361.40918 237.493286 C 361.40918 242.598877 357.270325 246.737762 352.164703 246.737762 L 309.023773 246.737762 C 303.918182 246.737762 299.779297 242.598877 299.779297 237.493286 Z M 53.259769 194.353592 C 53.259769 189.248001 57.398663 185.1091 62.50425 185.1091 L 105.645172 185.1091 C 110.750755 185.1091 114.889648 189.248001 114.889648 194.353592 L 114.889648 237.494507 C 114.889648 242.600098 110.750755 246.738983 105.645172 246.738983 L 62.50425 246.738983 C 57.398663 246.738983 53.259769 242.600098 53.259769 237.494507 Z M -8.370116 9.465179 C -8.370116 4.359589 -4.23122 0.220703 0.874366 0.220703 L 44.015285 0.220703 C 49.120872 0.220703 53.259769 4.359589 53.259769 9.465179 L 53.259769 52.60611 C 53.259769 57.71167 49.120872 61.850586 44.015285 61.850586 L 0.874366 61.850586 C -4.23122 61.850586 -8.370116 57.71167 -8.370116 52.60611 Z M 114.889648 9.465179 C 114.889648 4.359589 119.028549 0.220703 124.134132 0.220703 L 167.275055 0.220703 C 172.380646 0.220703 176.519531 4.359589 176.519531 9.465179 L 176.519531 52.60611 C 176.519531 57.71167 172.380646 61.850586 167.275055 61.850586 L 124.134132 61.850586 C 119.028549 61.850586 114.889648 57.71167 114.889648 52.60611 Z M 238.149414 9.463928 C 238.149414 4.358368 242.288315 0.219452 247.393906 0.219452 L 290.534821 0.219452 C 295.640411 0.219452 299.779297 4.358368 299.779297 9.463928 L 299.779297 52.604858 C 299.779297 57.710449 295.640411 61.849335 290.534821 61.849335 L 247.393906 61.849335 C 242.288315 61.849335 238.149414 57.710449 238.149414 52.604858 Z M 423.039063 194.352371 C 423.039063 189.24678 427.177948 185.10788 432.283539 185.10788 L 475.424469 185.10788 C 480.53009 185.10788 484.668945 189.24678 484.668945 194.352371 L 484.668945 237.493286 C 484.668945 242.598877 480.53009 246.737762 475.424469 246.737762 L 432.283539 246.737762 C 427.177948 246.737762 423.039063 242.598877 423.039063 237.493286 Z M 546.298828 194.352371 C 546.298828 189.24678 550.437744 185.10788 555.543335 185.10788 L 598.684265 185.10788 C 603.789856 185.10788 607.928711 189.24678 607.928711 194.352371 L 607.928711 237.493286 C 607.928711 242.598877 603.789856 246.737762 598.684265 246.737762 L 555.543335 246.737762 C 550.437744 246.737762 546.298828 242.598877 546.298828 237.493286 Z M -70 71.095062 C -70 65.989471 -65.861107 61.850586 -60.755516 61.850586 L -17.614599 61.850586 C -12.509012 61.850586 -8.370116 65.989471 -8.370116 71.095062 L -8.370116 114.235977 C -8.370798 119.341095 -12.509492 123.479218 -17.614599 123.479218 L -60.755516 123.479218 C -65.861107 123.479218 -70 119.340347 -70 114.234741 Z M 176.519531 71.09259 C 176.519531 65.987 180.658432 61.848083 185.764023 61.848083 L 228.904938 61.848083 C 234.010529 61.848083 238.149414 65.987 238.149414 71.09259 L 238.149414 114.233521 C 238.149734 116.685532 237.175919 119.037201 235.4422 120.771149 C 233.708511 122.505081 231.356949 123.479218 228.904938 123.479218 L 185.764023 123.479218 C 180.658432 123.479218 176.519531 119.340347 176.519531 114.234741 Z M 299.779297 71.09259 C 299.779297 65.987 303.918182 61.848083 309.023773 61.848083 L 352.164703 61.848083 C 357.270325 61.848083 361.40918 65.987 361.40918 71.09259 L 361.40918 114.233521 C 361.40918 119.339111 357.270325 123.477997 352.164703 123.477997 L 309.023773 123.477997 C 303.918182 123.477997 299.779297 119.339111 299.779297 114.233521 Z M 53.259769 71.095062 C 53.259769 65.989471 57.398663 61.850586 62.50425 61.850586 L 105.645172 61.850586 C 110.750755 61.850586 114.889648 65.989471 114.889648 71.095062 L 114.889648 114.235977 C 114.888977 119.341095 110.750267 123.479218 105.645172 123.479218 L 62.50425 123.479218 C 57.398663 123.479218 53.259769 119.340347 53.259769 114.234741 Z M 361.40918 255.982254 C 361.40918 250.876663 365.548065 246.737762 370.653656 246.737762 L 413.794586 246.737762 C 418.900208 246.737762 423.039063 250.876663 423.039063 255.982254 L 423.039063 299.123169 C 423.039063 304.22876 418.900208 308.367645 413.794586 308.367645 L 370.653656 308.367645 C 365.548065 308.367645 361.40918 304.22876 361.40918 299.123169 Z M 484.668945 255.981018 C 484.668945 250.875427 488.807831 246.736526 493.913452 246.736526 L 537.054382 246.736526 C 542.159973 246.736526 546.298828 250.875427 546.298828 255.981018 L 546.298828 299.121918 C 546.298828 304.227509 542.159973 308.366394 537.054382 308.366394 L 493.913452 308.366394 C 488.807831 308.366394 484.668945 304.227509 484.668945 299.121918 Z M 607.928711 255.981018 C 607.928711 250.875427 612.067627 246.736526 617.173218 246.736526 L 660.314148 246.736526 C 665.419739 246.736526 669.558594 250.875427 669.558594 255.981018 L 669.558594 299.121918 C 669.558594 304.227509 665.419739 308.366394 660.314148 308.366394 L 617.173218 308.366394 C 612.067627 308.366394 607.928711 304.227509 607.928711 299.121918 Z M 423.039063 71.09259 C 423.039063 65.987 427.177948 61.848083 432.283539 61.848083 L 475.424469 61.848083 C 480.53009 61.848083 484.668945 65.987 484.668945 71.09259 L 484.668945 114.233521 C 484.668945 119.339111 480.53009 123.477997 475.424469 123.477997 L 432.283539 123.477997 C 427.177948 123.477997 423.039063 119.339111 423.039063 114.233521 Z M 546.298828 71.09259 C 546.298828 65.987 550.437744 61.848083 555.543335 61.848083 L 598.684265 61.848083 C 603.789856 61.848083 607.928711 65.987 607.928711 71.09259 L 607.928711 114.233521 C 607.928711 119.339111 603.789856 123.477997 598.684265 123.477997 L 555.543335 123.477997 C 550.437744 123.477997 546.298828 119.339111 546.298828 114.233521 Z M -8.370116 255.983475 C -8.370116 250.877884 -4.23122 246.738983 0.874366 246.738983 L 44.015285 246.738983 C 49.120872 246.738983 53.259769 250.877884 53.259769 255.983475 L 53.259769 299.12439 C 53.259769 304.22998 49.120872 308.368866 44.015285 308.368866 L 0.874366 308.368866 C -4.23122 308.368866 -8.370116 304.22998 -8.370116 299.12439 Z M 114.889648 255.983475 C 114.889648 250.877884 119.028549 246.738983 124.134132 246.738983 L 167.275055 246.738983 C 172.380646 246.738983 176.519531 250.877884 176.519531 255.983475 L 176.519531 299.12439 C 176.519531 304.22998 172.380646 308.368866 167.275055 308.368866 L 124.134132 308.368866 C 119.028549 308.368866 114.889648 304.22998 114.889648 299.12439 Z M 238.149414 255.983475 C 238.149414 250.877884 242.288315 246.738983 247.393906 246.738983 L 290.534821 246.738983 C 295.640411 246.738983 299.779297 250.877884 299.779297 255.983475 L 299.779297 299.12439 C 299.779297 304.22998 295.640411 308.368866 290.534821 308.368866 L 247.393906 308.368866 C 242.288315 308.368866 238.149414 304.22998 238.149414 299.12439 Z M 361.40918 132.722488 C 361.40918 127.616898 365.548065 123.477997 370.653656 123.477997 L 413.794586 123.477997 C 418.900208 123.477997 423.039063 127.616898 423.039063 132.722488 L 423.039063 175.863403 C 423.039063 180.968994 418.900208 185.10788 413.794586 185.10788 L 370.653656 185.10788 C 365.548065 185.10788 361.40918 180.968994 361.40918 175.863403 Z M 484.668945 132.721268 C 484.669617 127.61615 488.808319 123.477997 493.913452 123.477997 L 537.054382 123.477997 C 542.159485 123.477997 546.298157 127.61615 546.298828 132.721268 L 546.298828 175.862167 C 546.298828 180.967743 542.159973 185.106644 537.054382 185.106644 L 493.913452 185.106644 C 488.807831 185.106644 484.668945 180.967743 484.668945 175.862167 Z M 607.928711 132.721268 C 607.929382 127.61615 612.068115 123.477997 617.173218 123.477997 L 660.314148 123.477997 C 665.419189 123.477997 669.557922 127.61615 669.558594 132.721268 L 669.558594 175.862167 C 669.558594 180.967743 665.419739 185.106644 660.314148 185.106644 L 617.173218 185.106644 C 612.067627 185.106644 607.928711 180.967743 607.928711 175.862167 Z M -70 317.614594 C -70 312.509003 -65.861107 308.370117 -60.755516 308.370117 L -17.614599 308.370117 C -12.509012 308.370117 -8.370116 312.509003 -8.370116 317.614594 L -8.370116 360.755524 C -8.370116 365.861084 -12.509012 370 -17.614599 370 L -60.755516 370 C -65.861107 370 -70 365.861084 -70 360.755524 Z M 176.519531 317.613342 C 176.519531 312.507782 180.658432 308.368866 185.764023 308.368866 L 228.904938 308.368866 C 234.010529 308.368866 238.149414 312.507782 238.149414 317.613342 L 238.149414 360.754272 C 238.149414 365.859894 234.010529 369.998749 228.904938 369.998749 L 185.764023 369.998749 C 180.658432 369.998749 176.519531 365.859894 176.519531 360.754272 Z M 299.779297 317.612122 C 299.779297 312.506561 303.918182 308.367645 309.023773 308.367645 L 352.164703 308.367645 C 357.270325 308.367645 361.40918 312.506561 361.40918 317.612122 L 361.40918 360.753021 C 361.40918 365.858643 357.270325 369.997528 352.164703 369.997528 L 309.023773 369.997528 C 303.918182 369.997528 299.779297 365.858643 299.779297 360.753021 Z M 53.259769 317.614594 C 53.259769 312.509003 57.398663 308.370117 62.50425 308.370117 L 105.645172 308.370117 C 110.750755 308.370117 114.889648 312.509003 114.889648 317.614594 L 114.889648 360.755524 C 114.889648 365.861084 110.750755 370 105.645172 370 L 62.50425 370 C 57.398663 370 53.259769 365.861084 53.259769 360.755524 Z M -8.370116 132.723709 C -8.370116 127.618134 -4.23122 123.479218 0.874366 123.479218 L 44.015285 123.479218 C 49.120872 123.479218 53.259769 127.618134 53.259769 132.723709 L 53.259769 175.864624 C 53.259769 180.970215 49.120872 185.1091 44.015285 185.1091 L 0.874366 185.1091 C -4.23122 185.1091 -8.370116 180.970215 -8.370116 175.864624 Z M 114.889648 132.723709 C 114.889648 127.618134 119.028549 123.479218 124.134132 123.479218 L 167.275055 123.479218 C 172.380646 123.479218 176.519531 127.618134 176.519531 132.723709 L 176.519531 175.864624 C 176.519531 180.970215 172.380646 185.1091 167.275055 185.1091 L 124.134132 185.1091 C 119.028549 185.1091 114.889648 180.970215 114.889648 175.864624 Z M 238.149414 132.723709 C 238.149414 127.618134 242.288315 123.479218 247.393906 123.479218 L 290.534821 123.479218 C 295.640411 123.479218 299.779297 127.618134 299.779297 132.723709 L 299.779297 175.864624 C 299.779297 180.970215 295.640411 185.1091 290.534821 185.1091 L 247.393906 185.1091 C 242.288315 185.1091 238.149414 180.970215 238.149414 175.864624 Z M 423.039063 317.612122 C 423.039063 312.506561 427.177948 308.367645 432.283539 308.367645 L 475.424469 308.367645 C 480.53009 308.367645 484.668945 312.506561 484.668945 317.612122 L 484.668945 360.753021 C 484.668945 365.858643 480.53009 369.997528 475.424469 369.997528 L 432.283539 369.997528 C 427.177948 369.997528 423.039063 365.858643 423.039063 360.753021 Z M 546.298828 317.612122 C 546.298828 312.506561 550.437744 308.367645 555.543335 308.367645 L 598.684265 308.367645 C 603.789856 308.367645 607.928711 312.506561 607.928711 317.612122 L 607.928711 360.753021 C 607.928711 365.858643 603.789856 369.997528 598.684265 369.997528 L 555.543335 369.997528 C 550.437744 369.997528 546.298828 365.858643 546.298828 360.753021 Z"/>
        </g>
    </g>
    <path id="path3" fill="#333333" fill-rule="evenodd" stroke="none" opacity="0.658049" d="M 421 237.5 C 421 230.044159 366.6026 224 299.5 224 C 232.3974 224 178 230.044159 178 237.5 C 178 244.955841 232.3974 251 299.5 251 C 366.6026 251 421 244.955841 421 237.5 Z"/>
    <g id="-">
        <g id="drill-tool">
            <g id="g3">
                <g id="g4">
                    <path id="path4" fill="#666666" fill-rule="evenodd" stroke="none" d="M 424.712738 171.418533 L 464.100525 171.41925 C 468.741547 171.418533 472.49054 167.66951 472.491302 163.028519 C 472.520325 158.356216 468.741608 154.577499 464.070801 154.608002 L 424.682953 154.607285 C 420.041931 154.608002 416.292938 158.356979 416.292206 162.997971 C 416.263153 167.670273 420.041931 171.449036 424.712738 171.418533 Z"/>
                </g>
                <g id="g5">
                    <path id="path5" fill="#b6b6b6" fill-rule="evenodd" stroke="none" d="M 397.546478 200.548157 C 397.546478 200.548157 392.617523 200.54747 403.387939 200.548187 C 415.586517 200.54747 425.464935 190.669037 425.465668 178.47049 C 425.495453 168.741699 425.49469 157.314575 425.495453 147.556747 C 425.49469 135.35675 415.617035 125.479065 403.418488 125.479782 C 392.617523 125.509567 397.545074 125.50885 397.545074 125.50885 L 397.546478 200.548157 Z"/>
                </g>
                <g id="g6">
                    <path id="path6" fill="#888888" fill-rule="evenodd" stroke="none" d="M 425.49469 164.218353 C 425.495453 176.418365 415.617767 186.296082 403.417725 186.295334 C 392.617523 186.266296 397.575592 186.296082 397.575592 186.296082 L 397.545074 125.50885 L 397.546478 200.548157 C 397.546478 200.548157 392.617523 200.54747 403.387939 200.548187 C 415.586517 200.54747 425.464935 190.669037 425.465668 178.47049 L 425.49469 164.218353 Z"/>
                </g>
                <g id="g7">
                    <path id="path7" fill="#c8c8c8" fill-rule="evenodd" stroke="none" d="M 397.576294 147.972992 L 403.417725 147.972992 C 415.616302 147.972275 425.495453 157.851395 425.49469 170.049942 L 425.465668 178.47049 C 425.495453 168.741699 425.49469 157.314575 425.495453 147.556747 C 425.49469 135.35675 415.617035 125.479065 403.418488 125.479782 C 392.617493 125.509567 397.545074 125.50885 397.545074 125.50885 L 397.576294 147.972992 Z"/>
                </g>
                <g id="g8">
                    <path id="path8" fill="#25b736" fill-rule="evenodd" stroke="none" d="M 208.595413 95.428284 C 198.777298 95.428284 189.344894 99.32547 182.382278 106.288086 C 175.449448 113.220947 171.552261 122.653305 171.552277 132.47142 C 171.581329 151.482986 171.551529 174.542786 171.582047 193.555771 C 171.552261 203.403671 175.47995 212.807022 182.411331 219.738419 C 189.37468 226.701736 198.747513 230.598907 208.624466 230.59819 C 266.108704 230.598938 313.222229 230.598907 367.254608 230.599655 C 384.750122 230.598907 398.912842 216.436172 398.912903 198.94136 C 398.941193 177.309692 398.941925 148.746628 398.91214 127.114929 C 398.91214 109.620117 384.750122 95.458069 367.25528 95.45813 C 313.222229 95.458069 266.109467 95.457367 208.595413 95.428284 Z"/>
                </g>
                <g id="g9">
                    <path id="path9" fill="#1c8928" fill-rule="evenodd" stroke="none" d="M 397.545776 177.042343 C 397.545746 194.53714 383.383026 208.699936 365.888214 208.699936 C 311.855103 208.699905 264.74234 208.699188 207.22905 208.730438 C 197.410919 208.730438 188.008316 204.802017 181.046432 197.840134 C 174.113602 190.907303 170.185181 181.5047 170.185181 171.686523 L 170.215683 193.555771 C 170.185913 203.403671 174.113602 212.807022 181.044983 219.738419 C 188.008316 226.701736 197.381149 230.598907 207.258102 230.59819 C 264.74234 230.598938 311.855865 230.598907 365.888245 230.599655 C 383.383759 230.598892 397.546509 216.436172 397.546539 198.94136 L 397.545776 177.042343 Z"/>
                </g>
                <g id="g10">
                    <path id="path10" fill="#5cc968" fill-rule="evenodd" stroke="none" d="M 170.185913 132.471436 C 170.214966 151.482986 170.185181 164.248138 170.185181 164.248138 C 170.185913 154.429306 174.113602 145.02739 181.046417 138.094589 C 188.008316 131.132675 197.410187 127.205002 207.22905 127.204239 C 264.742371 127.23407 311.855133 127.234772 365.888214 127.234787 C 383.383026 127.234772 397.545074 141.39682 397.546478 158.893082 L 397.545776 127.114929 C 397.545746 109.620117 383.383759 95.458069 365.888947 95.45813 C 311.855865 95.458069 264.743103 95.457367 207.22905 95.428284 C 197.410934 95.428284 187.978546 99.32547 181.01593 106.288086 C 174.083099 113.220947 170.185898 122.653305 170.185913 132.471436 Z"/>
                </g>
                <g id="g11">
                    <path id="path11" fill="#f2af0d" fill-rule="evenodd" stroke="none" d="M 213.452072 139.360489 C 210.017166 139.360489 206.717209 140.723923 204.281311 143.159821 C 201.855835 145.585297 200.492386 148.885269 200.492386 152.320175 C 200.502548 158.971451 200.492126 167.039001 200.502808 173.690781 C 200.492386 177.136108 201.866501 180.425903 204.291473 182.850876 C 206.727615 185.287018 210.006744 186.650467 213.46225 186.650223 C 233.573334 186.650467 271.942902 186.650467 290.846313 186.650726 C 296.967194 186.650467 301.922089 181.695572 301.922089 175.574951 C 301.932007 168.007019 301.932251 158.014114 301.921844 150.446182 C 301.921844 144.325562 296.967194 139.370911 290.846588 139.370911 C 271.942871 139.370895 233.573593 139.370651 213.452072 139.360489 Z"/>
                </g>
                <g id="g12">
                    <path id="path12" fill="#f5c34a" fill-rule="evenodd" stroke="none" d="M 200.509628 174.601624 C 200.718094 171.478806 202.027084 168.501984 204.258606 166.270462 C 206.697891 163.831177 210.000854 162.492416 213.452744 162.492416 C 233.565521 162.492401 271.948883 162.492416 290.812256 162.492401 C 296.942383 162.493149 301.911011 167.461761 301.910309 173.590469 L 301.909546 150.442032 C 301.880524 144.343109 296.940948 139.403549 290.84201 139.374496 C 271.918396 139.373764 233.537201 139.374496 213.422241 139.373764 C 210.001587 139.403549 206.698624 140.74231 204.258621 143.182312 C 201.848404 145.592529 200.479843 148.925293 200.479843 152.316162 C 200.479843 158.981674 200.479843 167.073853 200.48056 173.680542 C 200.479843 173.977631 200.481293 174.275467 200.509628 174.601624 Z"/>
                </g>
                <g id="g13">
                    <path id="path13" fill="#15671e" fill-rule="evenodd" stroke="none" d="M 337.026581 183.766724 L 367.077362 183.765976 C 371.719849 183.766693 375.498566 179.987946 375.497864 175.345474 C 375.498596 170.704453 371.719818 166.925674 367.078796 166.926407 L 336.996826 166.95546 C 332.355804 166.956192 328.606812 170.705185 328.606079 175.346207 C 328.606812 179.988647 332.38559 183.767426 337.026581 183.766724 Z"/>
                </g>
                <g id="g14">
                    <path id="path14" fill="#15671e" fill-rule="evenodd" stroke="none" d="M 337.026611 210.187592 L 367.078796 210.188324 C 371.719849 210.187607 375.498596 206.408829 375.499329 201.767792 C 375.497864 197.126053 371.719116 193.347275 367.078827 193.347275 L 337.026581 193.346573 C 332.38559 193.347275 328.606812 197.126068 328.606079 201.767075 C 328.606812 206.409546 332.38559 210.188324 337.026611 210.187592 Z"/>
                </g>
                <g id="g15">
                    <path id="path15" fill="#15671e" fill-rule="evenodd" stroke="none" d="M 336.997528 130.953995 L 367.078094 130.923477 C 371.748871 130.953964 375.497864 127.204971 375.497864 122.503708 C 375.498596 117.862671 371.748871 114.112946 367.107849 114.113678 L 336.997559 114.112946 C 332.356537 114.113678 328.577759 117.892456 328.577026 122.533478 C 328.576324 127.174469 332.355072 130.953232 336.997528 130.953995 Z"/>
                </g>
                <g id="g16">
                    <path id="path16" fill="#15671e" fill-rule="evenodd" stroke="none" d="M 337.027344 157.345093 L 367.077362 157.345108 C 371.719818 157.345825 375.498596 153.567047 375.497864 148.924576 C 375.498596 144.283554 371.748871 140.533829 367.107849 140.534561 L 336.996796 140.534592 C 332.355804 140.535294 328.606812 144.284286 328.606812 148.924576 C 328.577759 153.596832 332.355072 157.374146 337.027344 157.345093 Z"/>
                </g>
            </g>
        </g>
    </g>
</svg>
