<?xml version="1.0" encoding="UTF-8"?>
<!-- Generated by Pixelmator Pro 3.7.1 -->
<svg width="600" height="370" viewBox="0 0 600 370" xmlns="http://www.w3.org/2000/svg">
    <g id="g1">
        <path id="path1" fill="#ff3333" stroke="none" d="M 0 370 L 0 0 L 600 0 L 600 370 Z"/>
        <g id="g2">
            <path id="path2" fill="#e62e2e" stroke="none" d="M 361.40918 9.462708 C 361.40918 4.357117 365.548065 0.218201 370.653656 0.218201 L 413.794586 0.218201 C 418.900208 0.218201 423.039063 4.357117 423.039063 9.462708 L 423.039063 52.603607 C 423.039063 57.709229 418.900208 61.848083 413.794586 61.848083 L 370.653656 61.848083 C 365.548065 61.848083 361.40918 57.709229 361.40918 52.603607 Z M 484.668945 9.461487 C 484.668945 4.355896 488.807831 0.21701 493.913452 0.21701 L 537.054382 0.21701 C 542.159973 0.21701 546.298828 4.355896 546.298828 9.461487 L 546.298828 52.602417 C 546.298828 57.707977 542.159973 61.846863 537.054382 61.846863 L 493.913452 61.846863 C 488.807831 61.846863 484.668945 57.707977 484.668945 52.602417 Z M 607.928711 9.461487 C 607.928711 4.355896 612.067627 0.21701 617.173218 0.21701 L 660.314148 0.21701 C 665.419739 0.21701 669.558594 4.355896 669.558594 9.461487 L 669.558594 52.602417 C 669.558594 57.707977 665.419739 61.846863 660.314148 61.846863 L 617.173218 61.846863 C 612.067627 61.846863 607.928711 57.707977 607.928711 52.602417 Z M -70 194.353592 C -70 189.248001 -65.861107 185.1091 -60.755516 185.1091 L -17.614599 185.1091 C -12.509012 185.1091 -8.370116 189.248001 -8.370116 194.353592 L -8.370116 237.494507 C -8.370116 242.600098 -12.509012 246.738983 -17.614599 246.738983 L -60.755516 246.738983 C -65.861107 246.738983 -70 242.600098 -70 237.494507 Z M 176.519531 194.353592 C 176.519531 189.248001 180.658432 185.1091 185.764023 185.1091 L 228.904938 185.1091 C 234.010529 185.1091 238.149414 189.248001 238.149414 194.353592 L 238.149414 237.494507 C 238.149414 242.600098 234.010529 246.738983 228.904938 246.738983 L 185.764023 246.738983 C 180.658432 246.738983 176.519531 242.600098 176.519531 237.494507 Z M 299.779297 194.352371 C 299.779297 189.24678 303.918182 185.10788 309.023773 185.10788 L 352.164703 185.10788 C 357.270325 185.10788 361.40918 189.24678 361.40918 194.352371 L 361.40918 237.493286 C 361.40918 242.598877 357.270325 246.737762 352.164703 246.737762 L 309.023773 246.737762 C 303.918182 246.737762 299.779297 242.598877 299.779297 237.493286 Z M 53.259769 194.353592 C 53.259769 189.248001 57.398663 185.1091 62.50425 185.1091 L 105.645172 185.1091 C 110.750755 185.1091 114.889648 189.248001 114.889648 194.353592 L 114.889648 237.494507 C 114.889648 242.600098 110.750755 246.738983 105.645172 246.738983 L 62.50425 246.738983 C 57.398663 246.738983 53.259769 242.600098 53.259769 237.494507 Z M -8.370116 9.465179 C -8.370116 4.359589 -4.23122 0.220703 0.874366 0.220703 L 44.015285 0.220703 C 49.120872 0.220703 53.259769 4.359589 53.259769 9.465179 L 53.259769 52.60611 C 53.259769 57.71167 49.120872 61.850586 44.015285 61.850586 L 0.874366 61.850586 C -4.23122 61.850586 -8.370116 57.71167 -8.370116 52.60611 Z M 114.889648 9.465179 C 114.889648 4.359589 119.028549 0.220703 124.134132 0.220703 L 167.275055 0.220703 C 172.380646 0.220703 176.519531 4.359589 176.519531 9.465179 L 176.519531 52.60611 C 176.519531 57.71167 172.380646 61.850586 167.275055 61.850586 L 124.134132 61.850586 C 119.028549 61.850586 114.889648 57.71167 114.889648 52.60611 Z M 238.149414 9.463928 C 238.149414 4.358368 242.288315 0.219452 247.393906 0.219452 L 290.534821 0.219452 C 295.640411 0.219452 299.779297 4.358368 299.779297 9.463928 L 299.779297 52.604858 C 299.779297 57.710449 295.640411 61.849335 290.534821 61.849335 L 247.393906 61.849335 C 242.288315 61.849335 238.149414 57.710449 238.149414 52.604858 Z M 423.039063 194.352371 C 423.039063 189.24678 427.177948 185.10788 432.283539 185.10788 L 475.424469 185.10788 C 480.53009 185.10788 484.668945 189.24678 484.668945 194.352371 L 484.668945 237.493286 C 484.668945 242.598877 480.53009 246.737762 475.424469 246.737762 L 432.283539 246.737762 C 427.177948 246.737762 423.039063 242.598877 423.039063 237.493286 Z M 546.298828 194.352371 C 546.298828 189.24678 550.437744 185.10788 555.543335 185.10788 L 598.684265 185.10788 C 603.789856 185.10788 607.928711 189.24678 607.928711 194.352371 L 607.928711 237.493286 C 607.928711 242.598877 603.789856 246.737762 598.684265 246.737762 L 555.543335 246.737762 C 550.437744 246.737762 546.298828 242.598877 546.298828 237.493286 Z M -70 71.095062 C -70 65.989471 -65.861107 61.850586 -60.755516 61.850586 L -17.614599 61.850586 C -12.509012 61.850586 -8.370116 65.989471 -8.370116 71.095062 L -8.370116 114.235977 C -8.370798 119.341095 -12.509492 123.479218 -17.614599 123.479218 L -60.755516 123.479218 C -65.861107 123.479218 -70 119.340347 -70 114.234741 Z M 176.519531 71.09259 C 176.519531 65.987 180.658432 61.848083 185.764023 61.848083 L 228.904938 61.848083 C 234.010529 61.848083 238.149414 65.987 238.149414 71.09259 L 238.149414 114.233521 C 238.149734 116.685532 237.175919 119.037201 235.4422 120.771149 C 233.708511 122.505081 231.356949 123.479218 228.904938 123.479218 L 185.764023 123.479218 C 180.658432 123.479218 176.519531 119.340347 176.519531 114.234741 Z M 299.779297 71.09259 C 299.779297 65.987 303.918182 61.848083 309.023773 61.848083 L 352.164703 61.848083 C 357.270325 61.848083 361.40918 65.987 361.40918 71.09259 L 361.40918 114.233521 C 361.40918 119.339111 357.270325 123.477997 352.164703 123.477997 L 309.023773 123.477997 C 303.918182 123.477997 299.779297 119.339111 299.779297 114.233521 Z M 53.259769 71.095062 C 53.259769 65.989471 57.398663 61.850586 62.50425 61.850586 L 105.645172 61.850586 C 110.750755 61.850586 114.889648 65.989471 114.889648 71.095062 L 114.889648 114.235977 C 114.888977 119.341095 110.750267 123.479218 105.645172 123.479218 L 62.50425 123.479218 C 57.398663 123.479218 53.259769 119.340347 53.259769 114.234741 Z M 361.40918 255.982254 C 361.40918 250.876663 365.548065 246.737762 370.653656 246.737762 L 413.794586 246.737762 C 418.900208 246.737762 423.039063 250.876663 423.039063 255.982254 L 423.039063 299.123169 C 423.039063 304.22876 418.900208 308.367645 413.794586 308.367645 L 370.653656 308.367645 C 365.548065 308.367645 361.40918 304.22876 361.40918 299.123169 Z M 484.668945 255.981018 C 484.668945 250.875427 488.807831 246.736526 493.913452 246.736526 L 537.054382 246.736526 C 542.159973 246.736526 546.298828 250.875427 546.298828 255.981018 L 546.298828 299.121918 C 546.298828 304.227509 542.159973 308.366394 537.054382 308.366394 L 493.913452 308.366394 C 488.807831 308.366394 484.668945 304.227509 484.668945 299.121918 Z M 607.928711 255.981018 C 607.928711 250.875427 612.067627 246.736526 617.173218 246.736526 L 660.314148 246.736526 C 665.419739 246.736526 669.558594 250.875427 669.558594 255.981018 L 669.558594 299.121918 C 669.558594 304.227509 665.419739 308.366394 660.314148 308.366394 L 617.173218 308.366394 C 612.067627 308.366394 607.928711 304.227509 607.928711 299.121918 Z M 423.039063 71.09259 C 423.039063 65.987 427.177948 61.848083 432.283539 61.848083 L 475.424469 61.848083 C 480.53009 61.848083 484.668945 65.987 484.668945 71.09259 L 484.668945 114.233521 C 484.668945 119.339111 480.53009 123.477997 475.424469 123.477997 L 432.283539 123.477997 C 427.177948 123.477997 423.039063 119.339111 423.039063 114.233521 Z M 546.298828 71.09259 C 546.298828 65.987 550.437744 61.848083 555.543335 61.848083 L 598.684265 61.848083 C 603.789856 61.848083 607.928711 65.987 607.928711 71.09259 L 607.928711 114.233521 C 607.928711 119.339111 603.789856 123.477997 598.684265 123.477997 L 555.543335 123.477997 C 550.437744 123.477997 546.298828 119.339111 546.298828 114.233521 Z M -8.370116 255.983475 C -8.370116 250.877884 -4.23122 246.738983 0.874366 246.738983 L 44.015285 246.738983 C 49.120872 246.738983 53.259769 250.877884 53.259769 255.983475 L 53.259769 299.12439 C 53.259769 304.22998 49.120872 308.368866 44.015285 308.368866 L 0.874366 308.368866 C -4.23122 308.368866 -8.370116 304.22998 -8.370116 299.12439 Z M 114.889648 255.983475 C 114.889648 250.877884 119.028549 246.738983 124.134132 246.738983 L 167.275055 246.738983 C 172.380646 246.738983 176.519531 250.877884 176.519531 255.983475 L 176.519531 299.12439 C 176.519531 304.22998 172.380646 308.368866 167.275055 308.368866 L 124.134132 308.368866 C 119.028549 308.368866 114.889648 304.22998 114.889648 299.12439 Z M 238.149414 255.983475 C 238.149414 250.877884 242.288315 246.738983 247.393906 246.738983 L 290.534821 246.738983 C 295.640411 246.738983 299.779297 250.877884 299.779297 255.983475 L 299.779297 299.12439 C 299.779297 304.22998 295.640411 308.368866 290.534821 308.368866 L 247.393906 308.368866 C 242.288315 308.368866 238.149414 304.22998 238.149414 299.12439 Z M 361.40918 132.722488 C 361.40918 127.616898 365.548065 123.477997 370.653656 123.477997 L 413.794586 123.477997 C 418.900208 123.477997 423.039063 127.616898 423.039063 132.722488 L 423.039063 175.863403 C 423.039063 180.968994 418.900208 185.10788 413.794586 185.10788 L 370.653656 185.10788 C 365.548065 185.10788 361.40918 180.968994 361.40918 175.863403 Z M 484.668945 132.721268 C 484.669617 127.61615 488.808319 123.477997 493.913452 123.477997 L 537.054382 123.477997 C 542.159485 123.477997 546.298157 127.61615 546.298828 132.721268 L 546.298828 175.862167 C 546.298828 180.967743 542.159973 185.106644 537.054382 185.106644 L 493.913452 185.106644 C 488.807831 185.106644 484.668945 180.967743 484.668945 175.862167 Z M 607.928711 132.721268 C 607.929382 127.61615 612.068115 123.477997 617.173218 123.477997 L 660.314148 123.477997 C 665.419189 123.477997 669.557922 127.61615 669.558594 132.721268 L 669.558594 175.862167 C 669.558594 180.967743 665.419739 185.106644 660.314148 185.106644 L 617.173218 185.106644 C 612.067627 185.106644 607.928711 180.967743 607.928711 175.862167 Z M -70 317.614594 C -70 312.509003 -65.861107 308.370117 -60.755516 308.370117 L -17.614599 308.370117 C -12.509012 308.370117 -8.370116 312.509003 -8.370116 317.614594 L -8.370116 360.755524 C -8.370116 365.861084 -12.509012 370 -17.614599 370 L -60.755516 370 C -65.861107 370 -70 365.861084 -70 360.755524 Z M 176.519531 317.613342 C 176.519531 312.507782 180.658432 308.368866 185.764023 308.368866 L 228.904938 308.368866 C 234.010529 308.368866 238.149414 312.507782 238.149414 317.613342 L 238.149414 360.754272 C 238.149414 365.859894 234.010529 369.998749 228.904938 369.998749 L 185.764023 369.998749 C 180.658432 369.998749 176.519531 365.859894 176.519531 360.754272 Z M 299.779297 317.612122 C 299.779297 312.506561 303.918182 308.367645 309.023773 308.367645 L 352.164703 308.367645 C 357.270325 308.367645 361.40918 312.506561 361.40918 317.612122 L 361.40918 360.753021 C 361.40918 365.858643 357.270325 369.997528 352.164703 369.997528 L 309.023773 369.997528 C 303.918182 369.997528 299.779297 365.858643 299.779297 360.753021 Z M 53.259769 317.614594 C 53.259769 312.509003 57.398663 308.370117 62.50425 308.370117 L 105.645172 308.370117 C 110.750755 308.370117 114.889648 312.509003 114.889648 317.614594 L 114.889648 360.755524 C 114.889648 365.861084 110.750755 370 105.645172 370 L 62.50425 370 C 57.398663 370 53.259769 365.861084 53.259769 360.755524 Z M -8.370116 132.723709 C -8.370116 127.618134 -4.23122 123.479218 0.874366 123.479218 L 44.015285 123.479218 C 49.120872 123.479218 53.259769 127.618134 53.259769 132.723709 L 53.259769 175.864624 C 53.259769 180.970215 49.120872 185.1091 44.015285 185.1091 L 0.874366 185.1091 C -4.23122 185.1091 -8.370116 180.970215 -8.370116 175.864624 Z M 114.889648 132.723709 C 114.889648 127.618134 119.028549 123.479218 124.134132 123.479218 L 167.275055 123.479218 C 172.380646 123.479218 176.519531 127.618134 176.519531 132.723709 L 176.519531 175.864624 C 176.519531 180.970215 172.380646 185.1091 167.275055 185.1091 L 124.134132 185.1091 C 119.028549 185.1091 114.889648 180.970215 114.889648 175.864624 Z M 238.149414 132.723709 C 238.149414 127.618134 242.288315 123.479218 247.393906 123.479218 L 290.534821 123.479218 C 295.640411 123.479218 299.779297 127.618134 299.779297 132.723709 L 299.779297 175.864624 C 299.779297 180.970215 295.640411 185.1091 290.534821 185.1091 L 247.393906 185.1091 C 242.288315 185.1091 238.149414 180.970215 238.149414 175.864624 Z M 423.039063 317.612122 C 423.039063 312.506561 427.177948 308.367645 432.283539 308.367645 L 475.424469 308.367645 C 480.53009 308.367645 484.668945 312.506561 484.668945 317.612122 L 484.668945 360.753021 C 484.668945 365.858643 480.53009 369.997528 475.424469 369.997528 L 432.283539 369.997528 C 427.177948 369.997528 423.039063 365.858643 423.039063 360.753021 Z M 546.298828 317.612122 C 546.298828 312.506561 550.437744 308.367645 555.543335 308.367645 L 598.684265 308.367645 C 603.789856 308.367645 607.928711 312.506561 607.928711 317.612122 L 607.928711 360.753021 C 607.928711 365.858643 603.789856 369.997528 598.684265 369.997528 L 555.543335 369.997528 C 550.437744 369.997528 546.298828 365.858643 546.298828 360.753021 Z"/>
        </g>
    </g>
    <path id="path3" fill="#333333" fill-rule="evenodd" stroke="none" opacity="0.658049" d="M 507 268.5 C 507 261.703064 419.247803 256.193024 311 256.193024 C 202.752182 256.193024 115 261.703064 115 268.5 C 115 275.296936 202.752182 280.806976 311 280.806976 C 419.247803 280.806976 507 275.296936 507 268.5 Z"/>
    <g id="g3">
        <path id="path4" fill="#172025" fill-rule="evenodd" stroke="none" d="M 134 248 C 134 259.045685 142.9543 268 154 268 L 348 268 C 359.045715 268 368 259.045685 368 248 L 368 147 C 368 135.9543 359.045715 127 348 127 L 154 127 C 142.9543 127 134 135.9543 134 147 L 134 248 Z M 224.5 236 C 231.955841 236 238 242.044159 238 249.5 C 238 256.955841 231.955841 263 224.5 263 C 217.044159 263 211 256.955841 211 249.5 C 211 242.044159 217.044159 236 224.5 236 Z M 238 145.5 C 238 138.044159 231.955841 132 224.5 132 C 217.044159 132 211 138.044159 211 145.5 C 211 152.955841 217.044159 159 224.5 159 C 231.955841 159 238 152.955841 238 145.5 Z"/>
        <g id="g4">
            <path id="path5" fill="none" stroke="#bebcb8" stroke-width="3" stroke-linecap="round" stroke-linejoin="round" d="M 167 178 L 188 178"/>
            <path id="-" fill="none" stroke="#bebcb8" stroke-width="3" stroke-linecap="round" stroke-linejoin="round" d="M 167 191 L 188 191"/>
            <path id="--2" fill="none" stroke="#bebcb8" stroke-width="3" stroke-linecap="round" stroke-linejoin="round" d="M 167 204 L 188 204"/>
            <path id="--3" fill="none" stroke="#bebcb8" stroke-width="3" stroke-linecap="round" stroke-linejoin="round" d="M 167 216 L 188 216"/>
            <path id="path6" fill="#f1ebd3" fill-rule="evenodd" stroke="none" d="M 129 236 L 174 236 L 174 158 L 129 158 Z"/>
        </g>
        <g id="g5">
            <path id="--7" fill="none" stroke="#bebcb8" stroke-width="3" stroke-linecap="round" stroke-linejoin="round" d="M 311 161 L 332 161"/>
            <path id="--6" fill="none" stroke="#bebcb8" stroke-width="3" stroke-linecap="round" stroke-linejoin="round" d="M 311 173 L 332 173"/>
            <path id="path7" fill="#f1ebd3" fill-rule="evenodd" stroke="none" d="M 324 192 L 372 192 L 372 141 L 324 141 Z"/>
        </g>
        <g id="g6">
            <path id="--5" fill="none" stroke="#bebcb8" stroke-width="3" stroke-linecap="round" stroke-linejoin="round" d="M 311 217 L 332 217"/>
            <path id="--4" fill="none" stroke="#bebcb8" stroke-width="3" stroke-linecap="round" stroke-linejoin="round" d="M 311 229 L 332 229"/>
            <path id="path8" fill="#f1ebd3" fill-rule="evenodd" stroke="none" d="M 324 250 L 372 250 L 372 199 L 324 199 Z"/>
        </g>
        <g id="g7"/>
        <g id="g8">
            <path id="--8" fill="none" stroke="#bebcb8" stroke-linecap="round" stroke-linejoin="round" d="M 297 192 L 301 192"/>
            <path id="--9" fill="none" stroke="#bebcb8" stroke-linecap="round" stroke-linejoin="round" d="M 297 196 L 301 196"/>
            <path id="--10" fill="none" stroke="#bebcb8" stroke-linecap="round" stroke-linejoin="round" d="M 297 200 L 301 200"/>
            <path id="--11" fill="none" stroke="#bebcb8" stroke-linecap="round" stroke-linejoin="round" d="M 297 204 L 301 204"/>
            <path id="--15" fill="none" stroke="#bebcb8" stroke-linecap="round" stroke-linejoin="round" d="M 274 192 L 278 192"/>
            <path id="--14" fill="none" stroke="#bebcb8" stroke-linecap="round" stroke-linejoin="round" d="M 274 196 L 278 196"/>
            <path id="--13" fill="none" stroke="#bebcb8" stroke-linecap="round" stroke-linejoin="round" d="M 274 200 L 278 200"/>
            <path id="--12" fill="none" stroke="#bebcb8" stroke-linecap="round" stroke-linejoin="round" d="M 274 204 L 278 204"/>
            <path id="path9" fill="none" stroke="#bebcb8" stroke-linecap="round" stroke-linejoin="round" d="M 281 188 L 281 184"/>
            <path id="path10" fill="none" stroke="#bebcb8" stroke-linecap="round" stroke-linejoin="round" d="M 285 188 L 285 184"/>
            <path id="path11" fill="none" stroke="#bebcb8" stroke-linecap="round" stroke-linejoin="round" d="M 289 188 L 289 184"/>
            <path id="path12" fill="none" stroke="#bebcb8" stroke-linecap="round" stroke-linejoin="round" d="M 293 188 L 293 184"/>
            <path id="path13" fill="none" stroke="#bebcb8" stroke-linecap="round" stroke-linejoin="round" d="M 281 211 L 281 207"/>
            <path id="path14" fill="none" stroke="#bebcb8" stroke-linecap="round" stroke-linejoin="round" d="M 285 211 L 285 207"/>
            <path id="path15" fill="none" stroke="#bebcb8" stroke-linecap="round" stroke-linejoin="round" d="M 289 211 L 289 207"/>
            <path id="path16" fill="none" stroke="#bebcb8" stroke-linecap="round" stroke-linejoin="round" d="M 293 211 L 293 207"/>
            <path id="path17" fill="#292d2f" fill-rule="evenodd" stroke="none" d="M 278 207 L 297 207 L 297 188 L 278 188 Z"/>
        </g>
        <path id="path5-" fill="#d1dcdd" fill-rule="evenodd" stroke="none" d="M 205 268 L 243.45282 268 L 243.45282 127.100006 L 205 127.100006 L 205 268 Z M 224.22641 236.839935 C 231.305389 236.839935 237.044037 242.578568 237.044037 249.657547 C 237.044037 256.736511 231.305389 262.475159 224.22641 262.475159 C 217.14743 262.475159 211.408813 256.736511 211.408813 249.657547 C 211.408813 242.578568 217.14743 236.839935 224.22641 236.839935 Z M 237.044037 145.442444 C 237.044037 138.363464 231.305389 132.624847 224.22641 132.624847 C 217.14743 132.624847 211.408813 138.363464 211.408813 145.442444 C 211.408813 152.521423 217.14743 158.260056 224.22641 158.260056 C 231.305389 158.260056 237.044037 152.521423 237.044037 145.442444 Z"/>
    </g>
    <g id="icon-">
        <g id="drill-tool">
            <g id="g9">
                <g id="g10">
                    <path id="path18" fill="#666666" fill-rule="evenodd" stroke="none" d="M 445.237762 126.380951 L 445.23819 104.198578 C 445.237762 101.584839 443.126404 99.47348 440.512695 99.473053 C 437.881348 99.456726 435.753265 101.584808 435.770447 104.215302 L 435.77002 126.39772 C 435.770447 129.011459 437.881775 131.122803 440.495483 131.12323 C 443.126831 131.139587 445.254944 129.011444 445.237762 126.380951 Z"/>
                </g>
                <g id="g11">
                    <path id="path19" fill="#b6b6b6" fill-rule="evenodd" stroke="none" d="M 461.642975 141.68042 C 461.642975 141.68042 461.642578 144.456314 461.643005 138.390625 C 461.642609 131.52063 456.079285 125.957321 449.20929 125.956909 C 443.730255 125.940155 437.294708 125.940582 431.799316 125.94014 C 424.928528 125.940582 419.365631 131.503464 419.366028 138.373428 C 419.382813 144.456314 419.382416 141.681213 419.382416 141.681213 L 461.642975 141.68042 Z"/>
                </g>
                <g id="g12">
                    <path id="path20" fill="#888888" fill-rule="evenodd" stroke="none" d="M 441.18277 125.940582 C 448.053589 125.94014 453.616516 131.503052 453.616089 138.373856 C 453.599731 144.456299 453.616516 141.664032 453.616516 141.664032 L 419.382416 141.681213 L 461.642975 141.68042 C 461.642975 141.68042 461.642578 144.456314 461.643005 138.390625 C 461.642609 131.52063 456.079285 125.957321 449.20929 125.956909 L 441.18277 125.940582 Z"/>
                </g>
                <g id="g13">
                    <path id="path21" fill="#c8c8c8" fill-rule="evenodd" stroke="none" d="M 432.033722 141.66362 L 432.033722 138.373856 C 432.033325 131.50386 437.597046 125.94014 444.46701 125.940582 L 449.20929 125.956909 C 443.730255 125.940155 437.294708 125.940582 431.799316 125.94014 C 424.928528 125.940582 419.365631 131.503464 419.366028 138.373428 C 419.382813 144.456314 419.382416 141.681213 419.382416 141.681213 L 432.033722 141.66362 Z"/>
                </g>
                <g id="g14">
                    <path id="path22" fill="#25b736" fill-rule="evenodd" stroke="none" d="M 402.44165 248.863251 C 402.44165 254.392609 404.636475 259.704712 408.557678 263.625916 C 412.462097 267.530365 417.774231 269.725159 423.303589 269.725159 C 434.010498 269.708801 446.997284 269.725586 457.705017 269.708405 C 463.251129 269.725159 468.546906 267.513184 472.450531 263.609558 C 476.372131 259.687958 478.566925 254.409363 478.566528 248.846863 C 478.566956 216.472946 478.566956 189.93959 478.567352 159.509689 C 478.566925 149.65657 470.59079 141.68042 460.738068 141.680389 C 448.555573 141.664444 432.469421 141.664047 420.286926 141.680817 C 410.434204 141.680817 402.458435 149.65657 402.458466 159.509293 C 402.458435 189.93959 402.458008 216.472519 402.44165 248.863251 Z"/>
                </g>
                <g id="g15">
                    <path id="path23" fill="#1c8928" fill-rule="evenodd" stroke="none" d="M 448.404999 141.680801 C 458.25769 141.680832 466.233887 149.656982 466.233887 159.509689 C 466.233887 189.940018 466.233459 216.472946 466.251068 248.863235 C 466.251068 254.392609 464.038666 259.687958 460.117889 263.608765 C 456.21344 267.513184 450.918091 269.725586 445.388702 269.725586 L 457.705017 269.708405 C 463.251129 269.725159 468.546906 267.513184 472.450531 263.609558 C 476.372131 259.687958 478.566925 254.409363 478.566528 248.846863 C 478.566956 216.472946 478.566956 189.93959 478.567352 159.509689 C 478.566925 149.65657 470.59079 141.68042 460.738068 141.680389 L 448.404999 141.680801 Z"/>
                </g>
                <g id="g16">
                    <path id="path24" fill="#5cc968" fill-rule="evenodd" stroke="none" d="M 423.303589 269.725159 C 434.010498 269.708801 441.199554 269.725586 441.199554 269.725586 C 435.6698 269.725159 430.374847 267.513184 426.470428 263.608765 C 422.549622 259.687958 420.337646 254.393021 420.337219 248.863251 C 420.354004 216.472931 420.354401 189.940002 420.354401 159.509705 C 420.354401 149.656998 428.33017 141.681213 438.183716 141.68042 L 420.286926 141.680817 C 410.434204 141.680832 402.458435 149.65657 402.458435 159.509293 C 402.458435 189.939606 402.458038 216.472519 402.44165 248.863251 C 402.44165 254.392609 404.636475 259.704742 408.557678 263.625916 C 412.462097 267.530365 417.774231 269.725159 423.303589 269.725159 Z"/>
                </g>
                <g id="g17">
                    <path id="path25" fill="#f2af0d" fill-rule="evenodd" stroke="none" d="M 427.18335 245.358566 C 427.18335 247.29303 427.951202 249.151489 429.323059 250.523346 C 430.689056 251.889328 432.547516 252.657196 434.481995 252.657196 C 438.227844 252.651459 442.771332 252.657333 446.517456 252.651321 C 448.457794 252.657196 450.310547 251.883331 451.676239 250.517624 C 453.048218 249.14563 453.816101 247.298904 453.815948 245.352844 C 453.816101 234.026703 453.816101 212.417755 453.816254 201.771729 C 453.816101 198.324585 451.025604 195.534088 447.578583 195.534088 C 443.316498 195.528503 437.68869 195.528366 433.426575 195.534225 C 429.979584 195.534225 427.18924 198.324585 427.18924 201.771591 C 427.189209 212.417755 427.189087 234.02655 427.18335 245.358566 Z"/>
                </g>
                <g id="g18">
                    <path id="path26" fill="#f5c34a" fill-rule="evenodd" stroke="none" d="M 447.030426 252.647491 C 445.271729 252.530075 443.595245 251.792877 442.338501 250.536133 C 440.964752 249.162384 440.210785 247.302216 440.210785 245.358185 C 440.210785 234.031082 440.210785 212.414368 440.210785 201.790924 C 440.211182 198.338547 443.009399 195.540329 446.460968 195.540726 L 433.424255 195.541153 C 429.989471 195.55751 427.207611 198.339371 427.191254 201.774155 C 427.190826 212.431549 427.191254 234.047043 427.190826 245.375366 C 427.207611 247.301819 427.961578 249.161972 429.335724 250.536133 C 430.693115 251.893524 432.570068 252.664261 434.479736 252.664246 C 438.233612 252.664246 442.790955 252.664246 446.511688 252.663849 C 446.679016 252.664246 446.846741 252.663437 447.030426 252.647491 Z"/>
                </g>
                <g id="g19">
                    <path id="path27" fill="#15671e" fill-rule="evenodd" stroke="none" d="M 452.192017 175.763962 L 452.19162 158.839996 C 452.192017 156.225449 450.063904 154.097336 447.449341 154.097748 C 444.835632 154.097336 442.707489 156.225464 442.707916 158.839188 L 442.724274 175.780731 C 442.72467 178.394455 444.836029 180.505814 447.449768 180.506226 C 450.064301 180.505814 452.192413 178.37767 452.192017 175.763962 Z"/>
                </g>
                <g id="g20">
                    <path id="path28" fill="#15671e" fill-rule="evenodd" stroke="none" d="M 467.071716 175.763962 L 467.072113 158.839188 C 467.071716 156.225449 464.943604 154.097321 462.329865 154.096924 C 459.715729 154.097733 457.587585 156.225861 457.587585 158.839172 L 457.587189 175.763962 C 457.587585 178.37767 459.715729 180.505814 462.329468 180.50621 C 464.944 180.505814 467.072113 178.377686 467.071716 175.763962 Z"/>
                </g>
                <g id="g21">
                    <path id="path29" fill="#15671e" fill-rule="evenodd" stroke="none" d="M 422.449005 175.780319 L 422.431793 158.839584 C 422.448975 156.209091 420.337616 154.097748 417.689972 154.097748 C 415.076233 154.097336 412.964478 156.209091 412.964874 158.82283 L 412.964478 175.780319 C 412.964874 178.394043 415.093018 180.522171 417.706726 180.522583 C 420.320435 180.52298 422.448578 178.394867 422.449005 175.780319 Z"/>
                </g>
                <g id="g22">
                    <path id="path30" fill="#15671e" fill-rule="evenodd" stroke="none" d="M 437.31192 175.76355 L 437.31192 158.840012 C 437.312317 156.225464 435.184204 154.097336 432.569641 154.097748 C 429.955933 154.097336 427.844147 156.209091 427.844574 158.822815 L 427.844574 175.780731 C 427.844971 178.394455 429.956329 180.505814 432.569641 180.505814 C 435.200958 180.522171 437.328278 178.394867 437.31192 175.76355 Z"/>
                </g>
            </g>
        </g>
    </g>
    <g id="icon">
        <g id="g23">
            <g id="g24">
                <g id="g25">
                    <path id="path31" fill="#666666" fill-rule="evenodd" stroke="none" d="M 328.109619 93.747559 L 350.292053 93.747955 C 352.905792 93.747528 355.017151 91.636169 355.017578 89.022461 C 355.033905 86.391113 352.905823 84.263 350.275299 84.280182 L 328.092865 84.279785 C 325.479126 84.280182 323.367767 86.391541 323.36734 89.005249 C 323.350983 91.636597 325.479126 93.76474 328.109619 93.747559 Z"/>
                </g>
                <g id="g26">
                    <path id="path32" fill="#b6b6b6" fill-rule="evenodd" stroke="none" d="M 312.81012 110.152771 C 312.81012 110.152771 310.034241 110.152405 316.099915 110.152802 C 322.96994 110.152405 328.533264 104.589081 328.533661 97.719086 C 328.550446 92.240021 328.550018 85.804474 328.550446 80.309052 C 328.550018 73.438263 322.987091 67.875336 316.117126 67.875732 C 310.034241 67.892517 312.809326 67.89212 312.809326 67.89212 L 312.81012 110.152771 Z"/>
                </g>
                <g id="g27">
                    <path id="path33" fill="#888888" fill-rule="evenodd" stroke="none" d="M 328.550018 89.692535 C 328.550446 96.563354 322.987518 102.126282 316.116699 102.125885 C 310.034241 102.109528 312.826508 102.126312 312.826508 102.126312 L 312.809326 67.89212 L 312.81012 110.152771 C 312.81012 110.152771 310.034241 110.152405 316.099915 110.152802 C 322.96994 110.152405 328.533264 104.589081 328.533661 97.719086 L 328.550018 89.692535 Z"/>
                </g>
                <g id="g28">
                    <path id="path34" fill="#c8c8c8" fill-rule="evenodd" stroke="none" d="M 312.826935 80.543488 L 316.116699 80.543488 C 322.986694 80.543091 328.550446 86.106812 328.549988 92.976776 L 328.533661 97.719086 C 328.550446 92.240021 328.550018 85.804474 328.550446 80.309052 C 328.550018 73.438263 322.987091 67.875336 316.117126 67.875732 C 310.03421 67.892517 312.809326 67.89212 312.809326 67.89212 L 312.826935 80.543488 Z"/>
                </g>
                <g id="g29">
                    <path id="path35" fill="#25b736" fill-rule="evenodd" stroke="none" d="M 205.62709 50.951324 C 200.097717 50.951355 194.785583 53.146149 190.864365 57.067383 C 186.95993 60.971802 184.765106 66.283936 184.765121 71.813324 C 184.781479 82.520233 184.764709 95.50708 184.781891 106.214813 C 184.765121 111.760956 186.977127 117.056732 190.880737 120.960358 C 194.802353 124.881958 200.080948 127.076767 205.643463 127.07637 C 238.017441 127.076797 264.550842 127.076782 294.980835 127.077194 C 304.833954 127.076767 312.81012 119.100601 312.81015 109.247864 C 312.826111 97.065338 312.826508 80.979187 312.809723 68.796631 C 312.809723 58.943909 304.833954 50.968109 294.981201 50.96814 C 264.550842 50.968109 238.017883 50.967712 205.62709 50.951324 Z"/>
                </g>
                <g id="g30">
                    <path id="path36" fill="#1c8928" fill-rule="evenodd" stroke="none" d="M 312.809753 96.914764 C 312.809723 106.767487 304.833557 114.743713 294.980804 114.743698 C 264.550415 114.743698 238.017456 114.743286 205.62709 114.76088 C 200.097717 114.76088 194.802353 112.548462 190.881561 108.627686 C 186.977127 104.723236 184.764709 99.427887 184.764709 93.898499 L 184.781891 106.214813 C 184.765121 111.760956 186.977127 117.056732 190.880737 120.960358 C 194.802353 124.881973 200.080948 127.076767 205.643463 127.07637 C 238.017441 127.076797 264.550842 127.076782 294.980835 127.077194 C 304.833954 127.076767 312.81012 119.100616 312.81015 109.247864 L 312.809753 96.914764 Z"/>
                </g>
                <g id="g31">
                    <path id="path37" fill="#5cc968" fill-rule="evenodd" stroke="none" d="M 184.765121 71.813324 C 184.781479 82.520233 184.764709 89.70932 184.764709 89.70932 C 184.765121 84.179565 186.977127 78.884583 190.881546 74.980164 C 194.802353 71.059357 200.097305 68.847351 205.62709 68.846924 C 238.017456 68.863739 264.550446 68.864136 294.980804 68.864136 C 304.833527 68.864136 312.809326 76.839935 312.81012 86.693451 L 312.809723 68.796631 C 312.809723 58.943909 304.833954 50.968109 294.981232 50.96814 C 264.550842 50.968109 238.017883 50.967712 205.62709 50.951324 C 200.097717 50.951355 194.785583 53.146149 190.864365 57.067383 C 186.95993 60.971802 184.765106 66.283936 184.765121 71.813324 Z"/>
                </g>
                <g id="g32">
                    <path id="path38" fill="#f2af0d" fill-rule="evenodd" stroke="none" d="M 209.131775 75.693085 C 207.197311 75.693085 205.338837 76.460968 203.96698 77.832794 C 202.600998 79.198792 201.83313 81.057251 201.83313 82.99173 C 201.838852 86.73761 201.832993 91.281097 201.839005 95.027222 C 201.83313 96.96759 202.60701 98.820343 203.972702 100.186035 C 205.344696 101.558014 207.191437 102.325867 209.137512 102.325745 C 220.463669 102.325897 242.072647 102.325897 252.718689 102.326019 C 256.165863 102.325897 258.95636 99.53537 258.95636 96.088379 C 258.961945 91.826263 258.962067 86.198456 258.956207 81.93634 C 258.956207 78.489319 256.165863 75.698975 252.718842 75.698975 C 242.072647 75.698944 220.463821 75.698822 209.131775 75.693085 Z"/>
                </g>
                <g id="g33">
                    <path id="path39" fill="#f5c34a" fill-rule="evenodd" stroke="none" d="M 201.842834 95.540222 C 201.960251 93.781494 202.697449 92.105011 203.954193 90.848267 C 205.327957 89.474518 207.18811 88.720551 209.132156 88.720551 C 220.459274 88.72052 242.076035 88.720551 252.699493 88.72052 C 256.151886 88.720947 258.950104 91.519165 258.949707 94.970734 L 258.94928 81.93399 C 258.932922 78.499207 256.151062 75.717346 252.716263 75.700989 C 242.058853 75.700562 220.443329 75.700989 209.114975 75.700562 C 207.188522 75.717346 205.328354 76.471313 203.954193 77.845459 C 202.596817 79.20285 201.826065 81.079803 201.82608 82.989471 C 201.826065 86.743347 201.826065 91.30072 201.826477 95.021484 C 201.82608 95.188782 201.826889 95.356506 201.842834 95.540222 Z"/>
                </g>
                <g id="g34">
                    <path id="path40" fill="#15671e" fill-rule="evenodd" stroke="none" d="M 278.726501 100.701813 L 295.650513 100.701385 C 298.265076 100.701782 300.393188 98.573669 300.392761 95.959137 C 300.393188 93.345398 298.265045 91.217255 295.651337 91.217682 L 278.709747 91.234039 C 276.096008 91.234436 273.98465 93.345795 273.984253 95.959534 C 273.98465 98.574066 276.112793 100.702209 278.726501 100.701813 Z"/>
                </g>
                <g id="g35">
                    <path id="path41" fill="#15671e" fill-rule="evenodd" stroke="none" d="M 278.726532 115.581528 L 295.651337 115.58194 C 298.265076 115.581528 300.393188 113.4534 300.393585 110.839661 C 300.392792 108.225525 298.264648 106.097382 295.651337 106.097382 L 278.726501 106.096985 C 276.112793 106.097382 273.98465 108.225525 273.984253 110.839264 C 273.98465 113.453796 276.112793 115.58194 278.726532 115.581528 Z"/>
                </g>
                <g id="g36">
                    <path id="path42" fill="#15671e" fill-rule="evenodd" stroke="none" d="M 278.710144 70.95871 L 295.65094 70.941528 C 298.281433 70.95871 300.392792 68.847351 300.392761 66.199677 C 300.393188 63.585938 298.281433 61.474182 295.667694 61.474579 L 278.710144 61.474182 C 276.096436 61.474579 273.968292 63.602722 273.967896 66.216461 C 273.967499 68.83017 276.095612 70.958282 278.710144 70.95871 Z"/>
                </g>
                <g id="g37">
                    <path id="path43" fill="#15671e" fill-rule="evenodd" stroke="none" d="M 278.726929 85.821655 L 295.650513 85.821686 C 298.265045 85.822083 300.393188 83.693939 300.392792 81.079407 C 300.393188 78.465668 298.281433 76.353882 295.667694 76.354309 L 278.709747 76.354309 C 276.096039 76.354706 273.98465 78.466064 273.98465 81.079407 C 273.968292 83.710724 276.095612 85.838043 278.726929 85.821655 Z"/>
                </g>
            </g>
        </g>
    </g>
</svg>
