<?xml version="1.0" encoding="UTF-8"?>
<!-- Generated by Pixelmator Pro 3.7.1 -->
<svg width="80" height="80" viewBox="0 0 80 80" xmlns="http://www.w3.org/2000/svg">
    <g id="g1">
        <g id="drill-tool">
            <g id="g2">
                <g id="g3">
                    <path id="path1" fill="#666666" fill-rule="evenodd" stroke="none" d="M 66.51902 16.872784 L 74.4338 8.958298 C 75.366226 8.025574 75.366219 6.518921 74.433807 5.586197 C 73.500778 4.64151 71.982178 4.64151 71.049751 5.586197 L 63.134964 13.500694 C 62.202534 14.433418 62.202534 15.940063 63.134949 16.87278 C 64.06797 17.817474 65.586594 17.817471 66.51902 16.872784 Z"/>
                </g>
                <g id="g4">
                    <path id="path2" fill="#b6b6b6" fill-rule="evenodd" stroke="none" d="M 66.913544 28.184948 C 66.913544 28.184948 65.922974 29.175243 68.087341 27.011166 C 70.538399 24.559822 70.538399 20.589859 68.087349 18.138519 C 66.138412 16.17762 63.842079 13.881592 61.881481 11.920685 C 59.429848 9.46936 55.460182 9.469353 53.009136 11.920685 C 50.844761 14.097031 51.834766 13.106743 51.834766 13.106743 L 66.913544 28.184948 Z"/>
                </g>
                <g id="g5">
                    <path id="path3" fill="#888888" fill-rule="evenodd" stroke="none" d="M 65.229332 15.268845 C 67.680977 17.720181 67.680977 21.689854 65.22934 24.141197 C 63.053299 26.305565 64.055565 25.315273 64.055565 25.315273 L 51.834766 13.106743 L 66.913544 28.184948 C 66.913544 28.184948 65.922974 29.175243 68.087341 27.011166 C 70.538399 24.559822 70.538399 20.589859 68.087349 18.138519 L 65.229332 15.268845 Z"/>
                </g>
                <g id="g6">
                    <path id="path4" fill="#c8c8c8" fill-rule="evenodd" stroke="none" d="M 56.355015 17.614437 L 57.528797 16.440655 C 59.979855 13.989311 63.950104 13.989304 66.401138 16.440655 L 68.087349 18.138519 C 66.138412 16.17762 63.842079 13.881592 61.881481 11.920685 C 59.429848 9.46936 55.460182 9.469353 53.009136 11.920685 C 50.844761 14.097038 51.834766 13.106743 51.834766 13.106743 L 56.355015 17.614437 Z"/>
                </g>
                <g id="g7">
                    <path id="path5" fill="#25b736" fill-rule="evenodd" stroke="none" d="M 7.547997 45.304657 C 5.575132 47.277523 4.462878 49.955982 4.462881 52.754143 C 4.462883 55.540329 5.57513 58.218788 7.547997 60.19165 C 11.374042 64.00602 16.00172 68.645668 19.828344 72.46003 C 21.801212 74.444862 24.479969 75.545151 27.26557 75.545151 C 30.064011 75.545151 32.730503 74.444862 34.71505 72.46003 C 46.266155 60.909225 55.7332 51.442169 66.590683 40.584984 C 70.106102 37.069263 70.106102 31.37751 66.590683 27.862068 C 62.249676 23.509686 56.510323 17.770042 52.157635 13.429329 C 48.642208 9.913895 42.950733 9.913895 39.43531 13.429337 C 28.577826 24.286797 19.110786 33.753548 7.547997 45.304657 Z"/>
                </g>
                <g id="g8">
                    <path id="path6" fill="#1c8928" fill-rule="evenodd" stroke="none" d="M 62.190117 23.4618 C 65.705536 26.977238 65.705551 32.669003 62.190121 36.184429 C 51.332634 47.041908 41.865593 56.508659 30.315075 68.071732 C 28.342207 70.044601 25.663456 71.144592 22.865595 71.144592 C 20.079412 71.144592 17.400656 70.044601 15.427781 68.071732 L 19.828344 72.46003 C 21.801212 74.444862 24.479969 75.545151 27.265572 75.545151 C 30.064013 75.545151 32.730503 74.444862 34.71505 72.46003 C 46.266155 60.909225 55.7332 51.442169 66.590683 40.584984 C 70.106102 37.06926 70.10611 31.37751 66.590683 27.862068 L 62.190117 23.4618 Z"/>
                </g>
                <g id="g9">
                    <path id="path7" fill="#5cc968" fill-rule="evenodd" stroke="none" d="M 7.547997 60.19165 C 11.374042 64.00602 13.933104 66.577049 13.933104 66.577049 C 11.96024 64.603897 10.860242 61.925423 10.860246 59.139252 C 10.860244 56.341381 11.960236 53.662926 13.933096 51.689758 C 25.49589 40.13895 34.962933 30.672195 45.820408 19.814724 C 49.335835 16.299294 55.027317 16.299294 58.543324 19.814724 L 52.157635 13.429329 C 48.6422 9.913902 42.950733 9.913895 39.43531 13.429329 C 28.577826 24.2868 19.110786 33.753551 7.547997 45.304657 C 5.575132 47.277523 4.462878 49.955986 4.462881 52.754143 C 4.462883 55.540329 5.57513 58.218788 7.547997 60.19165 Z"/>
                </g>
                <g id="g10">
                    <path id="path8" fill="#f2af0d" fill-rule="evenodd" stroke="none" d="M 17.626251 52.881989 C 16.936037 53.572201 16.546911 54.50927 16.546911 55.488216 C 16.546911 56.462975 16.936037 57.400047 17.626251 58.090263 C 18.964809 59.424732 20.58382 61.047932 21.922581 62.382401 C 22.612795 63.076805 23.549969 63.461746 24.524523 63.461746 C 25.503567 63.461746 26.436451 63.076805 27.130754 62.382401 C 31.171951 58.341309 38.881981 50.631279 42.680511 46.832851 C 43.910397 45.602863 43.910397 43.611576 42.680511 42.381691 C 41.161793 40.85899 39.153854 38.850952 37.631054 37.332333 C 36.401169 36.102448 34.409981 36.102448 33.180096 37.332333 C 29.381559 41.130863 21.671537 48.840786 17.626251 52.881989 Z"/>
                </g>
                <g id="g11">
                    <path id="path9" fill="#f5c34a" fill-rule="evenodd" stroke="none" d="M 22.106977 62.56406 C 21.521366 61.894665 21.18623 61.03347 21.18623 60.136658 C 21.18623 59.156353 21.580919 58.22364 22.274546 57.530014 C 26.316031 53.488522 34.028835 45.775723 37.81926 41.985294 C 39.051208 40.753643 41.048008 40.753643 42.279377 41.985294 L 37.62775 37.333969 C 36.396389 36.114281 34.411263 36.114281 33.179901 37.333969 C 29.377216 41.13636 21.664997 48.848869 17.622927 52.890648 C 16.941559 53.583988 16.546869 54.516701 16.546869 55.497295 C 16.546869 56.465919 16.941559 57.41061 17.622927 58.091972 C 18.962301 59.431351 20.588354 61.057404 21.916056 62.384815 C 21.975611 62.444656 22.035748 62.504211 22.106977 62.56406 Z"/>
                </g>
                <g id="g12">
                    <path id="path10" fill="#15671e" fill-rule="evenodd" stroke="none" d="M 51.380516 36.973812 L 57.418808 30.935223 C 58.351818 30.002502 58.351818 28.483891 57.418808 27.55117 C 56.486382 26.61845 54.967758 26.61845 54.035332 27.55117 L 47.99646 33.601719 C 47.064034 34.534435 47.064034 36.041092 47.99646 36.973812 C 48.929466 37.906521 50.448093 37.906521 51.380516 36.973812 Z"/>
                </g>
                <g id="g13">
                    <path id="path11" fill="#15671e" fill-rule="evenodd" stroke="none" d="M 56.689564 42.282852 L 62.728436 36.244274 C 63.66087 35.311554 63.66087 33.792931 62.728436 32.86021 C 61.795429 31.927784 60.276806 31.927784 59.344379 32.86021 L 53.305508 38.8988 C 52.373081 39.831509 52.373081 41.35014 53.305508 42.282852 C 54.238514 43.215572 55.757137 43.215572 56.689564 42.282852 Z"/>
                </g>
                <g id="g14">
                    <path id="path12" fill="#15671e" fill-rule="evenodd" stroke="none" d="M 40.762424 26.367393 L 46.800713 20.316833 C 47.745396 19.384407 47.745396 17.877754 46.800713 16.933075 C 45.86829 16.000355 44.36134 16.000355 43.428913 16.933075 L 37.378365 22.98333 C 36.445938 23.91605 36.445938 25.434673 37.378365 26.367393 C 38.310791 27.300102 39.829411 27.300102 40.762424 26.367393 Z"/>
                </g>
                <g id="g15">
                    <path id="path13" fill="#15671e" fill-rule="evenodd" stroke="none" d="M 46.071472 31.664467 L 52.10976 25.626183 C 53.04277 24.693462 53.04277 23.174839 52.10976 22.242119 C 51.177334 21.309399 49.670387 21.309399 48.737961 22.242119 L 42.687412 28.292675 C 41.754986 29.225384 41.754986 30.73204 42.687412 31.664467 C 43.620422 32.609154 45.138462 32.609154 46.071472 31.664467 Z"/>
                </g>
            </g>
        </g>
    </g>
</svg>
