<?xml version="1.0" encoding="UTF-8"?>
<!-- Generated by Pixelmator Pro 3.7 -->
<svg width="600" height="370" viewBox="0 0 600 370" xmlns="http://www.w3.org/2000/svg">
    <g id="g1">
        <path id="-" fill="#0fbd8c" stroke="none" d="M 0 370 L 0 0 L 600 0 L 600 370 Z"/>
        <g id="--6">
            <path id="path1" fill="#ffffff" fill-opacity="0.2" stroke="none" d="M -41.48 49.308014 C -39.84 28.937988 -22 13.753998 -1.63 15.391998 C 18.739 17.029999 33.923 34.869995 32.284 55.23999 C 30.646 75.609985 12.805 90.794006 -7.564 89.156006 C -27.934 87.518005 -43.118 69.675995 -41.479 49.308014 Z"/>
            <path id="path2" fill="#ffffff" fill-opacity="0.2" stroke="none" d="M -35.547001 -24.455994 C -33.908001 -44.825989 -16.066999 -60.01001 4.302 -58.372009 C 24.671 -56.734009 39.855 -38.893005 38.216999 -18.523987 C 36.580002 1.846008 18.738001 17.029999 -1.63 15.391998 C -22 13.753998 -37.183998 -4.088013 -35.546001 -24.455994 Z"/>
            <path id="path3" fill="#ffffff" fill-opacity="0.2" stroke="none" d="M 38.216999 -18.523987 C 39.855 -38.893005 57.696999 -54.078003 78.066002 -52.438995 C 98.434998 -50.800995 113.619003 -32.959991 111.981003 -12.591003 C 110.343002 7.778992 92.501999 22.963013 72.133003 21.325012 C 51.763 19.686005 36.578999 1.845001 38.216999 -18.523987 Z"/>
            <path id="path4" fill="#ffffff" fill-opacity="0.2" stroke="none" d="M 111.981003 -12.589996 C 113.619003 -32.959991 131.460999 -48.144989 151.828995 -46.505981 C 172.199005 -44.867981 187.382996 -27.027008 185.744995 -6.65799 C 184.106995 13.712006 166.266006 28.895996 145.897003 27.256989 C 125.527 25.618988 110.343002 7.778015 111.981003 -12.591003 Z M 29.318001 92.122009 C 32.595001 51.384003 68.276001 21.014008 109.014999 24.291992 C 149.753006 27.567993 180.121994 63.248993 176.845001 103.988007 C 173.569 144.725998 137.888 175.095993 97.149002 171.817993 C 56.410999 168.542007 26.041 132.860992 29.318001 92.122009 Z M -47.411999 123.070999 C -45.773998 102.701996 -27.933001 87.518005 -7.564 89.156006 C 12.806 90.794006 27.99 108.63501 26.351999 129.003998 C 24.712999 149.373993 6.872 164.557999 -13.497 162.919998 C -33.866001 161.281006 -49.050999 143.440002 -47.411999 123.070999 Z M -85.777 138.54599 C -84.958 128.360992 -76.037003 120.768997 -65.852997 121.587997 C -55.668999 122.40799 -48.076 131.328003 -48.895 141.511993 C -49.715 151.696991 -58.634998 159.289001 -68.82 158.470001 C -79.003998 157.651001 -86.597 148.730011 -85.777 138.54599 Z"/>
        </g>
        <g id="--5">
            <path id="path5" fill="#ffffff" fill-opacity="0.2" stroke="none" d="M -62.243999 307.480988 C -60.605999 287.110992 -42.764999 271.927002 -22.396 273.565979 C -2.026 275.203979 13.158 293.045013 11.52 313.414001 C 9.881 333.783997 -7.96 348.967987 -28.329 347.329987 C -48.698002 345.69101 -63.882 327.850006 -62.243999 307.480988 Z"/>
            <path id="path6" fill="#ffffff" fill-opacity="0.2" stroke="none" d="M -56.311001 233.716995 C -54.673 213.348007 -36.832001 198.162994 -16.462999 199.802002 C 3.907 201.440002 19.091 219.281006 17.452999 239.649994 C 15.814 260.02002 -2.027 275.203979 -22.396 273.565979 C -42.765999 271.927002 -57.950001 254.085999 -56.311001 233.716995 Z"/>
            <path id="path7" fill="#ffffff" fill-opacity="0.2" stroke="none" d="M 17.452999 239.649994 C 19.091 219.279999 36.931999 204.095993 57.300999 205.733994 C 77.670998 207.373001 92.855003 225.214005 91.216003 245.582993 C 89.578003 265.953003 71.737 281.136993 51.368 279.497986 C 30.997999 277.859985 15.814 260.018982 17.452999 239.649994 Z"/>
            <path id="path8" fill="#ffffff" fill-opacity="0.2" stroke="none" d="M 91.216003 245.582993 C 92.855003 225.212997 110.695999 210.029007 131.065002 211.667007 C 151.434998 213.306 166.619003 231.147003 164.979996 251.516006 C 163.341995 271.88501 145.501007 287.069 125.132004 285.431 C 104.762001 283.792999 89.578003 265.951996 91.216003 245.582993 Z M 8.553 350.29599 C 11.83 309.557007 47.511002 279.187988 88.25 282.464996 C 128.988998 285.740997 159.358002 321.423004 156.080994 362.161011 C 152.804993 402.901001 117.123001 433.269012 76.385002 429.993011 C 35.645 426.716003 5.277 391.035004 8.553 350.29599 Z M -68.177002 381.244995 C -66.539001 360.875 -48.696999 345.69101 -28.329 347.329987 C -7.959 348.967987 7.225 366.80899 5.587 387.178009 C 3.949 407.548004 -13.892 422.731995 -34.261002 421.092987 C -54.631001 419.454987 -69.815002 401.614014 -68.177002 381.244995 Z M -106.542 396.720001 C -105.722 386.535004 -96.802002 378.942993 -86.617996 379.761993 C -76.432999 380.582001 -68.841003 389.502014 -69.660004 399.686005 C -70.480003 409.871002 -79.400002 417.463013 -89.584 416.644012 C -99.768997 415.824005 -107.361 406.903992 -106.542 396.720001 Z M -103.575996 359.838013 C -102.755997 349.653015 -93.835999 342.061005 -83.652 342.880005 C -73.467003 343.700012 -65.875 352.619995 -66.694 362.803986 C -67.513 372.989014 -76.433998 380.580994 -86.617996 379.761993 C -96.803001 378.941986 -104.394997 370.022003 -103.575996 359.838013 Z"/>
            <path id="path9" fill="#ffffff" fill-opacity="0.2" stroke="none" d="M -14.98 181.360001 C -14.16 171.175995 -5.24 163.584 4.944 164.403 C 15.129 165.223007 22.721001 174.143005 21.902 184.326996 C 21.083 194.511993 12.162 202.104004 1.978 201.285004 C -8.207 200.464996 -15.799 191.544998 -14.98 181.360992 Z"/>
            <path id="path10" fill="#ffffff" fill-opacity="0.2" stroke="none" d="M 21.902 184.326996 C 22.722 174.141998 31.642 166.550003 41.826 167.369003 C 52.011002 168.188995 59.603001 177.108994 58.784 187.294006 C 57.964001 197.477997 49.043999 205.070007 38.860001 204.251007 C 28.674999 203.432007 21.083 194.511002 21.902 184.326996 Z"/>
            <path id="path11" fill="#ffffff" fill-opacity="0.2" stroke="none" d="M 58.784 187.294006 C 59.604 177.108994 68.524002 169.516998 78.708 170.335999 C 88.892998 171.154999 96.485001 180.076004 95.666 190.259995 C 94.846001 200.445007 85.926003 208.037003 75.741997 207.218002 C 65.556999 206.397995 57.965 197.477997 58.784 187.294006 Z"/>
            <path id="path12" fill="#ffffff" fill-opacity="0.2" stroke="none" d="M 95.666 190.259995 C 96.486 180.074997 105.405998 172.483002 115.589996 173.302002 C 125.775002 174.121994 133.367004 183.042007 132.548004 193.225998 C 131.727997 203.410995 122.807999 211.003006 112.624001 210.184006 C 102.439003 209.363998 94.847 200.444 95.666 190.259995 Z M 132.548004 193.225998 C 133.367996 183.042007 142.287994 175.449005 152.472 176.268005 C 162.656998 177.087997 170.248993 186.007996 169.429993 196.192993 C 168.610001 206.376999 159.690002 213.970001 149.505997 213.149994 C 139.320999 212.330994 131.729004 203.410995 132.548004 193.225998 Z"/>
        </g>
        <g id="--4">
            <path id="path13" fill="#ffffff" fill-opacity="0.2" stroke="none" d="M 216.694 70.071991 C 218.332993 49.701996 236.173996 34.518005 256.542999 36.157013 C 276.911987 37.795013 292.096008 55.635986 290.458008 76.005005 C 288.820007 96.375 270.979004 111.55899 250.610001 109.92099 C 230.240005 108.281982 215.056 90.44101 216.694 70.071991 Z"/>
            <path id="path14" fill="#ffffff" fill-opacity="0.2" stroke="none" d="M 222.626999 -3.692017 C 224.264999 -24.062012 242.106003 -39.246002 262.475006 -37.606995 C 282.845001 -35.968994 298.028992 -18.127991 296.390991 2.240997 C 294.752991 22.610992 276.911011 37.795013 256.542999 36.157013 C 236.173004 34.518005 220.988998 16.677002 222.626999 -3.692017 Z"/>
            <path id="path15" fill="#ffffff" fill-opacity="0.2" stroke="none" d="M 296.390015 2.240997 C 298.029999 -18.128998 315.869995 -33.312988 336.23999 -31.674988 C 356.609009 -30.036011 371.792999 -12.195007 370.154999 8.174011 C 368.516998 28.544006 350.674988 43.727997 330.307007 42.088989 C 309.937012 40.450989 294.752991 22.609985 296.390991 2.240997 Z"/>
            <path id="path16" fill="#ffffff" fill-opacity="0.2" stroke="none" d="M 370.154999 8.174011 C 371.792999 -12.195984 389.634003 -27.380005 410.002991 -25.742004 C 430.372986 -24.104004 445.557007 -6.261993 443.919006 14.106995 C 442.279999 34.476013 424.438995 49.660004 404.070007 48.022003 C 383.700989 46.384003 368.516998 28.542999 370.154999 8.174011 Z M 287.492004 112.886993 C 290.768005 72.14801 326.450012 41.778992 367.187988 45.056 C 407.928009 48.332001 438.29599 84.014008 435.019989 124.751999 C 431.743011 165.492004 396.062012 195.860001 355.322998 192.584 C 314.584015 189.307007 284.214996 153.626007 287.492004 112.886993 Z M 210.761002 143.835999 C 212.399994 123.466003 230.240997 108.281982 250.610001 109.92099 C 270.980011 111.55899 286.164001 129.399994 284.524994 149.768997 C 282.886993 170.139008 265.04599 185.322998 244.677002 183.684006 C 224.307007 182.046005 209.123001 164.205002 210.761002 143.835999 Z M 172.395996 159.309998 C 173.216003 149.126007 182.136002 141.533997 192.320999 142.352997 C 202.505005 143.173004 210.097 152.093002 209.278 162.277008 C 208.459 172.462006 199.537994 180.054001 189.354004 179.235001 C 179.169006 178.414993 171.576996 169.494995 172.395996 159.311005 Z M 175.363007 122.429001 C 176.182007 112.243988 185.102997 104.652008 195.287003 105.471008 C 205.472 106.290985 213.063995 115.210999 212.244995 125.394989 C 211.425003 135.580002 202.505005 143.171997 192.320999 142.352997 C 182.136002 141.53299 174.544006 132.613007 175.363007 122.429001 Z M 178.330002 85.546997 C 179.147995 75.362 188.069 67.769989 198.253006 68.588989 C 208.438004 69.408997 216.029999 78.32901 215.210999 88.513 C 214.391006 98.697998 205.470993 106.290009 195.287003 105.471008 C 185.102005 104.651001 177.509995 95.730988 178.328995 85.546997 Z"/>
            <path id="path17" fill="#ffffff" fill-opacity="0.2" stroke="none" d="M 181.294998 48.665009 C 182.115005 38.480011 191.035004 30.888 201.220001 31.707001 C 211.404007 32.527008 218.996994 41.446991 218.177002 51.631012 C 217.358002 61.81601 208.438004 69.40799 198.253006 68.588989 C 188.069 67.769012 180.475998 58.848999 181.294998 48.665009 Z M 184.261993 11.78299 C 185.080994 1.597992 194.001999 -5.993988 204.186005 -5.174988 C 214.371002 -4.355011 221.962997 4.565002 221.143997 14.748993 C 220.324005 24.93399 211.404007 32.526001 201.220001 31.707001 C 191.035004 30.886993 183.442993 21.96701 184.261993 11.78299 Z M 187.227997 -25.100006 C 188.048004 -35.283997 196.968002 -42.876007 207.151993 -42.057007 C 217.337006 -41.237 224.929001 -32.317017 224.110001 -22.132996 C 223.291 -11.947998 214.369995 -4.355988 204.186005 -5.174988 C 194.001007 -5.994995 186.408997 -14.915009 187.227997 -25.098999 Z"/>
        </g>
        <g id="--3">
            <path id="path18" fill="#ffffff" fill-opacity="0.2" stroke="none" d="M 195.929993 328.246002 C 197.567993 307.876007 215.408997 292.691986 235.778 294.329987 C 256.14801 295.968994 271.332001 313.809998 269.692993 334.178986 C 268.054993 354.548004 250.214005 369.733002 229.845001 368.093994 C 209.475006 366.455994 194.291 348.61499 195.929993 328.246002 Z"/>
            <path id="path19" fill="#ffffff" fill-opacity="0.2" stroke="none" d="M 201.862 254.481995 C 203.501007 234.112 221.341995 218.927994 241.710999 220.565994 C 262.079987 222.205002 277.265015 240.046005 275.626007 260.414978 C 273.988007 280.785004 256.147003 295.968994 235.778 294.329987 C 215.408005 292.691986 200.223999 274.851013 201.862 254.481995 Z"/>
            <path id="path20" fill="#ffffff" fill-opacity="0.2" stroke="none" d="M 275.626007 260.414978 C 277.265015 240.044998 295.105988 224.860992 315.475006 226.498993 C 335.843994 228.136993 351.028015 245.979004 349.390015 266.348022 C 347.752014 286.71698 329.911011 301.901001 309.541992 300.263 C 289.171997 298.625 273.988007 280.783997 275.626007 260.414978 Z"/>
            <path id="path21" fill="#ffffff" fill-opacity="0.2" stroke="none" d="M 349.390015 266.348022 C 351.028015 245.977997 368.869995 230.794006 389.239014 232.432007 C 409.608002 234.070007 424.791992 251.910995 423.153992 272.279999 C 421.515991 292.649994 403.674988 307.834015 383.306 306.196014 C 362.936005 304.558014 347.752014 286.716003 349.390015 266.348022 Z M 266.72699 371.059998 C 270.003998 330.321991 305.684998 299.953003 346.424011 303.230011 C 387.161987 306.506012 417.532013 342.187012 414.255005 382.925995 C 410.977997 423.665009 375.296997 454.033997 334.558014 450.756989 C 293.820007 447.480988 263.450989 411.799011 266.727997 371.061005 Z M 189.996994 402.01001 C 191.634995 381.640015 209.475998 366.455994 229.845001 368.093994 C 250.214996 369.733002 265.398987 387.574005 263.760986 407.942993 C 262.122009 428.312012 244.281006 443.496002 223.912003 441.858002 C 203.542999 440.220001 188.358994 422.378998 189.996994 402.01001 Z M 151.632004 417.484009 C 152.451004 407.299988 161.371994 399.708008 171.556 400.527008 C 181.740005 401.346008 189.332993 410.266998 188.514008 420.450989 C 187.694 430.63501 178.774002 438.227997 168.589005 437.408997 C 158.404999 436.588989 150.811996 427.669006 151.632004 417.484009 Z M 154.598007 380.60199 C 155.417999 370.417999 164.337997 362.825989 174.522003 363.644989 C 184.707001 364.463989 192.298996 373.38501 191.479996 383.569 C 190.660004 393.753998 181.740005 401.346008 171.556 400.527008 C 161.371002 399.707001 153.779007 390.786987 154.598007 380.60199 Z"/>
            <path id="path22" fill="#ffffff" fill-opacity="0.2" stroke="none" d="M 157.563995 343.720001 C 158.384003 333.536011 167.304001 325.944 177.488998 326.763 C 187.673004 327.582001 195.266006 336.502991 194.445999 346.687012 C 193.626999 356.872009 184.705994 364.463989 174.522003 363.644989 C 164.337997 362.825012 156.744995 353.904999 157.563995 343.720001 Z"/>
            <path id="path23" fill="#ffffff" fill-opacity="0.2" stroke="none" d="M 160.529999 306.838989 C 161.350006 296.653992 170.270004 289.062012 180.455002 289.880981 C 190.639999 290.700012 198.231995 299.621002 197.412994 309.804993 C 196.593002 319.98999 187.673004 327.582001 177.488998 326.763 C 167.304001 325.942993 159.712006 317.02301 160.531006 306.838989 Z"/>
            <path id="path24" fill="#ffffff" fill-opacity="0.2" stroke="none" d="M 163.496994 269.957001 C 164.317001 259.772003 173.237 252.179993 183.421005 252.998993 C 193.606003 253.817993 201.197998 262.739014 200.378998 272.923004 C 199.559998 283.108002 190.639008 290.700012 180.455002 289.880981 C 170.270004 289.061005 162.677994 280.140991 163.496994 269.957001 Z"/>
            <path id="path25" fill="#ffffff" fill-opacity="0.2" stroke="none" d="M 166.464005 233.074997 C 167.283005 222.889999 176.203995 215.298004 186.388 216.117004 C 196.572006 216.936005 204.164993 225.856995 203.345993 236.041 C 202.526001 246.225998 193.606003 253.817993 183.421005 252.998993 C 173.237 252.179001 165.643997 243.259003 166.464005 233.074997 Z"/>
            <path id="path26" fill="#ffffff" fill-opacity="0.2" stroke="none" d="M 169.429993 196.192993 C 170.25 186.007996 179.169998 178.416 189.354004 179.235001 C 199.539001 180.054001 207.130997 188.975006 206.311996 199.158997 C 205.492004 209.343994 196.572006 216.936005 186.388 216.117004 C 176.203003 215.296997 168.610992 206.376999 169.429993 196.192993 Z"/>
            <path id="path27" fill="#ffffff" fill-opacity="0.2" stroke="none" d="M 206.311996 199.160004 C 207.130997 188.973999 216.052002 181.382004 226.235992 182.201004 C 236.421005 183.020996 244.013 191.940994 243.194 202.125 C 242.373993 212.309998 233.453995 219.901993 223.270004 219.082993 C 213.085007 218.264008 205.492996 209.343002 206.311996 199.158997 Z"/>
            <path id="path28" fill="#ffffff" fill-opacity="0.2" stroke="none" d="M 243.194 202.125 C 244.013 191.940994 252.934006 184.348007 263.118011 185.167999 C 273.303009 185.987 280.894989 194.908005 280.075989 205.091995 C 279.256012 215.276001 270.335999 222.869003 260.152008 222.050003 C 249.966995 221.229996 242.375 212.309998 243.194 202.125 Z"/>
            <path id="path29" fill="#ffffff" fill-opacity="0.2" stroke="none" d="M 280.075989 205.091995 C 280.894989 194.906998 289.81601 187.315002 300 188.134003 C 310.184998 188.953995 317.777008 197.873993 316.958008 208.057999 C 316.138 218.242996 307.217987 225.835007 297.033997 225.016006 C 286.848999 224.195999 279.256989 215.276001 280.075989 205.091995 Z M 316.958008 208.057999 C 317.777008 197.873993 326.697998 190.281006 336.881989 191.100006 C 347.066986 191.919998 354.658997 200.839996 353.839996 211.024994 C 353.019989 221.209 344.100006 228.802002 333.915985 227.981995 C 323.730988 227.162994 316.139008 218.242004 316.958008 208.057999 Z"/>
            <path id="path30" fill="#ffffff" fill-opacity="0.2" stroke="none" d="M 353.839996 211.024994 C 354.658997 200.839996 363.579987 193.248001 373.764008 194.067001 C 383.949005 194.886002 391.540985 203.807007 390.721985 213.990997 C 389.902008 224.175995 380.981995 231.768005 370.798004 230.949005 C 360.613007 230.128998 353.020996 221.209 353.839996 211.024994 Z"/>
            <path id="path31" fill="#ffffff" fill-opacity="0.2" stroke="none" d="M 390.721985 213.990997 C 391.540985 203.806 400.462006 196.214005 410.645996 197.033005 C 420.830994 197.852997 428.423004 206.772995 427.604004 216.957001 C 426.783997 227.141998 417.864014 234.733994 407.679993 233.914993 C 397.494995 233.095993 389.903015 224.175003 390.721985 213.990997 Z"/>
        </g>
        <g id="--2">
            <path id="path32" fill="#ffffff" fill-opacity="0.2" stroke="none" d="M 474.868011 90.837006 C 476.506012 70.46701 494.346985 55.28299 514.716003 56.92099 C 535.085999 58.559998 550.27002 76.401001 548.632019 96.769989 C 546.994019 117.139008 529.151978 132.322998 508.783997 130.684998 C 488.414001 129.046997 473.230011 111.205994 474.868011 90.837006 Z"/>
            <path id="path33" fill="#ffffff" fill-opacity="0.2" stroke="none" d="M 480.799988 17.072998 C 482.438995 -3.296997 500.279999 -18.480988 520.650024 -16.842987 C 541.018005 -15.20401 556.203003 2.636993 554.565002 23.006012 C 552.926025 43.375 535.085022 58.559998 514.716003 56.92099 C 494.346985 55.28299 479.161987 37.441986 480.800995 17.072998 Z"/>
            <path id="path34" fill="#ffffff" fill-opacity="0.2" stroke="none" d="M 554.565002 23.006012 C 556.203003 2.635986 574.044006 -12.548004 594.413025 -10.910004 C 614.78302 -9.272003 629.96698 8.570007 628.328979 28.937988 C 626.690002 49.308014 608.848999 64.492004 588.47998 62.854004 C 568.109985 61.216003 552.926025 43.375 554.565002 23.006012 Z"/>
            <path id="path35" fill="#ffffff" fill-opacity="0.2" stroke="none" d="M 628.328979 28.937988 C 629.96698 8.569 647.807983 -6.61499 668.177002 -4.97699 C 688.546997 -3.338989 703.731018 14.502014 702.09198 34.871002 C 700.453979 55.240997 682.612976 70.424988 662.244019 68.786987 C 641.874023 67.148987 626.690002 49.307007 628.328979 28.937988 Z M 545.666016 133.652008 C 548.942017 92.912018 584.622986 62.544006 625.362 65.820007 C 666.101013 69.096985 696.469971 104.778015 693.192993 145.516998 C 689.916992 186.255997 654.234985 216.625 613.497009 213.348007 C 572.757996 210.072006 542.388977 174.389999 545.666016 133.652008 Z M 468.934998 164.600006 C 470.572998 144.231003 488.415009 129.046997 508.783997 130.684998 C 529.153015 132.322998 544.336975 150.165009 542.698975 170.533997 C 541.060974 190.903 523.219971 206.087006 502.851013 204.449005 C 482.480988 202.811005 467.296997 184.970001 468.934998 164.600998 Z M 430.570007 180.074997 C 431.390015 169.891006 440.309998 162.298004 450.493988 163.117996 C 460.678986 163.936996 468.270996 172.858002 467.451996 183.042007 C 466.631989 193.225998 457.712006 200.819 447.528015 200 C 437.342987 199.179993 429.751007 190.259995 430.570007 180.074997 Z"/>
            <path id="path36" fill="#ffffff" fill-opacity="0.2" stroke="none" d="M 433.536011 143.192993 C 434.355988 133.009003 443.276001 125.416 453.460999 126.235992 C 463.644989 127.054993 471.238007 135.975998 470.417999 146.160004 C 469.598999 156.343994 460.678009 163.936996 450.493988 163.117996 C 440.309998 162.298004 432.71701 153.377991 433.536011 143.192993 Z"/>
            <path id="path37" fill="#ffffff" fill-opacity="0.2" stroke="none" d="M 436.502991 106.311005 C 437.321991 96.126984 446.243011 88.535004 456.427002 89.354004 C 466.612 90.173004 474.20401 99.093994 473.38501 109.277985 C 472.565002 119.462997 463.644989 127.054993 453.460999 126.235992 C 443.276001 125.416 435.68399 116.496002 436.502991 106.311005 Z"/>
            <path id="path38" fill="#ffffff" fill-opacity="0.2" stroke="none" d="M 439.470001 69.429993 C 440.287994 59.244995 449.209015 51.653015 459.393005 52.471985 C 469.578003 53.291016 477.170013 62.212006 476.351013 72.395996 C 475.532013 82.580994 466.610992 90.173004 456.427002 89.354004 C 446.242004 88.533997 438.649994 79.614014 439.468994 69.429016 Z"/>
            <path id="path39" fill="#ffffff" fill-opacity="0.2" stroke="none" d="M 442.436005 32.548004 C 443.255005 22.363007 452.175995 14.770996 462.359985 15.589996 C 472.544006 16.408997 480.136993 25.329987 479.317993 35.514008 C 478.497986 45.699005 469.578003 53.291016 459.393005 52.471985 C 449.209015 51.652008 441.615997 42.731995 442.436005 32.548004 Z M 445.402008 -4.333984 C 446.221985 -14.519012 455.141998 -22.110992 465.325989 -21.291992 C 475.510986 -20.472992 483.102997 -11.552002 482.283997 -1.368011 C 481.463989 8.816986 472.544006 16.408997 462.359985 15.589996 C 452.174988 14.769989 444.583008 5.850006 445.402008 -4.333984 Z"/>
        </g>
        <g id="g2">
            <path id="path40" fill="#ffffff" fill-opacity="0.2" stroke="none" d="M 454.102997 349.01001 C 455.742004 328.640991 473.583008 313.457001 493.951996 315.095001 C 514.320984 316.733002 529.505005 334.574005 527.867004 354.942993 C 526.229004 375.312988 508.388 390.497009 488.019012 388.859009 C 467.648987 387.221008 452.464996 369.378998 454.102997 349.010986 Z"/>
            <path id="path41" fill="#ffffff" fill-opacity="0.2" stroke="none" d="M 460.036011 275.247009 C 461.674011 254.876999 479.515991 239.692993 499.884003 241.330994 C 520.254028 242.968994 535.437988 260.811005 533.799988 281.179016 C 532.161987 301.549011 514.320984 316.733002 493.951996 315.095001 C 473.582001 313.457001 458.39801 295.615997 460.036011 275.247009 Z"/>
            <path id="path42" fill="#ffffff" fill-opacity="0.2" stroke="none" d="M 533.799988 281.179993 C 535.437988 260.809998 553.278992 245.626007 573.64801 247.264008 C 594.018005 248.901993 609.202026 266.742981 607.564026 287.112 C 605.926025 307.481995 588.083984 322.665985 567.716003 321.028015 C 547.346008 319.389008 532.161987 301.548004 533.799988 281.179016 Z"/>
            <path id="path43" fill="#ffffff" fill-opacity="0.2" stroke="none" d="M 607.564026 287.112 C 609.202026 266.742004 627.04303 251.557999 647.411987 253.197006 C 667.781982 254.835007 682.966003 272.675995 681.328003 293.045013 C 679.690002 313.415009 661.848022 328.598999 641.479004 326.960999 C 621.109985 325.321991 605.926025 307.480988 607.564026 287.112 Z M 524.900024 391.825012 C 528.177002 351.087006 563.859009 320.717987 604.598022 323.994995 C 645.335999 327.270996 675.705017 362.951996 672.427979 403.69101 C 669.151978 444.429993 633.471008 474.799011 592.731995 471.522003 C 551.992981 468.244995 521.624023 432.563995 524.901001 391.825012 Z M 448.170013 422.774994 C 449.80899 402.404999 467.649994 387.221008 488.019012 388.859009 C 508.389008 390.497009 523.572998 408.338013 521.934021 428.707001 C 520.296021 449.076996 502.454987 464.260986 482.085999 462.622986 C 461.716003 460.984985 446.532013 443.143005 448.17099 422.774994 Z M 409.804993 438.25 C 410.625 428.063995 419.545013 420.471985 429.730011 421.290985 C 439.914001 422.110992 447.506012 431.031006 446.687012 441.214996 C 445.868011 451.399994 436.946991 458.992004 426.763 458.173004 C 416.578003 457.354004 408.985992 448.433014 409.804993 438.248993 Z"/>
            <path id="path44" fill="#ffffff" fill-opacity="0.2" stroke="none" d="M 415.738007 364.484985 C 416.558014 354.299988 425.477997 346.708008 435.661987 347.527008 C 445.846985 348.346985 453.438995 357.266998 452.619995 367.451996 C 451.800995 377.635986 442.880005 385.227997 432.696014 384.408997 C 422.510986 383.589996 414.919006 374.669006 415.738007 364.484985 Z"/>
            <path id="path45" fill="#ffffff" fill-opacity="0.2" stroke="none" d="M 418.704987 327.602997 C 419.523987 317.419006 428.444 309.825989 438.628998 310.644989 C 448.812988 311.464996 456.406006 320.38501 455.585999 330.570007 C 454.766998 340.753998 445.846985 348.346985 435.661987 347.527008 C 425.477997 346.708008 417.88501 337.786987 418.704987 327.602997 Z"/>
            <path id="path46" fill="#ffffff" fill-opacity="0.2" stroke="none" d="M 421.670013 290.721008 C 422.48999 280.536987 431.410004 272.944 441.595001 273.763 C 451.779999 274.583008 459.372009 283.502991 458.553009 293.687988 C 457.733002 303.872009 448.812988 311.464996 438.628998 310.644989 C 428.444 309.825989 420.85199 300.904999 421.67099 290.721008 Z"/>
            <path id="path47" fill="#ffffff" fill-opacity="0.2" stroke="none" d="M 424.636993 253.839996 C 425.457001 243.654999 434.377014 236.061996 444.561005 236.882004 C 454.746002 237.701004 462.338013 246.621002 461.519012 256.806 C 460.700012 266.98999 451.778992 274.583008 441.595001 273.763 C 431.410004 272.944 423.817993 264.023987 424.636993 253.839005 Z M 427.604004 216.957001 C 428.423004 206.772995 437.343994 199.179993 447.528015 200 C 457.713013 200.819 465.304993 209.738998 464.485992 219.923996 C 463.665985 230.108002 454.746002 237.701004 444.561005 236.880997 C 434.377014 236.061996 426.785004 227.141998 427.604004 216.957001 Z"/>
            <path id="path48" fill="#ffffff" fill-opacity="0.2" stroke="none" d="M 464.485992 219.923996 C 465.304993 209.738998 474.226013 202.147003 484.410004 202.966003 C 494.593994 203.785995 502.187012 212.705994 501.368011 222.889999 C 500.548004 233.074997 491.627991 240.667007 481.442993 239.848007 C 471.259003 239.028 463.665985 230.108002 464.485992 219.923996 Z"/>
            <path id="path49" fill="#ffffff" fill-opacity="0.2" stroke="none" d="M 501.368011 222.889999 C 502.187012 212.705002 511.108002 205.113007 521.291992 205.932007 C 531.476013 206.751999 539.06897 215.671997 538.25 225.856003 C 537.429993 236.041 528.51001 243.632996 518.325012 242.813995 C 508.140991 241.994995 500.548004 233.074005 501.368011 222.889999 Z"/>
            <path id="path50" fill="#ffffff" fill-opacity="0.2" stroke="none" d="M 538.25 225.856003 C 539.06897 215.671997 547.989014 208.080002 558.174011 208.899002 C 568.357971 209.718002 575.950989 218.639008 575.132019 228.822998 C 574.312012 239.007996 565.392029 246.600006 555.20697 245.781006 C 545.02301 244.960999 537.429993 236.041 538.25 225.856995 Z"/>
            <path id="path51" fill="#ffffff" fill-opacity="0.2" stroke="none" d="M 575.132019 228.822998 C 575.950989 218.638 584.870972 211.046005 595.05603 211.865005 C 605.23999 212.684998 612.833008 221.604996 612.013 231.789001 C 611.19397 241.973999 602.273987 249.565994 592.088989 248.746994 C 581.905029 247.927002 574.312012 239.007004 575.132019 228.822998 Z"/>
        </g>
    </g>
    <path id="path52" fill="#000000" fill-opacity="0.245494" fill-rule="evenodd" stroke="none" d="M 443 292 C 443 276.536011 378.976715 264 300 264 C 221.023285 264 157 276.536011 157 292 C 157 307.463989 221.023285 320 300 320 C 378.976715 320 443 307.463989 443 292 Z"/>
    <g id="sillyvgg1">
        <path id="path53" fill="#ffb63c" stroke="none" d="M 318.366608 68.447754 L 331.997589 76.36969 C 334.929871 74.678009 337.587799 74.519501 339.505005 75.635101 L 325.877075 67.713135 C 323.956787 66.597565 321.298859 66.752991 318.366608 68.447754 Z M 339.508057 75.635101 C 339.505005 75.635101 339.505005 75.635101 339.505005 75.635101 L 339.508057 75.635101 Z M 273.072174 302.585846 L 273.069122 302.582794 C 273.069122 302.582794 273.072174 302.585846 273.072174 302.585846 Z M 255.881012 116.66832 L 256.36261 287.900208 C 256.374786 291.225647 257.548309 293.566559 259.441162 294.666931 L 273.069122 302.582794 C 271.179321 301.482422 270.005798 299.144562 269.993591 295.822144 L 269.508972 124.590271 L 255.881012 116.66832 Z"/>
        <path id="path54" fill="#ffb63c" stroke="none" d="M 280.024841 106.378021 L 266.393829 98.456055 L 318.366608 68.447754 L 331.997589 76.36969 L 280.024841 106.378021 Z"/>
        <path id="path55" fill="#ffa20d" stroke="none" d="M 269.512024 124.590271 L 255.87796 116.66832 C 255.859665 109.974762 260.56897 101.818085 266.393829 98.453003 L 280.024841 106.378021 C 274.199951 109.740051 269.490662 117.896713 269.508972 124.593323 L 269.512024 124.590271 Z"/>
        <path id="path56" fill="#ffca6c" stroke="none" d="M 331.997589 76.36969 C 337.825531 73.004608 342.565308 75.7052 342.583588 82.398773 L 343.071289 253.630661 C 343.086517 260.327271 338.38028 268.480896 332.552368 271.848999 L 280.57959 301.851257 C 274.7547 305.213287 270.014954 302.512695 269.996643 295.819092 L 269.508972 124.587219 C 269.490662 117.893661 274.199951 109.737 280.024841 106.371918 L 331.997589 76.36969 Z"/>
        <path id="path57" fill="#f04343" stroke="none" d="M 316.028748 250.686218 C 316.047028 256.434906 312.00528 263.433289 307.003357 266.322876 C 304.811798 267.587799 302.11731 268.188293 300.117767 266.658142 C 300.111664 266.658142 300.108612 266.658142 300.10556 266.652039 C 298.746124 265.612671 297.920105 263.725891 297.914001 261.144165 C 297.898773 255.395493 301.940521 248.397125 306.942413 245.510574 C 311.941254 242.62709 316.013489 244.934479 316.028748 250.686218 Z"/>
        <path id="path58" fill="#4f575f" stroke="none" d="M 312.441132 189.130264 L 301.836884 195.25386 L 301.580841 113.809235 L 312.182068 107.685638"/>
        <path id="path59" fill="#f04343" stroke="none" d="M 312.614899 245.903778 L 302.013672 252.030426 L 301.757629 170.582718 L 312.358826 164.4561 L 312.614899 245.903778 Z"/>
        <path id="path60" fill="#ff6161" stroke="none" d="M 304.116852 154.622986 L 304.001007 252.463242 C 306.57663 253.950714 311.145721 252.944855 311.151825 250.756317 L 311.264587 155.54657 C 308.996826 156.314667 306.323639 155.918427 304.1138 154.626038 L 304.116852 154.622986 Z"/>
        <path id="path61" fill="#2a3134" stroke="none" d="M 311.416992 110.627014 L 311.249359 167.324326 C 311.243256 169.592102 306.610168 170.485199 304.098541 169.031265 L 304.266205 112.333954 C 306.844879 113.821442 311.410889 112.815552 311.416992 110.630066 L 311.416992 110.627014 Z"/>
        <path id="path62" fill="#4f575f" stroke="none" d="M 310.179474 108.895721 C 311.822388 109.84671 311.828461 111.386017 310.194702 112.333954 C 308.563995 113.281921 305.909119 113.281921 304.266205 112.333954 L 310.179474 108.895721 Z"/>
        <path id="path63" fill="#ff6161" stroke="none" d="M 316.961456 256.754944 C 316.961456 264.69519 308.164703 269.370941 301.602173 265.173737 C 301.599121 265.173737 301.599121 265.170685 301.5961 265.167633 C 300.532288 264.35379 299.883057 262.875488 299.876953 260.851563 C 299.861725 254.023865 306.979004 245.903778 311.642548 247.924652 C 314.916168 249.655945 316.961456 253.054565 316.961456 256.754944 Z"/>
        <path id="path64" fill="#4f575f" stroke="none" d="M 279.57373 258.687408 C 279.33902 258.282043 279.476196 257.760803 279.881561 257.523041 L 292.14093 250.448471 L 292.14093 118.1436 L 280.451569 124.885941 C 280.046173 125.120636 279.524963 124.980438 279.290253 124.571991 C 279.055542 124.166611 279.19574 123.64537 279.601166 123.410675 L 292.561584 115.930695 C 292.82373 115.77829 293.149841 115.77829 293.411987 115.930695 C 293.674133 116.083099 293.838715 116.36351 293.838715 116.66832 L 293.838715 250.939209 C 293.838715 251.240967 293.674133 251.524429 293.411987 251.676834 L 280.735046 258.99527 C 280.326599 259.233032 279.805359 259.092804 279.570679 258.684387 L 279.57373 258.687408 Z"/>
        <path id="path65" fill="#4f575f" stroke="none" d="M 279.57373 258.687408 C 279.33902 258.282043 279.476196 257.760803 279.881561 257.523041 L 292.564636 250.20462 C 292.970032 249.966858 293.491241 250.107086 293.725952 250.515518 C 293.960632 250.923965 293.823486 251.442139 293.415039 251.679886 L 280.738068 258.998322 C 280.329651 259.236084 279.808411 259.095856 279.57373 258.687408 Z M 279.57373 241.932144 C 279.33902 241.526733 279.479218 241.00856 279.881561 240.770813 L 292.564636 233.449326 C 292.970032 233.21463 293.494293 233.354843 293.729004 233.760239 C 293.963684 234.168671 293.823486 234.692947 293.415039 234.927658 L 280.738068 242.246078 C 280.329651 242.480789 279.808411 242.343628 279.57373 241.935181 L 279.57373 241.932144 Z M 279.57373 225.179901 C 279.33902 224.771469 279.476196 224.253281 279.881561 224.015533 L 292.564636 216.694061 C 292.970032 216.459351 293.491241 216.599564 293.725952 217.007996 C 293.960632 217.413391 293.823486 217.934631 293.415039 218.172363 L 280.738068 225.490799 C 280.329651 225.72551 279.808411 225.588348 279.57373 225.179901 Z M 279.57373 208.427673 C 279.33902 208.019226 279.476196 207.497986 279.881561 207.263306 L 292.564636 199.941818 C 292.970032 199.707123 293.491241 199.847321 293.725952 200.255753 C 293.963684 200.661179 293.823486 201.182388 293.415039 201.417084 L 280.738068 208.738556 C 280.329651 208.973267 279.808411 208.836105 279.57373 208.427673 Z M 279.881561 190.511063 L 292.564636 183.189575 C 292.970032 182.954865 293.491241 183.095093 293.725952 183.503525 C 293.963684 183.908905 293.823486 184.430161 293.415039 184.664841 L 280.738068 191.986313 C 279.744415 192.553268 278.921417 191.065811 279.881561 190.511063 Z M 279.57373 174.920135 C 279.33902 174.511703 279.476196 173.990494 279.881561 173.755783 L 292.564636 166.434296 C 292.970032 166.196533 293.494293 166.336761 293.725952 166.74826 C 293.960632 167.153641 293.823486 167.674866 293.415039 167.909561 L 280.738068 175.231049 C 280.329651 175.465744 279.808411 175.325531 279.57373 174.920135 Z M 279.57373 158.167908 C 279.33902 157.759476 279.476196 157.238235 279.881561 157.00354 L 292.564636 149.682068 C 292.970032 149.447357 293.491241 149.58757 293.725952 149.992966 C 293.963684 150.401413 293.823486 150.922623 293.415039 151.157333 L 280.738068 158.478821 C 280.329651 158.713501 279.808411 158.573288 279.57373 158.167908 Z M 279.57373 141.412628 C 279.33902 141.007217 279.476196 140.486008 279.881561 140.251297 L 292.564636 132.92981 C 292.973083 132.689041 293.491241 132.832291 293.725952 133.240723 C 293.963684 133.652206 293.823486 134.167343 293.415039 134.402054 L 280.738068 141.723526 C 280.329651 141.958221 279.808411 141.818008 279.57373 141.412628 L 279.57373 141.412628 Z"/>
        <path id="path66" fill="#4f575f" stroke="none" d="M 292.988312 251.789612 C 292.518921 251.789612 292.137909 251.4086 292.137909 250.939209 L 292.137909 118.1436 L 280.45462 124.885941 C 280.049225 125.120636 279.527985 124.980438 279.293304 124.575043 C 279.058594 124.166611 279.19574 123.64537 279.604187 123.410675 L 292.564636 115.930695 C 292.826752 115.77829 293.149841 115.77829 293.415039 115.930695 C 293.677185 116.083099 293.841766 116.36351 293.838715 116.66832 L 293.838715 250.939209 C 293.838715 251.4086 293.457703 251.789612 292.988312 251.789612 Z M 320.341766 234.65332 L 320.341766 100.385498 C 320.341766 100.080688 320.503326 99.797211 320.768494 99.644806 L 333.16806 92.484894 C 333.576508 92.250183 334.094696 92.390381 334.332428 92.795776 C 334.567139 93.204224 334.426941 93.725433 334.018494 93.960144 L 322.045624 100.876221 L 322.045624 233.181091 L 332.028107 227.414139 C 332.433502 227.179428 332.957764 227.319656 333.192474 227.725052 C 333.427155 228.133484 333.286957 228.657761 332.87851 228.88942 L 321.618896 235.390961 C 321.356781 235.543365 321.030609 235.543365 320.768494 235.390961 C 320.503326 235.238556 320.341766 234.95813 320.341766 234.65332 Z"/>
        <path id="path67" fill="#4f575f" stroke="none" d="M 320.454529 235.080063 C 320.219849 234.671616 320.360046 234.150391 320.768494 233.915695 L 333.445435 226.594208 C 333.853882 226.359497 334.375122 226.49971 334.609802 226.905121 C 334.847565 227.313553 334.704285 227.83783 334.295868 228.069489 L 321.618896 235.390961 C 321.21048 235.625656 320.68924 235.488495 320.454529 235.080063 Z M 320.454529 218.32782 C 320.219849 217.919373 320.360046 217.398163 320.768494 217.163452 L 333.445435 209.841965 C 333.856934 209.601166 334.375122 209.747467 334.609802 210.15593 C 334.844513 210.564362 334.704285 211.079483 334.295868 211.317245 L 321.618896 218.638733 C 321.21048 218.873413 320.68924 218.733215 320.454529 218.32782 Z M 320.454529 201.575592 C 320.219849 201.16713 320.360046 200.64592 320.768494 200.411209 L 333.445435 193.089722 C 333.853882 192.855026 334.375122 192.992203 334.609802 193.400635 C 334.847565 193.809082 334.704285 194.330307 334.295868 194.565018 L 321.618896 201.88649 C 321.21048 202.12117 320.68924 201.980972 320.454529 201.575592 Z M 320.454529 184.820297 C 320.219849 184.41185 320.360046 183.89064 320.768494 183.65593 L 333.445435 176.334442 C 333.853882 176.099731 334.375122 176.236923 334.609802 176.645355 C 334.847565 177.053787 334.704285 177.575012 334.295868 177.809723 L 321.618896 185.131195 C 321.21048 185.365906 320.68924 185.225708 320.454529 184.820297 Z M 320.454529 168.065002 C 320.219849 167.659622 320.360046 167.138397 320.768494 166.903717 L 333.445435 159.582214 C 333.853882 159.347519 334.375122 159.487717 334.609802 159.893127 C 334.844513 160.301559 334.704285 160.822769 334.295868 161.05748 L 321.618896 168.378967 C 321.21048 168.613678 320.68924 168.473465 320.454529 168.065002 Z M 320.454529 151.31279 C 320.219849 150.907379 320.360046 150.386154 320.768494 150.151443 L 333.445435 142.829987 C 333.853882 142.570877 334.396454 142.701965 334.640289 143.122604 C 334.881104 143.540192 334.725647 144.076645 334.295868 144.3022 L 321.618896 151.623688 C 321.21048 151.858383 320.68924 151.71817 320.454529 151.309738 L 320.454529 151.31279 Z M 320.454529 134.557495 C 320.219849 134.152084 320.360046 133.630875 320.768494 133.396179 L 333.445435 126.074692 C 333.853882 125.839996 334.375122 125.980209 334.609802 126.38559 C 334.844513 126.794022 334.704285 127.315277 334.295868 127.549957 L 321.618896 134.871429 C 321.21048 135.10614 320.68924 134.965942 320.454529 134.557495 Z M 320.454529 117.805252 C 320.219849 117.399872 320.360046 116.878647 320.768494 116.643951 L 333.445435 109.322449 C 333.853882 109.087738 334.375122 109.227966 334.609802 109.633362 C 334.844513 110.041809 334.704285 110.563019 334.295868 110.797729 L 321.618896 118.119217 C 321.21048 118.353912 320.68924 118.213699 320.454529 117.805252 Z"/>
        <path id="path68" fill="#4f575f" stroke="none" d="M 321.192169 235.503738 C 320.722778 235.503738 320.341766 235.122726 320.341766 234.65332 L 320.341766 100.385498 C 320.341766 100.080688 320.503326 99.797211 320.768494 99.644806 L 333.16806 92.484894 C 333.576508 92.247131 334.097717 92.387329 334.332428 92.795776 C 334.567139 93.204224 334.426941 93.725433 334.018494 93.960144 L 322.045624 100.876221 L 322.045624 234.65332 C 322.045624 235.122726 321.664642 235.503738 321.192169 235.503738 Z"/>
    </g>
</svg>
