<?xml version="1.0" encoding="UTF-8"?>
<!-- Generated by Pixelmator Pro 3.7 -->
<svg width="80" height="80" viewBox="0 0 80 80" xmlns="http://www.w3.org/2000/svg">
    <path id="path1" fill="#edf5f9" stroke="none" d="M 39.785477 68.552071 C 32.729668 68.552071 26.971264 62.749237 26.971264 55.622326 C 26.971264 51.552345 29.059576 47.642323 32.560822 45.154125 L 34.009308 44.132187 L 34.009308 17.615108 C 34.009308 14.22049 36.781876 11.465706 40.185371 11.465706 C 43.588867 11.465706 46.361435 14.22049 46.361435 17.615108 L 46.361435 44.123299 L 47.792149 45.154125 C 51.053467 47.51791 52.928497 51.330185 52.928497 55.631214 C 52.937382 62.758121 47.036797 68.552071 39.785477 68.552071 Z M 39.785477 68.552071"/>
    <path id="path2" fill="#144a8a" stroke="none" d="M 49.818253 42.346016 L 49.818253 17.597336 C 49.818253 12.301025 45.481678 8 40.185371 8 C 34.897949 8 30.561377 12.309914 30.561377 17.597336 L 30.561377 42.337128 C 26.233692 45.411831 23.523335 50.388226 23.523335 55.613441 C 23.523335 64.650925 30.819082 72 39.785477 72 C 48.929611 72 56.394199 64.650925 56.394199 55.613441 C 56.385311 50.183838 53.932655 45.314079 49.818253 42.346016 Z M 39.785477 68.552071 C 32.729668 68.552071 26.971264 62.749237 26.971264 55.622326 C 26.971264 51.552345 29.059576 47.642323 32.560822 45.154125 L 34.009308 44.132187 L 34.009308 17.615108 C 34.009308 14.22049 36.781876 11.465706 40.185371 11.465706 C 43.588867 11.465706 46.361435 14.22049 46.361435 17.615108 L 46.361435 44.123299 L 47.792149 45.154125 C 51.053467 47.51791 52.928497 51.330185 52.928497 55.631214 C 52.937382 62.758121 47.036797 68.552071 39.785477 68.552071 Z M 39.785477 68.552071"/>
    <path id="path3" fill="#9fc8e2" stroke="none" d="M 30.454741 52.618717 C 30.143711 53.720634 29.921553 54.653706 29.921553 55.728966 C 29.921553 61.265205 34.418076 65.770615 39.954315 65.770615 C 45.490566 65.770615 49.987099 61.256317 49.987099 55.720078 C 49.987099 54.635933 49.773819 53.720634 49.453907 52.609829 L 30.454741 52.618717 Z M 30.454741 52.618717"/>
    <path id="path4" fill="#144a8a" stroke="none" d="M 37.377266 23.018051 L 33.733829 23.018051 C 33.120663 23.018051 32.631912 22.529297 32.631912 21.916134 C 32.631912 21.302975 33.120663 20.81422 33.733829 20.81422 L 37.377266 20.81422 C 37.990421 20.81422 38.479179 21.302975 38.479179 21.916134 C 38.479179 22.520409 37.990421 23.018051 37.377266 23.018051 Z M 37.377266 27.336849 L 33.733829 27.336849 C 33.120663 27.336849 32.631912 26.848095 32.631912 26.234932 C 32.631912 25.621773 33.120663 25.133018 33.733829 25.133018 L 37.377266 25.133018 C 37.990421 25.133018 38.479179 25.621773 38.479179 26.234932 C 38.479179 26.839211 37.990421 27.336849 37.377266 27.336849 Z M 37.377266 31.655651 L 33.733829 31.655651 C 33.120663 31.655651 32.631912 31.166901 32.631912 30.553734 C 32.631912 29.940571 33.120663 29.451817 33.733829 29.451817 L 37.377266 29.451817 C 37.990421 29.451817 38.479179 29.940571 38.479179 30.553734 C 38.479179 31.158012 37.990421 31.655651 37.377266 31.655651 Z M 37.377266 35.965565 L 33.733829 35.965565 C 33.120663 35.965565 32.631912 35.47681 32.631912 34.863651 C 32.631912 34.250484 33.120663 33.76173 33.733829 33.76173 L 37.377266 33.76173 C 37.990421 33.76173 38.479179 34.250484 38.479179 34.863651 C 38.479179 35.47681 37.990421 35.965565 37.377266 35.965565 Z M 37.377266 40.284367 L 33.733829 40.284367 C 33.120663 40.284367 32.631912 39.795612 32.631912 39.182449 C 32.631912 38.569286 33.120663 38.080536 33.733829 38.080536 L 37.377266 38.080536 C 37.990421 38.080536 38.479179 38.569286 38.479179 39.182449 C 38.479179 39.795612 37.990421 40.284367 37.377266 40.284367 Z M 37.377266 40.284367"/>
</svg>
