<?xml version="1.0" encoding="UTF-8"?>
<!-- Generated by Pixelmator Pro 3.7.1 -->
<svg width="80" height="80" viewBox="0 0 80 80" xmlns="http://www.w3.org/2000/svg">
    <path id="path1" fill="#000000" fill-rule="evenodd" stroke="none" d="M 8.001546 42.265678 L 11.310872 42.265678 C 12.600941 47.913605 15.536082 53.031284 19.71517 57.008247 L 19.71517 61.665844 L 20.30253 62.2519 L 22.00585 63.951435 L 22.00585 69.97345 C 22.00585 72.340324 23.924582 74.259056 26.291454 74.259056 L 53.713623 74.259056 C 56.080498 74.259056 57.999229 72.340324 57.999229 69.97345 L 57.999229 63.950146 L 59.699047 62.250324 L 60.284832 61.664539 L 60.284832 57.008247 C 64.463913 53.031288 67.399048 47.913612 68.689125 42.265678 L 71.998451 42.265678 C 75.627632 42.265678 78.569656 39.323654 78.569656 35.694473 C 78.569656 32.065292 75.627632 29.123264 71.998451 29.123264 L 68.691483 29.123264 C 67.669441 24.640524 65.608986 20.479771 62.688271 16.947746 C 61.292923 15.258404 59.711647 13.728178 57.974369 12.387818 C 52.864071 8.440083 46.59502 6.262146 40 6.262146 C 30.68359 6.262146 22.086676 10.623123 16.556892 17.899757 C 14.032053 21.222189 12.239317 25.040506 11.308504 29.123264 L 8.001546 29.123264 C 4.372368 29.123264 1.430338 32.065296 1.430338 35.694473 C 1.430338 39.32365 4.372368 42.265678 8.001546 42.265678 Z M 21.71517 56.132805 C 17.181095 52.074699 14.005062 46.530407 12.952826 40.265678 L 8.001546 40.265678 C 5.476937 40.265678 3.430338 38.219082 3.430338 35.694473 C 3.430338 33.169865 5.476937 31.123264 8.001546 31.123264 L 12.951122 31.123264 C 13.698802 26.661491 15.523693 22.564846 18.149265 19.109859 C 23.15852 12.518188 31.082235 8.262146 40 8.262146 C 46.308205 8.262146 52.119003 10.391777 56.752663 13.971306 C 58.37561 15.223457 59.848751 16.650513 61.14698 18.222275 C 64.150398 21.854317 66.236107 26.273056 67.048874 31.123264 L 71.998451 31.123264 C 74.523064 31.123264 76.569656 33.169865 76.569656 35.694473 C 76.569656 38.219082 74.523064 40.265678 71.998451 40.265678 L 67.047173 40.265678 C 65.994934 46.530407 62.818909 52.074699 58.284832 56.132805 L 58.284832 60.836113 L 55.999229 63.121719 L 55.999229 69.97345 C 55.999229 71.235756 54.975929 72.259056 53.713623 72.259056 L 26.291454 72.259056 C 25.029152 72.259056 24.00585 71.235756 24.00585 69.97345 L 24.00585 63.121719 L 24.000772 63.121719 L 24.000772 63.116638 L 21.71517 60.836113 L 21.71517 56.132805 Z"/>
    <g id="g1">
        <path id="path2" fill="#54b0e0" stroke="none" d="M 24.000772 63.116638 L 21.71517 60.836113 L 21.71517 53.979301 L 58.284832 53.979301 L 58.284832 60.836113 L 55.999226 63.121719 L 24.000772 63.121719"/>
        <path id="path3" fill="#54b0e0" stroke="#c4baba" stroke-width="0.243798" d="M 26.291454 53.97422 L 53.713623 53.97422 C 54.975929 53.97422 55.999226 54.99752 55.999226 56.259827 L 55.999226 69.97345 C 55.999226 71.235756 54.975929 72.259056 53.713623 72.259056 L 26.291454 72.259056 C 25.029152 72.259056 24.00585 71.235756 24.00585 69.97345 L 24.00585 56.259827 C 24.00585 54.99752 25.029152 53.97422 26.291454 53.97422 Z"/>
        <path id="path4" fill="#b3b3b3" fill-rule="evenodd" stroke="none" d="M 40 8.267227 C 26.615316 8.265915 15.184468 17.925789 12.953688 31.12326 L 8.001546 31.12326 C 5.476937 31.12326 3.430338 33.169865 3.430338 35.694469 C 3.430338 38.219082 5.476937 40.265678 8.001546 40.265678 L 12.953688 40.265678 C 14.31901 48.324234 19.207249 55.353981 26.286377 59.439354 L 26.286377 67.692924 L 53.713623 67.692924 L 53.713623 59.439354 C 60.792755 55.353981 65.680992 48.324234 67.04631 40.265678 L 71.998451 40.265678 C 74.523064 40.265678 76.569664 38.219082 76.569664 35.694469 C 76.569664 33.169865 74.523064 31.12326 71.998451 31.12326 L 67.04631 31.12326 C 64.815536 17.925789 53.384686 8.265915 40 8.267227 Z M 8.001546 33.408867 C 9.26385 33.408867 10.287149 34.432167 10.287149 35.694469 C 10.287149 36.956776 9.26385 37.980072 8.001546 37.980072 C 6.739242 37.980072 5.715942 36.956776 5.715942 35.694469 C 5.71459 35.087875 5.954959 34.505737 6.383887 34.076813 C 6.812814 33.647884 7.394953 33.407513 8.001546 33.408867 Z M 71.998451 33.408867 C 73.260757 33.408867 74.284058 34.432167 74.284058 35.694469 C 74.284058 36.956776 73.260757 37.980072 71.998451 37.980072 C 70.736153 37.980072 69.712852 36.956776 69.712852 35.694469 C 69.711494 35.087875 69.951866 34.505737 70.380798 34.076813 C 70.809731 33.647884 71.391861 33.407513 71.998451 33.408867 Z"/>
        <path id="path5" fill="none" stroke="#b3b3b3" stroke-width="0.914242" d="M 67.427246 35.689388 C 67.427246 50.837044 55.147652 63.116638 40 63.116638 C 24.85235 63.116638 12.572754 50.837044 12.572754 35.689388 C 12.572754 20.54174 24.85235 8.262146 40 8.262146 C 55.147652 8.262146 67.427246 20.54174 67.427246 35.689388 Z"/>
        <path id="path6" fill="none" stroke="#9c9c9c" stroke-width="0.914242" d="M 49.594456 9.994125 C 58.697857 13.393272 65.323105 21.355545 67.010757 30.925179"/>
        <path id="path7" fill="none" stroke="#9c9c9c" stroke-width="0.914242" d="M 12.93845 31.219765 C 14.549028 21.465443 21.284555 13.332748 30.568075 9.933174"/>
        <path id="path8" fill="none" stroke="#9c9c9c" stroke-width="0.914242" d="M 21.82691 56.229351 C 17.260103 52.188656 14.170058 46.741314 13.045112 40.748192"/>
        <path id="path9" fill="none" stroke="#9c9c9c" stroke-width="0.914242" d="M 66.959969 40.71772 C 65.843452 46.713299 62.758366 52.164936 58.193405 56.209038"/>
    </g>
    <g id="g2">
        <path id="path10" fill="#a8a8a8" fill-rule="evenodd" stroke="#ededed" stroke-width="1.015824" d="M 48.309441 18.054688 C 50.442551 22.631134 48.461884 28.070305 43.885471 30.203491 C 39.309063 32.336678 33.869858 30.356098 31.736601 25.779716 C 29.603344 21.203339 31.583841 15.764099 36.160187 13.630775 C 38.357918 12.60627 40.87262 12.496803 43.151066 13.326454 C 45.429512 14.156105 47.285042 15.856911 48.309441 18.054688 Z"/>
        <path id="path11" fill="#ecd384" fill-rule="evenodd" stroke="#585858" stroke-width="0.457121" stroke-linecap="square" stroke-linejoin="round" d="M 44.581367 19.791748 C 45.758114 22.307938 44.672283 25.301659 42.156086 26.478409 C 39.639896 27.655155 36.646172 26.569321 35.469429 24.053131 L 35.469429 24.053131 C 34.292679 21.536934 35.378513 18.543213 37.894707 17.366467 C 40.410896 16.18972 43.404617 17.275555 44.581367 19.791748 Z"/>
        <path id="path12" fill="none" stroke="#585858" stroke-width="0.22856" stroke-linecap="round" d="M 35.134201 21.16819 L 42.590351 17.694069"/>
        <path id="path13" fill="none" stroke="#585858" stroke-width="0.22856" stroke-linecap="round" d="M 37.450283 26.140644 L 44.911507 22.661446"/>
        <linearGradient id="linearGradient1" x1="38.648954" y1="21.919898" x2="41.391679" y2="21.919898" gradientUnits="userSpaceOnUse">
            <stop offset="1e-05" stop-color="#ffffff" stop-opacity="0.49"/>
            <stop offset="1" stop-color="#e3c36d" stop-opacity="0.35"/>
        </linearGradient>
        <path id="path14" fill="url(#linearGradient1)" fill-rule="evenodd" stroke="#96814d" stroke-width="0.091424" stroke-linecap="round" stroke-linejoin="round" d="M 41.391678 21.914818 C 41.391678 22.672199 40.777699 23.286179 40.020317 23.286179 C 39.262932 23.286179 38.648952 22.672199 38.648952 21.914818 L 38.648952 21.914818 C 38.648952 21.157436 39.262932 20.543457 40.020317 20.543457 C 40.777699 20.543457 41.391678 21.157436 41.391678 21.914818 Z"/>
    </g>
</svg>
