<?xml version="1.0" encoding="UTF-8"?>
<!-- Generated by Pixelmator Pro 3.7 -->
<svg width="36" height="36" viewBox="0 0 36 36" xmlns="http://www.w3.org/2000/svg">
    <path id="path1" fill="#231f20" stroke="none" opacity="0.15" d="M 36 18 C 36 27.941126 27.941126 36 18 36 C 8.058874 36 0 27.941126 0 18 C 0 8.058874 8.058874 0 18 0 C 27.941126 0 36 8.058874 36 18 Z"/>
    <path id="path2" fill="#ffffff" stroke="none" d="M 34 18 C 34 26.836555 26.836555 34 18 34 C 9.163444 34 2 26.836555 2 18 C 2 9.163445 9.163444 2 18 2 C 26.836555 2 34 9.163445 34 18 Z"/>
    <g id="hide-eye">
        <path id="path3" fill="#575e75" stroke="none" d="M 24.585144 9.942858 L 10.442858 24.085142 L 11.415429 25.057142 L 25.557144 10.914858 L 24.585144 9.942858 Z M 18 25.5 C 16.481714 25.5 14.994286 25.033714 13.626286 24.259998 L 14.640572 23.245714 C 15.738285 23.810858 16.878286 24.125141 18.00057 24.125141 C 19.685143 24.125141 21.412001 23.416 22.973143 22.213142 C 24.438286 21.084572 25.686285 19.573713 26.528 18 C 25.774311 16.602268 24.780039 15.3484 23.590857 14.296 L 24.564571 13.321714 C 25.958857 14.565144 27.122286 16.101713 27.913143 17.685143 C 28.012571 17.883429 28.012571 18.116571 27.913143 18.314857 C 26.054287 22.034859 22.139999 25.5 18 25.5 Z M 9.472 18 C 10.11311 19.188671 10.928632 20.274622 11.891429 21.221714 L 10.92 22.194286 C 9.754286 21.046286 8.778857 19.698286 8.088 18.314857 C 7.98889 18.116652 7.98889 17.883348 8.088 17.685143 C 9.946286 13.965143 13.86 10.5 18 10.5 C 19.278858 10.5 20.535429 10.830286 21.717142 11.397142 L 20.676001 12.437143 C 19.793144 12.073143 18.890858 11.874857 18 11.874857 C 16.315428 11.874857 14.588572 12.584 13.027429 13.786858 C 11.561714 14.915428 10.314286 16.426285 9.472 18 Z"/>
        <path id="path4" fill="#575e75" stroke="none" d="M 18 21.5 C 17.52343 21.5 17.068571 21.404572 16.654285 21.231428 L 17.773714 20.113144 C 18.412916 20.18182 19.048849 19.957449 19.503435 19.502865 C 19.958019 19.048277 20.18239 18.412346 20.113714 17.773144 L 21.232 16.654285 C 21.681984 17.734659 21.562201 18.968447 20.912802 19.942085 C 20.263403 20.915722 19.170338 21.500351 18 21.5 Z M 14.546286 18.567429 L 18.568001 14.545715 C 17.455225 14.362658 16.32242 14.726995 15.524994 15.524422 C 14.727567 16.321848 14.363229 17.454655 14.546286 18.567429 Z"/>
    </g>
</svg>
