<?xml version="1.0" encoding="UTF-8"?>
<!-- Generated by Pixelmator Pro 3.8 -->
<svg width="20" height="20" viewBox="0 0 20 20" xmlns="http://www.w3.org/2000/svg">
    <g id="connected">
        <g id="Group">
            <path id="Oval" fill="#0fbd8c" fill-rule="evenodd" stroke="none" d="M 20 10 C 20 15.522847 15.522847 20 10 20 C 4.477152 20 0 15.522847 0 10 C 0 4.477152 4.477152 0 10 0 C 15.522847 0 20 4.477152 20 10 Z"/>
            <path id="path1" fill="#ffffff" stroke="none" d="M 4.078078 8.385993 C 4.673484 8.385993 5.156156 8.868664 5.156156 9.46407 C 5.155985 11.585559 6.830499 13.328905 8.950274 13.41415 L 9.10911 13.417024 L 10.821098 13.417024 C 10.444544 12.998008 10.454091 12.359718 10.843011 11.952152 C 11.231931 11.544589 11.869076 11.505181 12.305253 11.861716 L 12.387186 11.935744 L 14.183985 13.73254 C 14.356594 13.904522 14.465577 14.130093 14.493032 14.372201 L 14.499502 14.48504 L 14.499502 14.505164 C 14.497815 14.754223 14.409371 14.994904 14.249388 15.185792 L 14.179671 15.261256 L 12.387186 17.054461 C 11.989351 17.455807 11.349119 17.481838 10.920014 17.114115 C 10.490909 16.746391 10.418577 16.109724 10.754257 15.655115 L 10.821098 15.573181 L 9.10911 15.573181 C 5.735141 15.573181 3 12.838038 3 9.46407 C 3 8.868664 3.482672 8.385993 4.078078 8.385993 M 7.26919 3.311836 C 7.668081 2.917048 8.303134 2.894323 8.729222 3.259594 C 9.155308 3.624866 9.229886 4.255935 8.900681 4.710464 L 8.834559 4.792398 L 10.546547 4.792398 C 13.920516 4.792398 16.655657 7.527538 16.655657 10.901508 C 16.655657 11.496914 16.172985 11.979586 15.577579 11.979586 C 14.982174 11.979586 14.499502 11.496914 14.499502 10.901508 C 14.499671 8.780021 12.825159 7.036674 10.705384 6.951429 L 10.546547 6.948556 L 8.834559 6.948556 C 9.211114 7.36757 9.201566 8.005861 8.812647 8.413426 C 8.423726 8.820991 7.786582 8.860397 7.350406 8.503861 L 7.26919 8.429116 L 5.472392 6.632317 C 5.081238 6.241434 5.049259 5.617984 5.398365 5.189131 L 5.472392 5.107196 L 7.26919 3.310398 Z"/>
        </g>
    </g>
</svg>
