<?xml version="1.0" encoding="UTF-8"?>
<!-- Generated by Pixelmator Pro 3.7 -->
<svg width="36" height="36" viewBox="0 0 36 36" xmlns="http://www.w3.org/2000/svg">
    <path id="path1" fill="#231f20" stroke="none" opacity="0.15" d="M 36 18 C 36 27.941126 27.941126 36 18 36 C 8.058874 36 0 27.941126 0 18 C 0 8.058874 8.058874 0 18 0 C 27.941126 0 36 8.058874 36 18 Z"/>
    <path id="path2" fill="#ffffff" stroke="none" d="M 34 18 C 34 26.836555 26.836555 34 18 34 C 9.163444 34 2 26.836555 2 18 C 2 9.163445 9.163444 2 18 2 C 26.836555 2 34 9.163445 34 18 Z"/>
    <g id="show-eye">
        <path id="path3" fill="#575e75" stroke="none" d="M 21.5 18 C 21.5 19.932997 19.932997 21.5 18 21.5 C 16.067003 21.5 14.5 19.932997 14.5 18 C 14.5 16.067003 16.067003 14.5 18 14.5 C 19.932997 14.5 21.5 16.067003 21.5 18 Z M 20.125143 18 C 20.13773 17.232555 19.735508 16.517963 19.072901 16.130562 C 18.410294 15.74316 17.590279 15.74316 16.92767 16.130562 C 16.265064 16.517963 15.862843 17.232555 15.875429 18 C 15.894451 19.159943 16.840187 20.090296 18.000286 20.090296 C 19.160383 20.090296 20.106121 19.159943 20.125143 18 Z"/>
        <path id="path4" fill="#575e75" stroke="none" d="M 8.087428 18.314857 C 7.988318 18.116652 7.988318 17.883348 8.087428 17.685143 C 9.946285 13.965143 13.86 10.5 18 10.5 C 22.139999 10.5 26.054287 13.964571 27.913143 17.685143 C 28.012571 17.883429 28.012571 18.116571 27.913143 18.314857 C 26.054287 22.034859 22.139999 25.5 18 25.5 C 13.86 25.5 9.946285 22.035429 8.087428 18.314857 Z M 13.027429 22.213142 C 14.589143 23.416 16.315428 24.125143 18 24.125143 C 19.685715 24.125143 21.411428 23.416 22.973143 22.213142 C 24.438286 21.084572 25.686285 19.573715 26.528 18 C 25.686285 16.426285 24.438286 14.915428 22.973143 13.786858 C 21.411428 12.584 19.685143 11.874285 18 11.874285 C 16.315428 11.874285 14.588572 12.583427 13.027429 13.786285 C 11.561714 14.915428 10.314285 16.426285 9.472 18 C 10.314285 19.573715 11.561714 21.084572 13.027429 22.213142 Z"/>
    </g>
</svg>
