<?xml version="1.0" encoding="UTF-8"?>
<!-- Generated by Pixelmator Pro 3.7.1 -->
<svg width="600" height="370" viewBox="0 0 600 370" xmlns="http://www.w3.org/2000/svg">
    <g id="g1">
        <path id="path1" fill="#72c09d" stroke="none" d="M -0.03613 370 L -0.03613 -0.044556 L 600 -0.044556 C 600 -0.044556 600 162.220398 600 229.383057 C 600 281.96347 600 370 600 370 Z"/>
        <g id="g2">
            <path id="path2" fill="#000000" fill-opacity="0.07059" fill-rule="evenodd" stroke="none" d="M 507.942871 92.388397 L 507.942871 0 L 600.331238 92.388397 Z"/>
            <path id="path3" fill="#000000" fill-opacity="0.07059" fill-rule="evenodd" stroke="none" d="M 507.942871 184.786438 L 507.942871 92.398071 L 600.331238 184.786438 Z"/>
            <path id="path4" fill="#000000" fill-opacity="0.07059" fill-rule="evenodd" stroke="none" d="M 507.942871 277.18454 L 507.942871 184.796173 L 600.331238 277.18454 Z"/>
            <path id="path5" fill="#000000" fill-opacity="0.07059" fill-rule="evenodd" stroke="none" d="M 507.942871 369.582611 L 507.942871 277.194214 L 600.331238 369.582611 Z"/>
            <path id="path6" fill="#000000" fill-opacity="0.07059" fill-rule="evenodd" stroke="none" d="M 415.554596 92.388397 L 415.554596 0 L 507.942963 92.388397 Z"/>
            <path id="path7" fill="#000000" fill-opacity="0.07059" fill-rule="evenodd" stroke="none" d="M 415.554596 184.786438 L 415.554596 92.398071 L 507.942963 184.786438 Z"/>
            <path id="path8" fill="#000000" fill-opacity="0.07059" fill-rule="evenodd" stroke="none" d="M 415.554596 277.18454 L 415.554596 184.796173 L 507.942963 277.18454 Z"/>
            <path id="path9" fill="#000000" fill-opacity="0.07059" fill-rule="evenodd" stroke="none" d="M 323.166229 92.388397 L 323.166229 0 L 415.554596 92.388397 Z"/>
            <path id="path10" fill="#000000" fill-opacity="0.07059" fill-rule="evenodd" stroke="none" d="M 323.166229 184.786438 L 323.166229 92.398071 L 415.554596 184.786438 Z"/>
            <path id="path11" fill="#000000" fill-opacity="0.07059" fill-rule="evenodd" stroke="none" d="M 230.748764 92.388397 L 230.748764 0 L 323.137115 92.388397 Z"/>
            <path id="path12" fill="#000000" fill-opacity="0.07059" fill-rule="evenodd" stroke="none" d="M 276.942993 138.572891 L 276.942993 92.398102 L 323.156555 138.572891 Z"/>
            <path id="path13" fill="#000000" fill-opacity="0.07059" fill-rule="evenodd" stroke="none" d="M 276.942993 184.747665 L 276.942993 138.572891 L 323.156555 184.747665 Z"/>
            <path id="path14" fill="#000000" fill-opacity="0.07059" fill-rule="evenodd" stroke="none" d="M 230.748764 184.757355 L 230.748764 138.582565 L 276.962341 184.757355 Z"/>
            <path id="path15" fill="#000000" fill-opacity="0.07059" fill-rule="evenodd" stroke="none" d="M 230.748764 138.572891 L 230.748764 92.398102 L 276.962341 138.572891 Z"/>
            <path id="path16" fill="#000000" fill-opacity="0.07059" fill-rule="evenodd" stroke="none" d="M 369.350708 230.985504 L 369.350708 184.810745 L 415.564301 230.985504 Z"/>
            <path id="path17" fill="#000000" fill-opacity="0.07059" fill-rule="evenodd" stroke="none" d="M 369.350708 277.160278 L 369.350708 230.985504 L 415.564301 277.160278 Z"/>
            <path id="path18" fill="#000000" fill-opacity="0.07059" fill-rule="evenodd" stroke="none" d="M 323.156525 277.169983 L 323.156525 230.995209 L 369.370117 277.169983 Z"/>
            <path id="path19" fill="#000000" fill-opacity="0.07059" fill-rule="evenodd" stroke="none" d="M 323.156525 230.985504 L 323.156525 184.810745 L 369.370117 230.985504 Z"/>
            <path id="path20" fill="#000000" fill-opacity="0.07059" fill-rule="evenodd" stroke="none" d="M 276.933289 230.985504 L 276.933289 184.810745 L 323.146851 230.985504 Z"/>
            <path id="path21" fill="#000000" fill-opacity="0.07059" fill-rule="evenodd" stroke="none" d="M 276.933289 277.160278 L 276.933289 230.985504 L 323.146851 277.160278 Z"/>
            <path id="path22" fill="#000000" fill-opacity="0.07059" fill-rule="evenodd" stroke="none" d="M 230.739029 277.169983 L 230.739029 230.995209 L 276.952606 277.169983 Z"/>
            <path id="path23" fill="#000000" fill-opacity="0.07059" fill-rule="evenodd" stroke="none" d="M 230.739029 230.985504 L 230.739029 184.810745 L 276.952606 230.985504 Z"/>
            <path id="path24" fill="#000000" fill-opacity="0.07059" fill-rule="evenodd" stroke="none" d="M 276.933289 323.401367 L 276.933289 277.226563 L 323.146851 323.401367 Z"/>
            <path id="path25" fill="#000000" fill-opacity="0.07059" fill-rule="evenodd" stroke="none" d="M 276.933289 369.576141 L 276.933289 323.401367 L 323.146851 369.576141 Z"/>
            <path id="path26" fill="#000000" fill-opacity="0.07059" fill-rule="evenodd" stroke="none" d="M 230.739029 369.585815 L 230.739029 323.411011 L 276.952606 369.585815 Z"/>
            <path id="path27" fill="#000000" fill-opacity="0.07059" fill-rule="evenodd" stroke="none" d="M 230.739029 323.401367 L 230.739029 277.226563 L 276.952606 323.401367 Z"/>
            <path id="path28" fill="#000000" fill-opacity="0.07059" fill-rule="evenodd" stroke="none" d="M 369.350708 323.383575 L 369.350708 277.208801 L 415.564301 323.383575 Z"/>
            <path id="path29" fill="#000000" fill-opacity="0.07059" fill-rule="evenodd" stroke="none" d="M 369.350708 369.55835 L 369.350708 323.383575 L 415.564301 369.55835 Z"/>
            <path id="path30" fill="#000000" fill-opacity="0.07059" fill-rule="evenodd" stroke="none" d="M 323.156525 369.568054 L 323.156525 323.39328 L 369.370117 369.568054 Z"/>
            <path id="path31" fill="#000000" fill-opacity="0.07059" fill-rule="evenodd" stroke="none" d="M 323.156525 323.383575 L 323.156525 277.208801 L 369.370117 323.383575 Z"/>
            <path id="path32" fill="#000000" fill-opacity="0.07059" fill-rule="evenodd" stroke="none" d="M 461.768188 369.55835 L 461.768188 323.383575 L 507.98175 369.55835 Z"/>
            <path id="path33" fill="#000000" fill-opacity="0.07059" fill-rule="evenodd" stroke="none" d="M 415.574036 369.568054 L 415.574036 323.39328 L 461.787598 369.568054 Z"/>
            <path id="path34" fill="#000000" fill-opacity="0.07059" fill-rule="evenodd" stroke="none" d="M 415.574036 323.383575 L 415.574036 277.208801 L 461.787598 323.383575 Z"/>
            <path id="path35" fill="#000000" fill-opacity="0.07059" fill-rule="evenodd" stroke="none" d="M 184.515747 138.585846 L 184.515747 92.411041 L 230.729324 138.585846 Z"/>
            <path id="path36" fill="#000000" fill-opacity="0.07059" fill-rule="evenodd" stroke="none" d="M 184.515747 184.760605 L 184.515747 138.585846 L 230.729324 184.760605 Z"/>
            <path id="path37" fill="#000000" fill-opacity="0.07059" fill-rule="evenodd" stroke="none" d="M 138.321594 184.770309 L 138.321594 138.59552 L 184.535187 184.770309 Z"/>
            <path id="path38" fill="#000000" fill-opacity="0.07059" fill-rule="evenodd" stroke="none" d="M 138.321594 138.585846 L 138.321594 92.411041 L 184.535187 138.585846 Z"/>
            <path id="path39" fill="#000000" fill-opacity="0.07059" fill-rule="evenodd" stroke="none" d="M 184.506042 46.187744 L 184.506042 0.01297 L 230.71962 46.187744 Z"/>
            <path id="path40" fill="#000000" fill-opacity="0.07059" fill-rule="evenodd" stroke="none" d="M 184.506042 92.362549 L 184.506042 46.187744 L 230.71962 92.362549 Z"/>
            <path id="path41" fill="#000000" fill-opacity="0.07059" fill-rule="evenodd" stroke="none" d="M 138.311905 92.372223 L 138.311905 46.197449 L 184.525482 92.372223 Z"/>
            <path id="path42" fill="#000000" fill-opacity="0.07059" fill-rule="evenodd" stroke="none" d="M 138.311905 46.187744 L 138.311905 0.01297 L 184.525482 46.187744 Z"/>
            <path id="path43" fill="#000000" fill-opacity="0.07059" fill-rule="evenodd" stroke="none" d="M 92.088615 46.187744 L 92.088615 0.01297 L 138.3022 46.187744 Z"/>
            <path id="path44" fill="#000000" fill-opacity="0.07059" fill-rule="evenodd" stroke="none" d="M 92.088615 92.362549 L 92.088615 46.187744 L 138.3022 92.362549 Z"/>
            <path id="path45" fill="#000000" fill-opacity="0.07059" fill-rule="evenodd" stroke="none" d="M 45.894413 92.372223 L 45.894413 46.197449 L 92.107994 92.372223 Z"/>
            <path id="path46" fill="#000000" fill-opacity="0.07059" fill-rule="evenodd" stroke="none" d="M 45.894413 46.187744 L 45.894413 0.01297 L 92.107994 46.187744 Z"/>
            <path id="path47" fill="#000000" fill-opacity="0.07059" fill-rule="evenodd" stroke="none" d="M -0.328868 46.187744 L -0.328868 0.01297 L 45.884735 46.187744 Z"/>
            <path id="path48" fill="#000000" fill-opacity="0.07059" fill-rule="evenodd" stroke="none" d="M -0.328868 92.362549 L -0.328868 46.187744 L 45.884735 92.362549 Z"/>
            <path id="path49" fill="#000000" fill-opacity="0.07059" fill-rule="evenodd" stroke="none" d="M 92.093483 138.585846 L 92.093483 92.411041 L 138.307068 138.585846 Z"/>
            <path id="path50" fill="#000000" fill-opacity="0.07059" fill-rule="evenodd" stroke="none" d="M 92.093483 184.760605 L 92.093483 138.585846 L 138.307068 184.760605 Z"/>
            <path id="path51" fill="#000000" fill-opacity="0.07059" fill-rule="evenodd" stroke="none" d="M 45.899284 184.770309 L 45.899284 138.59552 L 92.112869 184.770309 Z"/>
            <path id="path52" fill="#000000" fill-opacity="0.07059" fill-rule="evenodd" stroke="none" d="M 45.899284 138.585846 L 45.899284 92.411041 L 92.112869 138.585846 Z"/>
            <path id="path53" fill="#000000" fill-opacity="0.07059" fill-rule="evenodd" stroke="none" d="M 184.517395 230.983887 L 184.517395 184.809082 L 230.730972 230.983887 Z"/>
            <path id="path54" fill="#000000" fill-opacity="0.07059" fill-rule="evenodd" stroke="none" d="M 184.517395 277.158661 L 184.517395 230.983887 L 230.730972 277.158661 Z"/>
            <path id="path55" fill="#000000" fill-opacity="0.07059" fill-rule="evenodd" stroke="none" d="M 138.323227 277.168365 L 138.323227 230.993576 L 184.536835 277.168365 Z"/>
            <path id="path56" fill="#000000" fill-opacity="0.07059" fill-rule="evenodd" stroke="none" d="M 138.323227 230.983887 L 138.323227 184.809082 L 184.536835 230.983887 Z"/>
            <path id="path57" fill="#000000" fill-opacity="0.07059" fill-rule="evenodd" stroke="none" d="M 22.791609 115.478226 L 22.791609 92.390839 L 45.917801 115.478226 Z"/>
            <path id="path58" fill="#000000" fill-opacity="0.07059" fill-rule="evenodd" stroke="none" d="M 22.791609 138.570465 L 22.791609 115.483078 L 45.917801 138.570465 Z"/>
            <path id="path59" fill="#000000" fill-opacity="0.07059" fill-rule="evenodd" stroke="none" d="M -0.310229 138.575333 L -0.310229 115.48793 L 22.815952 138.575333 Z"/>
            <path id="path60" fill="#000000" fill-opacity="0.07059" fill-rule="evenodd" stroke="none" d="M -0.310229 115.478226 L -0.310229 92.390839 L 22.815952 115.478226 Z"/>
            <path id="path61" fill="#000000" fill-opacity="0.07059" fill-rule="evenodd" stroke="none" d="M 22.778694 161.682068 L 22.778694 138.594681 L 45.904884 161.682068 Z"/>
            <path id="path62" fill="#000000" fill-opacity="0.07059" fill-rule="evenodd" stroke="none" d="M 22.778694 184.774307 L 22.778694 161.68692 L 45.904884 184.774307 Z"/>
            <path id="path63" fill="#000000" fill-opacity="0.07059" fill-rule="evenodd" stroke="none" d="M -0.3232 184.77916 L -0.3232 161.691772 L 22.802982 184.77916 Z"/>
            <path id="path64" fill="#000000" fill-opacity="0.07059" fill-rule="evenodd" stroke="none" d="M -0.3232 161.682068 L -0.3232 138.594681 L 22.802982 161.682068 Z"/>
            <path id="path65" fill="#000000" fill-opacity="0.07059" fill-rule="evenodd" stroke="none" d="M 115.193001 207.873062 L 115.193001 184.78566 L 138.319199 207.873062 Z"/>
            <path id="path66" fill="#000000" fill-opacity="0.07059" fill-rule="evenodd" stroke="none" d="M 115.193001 230.965302 L 115.193001 207.877899 L 138.319199 230.965302 Z"/>
            <path id="path67" fill="#000000" fill-opacity="0.07059" fill-rule="evenodd" stroke="none" d="M 92.091019 230.970154 L 92.091019 207.882751 L 115.217216 230.970154 Z"/>
            <path id="path68" fill="#000000" fill-opacity="0.07059" fill-rule="evenodd" stroke="none" d="M 92.091019 207.873062 L 92.091019 184.78566 L 115.217216 207.873062 Z"/>
            <path id="path69" fill="#000000" fill-opacity="0.07059" fill-rule="evenodd" stroke="none" d="M 68.985886 207.864975 L 68.985886 184.777588 L 92.112076 207.864975 Z"/>
            <path id="path70" fill="#000000" fill-opacity="0.07059" fill-rule="evenodd" stroke="none" d="M 68.985886 230.957214 L 68.985886 207.869827 L 92.112076 230.957214 Z"/>
            <path id="path71" fill="#000000" fill-opacity="0.07059" fill-rule="evenodd" stroke="none" d="M 45.883831 230.962067 L 45.883831 207.874664 L 69.010025 230.962067 Z"/>
            <path id="path72" fill="#000000" fill-opacity="0.07059" fill-rule="evenodd" stroke="none" d="M 45.883831 207.864975 L 45.883831 184.777588 L 69.010025 207.864975 Z"/>
            <path id="path73" fill="#000000" fill-opacity="0.07059" fill-rule="evenodd" stroke="none" d="M 115.180069 254.076935 L 115.180069 230.989548 L 138.306244 254.076935 Z"/>
            <path id="path74" fill="#000000" fill-opacity="0.07059" fill-rule="evenodd" stroke="none" d="M 115.180069 277.169189 L 115.180069 254.081787 L 138.306244 277.169189 Z"/>
            <path id="path75" fill="#000000" fill-opacity="0.07059" fill-rule="evenodd" stroke="none" d="M 92.07811 277.174011 L 92.07811 254.086639 L 115.2043 277.174011 Z"/>
            <path id="path76" fill="#000000" fill-opacity="0.07059" fill-rule="evenodd" stroke="none" d="M 92.07811 254.076935 L 92.07811 230.989548 L 115.2043 254.076935 Z"/>
            <path id="path77" fill="#000000" fill-opacity="0.07059" fill-rule="evenodd" stroke="none" d="M 68.972954 254.068848 L 68.972954 230.981461 L 92.099144 254.068848 Z"/>
            <path id="path78" fill="#000000" fill-opacity="0.07059" fill-rule="evenodd" stroke="none" d="M 68.972954 277.161102 L 68.972954 254.0737 L 92.099144 277.161102 Z"/>
            <path id="path79" fill="#000000" fill-opacity="0.07059" fill-rule="evenodd" stroke="none" d="M 45.870934 277.165955 L 45.870934 254.078552 L 68.997108 277.165955 Z"/>
            <path id="path80" fill="#000000" fill-opacity="0.07059" fill-rule="evenodd" stroke="none" d="M 45.870934 254.068848 L 45.870934 230.981461 L 68.997108 254.068848 Z"/>
            <path id="path81" fill="#000000" fill-opacity="0.07059" fill-rule="evenodd" stroke="none" d="M 22.783545 207.928024 L 22.783545 184.840637 L 45.909737 207.928024 Z"/>
            <path id="path82" fill="#000000" fill-opacity="0.07059" fill-rule="evenodd" stroke="none" d="M 22.783545 231.020264 L 22.783545 207.932877 L 45.909737 231.020264 Z"/>
            <path id="path83" fill="#000000" fill-opacity="0.07059" fill-rule="evenodd" stroke="none" d="M -0.31835 231.025116 L -0.31835 207.937729 L 22.807831 231.025116 Z"/>
            <path id="path84" fill="#000000" fill-opacity="0.07059" fill-rule="evenodd" stroke="none" d="M -0.31835 207.928024 L -0.31835 184.840637 L 22.807831 207.928024 Z"/>
            <path id="path85" fill="#000000" fill-opacity="0.07059" fill-rule="evenodd" stroke="none" d="M 22.77063 254.131897 L 22.77063 231.04451 L 45.89682 254.131897 Z"/>
            <path id="path86" fill="#000000" fill-opacity="0.07059" fill-rule="evenodd" stroke="none" d="M 22.77063 277.224152 L 22.77063 254.136749 L 45.89682 277.224152 Z"/>
            <path id="path87" fill="#000000" fill-opacity="0.07059" fill-rule="evenodd" stroke="none" d="M -0.331246 277.229004 L -0.331246 254.141602 L 22.794935 277.229004 Z"/>
            <path id="path88" fill="#000000" fill-opacity="0.07059" fill-rule="evenodd" stroke="none" d="M -0.331246 254.131897 L -0.331246 231.04451 L 22.794935 254.131897 Z"/>
            <path id="path89" fill="#000000" fill-opacity="0.07059" fill-rule="evenodd" stroke="none" d="M 22.91769 300.335785 L 22.91769 277.248413 L 46.04388 300.335785 Z"/>
            <path id="path90" fill="#000000" fill-opacity="0.07059" fill-rule="evenodd" stroke="none" d="M 22.91769 323.42804 L 22.91769 300.340637 L 46.04388 323.42804 Z"/>
            <path id="path91" fill="#000000" fill-opacity="0.07059" fill-rule="evenodd" stroke="none" d="M -0.184148 323.432892 L -0.184148 300.34549 L 22.942053 323.432892 Z"/>
            <path id="path92" fill="#000000" fill-opacity="0.07059" fill-rule="evenodd" stroke="none" d="M -0.184148 300.335785 L -0.184148 277.248413 L 22.942053 300.335785 Z"/>
            <path id="path93" fill="#000000" fill-opacity="0.07059" fill-rule="evenodd" stroke="none" d="M 22.904776 346.539673 L 22.904776 323.452301 L 46.030968 346.539673 Z"/>
            <path id="path94" fill="#000000" fill-opacity="0.07059" fill-rule="evenodd" stroke="none" d="M 22.904776 369.631927 L 22.904776 346.544525 L 46.030968 369.631927 Z"/>
            <path id="path95" fill="#000000" fill-opacity="0.07059" fill-rule="evenodd" stroke="none" d="M -0.197081 369.63678 L -0.197081 346.549377 L 22.9291 369.63678 Z"/>
            <path id="path96" fill="#000000" fill-opacity="0.07059" fill-rule="evenodd" stroke="none" d="M -0.197081 346.539673 L -0.197081 323.452301 L 22.9291 346.539673 Z"/>
            <path id="path97" fill="#000000" fill-opacity="0.07059" fill-rule="evenodd" stroke="none" d="M 115.275429 300.290527 L 115.275429 277.203125 L 138.401627 300.290527 Z"/>
            <path id="path98" fill="#000000" fill-opacity="0.07059" fill-rule="evenodd" stroke="none" d="M 115.275429 323.382782 L 115.275429 300.29538 L 138.401627 323.382782 Z"/>
            <path id="path99" fill="#000000" fill-opacity="0.07059" fill-rule="evenodd" stroke="none" d="M 92.173531 323.387604 L 92.173531 300.300171 L 115.299698 323.387604 Z"/>
            <path id="path100" fill="#000000" fill-opacity="0.07059" fill-rule="evenodd" stroke="none" d="M 92.173531 300.290527 L 92.173531 277.203125 L 115.299698 300.290527 Z"/>
            <path id="path101" fill="#000000" fill-opacity="0.07059" fill-rule="evenodd" stroke="none" d="M 69.068275 300.28244 L 69.068275 277.195038 L 92.194473 300.28244 Z"/>
            <path id="path102" fill="#000000" fill-opacity="0.07059" fill-rule="evenodd" stroke="none" d="M 69.068275 323.374664 L 69.068275 300.287262 L 92.194473 323.374664 Z"/>
            <path id="path103" fill="#000000" fill-opacity="0.07059" fill-rule="evenodd" stroke="none" d="M 45.966339 323.379547 L 45.966339 300.292145 L 69.092529 323.379547 Z"/>
            <path id="path104" fill="#000000" fill-opacity="0.07059" fill-rule="evenodd" stroke="none" d="M 45.966339 300.28244 L 45.966339 277.195038 L 69.092529 300.28244 Z"/>
            <path id="path105" fill="#000000" fill-opacity="0.07059" fill-rule="evenodd" stroke="none" d="M 115.26252 346.494354 L 115.26252 323.406982 L 138.388702 346.494354 Z"/>
            <path id="path106" fill="#000000" fill-opacity="0.07059" fill-rule="evenodd" stroke="none" d="M 115.26252 369.586639 L 115.26252 346.499176 L 138.388702 369.586639 Z"/>
            <path id="path107" fill="#000000" fill-opacity="0.07059" fill-rule="evenodd" stroke="none" d="M 92.160538 369.591522 L 92.160538 346.504059 L 115.286728 369.591522 Z"/>
            <path id="path108" fill="#000000" fill-opacity="0.07059" fill-rule="evenodd" stroke="none" d="M 92.160538 346.494354 L 92.160538 323.406982 L 115.286728 346.494354 Z"/>
            <path id="path109" fill="#000000" fill-opacity="0.07059" fill-rule="evenodd" stroke="none" d="M 69.055405 346.486298 L 69.055405 323.398926 L 92.181595 346.486298 Z"/>
            <path id="path110" fill="#000000" fill-opacity="0.07059" fill-rule="evenodd" stroke="none" d="M 69.055405 369.578583 L 69.055405 346.49118 L 92.181595 369.578583 Z"/>
            <path id="path111" fill="#000000" fill-opacity="0.07059" fill-rule="evenodd" stroke="none" d="M 45.953442 369.583405 L 45.953442 346.495972 L 69.079636 369.583405 Z"/>
            <path id="path112" fill="#000000" fill-opacity="0.07059" fill-rule="evenodd" stroke="none" d="M 45.953442 346.486298 L 45.953442 323.398926 L 69.079636 346.486298 Z"/>
            <path id="path113" fill="#000000" fill-opacity="0.07059" fill-rule="evenodd" stroke="none" d="M 207.66214 300.277588 L 207.66214 277.190186 L 230.788345 300.277588 Z"/>
            <path id="path114" fill="#000000" fill-opacity="0.07059" fill-rule="evenodd" stroke="none" d="M 207.66214 323.369812 L 207.66214 300.28244 L 230.788345 323.369812 Z"/>
            <path id="path115" fill="#000000" fill-opacity="0.07059" fill-rule="evenodd" stroke="none" d="M 184.560181 323.374664 L 184.560181 300.287262 L 207.686386 323.374664 Z"/>
            <path id="path116" fill="#000000" fill-opacity="0.07059" fill-rule="evenodd" stroke="none" d="M 184.560181 300.277588 L 184.560181 277.190186 L 207.686386 300.277588 Z"/>
            <path id="path117" fill="#000000" fill-opacity="0.07059" fill-rule="evenodd" stroke="none" d="M 161.455078 300.269501 L 161.455078 277.182129 L 184.581268 300.269501 Z"/>
            <path id="path118" fill="#000000" fill-opacity="0.07059" fill-rule="evenodd" stroke="none" d="M 161.455078 323.361725 L 161.455078 300.274353 L 184.581268 323.361725 Z"/>
            <path id="path119" fill="#000000" fill-opacity="0.07059" fill-rule="evenodd" stroke="none" d="M 138.353134 323.366608 L 138.353134 300.279175 L 161.47934 323.366608 Z"/>
            <path id="path120" fill="#000000" fill-opacity="0.07059" fill-rule="evenodd" stroke="none" d="M 138.353134 300.269501 L 138.353134 277.182129 L 161.47934 300.269501 Z"/>
            <path id="path121" fill="#000000" fill-opacity="0.07059" fill-rule="evenodd" stroke="none" d="M 207.649246 346.481445 L 207.649246 323.394073 L 230.775421 346.481445 Z"/>
            <path id="path122" fill="#000000" fill-opacity="0.07059" fill-rule="evenodd" stroke="none" d="M 207.649246 369.5737 L 207.649246 346.486298 L 230.775421 369.5737 Z"/>
            <path id="path123" fill="#000000" fill-opacity="0.07059" fill-rule="evenodd" stroke="none" d="M 184.547287 369.578583 L 184.547287 346.49118 L 207.673462 369.578583 Z"/>
            <path id="path124" fill="#000000" fill-opacity="0.07059" fill-rule="evenodd" stroke="none" d="M 184.547287 346.481445 L 184.547287 323.394073 L 207.673462 346.481445 Z"/>
            <path id="path125" fill="#000000" fill-opacity="0.07059" fill-rule="evenodd" stroke="none" d="M 161.442154 346.473389 L 161.442154 323.386017 L 184.568344 346.473389 Z"/>
            <path id="path126" fill="#000000" fill-opacity="0.07059" fill-rule="evenodd" stroke="none" d="M 161.442154 369.565613 L 161.442154 346.478241 L 184.568344 369.565613 Z"/>
            <path id="path127" fill="#000000" fill-opacity="0.07059" fill-rule="evenodd" stroke="none" d="M 138.340195 369.570496 L 138.340195 346.483093 L 161.466385 369.570496 Z"/>
            <path id="path128" fill="#000000" fill-opacity="0.07059" fill-rule="evenodd" stroke="none" d="M 138.340195 346.473389 L 138.340195 323.386017 L 161.466385 346.473389 Z"/>
        </g>
    </g>
    <g id="-">
        <path id="path129" fill="#333333" stroke="none" d="M 221.591248 50.145996 L 378.158752 50.145996 C 384.698517 50.145996 390 55.447479 390 61.987213 L 390 235.658752 C 390 242.198517 384.698517 247.5 378.158752 247.5 L 221.591248 247.5 C 215.051483 247.5 209.75 242.198517 209.75 235.658752 L 209.75 61.987213 C 209.75 55.447479 215.051483 50.145996 221.591248 50.145996 Z"/>
        <path id="path130" fill="none" stroke="#dddddd" stroke-width="2.631387" d="M 225.538315 58.697998 L 374.21167 58.697998 C 378.571533 58.697998 382.105835 62.2323 382.105835 66.592163 L 382.105835 231.053833 C 382.105835 235.413666 378.571533 238.947998 374.21167 238.947998 L 225.538315 238.947998 C 221.178482 238.947998 217.644165 235.413666 217.644165 231.053833 L 217.644165 66.592163 C 217.644165 62.2323 221.178482 58.697998 225.538315 58.697998 Z"/>
        <g id="g3">
            <path id="path131" fill="#dddddd" stroke="none" d="M 230.801102 77.117706 L 256.457123 77.117706 C 257.9104 77.117706 259.088501 78.295837 259.088501 79.749084 L 259.088501 105.405121 C 259.088501 106.858368 257.9104 108.036499 256.457123 108.036499 L 230.801102 108.036499 C 229.347809 108.036499 228.169708 106.858368 228.169708 105.405121 L 228.169708 79.749084 C 228.169708 78.295837 229.347809 77.117706 230.801102 77.117706 Z"/>
            <path id="path132" fill="#333333" stroke="none" d="M 232.116791 79.091248 L 255.141418 79.091248 C 256.231384 79.091248 257.11496 79.974823 257.11496 81.064789 L 257.11496 104.089417 C 257.11496 105.179382 256.231384 106.062958 255.141418 106.062958 L 232.116791 106.062958 C 231.026825 106.062958 230.14325 105.179382 230.14325 104.089417 L 230.14325 81.064789 C 230.14325 79.974823 231.026825 79.091248 232.116791 79.091248 Z"/>
            <path id="path133" fill="none" stroke="#dddddd" stroke-width="2.466925" d="M 244.464584 99.898926 L 244.464584 84.663177 C 244.465103 85.479797 244.07045 86.261627 243.371048 86.82962 C 242.6716 87.397522 241.72728 87.703064 240.754318 87.676178"/>
        </g>
        <g id="g4">
            <path id="path134" fill="#dddddd" stroke="none" d="M 268.29837 77.117706 L 293.954376 77.117706 C 295.407684 77.117706 296.585754 78.295837 296.585754 79.749084 L 296.585754 105.405121 C 296.585754 106.858368 295.407684 108.036499 293.954376 108.036499 L 268.29837 108.036499 C 266.845062 108.036499 265.666962 106.858368 265.666962 105.405121 L 265.666962 79.749084 C 265.666962 78.295837 266.845062 77.117706 268.29837 77.117706 Z"/>
            <path id="path135" fill="#333333" stroke="none" d="M 269.614044 79.091248 L 292.638672 79.091248 C 293.728638 79.091248 294.612213 79.974823 294.612213 81.064789 L 294.612213 104.089417 C 294.612213 105.179382 293.728638 106.062958 292.638672 106.062958 L 269.614044 106.062958 C 268.524078 106.062958 267.640503 105.179382 267.640503 104.089417 L 267.640503 81.064789 C 267.640503 79.974823 268.524078 79.091248 269.614044 79.091248 Z"/>
            <path id="path136" fill="none" stroke="#dddddd" stroke-width="2.466925" d="M 286.26416 98.958191 L 278.356812 98.958191 C 278.355499 98.048004 278.690521 97.169403 279.297546 96.491241 C 280.879669 95.028137 282.392181 93.491425 283.830109 91.886322 C 284.617798 91.157959 285.065674 90.133789 285.065674 89.060913 C 285.065674 87.988068 284.617798 86.963867 283.830109 86.235443 C 282.766205 85.251648 281.124573 85.251648 280.060669 86.235443 C 279.074036 87.147125 278.497559 88.418671 278.462097 89.761505"/>
        </g>
        <g id="g5">
            <path id="path137" fill="#dddddd" stroke="none" d="M 305.795624 77.117706 L 331.45163 77.117706 C 332.904907 77.117706 334.083038 78.295837 334.083038 79.749084 L 334.083038 105.405121 C 334.083038 106.858368 332.904907 108.036499 331.45163 108.036499 L 305.795624 108.036499 C 304.342316 108.036499 303.164246 106.858368 303.164246 105.405121 L 303.164246 79.749084 C 303.164246 78.295837 304.342316 77.117706 305.795624 77.117706 Z"/>
            <path id="path138" fill="#333333" stroke="none" d="M 307.111328 79.091248 L 330.135956 79.091248 C 331.225922 79.091248 332.109497 79.974823 332.109497 81.064789 L 332.109497 104.089417 C 332.109497 105.179382 331.225922 106.062958 330.135956 106.062958 L 307.111328 106.062958 C 306.021362 106.062958 305.137787 105.179382 305.137787 104.089417 L 305.137787 81.064789 C 305.137787 79.974823 306.021362 79.091248 307.111328 79.091248 Z"/>
            <path id="path139" fill="none" stroke="#dddddd" stroke-width="2.466925" d="M 316.288239 89.182587 C 316.287506 87.861847 316.887939 86.612549 317.919769 85.788147 C 318.822144 85.068146 320.10257 85.068146 321.005035 85.788147 C 322.169525 86.719604 322.619049 88.284882 322.126221 89.692261 C 321.633423 91.099762 320.305664 92.042664 318.814423 92.044189 C 320.097992 91.891632 321.344543 92.538391 321.958893 93.67572 C 322.63031 94.917389 322.63031 96.414001 321.958893 97.65567 C 321.427185 98.634888 320.402283 99.244537 319.288055 99.244537 C 318.173859 99.244537 317.148926 98.634888 316.617157 97.65567 C 316.177826 96.845703 315.947266 95.939087 315.946228 95.01767"/>
        </g>
        <g id="g6">
            <path id="path140" fill="#dddddd" stroke="none" d="M 343.292877 77.117706 L 368.948914 77.117706 C 370.402161 77.117706 371.580292 78.295837 371.580292 79.749084 L 371.580292 105.405121 C 371.580292 106.858368 370.402161 108.036499 368.948914 108.036499 L 343.292877 108.036499 C 341.83963 108.036499 340.661499 106.858368 340.661499 105.405121 L 340.661499 79.749084 C 340.661499 78.295837 341.83963 77.117706 343.292877 77.117706 Z"/>
            <path id="path141" fill="#d0d0d0" stroke="none" d="M 344.608582 79.091248 L 367.633209 79.091248 C 368.723175 79.091248 369.60675 79.974823 369.60675 81.064789 L 369.60675 104.089417 C 369.60675 105.179382 368.723175 106.062958 367.633209 106.062958 L 344.608582 106.062958 C 343.518616 106.062958 342.63504 105.179382 342.63504 104.089417 L 342.63504 81.064789 C 342.63504 79.974823 343.518616 79.091248 344.608582 79.091248 Z"/>
            <path id="path142" fill="none" stroke="#333333" stroke-width="2.466925" d="M 351.844879 100.208099 L 351.844879 99.879181 L 356.12088 84.913177 L 356.12088 84.584259 M 356.12088 84.913177 L 360.396912 99.879181 L 360.396912 100.208099 M 358.916748 94.379578 L 352.996124 94.379578"/>
        </g>
        <g id="g7">
            <path id="path143" fill="#dddddd" stroke="none" d="M 230.801102 114.61496 L 256.457123 114.61496 C 257.9104 114.61496 259.088501 115.793091 259.088501 117.246353 L 259.088501 142.902374 C 259.088501 144.355621 257.9104 145.533752 256.457123 145.533752 L 230.801102 145.533752 C 229.347809 145.533752 228.169708 144.355621 228.169708 142.902374 L 228.169708 117.246353 C 228.169708 115.793091 229.347809 114.61496 230.801102 114.61496 Z"/>
            <path id="path144" fill="#333333" stroke="none" d="M 232.116791 116.588501 L 255.141418 116.588501 C 256.231384 116.588501 257.11496 117.472076 257.11496 118.562042 L 257.11496 141.586685 C 257.11496 142.676636 256.231384 143.560226 255.141418 143.560226 L 232.116791 143.560226 C 231.026825 143.560226 230.14325 142.676636 230.14325 141.586685 L 230.14325 118.562042 C 230.14325 117.472076 231.026825 116.588501 232.116791 116.588501 Z"/>
            <path id="path145" fill="none" stroke="#dddddd" stroke-width="2.466925" d="M 238.853134 132.639984 L 248.661652 132.639984 M 245.675003 137.488312 L 245.675003 122.2789 M 239.885956 132.080826 L 245.477646 123.002502"/>
        </g>
        <g id="g8">
            <path id="path146" fill="#dddddd" stroke="none" d="M 268.29837 114.61496 L 293.954376 114.61496 C 295.407684 114.61496 296.585754 115.793091 296.585754 117.246353 L 296.585754 142.902374 C 296.585754 144.355621 295.407684 145.533752 293.954376 145.533752 L 268.29837 145.533752 C 266.845062 145.533752 265.666962 144.355621 265.666962 142.902374 L 265.666962 117.246353 C 265.666962 115.793091 266.845062 114.61496 268.29837 114.61496 Z"/>
            <path id="path147" fill="#333333" stroke="none" d="M 269.614044 116.588501 L 292.638672 116.588501 C 293.728638 116.588501 294.612213 117.472076 294.612213 118.562042 L 294.612213 141.586685 C 294.612213 142.676636 293.728638 143.560226 292.638672 143.560226 L 269.614044 143.560226 C 268.524078 143.560226 267.640503 142.676636 267.640503 141.586685 L 267.640503 118.562042 C 267.640503 117.472076 268.524078 116.588501 269.614044 116.588501 Z"/>
            <path id="path148" fill="none" stroke="#dddddd" stroke-width="2.466925" d="M 285.968109 123.443298 L 279.290985 123.443298 L 278.646271 130.153305 C 279.255829 129.188766 280.181183 128.465637 281.264526 128.107407 C 281.993683 127.866257 282.789185 127.928406 283.472107 128.279739 C 284.15506 128.631073 284.668091 129.242249 284.895813 129.975662 C 285.444305 131.737122 285.201904 133.649796 284.231384 135.218689 C 283.653168 136.098251 282.686157 136.644791 281.634369 136.686554 C 280.582642 136.728317 279.575317 136.260147 278.929138 135.429245 C 278.565094 134.646362 278.404449 133.784302 278.462097 132.922806"/>
        </g>
        <g id="g9">
            <path id="path149" fill="#dddddd" stroke="none" d="M 305.795624 114.61496 L 331.45163 114.61496 C 332.904907 114.61496 334.083038 115.793091 334.083038 117.246353 L 334.083038 142.902374 C 334.083038 144.355621 332.904907 145.533752 331.45163 145.533752 L 305.795624 145.533752 C 304.342316 145.533752 303.164246 144.355621 303.164246 142.902374 L 303.164246 117.246353 C 303.164246 115.793091 304.342316 114.61496 305.795624 114.61496 Z"/>
            <path id="path150" fill="#333333" stroke="none" d="M 307.111328 116.588501 L 330.135956 116.588501 C 331.225922 116.588501 332.109497 117.472076 332.109497 118.562042 L 332.109497 141.586685 C 332.109497 142.676636 331.225922 143.560226 330.135956 143.560226 L 307.111328 143.560226 C 306.021362 143.560226 305.137787 142.676636 305.137787 141.586685 L 305.137787 118.562042 C 305.137787 117.472076 306.021362 116.588501 307.111328 116.588501 Z"/>
            <path id="path151" fill="none" stroke="#dddddd" stroke-width="2.466925" d="M 322.425995 126.995605 C 322.426178 126.038712 322.022491 125.126129 321.314209 124.482666 C 320.70639 123.902954 319.854858 123.654739 319.030701 123.81694 C 318.206543 123.979156 317.512634 124.53157 317.16983 125.298386 C 315.728363 128.69635 315.671753 132.52298 317.011932 135.962051 C 317.431458 136.889877 318.355347 137.486053 319.373596 137.486053 C 320.391846 137.486053 321.315735 136.889877 321.735229 135.962051 C 322.597626 134.05983 322.597626 131.877975 321.735229 129.975662 C 321.2258 129.140274 320.302948 128.647293 319.325317 128.688324 C 318.347626 128.729279 317.46936 129.297821 317.031616 130.17305 C 316.310333 131.84288 316.237579 133.721756 316.827728 135.442413"/>
        </g>
        <g id="g10">
            <path id="path152" fill="#dddddd" stroke="none" d="M 343.292877 114.61496 L 368.948914 114.61496 C 370.402161 114.61496 371.580292 115.793091 371.580292 117.246353 L 371.580292 142.902374 C 371.580292 144.355621 370.402161 145.533752 368.948914 145.533752 L 343.292877 145.533752 C 341.83963 145.533752 340.661499 144.355621 340.661499 142.902374 L 340.661499 117.246353 C 340.661499 115.793091 341.83963 114.61496 343.292877 114.61496 Z"/>
            <path id="path153" fill="#d0d0d0" stroke="none" d="M 344.608582 116.588501 L 367.633209 116.588501 C 368.723175 116.588501 369.60675 117.472076 369.60675 118.562042 L 369.60675 141.586685 C 369.60675 142.676636 368.723175 143.560226 367.633209 143.560226 L 344.608582 143.560226 C 343.518616 143.560226 342.63504 142.676636 342.63504 141.586685 L 342.63504 118.562042 C 342.63504 117.472076 343.518616 116.588501 344.608582 116.588501 Z"/>
            <path id="path154" fill="none" stroke="#333333" stroke-width="2.466925" d="M 353.252686 123.272247 L 353.252686 136.422592 L 356.91687 136.422592 C 358.795258 136.422592 360.317963 134.899887 360.317963 133.0215 C 360.317963 131.143127 358.795258 129.620483 356.91687 129.620483 L 353.252686 129.620483 L 356.91687 129.620483 C 358.669891 129.620483 360.091034 128.199356 360.091034 126.44632 C 360.091034 124.693298 358.669891 123.272247 356.91687 123.272247 Z"/>
        </g>
        <g id="g11">
            <path id="path155" fill="#dddddd" stroke="none" d="M 230.801102 152.112228 L 256.457123 152.112228 C 257.9104 152.112228 259.088501 153.290359 259.088501 154.743607 L 259.088501 180.399628 C 259.088501 181.85289 257.9104 183.031021 256.457123 183.031021 L 230.801102 183.031021 C 229.347809 183.031021 228.169708 181.85289 228.169708 180.399628 L 228.169708 154.743607 C 228.169708 153.290359 229.347809 152.112228 230.801102 152.112228 Z"/>
            <path id="path156" fill="#333333" stroke="none" d="M 232.116791 154.08577 L 255.141418 154.08577 C 256.231384 154.08577 257.11496 154.969345 257.11496 156.059311 L 257.11496 179.083939 C 257.11496 180.173904 256.231384 181.05748 255.141418 181.05748 L 232.116791 181.05748 C 231.026825 181.05748 230.14325 180.173904 230.14325 179.083939 L 230.14325 156.059311 C 230.14325 154.969345 231.026825 154.08577 232.116791 154.08577 Z"/>
            <path id="path157" fill="none" stroke="#dddddd" stroke-width="2.466925" d="M 239.629379 160.769516 L 246.839401 160.769516 L 246.839401 161.85498 L 242.793625 174.354065 L 242.793625 174.748749"/>
        </g>
        <g id="g12">
            <path id="path158" fill="#dddddd" stroke="none" d="M 268.29837 152.112228 L 293.954376 152.112228 C 295.407684 152.112228 296.585754 153.290359 296.585754 154.743607 L 296.585754 180.399628 C 296.585754 181.85289 295.407684 183.031021 293.954376 183.031021 L 268.29837 183.031021 C 266.845062 183.031021 265.666962 181.85289 265.666962 180.399628 L 265.666962 154.743607 C 265.666962 153.290359 266.845062 152.112228 268.29837 152.112228 Z"/>
            <path id="path159" fill="#333333" stroke="none" d="M 269.614044 154.08577 L 292.638672 154.08577 C 293.728638 154.08577 294.612213 154.969345 294.612213 156.059311 L 294.612213 179.083939 C 294.612213 180.173904 293.728638 181.05748 292.638672 181.05748 L 269.614044 181.05748 C 268.524078 181.05748 267.640503 180.173904 267.640503 179.083939 L 267.640503 156.059311 C 267.640503 154.969345 268.524078 154.08577 269.614044 154.08577 Z"/>
            <path id="path160" fill="none" stroke="#dddddd" stroke-width="2.466925" d="M 277.797668 164.183701 C 277.797668 166.022079 279.287994 167.512436 281.126373 167.512436 C 282.964752 167.512436 284.455078 166.022079 284.455078 164.183701 C 284.455078 162.345306 282.964752 160.855042 281.126373 160.855042 C 279.287994 160.855042 277.797668 162.345306 277.797668 164.183701 M 277.639801 170.992401 C 277.639801 172.917999 279.200775 174.479019 281.126373 174.479019 C 283.051971 174.479019 284.612946 172.917999 284.612946 170.992401 C 284.612946 169.066879 283.051971 167.505859 281.126373 167.505859 C 279.200775 167.505859 277.639801 169.066879 277.639801 170.992401"/>
        </g>
        <g id="g13">
            <path id="path161" fill="#dddddd" stroke="none" d="M 305.795624 152.112228 L 331.45163 152.112228 C 332.904907 152.112228 334.083038 153.290359 334.083038 154.743607 L 334.083038 180.399628 C 334.083038 181.85289 332.904907 183.031021 331.45163 183.031021 L 305.795624 183.031021 C 304.342316 183.031021 303.164246 181.85289 303.164246 180.399628 L 303.164246 154.743607 C 303.164246 153.290359 304.342316 152.112228 305.795624 152.112228 Z"/>
            <path id="path162" fill="#333333" stroke="none" d="M 307.111328 154.08577 L 330.135956 154.08577 C 331.225922 154.08577 332.109497 154.969345 332.109497 156.059311 L 332.109497 179.083939 C 332.109497 180.173904 331.225922 181.05748 330.135956 181.05748 L 307.111328 181.05748 C 306.021362 181.05748 305.137787 180.173904 305.137787 179.083939 L 305.137787 156.059311 C 305.137787 154.969345 306.021362 154.08577 307.111328 154.08577 Z"/>
            <path id="path163" fill="none" stroke="#dddddd" stroke-width="2.466925" d="M 314.821259 170.650375 C 314.821106 171.607285 315.224823 172.519852 315.933075 173.163315 C 316.540894 173.743027 317.392426 173.991257 318.216583 173.829041 C 319.040741 173.666824 319.734619 173.11441 320.077454 172.347595 C 321.51889 168.949631 321.5755 165.123001 320.235321 161.683929 C 319.815826 160.756104 318.891937 160.159927 317.873688 160.159927 C 316.855438 160.159927 315.931549 160.756104 315.512024 161.683929 C 314.649658 163.586151 314.649658 165.768005 315.512024 167.670319 C 316.021484 168.505722 316.944336 168.998703 317.921936 168.957657 C 318.899628 168.916702 319.777924 168.34816 320.215637 167.472931 C 320.936951 165.803101 321.009705 163.92424 320.419525 162.203568"/>
        </g>
        <g id="g14">
            <path id="path164" fill="#dddddd" stroke="none" d="M 343.292877 152.112228 L 368.948914 152.112228 C 370.402161 152.112228 371.580292 153.290359 371.580292 154.743607 L 371.580292 180.399628 C 371.580292 181.85289 370.402161 183.031021 368.948914 183.031021 L 343.292877 183.031021 C 341.83963 183.031021 340.661499 181.85289 340.661499 180.399628 L 340.661499 154.743607 C 340.661499 153.290359 341.83963 152.112228 343.292877 152.112228 Z"/>
            <path id="path165" fill="#d0d0d0" stroke="none" d="M 344.608582 154.08577 L 367.633209 154.08577 C 368.723175 154.08577 369.60675 154.969345 369.60675 156.059311 L 369.60675 179.083939 C 369.60675 180.173904 368.723175 181.05748 367.633209 181.05748 L 344.608582 181.05748 C 343.518616 181.05748 342.63504 180.173904 342.63504 179.083939 L 342.63504 156.059311 C 342.63504 154.969345 343.518616 154.08577 344.608582 154.08577 Z"/>
            <path id="path166" fill="none" stroke="#333333" stroke-width="2.466925" d="M 360.587708 165.62442 C 360.589142 164.434082 360.251465 163.268082 359.614105 162.262833 C 359.059113 161.387451 358.094757 160.85704 357.05835 160.85704 C 356.021881 160.85704 355.057526 161.387451 354.502625 162.262833 C 352.325348 165.68457 352.325348 170.057343 354.502625 173.47908 C 355.031494 174.310059 355.948334 174.813232 356.933319 174.813232 C 357.918396 174.813232 358.835144 174.310059 359.364105 173.47908 C 360.200226 172.168686 360.626312 170.63858 360.587708 169.084702"/>
        </g>
        <g id="g15">
            <path id="path167" fill="#dddddd" stroke="none" d="M 230.801102 189.609482 L 256.457123 189.609482 C 257.9104 189.609482 259.088501 190.787628 259.088501 192.240875 L 259.088501 217.896896 C 259.088501 219.350159 257.9104 220.52829 256.457123 220.52829 L 230.801102 220.52829 C 229.347809 220.52829 228.169708 219.350159 228.169708 217.896896 L 228.169708 192.240875 C 228.169708 190.787628 229.347809 189.609482 230.801102 189.609482 Z"/>
            <path id="path168" fill="#d0d0d0" stroke="none" d="M 232.116791 191.583023 L 255.141418 191.583023 C 256.231384 191.583023 257.11496 192.466614 257.11496 193.556564 L 257.11496 216.581207 C 257.11496 217.671158 256.231384 218.554749 255.141418 218.554749 L 232.116791 218.554749 C 231.026825 218.554749 230.14325 217.671158 230.14325 216.581207 L 230.14325 193.556564 C 230.14325 192.466614 231.026825 191.583023 232.116791 191.583023 Z"/>
            <path id="path169" fill="none" stroke="#333333" stroke-width="1.480155" d="M 240.458282 200.549484 L 246.221024 209.877792 M 240.458282 209.877792 L 246.221024 200.549484 M 248.641891 205.213593 L 238.030823 205.213593"/>
        </g>
        <g id="g16">
            <path id="path170" fill="#dddddd" stroke="none" d="M 268.29837 189.609482 L 293.954376 189.609482 C 295.407684 189.609482 296.585754 190.787628 296.585754 192.240875 L 296.585754 217.896896 C 296.585754 219.350159 295.407684 220.52829 293.954376 220.52829 L 268.29837 220.52829 C 266.845062 220.52829 265.666962 219.350159 265.666962 217.896896 L 265.666962 192.240875 C 265.666962 190.787628 266.845062 189.609482 268.29837 189.609482 Z"/>
            <path id="path171" fill="#333333" stroke="none" d="M 269.614044 191.583023 L 292.638672 191.583023 C 293.728638 191.583023 294.612213 192.466614 294.612213 193.556564 L 294.612213 216.581207 C 294.612213 217.671158 293.728638 218.554749 292.638672 218.554749 L 269.614044 218.554749 C 268.524078 218.554749 267.640503 217.671158 267.640503 216.581207 L 267.640503 193.556564 C 267.640503 192.466614 268.524078 191.583023 269.614044 191.583023 Z"/>
            <path id="path172" fill="none" stroke="#dddddd" stroke-width="2.466925" d="M 277.455566 205.068893 C 277.455566 208.796494 279.09906 211.818405 281.126373 211.818405 C 283.153687 211.818405 284.79715 208.796494 284.79715 205.068893 C 284.79715 201.341278 283.153687 198.319366 281.126373 198.319366 C 279.09906 198.319366 277.455566 201.341278 277.455566 205.068893"/>
        </g>
        <g id="g17">
            <path id="path173" fill="#dddddd" stroke="none" d="M 305.795624 189.609482 L 331.45163 189.609482 C 332.904907 189.609482 334.083038 190.787628 334.083038 192.240875 L 334.083038 217.896896 C 334.083038 219.350159 332.904907 220.52829 331.45163 220.52829 L 305.795624 220.52829 C 304.342316 220.52829 303.164246 219.350159 303.164246 217.896896 L 303.164246 192.240875 C 303.164246 190.787628 304.342316 189.609482 305.795624 189.609482 Z"/>
            <path id="path174" fill="#d0d0d0" stroke="none" d="M 307.111328 191.583023 L 330.135956 191.583023 C 331.225922 191.583023 332.109497 192.466614 332.109497 193.556564 L 332.109497 216.581207 C 332.109497 217.671158 331.225922 218.554749 330.135956 218.554749 L 307.111328 218.554749 C 306.021362 218.554749 305.137787 217.671158 305.137787 216.581207 L 305.137787 193.556564 C 305.137787 192.466614 306.021362 191.583023 307.111328 191.583023 Z"/>
            <path id="path175" fill="none" stroke="#333333" stroke-width="1.480155" d="M 316.29483 210.8974 L 317.873688 199.773193 M 319.386749 210.8974 L 320.965607 199.773193 M 314.847595 203.338745 L 322.347076 203.338745 M 314.847595 207.167374 L 322.347076 207.167374"/>
        </g>
        <g id="g18">
            <path id="path176" fill="#dddddd" stroke="none" d="M 343.292877 189.609482 L 368.948914 189.609482 C 370.402161 189.609482 371.580292 190.787628 371.580292 192.240875 L 371.580292 217.896896 C 371.580292 219.350159 370.402161 220.52829 368.948914 220.52829 L 343.292877 220.52829 C 341.83963 220.52829 340.661499 219.350159 340.661499 217.896896 L 340.661499 192.240875 C 340.661499 190.787628 341.83963 189.609482 343.292877 189.609482 Z"/>
            <path id="path177" fill="#d0d0d0" stroke="none" d="M 344.608582 191.583023 L 367.633209 191.583023 C 368.723175 191.583023 369.60675 192.466614 369.60675 193.556564 L 369.60675 216.581207 C 369.60675 217.671158 368.723175 218.554749 367.633209 218.554749 L 344.608582 218.554749 C 343.518616 218.554749 342.63504 217.671158 342.63504 216.581207 L 342.63504 193.556564 C 342.63504 192.466614 343.518616 191.583023 344.608582 191.583023 Z"/>
            <path id="path178" fill="none" stroke="#333333" stroke-width="2.466925" d="M 353.06189 198.668045 L 353.06189 211.71312 L 356.08139 211.71312 C 357.72641 211.715454 359.179321 210.641708 359.660126 209.068573 C 360.426361 206.562454 360.426361 203.884491 359.660126 201.378372 C 359.172424 199.766846 357.686157 198.665558 356.002441 198.668045 Z"/>
        </g>
    </g>
    <path id="path179" fill="#000000" fill-opacity="0.596094" fill-rule="evenodd" stroke="none" d="M 390 274 C 390 267.372589 349.705627 262 300 262 C 250.294373 262 210 267.372589 210 274 C 210 280.627411 250.294373 286 300 286 C 349.705627 286 390 280.627411 390 274 Z"/>
</svg>
