<?xml version="1.0" encoding="UTF-8"?>
<!-- Generated by Pixelmator Pro 3.7.1 -->
<svg width="80" height="80" viewBox="0 0 80 80" xmlns="http://www.w3.org/2000/svg">
    <g id="g1">
        <path id="path1" fill="#333333" stroke="none" d="M 10.25 2.5 L 69.75 2.5 C 72.235291 2.5 74.25 4.514709 74.25 7 L 74.25 73 C 74.25 75.485291 72.235291 77.5 69.75 77.5 L 10.25 77.5 C 7.764709 77.5 5.75 75.485291 5.75 73 L 5.75 7 C 5.75 4.514709 7.764709 2.5 10.25 2.5 Z"/>
        <path id="path2" fill="none" stroke="#dddddd" d="M 11.75 5.75 L 68.25 5.75 C 69.90686 5.75 71.25 7.09314 71.25 8.75 L 71.25 71.25 C 71.25 72.90686 69.90686 74.25 68.25 74.25 L 11.75 74.25 C 10.09314 74.25 8.75 72.90686 8.75 71.25 L 8.75 8.75 C 8.75 7.09314 10.09314 5.75 11.75 5.75 Z"/>
        <g id="g2">
            <path id="path3" fill="#dddddd" stroke="none" d="M 13.75 12.75 L 23.5 12.75 C 24.052292 12.75 24.5 13.197723 24.5 13.75 L 24.5 23.5 C 24.5 24.052277 24.052292 24.5 23.5 24.5 L 13.75 24.5 C 13.197708 24.5 12.75 24.052277 12.75 23.5 L 12.75 13.75 C 12.75 13.197723 13.197708 12.75 13.75 12.75 Z"/>
            <path id="path4" fill="#333333" stroke="none" d="M 14.25 13.5 L 23 13.5 C 23.414215 13.5 23.75 13.835785 23.75 14.25 L 23.75 23 C 23.75 23.414215 23.414215 23.75 23 23.75 L 14.25 23.75 C 13.835785 23.75 13.5 23.414215 13.5 23 L 13.5 14.25 C 13.5 13.835785 13.835785 13.5 14.25 13.5 Z"/>
            <path id="path5" fill="none" stroke="#dddddd" stroke-width="0.9375" d="M 18.942505 21.407501 L 18.942505 15.617493 C 18.942703 15.927826 18.792725 16.224945 18.526932 16.440796 C 18.261124 16.656616 17.902252 16.772736 17.532501 16.762512"/>
        </g>
        <g id="g3">
            <path id="path6" fill="#dddddd" stroke="none" d="M 28 12.75 L 37.75 12.75 C 38.302292 12.75 38.75 13.197723 38.75 13.75 L 38.75 23.5 C 38.75 24.052277 38.302292 24.5 37.75 24.5 L 28 24.5 C 27.447708 24.5 27 24.052277 27 23.5 L 27 13.75 C 27 13.197723 27.447708 12.75 28 12.75 Z"/>
            <path id="path7" fill="#333333" stroke="none" d="M 28.5 13.5 L 37.25 13.5 C 37.664215 13.5 38 13.835785 38 14.25 L 38 23 C 38 23.414215 37.664215 23.75 37.25 23.75 L 28.5 23.75 C 28.085785 23.75 27.75 23.414215 27.75 23 L 27.75 14.25 C 27.75 13.835785 28.085785 13.5 28.5 13.5 Z"/>
            <path id="path8" fill="none" stroke="#dddddd" stroke-width="0.9375" d="M 34.827499 21.049988 L 31.822495 21.049988 C 31.821991 20.704102 31.94931 20.370209 32.179993 20.112488 C 32.78125 19.556458 33.356049 18.972473 33.902496 18.362488 C 34.201843 18.085693 34.37204 17.696472 34.37204 17.288757 C 34.37204 16.881042 34.201843 16.491821 33.902496 16.214996 C 33.498184 15.841125 32.874313 15.841125 32.470001 16.214996 C 32.095062 16.561462 31.875977 17.044678 31.862503 17.554993"/>
        </g>
        <g id="g4">
            <path id="path9" fill="#dddddd" stroke="none" d="M 42.25 12.75 L 52 12.75 C 52.552277 12.75 53 13.197723 53 13.75 L 53 23.5 C 53 24.052277 52.552277 24.5 52 24.5 L 42.25 24.5 C 41.697708 24.5 41.25 24.052277 41.25 23.5 L 41.25 13.75 C 41.25 13.197723 41.697708 12.75 42.25 12.75 Z"/>
            <path id="path10" fill="#333333" stroke="none" d="M 42.75 13.5 L 51.5 13.5 C 51.914215 13.5 52.25 13.835785 52.25 14.25 L 52.25 23 C 52.25 23.414215 51.914215 23.75 51.5 23.75 L 42.75 23.75 C 42.335785 23.75 42 23.414215 42 23 L 42 14.25 C 42 13.835785 42.335785 13.5 42.75 13.5 Z"/>
            <path id="path11" fill="none" stroke="#dddddd" stroke-width="0.9375" d="M 46.237488 17.334991 C 46.237213 16.833069 46.465393 16.358307 46.857513 16.045013 C 47.200439 15.771393 47.687042 15.771393 48.029999 16.045013 C 48.472534 16.398987 48.643372 16.993835 48.456085 17.528687 C 48.268799 18.063568 47.764221 18.421906 47.19751 18.422485 C 47.685303 18.364502 48.159027 18.610291 48.392487 19.042511 C 48.647644 19.514374 48.647644 20.08313 48.392487 20.554993 C 48.19043 20.927124 47.800934 21.158813 47.377502 21.158813 C 46.954071 21.158813 46.564575 20.927124 46.362488 20.554993 C 46.195526 20.247192 46.10791 19.902649 46.107513 19.55249"/>
        </g>
        <g id="g5">
            <path id="path12" fill="#dddddd" stroke="none" d="M 56.5 12.75 L 66.25 12.75 C 66.802277 12.75 67.25 13.197723 67.25 13.75 L 67.25 23.5 C 67.25 24.052277 66.802277 24.5 66.25 24.5 L 56.5 24.5 C 55.947723 24.5 55.5 24.052277 55.5 23.5 L 55.5 13.75 C 55.5 13.197723 55.947723 12.75 56.5 12.75 Z"/>
            <path id="path13" fill="#b2b2b2" stroke="none" d="M 57 13.5 L 65.75 13.5 C 66.164215 13.5 66.5 13.835785 66.5 14.25 L 66.5 23 C 66.5 23.414215 66.164215 23.75 65.75 23.75 L 57 23.75 C 56.585785 23.75 56.25 23.414215 56.25 23 L 56.25 14.25 C 56.25 13.835785 56.585785 13.5 57 13.5 Z"/>
            <path id="path14" fill="none" stroke="#333333" stroke-width="0.9375" d="M 59.75 21.524994 L 59.75 21.399994 L 61.375 15.712494 L 61.375 15.587494 M 61.375 15.712494 L 63 21.399994 L 63 21.524994 M 62.4375 19.309998 L 60.1875 19.309998"/>
        </g>
        <g id="g6">
            <path id="path15" fill="#dddddd" stroke="none" d="M 13.75 27 L 23.5 27 C 24.052292 27 24.5 27.447723 24.5 28 L 24.5 37.75 C 24.5 38.302277 24.052292 38.75 23.5 38.75 L 13.75 38.75 C 13.197708 38.75 12.75 38.302277 12.75 37.75 L 12.75 28 C 12.75 27.447723 13.197708 27 13.75 27 Z"/>
            <path id="path16" fill="#333333" stroke="none" d="M 14.25 27.75 L 23 27.75 C 23.414215 27.75 23.75 28.085785 23.75 28.5 L 23.75 37.25 C 23.75 37.664215 23.414215 38 23 38 L 14.25 38 C 13.835785 38 13.5 37.664215 13.5 37.25 L 13.5 28.5 C 13.5 28.085785 13.835785 27.75 14.25 27.75 Z"/>
            <path id="path17" fill="none" stroke="#dddddd" stroke-width="0.9375" d="M 16.809998 33.850006 L 20.537506 33.850006 M 19.402496 35.692505 L 19.402496 29.912506 M 17.202499 33.637512 L 19.327499 30.1875"/>
        </g>
        <g id="g7">
            <path id="path18" fill="#dddddd" stroke="none" d="M 28 27 L 37.75 27 C 38.302292 27 38.75 27.447723 38.75 28 L 38.75 37.75 C 38.75 38.302277 38.302292 38.75 37.75 38.75 L 28 38.75 C 27.447708 38.75 27 38.302277 27 37.75 L 27 28 C 27 27.447723 27.447708 27 28 27 Z"/>
            <path id="path19" fill="#333333" stroke="none" d="M 28.5 27.75 L 37.25 27.75 C 37.664215 27.75 38 28.085785 38 28.5 L 38 37.25 C 38 37.664215 37.664215 38 37.25 38 L 28.5 38 C 28.085785 38 27.75 37.664215 27.75 37.25 L 27.75 28.5 C 27.75 28.085785 28.085785 27.75 28.5 27.75 Z"/>
            <path id="path20" fill="none" stroke="#dddddd" stroke-width="0.9375" d="M 34.714996 30.355011 L 32.177505 30.355011 L 31.932495 32.904999 C 32.164139 32.538452 32.515808 32.263641 32.927505 32.127502 C 33.204605 32.035858 33.506912 32.059479 33.766449 32.192993 C 34.025986 32.326508 34.220947 32.558777 34.307495 32.837494 C 34.51593 33.506897 34.423813 34.233765 34.054993 34.829987 C 33.835251 35.164246 33.467758 35.371948 33.068054 35.387817 C 32.668365 35.403687 32.285553 35.225769 32.039993 34.910004 C 31.901642 34.612488 31.840591 34.284882 31.862503 33.957489"/>
        </g>
        <g id="g8">
            <path id="path21" fill="#dddddd" stroke="none" d="M 42.25 27 L 52 27 C 52.552277 27 53 27.447723 53 28 L 53 37.75 C 53 38.302277 52.552277 38.75 52 38.75 L 42.25 38.75 C 41.697708 38.75 41.25 38.302277 41.25 37.75 L 41.25 28 C 41.25 27.447723 41.697708 27 42.25 27 Z"/>
            <path id="path22" fill="#333333" stroke="none" d="M 42.75 27.75 L 51.5 27.75 C 51.914215 27.75 52.25 28.085785 52.25 28.5 L 52.25 37.25 C 52.25 37.664215 51.914215 38 51.5 38 L 42.75 38 C 42.335785 38 42 37.664215 42 37.25 L 42 28.5 C 42 28.085785 42.335785 27.75 42.75 27.75 Z"/>
            <path id="path23" fill="none" stroke="#dddddd" stroke-width="0.9375" d="M 48.570007 31.704987 C 48.570068 31.341339 48.416656 30.994537 48.147491 30.75 C 47.916504 30.529694 47.592896 30.435364 47.279694 30.497009 C 46.966492 30.558655 46.702789 30.768585 46.57251 31.059998 C 46.024719 32.351318 46.003204 33.805542 46.512512 35.112488 C 46.671936 35.465088 47.023041 35.69165 47.410004 35.69165 C 47.796967 35.69165 48.148071 35.465088 48.307495 35.112488 C 48.635223 34.389587 48.635223 33.560425 48.307495 32.837494 C 48.113892 32.52002 47.763184 32.332672 47.391663 32.348267 C 47.020111 32.363831 46.68634 32.579895 46.519989 32.912506 C 46.24588 33.547089 46.218231 34.261108 46.442505 34.915009"/>
        </g>
        <g id="g9">
            <path id="path24" fill="#dddddd" stroke="none" d="M 56.5 27 L 66.25 27 C 66.802277 27 67.25 27.447723 67.25 28 L 67.25 37.75 C 67.25 38.302277 66.802277 38.75 66.25 38.75 L 56.5 38.75 C 55.947723 38.75 55.5 38.302277 55.5 37.75 L 55.5 28 C 55.5 27.447723 55.947723 27 56.5 27 Z"/>
            <path id="path25" fill="#b2b2b2" stroke="none" d="M 57 27.75 L 65.75 27.75 C 66.164215 27.75 66.5 28.085785 66.5 28.5 L 66.5 37.25 C 66.5 37.664215 66.164215 38 65.75 38 L 57 38 C 56.585785 38 56.25 37.664215 56.25 37.25 L 56.25 28.5 C 56.25 28.085785 56.585785 27.75 57 27.75 Z"/>
            <path id="path26" fill="none" stroke="#333333" stroke-width="0.9375" d="M 60.285004 30.290009 L 60.285004 35.287506 L 61.67749 35.287506 C 62.391327 35.287506 62.970001 34.708832 62.970001 33.994995 C 62.970001 33.281158 62.391327 32.702515 61.67749 32.702515 L 60.285004 32.702515 L 61.67749 32.702515 C 62.343689 32.702515 62.883759 32.162445 62.883759 31.496246 C 62.883759 30.830048 62.343689 30.290009 61.67749 30.290009 Z"/>
        </g>
        <g id="g10">
            <path id="path27" fill="#dddddd" stroke="none" d="M 13.75 41.25 L 23.5 41.25 C 24.052292 41.25 24.5 41.697723 24.5 42.25 L 24.5 52 C 24.5 52.552277 24.052292 53 23.5 53 L 13.75 53 C 13.197708 53 12.75 52.552277 12.75 52 L 12.75 42.25 C 12.75 41.697723 13.197708 41.25 13.75 41.25 Z"/>
            <path id="path28" fill="#333333" stroke="none" d="M 14.25 42 L 23 42 C 23.414215 42 23.75 42.335785 23.75 42.75 L 23.75 51.5 C 23.75 51.914215 23.414215 52.25 23 52.25 L 14.25 52.25 C 13.835785 52.25 13.5 51.914215 13.5 51.5 L 13.5 42.75 C 13.5 42.335785 13.835785 42 14.25 42 Z"/>
            <path id="path29" fill="none" stroke="#dddddd" stroke-width="0.9375" d="M 17.104996 44.540009 L 19.845001 44.540009 L 19.845001 44.952515 L 18.307495 49.702515 L 18.307495 49.852509"/>
        </g>
        <g id="g11">
            <path id="path30" fill="#dddddd" stroke="none" d="M 28 41.25 L 37.75 41.25 C 38.302292 41.25 38.75 41.697723 38.75 42.25 L 38.75 52 C 38.75 52.552277 38.302292 53 37.75 53 L 28 53 C 27.447708 53 27 52.552277 27 52 L 27 42.25 C 27 41.697723 27.447708 41.25 28 41.25 Z"/>
            <path id="path31" fill="#333333" stroke="none" d="M 28.5 42 L 37.25 42 C 37.664215 42 38 42.335785 38 42.75 L 38 51.5 C 38 51.914215 37.664215 52.25 37.25 52.25 L 28.5 52.25 C 28.085785 52.25 27.75 51.914215 27.75 51.5 L 27.75 42.75 C 27.75 42.335785 28.085785 42 28.5 42 Z"/>
            <path id="path32" fill="none" stroke="#dddddd" stroke-width="0.9375" d="M 31.610001 45.837494 C 31.610001 46.536133 32.176361 47.102509 32.875 47.102509 C 33.573639 47.102509 34.139999 46.536133 34.139999 45.837494 C 34.139999 45.138855 33.573639 44.57251 32.875 44.57251 C 32.176361 44.57251 31.610001 45.138855 31.610001 45.837494 M 31.550003 48.424988 C 31.550003 49.156769 32.143219 49.75 32.875 49.75 C 33.606781 49.75 34.199997 49.156769 34.199997 48.424988 C 34.199997 47.693237 33.606781 47.100006 32.875 47.100006 C 32.143219 47.100006 31.550003 47.693237 31.550003 48.424988"/>
        </g>
        <g id="g12">
            <path id="path33" fill="#dddddd" stroke="none" d="M 42.25 41.25 L 52 41.25 C 52.552277 41.25 53 41.697723 53 42.25 L 53 52 C 53 52.552277 52.552277 53 52 53 L 42.25 53 C 41.697708 53 41.25 52.552277 41.25 52 L 41.25 42.25 C 41.25 41.697723 41.697708 41.25 42.25 41.25 Z"/>
            <path id="path34" fill="#333333" stroke="none" d="M 42.75 42 L 51.5 42 C 51.914215 42 52.25 42.335785 52.25 42.75 L 52.25 51.5 C 52.25 51.914215 51.914215 52.25 51.5 52.25 L 42.75 52.25 C 42.335785 52.25 42 51.914215 42 51.5 L 42 42.75 C 42 42.335785 42.335785 42 42.75 42 Z"/>
            <path id="path35" fill="none" stroke="#dddddd" stroke-width="0.9375" d="M 45.679993 48.295013 C 45.679932 48.658661 45.833359 49.005463 46.102509 49.25 C 46.333496 49.470306 46.657104 49.564636 46.970306 49.502991 C 47.283508 49.441345 47.547211 49.231415 47.67749 48.940002 C 48.225281 47.648682 48.246796 46.194458 47.737488 44.887512 C 47.578064 44.534912 47.226959 44.30835 46.839996 44.30835 C 46.453033 44.30835 46.101929 44.534912 45.942505 44.887512 C 45.614777 45.610413 45.614777 46.439575 45.942505 47.162506 C 46.136108 47.47998 46.486816 47.667328 46.858337 47.651733 C 47.229889 47.636169 47.56366 47.420105 47.730011 47.087494 C 48.00412 46.452911 48.031769 45.738892 47.807495 45.084991"/>
        </g>
        <g id="g13">
            <path id="path36" fill="#dddddd" stroke="none" d="M 56.5 41.25 L 66.25 41.25 C 66.802277 41.25 67.25 41.697723 67.25 42.25 L 67.25 52 C 67.25 52.552277 66.802277 53 66.25 53 L 56.5 53 C 55.947723 53 55.5 52.552277 55.5 52 L 55.5 42.25 C 55.5 41.697723 55.947723 41.25 56.5 41.25 Z"/>
            <path id="path37" fill="#b2b2b2" stroke="none" d="M 57 42 L 65.75 42 C 66.164215 42 66.5 42.335785 66.5 42.75 L 66.5 51.5 C 66.5 51.914215 66.164215 52.25 65.75 52.25 L 57 52.25 C 56.585785 52.25 56.25 51.914215 56.25 51.5 L 56.25 42.75 C 56.25 42.335785 56.585785 42 57 42 Z"/>
            <path id="path38" fill="none" stroke="#333333" stroke-width="0.9375" d="M 63.07251 46.38501 C 63.073059 45.932648 62.944733 45.489532 62.702515 45.107513 C 62.491608 44.774841 62.125122 44.573273 61.731262 44.573273 C 61.337372 44.573273 60.970886 44.774841 60.76001 45.107513 C 59.932587 46.407867 59.932587 48.069641 60.76001 49.369995 C 60.960999 49.685791 61.309418 49.877014 61.683746 49.877014 C 62.058105 49.877014 62.406494 49.685791 62.607513 49.369995 C 62.925262 48.872009 63.087189 48.290527 63.07251 47.700012"/>
        </g>
        <g id="g14">
            <path id="path39" fill="#dddddd" stroke="none" d="M 13.75 55.5 L 23.5 55.5 C 24.052292 55.5 24.5 55.947723 24.5 56.5 L 24.5 66.25 C 24.5 66.802277 24.052292 67.25 23.5 67.25 L 13.75 67.25 C 13.197708 67.25 12.75 66.802277 12.75 66.25 L 12.75 56.5 C 12.75 55.947723 13.197708 55.5 13.75 55.5 Z"/>
            <path id="path40" fill="#b2b2b2" stroke="none" d="M 14.25 56.25 L 23 56.25 C 23.414215 56.25 23.75 56.585785 23.75 57 L 23.75 65.75 C 23.75 66.164215 23.414215 66.5 23 66.5 L 14.25 66.5 C 13.835785 66.5 13.5 66.164215 13.5 65.75 L 13.5 57 C 13.5 56.585785 13.835785 56.25 14.25 56.25 Z"/>
            <path id="path41" fill="none" stroke="#333333" stroke-width="0.5625" d="M 17.419998 59.657501 L 19.610001 63.202515 M 17.419998 63.202515 L 19.610001 59.657501 M 20.529999 61.429993 L 16.497498 61.429993"/>
        </g>
        <g id="g15">
            <path id="path42" fill="#dddddd" stroke="none" d="M 28 55.5 L 37.75 55.5 C 38.302292 55.5 38.75 55.947723 38.75 56.5 L 38.75 66.25 C 38.75 66.802277 38.302292 67.25 37.75 67.25 L 28 67.25 C 27.447708 67.25 27 66.802277 27 66.25 L 27 56.5 C 27 55.947723 27.447708 55.5 28 55.5 Z"/>
            <path id="path43" fill="#333333" stroke="none" d="M 28.5 56.25 L 37.25 56.25 C 37.664215 56.25 38 56.585785 38 57 L 38 65.75 C 38 66.164215 37.664215 66.5 37.25 66.5 L 28.5 66.5 C 28.085785 66.5 27.75 66.164215 27.75 65.75 L 27.75 57 C 27.75 56.585785 28.085785 56.25 28.5 56.25 Z"/>
            <path id="path44" fill="none" stroke="#dddddd" stroke-width="0.9375" d="M 31.479996 61.375 C 31.479996 62.791595 32.104568 63.940002 32.875 63.940002 C 33.645432 63.940002 34.270004 62.791595 34.270004 61.375 C 34.270004 59.958405 33.645432 58.809998 32.875 58.809998 C 32.104568 58.809998 31.479996 59.958405 31.479996 61.375"/>
        </g>
        <g id="g16">
            <path id="path45" fill="#dddddd" stroke="none" d="M 42.25 55.5 L 52 55.5 C 52.552277 55.5 53 55.947723 53 56.5 L 53 66.25 C 53 66.802277 52.552277 67.25 52 67.25 L 42.25 67.25 C 41.697708 67.25 41.25 66.802277 41.25 66.25 L 41.25 56.5 C 41.25 55.947723 41.697708 55.5 42.25 55.5 Z"/>
            <path id="path46" fill="#b2b2b2" stroke="none" d="M 42.75 56.25 L 51.5 56.25 C 51.914215 56.25 52.25 56.585785 52.25 57 L 52.25 65.75 C 52.25 66.164215 51.914215 66.5 51.5 66.5 L 42.75 66.5 C 42.335785 66.5 42 66.164215 42 65.75 L 42 57 C 42 56.585785 42.335785 56.25 42.75 56.25 Z"/>
            <path id="path47" fill="none" stroke="#333333" stroke-width="0.5625" d="M 46.23999 63.589996 L 46.839996 59.362488 M 47.415009 63.589996 L 48.015015 59.362488 M 45.690002 60.717499 L 48.540009 60.717499 M 45.690002 62.172485 L 48.540009 62.172485"/>
        </g>
        <g id="g17">
            <path id="path48" fill="#dddddd" stroke="none" d="M 56.5 55.5 L 66.25 55.5 C 66.802277 55.5 67.25 55.947723 67.25 56.5 L 67.25 66.25 C 67.25 66.802277 66.802277 67.25 66.25 67.25 L 56.5 67.25 C 55.947723 67.25 55.5 66.802277 55.5 66.25 L 55.5 56.5 C 55.5 55.947723 55.947723 55.5 56.5 55.5 Z"/>
            <path id="path49" fill="#b2b2b2" stroke="none" d="M 57 56.25 L 65.75 56.25 C 66.164215 56.25 66.5 56.585785 66.5 57 L 66.5 65.75 C 66.5 66.164215 66.164215 66.5 65.75 66.5 L 57 66.5 C 56.585785 66.5 56.25 66.164215 56.25 65.75 L 56.25 57 C 56.25 56.585785 56.585785 56.25 57 56.25 Z"/>
            <path id="path50" fill="none" stroke="#333333" stroke-width="0.9375" d="M 60.212494 58.942505 L 60.212494 63.899994 L 61.359985 63.899994 C 61.985138 63.900879 62.537292 63.492828 62.720001 62.894989 C 63.0112 61.942596 63.0112 60.924896 62.720001 59.972504 C 62.534668 59.360077 61.969849 58.941559 61.329987 58.942505 Z"/>
        </g>
    </g>
</svg>
