<?xml version="1.0" encoding="UTF-8"?>
<!-- Generated by Pixelmator Pro 3.7.1 -->
<svg width="80" height="80" viewBox="0 0 80 80" xmlns="http://www.w3.org/2000/svg">
    <g id="-">
        <path id="path129" fill="#333333" fill-rule="evenodd" stroke="none" d="M 17.5975 8 L 62.331074 8 C 64.199577 8 65.714287 9.757591 65.714287 11.925705 L 65.714287 69.502853 C 65.714287 71.670975 64.199577 73.428574 62.331074 73.428574 L 17.5975 73.428574 C 15.728995 73.428574 14.214286 71.670975 14.214286 69.502853 L 14.214286 11.925705 C 14.214286 9.757591 15.728995 8 17.5975 8 Z M 18 9.428574 C 19.262365 9.428574 20.285715 10.45192 20.285715 11.714287 C 20.285715 12.976654 19.262365 14 18 14 C 16.737635 14 15.714286 12.976654 15.714286 11.714287 C 15.714286 10.45192 16.737635 9.428574 18 9.428574 Z M 64.285713 11.714287 C 64.285713 10.45192 63.262363 9.428574 62 9.428574 C 60.737637 9.428574 59.714287 10.45192 59.714287 11.714287 C 59.714287 12.976654 60.737637 14 62 14 C 63.262363 14 64.285713 12.976654 64.285713 11.714287 Z"/>
        <g id="g1">
            <g id="g3">
                <path id="path131" fill="#dddddd" stroke="none" d="M 17.621721 24.485142 L 25.917629 24.485142 C 26.387548 24.485142 26.768488 24.866093 26.768488 25.336002 L 26.768488 33.631916 C 26.768488 34.101826 26.387548 34.482773 25.917629 34.482773 L 17.621721 34.482773 C 17.151796 34.482773 16.770857 34.101826 16.770857 33.631916 L 16.770857 25.336002 C 16.770857 24.866093 17.151796 24.485142 17.621721 24.485142 Z"/>
                <path id="path132" fill="#333333" stroke="none" d="M 18.047152 25.123291 L 25.492195 25.123291 C 25.844637 25.123291 26.130342 25.408997 26.130342 25.761436 L 26.130342 33.206482 C 26.130342 33.558922 25.844637 33.844627 25.492195 33.844627 L 18.047152 33.844627 C 17.69471 33.844627 17.409004 33.558922 17.409004 33.206482 L 17.409004 25.761436 C 17.409004 25.408997 17.69471 25.123291 18.047152 25.123291 Z"/>
                <path id="path133" fill="none" stroke="#dddddd" stroke-width="0.797683" d="M 22.039825 31.851479 L 22.039825 26.92498 C 22.039993 27.189037 21.912382 27.441841 21.68623 27.625504 C 21.460062 27.809135 21.154715 27.907932 20.840107 27.899239"/>
            </g>
            <g id="g4">
                <path id="path134" fill="#dddddd" stroke="none" d="M 29.746511 24.485142 L 38.042416 24.485142 C 38.512344 24.485142 38.893276 24.866093 38.893276 25.336002 L 38.893276 33.631916 C 38.893276 34.101826 38.512344 34.482773 38.042416 34.482773 L 29.746511 34.482773 C 29.276583 34.482773 28.895643 34.101826 28.895643 33.631916 L 28.895643 25.336002 C 28.895643 24.866093 29.276583 24.485142 29.746511 24.485142 Z"/>
                <path id="path135" fill="#333333" stroke="none" d="M 30.171938 25.123291 L 37.616982 25.123291 C 37.969421 25.123291 38.255127 25.408997 38.255127 25.761436 L 38.255127 33.206482 C 38.255127 33.558922 37.969421 33.844627 37.616982 33.844627 L 30.171938 33.844627 C 29.819494 33.844627 29.533791 33.558922 29.533791 33.206482 L 29.533791 25.761436 C 29.533791 25.408997 29.819494 25.123291 30.171938 25.123291 Z"/>
                <path id="path136" fill="none" stroke="#dddddd" stroke-width="0.797683" d="M 35.555775 31.547291 L 32.998924 31.547291 C 32.998497 31.252983 33.106827 30.968884 33.303112 30.749599 C 33.814693 30.276505 34.303764 29.779606 34.768719 29.260593 C 35.023422 29.025078 35.168243 28.693909 35.168243 28.346992 C 35.168243 28.000088 35.023422 27.668911 34.768719 27.433376 C 34.424706 27.115265 33.893883 27.115265 33.549866 27.433376 C 33.230839 27.728168 33.044434 28.139324 33.032967 28.573532"/>
            </g>
            <g id="g5">
                <path id="path137" fill="#dddddd" stroke="none" d="M 41.8713 24.485142 L 50.167202 24.485142 C 50.637119 24.485142 51.01807 24.866093 51.01807 25.336002 L 51.01807 33.631916 C 51.01807 34.101826 50.637119 34.482773 50.167202 34.482773 L 41.8713 34.482773 C 41.401371 34.482773 41.020439 34.101826 41.020439 33.631916 L 41.020439 25.336002 C 41.020439 24.866093 41.401371 24.485142 41.8713 24.485142 Z"/>
                <path id="path138" fill="#333333" stroke="none" d="M 42.296734 25.123291 L 49.741776 25.123291 C 50.094219 25.123291 50.379925 25.408997 50.379925 25.761436 L 50.379925 33.206482 C 50.379925 33.558922 50.094219 33.844627 49.741776 33.844627 L 42.296734 33.844627 C 41.94429 33.844627 41.658585 33.558922 41.658585 33.206482 L 41.658585 25.761436 C 41.658585 25.408997 41.94429 25.123291 42.296734 25.123291 Z"/>
                <path id="path139" fill="none" stroke="#dddddd" stroke-width="0.797683" d="M 45.264099 28.386337 C 45.263863 27.959274 45.458012 27.555313 45.791656 27.288742 C 46.083439 27.055927 46.497467 27.055927 46.78928 27.288742 C 47.165821 27.589928 47.311176 28.096062 47.151817 28.55114 C 46.99247 29.00626 46.563137 29.311146 46.080944 29.311642 C 46.495987 29.26231 46.899063 29.471439 47.097713 29.839199 C 47.314816 30.240692 47.314816 30.724625 47.097713 31.126122 C 46.925785 31.442753 46.594379 31.639881 46.234093 31.639881 C 45.873817 31.639881 45.542404 31.442753 45.370457 31.126122 C 45.228397 30.864216 45.153847 30.57106 45.153511 30.273117"/>
            </g>
            <g id="g6">
                <path id="path140" fill="#dddddd" stroke="none" d="M 53.996086 24.485142 L 62.291996 24.485142 C 62.761906 24.485142 63.142857 24.866093 63.142857 25.336002 L 63.142857 33.631916 C 63.142857 34.101826 62.761906 34.482773 62.291996 34.482773 L 53.996086 34.482773 C 53.526176 34.482773 53.145226 34.101826 53.145226 33.631916 L 53.145226 25.336002 C 53.145226 24.866093 53.526176 24.485142 53.996086 24.485142 Z"/>
                <path id="path141" fill="#d0d0d0" stroke="none" d="M 54.42152 25.123291 L 61.866562 25.123291 C 62.219006 25.123291 62.504711 25.408997 62.504711 25.761436 L 62.504711 33.206482 C 62.504711 33.558922 62.219006 33.844627 61.866562 33.844627 L 54.42152 33.844627 C 54.069077 33.844627 53.783371 33.558922 53.783371 33.206482 L 53.783371 25.761436 C 53.783371 25.408997 54.069077 25.123291 54.42152 25.123291 Z"/>
                <path id="path142" fill="none" stroke="#333333" stroke-width="0.797683" d="M 56.761387 31.95145 L 56.761387 31.845097 L 58.144035 27.005817 L 58.144035 26.899464 M 58.144035 27.005817 L 59.526695 31.845097 L 59.526695 31.95145 M 59.048084 30.066792 L 57.13364 30.066792"/>
            </g>
            <g id="g7">
                <path id="path143" fill="#dddddd" stroke="none" d="M 17.621721 36.609928 L 25.917629 36.609928 C 26.387548 36.609928 26.768488 36.990879 26.768488 37.460793 L 26.768488 45.756702 C 26.768488 46.226612 26.387548 46.607559 25.917629 46.607559 L 17.621721 46.607559 C 17.151796 46.607559 16.770857 46.226612 16.770857 45.756702 L 16.770857 37.460793 C 16.770857 36.990879 17.151796 36.609928 17.621721 36.609928 Z"/>
                <path id="path144" fill="#333333" stroke="none" d="M 18.047152 37.248077 L 25.492195 37.248077 C 25.844637 37.248077 26.130342 37.533779 26.130342 37.886223 L 26.130342 45.331272 C 26.130342 45.683708 25.844637 45.969418 25.492195 45.969418 L 18.047152 45.969418 C 17.69471 45.969418 17.409004 45.683708 17.409004 45.331272 L 17.409004 37.886223 C 17.409004 37.533779 17.69471 37.248077 18.047152 37.248077 Z"/>
                <path id="path145" fill="none" stroke="#dddddd" stroke-width="0.797683" d="M 20.225357 42.438343 L 23.396954 42.438343 M 22.431217 44.006058 L 22.431217 39.088074 M 20.55932 42.257538 L 22.367401 39.322052"/>
            </g>
            <g id="g8">
                <path id="path146" fill="#dddddd" stroke="none" d="M 29.746511 36.609928 L 38.042416 36.609928 C 38.512344 36.609928 38.893276 36.990879 38.893276 37.460793 L 38.893276 45.756702 C 38.893276 46.226612 38.512344 46.607559 38.042416 46.607559 L 29.746511 46.607559 C 29.276583 46.607559 28.895643 46.226612 28.895643 45.756702 L 28.895643 37.460793 C 28.895643 36.990879 29.276583 36.609928 29.746511 36.609928 Z"/>
                <path id="path147" fill="#333333" stroke="none" d="M 30.171938 37.248077 L 37.616982 37.248077 C 37.969421 37.248077 38.255127 37.533779 38.255127 37.886223 L 38.255127 45.331272 C 38.255127 45.683708 37.969421 45.969418 37.616982 45.969418 L 30.171938 45.969418 C 29.819494 45.969418 29.533791 45.683708 29.533791 45.331272 L 29.533791 37.886223 C 29.533791 37.533779 29.819494 37.248077 30.171938 37.248077 Z"/>
                <path id="path148" fill="none" stroke="#dddddd" stroke-width="0.797683" d="M 35.460045 39.464584 L 33.300987 39.464584 L 33.092518 41.634274 C 33.289619 41.322388 33.588837 41.088562 33.939137 40.972729 C 34.174908 40.894753 34.432137 40.914848 34.652962 41.028454 C 34.873795 41.142056 35.039684 41.33968 35.113316 41.576832 C 35.290672 42.1464 35.212292 42.764866 34.898472 43.272171 C 34.711506 43.55658 34.398823 43.733303 34.058723 43.746807 C 33.718647 43.760311 33.392929 43.608929 33.183987 43.340256 C 33.066269 43.087109 33.014328 42.808361 33.032967 42.529793"/>
            </g>
            <g id="g9">
                <path id="path149" fill="#dddddd" stroke="none" d="M 41.8713 36.609928 L 50.167202 36.609928 C 50.637119 36.609928 51.01807 36.990879 51.01807 37.460793 L 51.01807 45.756702 C 51.01807 46.226612 50.637119 46.607559 50.167202 46.607559 L 41.8713 46.607559 C 41.401371 46.607559 41.020439 46.226612 41.020439 45.756702 L 41.020439 37.460793 C 41.020439 36.990879 41.401371 36.609928 41.8713 36.609928 Z"/>
                <path id="path150" fill="#333333" stroke="none" d="M 42.296734 37.248077 L 49.741776 37.248077 C 50.094219 37.248077 50.379925 37.533779 50.379925 37.886223 L 50.379925 45.331272 C 50.379925 45.683708 50.094219 45.969418 49.741776 45.969418 L 42.296734 45.969418 C 41.94429 45.969418 41.658585 45.683708 41.658585 45.331272 L 41.658585 37.886223 C 41.658585 37.533779 41.94429 37.248077 42.296734 37.248077 Z"/>
                <path id="path151" fill="none" stroke="#dddddd" stroke-width="0.797683" d="M 47.248749 40.613228 C 47.24881 40.303814 47.118279 40.008728 46.889252 39.800663 C 46.692715 39.613213 46.41737 39.532951 46.150879 39.5854 C 45.884384 39.637856 45.660007 39.816479 45.549164 40.064426 C 45.083061 41.163166 45.064758 42.400509 45.498108 43.512539 C 45.633762 43.812553 45.932503 44.005325 46.261753 44.005325 C 46.591007 44.005325 46.889748 43.812553 47.025391 43.512539 C 47.304249 42.897453 47.304249 42.191948 47.025391 41.576832 C 46.860664 41.306709 46.56226 41.147301 46.246143 41.160568 C 45.930004 41.173813 45.646015 41.357651 45.504471 41.640656 C 45.271244 42.180599 45.247719 42.788136 45.438545 43.344513"/>
            </g>
            <g id="g10">
                <path id="path152" fill="#dddddd" stroke="none" d="M 53.996086 36.609928 L 62.291996 36.609928 C 62.761906 36.609928 63.142857 36.990879 63.142857 37.460793 L 63.142857 45.756702 C 63.142857 46.226612 62.761906 46.607559 62.291996 46.607559 L 53.996086 46.607559 C 53.526176 46.607559 53.145226 46.226612 53.145226 45.756702 L 53.145226 37.460793 C 53.145226 36.990879 53.526176 36.609928 53.996086 36.609928 Z"/>
                <path id="path153" fill="#d0d0d0" stroke="none" d="M 54.42152 37.248077 L 61.866562 37.248077 C 62.219006 37.248077 62.504711 37.533779 62.504711 37.886223 L 62.504711 45.331272 C 62.504711 45.683708 62.219006 45.969418 61.866562 45.969418 L 54.42152 45.969418 C 54.069077 45.969418 53.783371 45.683708 53.783371 45.331272 L 53.783371 37.886223 C 53.783371 37.533779 54.069077 37.248077 54.42152 37.248077 Z"/>
                <path id="path154" fill="none" stroke="#333333" stroke-width="0.797683" d="M 57.216602 39.409275 L 57.216602 43.661453 L 58.401421 43.661453 C 59.008801 43.661453 59.501167 43.169086 59.501167 42.561707 C 59.501167 41.954334 59.008801 41.461983 58.401421 41.461983 L 57.216602 41.461983 L 58.401421 41.461983 C 58.968262 41.461983 59.427792 41.00246 59.427792 40.435616 C 59.427792 39.868771 58.968262 39.409275 58.401421 39.409275 Z"/>
            </g>
            <g id="g11">
                <path id="path155" fill="#dddddd" stroke="none" d="M 17.621721 48.734718 L 25.917629 48.734718 C 26.387548 48.734718 26.768488 49.115669 26.768488 49.585579 L 26.768488 57.881485 C 26.768488 58.351402 26.387548 58.732353 25.917629 58.732353 L 17.621721 58.732353 C 17.151796 58.732353 16.770857 58.351402 16.770857 57.881485 L 16.770857 49.585579 C 16.770857 49.115669 17.151796 48.734718 17.621721 48.734718 Z"/>
                <path id="path156" fill="#333333" stroke="none" d="M 18.047152 49.372868 L 25.492195 49.372868 C 25.844637 49.372868 26.130342 49.658569 26.130342 50.011013 L 26.130342 57.456055 C 26.130342 57.808498 25.844637 58.094204 25.492195 58.094204 L 18.047152 58.094204 C 17.69471 58.094204 17.409004 57.808498 17.409004 57.456055 L 17.409004 50.011013 C 17.409004 49.658569 17.69471 49.372868 18.047152 49.372868 Z"/>
                <path id="path157" fill="none" stroke="#dddddd" stroke-width="0.797683" d="M 20.476357 51.534065 L 22.807726 51.534065 L 22.807726 51.885052 L 21.499519 55.926647 L 21.499519 56.054268"/>
            </g>
            <g id="g12">
                <path id="path158" fill="#dddddd" stroke="none" d="M 29.746511 48.734718 L 38.042416 48.734718 C 38.512344 48.734718 38.893276 49.115669 38.893276 49.585579 L 38.893276 57.881485 C 38.893276 58.351402 38.512344 58.732353 38.042416 58.732353 L 29.746511 58.732353 C 29.276583 58.732353 28.895643 58.351402 28.895643 57.881485 L 28.895643 49.585579 C 28.895643 49.115669 29.276583 48.734718 29.746511 48.734718 Z"/>
                <path id="path159" fill="#333333" stroke="none" d="M 30.171938 49.372868 L 37.616982 49.372868 C 37.969421 49.372868 38.255127 49.658569 38.255127 50.011013 L 38.255127 57.456055 C 38.255127 57.808498 37.969421 58.094204 37.616982 58.094204 L 30.171938 58.094204 C 29.819494 58.094204 29.533791 57.808498 29.533791 57.456055 L 29.533791 50.011013 C 29.533791 49.658569 29.819494 49.372868 30.171938 49.372868 Z"/>
                <path id="path160" fill="none" stroke="#dddddd" stroke-width="0.797683" d="M 32.818123 52.638046 C 32.818123 53.232491 33.300022 53.714397 33.894463 53.714397 C 34.488907 53.714397 34.970806 53.232491 34.970806 52.638046 C 34.970806 52.043598 34.488907 51.561722 33.894463 51.561722 C 33.300022 51.561722 32.818123 52.043598 32.818123 52.638046 M 32.767075 54.839645 C 32.767075 55.462296 33.27182 55.967049 33.894463 55.967049 C 34.517109 55.967049 35.021851 55.462296 35.021851 54.839645 C 35.021851 54.217026 34.517109 53.712273 33.894463 53.712273 C 33.27182 53.712273 32.767075 54.217026 32.767075 54.839645"/>
            </g>
            <g id="g13">
                <path id="path161" fill="#dddddd" stroke="none" d="M 41.8713 48.734718 L 50.167202 48.734718 C 50.637119 48.734718 51.01807 49.115669 51.01807 49.585579 L 51.01807 57.881485 C 51.01807 58.351402 50.637119 58.732353 50.167202 58.732353 L 41.8713 58.732353 C 41.401371 58.732353 41.020439 58.351402 41.020439 57.881485 L 41.020439 49.585579 C 41.020439 49.115669 41.401371 48.734718 41.8713 48.734718 Z"/>
                <path id="path162" fill="#333333" stroke="none" d="M 42.296734 49.372868 L 49.741776 49.372868 C 50.094219 49.372868 50.379925 49.658569 50.379925 50.011013 L 50.379925 57.456055 C 50.379925 57.808498 50.094219 58.094204 49.741776 58.094204 L 42.296734 58.094204 C 41.94429 58.094204 41.658585 57.808498 41.658585 57.456055 L 41.658585 50.011013 C 41.658585 49.658569 41.94429 49.372868 42.296734 49.372868 Z"/>
                <path id="path163" fill="none" stroke="#dddddd" stroke-width="0.797683" d="M 44.789749 54.729053 C 44.7897 55.038471 44.920242 55.333549 45.149258 55.541618 C 45.345795 55.729065 45.62114 55.809334 45.88763 55.756882 C 46.154125 55.704426 46.37849 55.525803 46.489346 55.277851 C 46.955437 54.179115 46.973743 52.941772 46.540394 51.829742 C 46.404751 51.529728 46.106007 51.336952 45.776756 51.336952 C 45.447502 51.336952 45.148762 51.529728 45.013107 51.829742 C 44.734261 52.444828 44.734261 53.150333 45.013107 53.76545 C 45.177845 54.035576 45.47625 54.194984 45.792358 54.181709 C 46.108494 54.168468 46.392494 53.984627 46.534027 53.701622 C 46.767265 53.161682 46.790791 52.55415 46.599957 51.997765"/>
            </g>
            <g id="g14">
                <path id="path164" fill="#dddddd" stroke="none" d="M 53.996086 48.734718 L 62.291996 48.734718 C 62.761906 48.734718 63.142857 49.115669 63.142857 49.585579 L 63.142857 57.881485 C 63.142857 58.351402 62.761906 58.732353 62.291996 58.732353 L 53.996086 58.732353 C 53.526176 58.732353 53.145226 58.351402 53.145226 57.881485 L 53.145226 49.585579 C 53.145226 49.115669 53.526176 48.734718 53.996086 48.734718 Z"/>
                <path id="path165" fill="#d0d0d0" stroke="none" d="M 54.42152 49.372868 L 61.866562 49.372868 C 62.219006 49.372868 62.504711 49.658569 62.504711 50.011013 L 62.504711 57.456055 C 62.504711 57.808498 62.219006 58.094204 61.866562 58.094204 L 54.42152 58.094204 C 54.069077 58.094204 53.783371 57.808498 53.783371 57.456055 L 53.783371 50.011013 C 53.783371 49.658569 54.069077 49.372868 54.42152 49.372868 Z"/>
                <path id="path166" fill="none" stroke="#333333" stroke-width="0.797683" d="M 59.58839 53.103905 C 59.588856 52.719009 59.479668 52.34198 59.273575 52.01693 C 59.094116 51.733875 58.782291 51.562366 58.447166 51.562366 C 58.112026 51.562366 57.800198 51.733875 57.62077 52.01693 C 56.916744 53.123352 56.916744 54.537296 57.62077 55.643719 C 57.791782 55.912415 58.088242 56.075119 58.406738 56.075119 C 58.725266 56.075119 59.021698 55.912415 59.192738 55.643719 C 59.463097 55.220001 59.600872 54.725243 59.58839 54.222794"/>
            </g>
            <g id="g15">
                <path id="path167" fill="#dddddd" stroke="none" d="M 17.621721 60.859505 L 25.917629 60.859505 C 26.387548 60.859505 26.768488 61.240463 26.768488 61.710373 L 26.768488 70.006279 C 26.768488 70.476196 26.387548 70.85714 25.917629 70.85714 L 17.621721 70.85714 C 17.151796 70.85714 16.770857 70.476196 16.770857 70.006279 L 16.770857 61.710373 C 16.770857 61.240463 17.151796 60.859505 17.621721 60.859505 Z"/>
                <path id="path168" fill="#d0d0d0" stroke="none" d="M 18.047152 61.49765 L 25.492195 61.49765 C 25.844637 61.49765 26.130342 61.783363 26.130342 62.135799 L 26.130342 69.580849 C 26.130342 69.933289 25.844637 70.218994 25.492195 70.218994 L 18.047152 70.218994 C 17.69471 70.218994 17.409004 69.933289 17.409004 69.580849 L 17.409004 62.135799 C 17.409004 61.783363 17.69471 61.49765 18.047152 61.49765 Z"/>
                <path id="path169" fill="none" stroke="#333333" stroke-width="0.47861" d="M 20.744383 64.396973 L 22.607773 67.413292 M 20.744383 67.413292 L 22.607773 64.396973 M 23.390564 65.905113 L 19.959461 65.905113"/>
            </g>
            <g id="g16">
                <path id="path170" fill="#dddddd" stroke="none" d="M 29.746511 60.859505 L 38.042416 60.859505 C 38.512344 60.859505 38.893276 61.240463 38.893276 61.710373 L 38.893276 70.006279 C 38.893276 70.476196 38.512344 70.85714 38.042416 70.85714 L 29.746511 70.85714 C 29.276583 70.85714 28.895643 70.476196 28.895643 70.006279 L 28.895643 61.710373 C 28.895643 61.240463 29.276583 60.859505 29.746511 60.859505 Z"/>
                <path id="path171" fill="#333333" stroke="none" d="M 30.171938 61.49765 L 37.616982 61.49765 C 37.969421 61.49765 38.255127 61.783363 38.255127 62.135799 L 38.255127 69.580849 C 38.255127 69.933289 37.969421 70.218994 37.616982 70.218994 L 30.171938 70.218994 C 29.819494 70.218994 29.533791 69.933289 29.533791 69.580849 L 29.533791 62.135799 C 29.533791 61.783363 29.819494 61.49765 30.171938 61.49765 Z"/>
                <path id="path172" fill="none" stroke="#dddddd" stroke-width="0.797683" d="M 32.707504 65.85833 C 32.707504 67.063652 33.23893 68.040787 33.894463 68.040787 C 34.549999 68.040787 35.081413 67.063652 35.081413 65.85833 C 35.081413 64.653 34.549999 63.675858 33.894463 63.675858 C 33.23893 63.675858 32.707504 64.653 32.707504 65.85833"/>
            </g>
            <g id="g17">
                <path id="path173" fill="#dddddd" stroke="none" d="M 41.8713 60.859505 L 50.167202 60.859505 C 50.637119 60.859505 51.01807 61.240463 51.01807 61.710373 L 51.01807 70.006279 C 51.01807 70.476196 50.637119 70.85714 50.167202 70.85714 L 41.8713 70.85714 C 41.401371 70.85714 41.020439 70.476196 41.020439 70.006279 L 41.020439 61.710373 C 41.020439 61.240463 41.401371 60.859505 41.8713 60.859505 Z"/>
                <path id="path174" fill="#d0d0d0" stroke="none" d="M 42.296734 61.49765 L 49.741776 61.49765 C 50.094219 61.49765 50.379925 61.783363 50.379925 62.135799 L 50.379925 69.580849 C 50.379925 69.933289 50.094219 70.218994 49.741776 70.218994 L 42.296734 70.218994 C 41.94429 70.218994 41.658585 69.933289 41.658585 69.580849 L 41.658585 62.135799 C 41.658585 61.783363 41.94429 61.49765 42.296734 61.49765 Z"/>
                <path id="path175" fill="none" stroke="#333333" stroke-width="0.47861" d="M 45.266232 67.742981 L 45.776756 64.145958 M 46.266006 67.742981 L 46.776531 64.145958 M 44.798264 65.298882 L 47.223232 65.298882 M 44.798264 66.536873 L 47.223232 66.536873"/>
            </g>
            <g id="g18">
                <path id="path176" fill="#dddddd" stroke="none" d="M 53.996086 60.859505 L 62.291996 60.859505 C 62.761906 60.859505 63.142857 61.240463 63.142857 61.710373 L 63.142857 70.006279 C 63.142857 70.476196 62.761906 70.85714 62.291996 70.85714 L 53.996086 70.85714 C 53.526176 70.85714 53.145226 70.476196 53.145226 70.006279 L 53.145226 61.710373 C 53.145226 61.240463 53.526176 60.859505 53.996086 60.859505 Z"/>
                <path id="path177" fill="#d0d0d0" stroke="none" d="M 54.42152 61.49765 L 61.866562 61.49765 C 62.219006 61.49765 62.504711 61.783363 62.504711 62.135799 L 62.504711 69.580849 C 62.504711 69.933289 62.219006 70.218994 61.866562 70.218994 L 54.42152 70.218994 C 54.069077 70.218994 53.783371 69.933289 53.783371 69.580849 L 53.783371 62.135799 C 53.783371 61.783363 54.069077 61.49765 54.42152 61.49765 Z"/>
                <path id="path178" fill="none" stroke="#333333" stroke-width="0.797683" d="M 57.154907 63.788605 L 57.154907 68.006744 L 58.131268 68.006744 C 58.663185 68.0075 59.132988 67.660301 59.288456 67.151627 C 59.536221 66.34127 59.536221 65.475349 59.288456 64.664993 C 59.130756 64.143906 58.650169 63.7878 58.10574 63.788605 Z"/>
            </g>
        </g>
        <g id="g2">
            <path id="path1" fill="none" stroke="#bebcb8" stroke-width="0.635776" stroke-linecap="round" stroke-linejoin="round" d="M 42.923077 12.950546 L 42.923077 16.18132"/>
            <path id="path2" fill="none" stroke="#bebcb8" stroke-width="0.635776" stroke-linecap="round" stroke-linejoin="round" d="M 40.923077 12.950546 L 40.923077 16.18132"/>
            <path id="--2" fill="none" stroke="#bebcb8" stroke-width="0.635776" stroke-linecap="round" stroke-linejoin="round" d="M 38.923077 12.950546 L 38.923077 16.18132"/>
            <path id="--3" fill="none" stroke="#bebcb8" stroke-width="0.635776" stroke-linecap="round" stroke-linejoin="round" d="M 37.076923 12.950546 L 37.076923 16.18132"/>
            <path id="path3" fill="#f1ebd3" fill-rule="evenodd" stroke="none" d="M 34 7.104393 L 34 14.027473 L 46 14.027473 L 46 7.104393 Z"/>
        </g>
        <g id="g19">
            <path id="--8" fill="none" stroke="#bebcb8" stroke-width="0.247409" stroke-linecap="round" stroke-linejoin="round" d="M 48.857143 13.147903 L 48.857143 12.307922"/>
            <path id="--9" fill="none" stroke="#bebcb8" stroke-width="0.247409" stroke-linecap="round" stroke-linejoin="round" d="M 49.714287 13.147903 L 49.714287 12.307922"/>
            <path id="--10" fill="none" stroke="#bebcb8" stroke-width="0.247409" stroke-linecap="round" stroke-linejoin="round" d="M 50.57143 13.147903 L 50.57143 12.307922"/>
            <path id="--11" fill="none" stroke="#bebcb8" stroke-width="0.247409" stroke-linecap="round" stroke-linejoin="round" d="M 51.435638 13.147903 L 51.435638 12.307922"/>
            <path id="--15" fill="none" stroke="#bebcb8" stroke-width="0.247409" stroke-linecap="round" stroke-linejoin="round" d="M 48.857143 17.977791 L 48.857143 17.13781"/>
            <path id="--14" fill="none" stroke="#bebcb8" stroke-width="0.247409" stroke-linecap="round" stroke-linejoin="round" d="M 49.714287 17.977791 L 49.714287 17.13781"/>
            <path id="--13" fill="none" stroke="#bebcb8" stroke-width="0.247409" stroke-linecap="round" stroke-linejoin="round" d="M 50.57143 17.977791 L 50.57143 17.13781"/>
            <path id="--12" fill="none" stroke="#bebcb8" stroke-width="0.247409" stroke-linecap="round" stroke-linejoin="round" d="M 51.435638 17.977791 L 51.435638 17.13781"/>
            <path id="--23" fill="none" stroke="#bebcb8" stroke-width="0.247409" stroke-linecap="round" stroke-linejoin="round" d="M 52.285713 13.147903 L 52.285713 12.307922"/>
            <path id="--22" fill="none" stroke="#bebcb8" stroke-width="0.247409" stroke-linecap="round" stroke-linejoin="round" d="M 53.142857 13.147903 L 53.142857 12.307922"/>
            <path id="--21" fill="none" stroke="#bebcb8" stroke-width="0.247409" stroke-linecap="round" stroke-linejoin="round" d="M 53.997578 13.147903 L 53.997578 12.307922"/>
            <path id="--20" fill="none" stroke="#bebcb8" stroke-width="0.247409" stroke-linecap="round" stroke-linejoin="round" d="M 54.857143 13.147903 L 54.857143 12.307922"/>
            <path id="--19" fill="none" stroke="#bebcb8" stroke-width="0.247409" stroke-linecap="round" stroke-linejoin="round" d="M 52.285713 17.977791 L 52.285713 17.13781"/>
            <path id="--18" fill="none" stroke="#bebcb8" stroke-width="0.247409" stroke-linecap="round" stroke-linejoin="round" d="M 53.142857 17.977791 L 53.142857 17.13781"/>
            <path id="--17" fill="none" stroke="#bebcb8" stroke-width="0.247409" stroke-linecap="round" stroke-linejoin="round" d="M 53.997578 17.977791 L 53.997578 17.13781"/>
            <path id="--16" fill="none" stroke="#bebcb8" stroke-width="0.247409" stroke-linecap="round" stroke-linejoin="round" d="M 54.857143 17.977791 L 54.857143 17.13781"/>
            <path id="path4" fill="#292d2f" fill-rule="evenodd" stroke="none" d="M 48.285713 17.13781 L 55.714287 17.13781 L 55.714287 13.147903 L 48.285713 13.147903 Z"/>
        </g>
    </g>
</svg>
