<?xml version="1.0" encoding="UTF-8"?>
<!-- Generated by Pixelmator Pro 3.8 -->
<svg width="600" height="370" viewBox="0 0 600 370" xmlns="http://www.w3.org/2000/svg">
    <g id="g1">
        <path id="path1" fill="#cd6ea3" stroke="none" d="M 2e-05 370 L 2e-05 0 L 600 0 L 600 370 Z"/>
        <path id="path2" fill="none" stroke="#ffffff" stroke-width="48.5" stroke-opacity="0.129742" stroke-linecap="round" d="M 178.752914 48.922821 C 196.045517 46.105774 208.668777 0.360779 216.044144 5.898651 C 220.350632 9.132233 224.449646 62.539551 222.470413 65.927429 C 219.610397 70.823029 185.038925 80.249512 161.41246 90.914948 C 126.732193 106.570282 104.892319 132.117737 98.083366 137.383331 C 93.181351 141.174225 55.724232 151.21875 30.576321 161.553879 C 5.58856 171.823196 -5.06853 179.589554 -16.85071 181.433487 C -22.282909 182.283646 12.95582 161.937469 10.32592 161.367767 C -0.93444 158.928406 84.624382 81.788269 108.083382 79.833344 C 108.083382 79.833344 174.438507 49.625671 178.752914 48.922821 Z"/>
        <path id="path3" fill="none" stroke="#ffffff" stroke-width="48.5" stroke-opacity="0.129742" stroke-linecap="round" d="M 112.907944 202.069214 C 160.963425 183.493073 165.594055 160.596329 172.750046 160 C 178.824646 159.49379 171.595215 160.72226 175.907043 181.003372 C 177.767456 193.456573 182.505722 204.601395 187.095764 212.056747 C 191.398026 219.044647 195.873734 222.609024 188.913834 226.259521 C 180.465775 230.690582 170.919357 213.312195 138.096481 215.461136 C 117.645477 216.800079 96.858551 233.366089 89.250053 239.25 C 67.616219 255.980164 15.82903 253.462296 19.25005 241 C 22.67107 228.537704 64.852463 220.645386 112.907944 202.069214 Z"/>
        <path id="path4" fill="none" stroke="#ffffff" stroke-width="48.5" stroke-opacity="0.129742" stroke-linecap="round" d="M 143.731644 280.444641 C 150.357483 278.229065 161.894485 292.350861 183.479507 291.75589 C 241.698273 290.151123 286.640472 223.244263 322.884796 231.973724 C 355.455933 239.818497 327.711761 237.18364 291.479004 266.21405 C 260.362915 291.144867 267.097046 314.870911 244.033676 315.265411 C 177.068832 316.410828 119.234657 288.636017 143.731644 280.444641 Z"/>
        <path id="path5" fill="none" stroke="#ffffff" stroke-width="48.5" stroke-opacity="0.129742" stroke-linecap="round" d="M 253.231659 124.944641 C 259.857513 122.72908 271.394501 136.850861 292.979523 136.25589 C 351.198303 134.651093 413.140503 63.244263 449.384827 71.973755 C 464.621796 75.643555 463.948334 80.327484 450.079529 83.466309 C 434.301849 87.03714 408.635345 97.338257 392.57901 121.914063 C 375.103424 148.662201 394.097076 171.870941 371.033691 172.265427 C 360.861267 172.439423 347.372162 162.883682 311.170959 162.619781 C 275.953766 162.363083 258.301544 186.613174 246.082138 182.860916 C 233.862732 179.108658 238.819077 129.763992 253.231659 124.944672 Z"/>
        <path id="path6" fill="none" stroke="#ffffff" stroke-width="48.5" stroke-opacity="0.129742" stroke-linecap="round" d="M 414.231659 226.944656 C 420.857513 224.72908 473.894501 257.850861 495.479523 257.255859 C 553.698303 255.651108 536.640503 280.244263 572.884827 288.973724 C 605.455933 296.818512 475.372162 282.883667 439.170959 282.619751 C 403.953766 282.363037 346.301544 325.113159 334.082153 321.360901 C 327.294281 319.27652 375.155457 299.93988 392.604034 276.059937 C 408.949768 253.689255 407.825256 229.086838 414.231659 226.944656 Z"/>
        <path id="path7" fill="none" stroke="#ffffff" stroke-width="48.5" stroke-opacity="0.129742" stroke-linecap="round" d="M 572.92218 157.79512 C 598.342041 178.913376 626.705627 190.916183 603.079102 201.581619 C 598.606689 203.600555 610.709106 227.675873 607.682678 228.541763 C 599.042297 231.013855 577.212402 205.918701 551.965332 196.925354 C 531.28064 189.557236 501.415314 191.588577 488.150055 184.75 C 461.770142 171.150528 456.570435 162.516205 458.492584 149.534409 C 459.631439 141.842896 547.502258 136.676849 572.92218 157.79512 Z"/>
        <path id="path8" fill="none" stroke="#ffffff" stroke-width="48.5" stroke-opacity="0.129742" stroke-linecap="round" d="M 370.981506 19.169128 C 361.40567 30.964569 304.121796 65.512329 289.722778 65.76123 C 286.158325 65.822845 280.783142 41.003143 288.429047 28.300873 C 305.493683 -0.04895 337.392059 9.057373 352.854919 4.040009 C 368.31778 -0.977356 376.406555 12.486542 370.981506 19.169128 Z"/>
        <path id="path9" fill="none" stroke="#ffffff" stroke-width="48.5" stroke-opacity="0.129742" stroke-linecap="round" d="M 644.679138 93.68161 C 638.295471 96.563324 652.847229 132.310089 647.794006 132.750885 C 639.199402 133.500641 605.833374 98.272552 584.365295 90.625366 C 563.680664 83.257233 563.01532 84.088562 549.750061 77.25 C 523.370178 63.650543 518.570435 58.016205 520.492615 45.034424 C 521.63147 37.342896 592.102295 43.976868 617.522156 65.095123 C 617.522156 65.095123 645.016052 93.52951 644.679138 93.68161 Z"/>
        <path id="path10" fill="none" stroke="#ffffff" stroke-width="48.5" stroke-opacity="0.129742" stroke-linecap="round" d="M -13.76499 24.583496 C 4.04447 -3.254913 89.336861 -25.007568 92.756882 -18.02475 C 98.529198 -6.239105 95.666412 0.586395 74.65979 21.552216 C 64.096489 32.095032 40.066231 40.557922 22.594431 53.857574 C -6.20071 75.776703 -10.41641 77.640198 -29.206551 75.458405 C -54.955769 72.468567 -31.57443 52.421875 -13.76497 24.583496 Z"/>
        <path id="path11" fill="none" stroke="#ffffff" stroke-width="48.5" stroke-opacity="0.129742" stroke-linecap="round" d="M 72.134468 312.369354 C 84.764481 313.779266 84.527695 327.11496 99.734619 339.909637 C 110.701324 349.136719 186.618759 378.533478 211 382 C 244.16893 386.716003 19.55191 343.490906 -16.510719 346.666321 C -51.593102 349.755402 -48.178909 306.623322 -31.670429 302.641083 C -17.671329 299.26413 1.456681 307.467041 23.423157 311.793823 C 38.395958 314.743073 57.437088 310.728607 72.134468 312.369354 Z"/>
        <path id="path12" fill="none" stroke="#ffffff" stroke-width="48.5" stroke-opacity="0.129742" stroke-linecap="round" d="M 549.524414 361.648865 C 535.874573 374.659576 535.381287 372.636414 499.711243 372.028168 C 478.068024 371.659119 468.827423 376.11731 454.281128 373.859314 C 425.353699 369.368988 404.307037 390.766937 402.009338 377.729614 C 401.481812 374.736511 423.364014 348.229156 453.627228 346.855042 C 482.385071 345.549255 586.584229 355.154327 606.963745 364.591064 C 620.48468 370.85199 554.093933 357.293243 549.524414 361.648865 Z"/>
    </g>
    <g id="compass-svgrepo-com">
        <path id="path13" fill="#f6b13a" stroke="none" d="M 167.578125 185 C 167.578125 232.159058 192.737183 275.73584 233.578125 299.315369 C 274.419067 322.894897 324.737183 322.894897 365.578125 299.315369 C 406.419067 275.73584 431.578125 232.159058 431.578125 185 C 431.578125 137.840942 406.419067 94.26416 365.578125 70.684662 C 324.737183 47.105133 274.419067 47.105133 233.578125 70.684662 C 192.737183 94.26416 167.578125 137.840942 167.578125 185 Z"/>
        <path id="path14" fill="#f35426" stroke="none" d="M 190.745911 185 C 190.745911 245.106384 239.471756 293.832214 299.578125 293.832214 C 359.684509 293.832214 408.410339 245.106384 408.410339 185 C 408.410339 124.893631 359.684509 76.167786 299.578125 76.167786 C 239.471756 76.167786 190.745911 124.893631 190.745911 185 Z"/>
        <path id="path15" fill="#f4f4f4" stroke="none" d="M 211.660278 185 C 211.660278 233.555695 251.022446 272.917847 299.578125 272.917847 C 348.13382 272.917847 387.495972 233.555695 387.495972 185 C 387.495972 136.444336 348.13382 97.082153 299.578125 97.082153 C 251.022446 97.082153 211.660278 136.444336 211.660278 185 Z"/>
        <path id="path16" fill="#c9ccc7" stroke="none" d="M 229.405807 185 L 195.780853 185 C 193.104935 185 190.886734 182.817032 190.886734 180.105881 C 190.886734 177.429993 193.069717 175.211792 195.780853 175.211792 L 229.405807 175.211792 C 232.081726 175.211792 234.299927 177.394791 234.299927 180.105881 C 234.264709 182.817032 232.081726 185 229.405807 185 Z M 304.260986 251.933044 L 304.260986 285.522827 C 304.260986 288.19873 302.078003 290.416931 299.366882 290.416931 C 296.690948 290.416931 294.472778 288.233948 294.472778 285.522827 L 294.472778 251.897858 C 294.472778 249.221939 296.655731 247.003723 299.366882 247.003723 C 302.042755 247.038956 304.260986 249.221939 304.260986 251.933044 Z M 304.260986 83.878632 L 304.260986 117.503601 C 304.260986 120.17952 302.078003 122.39772 299.366882 122.39772 C 296.690948 122.39772 294.472778 120.214737 294.472778 117.503601 L 294.472778 83.878632 C 294.472778 81.202728 296.655731 78.984528 299.366882 78.984528 C 302.042755 78.984528 304.260986 81.202728 304.260986 83.878632 Z M 404.290863 185 L 370.665894 185 C 367.98996 185 365.77179 182.817032 365.77179 180.105881 C 365.77179 177.429993 367.954773 175.211792 370.665894 175.211792 L 404.290863 175.211792 C 406.966766 175.211792 409.184967 177.394791 409.184967 180.105881 C 409.184967 182.817032 407.001984 185 404.290863 185 Z"/>
        <path id="path17" fill="#ec5c3d" stroke="none" d="M 289.613861 198.907715 L 244.545853 151.339828 L 307.641083 169.930389 Z"/>
        <path id="path18" fill="#2e9dc7" stroke="none" d="M 289.473022 198.837296 L 352.321777 217.287018 L 307.042511 169.578293 Z"/>
    </g>
</svg>
