<?xml version="1.0" encoding="UTF-8"?>
<!-- Generated by Pixelmator Pro 3.8 -->
<svg width="80" height="80" viewBox="0 0 80 80" xmlns="http://www.w3.org/2000/svg">
    <g id="compass-svgrepo-com-">
        <path id="path1" fill="#f6b13a" stroke="none" d="M 4.420833 40.26667 C 4.420833 52.842415 11.129914 64.462891 22.020834 70.750763 C 32.911751 77.038635 46.329918 77.038635 57.220833 70.750763 C 68.111748 64.462891 74.820831 52.842415 74.820831 40.26667 C 74.820831 27.690922 68.111748 16.070446 57.220833 9.782578 C 46.329918 3.494698 32.911751 3.494698 22.020834 9.782578 C 11.129914 16.070446 4.420833 27.690922 4.420833 40.26667 Z"/>
        <path id="path2" fill="#f35426" stroke="none" d="M 10.598907 40.26667 C 10.598907 56.295036 23.592466 69.288589 39.620831 69.288589 C 55.649204 69.288589 68.642761 56.295036 68.642761 40.26667 C 68.642761 24.2383 55.649204 11.244743 39.620831 11.244743 C 23.592466 11.244743 10.598907 24.2383 10.598907 40.26667 Z"/>
        <path id="path3" fill="#f4f4f4" stroke="none" d="M 16.176075 40.26667 C 16.176075 53.214851 26.672649 63.71143 39.620831 63.71143 C 52.569016 63.71143 63.065594 53.214851 63.065594 40.26667 C 63.065594 27.318489 52.569016 16.821911 39.620831 16.821911 C 26.672649 16.821911 16.176075 27.318489 16.176075 40.26667 Z"/>
        <path id="path4" fill="#c9ccc7" stroke="none" d="M 20.908215 40.26667 L 11.941559 40.26667 C 11.227982 40.26667 10.636464 39.68454 10.636464 38.961571 C 10.636464 38.247997 11.218593 37.656479 11.941559 37.656479 L 20.908215 37.656479 C 21.621794 37.656479 22.213314 38.238613 22.213314 38.961571 C 22.203922 39.68454 21.621794 40.26667 20.908215 40.26667 Z M 40.869598 58.115479 L 40.869598 67.072754 C 40.869598 67.786324 40.287464 68.377846 39.564499 68.377846 C 38.850922 68.377846 38.259403 67.795715 38.259403 67.072754 L 38.259403 58.106094 C 38.259403 57.392517 38.841534 56.800995 39.564499 56.800995 C 40.278072 56.810387 40.869598 57.392517 40.869598 58.115479 Z M 40.869598 13.300972 L 40.869598 22.267628 C 40.869598 22.981205 40.287464 23.572723 39.564499 23.572723 C 38.850922 23.572723 38.259403 22.990597 38.259403 22.267628 L 38.259403 13.300972 C 38.259403 12.587395 38.841534 11.995872 39.564499 11.995872 C 40.278072 11.995872 40.869598 12.587395 40.869598 13.300972 Z M 67.544228 40.26667 L 58.577568 40.26667 C 57.863991 40.26667 57.272472 39.68454 57.272472 38.961571 C 57.272472 38.247997 57.854603 37.656479 58.577568 37.656479 L 67.544228 37.656479 C 68.257805 37.656479 68.849319 38.238613 68.849319 38.961571 C 68.849319 39.68454 68.267189 40.26667 67.544228 40.26667 Z"/>
        <path id="path5" fill="#ec5c3d" stroke="none" d="M 36.963699 43.975391 L 24.94556 31.290623 L 41.770954 36.248104 Z"/>
        <path id="path6" fill="#2e9dc7" stroke="none" d="M 36.92614 43.956612 L 53.68581 48.876537 L 41.611336 36.154213 Z"/>
    </g>
</svg>
