<?xml version="1.0" encoding="UTF-8"?>
<!-- Generated by Pixelmator Pro 3.7 -->
<svg width="80" height="80" viewBox="0 0 80 80" xmlns="http://www.w3.org/2000/svg">
    <path id="-" fill="#ffffff" stroke="none" d="M 52.222836 14.935997 C 52.785019 15.601204 53.094078 16.443016 53.094078 17.314259 L 53.094078 62.94265 C 53.094372 64.375809 52.262455 65.678696 50.962212 66.281425 C 49.661972 66.884155 48.13007 66.677025 47.036587 65.750641 L 32.416782 53.37075 L 21.45266 53.37075 C 17.795088 53.37075 14.830035 50.405697 14.830035 46.748131 L 14.830035 33.50288 C 14.830035 29.845314 17.795088 26.88026 21.45266 26.88026 L 32.416782 26.88026 L 47.039532 14.506256 C 48.59058 13.195168 50.910614 13.388824 52.222836 14.938934 Z M 59.286961 30.235733 C 60.327484 29.602684 61.684116 29.931957 62.318649 30.971577 C 64.008156 33.738361 64.85585 36.834805 64.85585 40.213814 C 64.85585 43.595768 64.008156 46.692219 62.318649 49.459 C 61.919117 50.155418 61.17297 50.579987 60.370178 50.567741 C 59.567379 50.555496 58.834534 50.108353 58.456429 49.400066 C 58.078327 48.691788 58.11459 47.834057 58.551117 47.16021 C 59.81089 45.093956 60.440773 42.795166 60.440773 40.213814 C 60.440773 37.635406 59.81089 35.336624 58.551117 33.270367 C 57.918064 32.229847 58.247341 30.873211 59.286961 30.238678 Z"/>
</svg>
