<?xml version="1.0" encoding="UTF-8"?>
<!-- Generated by Pixelmator Pro 3.7.1 -->
<svg width="600" height="370" viewBox="0 0 600 370" xmlns="http://www.w3.org/2000/svg">
    <g id="g1">
        <path id="path1" fill="#a6a9b3" stroke="none" d="M 2e-05 370 L 2e-05 0 L 600 0 L 600 370 Z"/>
        <path id="path2" fill="none" stroke="#abaeb6" stroke-width="48.5" stroke-linecap="round" d="M 178.752914 48.922821 C 196.045517 46.105774 208.668777 0.360779 216.044144 5.898651 C 220.350632 9.132233 224.449646 62.539551 222.470413 65.927429 C 219.610397 70.823029 185.038925 80.249512 161.41246 90.914948 C 126.732193 106.570282 104.892319 132.117737 98.083366 137.383331 C 93.181351 141.174225 55.724232 151.21875 30.576321 161.553879 C 5.58856 171.823196 -5.06853 179.589554 -16.85071 181.433487 C -22.282909 182.283646 12.95582 161.937469 10.32592 161.367767 C -0.93444 158.928406 84.624382 81.788269 108.083382 79.833344 C 108.083382 79.833344 174.438507 49.625671 178.752914 48.922821 Z"/>
        <path id="path3" fill="none" stroke="#abaeb6" stroke-width="48.5" stroke-linecap="round" d="M 112.907944 202.069214 C 160.963425 183.493073 165.594055 160.596329 172.750046 160 C 178.824646 159.49379 171.595215 160.72226 175.907043 181.003372 C 177.767456 193.456573 182.505722 204.601395 187.095764 212.056747 C 191.398026 219.044647 195.873734 222.609024 188.913834 226.259521 C 180.465775 230.690582 170.919357 213.312195 138.096481 215.461136 C 117.645477 216.800079 96.858551 233.366089 89.250053 239.25 C 67.616219 255.980164 15.82903 253.462296 19.25005 241 C 22.67107 228.537704 64.852463 220.645386 112.907944 202.069214 Z"/>
        <path id="path4" fill="none" stroke="#abaeb6" stroke-width="48.5" stroke-linecap="round" d="M 143.731644 280.444641 C 150.357483 278.229065 161.894485 292.350861 183.479507 291.75589 C 241.698273 290.151123 286.640472 223.244263 322.884796 231.973724 C 355.455933 239.818497 327.711761 237.18364 291.479004 266.21405 C 260.362915 291.144867 267.097046 314.870911 244.033676 315.265411 C 177.068832 316.410828 119.234657 288.636017 143.731644 280.444641 Z"/>
        <path id="path5" fill="none" stroke="#abaeb6" stroke-width="48.5" stroke-linecap="round" d="M 253.231659 124.944641 C 259.857513 122.72908 271.394501 136.850861 292.979523 136.25589 C 351.198303 134.651093 413.140503 63.244263 449.384827 71.973755 C 464.621796 75.643555 463.948334 80.327484 450.079529 83.466309 C 434.301849 87.03714 408.635345 97.338257 392.57901 121.914063 C 375.103424 148.662201 394.097076 171.870941 371.033691 172.265427 C 360.861267 172.439423 347.372162 162.883682 311.170959 162.619781 C 275.953766 162.363083 258.301544 186.613174 246.082138 182.860916 C 233.862732 179.108658 238.819077 129.763992 253.231659 124.944672 Z"/>
        <path id="path6" fill="none" stroke="#abaeb6" stroke-width="48.5" stroke-linecap="round" d="M 414.231659 226.944656 C 420.857513 224.72908 473.894501 257.850861 495.479523 257.255859 C 553.698303 255.651108 536.640503 280.244263 572.884827 288.973724 C 605.455933 296.818512 475.372162 282.883667 439.170959 282.619751 C 403.953766 282.363037 346.301544 325.113159 334.082153 321.360901 C 327.294281 319.27652 375.155457 299.93988 392.604034 276.059937 C 408.949768 253.689255 407.825256 229.086838 414.231659 226.944656 Z"/>
        <path id="path7" fill="none" stroke="#abaeb6" stroke-width="48.5" stroke-linecap="round" d="M 572.92218 157.79512 C 598.342041 178.913376 626.705627 190.916183 603.079102 201.581619 C 598.606689 203.600555 610.709106 227.675873 607.682678 228.541763 C 599.042297 231.013855 577.212402 205.918701 551.965332 196.925354 C 531.28064 189.557236 501.415314 191.588577 488.150055 184.75 C 461.770142 171.150528 456.570435 162.516205 458.492584 149.534409 C 459.631439 141.842896 547.502258 136.676849 572.92218 157.79512 Z"/>
        <path id="path8" fill="none" stroke="#abaeb6" stroke-width="48.5" stroke-linecap="round" d="M 370.981506 19.169128 C 361.40567 30.964569 304.121796 65.512329 289.722778 65.76123 C 286.158325 65.822845 280.783142 41.003143 288.429047 28.300873 C 305.493683 -0.04895 337.392059 9.057373 352.854919 4.040009 C 368.31778 -0.977356 376.406555 12.486542 370.981506 19.169128 Z"/>
        <path id="path9" fill="none" stroke="#abaeb6" stroke-width="48.5" stroke-linecap="round" d="M 644.679138 93.68161 C 638.295471 96.563324 652.847229 132.310089 647.794006 132.750885 C 639.199402 133.500641 605.833374 98.272552 584.365295 90.625366 C 563.680664 83.257233 563.01532 84.088562 549.750061 77.25 C 523.370178 63.650543 518.570435 58.016205 520.492615 45.034424 C 521.63147 37.342896 592.102295 43.976868 617.522156 65.095123 C 617.522156 65.095123 645.016052 93.52951 644.679138 93.68161 Z"/>
        <path id="path10" fill="none" stroke="#abaeb6" stroke-width="48.5" stroke-linecap="round" d="M -13.76499 24.583496 C 4.04447 -3.254913 89.336861 -25.007568 92.756882 -18.02475 C 98.529198 -6.239105 95.666412 0.586395 74.65979 21.552216 C 64.096489 32.095032 40.066231 40.557922 22.594431 53.857574 C -6.20071 75.776703 -10.41641 77.640198 -29.206551 75.458405 C -54.955769 72.468567 -31.57443 52.421875 -13.76497 24.583496 Z"/>
        <path id="path11" fill="none" stroke="#abaeb6" stroke-width="48.5" stroke-linecap="round" d="M 72.134468 312.369354 C 84.764481 313.779266 84.527695 327.11496 99.734619 339.909637 C 110.701324 349.136719 186.618759 378.533478 211 382 C 244.16893 386.716003 19.55191 343.490906 -16.510719 346.666321 C -51.593102 349.755402 -48.178909 306.623322 -31.670429 302.641083 C -17.671329 299.26413 1.456681 307.467041 23.423157 311.793823 C 38.395958 314.743073 57.437088 310.728607 72.134468 312.369354 Z"/>
        <path id="path12" fill="none" stroke="#abaeb6" stroke-width="48.5" stroke-linecap="round" d="M 549.524414 361.648865 C 535.874573 374.659576 535.381287 372.636414 499.711243 372.028168 C 478.068024 371.659119 468.827423 376.11731 454.281128 373.859314 C 425.353699 369.368988 404.307037 390.766937 402.009338 377.729614 C 401.481812 374.736511 423.364014 348.229156 453.627228 346.855042 C 482.385071 345.549255 586.584229 355.154327 606.963745 364.591064 C 620.48468 370.85199 554.093933 357.293243 549.524414 361.648865 Z"/>
    </g>
    <path id="path24" fill="#000000" fill-opacity="0.245494" fill-rule="evenodd" stroke="none" d="M 411 292 C 411 279.99649 361.303589 270.265747 300 270.265747 C 238.696396 270.265747 189 279.99649 189 292 C 189 304.00351 238.696396 313.734253 300 313.734253 C 361.303589 313.734253 411 304.00351 411 292 Z"/>
    <g id="g2">
        <path id="-" fill="#15181f" fill-rule="evenodd" stroke="none" d="M 237.533768 215.004959 L 237.533768 280.008728 C 237.533768 288.840454 244.693298 296 253.525055 296 L 345.474945 296 C 354.306702 296 361.466217 288.840454 361.466217 280.008728 L 361.466217 215.004959 C 364.774506 198.20607 378.01001 184.970596 394.808868 181.662308 L 467.008728 181.662308 C 475.840454 181.662308 483 174.502777 483 165.671021 L 483 120.895432 C 483 112.06369 475.840454 104.904144 467.008728 104.904144 L 131.991287 104.904144 C 123.159546 104.904144 116 112.06369 116 120.895432 L 116 165.671021 C 116 174.502777 123.159546 181.662308 131.991287 181.662308 L 204.191132 181.662308 C 220.990021 184.970596 234.225494 198.20607 237.533768 215.004959 Z M 272.7146 222.040298 C 272.7146 214.312531 266.449982 208.047928 258.722229 208.047928 C 250.994446 208.047928 244.729843 214.312531 244.729843 222.040298 C 244.729843 229.768082 250.994446 236.032684 258.722229 236.032684 C 266.449982 236.032684 272.7146 229.768082 272.7146 222.040298 Z M 341.077332 208.047928 C 348.805115 208.047928 355.069702 214.312531 355.069702 222.040298 C 355.069702 229.768082 348.805115 236.032684 341.077332 236.032684 C 333.349579 236.032684 327.084961 229.768082 327.084961 222.040298 C 327.084961 214.312531 333.349579 208.047928 341.077332 208.047928 Z"/>
        <path id="--2" fill="#ffffff" fill-rule="evenodd" stroke="none" d="M 237.533768 258.420471 L 237.533768 215.004959 C 234.225494 198.20607 220.990021 184.970596 204.191132 181.662308 L 394.808868 181.662308 C 378.01001 184.970596 364.774506 198.20607 361.466217 215.004959 L 361.466217 258.420471 L 237.533768 258.420471 Z M 272.7146 222.040298 C 272.7146 214.312531 266.450012 208.047928 258.722229 208.047928 C 250.994446 208.047928 244.729843 214.312531 244.729843 222.040298 C 244.729843 229.768082 250.994446 236.032684 258.722229 236.032684 C 266.450012 236.032684 272.7146 229.768082 272.7146 222.040298 Z M 341.077332 208.047928 C 348.805115 208.047928 355.069702 214.312531 355.069702 222.040298 C 355.069702 229.768082 348.805115 236.032684 341.077332 236.032684 C 333.349579 236.032684 327.084961 229.768082 327.084961 222.040298 C 327.084961 214.312531 333.349579 208.047928 341.077332 208.047928 Z"/>
        <g id="g3"/>
        <g id="g4">
            <path id="Wi-Fi" fill="#e84c3f" fill-rule="evenodd" stroke="none" d="M 299.900482 85.639404 C 305.545166 85.635529 310.926941 88.024567 314.710327 92.213684 C 315.102661 92.644104 315.089233 93.306396 314.679749 93.720551 L 312.125488 96.285095 C 311.913574 96.497009 311.62323 96.611542 311.32373 96.601288 C 311.024261 96.591064 310.742401 96.457062 310.545441 96.231171 C 307.861816 93.157623 303.980743 91.394043 299.900482 91.394043 C 295.82019 91.394043 291.939087 93.157623 289.255493 96.231171 C 289.058502 96.457001 288.776672 96.590973 288.477203 96.601227 C 288.177673 96.61142 287.88739 96.496979 287.675446 96.285095 L 285.121185 93.720551 C 284.7117 93.306396 284.698273 92.644104 285.090607 92.213684 C 288.873993 88.024567 294.255768 85.635529 299.900482 85.639404 Z"/>
            <path id="Wi-Fi-" fill="#ff7a6e" fill-rule="evenodd" stroke="none" d="M 320.228729 88.018433 C 320.023346 88.224182 319.743591 88.338318 319.452881 88.33493 C 319.162231 88.331543 318.885223 88.210938 318.684662 88.000458 C 313.814453 82.813019 307.015808 79.870544 299.900482 79.870544 C 292.785095 79.870544 285.986511 82.813019 281.116272 88.000458 C 280.91571 88.210938 280.638702 88.331543 280.348022 88.33493 C 280.057312 88.338318 279.777588 88.224182 279.572205 88.018433 L 277.030487 85.484985 C 276.616364 85.075897 276.605194 84.410797 277.005341 83.988007 C 282.960205 77.699249 291.239685 74.13681 299.900482 74.13681 C 308.561249 74.13681 316.840729 77.699249 322.795593 83.988007 C 323.193909 84.411499 323.182739 85.075134 322.770447 85.484985 Z"/>
        </g>
        <g id="--3">
            <path id="path13" fill="#e84c3f" fill-rule="evenodd" stroke="none" d="M 227.939697 85.639404 C 233.584366 85.635529 238.966141 88.024567 242.749542 92.213684 C 243.141876 92.644104 243.128448 93.306396 242.718964 93.720551 L 240.164688 96.285095 C 239.952789 96.497009 239.66246 96.611542 239.362946 96.601288 C 239.063477 96.591064 238.781601 96.457062 238.584656 96.231171 C 235.901047 93.157623 232.019943 91.394043 227.939697 91.394043 C 223.859406 91.394043 219.978317 93.157623 217.294708 96.231171 C 217.097717 96.457001 216.815887 96.590973 216.516418 96.601227 C 216.216904 96.61142 215.926605 96.496979 215.714661 96.285095 L 213.160385 93.720551 C 212.750916 93.306396 212.737473 92.644104 213.129822 92.213684 C 216.913223 88.024567 222.294983 85.635529 227.939697 85.639404 Z"/>
            <path id="path14" fill="#ff7a6e" fill-rule="evenodd" stroke="none" d="M 248.267929 88.018433 C 248.062546 88.224182 247.782822 88.338318 247.492111 88.33493 C 247.201447 88.331543 246.924438 88.210938 246.723877 88.000458 C 241.853668 82.813019 235.055038 79.870544 227.939697 79.870544 C 220.824326 79.870544 214.025742 82.813019 209.155487 88.000458 C 208.954926 88.210938 208.677917 88.331543 208.387253 88.33493 C 208.096542 88.338318 207.816803 88.224182 207.61142 88.018433 L 205.069702 85.484985 C 204.655594 85.075897 204.644394 84.410797 205.044556 83.988007 C 210.99942 77.699249 219.2789 74.13681 227.939697 74.13681 C 236.600449 74.13681 244.879944 77.699249 250.834808 83.988007 C 251.233124 84.411499 251.221954 85.075134 250.809662 85.484985 Z"/>
        </g>
        <g id="--4">
            <path id="path15" fill="#e84c3f" fill-rule="evenodd" stroke="none" d="M 155.978912 85.639404 C 161.623581 85.635529 167.005356 88.024567 170.788757 92.213684 C 171.181107 92.644104 171.167664 93.306396 170.758179 93.720551 L 168.203903 96.285095 C 167.992004 96.497009 167.701675 96.611542 167.402161 96.601288 C 167.102692 96.591064 166.820816 96.457062 166.623871 96.231171 C 163.940262 93.157623 160.059158 91.394043 155.978912 91.394043 C 151.898621 91.394043 148.017532 93.157623 145.333923 96.231171 C 145.136932 96.457001 144.855103 96.590973 144.555634 96.601227 C 144.256119 96.61142 143.96582 96.496979 143.753876 96.285095 L 141.1996 93.720551 C 140.790131 93.306396 140.776688 92.644104 141.169037 92.213684 C 144.952438 88.024567 150.334198 85.635529 155.978912 85.639404 Z"/>
            <path id="path16" fill="#ff7a6e" fill-rule="evenodd" stroke="none" d="M 176.307144 88.018433 C 176.101761 88.224182 175.822037 88.338318 175.531326 88.33493 C 175.240662 88.331543 174.963654 88.210938 174.763092 88.000458 C 169.892883 82.813019 163.094254 79.870544 155.978912 79.870544 C 148.863541 79.870544 142.064957 82.813019 137.194702 88.000458 C 136.994141 88.210938 136.717133 88.331543 136.426468 88.33493 C 136.135757 88.338318 135.856018 88.224182 135.650635 88.018433 L 133.108917 85.484985 C 132.694809 85.075897 132.683609 84.410797 133.083771 83.988007 C 139.038635 77.699249 147.318115 74.13681 155.978912 74.13681 C 164.639664 74.13681 172.919159 77.699249 178.874023 83.988007 C 179.272339 84.411499 179.261169 85.075134 178.848877 85.484985 Z"/>
        </g>
        <g id="g5">
            <path id="path17" fill="#e84c3f" fill-rule="evenodd" stroke="none" d="M 371.861267 85.639404 C 377.505951 85.635529 382.887695 88.024567 386.671112 92.213684 C 387.063446 92.644104 387.050018 93.306396 386.640533 93.720551 L 384.086273 96.285095 C 383.874359 96.497009 383.584015 96.611542 383.284515 96.601288 C 382.985046 96.591064 382.703186 96.457062 382.506226 96.231171 C 379.822601 93.157623 375.941528 91.394043 371.861267 91.394043 C 367.780975 91.394043 363.899872 93.157623 361.216278 96.231171 C 361.019287 96.457001 360.737457 96.590973 360.437988 96.601227 C 360.138458 96.61142 359.848175 96.496979 359.63623 96.285095 L 357.08197 93.720551 C 356.672485 93.306396 356.659058 92.644104 357.051392 92.213684 C 360.834778 88.024567 366.216553 85.635529 371.861267 85.639404 Z"/>
            <path id="path18" fill="#ff7a6e" fill-rule="evenodd" stroke="none" d="M 392.189514 88.018433 C 391.984131 88.224182 391.704376 88.338318 391.413666 88.33493 C 391.123016 88.331543 390.846008 88.210938 390.645447 88.000458 C 385.775238 82.813019 378.976593 79.870544 371.861267 79.870544 C 364.74588 79.870544 357.947296 82.813019 353.077057 88.000458 C 352.876495 88.210938 352.599487 88.331543 352.308807 88.33493 C 352.018097 88.338318 351.738373 88.224182 351.53299 88.018433 L 348.991272 85.484985 C 348.577148 85.075897 348.565979 84.410797 348.966125 83.988007 C 354.92099 77.699249 363.20047 74.13681 371.861267 74.13681 C 380.522034 74.13681 388.801514 77.699249 394.756378 83.988007 C 395.154694 84.411499 395.143524 85.075134 394.731232 85.484985 Z"/>
        </g>
        <g id="g6">
            <path id="path19" fill="#e84c3f" fill-rule="evenodd" stroke="none" d="M 443.822052 85.639404 C 449.466736 85.635529 454.84848 88.024567 458.631897 92.213684 C 459.024231 92.644104 459.010803 93.306396 458.601318 93.720551 L 456.047058 96.285095 C 455.835144 96.497009 455.5448 96.611542 455.2453 96.601288 C 454.945831 96.591064 454.663971 96.457062 454.46701 96.231171 C 451.783386 93.157623 447.902313 91.394043 443.822052 91.394043 C 439.74176 91.394043 435.860657 93.157623 433.177063 96.231171 C 432.980072 96.457001 432.698242 96.590973 432.398773 96.601227 C 432.099243 96.61142 431.80896 96.496979 431.597015 96.285095 L 429.042755 93.720551 C 428.63327 93.306396 428.619812 92.644104 429.012177 92.213684 C 432.795563 88.024567 438.177338 85.635529 443.822052 85.639404 Z"/>
            <path id="path20" fill="#ff7a6e" fill-rule="evenodd" stroke="none" d="M 464.150299 88.018433 C 463.944916 88.224182 463.665161 88.338318 463.374451 88.33493 C 463.083801 88.331543 462.806793 88.210938 462.606232 88.000458 C 457.736023 82.813019 450.937378 79.870544 443.822052 79.870544 C 436.706665 79.870544 429.908081 82.813019 425.037842 88.000458 C 424.83728 88.210938 424.560272 88.331543 424.269592 88.33493 C 423.978882 88.338318 423.699158 88.224182 423.493774 88.018433 L 420.952057 85.484985 C 420.537933 85.075897 420.526764 84.410797 420.92691 83.988007 C 426.881775 77.699249 435.161255 74.13681 443.822052 74.13681 C 452.482819 74.13681 460.762299 77.699249 466.717163 83.988007 C 467.115479 84.411499 467.104309 85.075134 466.692017 85.484985 Z"/>
        </g>
        <g id="g4-">
            <path id="path21" fill="none" stroke="#bebcb8" stroke-width="2.684938" stroke-linecap="round" stroke-linejoin="round" d="M 284.708069 265.616547 L 284.708069 248.825714"/>
            <path id="path22" fill="none" stroke="#bebcb8" stroke-width="2.684938" stroke-linecap="round" stroke-linejoin="round" d="M 295.102386 265.616547 L 295.102386 248.825714"/>
            <path id="path23" fill="none" stroke="#bebcb8" stroke-width="2.684938" stroke-linecap="round" stroke-linejoin="round" d="M 305.496735 265.616547 L 305.496735 248.825714"/>
            <path id="path25" fill="none" stroke="#bebcb8" stroke-width="2.684938" stroke-linecap="round" stroke-linejoin="round" d="M 315.091492 265.616547 L 315.091492 248.825714"/>
            <path id="path26" fill="#f1ebd3" fill-rule="evenodd" stroke="none" d="M 331.082794 296 L 331.082794 260.019592 L 268.716766 260.019592 L 268.716766 296 Z"/>
        </g>
        <g id="g8-">
            <path id="--8" fill="none" stroke="#bebcb8" stroke-width="0.894979" stroke-linecap="round" stroke-linejoin="round" d="M 319.089325 137.686279 L 319.089325 134.488022"/>
            <path id="--9" fill="none" stroke="#bebcb8" stroke-width="0.894979" stroke-linecap="round" stroke-linejoin="round" d="M 322.287567 137.686279 L 322.287567 134.488022"/>
            <path id="--10" fill="none" stroke="#bebcb8" stroke-width="0.894979" stroke-linecap="round" stroke-linejoin="round" d="M 325.48584 137.686279 L 325.48584 134.488022"/>
            <path id="--11" fill="none" stroke="#bebcb8" stroke-width="0.894979" stroke-linecap="round" stroke-linejoin="round" d="M 328.684082 137.686279 L 328.684082 134.488022"/>
            <path id="--15" fill="none" stroke="#bebcb8" stroke-width="0.894979" stroke-linecap="round" stroke-linejoin="round" d="M 319.089325 156.076248 L 319.089325 152.877991"/>
            <path id="--14" fill="none" stroke="#bebcb8" stroke-width="0.894979" stroke-linecap="round" stroke-linejoin="round" d="M 322.287567 156.076248 L 322.287567 152.877991"/>
            <path id="--13" fill="none" stroke="#bebcb8" stroke-width="0.894979" stroke-linecap="round" stroke-linejoin="round" d="M 325.48584 156.076248 L 325.48584 152.877991"/>
            <path id="--12" fill="none" stroke="#bebcb8" stroke-width="0.894979" stroke-linecap="round" stroke-linejoin="round" d="M 328.684082 156.076248 L 328.684082 152.877991"/>
            <path id="path27" fill="none" stroke="#bebcb8" stroke-width="0.894979" stroke-linecap="round" stroke-linejoin="round" d="M 315.891083 150.479309 L 312.69281 150.479309"/>
            <path id="path28" fill="none" stroke="#bebcb8" stroke-width="0.894979" stroke-linecap="round" stroke-linejoin="round" d="M 315.891083 147.281052 L 312.69281 147.281052"/>
            <path id="path29" fill="none" stroke="#bebcb8" stroke-width="0.894979" stroke-linecap="round" stroke-linejoin="round" d="M 315.891083 144.082794 L 312.69281 144.082794"/>
            <path id="path30" fill="none" stroke="#bebcb8" stroke-width="0.894979" stroke-linecap="round" stroke-linejoin="round" d="M 315.891083 140.884537 L 312.69281 140.884537"/>
            <path id="path31" fill="none" stroke="#bebcb8" stroke-width="0.894979" stroke-linecap="round" stroke-linejoin="round" d="M 334.281036 150.479309 L 331.082794 150.479309"/>
            <path id="path32" fill="none" stroke="#bebcb8" stroke-width="0.894979" stroke-linecap="round" stroke-linejoin="round" d="M 334.281036 147.281052 L 331.082794 147.281052"/>
            <path id="path33" fill="none" stroke="#bebcb8" stroke-width="0.894979" stroke-linecap="round" stroke-linejoin="round" d="M 334.281036 144.082794 L 331.082794 144.082794"/>
            <path id="path34" fill="none" stroke="#bebcb8" stroke-width="0.894979" stroke-linecap="round" stroke-linejoin="round" d="M 334.281036 140.884537 L 331.082794 140.884537"/>
            <path id="path35" fill="#292d2f" fill-rule="evenodd" stroke="none" d="M 331.082794 152.877991 L 331.082794 137.686279 L 315.891083 137.686279 L 315.891083 152.877991 Z"/>
        </g>
    </g>
</svg>
