<?xml version="1.0" encoding="UTF-8"?>
<!-- Generated by Pixelmator Pro 3.7 -->
<svg width="600" height="370" viewBox="0 0 600 370" xmlns="http://www.w3.org/2000/svg">
    <g id="g1">
        <path id="path1" fill="#a6a9b3" stroke="none" d="M 2e-05 370 L 2e-05 0 L 600 0 L 600 370 Z"/>
        <path id="path2" fill="none" stroke="#abaeb6" stroke-width="48.5" stroke-linecap="round" d="M 178.752914 48.922821 C 196.045517 46.105774 208.668777 0.360779 216.044144 5.898651 C 220.350632 9.132233 224.449646 62.539551 222.470413 65.927429 C 219.610397 70.823029 185.038925 80.249512 161.41246 90.914948 C 126.732193 106.570282 104.892319 132.117737 98.083366 137.383331 C 93.181351 141.174225 55.724232 151.21875 30.576321 161.553879 C 5.58856 171.823196 -5.06853 179.589554 -16.85071 181.433487 C -22.282909 182.283646 12.95582 161.937469 10.32592 161.367767 C -0.93444 158.928406 84.624382 81.788269 108.083382 79.833344 C 108.083382 79.833344 174.438507 49.625671 178.752914 48.922821 Z"/>
        <path id="path3" fill="none" stroke="#abaeb6" stroke-width="48.5" stroke-linecap="round" d="M 112.907944 202.069214 C 160.963425 183.493073 165.594055 160.596329 172.750046 160 C 178.824646 159.49379 171.595215 160.72226 175.907043 181.003372 C 177.767456 193.456573 182.505722 204.601395 187.095764 212.056747 C 191.398026 219.044647 195.873734 222.609024 188.913834 226.259521 C 180.465775 230.690582 170.919357 213.312195 138.096481 215.461136 C 117.645477 216.800079 96.858551 233.366089 89.250053 239.25 C 67.616219 255.980164 15.82903 253.462296 19.25005 241 C 22.67107 228.537704 64.852463 220.645386 112.907944 202.069214 Z"/>
        <path id="path4" fill="none" stroke="#abaeb6" stroke-width="48.5" stroke-linecap="round" d="M 143.731644 280.444641 C 150.357483 278.229065 161.894485 292.350861 183.479507 291.75589 C 241.698273 290.151123 286.640472 223.244263 322.884796 231.973724 C 355.455933 239.818497 327.711761 237.18364 291.479004 266.21405 C 260.362915 291.144867 267.097046 314.870911 244.033676 315.265411 C 177.068832 316.410828 119.234657 288.636017 143.731644 280.444641 Z"/>
        <path id="path5" fill="none" stroke="#abaeb6" stroke-width="48.5" stroke-linecap="round" d="M 253.231659 124.944641 C 259.857513 122.72908 271.394501 136.850861 292.979523 136.25589 C 351.198303 134.651093 413.140503 63.244263 449.384827 71.973755 C 464.621796 75.643555 463.948334 80.327484 450.079529 83.466309 C 434.301849 87.03714 408.635345 97.338257 392.57901 121.914063 C 375.103424 148.662201 394.097076 171.870941 371.033691 172.265427 C 360.861267 172.439423 347.372162 162.883682 311.170959 162.619781 C 275.953766 162.363083 258.301544 186.613174 246.082138 182.860916 C 233.862732 179.108658 238.819077 129.763992 253.231659 124.944672 Z"/>
        <path id="path6" fill="none" stroke="#abaeb6" stroke-width="48.5" stroke-linecap="round" d="M 414.231659 226.944656 C 420.857513 224.72908 473.894501 257.850861 495.479523 257.255859 C 553.698303 255.651108 536.640503 280.244263 572.884827 288.973724 C 605.455933 296.818512 475.372162 282.883667 439.170959 282.619751 C 403.953766 282.363037 346.301544 325.113159 334.082153 321.360901 C 327.294281 319.27652 375.155457 299.93988 392.604034 276.059937 C 408.949768 253.689255 407.825256 229.086838 414.231659 226.944656 Z"/>
        <path id="path7" fill="none" stroke="#abaeb6" stroke-width="48.5" stroke-linecap="round" d="M 572.92218 157.79512 C 598.342041 178.913376 626.705627 190.916183 603.079102 201.581619 C 598.606689 203.600555 610.709106 227.675873 607.682678 228.541763 C 599.042297 231.013855 577.212402 205.918701 551.965332 196.925354 C 531.28064 189.557236 501.415314 191.588577 488.150055 184.75 C 461.770142 171.150528 456.570435 162.516205 458.492584 149.534409 C 459.631439 141.842896 547.502258 136.676849 572.92218 157.79512 Z"/>
        <path id="path8" fill="none" stroke="#abaeb6" stroke-width="48.5" stroke-linecap="round" d="M 370.981506 19.169128 C 361.40567 30.964569 304.121796 65.512329 289.722778 65.76123 C 286.158325 65.822845 280.783142 41.003143 288.429047 28.300873 C 305.493683 -0.04895 337.392059 9.057373 352.854919 4.040009 C 368.31778 -0.977356 376.406555 12.486542 370.981506 19.169128 Z"/>
        <path id="path9" fill="none" stroke="#abaeb6" stroke-width="48.5" stroke-linecap="round" d="M 644.679138 93.68161 C 638.295471 96.563324 652.847229 132.310089 647.794006 132.750885 C 639.199402 133.500641 605.833374 98.272552 584.365295 90.625366 C 563.680664 83.257233 563.01532 84.088562 549.750061 77.25 C 523.370178 63.650543 518.570435 58.016205 520.492615 45.034424 C 521.63147 37.342896 592.102295 43.976868 617.522156 65.095123 C 617.522156 65.095123 645.016052 93.52951 644.679138 93.68161 Z"/>
        <path id="path10" fill="none" stroke="#abaeb6" stroke-width="48.5" stroke-linecap="round" d="M -13.76499 24.583496 C 4.04447 -3.254913 89.336861 -25.007568 92.756882 -18.02475 C 98.529198 -6.239105 95.666412 0.586395 74.65979 21.552216 C 64.096489 32.095032 40.066231 40.557922 22.594431 53.857574 C -6.20071 75.776703 -10.41641 77.640198 -29.206551 75.458405 C -54.955769 72.468567 -31.57443 52.421875 -13.76497 24.583496 Z"/>
        <path id="path11" fill="none" stroke="#abaeb6" stroke-width="48.5" stroke-linecap="round" d="M 72.134468 312.369354 C 84.764481 313.779266 84.527695 327.11496 99.734619 339.909637 C 110.701324 349.136719 186.618759 378.533478 211 382 C 244.16893 386.716003 19.55191 343.490906 -16.510719 346.666321 C -51.593102 349.755402 -48.178909 306.623322 -31.670429 302.641083 C -17.671329 299.26413 1.456681 307.467041 23.423157 311.793823 C 38.395958 314.743073 57.437088 310.728607 72.134468 312.369354 Z"/>
        <path id="path12" fill="none" stroke="#abaeb6" stroke-width="48.5" stroke-linecap="round" d="M 549.524414 361.648865 C 535.874573 374.659576 535.381287 372.636414 499.711243 372.028168 C 478.068024 371.659119 468.827423 376.11731 454.281128 373.859314 C 425.353699 369.368988 404.307037 390.766937 402.009338 377.729614 C 401.481812 374.736511 423.364014 348.229156 453.627228 346.855042 C 482.385071 345.549255 586.584229 355.154327 606.963745 364.591064 C 620.48468 370.85199 554.093933 357.293243 549.524414 361.648865 Z"/>
    </g>
    <path id="path13" fill="#000000" fill-rule="evenodd" stroke="none" d="M 301.336914 172.052734 C 302.778992 173.783203 304.221008 173.783203 305.663086 172.052734 C 339.118988 130.809692 376.900513 110.188477 419.008789 110.188477 C 434.006256 110.188477 448.210388 113.360962 461.621582 119.706055 C 475.032776 126.051147 486.352814 136.145447 495.582031 149.989258 C 504.811249 163.833069 509.425781 179.983948 509.425781 198.442383 C 509.425781 217.189209 504.811249 233.484314 495.582031 247.328125 C 486.352814 261.171936 475.032776 271.266235 461.621582 277.611328 C 448.210388 283.956421 434.006256 287.128906 419.008789 287.128906 C 376.900513 287.128906 339.118988 266.50769 305.663086 225.264648 C 304.221008 223.53418 302.778992 223.53418 301.336914 225.264648 C 267.881012 266.50769 229.955292 287.128906 187.558594 287.128906 C 172.561127 287.128906 158.356995 283.956421 144.945801 277.611328 C 131.534607 271.266235 120.214569 261.171936 110.985352 247.328125 C 101.756134 233.484314 97.141602 217.189209 97.141602 198.442383 C 97.141602 179.983948 101.756134 163.833069 110.985352 149.989258 C 120.214569 136.145447 131.534607 126.051147 144.945801 119.706055 C 158.356995 113.360962 172.561127 110.188477 187.558594 110.188477 C 229.955292 110.188477 267.881012 130.809692 301.336914 172.052734 Z M 127.424805 198.442383 C 127.424805 216.323975 133.265076 230.455994 144.945801 240.838867 C 156.626526 251.221741 170.686432 256.413086 187.125977 256.413086 C 221.735519 256.413086 253.316269 237.954926 281.869141 201.038086 C 283.311218 199.307617 283.311218 197.577148 281.869141 195.84668 C 253.027847 158.92984 221.447113 140.47168 187.125977 140.47168 C 170.686432 140.47168 156.626526 145.735138 144.945801 156.262207 C 133.265076 166.789276 127.424805 180.849182 127.424805 198.442383 Z M 325.130859 195.84668 C 324.265625 196.711914 323.833008 197.577148 323.833008 198.442383 C 323.833008 199.307617 324.265625 200.172852 325.130859 201.038086 C 353.106903 237.954926 384.687653 256.413086 419.874023 256.413086 C 436.025146 256.413086 449.940857 251.221741 461.621582 240.838867 C 473.302307 230.455994 479.142578 216.323975 479.142578 198.442383 C 479.142578 180.849182 473.302307 166.789276 461.621582 156.262207 C 449.940857 145.735138 436.025146 140.47168 419.874023 140.47168 C 384.976074 140.47168 353.395325 158.92984 325.130859 195.84668 Z"/>
    <g id="g2">
        <path id="path14" fill="#333549" stroke="none" d="M 353.041656 121.127655 C 337.492188 121.127655 324.872345 108.507813 324.872345 92.958344 C 324.872345 77.408875 337.492188 64.789001 353.041656 64.789001 C 368.591125 64.789001 381.210999 77.408875 381.210999 92.958344 C 381.210999 108.507813 368.591125 121.127655 353.041656 121.127655 Z M 353.041656 118.874115 C 367.464355 118.874115 378.957428 107.381012 378.957428 92.958344 C 378.957428 78.535645 367.464355 67.042542 353.041656 67.042542 C 338.618958 67.042542 327.125885 78.535645 327.125885 92.958344 C 327.125885 107.381012 338.618958 118.874115 353.041656 118.874115 Z"/>
        <path id="path15" fill="#b9beca" stroke="none" d="M 353.041656 136.902481 C 328.703369 136.902481 309.097504 117.296631 309.097504 92.958344 C 309.097504 68.620026 328.703369 49.014191 353.041656 49.014191 C 377.379974 49.014191 396.985809 68.620026 396.985809 92.958344 C 396.985809 117.296631 377.379974 136.902481 353.041656 136.902481 Z M 353.041656 121.127655 C 368.591125 121.127655 381.210999 108.507813 381.210999 92.958344 C 381.210999 77.408875 368.591125 64.789001 353.041656 64.789001 C 337.492188 64.789001 324.872345 77.408875 324.872345 92.958344 C 324.872345 108.507813 337.492188 121.127655 353.041656 121.127655 Z"/>
        <path id="path16" fill="#7dacff" stroke="none" d="M 353.041656 143.663116 C 325.097687 143.663116 302.336884 120.902298 302.336884 92.958344 C 302.336884 65.014343 325.097687 42.25354 353.041656 42.25354 C 380.985626 42.25354 403.74646 65.014343 403.74646 92.958344 C 403.74646 120.902298 380.985626 143.663116 353.041656 143.663116 Z M 353.041656 125.63475 C 371.070038 125.63475 385.718079 110.986694 385.718079 92.958344 C 385.718079 74.929962 371.070038 60.281921 353.041656 60.281921 C 335.013306 60.281921 320.365234 74.929962 320.365234 92.958344 C 320.365234 110.986694 335.013306 125.63475 353.041656 125.63475 Z"/>
        <path id="path17" fill="#ffeeb4" stroke="none" d="M 361.379791 72.901764 L 354.168427 87.775177 L 354.168427 59.380493 L 368.591125 72.225708 L 362.281219 72.225708 C 361.830505 72.225708 361.605133 72.45105 361.379791 72.901764 Z M 345.379608 112.564178 L 352.590942 97.690765 L 352.590942 126.085464 L 337.942902 113.240234 L 344.252838 113.240234 C 344.703552 113.240234 345.154266 113.014893 345.379608 112.564178 Z M 340.196442 75.83139 L 349.661346 89.578003 L 325.097687 75.380676 L 343.35141 69.296112 L 340.196442 74.70462 C 339.745758 74.929962 339.745758 75.606018 340.196442 75.83139 Z M 366.562958 109.634583 L 357.098053 95.887939 L 381.661713 110.085297 L 363.40799 116.169861 L 366.562958 110.761353 C 366.7883 110.536011 366.7883 110.085297 366.562958 109.634583 Z M 374.67572 89.803375 L 358.224823 91.155487 L 382.788483 76.95816 L 378.957428 95.887939 L 375.577118 90.254089 C 375.351776 89.803375 375.126404 89.578003 374.67572 89.803375 Z M 332.083679 95.662598 L 348.534576 94.310455 L 323.970917 108.733154 L 327.801941 89.803375 L 330.956909 95.211884 C 331.182281 95.662598 331.632965 95.887939 332.083679 95.662598 Z"/>
        <path id="path18" fill="#333549" stroke="none" d="M 353.041656 40 C 323.745575 40 300.083344 63.662231 300.083344 92.958344 C 300.083344 122.254425 323.745575 145.916656 353.041656 145.916656 C 382.337769 145.916656 406 122.254425 406 92.958344 C 406 63.662231 382.337769 40 353.041656 40 Z M 353.041656 143.663116 C 325.097687 143.663116 302.336884 120.902298 302.336884 92.958344 C 302.336884 65.014343 325.097687 42.25354 353.041656 42.25354 C 380.985626 42.25354 403.74646 65.014343 403.74646 92.958344 C 403.74646 120.902298 380.985626 143.663116 353.041656 143.663116 Z"/>
        <path id="path19" fill="#333549" stroke="none" d="M 327.125885 54.873413 C 330.280853 52.619873 333.886536 50.817017 337.71756 49.464905 C 338.393616 49.239532 338.618958 48.563477 338.393616 48.112762 C 338.168274 47.662048 337.266846 46.985992 336.816132 47.211365 C 332.985107 48.563477 329.154083 50.591675 325.773773 52.845215 C 325.323059 53.295929 325.097687 53.971985 325.548401 54.422699 C 325.773773 55.098755 326.449829 55.098755 327.125885 54.873413 Z M 341.323242 48.338135 C 341.999298 48.112762 342.450012 47.887421 342.900696 47.887421 C 343.576782 47.662048 343.802124 47.211365 343.802124 46.535278 C 343.576782 45.859222 343.126068 45.63385 342.450012 45.63385 C 341.999298 45.859222 341.323242 45.859222 340.872528 46.084564 C 340.196442 46.309937 339.9711 46.76062 339.9711 47.436707 C 340.196442 48.112762 340.872528 48.338135 341.323242 48.338135 Z M 387.746277 62.535461 C 388.196991 62.986176 388.873047 62.986176 389.323761 62.535461 C 389.774475 62.084747 389.774475 61.408691 389.323761 60.957977 C 388.196991 59.605835 387.070221 58.479065 385.718079 57.352295 C 385.267365 56.901581 384.591309 56.901581 384.140594 57.352295 C 383.68988 57.803009 383.68988 58.479065 384.140594 58.929779 C 385.718079 60.056549 386.844849 61.408691 387.746277 62.535461 Z M 381.887054 56.901581 C 382.337769 57.352295 383.013824 57.126953 383.464539 56.676239 C 383.915253 56.225525 383.68988 55.549469 383.239166 55.098755 C 382.56311 54.648041 382.112396 54.197327 381.43634 53.746643 C 380.985626 53.295929 380.30957 53.521271 379.858856 53.971985 C 379.408142 54.422699 379.633514 55.098755 380.084229 55.549469 C 380.760284 56.000183 381.43634 56.450897 381.887054 56.901581 Z M 322.618805 58.253723 C 323.069489 57.803009 323.745575 57.352295 324.196289 56.901581 C 324.646973 56.450897 324.872345 55.774811 324.421631 55.324127 C 323.970917 54.873413 323.294861 54.648041 322.844147 55.098755 C 322.168091 55.549469 321.717377 56.000183 321.041321 56.450897 C 320.590607 56.901581 320.590607 57.577667 321.041321 58.028381 C 321.492035 58.479065 322.168091 58.704437 322.618805 58.253723 Z M 318.562408 62.310089 C 319.013123 61.634033 319.689178 61.183319 320.139893 60.507263 C 320.590607 60.056549 320.590607 59.380493 320.139893 58.929779 C 319.689178 58.479065 319.013123 58.479065 318.562408 58.929779 C 317.886353 59.605835 317.435638 60.281921 316.759583 60.732635 C 316.308868 61.183319 316.308868 61.859406 316.759583 62.310089 C 317.210297 62.760803 318.111694 62.760803 318.562408 62.310089 Z M 396.084381 70.873566 C 395.633698 69.972168 395.182983 69.07074 394.506927 68.169342 C 394.281555 67.718628 393.605499 67.493256 392.929443 67.718628 C 392.478729 67.94397 392.253357 68.620026 392.478729 69.296112 C 392.929443 70.19751 393.605499 71.098938 394.056213 72.000366 C 394.281555 72.45105 394.957611 72.676422 395.633698 72.45105 C 396.309753 72.225708 396.535095 71.549652 396.084381 70.873566 Z M 385.718079 125.63475 C 383.68988 127.662933 381.43634 129.465775 379.1828 131.043259 C 378.732086 131.493973 378.506744 132.170029 378.957428 132.620743 C 379.408142 133.071457 380.084229 133.296799 380.534912 132.8461 C 383.013824 131.043259 385.267365 129.240433 387.520935 126.986877 C 387.971649 126.536163 387.971649 125.860107 387.520935 125.409393 C 386.844849 125.184036 386.168793 125.184036 385.718079 125.63475 Z M 376.027832 133.071457 C 375.351776 133.296799 374.901062 133.747513 374.225006 133.97287 C 373.774292 134.198227 373.54895 134.874283 373.774292 135.550354 C 373.999634 136.22641 374.67572 136.22641 375.351776 136.001068 C 376.027832 135.775711 376.478546 135.324997 377.154602 135.09964 C 377.605316 134.874283 377.830688 134.198227 377.605316 133.522156 C 377.379974 132.8461 376.478546 132.620743 376.027832 133.071457 Z M 353.041656 53.521271 C 331.182281 53.521271 313.604614 71.098938 313.604614 92.958344 C 313.604614 114.817734 331.182281 132.395386 353.041656 132.395386 C 374.901062 132.395386 392.478729 114.817734 392.478729 92.958344 C 392.478729 71.098938 374.901062 53.521271 353.041656 53.521271 Z M 384.816681 73.57785 C 384.591309 73.352478 384.140594 73.352478 383.68988 73.57785 L 380.534912 75.380676 C 380.30957 75.155304 380.30957 74.929962 380.084229 74.479248 C 379.858856 74.253906 379.633514 73.803192 379.408142 73.57785 C 378.957428 73.127136 378.506744 72.45105 378.281372 72.000366 C 378.05603 71.549652 377.605316 71.32428 377.379974 70.873566 L 376.027832 69.521454 C 375.577118 69.296112 375.351776 68.845398 374.901062 68.620026 C 374.450348 68.169342 373.999634 67.718628 373.54895 67.493256 C 373.098236 67.267914 372.872864 66.8172 372.42215 66.591858 C 371.971466 66.141144 371.520752 65.915771 370.844696 65.465088 C 370.393982 65.239716 369.943268 65.014343 369.717896 64.789001 C 369.267212 64.56366 368.591125 64.112946 368.140442 63.887573 L 366.7883 63.211517 C 366.337585 62.986176 365.66153 62.760803 365.210815 62.535461 C 364.760101 62.310089 364.309387 62.084747 363.858704 62.084747 C 363.40799 61.859406 362.731903 61.634033 362.281219 61.634033 C 362.055847 61.634033 361.830505 61.408691 361.605133 61.408691 L 361.379791 61.408691 C 360.703735 61.183319 360.253021 61.183319 359.576935 60.957977 L 354.168427 56.225525 C 353.943085 56.000183 353.717743 56.000183 353.492371 56.000183 C 366.562958 55.774811 378.281372 62.986176 384.816681 73.57785 Z M 383.239166 95.662598 L 383.239166 96.338654 C 383.239166 97.240082 383.013824 98.141479 382.788483 99.042908 L 382.788483 99.26825 C 382.56311 100.169678 382.337769 100.845734 382.112396 101.52179 C 382.112396 101.747162 382.112396 101.972504 381.887054 101.972504 C 381.661713 102.873932 381.210999 103.549988 380.985626 104.451416 C 380.985626 104.676788 380.760284 104.676788 380.760284 104.90213 C 380.534912 105.352844 380.30957 106.0289 380.084229 106.479614 L 366.562958 98.592194 C 367.239014 96.789368 367.689728 94.986511 367.689728 92.958344 L 367.689728 92.507629 L 373.999634 92.056915 L 378.281372 99.493622 C 378.732086 100.39505 380.084229 100.169678 380.30957 99.042908 L 382.788483 87.099121 C 382.788483 87.549835 383.013824 88.000519 383.013824 88.451233 C 383.013824 88.901947 383.239166 89.127289 383.239166 89.578003 C 383.464539 90.704773 383.464539 91.831573 383.464539 92.958344 C 383.464539 93.859741 383.464539 94.761169 383.239166 95.662598 Z M 372.196808 116.62056 C 371.746094 116.845917 371.29538 117.296631 371.070038 117.521988 C 370.619324 117.747345 370.393982 117.972687 369.943268 118.423401 C 369.492554 118.648758 369.04184 118.874115 368.591125 119.324814 C 368.140442 119.550171 367.689728 119.775528 367.464355 120.000885 L 366.112244 120.676956 L 364.760101 121.353012 C 364.309387 121.578369 364.084045 121.578369 363.633331 121.803726 C 363.182617 122.029083 362.506561 122.254425 362.055847 122.479782 C 361.830505 122.479782 361.379791 122.705139 361.154419 122.705139 C 360.478363 122.930496 359.802307 123.155853 359.126251 123.155853 L 358.450165 123.155853 C 357.774109 123.38121 356.872681 123.38121 356.196625 123.38121 L 355.069855 123.38121 L 355.069855 107.606384 C 357.323395 107.381012 359.351593 106.479614 361.154419 105.352844 L 364.53476 110.310638 L 360.027649 117.747345 C 359.576935 118.648758 360.478363 119.775528 361.379791 119.324814 L 373.774292 115.268448 C 373.54895 115.49379 373.323578 115.49379 373.098236 115.719147 L 372.196808 116.62056 Z M 341.548584 121.127655 C 341.548584 121.127655 341.323242 121.127655 341.323242 120.902298 L 338.618958 119.550171 C 338.168274 119.324814 337.942902 119.099472 337.492188 118.874115 C 337.041473 118.648758 336.59079 118.423401 336.140076 117.972687 C 335.689362 117.747345 335.46402 117.521988 335.013306 117.296631 C 334.562592 117.071274 334.111877 116.62056 333.661163 116.395203 C 333.435822 116.169861 332.985107 115.944504 332.759766 115.49379 C 332.309052 115.043076 331.858337 114.817734 331.407623 114.36702 C 331.182281 114.141663 330.956909 113.690948 330.506195 113.465607 C 330.055481 113.014893 329.830139 112.564178 329.379425 112.113464 C 329.154083 111.888123 328.928711 111.437408 328.703369 110.986694 C 328.478027 110.536011 328.027313 110.085297 327.801941 109.634583 C 327.576599 109.40921 327.576599 109.183868 327.351227 108.958496 L 341.09787 101.071106 C 342.450012 102.873932 344.027466 104.451416 346.055664 105.578186 L 343.576782 110.986694 L 335.013306 110.986694 C 333.886536 110.986694 333.435822 112.338837 334.337219 113.014893 L 344.027466 121.578369 L 344.027466 122.029083 C 343.126068 121.803726 342.22464 121.353012 341.548584 121.127655 Z M 322.844147 90.254089 L 322.844147 89.578003 C 322.844147 88.901947 323.069489 88.000519 323.294861 87.324463 L 323.294861 86.873749 C 323.520203 85.972351 323.745575 85.070923 323.970917 84.394867 C 323.970917 84.169495 324.196289 83.944153 324.196289 83.718781 L 324.872345 81.690613 C 324.872345 81.46524 325.097687 81.239899 325.097687 81.014526 C 325.323059 80.33847 325.773773 79.437042 326.224457 78.760986 L 339.9711 86.648407 C 338.84433 88.451233 338.393616 90.704773 338.393616 92.958344 L 332.534393 93.409058 L 328.252655 85.972351 C 327.801941 85.070923 326.449829 85.296265 326.224457 86.423035 L 323.745575 99.042908 L 323.294861 99.042908 C 323.069489 98.366852 323.069489 97.690765 323.069489 96.789368 C 323.069489 96.563995 323.069489 96.113281 322.844147 95.887939 C 322.844147 94.761169 322.618805 93.859741 322.618805 92.732971 C 322.618805 92.056915 322.618805 91.155487 322.844147 90.254089 Z M 324.872345 75.380676 L 325.773773 75.155304 C 325.548401 75.380676 325.548401 75.606018 325.548401 75.606018 L 324.872345 75.380676 Z M 334.111877 69.07074 C 334.562592 68.845398 335.013306 68.394684 335.46402 68.169342 C 335.914703 67.94397 336.140076 67.718628 336.59079 67.493256 C 337.041473 67.267914 337.492188 66.8172 337.942902 66.591858 C 338.393616 66.366486 338.618958 66.141144 339.069672 65.915771 C 339.520386 65.69043 339.9711 65.465088 340.647156 65.239716 C 341.09787 65.014343 341.323242 64.789001 341.773926 64.789001 C 342.22464 64.56366 342.900696 64.338287 343.35141 64.112946 C 343.802124 63.887573 344.027466 63.887573 344.47818 63.662231 C 344.928894 63.43689 345.60495 63.43689 346.055664 63.211517 C 346.506378 63.211517 346.73175 62.986176 347.182434 62.986176 C 347.858521 62.760803 348.534576 62.760803 348.985291 62.760803 C 349.436005 62.760803 349.661346 62.760803 350.112061 62.535461 L 351.914886 62.535461 L 351.914886 78.310272 C 349.661346 78.535645 347.633148 79.2117 345.830322 80.113129 L 342.450012 75.155304 L 346.73175 67.718628 C 347.182434 66.8172 346.281036 65.69043 345.379608 66.141144 L 332.759766 70.422882 L 333.210449 69.972168 L 334.111877 69.07074 Z M 364.760101 64.789001 C 365.210815 65.014343 365.66153 65.239716 365.886871 65.465088 L 367.239014 66.141144 C 367.689728 66.366486 368.140442 66.591858 368.365784 66.8172 C 368.816498 67.042542 369.267212 67.267914 369.717896 67.718628 C 370.16861 67.94397 370.393982 68.169342 370.844696 68.620026 C 371.29538 68.845398 371.746094 69.296112 371.971466 69.521454 C 372.42215 69.746796 372.647522 70.19751 373.098236 70.422882 L 374.225006 71.549652 L 375.126404 72.45105 L 376.253204 73.57785 C 376.478546 74.028534 376.92926 74.253906 377.154602 74.70462 C 377.379974 75.155304 377.830688 75.606018 378.05603 75.83139 C 378.281372 76.056732 378.506744 76.282104 378.506744 76.732788 L 364.760101 84.620209 C 363.633331 82.817383 362.055847 81.46524 360.027649 80.33847 L 362.731903 74.479248 L 371.29538 74.479248 C 372.42215 74.479248 372.872864 73.127136 371.971466 72.45105 L 362.731903 64.338287 C 363.633331 64.56366 364.309387 64.56366 364.760101 64.789001 Z M 381.43634 82.366669 L 381.210999 83.718781 L 378.732086 84.394867 L 380.760284 80.563812 C 380.985626 81.014526 381.210999 81.690613 381.43634 82.366669 Z M 369.717896 110.310638 L 372.42215 113.240234 L 363.40799 116.169861 L 366.562958 110.761353 C 366.7883 110.310638 366.7883 109.859924 366.562958 109.634583 L 362.731903 104.000702 C 363.858704 103.099304 364.760101 101.972504 365.436157 100.845734 L 378.281372 108.28244 L 370.393982 108.507813 C 369.492554 108.507813 369.04184 109.634583 369.717896 110.310638 Z M 345.830322 115.719147 L 344.703552 119.324814 L 337.942902 113.240234 L 344.252838 113.240234 C 344.703552 113.240234 345.154266 113.014893 345.379608 112.564178 L 348.309235 106.704956 C 349.661346 107.15567 351.238831 107.381012 352.590942 107.606384 L 352.590942 122.705139 L 348.083862 115.49379 C 347.407806 114.592377 346.055664 114.817734 345.830322 115.719147 Z M 329.154083 97.916138 L 325.999115 98.592194 L 327.801941 89.803375 L 330.956909 95.211884 C 331.182281 95.662598 331.632965 95.887939 332.083679 95.662598 L 338.618958 95.211884 C 338.84433 96.789368 339.295044 98.141479 339.9711 99.493622 L 326.449829 107.381012 L 330.506195 99.493622 C 330.956909 98.592194 330.280853 97.690765 329.154083 97.916138 Z M 336.365417 74.479248 L 334.111877 72.225708 L 343.126068 69.296112 L 339.9711 74.70462 C 339.745758 75.155304 339.745758 75.606018 339.9711 75.83139 L 343.802124 81.46524 C 342.675354 82.366669 341.773926 83.493439 340.872528 84.620209 L 327.125885 76.732788 L 335.46402 76.282104 C 336.59079 76.282104 337.041473 75.155304 336.365417 74.479248 Z M 360.253021 69.07074 L 361.379791 65.69043 L 368.816498 72.225708 L 362.506561 72.225708 C 362.055847 72.225708 361.605133 72.45105 361.379791 72.901764 L 358.224823 79.437042 C 356.872681 78.986359 355.520569 78.535645 354.168427 78.535645 L 354.168427 63.211517 L 358.224823 69.521454 C 358.675537 70.19751 360.027649 69.972168 360.253021 69.07074 Z M 357.999481 90.930145 L 364.084045 87.324463 C 364.53476 88.225891 364.985443 89.352661 365.210815 90.254089 L 357.999481 90.930145 Z M 365.436157 92.732971 L 365.436157 92.958344 C 365.436157 94.535828 365.210815 96.113281 364.53476 97.465424 L 357.098053 93.183685 L 365.436157 92.732971 Z M 355.745911 89.803375 L 359.351593 82.366669 C 360.703735 83.268097 362.055847 84.394867 362.957275 85.521637 L 355.745911 89.803375 Z M 352.590942 105.352844 C 351.464172 105.352844 350.337402 105.127472 349.210632 104.676788 L 352.590942 97.690765 L 352.590942 105.352844 Z M 351.914886 89.127289 L 347.182434 82.141296 C 348.534576 81.239899 350.337402 80.789185 351.914886 80.563812 L 351.914886 89.127289 Z M 349.436005 89.578003 L 342.900696 85.746979 C 343.576782 84.845581 344.252838 83.944153 345.154266 83.268097 L 349.436005 89.578003 Z M 341.773926 87.775177 L 349.436005 92.282257 L 340.647156 92.958344 C 340.647156 90.930145 341.09787 89.352661 341.773926 87.775177 Z M 348.534576 94.535828 L 341.773926 98.366852 C 341.323242 97.240082 340.872528 96.338654 340.647156 94.986511 L 348.534576 94.535828 Z M 351.013489 95.662598 L 347.182434 103.77536 C 345.60495 102.873932 344.252838 101.747162 343.126068 100.169678 L 351.013489 95.662598 Z M 354.168427 80.563812 C 355.295197 80.563812 356.196625 81.014526 357.323395 81.239899 L 354.168427 87.775177 L 354.168427 80.563812 Z M 354.844513 96.338654 L 359.802307 103.549988 C 358.450165 104.451416 356.647339 105.127472 354.844513 105.352844 L 354.844513 96.338654 Z M 357.323395 95.887939 L 363.633331 99.493622 C 362.957275 100.39505 362.281219 101.296448 361.605133 101.972504 L 357.323395 95.887939 Z M 376.92926 86.873749 L 380.760284 85.972351 L 378.732086 95.662598 L 375.577118 90.254089 C 375.351776 89.803375 374.901062 89.578003 374.450348 89.803375 L 367.239014 90.254089 C 367.013641 88.901947 366.562958 87.549835 365.886871 86.423035 L 378.732086 78.986359 L 375.577118 85.296265 C 375.126404 86.197693 375.80249 87.099121 376.92926 86.873749 Z M 359.351593 64.112946 L 358.675537 66.141144 L 356.647339 62.760803 C 357.098053 62.760803 357.774109 62.986176 358.224823 62.986176 L 359.351593 64.112946 Z M 354.619141 60.281921 L 354.168427 60.281921 L 354.168427 59.380493 L 355.295197 60.507263 C 355.069855 60.281921 354.844513 60.281921 354.619141 60.281921 Z M 331.858337 72.901764 L 332.985107 74.253906 L 328.928711 74.479248 C 329.154083 74.253906 329.154083 74.028534 329.379425 73.803192 L 331.858337 72.901764 Z M 325.548401 101.071106 L 327.351227 100.620392 L 325.097687 104.90213 C 325.097687 104.676788 324.872345 104.676788 324.872345 104.451416 L 325.548401 101.071106 Z M 324.196289 108.28244 C 324.196289 108.507813 324.421631 108.507813 324.421631 108.507813 L 323.970917 108.733154 L 324.196289 108.28244 Z M 346.73175 120.902298 L 347.407806 118.648758 L 350.337402 123.155853 C 349.886688 123.155853 349.661346 123.155853 349.210632 122.930496 L 346.73175 120.902298 Z M 352.140259 125.63475 L 352.590942 125.63475 L 352.590942 126.085464 L 352.140259 125.63475 C 351.914886 125.63475 352.140259 125.63475 352.140259 125.63475 Z M 374.901062 112.564178 L 373.098236 110.536011 L 378.05603 110.310638 C 377.605316 110.761353 377.379974 111.212067 376.92926 111.66275 L 374.901062 112.564178 Z M 380.985626 109.859924 C 380.985626 109.859924 380.985626 109.634583 380.985626 109.859924 L 381.887054 110.310638 L 380.534912 110.761353 C 380.760284 110.310638 380.760284 110.085297 380.985626 109.859924 Z M 381.661713 77.408875 L 382.56311 76.95816 L 382.337769 78.535645 C 382.112396 78.08493 381.887054 77.634216 381.661713 77.408875 Z M 353.041656 130.141846 C 332.534393 130.141846 315.858154 113.465607 315.858154 92.958344 C 315.858154 72.45105 332.534393 55.774811 353.041656 55.774811 L 353.267029 55.774811 C 352.590942 55.774811 351.914886 56.225525 351.914886 56.901581 L 351.914886 60.281921 L 349.661346 60.281921 C 349.210632 60.281921 348.759918 60.507263 348.309235 60.507263 C 347.633148 60.507263 346.957092 60.732635 346.281036 60.732635 C 345.830322 60.732635 345.379608 60.957977 344.928894 61.183319 C 344.252838 61.408691 343.802124 61.408691 343.126068 61.634033 C 342.675354 61.859406 342.22464 61.859406 341.773926 62.084747 C 341.323242 62.310089 340.647156 62.535461 340.196442 62.760803 L 338.84433 63.43689 C 338.393616 63.662231 337.71756 63.887573 337.266846 64.112946 L 335.914703 64.789001 C 335.46402 65.014343 335.013306 65.465088 334.562592 65.69043 C 334.111877 65.915771 333.661163 66.366486 333.435822 66.591858 C 332.985107 66.8172 332.534393 67.267914 332.083679 67.493256 C 331.632965 67.94397 331.182281 68.169342 330.956909 68.620026 L 330.055481 69.521454 C 329.379425 70.19751 328.703369 71.098938 328.027313 71.774994 L 321.717377 73.803192 C 320.815948 74.028534 320.590607 75.380676 321.492035 75.83139 L 324.196289 77.408875 L 324.196289 77.634216 C 323.745575 78.310272 323.520203 78.986359 323.294861 79.662415 C 323.069489 79.887756 323.069489 80.113129 323.069489 80.563812 C 322.844147 81.239899 322.618805 81.915955 322.168091 82.817383 C 322.168091 83.042725 321.942719 83.268097 321.942719 83.268097 C 321.492035 84.394867 321.266663 85.296265 321.041321 86.197693 C 321.041321 86.423035 321.041321 86.648407 320.815948 86.873749 C 320.590607 87.549835 320.590607 88.451233 320.365234 89.127289 L 320.365234 90.028717 C 320.365234 90.930145 320.139893 92.056915 320.139893 92.958344 C 320.139893 94.310455 320.139893 95.437225 320.365234 96.563995 C 320.365234 97.014709 320.590607 97.240082 320.590607 97.690765 C 320.815948 98.592194 320.815948 99.26825 321.041321 100.169678 L 321.041321 100.845734 C 321.266663 101.972504 321.717377 103.324646 322.168091 104.451416 L 321.041321 110.536011 C 320.815948 111.437408 321.942719 112.113464 322.618805 111.66275 L 325.097687 110.310638 C 325.323059 110.536011 325.323059 110.761353 325.548401 110.986694 L 326.900543 113.014893 C 327.125885 113.240234 327.125885 113.465607 327.351227 113.690948 C 328.027313 114.592377 328.703369 115.268448 329.604797 116.169861 L 330.280853 116.845917 C 330.956909 117.296631 331.407623 117.972687 332.083679 118.423401 C 332.309052 118.648758 332.759766 118.874115 332.985107 119.099472 C 333.435822 119.550171 334.111877 120.000885 334.562592 120.226242 C 335.013306 120.451599 335.238647 120.676956 335.689362 120.902298 C 336.140076 121.127655 336.816132 121.578369 337.266846 121.803726 L 338.618958 122.479782 C 339.295044 122.705139 339.745758 122.930496 340.421814 123.155853 C 340.872528 123.38121 341.323242 123.38121 341.773926 123.606567 C 342.450012 123.831909 342.900696 124.057266 343.576782 124.282623 C 343.802124 124.282623 344.027466 124.50798 344.027466 124.50798 L 344.252838 124.50798 C 345.379608 124.733322 346.506378 124.958694 347.858521 125.184036 L 352.590942 129.465775 C 353.267029 130.141846 354.393799 129.691132 354.393799 128.564362 L 354.393799 125.63475 L 355.971283 125.63475 C 356.872681 125.63475 357.548767 125.409393 358.450165 125.184036 C 358.675537 125.184036 358.900879 125.184036 359.126251 124.958694 C 361.154419 124.50798 363.40799 123.831909 365.210815 123.155853 C 365.436157 122.930496 365.886871 122.930496 366.112244 122.705139 C 366.7883 122.479782 367.464355 122.029083 368.140442 121.803726 C 368.591125 121.578369 369.04184 121.353012 369.267212 121.127655 C 369.717896 120.902298 370.393982 120.451599 370.844696 120.226242 C 371.29538 120.000885 371.520752 119.775528 371.971466 119.324814 C 372.42215 118.874115 372.872864 118.648758 373.323578 118.198044 C 373.774292 117.972687 373.999634 117.521988 374.225006 117.296631 L 375.577118 115.944504 L 375.80249 115.719147 C 376.478546 115.043076 377.154602 114.36702 377.605316 113.690948 L 384.140594 111.437408 C 385.042023 111.212067 385.267365 109.859924 384.365967 109.40921 L 381.43634 107.831726 C 381.661713 107.15567 382.112396 106.479614 382.337769 105.803528 L 382.337769 105.578186 C 382.56311 104.676788 383.013824 104.000702 383.239166 103.099304 C 383.239166 102.873932 383.464539 102.64859 383.464539 102.423218 L 384.140594 99.718964 C 384.365967 98.817566 384.365967 97.916138 384.591309 96.789368 L 384.591309 96.113281 C 384.591309 95.211884 384.816681 94.085114 384.816681 93.183685 C 384.816681 92.282257 384.816681 91.155487 384.591309 90.254089 L 384.591309 89.578003 C 384.591309 88.676605 384.365967 88.000519 384.140594 87.099121 L 384.140594 86.648407 C 383.915253 85.972351 383.68988 85.070923 383.464539 84.394867 L 383.464539 84.169495 C 383.239166 83.493439 383.013824 83.042725 383.013824 82.366669 L 384.591309 74.929962 L 384.591309 74.70462 C 387.746277 80.113129 389.549103 86.423035 389.549103 93.183685 C 390.225189 113.465607 373.54895 130.141846 353.041656 130.141846 Z"/>
        <path id="path20" fill="#b9beca" stroke="none" d="M 353.041656 105.352844 C 359.802307 105.352844 365.436157 99.718964 365.436157 92.958344 C 365.436157 86.197693 359.802307 80.563812 353.041656 80.563812 C 346.281036 80.563812 340.647156 86.197693 340.647156 92.958344 C 340.647156 99.718964 346.281036 105.352844 353.041656 105.352844 Z"/>
        <path id="path21" fill="#ffeeb4" stroke="none" d="M 353.041656 100.845734 C 357.323395 100.845734 360.929077 97.240082 360.929077 92.958344 C 360.929077 88.676605 357.323395 85.070923 353.041656 85.070923 C 348.759918 85.070923 345.154266 88.676605 345.154266 92.958344 C 345.154266 97.240082 348.759918 100.845734 353.041656 100.845734 Z"/>
        <path id="path22" fill="#333549" stroke="none" d="M 353.041656 103.099304 C 347.407806 103.099304 342.900696 98.592194 342.900696 92.958344 C 342.900696 87.324463 347.407806 82.817383 353.041656 82.817383 C 358.675537 82.817383 363.182617 87.324463 363.182617 92.958344 C 363.182617 98.592194 358.675537 103.099304 353.041656 103.099304 Z M 353.041656 100.845734 C 357.323395 100.845734 360.929077 97.240082 360.929077 92.958344 C 360.929077 88.676605 357.323395 85.070923 353.041656 85.070923 C 348.759918 85.070923 345.154266 88.676605 345.154266 92.958344 C 345.154266 97.240082 348.759918 100.845734 353.041656 100.845734 Z"/>
        <path id="path23" fill="#ffeeb4" stroke="none" d="M 353.041656 130.141846 C 373.54895 130.141846 390.225189 113.465607 390.225189 92.958344 C 390.225189 72.45105 373.54895 55.774811 353.041656 55.774811 C 332.534393 55.774811 315.858154 72.45105 315.858154 92.958344 C 315.858154 113.465607 332.534393 130.141846 353.041656 130.141846 Z M 376.478546 114.141663 C 376.92926 114.592377 376.92926 115.268448 376.478546 115.719147 C 370.393982 122.029083 362.055847 125.63475 353.041656 125.63475 L 352.365601 125.63475 C 351.914886 125.63475 351.689545 125.409393 351.464172 125.184036 L 347.407806 118.874115 L 345.830322 123.831909 C 345.60495 124.50798 345.154266 124.733322 344.47818 124.50798 C 335.689362 122.029083 328.252655 116.169861 324.196289 108.057098 C 323.970917 107.831726 323.970917 107.381012 324.196289 106.930328 L 327.576599 100.620392 L 322.844147 101.747162 C 322.168091 101.972504 321.717377 101.52179 321.492035 100.845734 C 320.815948 98.366852 320.590607 95.662598 320.590607 92.958344 C 320.590607 86.423035 322.393433 80.33847 325.999115 75.155304 C 326.224457 74.929962 326.449829 74.70462 326.900543 74.70462 L 333.435822 74.479248 L 330.506195 71.32428 C 330.055481 70.873566 330.055481 70.19751 330.506195 69.746796 C 336.365417 63.662231 344.47818 60.281921 353.041656 60.281921 L 354.619141 60.281921 C 355.069855 60.281921 355.295197 60.507263 355.520569 60.732635 L 358.900879 65.915771 L 360.027649 61.859406 C 360.253021 61.183319 360.703735 60.957977 361.379791 61.183319 C 370.16861 63.43689 377.379974 69.296112 381.887054 77.183502 C 382.112396 77.408875 382.112396 77.859589 381.887054 78.310272 L 378.957428 84.169495 L 383.464539 83.042725 C 384.140594 82.817383 384.591309 83.268097 384.816681 83.718781 C 385.718079 86.648407 386.168793 89.578003 386.168793 92.732971 C 386.168793 98.592194 384.591309 104.451416 381.661713 109.40921 C 381.43634 109.634583 381.210999 109.859924 380.760284 109.859924 L 373.54895 110.085297 L 376.478546 114.141663 Z"/>
    </g>
    <path id="-" fill="#fedfa0" stroke="none" d="M 277.268402 81.571106 L 283.191345 61.209778 C 283.783417 59.612885 282.82135 58.197876 281.09845 58.208618 L 280.7099 58.25415 C 279.206696 58.048218 277.499908 59.393738 277.076691 61.161835 L 271.153717 81.523132 C 270.561676 83.120056 271.523712 84.535034 273.246643 84.524292 L 273.635193 84.47879 C 275.138397 84.684723 276.845184 83.339203 277.268402 81.571106 Z M 287.904205 92.355865 L 296.602509 62.503998 C 297.19455 60.907074 296.232513 59.492096 294.509583 59.502838 L 294.121033 59.54834 C 292.617798 59.342407 290.911041 60.687958 290.487823 62.456024 L 281.789551 92.307892 C 281.197479 93.904816 282.159546 95.319794 283.882446 95.309052 L 284.270996 95.26355 C 285.774231 95.469482 287.480988 94.123962 287.904205 92.355865 Z"/>
    <path id="path24" fill="#000000" fill-opacity="0.245494" fill-rule="evenodd" stroke="none" d="M 443 292 C 443 276.536011 378.976715 264 300 264 C 221.023285 264 157 276.536011 157 292 C 157 307.463989 221.023285 320 300 320 C 378.976715 320 443 307.463989 443 292 Z"/>
</svg>
