<?xml version="1.0" encoding="UTF-8"?>
<!-- Generated by Pixelmator Pro 3.7.1 -->
<svg width="80" height="80" viewBox="0 0 80 80" xmlns="http://www.w3.org/2000/svg">
    <g id="-">
        <path id="path1" fill="#15181f" fill-rule="evenodd" stroke="none" d="M 27.506754 43.000992 L 27.506754 56.001743 C 27.506754 57.768089 28.93866 59.200001 30.705011 59.200001 L 49.09499 59.200001 C 50.86134 59.200001 52.293247 57.768089 52.293247 56.001743 L 52.293247 43.000992 C 52.954903 39.641212 55.602001 36.994118 58.961777 36.332462 L 73.401741 36.332462 C 75.168091 36.332462 76.599998 34.900555 76.599998 33.134205 L 76.599998 24.179085 C 76.599998 22.412739 75.168091 20.980827 73.401741 20.980827 L 6.398257 20.980827 C 4.631908 20.980827 3.2 22.412739 3.2 24.179085 L 3.2 33.134205 C 3.2 34.900555 4.631908 36.332462 6.398257 36.332462 L 20.838224 36.332462 C 24.198002 36.994118 26.845098 39.641212 27.506754 43.000992 Z M 34.542919 44.408062 C 34.542919 42.862507 33.289997 41.609585 31.744444 41.609585 C 30.198891 41.609585 28.945969 42.862507 28.945969 44.408062 C 28.945969 45.953617 30.198891 47.206535 31.744444 47.206535 C 33.289997 47.206535 34.542919 45.953617 34.542919 44.408062 Z M 48.215469 41.609585 C 49.761024 41.609585 51.013943 42.862507 51.013943 44.408062 C 51.013943 45.953617 49.761024 47.206535 48.215469 47.206535 C 46.669914 47.206535 45.416992 45.953617 45.416992 44.408062 C 45.416992 42.862507 46.669914 41.609585 48.215469 41.609585 Z"/>
        <path id="--2" fill="#ffffff" fill-rule="evenodd" stroke="none" d="M 27.506754 51.684097 L 27.506754 43.000992 C 26.845098 39.641212 24.198002 36.994118 20.838224 36.332462 L 58.961777 36.332462 C 55.602001 36.994118 52.954903 39.641212 52.293247 43.000992 L 52.293247 51.684097 L 27.506754 51.684097 Z M 34.542919 44.408062 C 34.542919 42.862507 33.290001 41.609585 31.744444 41.609585 C 30.198889 41.609585 28.945969 42.862507 28.945969 44.408062 C 28.945969 45.953617 30.198889 47.206535 31.744444 47.206535 C 33.290001 47.206535 34.542919 45.953617 34.542919 44.408062 Z M 48.215469 41.609585 C 49.761024 41.609585 51.013943 42.862507 51.013943 44.408062 C 51.013943 45.953617 49.761024 47.206535 48.215469 47.206535 C 46.669914 47.206535 45.416992 45.953617 45.416992 44.408062 C 45.416992 42.862507 46.669914 41.609585 48.215469 41.609585 Z"/>
        <g id="g4-">
            <path id="path5" fill="none" stroke="#bebcb8" stroke-width="0.536988" stroke-linecap="round" stroke-linejoin="round" d="M 36.941612 53.123314 L 36.941612 49.765144"/>
            <path id="path2" fill="none" stroke="#bebcb8" stroke-width="0.536988" stroke-linecap="round" stroke-linejoin="round" d="M 39.020481 53.123314 L 39.020481 49.765144"/>
            <path id="path3" fill="none" stroke="#bebcb8" stroke-width="0.536988" stroke-linecap="round" stroke-linejoin="round" d="M 41.099346 53.123314 L 41.099346 49.765144"/>
            <path id="--3" fill="none" stroke="#bebcb8" stroke-width="0.536988" stroke-linecap="round" stroke-linejoin="round" d="M 43.018299 53.123314 L 43.018299 49.765144"/>
            <path id="path6" fill="#f1ebd3" fill-rule="evenodd" stroke="none" d="M 46.216557 59.200001 L 46.216557 52.003922 L 33.743355 52.003922 L 33.743355 59.200001 Z"/>
        </g>
        <g id="g8-">
            <path id="--8" fill="none" stroke="#bebcb8" stroke-width="0.178996" stroke-linecap="round" stroke-linejoin="round" d="M 43.817863 27.537254 L 43.817863 26.897602"/>
            <path id="--9" fill="none" stroke="#bebcb8" stroke-width="0.178996" stroke-linecap="round" stroke-linejoin="round" d="M 44.457516 27.537254 L 44.457516 26.897602"/>
            <path id="--10" fill="none" stroke="#bebcb8" stroke-width="0.178996" stroke-linecap="round" stroke-linejoin="round" d="M 45.097168 27.537254 L 45.097168 26.897602"/>
            <path id="--11" fill="none" stroke="#bebcb8" stroke-width="0.178996" stroke-linecap="round" stroke-linejoin="round" d="M 45.73682 27.537254 L 45.73682 26.897602"/>
            <path id="--15" fill="none" stroke="#bebcb8" stroke-width="0.178996" stroke-linecap="round" stroke-linejoin="round" d="M 43.817863 31.215252 L 43.817863 30.5756"/>
            <path id="--14" fill="none" stroke="#bebcb8" stroke-width="0.178996" stroke-linecap="round" stroke-linejoin="round" d="M 44.457516 31.215252 L 44.457516 30.5756"/>
            <path id="--13" fill="none" stroke="#bebcb8" stroke-width="0.178996" stroke-linecap="round" stroke-linejoin="round" d="M 45.097168 31.215252 L 45.097168 30.5756"/>
            <path id="--12" fill="none" stroke="#bebcb8" stroke-width="0.178996" stroke-linecap="round" stroke-linejoin="round" d="M 45.73682 31.215252 L 45.73682 30.5756"/>
            <path id="path9" fill="none" stroke="#bebcb8" stroke-width="0.178996" stroke-linecap="round" stroke-linejoin="round" d="M 43.178215 30.09586 L 42.538563 30.09586"/>
            <path id="path10" fill="none" stroke="#bebcb8" stroke-width="0.178996" stroke-linecap="round" stroke-linejoin="round" d="M 43.178215 29.456207 L 42.538563 29.456207"/>
            <path id="path11" fill="none" stroke="#bebcb8" stroke-width="0.178996" stroke-linecap="round" stroke-linejoin="round" d="M 43.178215 28.816559 L 42.538563 28.816559"/>
            <path id="path12" fill="none" stroke="#bebcb8" stroke-width="0.178996" stroke-linecap="round" stroke-linejoin="round" d="M 43.178215 28.176907 L 42.538563 28.176907"/>
            <path id="path13" fill="none" stroke="#bebcb8" stroke-width="0.178996" stroke-linecap="round" stroke-linejoin="round" d="M 46.856209 30.09586 L 46.216557 30.09586"/>
            <path id="path14" fill="none" stroke="#bebcb8" stroke-width="0.178996" stroke-linecap="round" stroke-linejoin="round" d="M 46.856209 29.456207 L 46.216557 29.456207"/>
            <path id="path15" fill="none" stroke="#bebcb8" stroke-width="0.178996" stroke-linecap="round" stroke-linejoin="round" d="M 46.856209 28.816559 L 46.216557 28.816559"/>
            <path id="path16" fill="none" stroke="#bebcb8" stroke-width="0.178996" stroke-linecap="round" stroke-linejoin="round" d="M 46.856209 28.176907 L 46.216557 28.176907"/>
            <path id="path17" fill="#292d2f" fill-rule="evenodd" stroke="none" d="M 46.216557 30.5756 L 46.216557 27.537254 L 43.178215 27.537254 L 43.178215 30.5756 Z"/>
        </g>
    </g>
</svg>
