<?xml version="1.0" encoding="UTF-8"?>
<!-- Generated by Pixelmator Pro 3.7 -->
<svg width="80" height="80" viewBox="0 0 80 80" xmlns="http://www.w3.org/2000/svg">
    <path id="path1" fill="#000000" stroke="#000000" stroke-width="2" d="M 64.166664 60.833336 C 64.166664 58.992386 62.674286 57.5 60.833336 57.5 L 19.166666 57.5 C 14.564609 57.499557 10.834139 53.768726 10.834139 49.166664 C 10.834139 44.56461 14.564609 40.833778 19.166666 40.833336 L 32.126667 40.833336 L 32.383331 40.846668 C 33.657383 40.978783 34.625481 42.052452 34.625481 43.333336 C 34.625481 44.614216 33.657383 45.687889 32.383331 45.82 L 32.126667 45.833336 L 19.166666 45.833336 C 17.975658 45.833149 16.875046 46.468437 16.279491 47.499855 C 15.683934 48.531265 15.683934 49.802071 16.279491 50.833485 C 16.875046 51.864891 17.975658 52.500179 19.166666 52.5 L 60.833336 52.5 C 65.435387 52.500443 69.165855 56.231274 69.165855 60.833336 C 69.165855 65.435394 65.435387 69.166222 60.833336 69.166664 L 32.379997 69.166664 C 30.999289 69.166664 29.879999 68.047379 29.879999 66.666664 C 29.879999 65.285957 30.999289 64.166664 32.379997 64.166664 L 60.833336 64.166664 C 62.674286 64.166664 64.166664 62.674286 64.166664 60.833336 Z"/>
    <g id="g1">
        <path id="path2" fill="#b51700" stroke="none" d="M 66.642166 14.690765 L 63.585464 14.690765 L 63.585464 30.018867 C 63.585464 37.069347 57.829063 42.80344 50.711651 42.80344 C 43.594231 42.80344 37.837826 37.09166 37.837826 30.018867 L 37.837826 14.690765 L 34.825752 14.690765 C 34.111782 14.690765 33.531681 14.110664 33.531681 13.418999 C 33.531681 12.705032 34.111782 12.147232 34.825752 12.147232 L 66.575233 12.147232 C 67.2892 12.124924 67.869308 12.705032 67.869308 13.396683 C 67.869308 14.088348 67.35614 14.668449 66.642166 14.690765 Z M 40.42598 29.171024"/>
        <path id="path3" fill="#fe968d" stroke="none" d="M 66.664482 45.83783 C 66.151314 46.350994 65.325783 46.350994 64.812614 45.83783 L 60.684959 41.754795 C 61.354309 41.197002 61.956718 40.594589 62.536827 39.947552 L 66.664482 44.030582 C 67.155334 44.521439 67.155334 45.324661 66.664482 45.83783 Z M 50.733959 52.598255 C 50.019989 52.598255 49.439888 52.018154 49.439888 51.326492 L 49.439888 45.302349 C 49.863808 45.34697 50.287727 45.369282 50.711651 45.369282 C 51.157883 45.369282 51.581806 45.34697 52.005726 45.302349 L 52.005726 51.326492 C 52.005726 52.040466 51.447933 52.620567 50.733959 52.598255 Z M 34.937313 46.105568 C 34.446457 45.614712 34.424145 44.811489 34.937313 44.298321 L 39.109592 40.148357 C 39.667385 40.795395 40.29211 41.375496 40.96146 41.910976 L 36.766869 46.083256 C 36.2537 46.618736 35.450481 46.618736 34.937313 46.105568 Z M 71.751534 31.736866 L 66.084373 31.736866 C 66.151314 31.201385 66.173622 30.665905 66.173622 30.130424 L 66.173622 29.171024 L 71.751534 29.171024 C 72.465508 29.171024 73.045609 29.751129 73.045609 30.442787 C 73.0233 31.156761 72.443199 31.736866 71.751534 31.736866 Z M 28.4 30.442787 C 28.4 29.728817 28.980103 29.171024 29.694077 29.171024 L 35.271988 29.171024 L 35.271988 30.130424 C 35.271988 30.665905 35.2943 31.201385 35.361237 31.736866 L 29.694077 31.736866 C 28.980103 31.736866 28.4 31.156761 28.4 30.442787 Z M 54.593876 30.04118 L 49.953053 30.04118 L 52.742008 32.830135 C 53.232864 33.320992 53.255177 34.12421 52.742008 34.637379 C 52.22884 35.128235 51.425625 35.128235 50.912457 34.637379 L 46.048515 29.818062 C 45.557659 29.327209 45.535347 28.523987 46.048515 28.010818 C 46.293941 27.765392 46.628616 27.653835 46.963291 27.653835 L 51.604115 27.653835 L 48.815159 24.864876 C 48.324303 24.37402 48.301991 23.570801 48.815159 23.057632 C 49.328327 22.566776 50.131546 22.566776 50.644714 23.057632 L 55.508656 27.876949 C 55.999512 28.367805 56.021824 29.171024 55.508656 29.684193 C 55.285538 29.907307 54.950863 30.04118 54.593876 30.04118 Z"/>
        <path id="path4" fill="#fedfa0" stroke="none" d="M 45.691528 35.819897 L 44.732128 34.481197 C 44.665192 34.36964 44.50901 34.347328 44.397453 34.436573 L 44.375141 34.458885 C 44.263584 34.525822 44.241272 34.682003 44.330517 34.79356 L 45.289917 36.132259 C 45.356853 36.243816 45.513035 36.266129 45.624592 36.176884 L 45.646904 36.154572 C 45.758461 36.087635 45.780777 35.931454 45.691528 35.819897 Z M 47.097164 35.819897 L 45.691528 33.856472 C 45.624592 33.744911 45.468414 33.722599 45.356853 33.811848 L 45.334541 33.83416 C 45.222984 33.901096 45.200672 34.057278 45.289917 34.168835 L 46.695553 36.132259 C 46.762489 36.243816 46.918671 36.266129 47.030228 36.176884 L 47.05254 36.154572 C 47.164097 36.087635 47.186409 35.931454 47.097164 35.819897 Z"/>
    </g>
</svg>
