<?xml version="1.0" encoding="UTF-8"?>
<!-- Generated by Pixelmator Pro 3.8 -->
<svg width="600" height="370" viewBox="0 0 600 370" xmlns="http://www.w3.org/2000/svg">
    <g id="g1">
        <path id="path1" fill="#99a2e4" stroke="none" d="M -3e-05 370 L -3e-05 0 L 600 0 L 600 370 Z"/>
        <g id="g2">
            <path id="path2" fill="#000000" fill-opacity="0.135356" stroke="none" d="M 572.603088 93.799988 C 567.138245 76.110291 556.497375 65.358826 538.800049 60.003082 C 556.446716 54.613495 567.187439 43.838989 572.603088 26.200012 C 577.952698 43.719147 588.656555 54.395325 606.400024 60.003082 C 588.66272 65.358826 578.004944 75.990479 572.603088 93.799988 Z"/>
            <path id="path3" fill="#000000" fill-opacity="0.135356" stroke="none" d="M 132.102844 302.799988 C 127.042206 286.418701 117.188393 276.462463 100.799988 271.502838 C 117.141441 266.511932 127.08773 256.534332 132.102844 240.199997 C 137.056778 256.42337 146.968918 266.309906 163.399994 271.502838 C 146.974594 276.462463 137.105148 286.307739 132.102844 302.799988 Z"/>
            <path id="path4" fill="#000000" fill-opacity="0.135356" stroke="none" d="M 22.102659 258.799988 C 17.365389 243.465454 8.141211 234.145386 -7.2 229.502655 C 8.09726 224.830627 17.408009 215.490601 22.102659 200.199997 C 26.740059 215.386719 36.018818 224.641525 51.399998 229.502655 C 36.024151 234.14537 26.785349 243.361572 22.102659 258.799988 Z"/>
            <path id="path5" fill="#000000" fill-opacity="0.135356" stroke="none" d="M 528.60321 206.799988 C 522.976685 188.586929 512.020996 177.51738 493.799988 172.003159 C 511.96875 166.454132 523.027283 155.360855 528.60321 137.199997 C 534.111084 155.237473 545.131592 166.229523 563.400024 172.003159 C 545.137939 177.51738 534.164856 188.463562 528.60321 206.799988 Z"/>
            <path id="path6" fill="#000000" fill-opacity="0.135356" stroke="none" d="M 135.101395 80.799988 C 132.627655 72.792542 127.810936 67.925751 119.800003 65.501404 C 127.787987 63.061737 132.649918 58.184509 135.101395 50.200012 C 137.522964 58.13028 142.368195 62.962982 150.399994 65.501404 C 142.370972 67.925751 137.546616 72.738281 135.101395 80.799988 Z"/>
            <path id="path7" fill="#000000" fill-opacity="0.135356" stroke="none" d="M 238.011673 111.848053 C 234.89122 101.747131 228.815216 95.607971 218.709915 92.549805 C 228.78627 89.472321 234.919281 83.320038 238.011673 73.248047 C 241.06633 83.251617 247.178299 89.347748 257.309906 92.549805 C 247.181793 95.608002 241.096161 101.678711 238.011673 111.848053 Z"/>
            <path id="path8" fill="#000000" fill-opacity="0.135356" stroke="none" d="M 375.352966 110.299988 C 370.090271 93.264496 359.842896 82.910645 342.800018 77.75296 C 359.794098 72.562714 370.137604 62.186676 375.352966 45.200012 C 380.504761 62.071289 390.812744 72.352631 407.900024 77.75296 C 390.818665 82.910675 380.555084 93.149109 375.352966 110.299988 Z"/>
            <path id="path9" fill="#000000" fill-opacity="0.135356" stroke="none" d="M 31.101759 66.799988 C 27.98131 56.699066 21.90531 50.559937 11.800011 47.50174 C 21.876369 44.424255 28.00939 38.271973 31.10177 28.200012 C 34.156448 38.203552 40.268391 44.299713 50.400021 47.50177 C 40.2719 50.559937 34.186268 56.630646 31.10177 66.800018 Z"/>
            <path id="path10" fill="#000000" fill-opacity="0.135356" stroke="none" d="M 244.352982 57.299988 C 239.090256 40.264496 228.842911 29.910645 211.800034 24.75296 C 228.794083 19.562714 239.137589 9.186676 244.352982 -7.799988 C 249.504776 9.071289 259.812744 19.352631 276.900024 24.75296 C 259.818665 29.910675 249.555069 40.149109 244.352982 57.300018 Z"/>
            <path id="path11" fill="#000000" fill-opacity="0.135356" stroke="none" d="M 387.352966 359.300018 C 382.090271 342.264526 371.842896 331.910675 354.800018 326.75296 C 371.794098 321.562744 382.137604 311.186676 387.352966 294.200012 C 392.504761 311.071289 402.812744 321.352631 419.900024 326.752991 C 402.818665 331.910675 392.555084 342.149139 387.352966 359.300018 Z"/>
            <path id="path12" fill="#000000" fill-opacity="0.135356" stroke="none" d="M 191.852844 372.300018 C 186.832657 356.049561 177.057526 346.172852 160.800034 341.252838 C 177.010956 336.301788 186.877792 326.4039 191.852844 310.200012 C 196.767227 326.293823 206.600174 336.101379 222.900009 341.252838 C 206.605804 346.172882 196.815216 355.939514 191.852844 372.300018 Z"/>
            <path id="path13" fill="#000000" fill-opacity="0.135356" stroke="none" d="M 554.351807 351.300018 C 551.190979 341.068237 545.036255 334.849579 534.800049 331.751801 C 545.006958 328.63446 551.21936 322.402435 554.351807 312.200012 C 557.446045 322.33313 563.637207 328.50827 573.900024 331.751801 C 563.640747 334.849579 557.476257 340.998932 554.351807 351.300018 Z"/>
            <path id="path14" fill="#000000" fill-opacity="0.135356" stroke="none" d="M 325.011292 148.848053 C 322.537567 140.840591 317.720856 135.973816 309.7099 133.549454 C 317.697906 131.109787 322.559814 126.232574 325.011292 118.248062 C 327.432861 126.178345 332.278107 131.011032 340.309906 133.549454 C 332.280884 135.973816 327.456512 140.786346 325.011292 148.848053 Z"/>
            <path id="path15" fill="#000000" fill-opacity="0.135356" stroke="none" d="M 519.011353 253.848053 C 516.537598 245.840607 511.720856 240.973801 503.7099 238.549438 C 511.697906 236.109787 516.559875 231.232574 519.011353 223.248062 C 521.432922 231.178329 526.278137 236.011032 534.309937 238.549438 C 526.280945 240.973801 521.456543 245.786346 519.011353 253.848053 Z"/>
            <path id="path16" fill="#000000" fill-opacity="0.135356" stroke="none" d="M 573.011353 220.848053 C 570.537598 212.840591 565.720886 207.973801 557.709961 205.549438 C 565.697937 203.109787 570.559875 198.232574 573.011353 190.248062 C 575.432922 198.178329 580.278137 203.011032 588.309937 205.549438 C 580.280945 207.973801 575.456543 212.786346 573.011353 220.848053 Z"/>
            <path id="path17" fill="#000000" fill-opacity="0.135356" stroke="none" d="M 27.011299 299.848083 C 24.537569 291.840576 19.72085 286.973816 11.70991 284.549438 C 19.697899 282.109802 24.55982 277.232574 27.011299 269.248077 C 29.432869 277.178345 34.278111 282.011047 42.30991 284.549438 C 34.280888 286.973816 29.45652 291.786316 27.011299 299.848083 Z"/>
            <path id="path18" fill="#000000" fill-opacity="0.135356" stroke="none" d="M 55.011299 194.848053 C 52.537571 186.840591 47.720848 181.973801 39.709911 179.549438 C 47.697899 177.109787 52.559818 172.232574 55.011299 164.248062 C 57.432869 172.178329 62.278111 177.011032 70.309906 179.549438 C 62.280888 181.973801 57.45652 186.786346 55.011299 194.848053 Z"/>
            <path id="path19" fill="#000000" fill-opacity="0.135356" stroke="none" d="M 23.011299 108.848053 C 20.537569 100.840607 15.72085 95.973816 7.70991 93.549469 C 15.697901 91.109802 20.55982 86.232574 23.011299 78.248047 C 25.432869 86.178345 30.278109 91.011047 38.30991 93.549469 C 30.28089 95.973816 25.45652 100.786346 23.011299 108.848053 Z"/>
            <path id="path20" fill="#000000" fill-opacity="0.135356" stroke="none" d="M 295.011292 259.848053 C 292.537567 251.840607 287.720856 246.973816 279.7099 244.549438 C 287.697906 242.109802 292.559814 237.232574 295.011292 229.248062 C 297.432861 237.178329 302.278107 242.011047 310.309906 244.549438 C 302.280884 246.973816 297.456512 251.786346 295.011292 259.848053 Z"/>
            <path id="path21" fill="#000000" fill-opacity="0.135356" stroke="none" d="M 303.011292 324.848083 C 300.537567 316.840607 295.720856 311.973816 287.7099 309.549469 C 295.697906 307.109802 300.559814 302.232605 303.011292 294.248047 C 305.432861 302.178345 310.278107 307.011047 318.309906 309.549469 C 310.280884 311.973816 305.456512 316.786346 303.011292 324.848083 Z"/>
            <path id="path22" fill="#000000" fill-opacity="0.135356" stroke="none" d="M 532.011353 108.848053 C 529.537598 100.840607 524.720886 95.973816 516.709961 93.549469 C 524.697937 91.109802 529.559875 86.232574 532.011353 78.248047 C 534.432922 86.178345 539.278137 91.011047 547.309937 93.549469 C 539.280945 95.973816 534.456543 100.786346 532.011353 108.848053 Z"/>
            <path id="path23" fill="#000000" fill-opacity="0.135356" stroke="none" d="M 429.351807 317.300018 C 426.190948 307.068237 420.036224 300.849548 409.800018 297.75177 C 420.006897 294.63446 426.21936 288.402435 429.351807 278.200012 C 432.446045 288.33313 438.637146 294.50824 448.900024 297.75177 C 438.640686 300.849548 432.476257 306.998932 429.351807 317.300018 Z"/>
        </g>
        <g id="g3">
            <path id="path24" fill="#ffffff" fill-opacity="0.14206" stroke="none" d="M 493.101501 132.800003 C 490.466064 124.269165 485.334534 119.08429 476.800018 116.50148 C 485.310089 113.902374 490.489777 108.70639 493.101501 100.200012 C 495.681335 108.64859 500.843262 113.79718 509.400024 116.50148 C 500.846222 119.08429 495.706543 124.21138 493.101501 132.800003 Z"/>
            <path id="path25" fill="#ffffff" fill-opacity="0.14206" stroke="none" d="M 64.603333 353.800018 C 58.65345 334.540222 47.06813 322.834503 27.79999 317.003357 C 47.012928 311.135437 58.706978 299.404602 64.603333 280.200012 C 70.42778 299.274109 82.081657 310.897919 101.399986 317.003357 C 82.088341 322.834503 70.48465 334.40976 64.603333 353.800018 Z"/>
            <path id="path26" fill="#ffffff" fill-opacity="0.14206" stroke="none" d="M 98.102211 221.799988 C 94.173347 209.08226 86.523262 201.352661 73.800003 197.502197 C 86.486809 193.627457 94.208687 185.881287 98.102211 173.199997 C 101.948242 185.795135 109.6436 193.470612 122.400002 197.502197 C 109.648018 201.352661 101.985802 208.996109 98.102211 221.799988 Z"/>
            <path id="path27" fill="#ffffff" fill-opacity="0.14206" stroke="none" d="M 79.120972 119.815018 C 73.898659 102.910339 63.730019 92.636047 46.818031 87.517975 C 63.681568 82.367584 73.945641 72.071228 79.120972 55.215027 C 84.233177 71.956726 94.461998 82.159088 111.41803 87.517975 C 94.467873 92.636078 84.283119 102.795868 79.120979 119.815033 Z"/>
            <path id="path28" fill="#ffffff" fill-opacity="0.14206" stroke="none" d="M 494.103394 329.800018 C 488.072693 310.278534 476.329956 298.413757 456.800018 292.503357 C 476.273987 286.555725 488.126953 274.665527 494.103394 255.200012 C 500.006989 274.533264 511.819214 286.315002 531.400024 292.503357 C 511.825989 298.413757 500.064636 310.146301 494.103394 329.800018 Z"/>
            <path id="path29" fill="#ffffff" fill-opacity="0.14206" stroke="none" d="M 254.101822 321.800018 C 250.819702 311.17572 244.428879 304.718475 233.799973 301.501831 C 244.398422 298.264893 250.849213 291.793823 254.101822 281.200012 C 257.314758 291.721863 263.743408 298.133911 274.399994 301.501831 C 263.747101 304.718475 257.34613 311.10376 254.101822 321.800018 Z"/>
            <path id="path30" fill="#ffffff" fill-opacity="0.14206" stroke="none" d="M 299.102478 111.799988 C 294.688568 97.512146 286.094025 88.828278 271.799988 84.502472 C 286.05307 80.149353 294.728271 71.446899 299.102478 57.200012 C 303.423309 71.350098 312.068726 79.973145 326.399994 84.502472 C 312.0737 88.828278 303.465515 97.415375 299.102478 111.799988 Z"/>
            <path id="path31" fill="#ffffff" fill-opacity="0.14206" stroke="none" d="M 573.14624 295.481689 C 568.408203 280.144775 559.182617 270.823273 543.83905 266.179871 C 559.138672 261.507111 568.450867 252.165649 573.14624 236.872681 C 577.784302 252.061768 587.064514 261.317993 602.448059 266.179871 C 587.069824 270.823303 577.82959 280.040894 573.14624 295.481689 Z"/>
            <path id="path32" fill="#ffffff" fill-opacity="0.14206" stroke="none" d="M 336.796722 307.61203 C 331.978638 292.015808 322.597015 282.536682 306.994019 277.814728 C 322.552338 273.062988 332.021973 263.563568 336.796722 248.012024 C 341.513275 263.457916 350.950378 272.870636 366.594025 277.814728 C 350.95578 282.536682 341.559326 291.910156 336.796722 307.61203 Z"/>
            <path id="path33" fill="#ffffff" fill-opacity="0.14206" stroke="none" d="M 35.601891 159.800003 C 32.238911 148.914032 25.690689 142.297745 14.8 139.001892 C 25.659489 135.685226 32.269169 129.054764 35.601891 118.199997 C 38.89397 128.981018 45.480938 135.55098 56.399998 139.001892 C 45.484718 142.297745 38.926109 148.840286 35.601891 159.800003 Z"/>
            <path id="path34" fill="#ffffff" fill-opacity="0.14206" stroke="none" d="M 456.603638 98.799988 C 450.168701 77.970123 437.638916 65.31012 416.800018 59.003632 C 437.579224 52.657318 450.226593 39.970184 456.603638 19.200012 C 462.902893 39.829071 475.506805 52.400452 496.400024 59.003632 C 475.514038 65.31012 462.964417 77.82901 456.603638 98.799988 Z"/>
            <path id="path35" fill="#ffffff" fill-opacity="0.14206" stroke="none" d="M 605.198181 163.481689 C 600.460205 148.14476 591.234558 138.823273 575.890991 134.179855 C 591.190613 129.507111 600.502808 120.165649 605.198181 104.872681 C 609.836304 120.061752 619.116455 129.317978 634.5 134.179855 C 619.121765 138.823303 609.881592 148.040894 605.198181 163.481689 Z"/>
            <path id="path36" fill="#ffffff" fill-opacity="0.14206" stroke="none" d="M 263.101379 150.800003 C 260.627655 142.792526 255.810928 137.925751 247.799988 135.501389 C 255.787979 133.061722 260.649902 128.184525 263.101379 120.199997 C 265.522949 128.13028 270.368195 132.962982 278.399994 135.501389 C 270.370972 137.925751 265.5466 142.738281 263.101379 150.800003 Z"/>
            <path id="path37" fill="#ffffff" fill-opacity="0.14206" stroke="none" d="M 203.601242 289.799988 C 201.370056 282.577576 197.025543 278.187927 189.800003 276.001251 C 197.004852 273.800781 201.390106 269.401733 203.601242 262.200012 C 205.785416 269.352814 210.155624 273.711731 217.399994 276.001251 C 210.158142 278.187927 205.806747 282.528656 203.601242 289.799988 Z"/>
            <path id="path38" fill="#ffffff" fill-opacity="0.14206" stroke="none" d="M 78.60125 262.799988 C 76.370041 255.577576 72.025551 251.187927 64.800003 249.001251 C 72.004852 246.800781 76.390106 242.401733 78.60125 235.200012 C 80.785408 242.352814 85.155617 246.711731 92.399986 249.001251 C 85.158127 251.187927 80.80674 255.528656 78.60125 262.799988 Z"/>
            <path id="path39" fill="#ffffff" fill-opacity="0.14206" stroke="none" d="M 160.601242 321.800018 C 158.370041 314.577576 154.025543 310.187958 146.799988 308.001282 C 154.004852 305.800781 158.390106 301.401733 160.601242 294.200012 C 162.7854 301.352783 167.155624 305.711731 174.399994 308.001282 C 167.158127 310.187958 162.806732 314.528656 160.601242 321.800018 Z"/>
            <path id="path40" fill="#ffffff" fill-opacity="0.14206" stroke="none" d="M 183.601974 94.799988 C 180.077316 83.390656 173.214264 76.456299 161.799988 73.001984 C 173.181564 69.525879 180.109009 62.57663 183.601974 51.200012 C 187.052307 62.499359 193.955994 69.385162 205.399994 73.001984 C 193.959946 76.456299 187.086014 83.313385 183.601974 94.799988 Z"/>
            <path id="path41" fill="#ffffff" fill-opacity="0.14206" stroke="none" d="M 331.101379 60.799988 C 328.627655 52.792542 323.810944 47.925751 315.799988 45.501404 C 323.787994 43.061737 328.649902 38.184509 331.101379 30.200012 C 333.522949 38.13028 338.368195 42.962982 346.399994 45.501404 C 338.370972 47.925751 333.5466 52.738281 331.101379 60.799988 Z"/>
        </g>
    </g>
    <path id="path42" fill="#333333" fill-rule="evenodd" stroke="none" opacity="0.658049" d="M 463 282 C 463 275.924866 390.0224 271 300 271 C 209.977585 271 137 275.924866 137 282 C 137 288.075134 209.977585 293 300 293 C 390.0224 293 463 288.075134 463 282 Z"/>
    <g id="-">
        <path id="path43" fill="#172025" fill-rule="evenodd" stroke="none" d="M 167 242 C 167 253.045685 175.9543 262 187 262 L 419.207794 262 C 430.253479 262 439.207794 253.045685 439.207794 242 L 439.207794 122 C 439.207794 110.954285 430.253479 102 419.207794 102 L 187 102 C 175.9543 102 167 110.954285 167 122 L 167 242 Z M 272.276947 225.687943 C 280.950195 225.687943 287.981232 232.546555 287.981232 241.007095 C 287.981232 249.467621 280.950195 256.326233 272.276947 256.326233 C 263.603699 256.326233 256.572662 249.467621 256.572662 241.007095 C 256.572662 232.546555 263.603699 225.687943 272.276947 225.687943 Z M 287.981232 122.992905 C 287.981232 114.532379 280.950195 107.673767 272.276947 107.673767 C 263.603699 107.673767 256.572662 114.532379 256.572662 122.992905 C 256.572662 131.453445 263.603699 138.312057 272.276947 138.312057 C 280.950195 138.312057 287.981232 131.453445 287.981232 122.992905 Z"/>
        <path id="path5-" fill="#d1dcdd" fill-rule="evenodd" stroke="none" d="M 251 262 L 294.643555 262 L 294.643555 102.080017 L 251 102.080017 L 251 262 Z M 272.821777 226.633652 C 280.856323 226.633652 287.369629 233.146942 287.369629 241.181503 C 287.369629 249.216064 280.856323 255.72934 272.821777 255.72934 C 264.787201 255.72934 258.273926 249.216064 258.273926 241.181503 C 258.273926 233.146942 264.787201 226.633652 272.821777 226.633652 Z M 287.369629 122.898483 C 287.369629 114.863922 280.856323 108.350647 272.821777 108.350647 C 264.787201 108.350647 258.273926 114.863922 258.273926 122.898483 C 258.273926 130.933044 264.787201 137.446335 272.821777 137.446335 C 280.856323 137.446335 287.369629 130.933044 287.369629 122.898483 Z"/>
        <g id="--8">
            <path id="path44" fill="none" stroke="#bebcb8" stroke-width="3.149705" stroke-linecap="round" stroke-linejoin="round" d="M 205.735596 161.566101 L 228.800003 161.566101"/>
            <path id="path45" fill="none" stroke="#bebcb8" stroke-width="3.149705" stroke-linecap="round" stroke-linejoin="round" d="M 205.735596 175.84407 L 228.800003 175.84407"/>
            <path id="--2" fill="none" stroke="#bebcb8" stroke-width="3.149705" stroke-linecap="round" stroke-linejoin="round" d="M 205.735596 190.12204 L 228.800003 190.12204"/>
            <path id="--3" fill="none" stroke="#bebcb8" stroke-width="3.149705" stroke-linecap="round" stroke-linejoin="round" d="M 205.735596 203.301697 L 228.800003 203.301697"/>
            <path id="path46" fill="#f1ebd3" fill-rule="evenodd" stroke="none" d="M 164 225.267792 L 213.423721 225.267792 L 213.423721 139.600006 L 164 139.600006 Z"/>
        </g>
        <g id="--7">
            <path id="path47" fill="none" stroke="#bebcb8" stroke-width="1.764436" stroke-linecap="round" stroke-linejoin="round" d="M 362.044434 168.911118 L 372 168.911118"/>
            <path id="--9" fill="none" stroke="#bebcb8" stroke-width="1.764436" stroke-linecap="round" stroke-linejoin="round" d="M 362.044434 178.866669 L 372 178.866669"/>
            <path id="--10" fill="none" stroke="#bebcb8" stroke-width="1.764436" stroke-linecap="round" stroke-linejoin="round" d="M 362.044434 188.82222 L 372 188.82222"/>
            <path id="--27" fill="none" stroke="#bebcb8" stroke-width="1.764436" stroke-linecap="round" stroke-linejoin="round" d="M 362.044434 173.911118 L 372 173.911118"/>
            <path id="--26" fill="none" stroke="#bebcb8" stroke-width="1.764436" stroke-linecap="round" stroke-linejoin="round" d="M 362.044434 183.866669 L 372 183.866669"/>
            <path id="--25" fill="none" stroke="#bebcb8" stroke-width="1.764436" stroke-linecap="round" stroke-linejoin="round" d="M 362.044434 193.82222 L 372 193.82222"/>
            <path id="--11" fill="none" stroke="#bebcb8" stroke-width="1.764436" stroke-linecap="round" stroke-linejoin="round" d="M 362.044434 198.777771 L 372 198.777771"/>
            <path id="--15" fill="none" stroke="#bebcb8" stroke-width="1.764436" stroke-linecap="round" stroke-linejoin="round" d="M 314.799988 168.911118 L 324.755554 168.911118"/>
            <path id="--14" fill="none" stroke="#bebcb8" stroke-width="1.764436" stroke-linecap="round" stroke-linejoin="round" d="M 314.799988 178.866669 L 324.755554 178.866669"/>
            <path id="--13" fill="none" stroke="#bebcb8" stroke-width="1.764436" stroke-linecap="round" stroke-linejoin="round" d="M 314.799988 188.82222 L 324.755554 188.82222"/>
            <path id="--12" fill="none" stroke="#bebcb8" stroke-width="1.764436" stroke-linecap="round" stroke-linejoin="round" d="M 314.799988 198.777771 L 324.755554 198.777771"/>
            <path id="--24" fill="none" stroke="#bebcb8" stroke-width="1.764436" stroke-linecap="round" stroke-linejoin="round" d="M 314.799988 173.866669 L 324.755554 173.866669"/>
            <path id="--23" fill="none" stroke="#bebcb8" stroke-width="1.764436" stroke-linecap="round" stroke-linejoin="round" d="M 314.799988 183.82222 L 324.755554 183.82222"/>
            <path id="--22" fill="none" stroke="#bebcb8" stroke-width="1.764436" stroke-linecap="round" stroke-linejoin="round" d="M 314.799988 193.777771 L 324.755554 193.777771"/>
            <path id="path48" fill="none" stroke="#bebcb8" stroke-width="1.764436" stroke-linecap="round" stroke-linejoin="round" d="M 327.222229 163.955551 L 327.222229 154"/>
            <path id="path49" fill="none" stroke="#bebcb8" stroke-width="1.764436" stroke-linecap="round" stroke-linejoin="round" d="M 337.177765 163.955551 L 337.177765 154"/>
            <path id="path50" fill="none" stroke="#bebcb8" stroke-width="1.764436" stroke-linecap="round" stroke-linejoin="round" d="M 347.133331 163.955551 L 347.133331 154"/>
            <path id="--21" fill="none" stroke="#bebcb8" stroke-width="1.764436" stroke-linecap="round" stroke-linejoin="round" d="M 332.222229 163.955551 L 332.222229 154"/>
            <path id="--20" fill="none" stroke="#bebcb8" stroke-width="1.764436" stroke-linecap="round" stroke-linejoin="round" d="M 342.177765 163.955551 L 342.177765 154"/>
            <path id="--19" fill="none" stroke="#bebcb8" stroke-width="1.764436" stroke-linecap="round" stroke-linejoin="round" d="M 352.133331 163.955551 L 352.133331 154"/>
            <path id="path51" fill="none" stroke="#bebcb8" stroke-width="1.764436" stroke-linecap="round" stroke-linejoin="round" d="M 357.088898 163.955551 L 357.088898 154"/>
            <path id="path52" fill="none" stroke="#bebcb8" stroke-width="1.764436" stroke-linecap="round" stroke-linejoin="round" d="M 327.222229 211.199997 L 327.222229 201.244446"/>
            <path id="path53" fill="none" stroke="#bebcb8" stroke-width="1.764436" stroke-linecap="round" stroke-linejoin="round" d="M 337.177765 211.199997 L 337.177765 201.244446"/>
            <path id="path54" fill="none" stroke="#bebcb8" stroke-width="1.764436" stroke-linecap="round" stroke-linejoin="round" d="M 347.133331 211.199997 L 347.133331 201.244446"/>
            <path id="path55" fill="none" stroke="#bebcb8" stroke-width="1.764436" stroke-linecap="round" stroke-linejoin="round" d="M 357.088898 211.199997 L 357.088898 201.244446"/>
            <path id="--18" fill="none" stroke="#bebcb8" stroke-width="1.764436" stroke-linecap="round" stroke-linejoin="round" d="M 332.177765 211.199997 L 332.177765 201.244446"/>
            <path id="--17" fill="none" stroke="#bebcb8" stroke-width="1.764436" stroke-linecap="round" stroke-linejoin="round" d="M 342.133331 211.199997 L 342.133331 201.244446"/>
            <path id="--16" fill="none" stroke="#bebcb8" stroke-width="1.764436" stroke-linecap="round" stroke-linejoin="round" d="M 352.088898 211.199997 L 352.088898 201.244446"/>
            <path id="path56" fill="#292d2f" fill-rule="evenodd" stroke="none" d="M 319.755554 206.244446 L 367.044434 206.244446 L 367.044434 158.955551 L 319.755554 158.955551 Z"/>
        </g>
        <g id="g4">
            <path id="path57" fill="none" stroke="#bebcb8" stroke-width="1.085772" stroke-linecap="round" stroke-linejoin="round" d="M 395.444458 122.111115 L 399 122.111115"/>
            <path id="path58" fill="none" stroke="#bebcb8" stroke-width="1.085772" stroke-linecap="round" stroke-linejoin="round" d="M 395.444458 125.666672 L 399 125.666672"/>
            <path id="path59" fill="none" stroke="#bebcb8" stroke-width="1.085772" stroke-linecap="round" stroke-linejoin="round" d="M 395.444458 129.222229 L 399 129.222229"/>
            <path id="path60" fill="none" stroke="#bebcb8" stroke-width="1.085772" stroke-linecap="round" stroke-linejoin="round" d="M 395.444458 132.777771 L 399 132.777771"/>
            <path id="path61" fill="none" stroke="#bebcb8" stroke-width="1.085772" stroke-linecap="round" stroke-linejoin="round" d="M 375 122.111115 L 378.555542 122.111115"/>
            <path id="path62" fill="none" stroke="#bebcb8" stroke-width="1.085772" stroke-linecap="round" stroke-linejoin="round" d="M 375 125.666672 L 378.555542 125.666672"/>
            <path id="path63" fill="none" stroke="#bebcb8" stroke-width="1.085772" stroke-linecap="round" stroke-linejoin="round" d="M 375 129.222229 L 378.555542 129.222229"/>
            <path id="path64" fill="none" stroke="#bebcb8" stroke-width="1.085772" stroke-linecap="round" stroke-linejoin="round" d="M 375 132.777771 L 378.555542 132.777771"/>
            <path id="path65" fill="none" stroke="#bebcb8" stroke-width="1.085772" stroke-linecap="round" stroke-linejoin="round" d="M 381.222229 118.555557 L 381.222229 115"/>
            <path id="path66" fill="none" stroke="#bebcb8" stroke-width="1.085772" stroke-linecap="round" stroke-linejoin="round" d="M 384.777771 118.555557 L 384.777771 115"/>
            <path id="path67" fill="none" stroke="#bebcb8" stroke-width="1.085772" stroke-linecap="round" stroke-linejoin="round" d="M 388.333344 118.555557 L 388.333344 115"/>
            <path id="path68" fill="none" stroke="#bebcb8" stroke-width="1.085772" stroke-linecap="round" stroke-linejoin="round" d="M 391.888885 118.555557 L 391.888885 115"/>
            <path id="path69" fill="none" stroke="#bebcb8" stroke-width="1.085772" stroke-linecap="round" stroke-linejoin="round" d="M 381.222229 139 L 381.222229 135.444443"/>
            <path id="path70" fill="none" stroke="#bebcb8" stroke-width="1.085772" stroke-linecap="round" stroke-linejoin="round" d="M 384.777771 139 L 384.777771 135.444443"/>
            <path id="path71" fill="none" stroke="#bebcb8" stroke-width="1.085772" stroke-linecap="round" stroke-linejoin="round" d="M 388.333344 139 L 388.333344 135.444443"/>
            <path id="path72" fill="none" stroke="#bebcb8" stroke-width="1.085772" stroke-linecap="round" stroke-linejoin="round" d="M 391.888885 139 L 391.888885 135.444443"/>
            <path id="path73" fill="#292d2f" fill-rule="evenodd" stroke="none" d="M 378.555542 135.444443 L 395.444458 135.444443 L 395.444458 118.555557 L 378.555542 118.555557 Z"/>
        </g>
        <path id="path74" fill="#bebcb8" fill-rule="evenodd" stroke="none" d="M 203 250 C 203 252.209137 204.790863 254 207 254 L 233 254 C 235.209137 254 237 252.209137 237 250 L 237 235 C 237 232.790863 235.209137 231 233 231 L 207 231 C 204.790863 231 203 232.790863 203 235 Z"/>
        <path id="path75" fill="#f1ebd3" fill-rule="evenodd" stroke="none" d="M 208 242.5 C 208 246.642136 211.357864 250 215.5 250 L 224.5 250 C 228.642136 250 232 246.642136 232 242.5 C 232 238.357864 228.642136 235 224.5 235 L 215.5 235 C 211.357864 235 208 238.357864 208 242.5 Z"/>
        <path id="path76" fill="#bebcb8" fill-rule="evenodd" stroke="none" d="M 404 191 C 404 193.209137 405.790863 195 408 195 L 420 195 C 422.209137 195 424 193.209137 424 191 L 424 163 C 424 160.790863 422.209137 159 420 159 L 408 159 C 405.790863 159 404 160.790863 404 163 Z"/>
        <path id="path77" fill="#172025" fill-rule="evenodd" stroke="none" d="M 417 188 C 417 186.34314 415.65686 185 414 185 C 412.34314 185 411 186.34314 411 188 C 411 189.65686 412.34314 191 414 191 C 415.65686 191 417 189.65686 417 188 Z"/>
    </g>
</svg>
