<?xml version="1.0" encoding="UTF-8" standalone="no"?>
<!DOCTYPE svg PUBLIC "-//W3C//DTD SVG 1.1//EN" "http://www.w3.org/Graphics/SVG/1.1/DTD/svg11.dtd">
<!-- Created with Vectornator (http://vectornator.io/) -->
<svg height="100%" stroke-miterlimit="10" style="fill-rule:nonzero;clip-rule:evenodd;stroke-linecap:round;stroke-linejoin:round;" version="1.1" viewBox="0 0 40 40" width="100%" xml:space="preserve" xmlns="http://www.w3.org/2000/svg" xmlns:xlink="http://www.w3.org/1999/xlink">
<defs/>
<g id="无标题">
<path d="M4.16 8.12L35.84 8.12L35.84 31.88L4.16 31.88L4.16 8.12Z" fill="#ffffff" fill-rule="nonzero" opacity="1" stroke="none"/>
<path d="M36.56 33.32L3.44 33.32C3.008 33.32 2.72 33.032 2.72 32.6L2.72 7.4C2.72 6.968 3.008 6.68 3.44 6.68L36.56 6.68C36.992 6.68 37.28 6.968 37.28 7.4L37.28 32.6C37.28 33.032 36.992 33.32 36.56 33.32ZM4.16 31.88L35.84 31.88L35.84 8.12L4.16 8.12C4.16 8.12 4.16 31.88 4.16 31.88Z" fill="#13173c" fill-rule="nonzero" opacity="1" stroke="none"/>
<path d="M8.264 24.968C8.336 24.464 8.336 24.104 8.336 23.456L8.336 18.128C8.336 17.408 8.336 16.976 8.264 16.616L10.352 16.616C10.28 17.048 10.28 17.408 10.28 18.128L10.28 19.568C10.856 18.992 11.504 18.704 12.368 18.704C13.088 18.704 13.592 18.92 13.952 19.28C14.384 19.712 14.528 20.144 14.528 21.008L14.528 23.528C14.528 24.104 14.528 24.608 14.6 25.04L12.512 25.04C12.584 24.536 12.584 24.104 12.584 23.528L12.584 21.44C12.584 21.008 12.512 20.864 12.44 20.648C12.296 20.432 12.08 20.36 11.792 20.36C11.216 20.36 10.64 20.72 10.28 21.44L10.28 23.456C10.28 24.032 10.28 24.464 10.352 24.968C10.352 24.968 8.264 24.968 8.264 24.968ZM16.472 18.632C16.472 18.128 16.472 17.696 16.4 17.264L18.488 17.264C18.416 17.696 18.416 18.128 18.416 18.632L18.416 18.848L18.776 18.848C19.208 18.848 19.424 18.848 19.784 18.776L19.784 20.432C19.496 20.36 19.208 20.36 18.848 20.36L18.416 20.36L18.416 22.952C18.416 23.24 18.488 23.384 18.632 23.456C18.776 23.528 18.92 23.6 19.064 23.6C19.352 23.6 19.496 23.528 19.784 23.384L19.928 24.896C19.496 25.04 19.064 25.112 18.56 25.112C17.84 25.112 17.408 24.968 17.048 24.752C16.688 24.464 16.544 24.104 16.544 23.456L16.544 20.36L16.184 20.36C15.896 20.36 15.608 20.36 15.32 20.432L15.32 18.776C15.608 18.848 15.896 18.848 16.184 18.848L16.544 18.848L16.544 18.632L16.472 18.632ZM21.296 18.632C21.296 18.128 21.296 17.696 21.224 17.264L23.312 17.264C23.24 17.696 23.24 18.128 23.24 18.632L23.24 18.848L23.6 18.848C24.032 18.848 24.248 18.848 24.608 18.776L24.608 20.432C24.32 20.36 24.032 20.36 23.672 20.36L23.24 20.36L23.24 22.952C23.24 23.24 23.312 23.384 23.456 23.456C23.6 23.528 23.744 23.6 23.888 23.6C24.176 23.6 24.32 23.528 24.608 23.384L24.752 24.896C24.32 25.04 23.888 25.112 23.384 25.112C22.664 25.112 22.232 24.968 21.872 24.752C21.512 24.464 21.368 24.104 21.368 23.456L21.368 20.36L21.008 20.36C20.72 20.36 20.432 20.36 20.144 20.432L20.144 18.776C20.432 18.848 20.72 18.848 21.008 18.848L21.368 18.848L21.368 18.632L21.296 18.632ZM25.328 26.84C25.4 26.408 25.4 25.904 25.4 25.4L25.4 20.504C25.4 19.856 25.4 19.424 25.328 18.92L27.344 18.92L27.344 19.496C27.92 18.992 28.568 18.776 29.432 18.776C30.296 18.776 31.016 19.064 31.592 19.568C32.096 20.072 32.384 20.864 32.384 21.944C32.384 22.952 32.096 23.816 31.52 24.392C31.016 24.896 30.296 25.184 29.432 25.184C28.928 25.184 28.424 25.112 28.064 24.896C27.776 24.752 27.632 24.68 27.344 24.464L27.344 25.544C27.344 26.12 27.344 26.552 27.416 26.984L25.328 26.984L25.328 26.84ZM29.936 23.096C30.224 22.808 30.368 22.376 30.368 21.8C30.368 20.792 29.792 20.144 28.856 20.144C27.992 20.144 27.344 20.864 27.344 21.8C27.344 22.736 27.992 23.456 28.928 23.456C29.288 23.528 29.648 23.384 29.936 23.096Z" fill="#ff633e" fill-rule="nonzero" opacity="1" stroke="none"/>
<path d="M4.16 8.12L35.84 8.12L35.84 11.72L4.16 11.72L4.16 8.12Z" fill="#3796ff" fill-rule="nonzero" opacity="1" stroke="none"/>
</g>
</svg>
