<?xml version="1.0" encoding="UTF-8"?>
<!-- Generated by Pixelmator Pro 3.7.1 -->
<svg width="600" height="370" viewBox="0 0 600 370" xmlns="http://www.w3.org/2000/svg">
    <g id="g1">
        <path id="path1" fill="#334454" stroke="none" d="M -1 370 L -1 0 L 599 0 L 599 370 Z"/>
        <path id="path2" fill="#ffffff" fill-opacity="0.2" stroke="none" d="M 98.69603 184.508423 C 98.69603 73.118896 188.995071 -17.180145 300.384583 -17.180145 C 411.774109 -17.180145 502.07312 73.118896 502.07312 184.508423 C 502.07312 295.897919 411.774109 386.19696 300.384583 386.19696 C 188.995087 386.19696 98.69603 295.897919 98.69603 184.508423 Z"/>
        <path id="path3" fill="none" stroke="#ffffff" stroke-width="25" stroke-opacity="0.2" d="M 56.286636 184.508423 C 56.286636 49.696838 165.573013 -59.589539 300.384613 -59.589539 C 435.196167 -59.589539 544.482544 49.696838 544.482544 184.508423 C 544.482544 319.320007 435.196167 428.606384 300.384613 428.606384 C 165.573013 428.606384 56.286652 319.320007 56.286652 184.508423 Z"/>
        <path id="path4" fill="none" stroke="#ffffff" stroke-width="25" stroke-opacity="0.2" d="M -23.49999 185.915558 C -23.49999 7.298096 121.29808 -137.5 299.915558 -137.5 C 478.53302 -137.5 623.331116 7.298096 623.331116 185.915558 C 623.331116 364.53302 478.53302 509.331116 299.915558 509.331116 C 121.29808 509.331116 -23.49999 364.53302 -23.49999 185.915558 Z"/>
    </g>
    <path id="--2" fill="#333333" fill-rule="evenodd" stroke="none" opacity="0.658049" d="M 393 285 C 393 278.372589 351.138611 273 299.5 273 C 247.861374 273 206 278.372589 206 285 C 206 291.627411 247.861374 297 299.5 297 C 351.138611 297 393 291.627411 393 285 Z"/>
    <path id="Circle" fill="#f3e546" fill-rule="evenodd" stroke="none" d="M 393 167.5 C 393 115.861374 351.138611 74 299.5 74 C 247.861374 74 206 115.861374 206 167.5 C 206 219.138626 247.861374 261 299.5 261 C 351.138611 261 393 219.138626 393 167.5 Z"/>
    <path id="path5" fill="#694e09" fill-rule="evenodd" stroke="none" d="M 275 149 C 275 139.058868 269.627411 131 263 131 C 256.372589 131 251 139.058868 251 149 C 251 158.941132 256.372589 167 263 167 C 269.627411 167 275 158.941132 275 149 Z"/>
    <path id="-" fill="#694e09" fill-rule="evenodd" stroke="none" d="M 348 149 C 348 139.058868 342.627411 131 336 131 C 329.372589 131 324 139.058868 324 149 C 324 158.941132 329.372589 167 336 167 C 342.627411 167 348 158.941132 348 149 Z"/>
</svg>
