<?xml version="1.0" encoding="UTF-8"?>
<!-- Generated by Pixelmator Pro 3.7.1 -->
<svg width="80" height="80" viewBox="0 0 80 80" xmlns="http://www.w3.org/2000/svg">
    <g id="-">
        <path id="Circle" fill="#f3e546" fill-rule="evenodd" stroke="none" d="M 71 40.166668 C 71 22.953793 57.046207 9 39.833332 9 C 22.620459 9 8.666667 22.953793 8.666667 40.166668 C 8.666667 57.379539 22.620459 71.333336 39.833332 71.333336 C 57.046207 71.333336 71 57.379539 71 40.166668 Z"/>
        <path id="path1" fill="#694e09" fill-rule="evenodd" stroke="none" d="M 31.666666 34 C 31.666666 30.686291 29.875805 28 27.666666 28 C 25.457527 28 23.666666 30.686291 23.666666 34 C 23.666666 37.313709 25.457527 40 27.666666 40 C 29.875805 40 31.666666 37.313709 31.666666 34 Z"/>
        <path id="path2" fill="#694e09" fill-rule="evenodd" stroke="none" d="M 56 34 C 56 30.686291 54.209137 28 52 28 C 49.790859 28 48 30.686291 48 34 C 48 37.313709 49.790859 40 52 40 C 54.209137 40 56 37.313709 56 34 Z"/>
    </g>
</svg>
