<?xml version="1.0" encoding="UTF-8"?>
<!-- Generated by Pixelmator Pro 3.7.1 -->
<svg width="600" height="370" viewBox="0 0 600 370" xmlns="http://www.w3.org/2000/svg">
    <path id="path1" fill="#ff8ec6" stroke="none" d="M 0 370 L 0 0 L 600 0 C 600 0 600 162.245422 600 229.399994 C 600 281.97406 600 370 600 370 Z"/>
    <g id="g2">
        <path id="path2" fill="#ffffff" fill-opacity="0.73333" fill-rule="evenodd" stroke="none" opacity="0.1" d="M 420.825623 7.26651 C 413.012543 32.868744 333.968109 46.866852 332.53772 69.195801 C 331.105865 91.526794 412.816864 42.004456 418.661621 55.124359 C 424.506439 68.24527 334.273987 134.521255 286.518768 153.894928 C 257.74234 165.568283 235.04129 149.070984 268.173431 123.537018 C 290.340088 106.454712 279.907471 91.776031 259.511444 101.816315 C 239.115417 111.858612 228.263672 85.961609 256.441437 63.828827 C 284.618713 41.697083 429.664551 -21.707581 420.825623 7.26651 Z M 206.374115 73.189087 C 184.492615 105.835876 142.661041 85.469666 169.174866 51.234802 C 192.635864 20.947662 267.991425 -10.4422 271.673767 6.4151 C 274.377716 18.794769 232.117905 34.776917 206.374115 73.189087 Z M 26.425938 7.29837 C 62.046684 -27.258057 92.136131 -60.937286 113.32444 -59.895233 C 135.339905 -58.812256 115.675995 -16.679321 78.294739 15.641846 C 51.810234 38.541626 77.674355 50.161896 103.072311 36.488861 C 133.765457 19.966248 157.690598 31.021759 118.07811 67.250763 C 78.46563 103.481781 18.317574 130.142227 -14.491009 123.306473 C -47.298077 116.470718 31.591671 95.592865 34.72237 67.937378 C 37.797443 40.763245 -10.047266 95.621674 -34.993725 77.372437 C -59.207058 59.661163 -6.657711 39.391541 26.426426 7.298859 Z M 425.63797 110.038422 C 421.615387 90.361877 470.711975 28.366852 530.919678 12.022247 C 591.440369 -4.406342 648.340942 -10.795135 650.781982 3.414337 C 653.205872 17.540894 614.820435 28.212128 567.135559 51.074493 C 544.080078 62.127014 568.472839 71.441711 583.481628 65.471069 C 633.122803 45.725739 629.244812 75.899628 587.332336 97.17337 C 554.581909 113.798126 526.879944 122.518265 510.469055 126.51857 C 486.667786 132.320862 481.706299 116.94751 495.29538 108.272369 C 521.820862 91.338226 509.06601 75.70697 485.321381 88.847107 C 470.282227 97.16983 432.146088 141.862625 425.63797 110.038452 Z M 403.485962 126.946808 C 417.560944 121.312881 421.212433 131.638794 421.212433 139.98175 C 421.212433 148.326736 407.135406 151.453888 399.313721 146.76088 C 391.492065 142.068878 393.683838 130.868256 403.485962 126.946289 Z M 7.391464 162.536209 C 12.759953 150.112015 72.940376 148.126511 117.690796 107.994293 C 133.791214 93.554749 153.526917 111.19223 148.842499 124.727707 C 144.16011 138.262711 129.849533 141.830246 107.450813 150.538254 C 85.054108 159.247772 113.534218 170.855911 150.489258 153.417664 C 171.628021 143.444626 194.277512 160.256958 168.753647 177.57132 C 147.419235 192.041672 98.262482 196.19017 99.60537 208.60321 C 100.348091 215.497116 136.032547 198.913345 142.516922 213.774521 C 147.907654 226.125381 135.133591 240.31868 99.438522 243.200623 C 63.073029 246.136658 34.790604 238.656754 34.367416 220.792297 C 33.888111 200.567154 76.553421 195.086426 57.383476 188.833633 C 38.10635 182.549988 -2.069882 184.439438 7.391464 162.536697 Z M 223.384109 119.255585 C 230.571274 124.253464 230.794739 130.626602 223.155579 139.468079 C 213.252319 150.93364 196.724167 150.400726 191.869873 146.207764 C 187.015579 142.014282 197.989685 131.15596 202.179108 124.899628 C 206.369553 118.645309 214.131058 112.822296 223.384109 119.255585 Z M 222.942719 188.134903 C 265.553436 177.948517 289.529633 195.025757 279.98587 206.694061 C 269.676636 219.293701 245.000671 219.264877 243.061676 243.933746 C 239.438019 290.091248 194.034363 298.259277 213.407547 266.034668 C 220.193756 254.744568 210.228821 247.590271 204.387589 262.025208 C 200.860504 270.736786 184.133133 282.691772 175.293671 287.112244 C 135.175583 307.170013 103.188614 278.027557 131.882584 269.928314 C 150.554001 264.658936 167.327896 251.984955 178.042633 222.961334 C 183.750885 207.494949 204.226303 192.609985 222.942719 188.135391 Z M 95.980736 281.671448 C 112.132233 302.320313 62.234768 303.47406 43.80756 309.676819 C 25.379341 315.880554 63.354176 319.029968 96.76088 318.682617 C 130.171127 318.335297 125.115601 343.993103 87.142799 356.562408 C 28.801765 375.870392 -23.205074 355.819153 21.499853 343.007721 C 38.172115 338.226715 26.32128 324.43692 7.814693 326.425934 C -27.132584 330.182556 -53.034634 312.933411 -47.153454 299.458069 C -40.516403 284.250061 -24.092907 294.488007 -7.484346 295.624603 C 9.124712 296.762207 -5.251607 280.483307 -26.757936 269.274078 C -63.698818 250.020721 -32.794838 217.272827 -1.074311 246.877899 C 44.120026 289.058838 83.887222 266.210144 95.980247 281.671478 Z M 263.547699 331.731232 C 239.699417 380.429871 190.735809 375.645355 197.609985 359.022156 C 204.482651 342.399445 176.208313 355.941528 163.111176 352.910431 C 150.016052 349.882874 142.25 327.117096 190.878387 322.735016 C 250.790833 317.33316 252.19136 258.235229 272.199097 270.5755 C 285.956543 279.057983 272.388184 313.679688 263.54718 331.73172 Z M 621.21991 111.346436 C 661.162537 104.481354 670.008606 118.23526 653.378784 129.243271 C 643.066528 136.071945 602.909485 157.847748 632.238525 159.980896 C 661.571594 162.114548 639.711304 190.002075 605.264587 215.963791 C 570.818848 241.92601 495.563873 255.951431 498.852325 234.056808 C 502.142761 212.162674 590.760803 201.656754 574.80304 178.550186 C 567.872192 168.513962 533.975586 210.139252 518.926819 186.188828 C 503.877014 162.238419 596.18042 115.647598 621.21936 111.346436 Z M 361.248932 152.376129 C 373.998199 141.583008 400.072174 157.16925 376.619232 178.558273 C 371.191101 183.509644 357.237976 188.250671 365.573334 193.137329 C 390.758453 207.898407 467.51709 131.219666 480.215302 156.376953 C 486.320953 168.473007 455.707214 195.525299 422.291901 212.425079 C 397.624023 224.899841 406.618195 247.755127 443.230957 225.236557 C 479.845734 202.716995 486.305786 229.261154 466.023529 246.68222 C 445.742249 264.101257 316.164307 324.433868 307.335449 292.191559 C 300.464325 267.115143 372.860077 271.708557 363.851257 255.507019 C 357.237976 243.618256 306.888519 275.185089 289.065979 254.684921 C 271.817352 234.848587 336.383362 221.705444 332.249054 209.811615 C 328.984375 200.42662 298.088989 213.650665 297.490845 190.675064 C 297.028229 172.867722 330.392456 178.491028 361.248413 152.376129 Z M 540.372986 312.675537 C 548.12384 271.90271 619.940247 233.892471 647.49408 223.671722 C 690.849548 207.597092 736.151611 212.955963 710.578186 226.108231 C 685.004761 239.263504 617.781311 282.821716 652.381226 285.81134 C 669.409912 287.282654 688.657227 299.915649 652.381226 329.878174 C 629.353516 348.899475 549.096619 375.184784 544.713562 358.377533 C 540.330017 341.57077 636.777771 312.340332 606.820801 309.415924 C 576.863831 306.493561 536.751282 331.741821 540.372986 312.675537 Z M 434.617981 298.040344 C 458.018799 286.343231 479.659149 272.176758 504.570679 266.829468 C 537.059753 259.857208 505.015625 303.815369 473.828003 318.076385 C 459.859711 324.463165 476.585571 332.975006 490.02652 326.449158 C 526.55127 308.718689 542.436829 322.340149 504.718842 347.42514 C 495.341431 353.662262 466.367828 368.428894 431.186951 372.93988 C 395.672394 377.49588 396.595123 364.420959 407.5849 359.519653 C 423.389557 352.472565 434.215515 337.193756 391.842468 350.098267 C 316.096558 373.165405 271.227325 369.324341 288.470398 350.098267 C 304.575867 332.144287 358.87207 335.900909 434.618011 298.040344 Z"/>
        <path id="path3" fill="#ffffff" fill-opacity="0.54118" fill-rule="evenodd" stroke="none" opacity="0.1" d="M 420.825623 7.26651 C 413.012543 32.868744 333.968109 46.866852 332.53772 69.195801 C 331.105865 91.526794 412.816864 42.004456 418.661621 55.124359 C 424.506439 68.24527 334.273987 134.521255 286.518768 153.894928 C 257.74234 165.568283 235.04129 149.070984 268.173431 123.537018 C 290.340088 106.454712 279.907471 91.776031 259.511444 101.816315 C 239.115417 111.858612 228.263672 85.961609 256.441437 63.828827 C 284.618713 41.697083 429.664551 -21.707581 420.825623 7.26651 Z M 206.374115 73.189087 C 184.492615 105.835876 142.661041 85.469666 169.174866 51.234802 C 192.635864 20.947662 267.991425 -10.4422 271.673767 6.4151 C 274.377716 18.794769 232.117905 34.776917 206.374115 73.189087 Z M 26.425938 7.29837 C 62.046684 -27.258057 92.136131 -60.937286 113.32444 -59.895233 C 135.339905 -58.812256 115.675995 -16.679321 78.294739 15.641846 C 51.810234 38.541626 77.674355 50.161896 103.072311 36.488861 C 133.765457 19.966248 157.690598 31.021759 118.07811 67.250763 C 78.46563 103.481781 18.317574 130.142227 -14.491009 123.306473 C -47.298077 116.470718 31.591671 95.592865 34.72237 67.937378 C 37.797443 40.763245 -10.047266 95.621674 -34.993725 77.372437 C -59.207058 59.661163 -6.657711 39.391541 26.426426 7.298859 Z M 425.63797 110.038422 C 421.615387 90.361877 470.711975 28.366852 530.919678 12.022247 C 591.440369 -4.406342 648.340942 -10.795135 650.781982 3.414337 C 653.205872 17.540894 614.820435 28.212128 567.135559 51.074493 C 544.080078 62.127014 568.472839 71.441711 583.481628 65.471069 C 633.122803 45.725739 629.244812 75.899628 587.332336 97.17337 C 554.581909 113.798126 526.879944 122.518265 510.469055 126.51857 C 486.667786 132.320862 481.706299 116.94751 495.29538 108.272369 C 521.820862 91.338226 509.06601 75.70697 485.321381 88.847107 C 470.282227 97.16983 432.146088 141.862625 425.63797 110.038452 Z M 403.485962 126.946808 C 417.560944 121.312881 421.212433 131.638794 421.212433 139.98175 C 421.212433 148.326736 407.135406 151.453888 399.313721 146.76088 C 391.492065 142.068878 393.683838 130.868256 403.485962 126.946289 Z M 7.391464 162.536209 C 12.759953 150.112015 72.940376 148.126511 117.690796 107.994293 C 133.791214 93.554749 153.526917 111.19223 148.842499 124.727707 C 144.16011 138.262711 129.849533 141.830246 107.450813 150.538254 C 85.054108 159.247772 113.534218 170.855911 150.489258 153.417664 C 171.628021 143.444626 194.277512 160.256958 168.753647 177.57132 C 147.419235 192.041672 98.262482 196.19017 99.60537 208.60321 C 100.348091 215.497116 136.032547 198.913345 142.516922 213.774521 C 147.907654 226.125381 135.133591 240.31868 99.438522 243.200623 C 63.073029 246.136658 34.790604 238.656754 34.367416 220.792297 C 33.888111 200.567154 76.553421 195.086426 57.383476 188.833633 C 38.10635 182.549988 -2.069882 184.439438 7.391464 162.536697 Z M 223.384109 119.255585 C 230.571274 124.253464 230.794739 130.626602 223.155579 139.468079 C 213.252319 150.93364 196.724167 150.400726 191.869873 146.207764 C 187.015579 142.014282 197.989685 131.15596 202.179108 124.899628 C 206.369553 118.645309 214.131058 112.822296 223.384109 119.255585 Z M 222.942719 188.134903 C 265.553436 177.948517 289.529633 195.025757 279.98587 206.694061 C 269.676636 219.293701 245.000671 219.264877 243.061676 243.933746 C 239.438019 290.091248 194.034363 298.259277 213.407547 266.034668 C 220.193756 254.744568 210.228821 247.590271 204.387589 262.025208 C 200.860504 270.736786 184.133133 282.691772 175.293671 287.112244 C 135.175583 307.170013 103.188614 278.027557 131.882584 269.928314 C 150.554001 264.658936 167.327896 251.984955 178.042633 222.961334 C 183.750885 207.494949 204.226303 192.609985 222.942719 188.135391 Z M 95.980736 281.671448 C 112.132233 302.320313 62.234768 303.47406 43.80756 309.676819 C 25.379341 315.880554 63.354176 319.029968 96.76088 318.682617 C 130.171127 318.335297 125.115601 343.993103 87.142799 356.562408 C 28.801765 375.870392 -23.205074 355.819153 21.499853 343.007721 C 38.172115 338.226715 26.32128 324.43692 7.814693 326.425934 C -27.132584 330.182556 -53.034634 312.933411 -47.153454 299.458069 C -40.516403 284.250061 -24.092907 294.488007 -7.484346 295.624603 C 9.124712 296.762207 -5.251607 280.483307 -26.757936 269.274078 C -63.698818 250.020721 -32.794838 217.272827 -1.074311 246.877899 C 44.120026 289.058838 83.887222 266.210144 95.980247 281.671478 Z M 263.547699 331.731232 C 239.699417 380.429871 190.735809 375.645355 197.609985 359.022156 C 204.482651 342.399445 176.208313 355.941528 163.111176 352.910431 C 150.016052 349.882874 142.25 327.117096 190.878387 322.735016 C 250.790833 317.33316 252.19136 258.235229 272.199097 270.5755 C 285.956543 279.057983 272.388184 313.679688 263.54718 331.73172 Z M 621.21991 111.346436 C 661.162537 104.481354 670.008606 118.23526 653.378784 129.243271 C 643.066528 136.071945 602.909485 157.847748 632.238525 159.980896 C 661.571594 162.114548 639.711304 190.002075 605.264587 215.963791 C 570.818848 241.92601 495.563873 255.951431 498.852325 234.056808 C 502.142761 212.162674 590.760803 201.656754 574.80304 178.550186 C 567.872192 168.513962 533.975586 210.139252 518.926819 186.188828 C 503.877014 162.238419 596.18042 115.647598 621.21936 111.346436 Z M 361.248932 152.376129 C 373.998199 141.583008 400.072174 157.16925 376.619232 178.558273 C 371.191101 183.509644 357.237976 188.250671 365.573334 193.137329 C 390.758453 207.898407 467.51709 131.219666 480.215302 156.376953 C 486.320953 168.473007 455.707214 195.525299 422.291901 212.425079 C 397.624023 224.899841 406.618195 247.755127 443.230957 225.236557 C 479.845734 202.716995 486.305786 229.261154 466.023529 246.68222 C 445.742249 264.101257 316.164307 324.433868 307.335449 292.191559 C 300.464325 267.115143 372.860077 271.708557 363.851257 255.507019 C 357.237976 243.618256 306.888519 275.185089 289.065979 254.684921 C 271.817352 234.848587 336.383362 221.705444 332.249054 209.811615 C 328.984375 200.42662 298.088989 213.650665 297.490845 190.675064 C 297.028229 172.867722 330.392456 178.491028 361.248413 152.376129 Z M 540.372986 312.675537 C 548.12384 271.90271 619.940247 233.892471 647.49408 223.671722 C 690.849548 207.597092 736.151611 212.955963 710.578186 226.108231 C 685.004761 239.263504 617.781311 282.821716 652.381226 285.81134 C 669.409912 287.282654 688.657227 299.915649 652.381226 329.878174 C 629.353516 348.899475 549.096619 375.184784 544.713562 358.377533 C 540.330017 341.57077 636.777771 312.340332 606.820801 309.415924 C 576.863831 306.493561 536.751282 331.741821 540.372986 312.675537 Z M 434.617981 298.040344 C 458.018799 286.343231 479.659149 272.176758 504.570679 266.829468 C 537.059753 259.857208 505.015625 303.815369 473.828003 318.076385 C 459.859711 324.463165 476.585571 332.975006 490.02652 326.449158 C 526.55127 308.718689 542.436829 322.340149 504.718842 347.42514 C 495.341431 353.662262 466.367828 368.428894 431.186951 372.93988 C 395.672394 377.49588 396.595123 364.420959 407.5849 359.519653 C 423.389557 352.472565 434.215515 337.193756 391.842468 350.098267 C 316.096558 373.165405 271.227325 369.324341 288.470398 350.098267 C 304.575867 332.144287 358.87207 335.900909 434.618011 298.040344 Z"/>
    </g>
    <g id="g1">
        <g id="g3">
            <path id="--374" fill="#78d6cf" stroke="none" d="M 436.365631 118.117065 L 436.365631 252.392914 C 436.365631 257.743683 432.027893 262.081482 426.677094 262.081482 L 184.307007 262.081482 C 178.956161 262.081482 174.6185 257.743683 174.6185 252.392914 L 174.6185 118.117065 C 174.6185 112.766113 178.956161 108.428345 184.307007 108.428345 L 426.677094 108.428345 C 432.027893 108.428345 436.365631 112.766113 436.365631 118.117065 Z"/>
            <path id="--373" fill="#ffffff" stroke="none" d="M 425.585815 126.402512 C 421.646973 126.402512 418.453888 123.209579 418.453888 119.270645 C 418.453888 115.331711 421.646973 112.138519 425.585815 112.138519 C 429.524689 112.138519 432.717834 115.331711 432.717834 119.270645 C 432.717834 123.209579 429.524689 126.402512 425.585815 126.402512 Z"/>
            <path id="--372" fill="#ffffff" stroke="none" d="M 425.585815 258.379089 C 421.646973 258.379089 418.453888 255.185898 418.453888 251.247192 C 418.453888 247.308258 421.646973 244.115051 425.585815 244.115051 C 429.524689 244.115051 432.717834 247.308258 432.717834 251.247192 C 432.717834 255.185898 429.524689 258.379089 425.585815 258.379089 Z"/>
            <path id="--371" fill="#ffffff" stroke="none" d="M 185.398285 126.402512 C 181.459396 126.402512 178.266312 123.209579 178.266312 119.270645 C 178.266312 115.331711 181.459396 112.138519 185.398285 112.138519 C 189.337158 112.138519 192.530243 115.331711 192.530243 119.270645 C 192.530243 123.209579 189.337158 126.402512 185.398285 126.402512 Z"/>
            <path id="--370" fill="#ffffff" stroke="none" d="M 185.398285 258.379089 C 181.459396 258.379089 178.266312 255.185898 178.266312 251.247192 C 178.266312 247.308258 181.459396 244.115051 185.398285 244.115051 C 189.337158 244.115051 192.530243 247.308258 192.530243 251.247192 C 192.530243 255.185898 189.337158 258.379089 185.398285 258.379089 Z"/>
            <path id="--368" fill="#414042" stroke="none" d="M 235.836487 108.428345 L 235.836487 262.081482 L 208.859695 262.081482 L 208.859695 108.428345 Z"/>
            <path id="--303" fill="#58595b" stroke="none" d="M 195.796127 138.936157 L 195.796127 231.581436 L 174.626251 231.581436 L 174.626251 138.936157 Z"/>
            <path id="--302" fill="#c1c4c6" stroke="none" d="M 184.205673 164.829468 L 184.205673 171.813293 L 143.12088 171.813293 L 143.12088 164.829468 Z"/>
            <path id="--301" fill="#c1c4c6" stroke="none" d="M 184.205673 147.892029 L 184.205673 154.875854 L 143.12088 154.875854 L 143.12088 147.892029 Z"/>
            <path id="--300" fill="#c1c4c6" stroke="none" d="M 184.205673 181.766861 L 184.205673 188.750732 L 143.12088 188.750732 L 143.12088 181.766861 Z"/>
            <path id="--299" fill="#c1c4c6" stroke="none" d="M 184.205673 198.696564 L 184.205673 205.680313 L 143.12088 205.680313 L 143.12088 198.696564 Z"/>
            <path id="--298" fill="#c1c4c6" stroke="none" d="M 184.205673 215.633972 L 184.205673 222.617783 L 143.12088 222.617783 L 143.12088 215.633972 Z"/>
            <path id="--297" fill="#58595b" stroke="none" d="M 403.33255 231.573685 L 403.33255 138.928329 L 424.502441 138.928329 L 424.502441 231.573685 Z"/>
            <path id="--296" fill="#c1c4c6" stroke="none" d="M 414.915161 205.688309 L 414.915161 198.704498 L 456 198.704498 L 456 205.688309 Z"/>
            <path id="--295" fill="#c1c4c6" stroke="none" d="M 414.915161 222.618011 L 414.915161 215.634109 L 456 215.634109 L 456 222.618011 Z"/>
            <path id="--294" fill="#c1c4c6" stroke="none" d="M 414.915161 188.742905 L 414.915161 181.759094 L 456 181.759094 L 456 188.742905 Z"/>
            <path id="--293" fill="#c1c4c6" stroke="none" d="M 414.915161 171.813293 L 414.915161 164.829468 L 456 164.829468 L 456 171.813293 Z"/>
            <path id="--292" fill="#c1c4c6" stroke="none" d="M 414.915161 154.875854 L 414.915161 147.892029 L 456 147.892029 L 456 154.875854 Z"/>
            <path id="--99" fill="#c1c4c6" stroke="none" d="M 174.6185 138.936157 L 174.6185 231.581436 L 143.12088 231.581436 L 143.12088 138.936157 Z"/>
            <path id="--96" fill="#c1c4c6" stroke="none" d="M 456 138.936157 L 456 231.581436 L 424.502441 231.581436 L 424.502441 138.936157 Z"/>
        </g>
        <g id="g4">
            <path id="--369" fill="#e0e0e0" stroke="none" d="M 247.428345 108.675262 L 401.081482 108.675262 L 401.081482 262.328278 L 247.428345 262.328278 Z"/>
            <path id="--367" fill="#ffffff" stroke="none" d="M 267.475952 122.689758 C 267.475952 126.021637 264.774933 128.722672 261.443054 128.722672 C 258.110962 128.722672 255.409912 126.021637 255.409912 122.689758 C 255.409912 119.35791 258.110962 116.65683 261.443054 116.65683 C 264.774933 116.65683 267.475952 119.35791 267.475952 122.689758 Z"/>
            <path id="--366" fill="#ffffff" stroke="none" d="M 285.426514 122.689758 C 285.426514 126.021637 282.725677 128.722672 279.393616 128.722672 C 276.061737 128.722672 273.360657 126.021637 273.360657 122.689758 C 273.360657 119.35791 276.061737 116.65683 279.393616 116.65683 C 282.725677 116.65683 285.426514 119.35791 285.426514 122.689758 Z"/>
            <path id="--365" fill="#ffffff" stroke="none" d="M 303.369507 122.689758 C 303.369507 126.021637 300.668457 128.722672 297.336578 128.722672 C 294.0047 128.722672 291.30365 126.021637 291.30365 122.689758 C 291.30365 119.35791 294.0047 116.65683 297.336578 116.65683 C 300.668457 116.65683 303.369507 119.35791 303.369507 122.689758 Z"/>
            <path id="--364" fill="#ffffff" stroke="none" d="M 321.312439 122.689758 C 321.312439 126.021637 318.61142 128.722672 315.279541 128.722672 C 311.947662 128.722672 309.246552 126.021637 309.246552 122.689758 C 309.246552 119.35791 311.947662 116.65683 315.279541 116.65683 C 318.61142 116.65683 321.312439 119.35791 321.312439 122.689758 Z"/>
            <path id="--363" fill="#ffffff" stroke="none" d="M 339.263214 122.689758 C 339.263214 126.021637 336.562164 128.722672 333.230286 128.722672 C 329.898407 128.722672 327.197388 126.021637 327.197388 122.689758 C 327.197388 119.35791 329.898407 116.65683 333.230286 116.65683 C 336.562164 116.65683 339.263214 119.35791 339.263214 122.689758 Z"/>
            <path id="--362" fill="#ffffff" stroke="none" d="M 357.206207 122.689758 C 357.206207 126.021637 354.505066 128.722672 351.173187 128.722672 C 347.84137 128.722672 345.14032 126.021637 345.14032 122.689758 C 345.14032 119.35791 347.84137 116.65683 351.173187 116.65683 C 354.505066 116.65683 357.206207 119.35791 357.206207 122.689758 Z"/>
            <path id="--361" fill="#ffffff" stroke="none" d="M 375.156952 122.689758 C 375.156952 126.021637 372.455933 128.722672 369.123962 128.722672 C 365.792084 128.722672 363.091034 126.021637 363.091034 122.689758 C 363.091034 119.35791 365.792084 116.65683 369.123962 116.65683 C 372.455933 116.65683 375.156952 119.35791 375.156952 122.689758 Z"/>
            <path id="--360" fill="#ffffff" stroke="none" d="M 393.099884 122.689758 C 393.099884 126.021637 390.398865 128.722672 387.066986 128.722672 C 383.735107 128.722672 381.034058 126.021637 381.034058 122.689758 C 381.034058 119.35791 383.735107 116.65683 387.066986 116.65683 C 390.398865 116.65683 393.099884 119.35791 393.099884 122.689758 Z"/>
            <path id="--359" fill="#ffffff" stroke="none" d="M 267.475952 140.632736 C 267.475952 143.964645 264.774933 146.665649 261.443054 146.665649 C 258.110962 146.665649 255.409912 143.964645 255.409912 140.632736 C 255.409912 137.300781 258.110962 134.599777 261.443054 134.599777 C 264.774933 134.599777 267.475952 137.300781 267.475952 140.632736 Z"/>
            <path id="--358" fill="#ffffff" stroke="none" d="M 285.426514 140.632736 C 285.426514 143.964645 282.725677 146.665649 279.393616 146.665649 C 276.061737 146.665649 273.360657 143.964645 273.360657 140.632736 C 273.360657 137.300781 276.061737 134.599777 279.393616 134.599777 C 282.725677 134.599777 285.426514 137.300781 285.426514 140.632736 Z"/>
            <path id="--357" fill="#ffffff" stroke="none" d="M 303.369507 140.632736 C 303.369507 143.964645 300.668457 146.665649 297.336578 146.665649 C 294.0047 146.665649 291.30365 143.964645 291.30365 140.632736 C 291.30365 137.300781 294.0047 134.599777 297.336578 134.599777 C 300.668457 134.599777 303.369507 137.300781 303.369507 140.632736 Z"/>
            <path id="--356" fill="#ffffff" stroke="none" d="M 321.312439 140.632736 C 321.312439 143.964645 318.61142 146.665649 315.279541 146.665649 C 311.947662 146.665649 309.246552 143.964645 309.246552 140.632736 C 309.246552 137.300781 311.947662 134.599777 315.279541 134.599777 C 318.61142 134.599777 321.312439 137.300781 321.312439 140.632736 Z"/>
            <path id="--355" fill="#ffffff" stroke="none" d="M 339.263214 140.632736 C 339.263214 143.964645 336.562164 146.665649 333.230286 146.665649 C 329.898407 146.665649 327.197388 143.964645 327.197388 140.632736 C 327.197388 137.300781 329.898407 134.599777 333.230286 134.599777 C 336.562164 134.599777 339.263214 137.300781 339.263214 140.632736 Z"/>
            <path id="--354" fill="#ffffff" stroke="none" d="M 357.206207 140.632736 C 357.206207 143.964645 354.505066 146.665649 351.173187 146.665649 C 347.84137 146.665649 345.14032 143.964645 345.14032 140.632736 C 345.14032 137.300781 347.84137 134.599777 351.173187 134.599777 C 354.505066 134.599777 357.206207 137.300781 357.206207 140.632736 Z"/>
            <path id="--353" fill="#ffffff" stroke="none" d="M 375.156952 140.632736 C 375.156952 143.964645 372.455933 146.665649 369.123962 146.665649 C 365.792084 146.665649 363.091034 143.964645 363.091034 140.632736 C 363.091034 137.300781 365.792084 134.599777 369.123962 134.599777 C 372.455933 134.599777 375.156952 137.300781 375.156952 140.632736 Z"/>
            <path id="--352" fill="#ffffff" stroke="none" d="M 393.099884 140.632736 C 393.099884 143.964645 390.398865 146.665649 387.066986 146.665649 C 383.735107 146.665649 381.034058 143.964645 381.034058 140.632736 C 381.034058 137.300781 383.735107 134.599777 387.066986 134.599777 C 390.398865 134.599777 393.099884 137.300781 393.099884 140.632736 Z"/>
            <path id="--351" fill="#ffffff" stroke="none" d="M 267.475952 158.583435 C 267.475952 161.915375 264.774933 164.616394 261.443054 164.616394 C 258.110962 164.616394 255.409912 161.915375 255.409912 158.583435 C 255.409912 155.251541 258.110962 152.550537 261.443054 152.550537 C 264.774933 152.550537 267.475952 155.251541 267.475952 158.583435 Z"/>
            <path id="--350" fill="#ffffff" stroke="none" d="M 285.426514 158.583435 C 285.426514 161.915375 282.725677 164.616394 279.393616 164.616394 C 276.061737 164.616394 273.360657 161.915375 273.360657 158.583435 C 273.360657 155.251541 276.061737 152.550537 279.393616 152.550537 C 282.725677 152.550537 285.426514 155.251541 285.426514 158.583435 Z"/>
            <path id="--349" fill="#ffffff" stroke="none" d="M 303.369507 158.583435 C 303.369507 161.915375 300.668457 164.616394 297.336578 164.616394 C 294.0047 164.616394 291.30365 161.915375 291.30365 158.583435 C 291.30365 155.251541 294.0047 152.550537 297.336578 152.550537 C 300.668457 152.550537 303.369507 155.251541 303.369507 158.583435 Z"/>
            <path id="--348" fill="#ffffff" stroke="none" d="M 321.312439 158.583435 C 321.312439 161.915375 318.61142 164.616394 315.279541 164.616394 C 311.947662 164.616394 309.246552 161.915375 309.246552 158.583435 C 309.246552 155.251541 311.947662 152.550537 315.279541 152.550537 C 318.61142 152.550537 321.312439 155.251541 321.312439 158.583435 Z"/>
            <path id="--347" fill="#ffffff" stroke="none" d="M 339.263214 158.583435 C 339.263214 161.915375 336.562164 164.616394 333.230286 164.616394 C 329.898407 164.616394 327.197388 161.915375 327.197388 158.583435 C 327.197388 155.251541 329.898407 152.550537 333.230286 152.550537 C 336.562164 152.550537 339.263214 155.251541 339.263214 158.583435 Z"/>
            <path id="--346" fill="#ffffff" stroke="none" d="M 357.206207 158.583435 C 357.206207 161.915375 354.505066 164.616394 351.173187 164.616394 C 347.84137 164.616394 345.14032 161.915375 345.14032 158.583435 C 345.14032 155.251541 347.84137 152.550537 351.173187 152.550537 C 354.505066 152.550537 357.206207 155.251541 357.206207 158.583435 Z"/>
            <path id="--345" fill="#ffffff" stroke="none" d="M 375.156952 158.583435 C 375.156952 161.915375 372.455933 164.616394 369.123962 164.616394 C 365.792084 164.616394 363.091034 161.915375 363.091034 158.583435 C 363.091034 155.251541 365.792084 152.550537 369.123962 152.550537 C 372.455933 152.550537 375.156952 155.251541 375.156952 158.583435 Z"/>
            <path id="--344" fill="#ffffff" stroke="none" d="M 393.099884 158.583435 C 393.099884 161.915375 390.398865 164.616394 387.066986 164.616394 C 383.735107 164.616394 381.034058 161.915375 381.034058 158.583435 C 381.034058 155.251541 383.735107 152.550537 387.066986 152.550537 C 390.398865 152.550537 393.099884 155.251541 393.099884 158.583435 Z"/>
            <path id="--343" fill="#ffffff" stroke="none" d="M 267.475952 176.526413 C 267.475952 179.858292 264.774933 182.559372 261.443054 182.559372 C 258.110962 182.559372 255.409912 179.858292 255.409912 176.526413 C 255.409912 173.194489 258.110962 170.493454 261.443054 170.493454 C 264.774933 170.493454 267.475952 173.194489 267.475952 176.526413 Z"/>
            <path id="--342" fill="#ffffff" stroke="none" d="M 285.426514 176.526413 C 285.426514 179.858292 282.725677 182.559372 279.393616 182.559372 C 276.061737 182.559372 273.360657 179.858292 273.360657 176.526413 C 273.360657 173.194489 276.061737 170.493454 279.393616 170.493454 C 282.725677 170.493454 285.426514 173.194489 285.426514 176.526413 Z"/>
            <path id="--341" fill="#ffffff" stroke="none" d="M 303.369507 176.526413 C 303.369507 179.858292 300.668457 182.559372 297.336578 182.559372 C 294.0047 182.559372 291.30365 179.858292 291.30365 176.526413 C 291.30365 173.194489 294.0047 170.493454 297.336578 170.493454 C 300.668457 170.493454 303.369507 173.194489 303.369507 176.526413 Z"/>
            <path id="--340" fill="#ffffff" stroke="none" d="M 321.312439 176.526413 C 321.312439 179.858292 318.61142 182.559372 315.279541 182.559372 C 311.947662 182.559372 309.246552 179.858292 309.246552 176.526413 C 309.246552 173.194489 311.947662 170.493454 315.279541 170.493454 C 318.61142 170.493454 321.312439 173.194489 321.312439 176.526413 Z"/>
            <path id="--339" fill="#ffffff" stroke="none" d="M 339.263214 176.526413 C 339.263214 179.858292 336.562164 182.559372 333.230286 182.559372 C 329.898407 182.559372 327.197388 179.858292 327.197388 176.526413 C 327.197388 173.194489 329.898407 170.493454 333.230286 170.493454 C 336.562164 170.493454 339.263214 173.194489 339.263214 176.526413 Z"/>
            <path id="--338" fill="#ffffff" stroke="none" d="M 357.206207 176.526413 C 357.206207 179.858292 354.505066 182.559372 351.173187 182.559372 C 347.84137 182.559372 345.14032 179.858292 345.14032 176.526413 C 345.14032 173.194489 347.84137 170.493454 351.173187 170.493454 C 354.505066 170.493454 357.206207 173.194489 357.206207 176.526413 Z"/>
            <path id="--337" fill="#ffffff" stroke="none" d="M 375.156952 176.526413 C 375.156952 179.858292 372.455933 182.559372 369.123962 182.559372 C 365.792084 182.559372 363.091034 179.858292 363.091034 176.526413 C 363.091034 173.194489 365.792084 170.493454 369.123962 170.493454 C 372.455933 170.493454 375.156952 173.194489 375.156952 176.526413 Z"/>
            <path id="--336" fill="#ffffff" stroke="none" d="M 393.099884 176.526413 C 393.099884 179.858292 390.398865 182.559372 387.066986 182.559372 C 383.735107 182.559372 381.034058 179.858292 381.034058 176.526413 C 381.034058 173.194489 383.735107 170.493454 387.066986 170.493454 C 390.398865 170.493454 393.099884 173.194489 393.099884 176.526413 Z"/>
            <path id="--335" fill="#ffffff" stroke="none" d="M 267.475952 194.46936 C 267.475952 197.801239 264.774933 200.502274 261.443054 200.502274 C 258.110962 200.502274 255.409912 197.801239 255.409912 194.46936 C 255.409912 191.137466 258.110962 188.436386 261.443054 188.436386 C 264.774933 188.436386 267.475952 191.137466 267.475952 194.46936 Z"/>
            <path id="--334" fill="#ffffff" stroke="none" d="M 285.426514 194.46936 C 285.426514 197.801239 282.725677 200.502274 279.393616 200.502274 C 276.061737 200.502274 273.360657 197.801239 273.360657 194.46936 C 273.360657 191.137466 276.061737 188.436386 279.393616 188.436386 C 282.725677 188.436386 285.426514 191.137466 285.426514 194.46936 Z"/>
            <path id="--333" fill="#ffffff" stroke="none" d="M 303.369507 194.46936 C 303.369507 197.801239 300.668457 200.502274 297.336578 200.502274 C 294.0047 200.502274 291.30365 197.801239 291.30365 194.46936 C 291.30365 191.137466 294.0047 188.436386 297.336578 188.436386 C 300.668457 188.436386 303.369507 191.137466 303.369507 194.46936 Z"/>
            <path id="--332" fill="#ffffff" stroke="none" d="M 321.312439 194.46936 C 321.312439 197.801239 318.61142 200.502274 315.279541 200.502274 C 311.947662 200.502274 309.246552 197.801239 309.246552 194.46936 C 309.246552 191.137466 311.947662 188.436386 315.279541 188.436386 C 318.61142 188.436386 321.312439 191.137466 321.312439 194.46936 Z"/>
            <path id="--331" fill="#ffffff" stroke="none" d="M 339.263214 194.46936 C 339.263214 197.801239 336.562164 200.502274 333.230286 200.502274 C 329.898407 200.502274 327.197388 197.801239 327.197388 194.46936 C 327.197388 191.137466 329.898407 188.436386 333.230286 188.436386 C 336.562164 188.436386 339.263214 191.137466 339.263214 194.46936 Z"/>
            <path id="--330" fill="#ffffff" stroke="none" d="M 357.206207 194.46936 C 357.206207 197.801239 354.505066 200.502274 351.173187 200.502274 C 347.84137 200.502274 345.14032 197.801239 345.14032 194.46936 C 345.14032 191.137466 347.84137 188.436386 351.173187 188.436386 C 354.505066 188.436386 357.206207 191.137466 357.206207 194.46936 Z"/>
            <path id="--329" fill="#ffffff" stroke="none" d="M 375.156952 194.46936 C 375.156952 197.801239 372.455933 200.502274 369.123962 200.502274 C 365.792084 200.502274 363.091034 197.801239 363.091034 194.46936 C 363.091034 191.137466 365.792084 188.436386 369.123962 188.436386 C 372.455933 188.436386 375.156952 191.137466 375.156952 194.46936 Z"/>
            <path id="--328" fill="#ffffff" stroke="none" d="M 393.099884 194.46936 C 393.099884 197.801239 390.398865 200.502274 387.066986 200.502274 C 383.735107 200.502274 381.034058 197.801239 381.034058 194.46936 C 381.034058 191.137466 383.735107 188.436386 387.066986 188.436386 C 390.398865 188.436386 393.099884 191.137466 393.099884 194.46936 Z"/>
            <path id="--327" fill="#ffffff" stroke="none" d="M 267.475952 212.42009 C 267.475952 215.751968 264.774933 218.453018 261.443054 218.453018 C 258.110962 218.453018 255.409912 215.751968 255.409912 212.42009 C 255.409912 209.088165 258.110962 206.387146 261.443054 206.387146 C 264.774933 206.387146 267.475952 209.088165 267.475952 212.42009 Z"/>
            <path id="--326" fill="#ffffff" stroke="none" d="M 285.426514 212.42009 C 285.426514 215.751968 282.725677 218.453018 279.393616 218.453018 C 276.061737 218.453018 273.360657 215.751968 273.360657 212.42009 C 273.360657 209.088165 276.061737 206.387146 279.393616 206.387146 C 282.725677 206.387146 285.426514 209.088165 285.426514 212.42009 Z"/>
            <path id="--325" fill="#ffffff" stroke="none" d="M 303.369507 212.42009 C 303.369507 215.751968 300.668457 218.453018 297.336578 218.453018 C 294.0047 218.453018 291.30365 215.751968 291.30365 212.42009 C 291.30365 209.088165 294.0047 206.387146 297.336578 206.387146 C 300.668457 206.387146 303.369507 209.088165 303.369507 212.42009 Z"/>
            <path id="--324" fill="#ffffff" stroke="none" d="M 321.312439 212.42009 C 321.312439 215.751968 318.61142 218.453018 315.279541 218.453018 C 311.947662 218.453018 309.246552 215.751968 309.246552 212.42009 C 309.246552 209.088165 311.947662 206.387146 315.279541 206.387146 C 318.61142 206.387146 321.312439 209.088165 321.312439 212.42009 Z"/>
            <path id="--323" fill="#ffffff" stroke="none" d="M 339.263214 212.42009 C 339.263214 215.751968 336.562164 218.453018 333.230286 218.453018 C 329.898407 218.453018 327.197388 215.751968 327.197388 212.42009 C 327.197388 209.088165 329.898407 206.387146 333.230286 206.387146 C 336.562164 206.387146 339.263214 209.088165 339.263214 212.42009 Z"/>
            <path id="--322" fill="#ffffff" stroke="none" d="M 357.206207 212.42009 C 357.206207 215.751968 354.505066 218.453018 351.173187 218.453018 C 347.84137 218.453018 345.14032 215.751968 345.14032 212.42009 C 345.14032 209.088165 347.84137 206.387146 351.173187 206.387146 C 354.505066 206.387146 357.206207 209.088165 357.206207 212.42009 Z"/>
            <path id="--321" fill="#ffffff" stroke="none" d="M 375.156952 212.42009 C 375.156952 215.751968 372.455933 218.453018 369.123962 218.453018 C 365.792084 218.453018 363.091034 215.751968 363.091034 212.42009 C 363.091034 209.088165 365.792084 206.387146 369.123962 206.387146 C 372.455933 206.387146 375.156952 209.088165 375.156952 212.42009 Z"/>
            <path id="--320" fill="#ffffff" stroke="none" d="M 393.099884 212.42009 C 393.099884 215.751968 390.398865 218.453018 387.066986 218.453018 C 383.735107 218.453018 381.034058 215.751968 381.034058 212.42009 C 381.034058 209.088165 383.735107 206.387146 387.066986 206.387146 C 390.398865 206.387146 393.099884 209.088165 393.099884 212.42009 Z"/>
            <path id="--319" fill="#ffffff" stroke="none" d="M 267.475952 230.363022 C 267.475952 233.694916 264.774933 236.39595 261.443054 236.39595 C 258.110962 236.39595 255.409912 233.694916 255.409912 230.363022 C 255.409912 227.031143 258.110962 224.330109 261.443054 224.330109 C 264.774933 224.330109 267.475952 227.031143 267.475952 230.363022 Z"/>
            <path id="--318" fill="#ffffff" stroke="none" d="M 285.426514 230.363022 C 285.426514 233.694916 282.725677 236.39595 279.393616 236.39595 C 276.061737 236.39595 273.360657 233.694916 273.360657 230.363022 C 273.360657 227.031143 276.061737 224.330109 279.393616 224.330109 C 282.725677 224.330109 285.426514 227.031143 285.426514 230.363022 Z"/>
            <path id="--317" fill="#ffffff" stroke="none" d="M 303.369507 230.363022 C 303.369507 233.694916 300.668457 236.39595 297.336578 236.39595 C 294.0047 236.39595 291.30365 233.694916 291.30365 230.363022 C 291.30365 227.031143 294.0047 224.330109 297.336578 224.330109 C 300.668457 224.330109 303.369507 227.031143 303.369507 230.363022 Z"/>
            <path id="--316" fill="#ffffff" stroke="none" d="M 321.312439 230.363022 C 321.312439 233.694916 318.61142 236.39595 315.279541 236.39595 C 311.947662 236.39595 309.246552 233.694916 309.246552 230.363022 C 309.246552 227.031143 311.947662 224.330109 315.279541 224.330109 C 318.61142 224.330109 321.312439 227.031143 321.312439 230.363022 Z"/>
            <path id="--315" fill="#ffffff" stroke="none" d="M 339.263214 230.363022 C 339.263214 233.694916 336.562164 236.39595 333.230286 236.39595 C 329.898407 236.39595 327.197388 233.694916 327.197388 230.363022 C 327.197388 227.031143 329.898407 224.330109 333.230286 224.330109 C 336.562164 224.330109 339.263214 227.031143 339.263214 230.363022 Z"/>
            <path id="--314" fill="#ffffff" stroke="none" d="M 357.206207 230.363022 C 357.206207 233.694916 354.505066 236.39595 351.173187 236.39595 C 347.84137 236.39595 345.14032 233.694916 345.14032 230.363022 C 345.14032 227.031143 347.84137 224.330109 351.173187 224.330109 C 354.505066 224.330109 357.206207 227.031143 357.206207 230.363022 Z"/>
            <path id="--313" fill="#ffffff" stroke="none" d="M 375.156952 230.363022 C 375.156952 233.694916 372.455933 236.39595 369.123962 236.39595 C 365.792084 236.39595 363.091034 233.694916 363.091034 230.363022 C 363.091034 227.031143 365.792084 224.330109 369.123962 224.330109 C 372.455933 224.330109 375.156952 227.031143 375.156952 230.363022 Z"/>
            <path id="--312" fill="#ffffff" stroke="none" d="M 393.099884 230.363022 C 393.099884 233.694916 390.398865 236.39595 387.066986 236.39595 C 383.735107 236.39595 381.034058 233.694916 381.034058 230.363022 C 381.034058 227.031143 383.735107 224.330109 387.066986 224.330109 C 390.398865 224.330109 393.099884 227.031143 393.099884 230.363022 Z"/>
            <path id="--311" fill="#ffffff" stroke="none" d="M 267.475952 248.313782 C 267.475952 251.645676 264.774933 254.34671 261.443054 254.34671 C 258.110962 254.34671 255.409912 251.645676 255.409912 248.313782 C 255.409912 244.981842 258.110962 242.280823 261.443054 242.280823 C 264.774933 242.280823 267.475952 244.981842 267.475952 248.313782 Z"/>
            <path id="--310" fill="#ffffff" stroke="none" d="M 285.426514 248.313782 C 285.426514 251.645676 282.725677 254.34671 279.393616 254.34671 C 276.061737 254.34671 273.360657 251.645676 273.360657 248.313782 C 273.360657 244.981842 276.061737 242.280823 279.393616 242.280823 C 282.725677 242.280823 285.426514 244.981842 285.426514 248.313782 Z"/>
            <path id="--309" fill="#ffffff" stroke="none" d="M 303.369507 248.313782 C 303.369507 251.645676 300.668457 254.34671 297.336578 254.34671 C 294.0047 254.34671 291.30365 251.645676 291.30365 248.313782 C 291.30365 244.981842 294.0047 242.280823 297.336578 242.280823 C 300.668457 242.280823 303.369507 244.981842 303.369507 248.313782 Z"/>
            <path id="--308" fill="#ffffff" stroke="none" d="M 321.312439 248.313782 C 321.312439 251.645676 318.61142 254.34671 315.279541 254.34671 C 311.947662 254.34671 309.246552 251.645676 309.246552 248.313782 C 309.246552 244.981842 311.947662 242.280823 315.279541 242.280823 C 318.61142 242.280823 321.312439 244.981842 321.312439 248.313782 Z"/>
            <path id="--307" fill="#ffffff" stroke="none" d="M 339.263214 248.313782 C 339.263214 251.645676 336.562164 254.34671 333.230286 254.34671 C 329.898407 254.34671 327.197388 251.645676 327.197388 248.313782 C 327.197388 244.981842 329.898407 242.280823 333.230286 242.280823 C 336.562164 242.280823 339.263214 244.981842 339.263214 248.313782 Z"/>
            <path id="--306" fill="#ffffff" stroke="none" d="M 357.206207 248.313782 C 357.206207 251.645676 354.505066 254.34671 351.173187 254.34671 C 347.84137 254.34671 345.14032 251.645676 345.14032 248.313782 C 345.14032 244.981842 347.84137 242.280823 351.173187 242.280823 C 354.505066 242.280823 357.206207 244.981842 357.206207 248.313782 Z"/>
            <path id="--305" fill="#ffffff" stroke="none" d="M 375.156952 248.313782 C 375.156952 251.645676 372.455933 254.34671 369.123962 254.34671 C 365.792084 254.34671 363.091034 251.645676 363.091034 248.313782 C 363.091034 244.981842 365.792084 242.280823 369.123962 242.280823 C 372.455933 242.280823 375.156952 244.981842 375.156952 248.313782 Z"/>
            <path id="--304" fill="#ffffff" stroke="none" d="M 393.099884 248.313782 C 393.099884 251.645676 390.398865 254.34671 387.066986 254.34671 C 383.735107 254.34671 381.034058 251.645676 381.034058 248.313782 C 381.034058 244.981842 383.735107 242.280823 387.066986 242.280823 C 390.398865 242.280823 393.099884 244.981842 393.099884 248.313782 Z"/>
            <path id="--92" fill="#ff92be" stroke="none" d="M 285.97229 140.632736 C 285.97229 144.300385 282.998962 147.273636 279.33139 147.273636 C 275.663635 147.273636 272.69043 144.300385 272.69043 140.632736 C 272.69043 136.964996 275.663635 133.991791 279.33139 133.991791 C 282.998962 133.991791 285.97229 136.964996 285.97229 140.632736 Z"/>
            <path id="--91" fill="#ff92be" stroke="none" d="M 303.923065 140.632736 C 303.923065 144.300385 300.949707 147.273636 297.282135 147.273636 C 293.61438 147.273636 290.641205 144.300385 290.641205 140.632736 C 290.641205 136.964996 293.61438 133.991791 297.282135 133.991791 C 300.949707 133.991791 303.923065 136.964996 303.923065 140.632736 Z"/>
            <path id="--90" fill="#ff92be" stroke="none" d="M 357.759552 140.632736 C 357.759552 144.300385 354.786377 147.273636 351.118591 147.273636 C 347.451019 147.273636 344.477722 144.300385 344.477722 140.632736 C 344.477722 136.964996 347.451019 133.991791 351.118591 133.991791 C 354.786377 133.991791 357.759552 136.964996 357.759552 140.632736 Z"/>
            <path id="--89" fill="#ff92be" stroke="none" d="M 375.710327 140.632736 C 375.710327 144.300385 372.737091 147.273636 369.069397 147.273636 C 365.401794 147.273636 362.428436 144.300385 362.428436 140.632736 C 362.428436 136.964996 365.401794 133.991791 369.069397 133.991791 C 372.737091 133.991791 375.710327 136.964996 375.710327 140.632736 Z"/>
            <path id="--88" fill="#ff92be" stroke="none" d="M 268.029358 158.583435 C 268.029358 162.251144 265.056 165.22438 261.388397 165.22438 C 257.720703 165.22438 254.747498 162.251144 254.747498 158.583435 C 254.747498 154.915787 257.720703 151.942551 261.388397 151.942551 C 265.056 151.942551 268.029358 154.915787 268.029358 158.583435 Z"/>
            <path id="--87" fill="#ff92be" stroke="none" d="M 285.97229 158.583435 C 285.97229 162.251144 282.998962 165.22438 279.33139 165.22438 C 275.663635 165.22438 272.69043 162.251144 272.69043 158.583435 C 272.69043 154.915787 275.663635 151.942551 279.33139 151.942551 C 282.998962 151.942551 285.97229 154.915787 285.97229 158.583435 Z"/>
            <path id="--86" fill="#ff92be" stroke="none" d="M 303.923065 158.583435 C 303.923065 162.251144 300.949707 165.22438 297.282135 165.22438 C 293.61438 165.22438 290.641205 162.251144 290.641205 158.583435 C 290.641205 154.915787 293.61438 151.942551 297.282135 151.942551 C 300.949707 151.942551 303.923065 154.915787 303.923065 158.583435 Z"/>
            <path id="--85" fill="#ff92be" stroke="none" d="M 321.865875 158.583435 C 321.865875 162.251144 318.89267 165.22438 315.225098 165.22438 C 311.557373 165.22438 308.584167 162.251144 308.584167 158.583435 C 308.584167 154.915787 311.557373 151.942551 315.225098 151.942551 C 318.89267 151.942551 321.865875 154.915787 321.865875 158.583435 Z"/>
            <path id="--84" fill="#ff92be" stroke="none" d="M 339.81662 158.583435 C 339.81662 162.251144 336.843445 165.22438 333.17569 165.22438 C 329.508118 165.22438 326.53476 162.251144 326.53476 158.583435 C 326.53476 154.915787 329.508118 151.942551 333.17569 151.942551 C 336.843445 151.942551 339.81662 154.915787 339.81662 158.583435 Z"/>
            <path id="--83" fill="#ff92be" stroke="none" d="M 357.759552 158.583435 C 357.759552 162.251144 354.786377 165.22438 351.118591 165.22438 C 347.451019 165.22438 344.477722 162.251144 344.477722 158.583435 C 344.477722 154.915787 347.451019 151.942551 351.118591 151.942551 C 354.786377 151.942551 357.759552 154.915787 357.759552 158.583435 Z"/>
            <path id="--82" fill="#ff92be" stroke="none" d="M 375.710327 158.583435 C 375.710327 162.251144 372.737091 165.22438 369.069397 165.22438 C 365.401794 165.22438 362.428436 162.251144 362.428436 158.583435 C 362.428436 154.915787 365.401794 151.942551 369.069397 151.942551 C 372.737091 151.942551 375.710327 154.915787 375.710327 158.583435 Z"/>
            <path id="--81" fill="#ff92be" stroke="none" d="M 393.65329 158.583435 C 393.65329 162.251144 390.680115 165.22438 387.01236 165.22438 C 383.344757 165.22438 380.37146 162.251144 380.37146 158.583435 C 380.37146 154.915787 383.344757 151.942551 387.01236 151.942551 C 390.680115 151.942551 393.65329 154.915787 393.65329 158.583435 Z"/>
            <path id="--80" fill="#ff92be" stroke="none" d="M 268.029358 176.526413 C 268.029358 180.194061 265.056 183.167328 261.388397 183.167328 C 257.720703 183.167328 254.747498 180.194061 254.747498 176.526413 C 254.747498 172.858734 257.720703 169.885468 261.388397 169.885468 C 265.056 169.885468 268.029358 172.858734 268.029358 176.526413 Z"/>
            <path id="--79" fill="#ff92be" stroke="none" d="M 285.97229 176.526413 C 285.97229 180.194061 282.998962 183.167328 279.33139 183.167328 C 275.663635 183.167328 272.69043 180.194061 272.69043 176.526413 C 272.69043 172.858734 275.663635 169.885468 279.33139 169.885468 C 282.998962 169.885468 285.97229 172.858734 285.97229 176.526413 Z"/>
            <path id="--78" fill="#ff92be" stroke="none" d="M 303.923065 176.526413 C 303.923065 180.194061 300.949707 183.167328 297.282135 183.167328 C 293.61438 183.167328 290.641205 180.194061 290.641205 176.526413 C 290.641205 172.858734 293.61438 169.885468 297.282135 169.885468 C 300.949707 169.885468 303.923065 172.858734 303.923065 176.526413 Z"/>
            <path id="--77" fill="#ff92be" stroke="none" d="M 321.865875 176.526413 C 321.865875 180.194061 318.89267 183.167328 315.225098 183.167328 C 311.557373 183.167328 308.584167 180.194061 308.584167 176.526413 C 308.584167 172.858734 311.557373 169.885468 315.225098 169.885468 C 318.89267 169.885468 321.865875 172.858734 321.865875 176.526413 Z"/>
            <path id="--76" fill="#ff92be" stroke="none" d="M 339.81662 176.526413 C 339.81662 180.194061 336.843445 183.167328 333.17569 183.167328 C 329.508118 183.167328 326.53476 180.194061 326.53476 176.526413 C 326.53476 172.858734 329.508118 169.885468 333.17569 169.885468 C 336.843445 169.885468 339.81662 172.858734 339.81662 176.526413 Z"/>
            <path id="--75" fill="#ff92be" stroke="none" d="M 357.759552 176.526413 C 357.759552 180.194061 354.786377 183.167328 351.118591 183.167328 C 347.451019 183.167328 344.477722 180.194061 344.477722 176.526413 C 344.477722 172.858734 347.451019 169.885468 351.118591 169.885468 C 354.786377 169.885468 357.759552 172.858734 357.759552 176.526413 Z"/>
            <path id="--74" fill="#ff92be" stroke="none" d="M 375.710327 176.526413 C 375.710327 180.194061 372.737091 183.167328 369.069397 183.167328 C 365.401794 183.167328 362.428436 180.194061 362.428436 176.526413 C 362.428436 172.858734 365.401794 169.885468 369.069397 169.885468 C 372.737091 169.885468 375.710327 172.858734 375.710327 176.526413 Z"/>
            <path id="--73" fill="#ff92be" stroke="none" d="M 393.65329 176.526413 C 393.65329 180.194061 390.680115 183.167328 387.01236 183.167328 C 383.344757 183.167328 380.37146 180.194061 380.37146 176.526413 C 380.37146 172.858734 383.344757 169.885468 387.01236 169.885468 C 390.680115 169.885468 393.65329 172.858734 393.65329 176.526413 Z"/>
            <path id="--72" fill="#ff92be" stroke="none" d="M 268.029358 194.46936 C 268.029358 198.136993 265.056 201.11026 261.388397 201.11026 C 257.720703 201.11026 254.747498 198.136993 254.747498 194.46936 C 254.747498 190.801666 257.720703 187.8284 261.388397 187.8284 C 265.056 187.8284 268.029358 190.801666 268.029358 194.46936 Z"/>
            <path id="--71" fill="#ff92be" stroke="none" d="M 285.97229 194.46936 C 285.97229 198.136993 282.998962 201.11026 279.33139 201.11026 C 275.663635 201.11026 272.69043 198.136993 272.69043 194.46936 C 272.69043 190.801666 275.663635 187.8284 279.33139 187.8284 C 282.998962 187.8284 285.97229 190.801666 285.97229 194.46936 Z"/>
            <path id="--70" fill="#ff92be" stroke="none" d="M 303.923065 194.46936 C 303.923065 198.136993 300.949707 201.11026 297.282135 201.11026 C 293.61438 201.11026 290.641205 198.136993 290.641205 194.46936 C 290.641205 190.801666 293.61438 187.8284 297.282135 187.8284 C 300.949707 187.8284 303.923065 190.801666 303.923065 194.46936 Z"/>
            <path id="--69" fill="#ff92be" stroke="none" d="M 321.865875 194.46936 C 321.865875 198.136993 318.89267 201.11026 315.225098 201.11026 C 311.557373 201.11026 308.584167 198.136993 308.584167 194.46936 C 308.584167 190.801666 311.557373 187.8284 315.225098 187.8284 C 318.89267 187.8284 321.865875 190.801666 321.865875 194.46936 Z"/>
            <path id="--68" fill="#ff92be" stroke="none" d="M 339.81662 194.46936 C 339.81662 198.136993 336.843445 201.11026 333.17569 201.11026 C 329.508118 201.11026 326.53476 198.136993 326.53476 194.46936 C 326.53476 190.801666 329.508118 187.8284 333.17569 187.8284 C 336.843445 187.8284 339.81662 190.801666 339.81662 194.46936 Z"/>
            <path id="--67" fill="#ff92be" stroke="none" d="M 357.759552 194.46936 C 357.759552 198.136993 354.786377 201.11026 351.118591 201.11026 C 347.451019 201.11026 344.477722 198.136993 344.477722 194.46936 C 344.477722 190.801666 347.451019 187.8284 351.118591 187.8284 C 354.786377 187.8284 357.759552 190.801666 357.759552 194.46936 Z"/>
            <path id="--66" fill="#ff92be" stroke="none" d="M 375.710327 194.46936 C 375.710327 198.136993 372.737091 201.11026 369.069397 201.11026 C 365.401794 201.11026 362.428436 198.136993 362.428436 194.46936 C 362.428436 190.801666 365.401794 187.8284 369.069397 187.8284 C 372.737091 187.8284 375.710327 190.801666 375.710327 194.46936 Z"/>
            <path id="--65" fill="#ff92be" stroke="none" d="M 393.65329 194.46936 C 393.65329 198.136993 390.680115 201.11026 387.01236 201.11026 C 383.344757 201.11026 380.37146 198.136993 380.37146 194.46936 C 380.37146 190.801666 383.344757 187.8284 387.01236 187.8284 C 390.680115 187.8284 393.65329 190.801666 393.65329 194.46936 Z"/>
            <path id="--64" fill="#ff92be" stroke="none" d="M 285.97229 212.42009 C 285.97229 216.087738 282.998962 219.060989 279.33139 219.060989 C 275.663635 219.060989 272.69043 216.087738 272.69043 212.42009 C 272.69043 208.752396 275.663635 205.77916 279.33139 205.77916 C 282.998962 205.77916 285.97229 208.752396 285.97229 212.42009 Z"/>
            <path id="--63" fill="#ff92be" stroke="none" d="M 303.923065 212.42009 C 303.923065 216.087738 300.949707 219.060989 297.282135 219.060989 C 293.61438 219.060989 290.641205 216.087738 290.641205 212.42009 C 290.641205 208.752396 293.61438 205.77916 297.282135 205.77916 C 300.949707 205.77916 303.923065 208.752396 303.923065 212.42009 Z"/>
            <path id="--62" fill="#ff92be" stroke="none" d="M 321.865875 212.42009 C 321.865875 216.087738 318.89267 219.060989 315.225098 219.060989 C 311.557373 219.060989 308.584167 216.087738 308.584167 212.42009 C 308.584167 208.752396 311.557373 205.77916 315.225098 205.77916 C 318.89267 205.77916 321.865875 208.752396 321.865875 212.42009 Z"/>
            <path id="--61" fill="#ff92be" stroke="none" d="M 339.81662 212.42009 C 339.81662 216.087738 336.843445 219.060989 333.17569 219.060989 C 329.508118 219.060989 326.53476 216.087738 326.53476 212.42009 C 326.53476 208.752396 329.508118 205.77916 333.17569 205.77916 C 336.843445 205.77916 339.81662 208.752396 339.81662 212.42009 Z"/>
            <path id="--60" fill="#ff92be" stroke="none" d="M 357.759552 212.42009 C 357.759552 216.087738 354.786377 219.060989 351.118591 219.060989 C 347.451019 219.060989 344.477722 216.087738 344.477722 212.42009 C 344.477722 208.752396 347.451019 205.77916 351.118591 205.77916 C 354.786377 205.77916 357.759552 208.752396 357.759552 212.42009 Z"/>
            <path id="--59" fill="#ff92be" stroke="none" d="M 375.710327 212.42009 C 375.710327 216.087738 372.737091 219.060989 369.069397 219.060989 C 365.401794 219.060989 362.428436 216.087738 362.428436 212.42009 C 362.428436 208.752396 365.401794 205.77916 369.069397 205.77916 C 372.737091 205.77916 375.710327 208.752396 375.710327 212.42009 Z"/>
            <path id="--58" fill="#ff92be" stroke="none" d="M 303.923065 230.363022 C 303.923065 234.030716 300.949707 237.003937 297.282135 237.003937 C 293.61438 237.003937 290.641205 234.030716 290.641205 230.363022 C 290.641205 226.695343 293.61438 223.722122 297.282135 223.722122 C 300.949707 223.722122 303.923065 226.695343 303.923065 230.363022 Z"/>
            <path id="--57" fill="#ff92be" stroke="none" d="M 321.865875 230.363022 C 321.865875 234.030716 318.89267 237.003937 315.225098 237.003937 C 311.557373 237.003937 308.584167 234.030716 308.584167 230.363022 C 308.584167 226.695343 311.557373 223.722122 315.225098 223.722122 C 318.89267 223.722122 321.865875 226.695343 321.865875 230.363022 Z"/>
            <path id="--56" fill="#ff92be" stroke="none" d="M 339.81662 230.363022 C 339.81662 234.030716 336.843445 237.003937 333.17569 237.003937 C 329.508118 237.003937 326.53476 234.030716 326.53476 230.363022 C 326.53476 226.695343 329.508118 223.722122 333.17569 223.722122 C 336.843445 223.722122 339.81662 226.695343 339.81662 230.363022 Z"/>
            <path id="--55" fill="#ff92be" stroke="none" d="M 357.759552 230.363022 C 357.759552 234.030716 354.786377 237.003937 351.118591 237.003937 C 347.451019 237.003937 344.477722 234.030716 344.477722 230.363022 C 344.477722 226.695343 347.451019 223.722122 351.118591 223.722122 C 354.786377 223.722122 357.759552 226.695343 357.759552 230.363022 Z"/>
            <path id="--54" fill="#ff92be" stroke="none" d="M 321.865875 248.313782 C 321.865875 251.981415 318.89267 254.954666 315.225098 254.954666 C 311.557373 254.954666 308.584167 251.981415 308.584167 248.313782 C 308.584167 244.646072 311.557373 241.672836 315.225098 241.672836 C 318.89267 241.672836 321.865875 244.646072 321.865875 248.313782 Z"/>
            <path id="--53" fill="#ff92be" stroke="none" d="M 339.81662 248.313782 C 339.81662 251.981415 336.843445 254.954666 333.17569 254.954666 C 329.508118 254.954666 326.53476 251.981415 326.53476 248.313782 C 326.53476 244.646072 329.508118 241.672836 333.17569 241.672836 C 336.843445 241.672836 339.81662 244.646072 339.81662 248.313782 Z"/>
        </g>
    </g>
</svg>
