<?xml version="1.0" encoding="UTF-8"?>
<!-- Generated by Pixelmator Pro 3.7 -->
<svg width="80" height="80" viewBox="0 0 80 80" xmlns="http://www.w3.org/2000/svg">
    <g id="flat">
        <path id="path1" fill="#414042" stroke="none" d="M 4.5 4.470001 L 75.529999 4.470001 L 75.529999 75.5 L 4.5 75.5 Z"/>
        <path id="path2" fill="#ffffff" stroke="none" d="M 13.7675 10.947502 C 13.7675 12.488373 12.518374 13.737495 10.9775 13.737495 C 9.436625 13.737495 8.1875 12.488373 8.1875 10.947502 C 8.1875 9.406624 9.436625 8.157501 10.9775 8.157501 C 12.518374 8.157501 13.7675 9.406624 13.7675 10.947502 Z"/>
        <path id="path3" fill="#ffffff" stroke="none" d="M 22.065001 10.947502 C 22.065001 12.488373 20.815874 13.737495 19.275 13.737495 C 17.734125 13.737495 16.485001 12.488373 16.485001 10.947502 C 16.485001 9.406624 17.734125 8.157501 19.275 8.157501 C 20.815874 8.157501 22.065001 9.406624 22.065001 10.947502 Z"/>
        <path id="path4" fill="#ffffff" stroke="none" d="M 30.360001 10.947502 C 30.360001 12.488373 29.110874 13.737495 27.57 13.737495 C 26.029125 13.737495 24.780001 12.488373 24.780001 10.947502 C 24.780001 9.406624 26.029125 8.157501 27.57 8.157501 C 29.110874 8.157501 30.360001 9.406624 30.360001 10.947502 Z"/>
        <path id="path5" fill="#ffffff" stroke="none" d="M 38.657501 10.947502 C 38.657501 12.488373 37.408375 13.737495 35.8675 13.737495 C 34.326626 13.737495 33.077499 12.488373 33.077499 10.947502 C 33.077499 9.406624 34.326626 8.157501 35.8675 8.157501 C 37.408375 8.157501 38.657501 9.406624 38.657501 10.947502 Z"/>
        <path id="path6" fill="#ffffff" stroke="none" d="M 46.952499 10.947502 C 46.952499 12.488373 45.703373 13.737495 44.162498 13.737495 C 42.621624 13.737495 41.372501 12.488373 41.372501 10.947502 C 41.372501 9.406624 42.621624 8.157501 44.162498 8.157501 C 45.703373 8.157501 46.952499 9.406624 46.952499 10.947502 Z"/>
        <path id="path7" fill="#ffffff" stroke="none" d="M 55.25 10.947502 C 55.25 12.488373 54.000874 13.737495 52.459999 13.737495 C 50.919125 13.737495 49.669998 12.488373 49.669998 10.947502 C 49.669998 9.406624 50.919125 8.157501 52.459999 8.157501 C 54.000874 8.157501 55.25 9.406624 55.25 10.947502 Z"/>
        <path id="path8" fill="#ffffff" stroke="none" d="M 63.544998 10.947502 C 63.544998 12.488373 62.295876 13.737495 60.755001 13.737495 C 59.214127 13.737495 57.965 12.488373 57.965 10.947502 C 57.965 9.406624 59.214127 8.157501 60.755001 8.157501 C 62.295876 8.157501 63.544998 9.406624 63.544998 10.947502 Z"/>
        <path id="path9" fill="#ffffff" stroke="none" d="M 71.839996 10.947502 C 71.839996 12.488373 70.590874 13.737495 69.050003 13.737495 C 67.509125 13.737495 66.260002 12.488373 66.260002 10.947502 C 66.260002 9.406624 67.509125 8.157501 69.050003 8.157501 C 70.590874 8.157501 71.839996 9.406624 71.839996 10.947502 Z"/>
        <path id="path10" fill="#ffffff" stroke="none" d="M 13.7675 19.244999 C 13.7675 20.785873 12.518374 22.035 10.9775 22.035 C 9.436625 22.035 8.1875 20.785873 8.1875 19.244999 C 8.1875 17.704124 9.436625 16.454998 10.9775 16.454998 C 12.518374 16.454998 13.7675 17.704124 13.7675 19.244999 Z"/>
        <path id="path11" fill="#ff92be" stroke="none" d="M 22.065001 19.244999 C 22.065001 20.785873 20.815874 22.035 19.275 22.035 C 17.734125 22.035 16.485001 20.785873 16.485001 19.244999 C 16.485001 17.704124 17.734125 16.454998 19.275 16.454998 C 20.815874 16.454998 22.065001 17.704124 22.065001 19.244999 Z"/>
        <path id="path12" fill="#ff92be" stroke="none" d="M 30.360001 19.244999 C 30.360001 20.785873 29.110874 22.035 27.57 22.035 C 26.029125 22.035 24.780001 20.785873 24.780001 19.244999 C 24.780001 17.704124 26.029125 16.454998 27.57 16.454998 C 29.110874 16.454998 30.360001 17.704124 30.360001 19.244999 Z"/>
        <path id="path13" fill="#ffffff" stroke="none" d="M 38.657501 19.244999 C 38.657501 20.785873 37.408375 22.035 35.8675 22.035 C 34.326626 22.035 33.077499 20.785873 33.077499 19.244999 C 33.077499 17.704124 34.326626 16.454998 35.8675 16.454998 C 37.408375 16.454998 38.657501 17.704124 38.657501 19.244999 Z"/>
        <path id="path14" fill="#ffffff" stroke="none" d="M 46.952499 19.244999 C 46.952499 20.785873 45.703373 22.035 44.162498 22.035 C 42.621624 22.035 41.372501 20.785873 41.372501 19.244999 C 41.372501 17.704124 42.621624 16.454998 44.162498 16.454998 C 45.703373 16.454998 46.952499 17.704124 46.952499 19.244999 Z"/>
        <path id="path15" fill="#ff92be" stroke="none" d="M 55.25 19.244999 C 55.25 20.785873 54.000874 22.035 52.459999 22.035 C 50.919125 22.035 49.669998 20.785873 49.669998 19.244999 C 49.669998 17.704124 50.919125 16.454998 52.459999 16.454998 C 54.000874 16.454998 55.25 17.704124 55.25 19.244999 Z"/>
        <path id="path16" fill="#ff92be" stroke="none" d="M 63.544998 19.244999 C 63.544998 20.785873 62.295876 22.035 60.755001 22.035 C 59.214127 22.035 57.965 20.785873 57.965 19.244999 C 57.965 17.704124 59.214127 16.454998 60.755001 16.454998 C 62.295876 16.454998 63.544998 17.704124 63.544998 19.244999 Z"/>
        <path id="path17" fill="#ffffff" stroke="none" d="M 71.839996 19.244999 C 71.839996 20.785873 70.590874 22.035 69.050003 22.035 C 67.509125 22.035 66.260002 20.785873 66.260002 19.244999 C 66.260002 17.704124 67.509125 16.454998 69.050003 16.454998 C 70.590874 16.454998 71.839996 17.704124 71.839996 19.244999 Z"/>
        <path id="path18" fill="#ff92be" stroke="none" d="M 13.7675 27.540001 C 13.7675 29.080875 12.518374 30.330002 10.9775 30.330002 C 9.436625 30.330002 8.1875 29.080875 8.1875 27.540001 C 8.1875 25.999126 9.436625 24.75 10.9775 24.75 C 12.518374 24.75 13.7675 25.999126 13.7675 27.540001 Z"/>
        <path id="path19" fill="#ffffff" stroke="none" d="M 22.065001 27.540001 C 22.065001 29.080875 20.815874 30.330002 19.275 30.330002 C 17.734125 30.330002 16.485001 29.080875 16.485001 27.540001 C 16.485001 25.999126 17.734125 24.75 19.275 24.75 C 20.815874 24.75 22.065001 25.999126 22.065001 27.540001 Z"/>
        <path id="path20" fill="#ffffff" stroke="none" d="M 30.360001 27.540001 C 30.360001 29.080875 29.110874 30.330002 27.57 30.330002 C 26.029125 30.330002 24.780001 29.080875 24.780001 27.540001 C 24.780001 25.999126 26.029125 24.75 27.57 24.75 C 29.110874 24.75 30.360001 25.999126 30.360001 27.540001 Z"/>
        <path id="path21" fill="#ff92be" stroke="none" d="M 38.657501 27.540001 C 38.657501 29.080875 37.408375 30.330002 35.8675 30.330002 C 34.326626 30.330002 33.077499 29.080875 33.077499 27.540001 C 33.077499 25.999126 34.326626 24.75 35.8675 24.75 C 37.408375 24.75 38.657501 25.999126 38.657501 27.540001 Z"/>
        <path id="path22" fill="#ff92be" stroke="none" d="M 46.952499 27.540001 C 46.952499 29.080875 45.703373 30.330002 44.162498 30.330002 C 42.621624 30.330002 41.372501 29.080875 41.372501 27.540001 C 41.372501 25.999126 42.621624 24.75 44.162498 24.75 C 45.703373 24.75 46.952499 25.999126 46.952499 27.540001 Z"/>
        <path id="path23" fill="#ffffff" stroke="none" d="M 55.25 27.540001 C 55.25 29.080875 54.000874 30.330002 52.459999 30.330002 C 50.919125 30.330002 49.669998 29.080875 49.669998 27.540001 C 49.669998 25.999126 50.919125 24.75 52.459999 24.75 C 54.000874 24.75 55.25 25.999126 55.25 27.540001 Z"/>
        <path id="path24" fill="#ffffff" stroke="none" d="M 63.544998 27.540001 C 63.544998 29.080875 62.295876 30.330002 60.755001 30.330002 C 59.214127 30.330002 57.965 29.080875 57.965 27.540001 C 57.965 25.999126 59.214127 24.75 60.755001 24.75 C 62.295876 24.75 63.544998 25.999126 63.544998 27.540001 Z"/>
        <path id="path25" fill="#ff92be" stroke="none" d="M 71.839996 27.540001 C 71.839996 29.080875 70.590874 30.330002 69.050003 30.330002 C 67.509125 30.330002 66.260002 29.080875 66.260002 27.540001 C 66.260002 25.999126 67.509125 24.75 69.050003 24.75 C 70.590874 24.75 71.839996 25.999126 71.839996 27.540001 Z"/>
        <path id="path26" fill="#ff92be" stroke="none" d="M 13.7675 35.837502 C 13.7675 37.378376 12.518374 38.627502 10.9775 38.627502 C 9.436625 38.627502 8.1875 37.378376 8.1875 35.837502 C 8.1875 34.296627 9.436625 33.047501 10.9775 33.047501 C 12.518374 33.047501 13.7675 34.296627 13.7675 35.837502 Z"/>
        <path id="path27" fill="#ffffff" stroke="none" d="M 22.065001 35.837502 C 22.065001 37.378376 20.815874 38.627502 19.275 38.627502 C 17.734125 38.627502 16.485001 37.378376 16.485001 35.837502 C 16.485001 34.296627 17.734125 33.047501 19.275 33.047501 C 20.815874 33.047501 22.065001 34.296627 22.065001 35.837502 Z"/>
        <path id="path28" fill="#ffffff" stroke="none" d="M 30.360001 35.837502 C 30.360001 37.378376 29.110874 38.627502 27.57 38.627502 C 26.029125 38.627502 24.780001 37.378376 24.780001 35.837502 C 24.780001 34.296627 26.029125 33.047501 27.57 33.047501 C 29.110874 33.047501 30.360001 34.296627 30.360001 35.837502 Z"/>
        <path id="path29" fill="#ffffff" stroke="none" d="M 38.657501 35.837502 C 38.657501 37.378376 37.408375 38.627502 35.8675 38.627502 C 34.326626 38.627502 33.077499 37.378376 33.077499 35.837502 C 33.077499 34.296627 34.326626 33.047501 35.8675 33.047501 C 37.408375 33.047501 38.657501 34.296627 38.657501 35.837502 Z"/>
        <path id="path30" fill="#ffffff" stroke="none" d="M 46.952499 35.837502 C 46.952499 37.378376 45.703373 38.627502 44.162498 38.627502 C 42.621624 38.627502 41.372501 37.378376 41.372501 35.837502 C 41.372501 34.296627 42.621624 33.047501 44.162498 33.047501 C 45.703373 33.047501 46.952499 34.296627 46.952499 35.837502 Z"/>
        <path id="path31" fill="#ffffff" stroke="none" d="M 55.25 35.837502 C 55.25 37.378376 54.000874 38.627502 52.459999 38.627502 C 50.919125 38.627502 49.669998 37.378376 49.669998 35.837502 C 49.669998 34.296627 50.919125 33.047501 52.459999 33.047501 C 54.000874 33.047501 55.25 34.296627 55.25 35.837502 Z"/>
        <path id="path32" fill="#ffffff" stroke="none" d="M 63.544998 35.837502 C 63.544998 37.378376 62.295876 38.627502 60.755001 38.627502 C 59.214127 38.627502 57.965 37.378376 57.965 35.837502 C 57.965 34.296627 59.214127 33.047501 60.755001 33.047501 C 62.295876 33.047501 63.544998 34.296627 63.544998 35.837502 Z"/>
        <path id="path33" fill="#ff92be" stroke="none" d="M 71.839996 35.837502 C 71.839996 37.378376 70.590874 38.627502 69.050003 38.627502 C 67.509125 38.627502 66.260002 37.378376 66.260002 35.837502 C 66.260002 34.296627 67.509125 33.047501 69.050003 33.047501 C 70.590874 33.047501 71.839996 34.296627 71.839996 35.837502 Z"/>
        <path id="path34" fill="#ff92be" stroke="none" d="M 13.7675 44.1325 C 13.7675 45.673374 12.518374 46.922501 10.9775 46.922501 C 9.436625 46.922501 8.1875 45.673374 8.1875 44.1325 C 8.1875 42.591625 9.436625 41.342503 10.9775 41.342503 C 12.518374 41.342503 13.7675 42.591625 13.7675 44.1325 Z"/>
        <path id="path35" fill="#ffffff" stroke="none" d="M 22.065001 44.1325 C 22.065001 45.673374 20.815874 46.922501 19.275 46.922501 C 17.734125 46.922501 16.485001 45.673374 16.485001 44.1325 C 16.485001 42.591625 17.734125 41.342503 19.275 41.342503 C 20.815874 41.342503 22.065001 42.591625 22.065001 44.1325 Z"/>
        <path id="path36" fill="#ffffff" stroke="none" d="M 30.360001 44.1325 C 30.360001 45.673374 29.110874 46.922501 27.57 46.922501 C 26.029125 46.922501 24.780001 45.673374 24.780001 44.1325 C 24.780001 42.591625 26.029125 41.342503 27.57 41.342503 C 29.110874 41.342503 30.360001 42.591625 30.360001 44.1325 Z"/>
        <path id="path37" fill="#ffffff" stroke="none" d="M 38.657501 44.1325 C 38.657501 45.673374 37.408375 46.922501 35.8675 46.922501 C 34.326626 46.922501 33.077499 45.673374 33.077499 44.1325 C 33.077499 42.591625 34.326626 41.342503 35.8675 41.342503 C 37.408375 41.342503 38.657501 42.591625 38.657501 44.1325 Z"/>
        <path id="path38" fill="#ffffff" stroke="none" d="M 46.952499 44.1325 C 46.952499 45.673374 45.703373 46.922501 44.162498 46.922501 C 42.621624 46.922501 41.372501 45.673374 41.372501 44.1325 C 41.372501 42.591625 42.621624 41.342503 44.162498 41.342503 C 45.703373 41.342503 46.952499 42.591625 46.952499 44.1325 Z"/>
        <path id="path39" fill="#ffffff" stroke="none" d="M 55.25 44.1325 C 55.25 45.673374 54.000874 46.922501 52.459999 46.922501 C 50.919125 46.922501 49.669998 45.673374 49.669998 44.1325 C 49.669998 42.591625 50.919125 41.342503 52.459999 41.342503 C 54.000874 41.342503 55.25 42.591625 55.25 44.1325 Z"/>
        <path id="path40" fill="#ffffff" stroke="none" d="M 63.544998 44.1325 C 63.544998 45.673374 62.295876 46.922501 60.755001 46.922501 C 59.214127 46.922501 57.965 45.673374 57.965 44.1325 C 57.965 42.591625 59.214127 41.342503 60.755001 41.342503 C 62.295876 41.342503 63.544998 42.591625 63.544998 44.1325 Z"/>
        <path id="path41" fill="#ff92be" stroke="none" d="M 71.839996 44.1325 C 71.839996 45.673374 70.590874 46.922501 69.050003 46.922501 C 67.509125 46.922501 66.260002 45.673374 66.260002 44.1325 C 66.260002 42.591625 67.509125 41.342503 69.050003 41.342503 C 70.590874 41.342503 71.839996 42.591625 71.839996 44.1325 Z"/>
        <path id="path42" fill="#ffffff" stroke="none" d="M 13.7675 52.43 C 13.7675 53.970871 12.518374 55.220001 10.9775 55.220001 C 9.436625 55.220001 8.1875 53.970871 8.1875 52.43 C 8.1875 50.889122 9.436625 49.639999 10.9775 49.639999 C 12.518374 49.639999 13.7675 50.889122 13.7675 52.43 Z"/>
        <path id="path43" fill="#ff92be" stroke="none" d="M 22.065001 52.43 C 22.065001 53.970871 20.815874 55.220001 19.275 55.220001 C 17.734125 55.220001 16.485001 53.970871 16.485001 52.43 C 16.485001 50.889122 17.734125 49.639999 19.275 49.639999 C 20.815874 49.639999 22.065001 50.889122 22.065001 52.43 Z"/>
        <path id="path44" fill="#ffffff" stroke="none" d="M 30.360001 52.43 C 30.360001 53.970871 29.110874 55.220001 27.57 55.220001 C 26.029125 55.220001 24.780001 53.970871 24.780001 52.43 C 24.780001 50.889122 26.029125 49.639999 27.57 49.639999 C 29.110874 49.639999 30.360001 50.889122 30.360001 52.43 Z"/>
        <path id="path45" fill="#ffffff" stroke="none" d="M 38.657501 52.43 C 38.657501 53.970871 37.408375 55.220001 35.8675 55.220001 C 34.326626 55.220001 33.077499 53.970871 33.077499 52.43 C 33.077499 50.889122 34.326626 49.639999 35.8675 49.639999 C 37.408375 49.639999 38.657501 50.889122 38.657501 52.43 Z"/>
        <path id="path46" fill="#ffffff" stroke="none" d="M 46.952499 52.43 C 46.952499 53.970871 45.703373 55.220001 44.162498 55.220001 C 42.621624 55.220001 41.372501 53.970871 41.372501 52.43 C 41.372501 50.889122 42.621624 49.639999 44.162498 49.639999 C 45.703373 49.639999 46.952499 50.889122 46.952499 52.43 Z"/>
        <path id="path47" fill="#ffffff" stroke="none" d="M 55.25 52.43 C 55.25 53.970871 54.000874 55.220001 52.459999 55.220001 C 50.919125 55.220001 49.669998 53.970871 49.669998 52.43 C 49.669998 50.889122 50.919125 49.639999 52.459999 49.639999 C 54.000874 49.639999 55.25 50.889122 55.25 52.43 Z"/>
        <path id="path48" fill="#ff92be" stroke="none" d="M 63.544998 52.43 C 63.544998 53.970871 62.295876 55.220001 60.755001 55.220001 C 59.214127 55.220001 57.965 53.970871 57.965 52.43 C 57.965 50.889122 59.214127 49.639999 60.755001 49.639999 C 62.295876 49.639999 63.544998 50.889122 63.544998 52.43 Z"/>
        <path id="path49" fill="#ffffff" stroke="none" d="M 71.839996 52.43 C 71.839996 53.970871 70.590874 55.220001 69.050003 55.220001 C 67.509125 55.220001 66.260002 53.970871 66.260002 52.43 C 66.260002 50.889122 67.509125 49.639999 69.050003 49.639999 C 70.590874 49.639999 71.839996 50.889122 71.839996 52.43 Z"/>
        <path id="path50" fill="#ffffff" stroke="none" d="M 13.7675 60.725002 C 13.7675 62.265877 12.518374 63.514999 10.9775 63.514999 C 9.436625 63.514999 8.1875 62.265877 8.1875 60.725002 C 8.1875 59.184128 9.436625 57.934998 10.9775 57.934998 C 12.518374 57.934998 13.7675 59.184128 13.7675 60.725002 Z"/>
        <path id="path51" fill="#ffffff" stroke="none" d="M 22.065001 60.725002 C 22.065001 62.265877 20.815874 63.514999 19.275 63.514999 C 17.734125 63.514999 16.485001 62.265877 16.485001 60.725002 C 16.485001 59.184128 17.734125 57.934998 19.275 57.934998 C 20.815874 57.934998 22.065001 59.184128 22.065001 60.725002 Z"/>
        <path id="path52" fill="#ff92be" stroke="none" d="M 30.360001 60.725002 C 30.360001 62.265877 29.110874 63.514999 27.57 63.514999 C 26.029125 63.514999 24.780001 62.265877 24.780001 60.725002 C 24.780001 59.184128 26.029125 57.934998 27.57 57.934998 C 29.110874 57.934998 30.360001 59.184128 30.360001 60.725002 Z"/>
        <path id="path53" fill="#ffffff" stroke="none" d="M 38.657501 60.725002 C 38.657501 62.265877 37.408375 63.514999 35.8675 63.514999 C 34.326626 63.514999 33.077499 62.265877 33.077499 60.725002 C 33.077499 59.184128 34.326626 57.934998 35.8675 57.934998 C 37.408375 57.934998 38.657501 59.184128 38.657501 60.725002 Z"/>
        <path id="path54" fill="#ffffff" stroke="none" d="M 46.952499 60.725002 C 46.952499 62.265877 45.703373 63.514999 44.162498 63.514999 C 42.621624 63.514999 41.372501 62.265877 41.372501 60.725002 C 41.372501 59.184128 42.621624 57.934998 44.162498 57.934998 C 45.703373 57.934998 46.952499 59.184128 46.952499 60.725002 Z"/>
        <path id="path55" fill="#ff92be" stroke="none" d="M 55.25 60.725002 C 55.25 62.265877 54.000874 63.514999 52.459999 63.514999 C 50.919125 63.514999 49.669998 62.265877 49.669998 60.725002 C 49.669998 59.184128 50.919125 57.934998 52.459999 57.934998 C 54.000874 57.934998 55.25 59.184128 55.25 60.725002 Z"/>
        <path id="path56" fill="#ffffff" stroke="none" d="M 63.544998 60.725002 C 63.544998 62.265877 62.295876 63.514999 60.755001 63.514999 C 59.214127 63.514999 57.965 62.265877 57.965 60.725002 C 57.965 59.184128 59.214127 57.934998 60.755001 57.934998 C 62.295876 57.934998 63.544998 59.184128 63.544998 60.725002 Z"/>
        <path id="path57" fill="#ffffff" stroke="none" d="M 71.839996 60.725002 C 71.839996 62.265877 70.590874 63.514999 69.050003 63.514999 C 67.509125 63.514999 66.260002 62.265877 66.260002 60.725002 C 66.260002 59.184128 67.509125 57.934998 69.050003 57.934998 C 70.590874 57.934998 71.839996 59.184128 71.839996 60.725002 Z"/>
        <path id="path58" fill="#ffffff" stroke="none" d="M 13.7675 69.020004 C 13.7675 70.560875 12.518374 71.809998 10.9775 71.809998 C 9.436625 71.809998 8.1875 70.560875 8.1875 69.020004 C 8.1875 67.479126 9.436625 66.229996 10.9775 66.229996 C 12.518374 66.229996 13.7675 67.479126 13.7675 69.020004 Z"/>
        <path id="path59" fill="#ffffff" stroke="none" d="M 22.065001 69.020004 C 22.065001 70.560875 20.815874 71.809998 19.275 71.809998 C 17.734125 71.809998 16.485001 70.560875 16.485001 69.020004 C 16.485001 67.479126 17.734125 66.229996 19.275 66.229996 C 20.815874 66.229996 22.065001 67.479126 22.065001 69.020004 Z"/>
        <path id="path60" fill="#ffffff" stroke="none" d="M 30.360001 69.020004 C 30.360001 70.560875 29.110874 71.809998 27.57 71.809998 C 26.029125 71.809998 24.780001 70.560875 24.780001 69.020004 C 24.780001 67.479126 26.029125 66.229996 27.57 66.229996 C 29.110874 66.229996 30.360001 67.479126 30.360001 69.020004 Z"/>
        <path id="path61" fill="#ff92be" stroke="none" d="M 38.657501 69.020004 C 38.657501 70.560875 37.408375 71.809998 35.8675 71.809998 C 34.326626 71.809998 33.077499 70.560875 33.077499 69.020004 C 33.077499 67.479126 34.326626 66.229996 35.8675 66.229996 C 37.408375 66.229996 38.657501 67.479126 38.657501 69.020004 Z"/>
        <path id="path62" fill="#ff92be" stroke="none" d="M 46.952499 69.020004 C 46.952499 70.560875 45.703373 71.809998 44.162498 71.809998 C 42.621624 71.809998 41.372501 70.560875 41.372501 69.020004 C 41.372501 67.479126 42.621624 66.229996 44.162498 66.229996 C 45.703373 66.229996 46.952499 67.479126 46.952499 69.020004 Z"/>
        <path id="path63" fill="#ffffff" stroke="none" d="M 55.25 69.020004 C 55.25 70.560875 54.000874 71.809998 52.459999 71.809998 C 50.919125 71.809998 49.669998 70.560875 49.669998 69.020004 C 49.669998 67.479126 50.919125 66.229996 52.459999 66.229996 C 54.000874 66.229996 55.25 67.479126 55.25 69.020004 Z"/>
        <path id="path64" fill="#ffffff" stroke="none" d="M 63.544998 69.020004 C 63.544998 70.560875 62.295876 71.809998 60.755001 71.809998 C 59.214127 71.809998 57.965 70.560875 57.965 69.020004 C 57.965 67.479126 59.214127 66.229996 60.755001 66.229996 C 62.295876 66.229996 63.544998 67.479126 63.544998 69.020004 Z"/>
        <path id="path65" fill="#ffffff" stroke="none" d="M 71.839996 69.020004 C 71.839996 70.560875 70.590874 71.809998 69.050003 71.809998 C 67.509125 71.809998 66.260002 70.560875 66.260002 69.020004 C 66.260002 67.479126 67.509125 66.229996 69.050003 66.229996 C 70.590874 66.229996 71.839996 67.479126 71.839996 69.020004 Z"/>
    </g>
</svg>
