<?xml version="1.0" encoding="UTF-8" standalone="no"?>
<!DOCTYPE svg PUBLIC "-//W3C//DTD SVG 1.1//EN" "http://www.w3.org/Graphics/SVG/1.1/DTD/svg11.dtd">
<!-- Created with Vectornator (http://vectornator.io/) -->
<svg height="80.0px" stroke-miterlimit="10" style="fill-rule:nonzero;clip-rule:evenodd;stroke-linecap:round;stroke-linejoin:round;" version="1.1" viewBox="0 0 80 80" width="80.0px" xml:space="preserve" xmlns="http://www.w3.org/2000/svg" xmlns:xlink="http://www.w3.org/1999/xlink">
<defs/>
<g id="图层-1">
<g opacity="1">
<path d="M47.8448 8.62069C45.5119 8.62069 43.6207 10.5119 43.6207 12.8448C43.6207 15.1778 45.5119 17.069 47.8448 17.069C50.1778 17.069 52.069 15.1778 52.069 12.8448C52.069 10.5119 50.1778 8.62069 47.8448 8.62069ZM47.8448 62.931C45.5119 62.931 43.6207 64.8222 43.6207 67.1552C43.6207 69.4881 45.5119 71.3793 47.8448 71.3793C50.1778 71.3793 52.069 69.4881 52.069 67.1552C52.069 64.8222 50.1778 62.931 47.8448 62.931ZM36.9828 17.1897C36.9828 14.1724 34.569 11.7586 31.5517 11.7586C28.5345 11.7586 26.1207 14.1724 26.1207 17.1897L26.1207 17.1897C25.0948 16.4052 23.8879 15.9828 22.5 15.9828C19.181 15.9828 16.4655 18.6983 16.4655 22.0172C16.4655 22.681 16.5862 23.2845 16.7672 23.8276C16.6466 23.8276 16.5862 23.8276 16.4655 23.8276C12.7845 23.8276 9.82759 26.7845 9.82759 30.4655C9.82759 31.9138 10.25 33.181 11.0345 34.2672C8.5 35.8966 6.81034 38.6724 6.81034 41.931C6.81034 45.1293 8.5 47.9655 10.9741 49.5345C10.25 50.8621 9.82759 52.3707 9.82759 54C9.82759 59.0086 13.8707 63.0517 18.8793 63.0517C19.0603 63.0517 19.2414 63.0517 19.4224 63.0517C20.6293 66.5517 24.0086 69.0862 27.931 69.0862C32.9397 69.0862 36.9828 65.0431 36.9828 60.0345C36.9828 55.0862 36.9828 20.2069 36.9828 17.1897Z" fill="#ffffff" fill-rule="nonzero" opacity="1" stroke="none"/>
<path d="M31.5517 9.94828C28.4741 9.94828 25.8793 11.819 24.7931 14.5345C24.069 14.2931 23.2845 14.1724 22.5 14.1724C18.1552 14.1724 14.6552 17.6724 14.6552 22.0172C14.6552 22.0172 14.6552 22.0172 14.6552 22.0776C10.8534 22.9224 7.9569 26.3017 7.9569 30.3448C7.9569 31.5517 8.19828 32.6983 8.68103 33.7845C6.38793 35.8362 5 38.7931 5 41.931C5 42.2931 5 42.5948 5.06034 42.8966C5.06034 42.9569 5.06034 43.0172 5.06034 43.0776C5.12069 43.3793 5.12069 43.7414 5.18103 44.0431C5.18103 44.1034 5.18103 44.1034 5.18103 44.1638C5.24138 44.4655 5.30172 44.7672 5.42241 45.069L5.42241 45.1293C5.5431 45.431 5.66379 45.7328 5.78448 46.0948C5.78448 46.0948 5.78448 46.1552 5.84483 46.1552C6.08621 46.7586 6.44828 47.3621 6.81034 47.9052C6.81034 47.9052 6.81034 47.9655 6.87069 47.9655C7.23276 48.5086 7.65517 48.9914 8.13793 49.4741C8.19828 49.5345 8.19828 49.5345 8.25862 49.5948C8.5 49.7759 8.68103 50.0172 8.92241 50.1983C8.98276 50.2586 9.0431 50.319 9.10345 50.319C9.28448 50.4397 9.46552 50.5603 9.64655 50.681C9.76724 50.7414 9.82759 50.8017 9.94828 50.9224L10.0086 50.9828C10.069 50.9828 10.069 51.0431 10.1293 51.0431C11.819 52.069 13.75 52.6724 15.8621 52.6724C21.8362 52.6724 26.7241 47.7845 26.7241 41.8103L26.7241 38.7931C26.7241 37.7672 25.9397 36.9828 24.9138 36.9828C23.8879 36.9828 23.1034 37.7672 23.1034 38.7931L23.1034 41.8103C23.1034 45.7931 19.8448 49.0517 15.8621 49.0517C14.4138 49.0517 13.0862 48.6293 11.9397 47.9052C11.4569 47.6034 10.9741 47.2414 10.6121 46.819C10.5517 46.7586 10.4914 46.6983 10.4914 46.6379C10.3707 46.5172 10.25 46.3362 10.1293 46.1552C10.069 46.0948 10.0086 46.0345 9.94828 45.9138C9.82759 45.7328 9.7069 45.5517 9.58621 45.3707C9.58621 45.3103 9.52586 45.3103 9.52586 45.25C9.40517 45.0086 9.28448 44.7672 9.16379 44.5259C9.10345 44.4655 9.10345 44.3448 9.0431 44.2845C8.98276 44.1034 8.92241 43.9224 8.86207 43.7414C8.86207 43.6207 8.80172 43.5603 8.80172 43.4397C8.74138 43.2586 8.74138 43.0776 8.68103 42.8966C8.68103 42.8362 8.68103 42.7155 8.62069 42.6552C8.62069 42.5345 8.62069 42.2328 8.62069 41.931C8.62069 39.4569 9.88793 37.1638 12 35.8362C12.6638 35.4138 12.9655 34.6293 12.7845 33.8448C12.7241 33.6034 12.6638 33.3017 12.4828 33.0603C11.8793 32.2155 11.5776 31.3103 11.5776 30.2845C11.5776 27.931 13.2672 26 15.5 25.5172C16.8276 28.0517 19.4224 29.8017 22.5 29.8017C23.5259 29.8017 24.3103 29.0172 24.3103 27.9914C24.3103 26.9655 23.5259 26.181 22.5 26.181C20.6293 26.181 19 24.9138 18.4569 23.2241C18.3966 23.0431 18.3362 22.8621 18.3362 22.681C18.3362 22.6207 18.3362 22.6207 18.3362 22.5603C18.3362 22.3793 18.2759 22.1983 18.2759 21.9569C18.2759 19.6034 20.1466 17.7328 22.5 17.7328C23.4052 17.7328 24.3103 18.0345 25.0345 18.5776C25.5776 19 26.3017 19.0603 26.9052 18.7586C27.5086 18.4569 27.931 17.8534 27.931 17.1293C27.931 17.1293 27.931 17.1293 27.931 17.069C27.931 15.0776 29.5603 13.5086 31.5517 13.5086C33.5431 13.5086 35.1724 15.1379 35.1724 17.1293L35.1724 59.9741C35.1724 63.9569 31.9138 67.2155 27.931 67.2155C24.8534 67.2155 22.1379 65.2845 21.1121 62.3879C20.8707 61.6034 20.0862 61.1207 19.3017 61.181L19.1207 61.181C19.0603 61.181 18.9397 61.181 18.8793 61.181C14.8966 61.181 11.6379 57.9224 11.6379 53.9397C11.6379 52.9138 10.8534 52.1293 9.82759 52.1293C8.80172 52.1293 8.01724 52.9138 8.01724 53.9397C8.01724 59.6724 12.5431 64.4397 18.2155 64.8017C20.0259 68.4828 23.7672 70.8362 27.931 70.8362C33.9052 70.8362 38.7931 65.9483 38.7931 59.9741L38.7931 17.1293C38.7931 13.2069 35.5345 9.94828 31.5517 9.94828Z" fill="#444b54" fill-rule="nonzero" opacity="1" stroke="none"/>
<path d="M14.0517 36.1379L11.0345 36.1379C10.0086 36.1379 9.22414 35.3534 9.22414 34.3276C9.22414 33.3017 10.0086 32.5172 11.0345 32.5172L14.0517 32.5172C15.0776 32.5172 15.8621 33.3017 15.8621 34.3276C15.8621 35.3534 15.0776 36.1379 14.0517 36.1379Z" fill="#444b54" fill-rule="nonzero" opacity="1" stroke="none"/>
<g opacity="1">
<path d="M68.9655 35.7759C66.6326 35.7759 64.7414 37.6671 64.7414 40C64.7414 42.3329 66.6326 44.2241 68.9655 44.2241C71.2984 44.2241 73.1897 42.3329 73.1897 40C73.1897 37.6671 71.2984 35.7759 68.9655 35.7759ZM63.5345 17.069C61.2016 17.069 59.3103 18.9602 59.3103 21.2931C59.3103 23.626 61.2016 25.5172 63.5345 25.5172C65.8674 25.5172 67.7586 23.626 67.7586 21.2931C67.7586 18.9602 65.8674 17.069 63.5345 17.069ZM63.5345 54.4828C61.2016 54.4828 59.3103 56.374 59.3103 58.7069C59.3103 61.0398 61.2016 62.931 63.5345 62.931C65.8674 62.931 67.7586 61.0398 67.7586 58.7069C67.7586 56.374 65.8674 54.4828 63.5345 54.4828Z" fill="#ffffff" fill-rule="nonzero" opacity="1" stroke="none"/>
<path d="M60.5172 57.5C60.0345 57.5 59.6121 57.319 59.25 56.9569L53.1552 50.8621L44.8276 50.8621C43.8017 50.8621 43.0172 50.0776 43.0172 49.0517C43.0172 48.0259 43.8017 47.2414 44.8276 47.2414L53.8793 47.2414C54.3621 47.2414 54.8448 47.4224 55.1466 47.7845L61.7845 54.4224C62.5086 55.1466 62.5086 56.2931 61.7845 56.9569C61.4224 57.319 61 57.5 60.5172 57.5ZM53.8793 32.7586L44.8276 32.7586C43.8017 32.7586 43.0172 31.9741 43.0172 30.9483C43.0172 29.9224 43.8017 29.1379 44.8276 29.1379L53.1552 29.1379L59.25 23.0431C59.9741 22.319 61.1207 22.319 61.7845 23.0431C62.5086 23.7672 62.5086 24.9138 61.7845 25.5776L55.1466 32.2155C54.8448 32.5776 54.3621 32.7586 53.8793 32.7586ZM64.7414 41.8103L44.8276 41.8103C43.8017 41.8103 43.0172 41.0259 43.0172 40C43.0172 38.9741 43.8017 38.1897 44.8276 38.1897L64.7414 38.1897C65.7672 38.1897 66.5517 38.9741 66.5517 40C66.5517 41.0259 65.7672 41.8103 64.7414 41.8103Z" fill="#71c2ff" fill-rule="nonzero" opacity="1" stroke="none"/>
<path d="M68.9655 46.0345C65.6466 46.0345 62.931 43.319 62.931 40C62.931 36.681 65.6466 33.9655 68.9655 33.9655C72.2845 33.9655 75 36.681 75 40C75 43.319 72.2845 46.0345 68.9655 46.0345ZM68.9655 37.5862C67.6379 37.5862 66.5517 38.6724 66.5517 40C66.5517 41.3276 67.6379 42.4138 68.9655 42.4138C70.2931 42.4138 71.3793 41.3276 71.3793 40C71.3793 38.6724 70.2931 37.5862 68.9655 37.5862ZM63.5345 27.3276C60.2155 27.3276 57.5 24.6121 57.5 21.2931C57.5 17.9741 60.2155 15.2586 63.5345 15.2586C66.8534 15.2586 69.569 17.9741 69.569 21.2931C69.569 24.6121 66.8534 27.3276 63.5345 27.3276ZM63.5345 18.8793C62.2069 18.8793 61.1207 19.9655 61.1207 21.2931C61.1207 22.6207 62.2069 23.7069 63.5345 23.7069C64.8621 23.7069 65.9483 22.6207 65.9483 21.2931C65.9483 19.9655 64.8621 18.8793 63.5345 18.8793ZM47.8448 18.8793C44.5259 18.8793 41.8103 16.1638 41.8103 12.8448C41.8103 9.52586 44.5259 6.81034 47.8448 6.81034C51.1638 6.81034 53.8793 9.52586 53.8793 12.8448C53.8793 16.1638 51.1638 18.8793 47.8448 18.8793ZM47.8448 10.431C46.5172 10.431 45.431 11.5172 45.431 12.8448C45.431 14.1724 46.5172 15.2586 47.8448 15.2586C49.1724 15.2586 50.2586 14.1724 50.2586 12.8448C50.2586 11.5172 49.1724 10.431 47.8448 10.431ZM63.5345 64.7414C60.2155 64.7414 57.5 62.0259 57.5 58.7069C57.5 55.3879 60.2155 52.6724 63.5345 52.6724C66.8534 52.6724 69.569 55.3879 69.569 58.7069C69.569 62.0259 66.8534 64.7414 63.5345 64.7414ZM63.5345 56.2931C62.2069 56.2931 61.1207 57.3793 61.1207 58.7069C61.1207 60.0345 62.2069 61.1207 63.5345 61.1207C64.8621 61.1207 65.9483 60.0345 65.9483 58.7069C65.9483 57.3793 64.8621 56.2931 63.5345 56.2931ZM47.8448 73.1897C44.5259 73.1897 41.8103 70.4741 41.8103 67.1552C41.8103 63.8362 44.5259 61.1207 47.8448 61.1207C51.1638 61.1207 53.8793 63.8362 53.8793 67.1552C53.8793 70.4741 51.1638 73.1897 47.8448 73.1897ZM47.8448 64.7414C46.5172 64.7414 45.431 65.8276 45.431 67.1552C45.431 68.4828 46.5172 69.569 47.8448 69.569C49.1724 69.569 50.2586 68.4828 50.2586 67.1552C50.2586 65.8276 49.1724 64.7414 47.8448 64.7414Z" fill="#71c2ff" fill-rule="nonzero" opacity="1" stroke="none"/>
</g>
</g>
</g>
</svg>
