<?xml version="1.0" encoding="UTF-8"?>
<!-- Generated by Pixelmator Pro 3.7.1 -->
<svg width="80" height="80" viewBox="0 0 80 80" xmlns="http://www.w3.org/2000/svg">
    <g id="-">
        <path id="path1" fill="#9ea9ad" fill-rule="evenodd" stroke="none" d="M 3.2 23.702858 C 3.2 24.73484 4.604551 25.571434 6.337145 25.571434 L 73.262863 25.571434 C 74.995461 25.571434 76.400002 24.73484 76.400002 23.702858 L 72.370644 16.311424 C 72.370644 15.279442 70.966103 14.442856 69.233505 14.442856 L 10.366504 14.442856 C 8.633909 14.442856 7.229358 15.279442 7.229358 16.311424 Z"/>
        <path id="path2" fill="#c0cdd2" fill-rule="evenodd" stroke="none" d="M 5.068572 22.400002 C 4.036588 22.400002 3.2 23.236588 3.2 24.26857 L 3.2 64.131432 C 3.2 65.163414 4.036588 66 5.068572 66 L 74.517143 66 C 75.549126 66 76.385712 65.163414 76.385712 64.131432 L 76.385712 24.26857 C 76.385712 23.236588 75.549126 22.400002 74.517143 22.400002 Z"/>
        <path id="path3" fill="none" stroke="#879093" stroke-width="1.245714" d="M 54.585712 59.459999 C 63.185577 59.459999 70.157143 52.488434 70.157143 43.888573 C 70.157143 35.288708 63.185577 28.317142 54.585712 28.317142 C 45.985851 28.317142 39.014286 35.288708 39.014286 43.888573 C 39.014286 52.488434 45.985851 59.459999 54.585712 59.459999 Z M 70.157143 43.888573 L 39.014286 43.888573 M 54.585712 28.317142 L 54.585712 59.459999"/>
        <path id="path4" fill="#697073" fill-rule="evenodd" stroke="none" d="M 70.157143 48.559998 C 72.737099 48.559998 74.828575 46.468529 74.828575 43.888573 C 74.828575 41.308613 72.737099 39.217144 70.157143 39.217144 C 67.577187 39.217144 65.485718 41.308613 65.485718 43.888573 C 65.485718 46.468529 67.577187 48.559998 70.157143 48.559998 Z"/>
        <path id="--4" fill="#697073" fill-rule="evenodd" stroke="none" d="M 54.585716 32.988571 C 57.165672 32.988571 59.257145 30.897102 59.257145 28.317142 C 59.257145 25.737183 57.165672 23.645714 54.585716 23.645714 C 52.005756 23.645714 49.914288 25.737183 49.914288 28.317142 C 49.914288 30.897102 52.005756 32.988571 54.585716 32.988571 Z"/>
        <path id="--5" fill="#697073" fill-rule="evenodd" stroke="none" d="M 54.585716 64.131432 C 57.165672 64.131432 59.257145 62.039959 59.257145 59.459999 C 59.257145 56.880043 57.165672 54.788574 54.585716 54.788574 C 52.005756 54.788574 49.914288 56.880043 49.914288 59.459999 C 49.914288 62.039959 52.005756 64.131432 54.585716 64.131432 Z"/>
        <path id="path5" fill="#2d3032" fill-rule="evenodd" stroke="none" d="M 70.157143 47.314285 C 72.04911 47.314285 73.582855 45.78054 73.582855 43.888573 C 73.582855 41.996601 72.04911 40.462856 70.157143 40.462856 C 68.265175 40.462856 66.73143 41.996601 66.73143 43.888573 C 66.73143 45.78054 68.265175 47.314285 70.157143 47.314285 Z"/>
        <path id="--8" fill="#2d3032" fill-rule="evenodd" stroke="none" d="M 54.585712 62.885712 C 56.477684 62.885712 58.011429 61.351971 58.011429 59.459999 C 58.011429 57.568031 56.477684 56.034286 54.585712 56.034286 C 52.693745 56.034286 51.16 57.568031 51.16 59.459999 C 51.16 61.351971 52.693745 62.885712 54.585712 62.885712 Z"/>
        <path id="--7" fill="#2d3032" fill-rule="evenodd" stroke="none" d="M 54.585712 31.742859 C 56.477684 31.742859 58.011429 30.209114 58.011429 28.317142 C 58.011429 26.425175 56.477684 24.89143 54.585712 24.89143 C 52.693745 24.89143 51.16 26.425175 51.16 28.317142 C 51.16 30.209114 52.693745 31.742859 54.585712 31.742859 Z"/>
        <path id="--6" fill="#9aa4a8" fill-rule="evenodd" stroke="none" d="M 54.585716 48.559998 C 57.165672 48.559998 59.257145 46.468529 59.257145 43.888573 C 59.257145 41.308613 57.165672 39.217144 54.585716 39.217144 C 52.005756 39.217144 49.914288 41.308613 49.914288 43.888573 C 49.914288 46.468529 52.005756 48.559998 54.585716 48.559998 Z"/>
        <filter id="filter1" x="0" y="0" width="80" height="80" filterUnits="userSpaceOnUse" primitiveUnits="userSpaceOnUse" color-interpolation-filters="sRGB">
            <feFlood flood-color="#9aa4a8" flood-opacity="1"/>
            <feComposite in2="SourceGraphic" operator="out"/>
            <feGaussianBlur stdDeviation="0"/>
            <feOffset dx="0" dy="0.622857"/>
            <feComposite in2="SourceGraphic" operator="atop"/>
        </filter>
        <path id="path6" fill="#a6b1b6" fill-rule="evenodd" stroke="none" filter="url(#filter1)" d="M 12.231428 25.202858 C 11.199445 25.202858 10.362857 26.039444 10.362857 27.07143 L 10.362857 60.705715 C 10.362857 61.737698 11.199445 62.574287 12.231428 62.574287 L 29.671429 62.574287 C 30.703413 62.574287 31.540001 61.737698 31.540001 60.705715 L 31.540001 27.07143 C 31.540001 26.039444 30.703413 25.202858 29.671429 25.202858 Z"/>
        <text id="Geekservo" transform="matrix(0 1 -1 0 66 23)" xml:space="preserve" x="3.059217" y="48" font-family="Arial Black" font-size="5.605714" font-weight="800" fill="#879093">Geekservo</text>
        <g id="g1">
            <path id="path7" fill="none" stroke="#2d3032" stroke-width="2.491429" stroke-linecap="round" d="M 56.567635 41.906651 L 52.603794 45.870491"/>
            <path id="path8" fill="none" stroke="#2d3032" stroke-width="2.491429" stroke-linecap="round" d="M 52.603794 41.906654 L 56.567665 45.870461"/>
        </g>
    </g>
</svg>
