<?xml version="1.0" encoding="UTF-8"?>
<!-- Generated by Pixelmator Pro 3.7.1 -->
<svg width="600" height="370" viewBox="0 0 600 370" xmlns="http://www.w3.org/2000/svg">
    <path id="path1" fill="#027aff" stroke="none" d="M 0 370 L 0 0 L 600 0 C 600 0 600 162.245422 600 229.399994 C 600 281.97406 600 370 600 370 Z"/>
    <g id="g1">
        <path id="path2" fill="#ffffff" fill-opacity="0.73333" fill-rule="evenodd" stroke="none" opacity="0.1" d="M 420.825623 7.26651 C 413.012543 32.868744 333.968109 46.866852 332.53772 69.195801 C 331.105865 91.526794 412.816864 42.004456 418.661621 55.124359 C 424.506439 68.24527 334.273987 134.521255 286.518768 153.894928 C 257.74234 165.568283 235.04129 149.070984 268.173431 123.537018 C 290.340088 106.454712 279.907471 91.776031 259.511444 101.816315 C 239.115417 111.858612 228.263672 85.961609 256.441437 63.828827 C 284.618713 41.697083 429.664551 -21.707581 420.825623 7.26651 Z M 206.374115 73.189087 C 184.492615 105.835876 142.661041 85.469666 169.174866 51.234802 C 192.635864 20.947662 267.991425 -10.4422 271.673767 6.4151 C 274.377716 18.794769 232.117905 34.776917 206.374115 73.189087 Z M 26.425938 7.29837 C 62.046684 -27.258057 92.136131 -60.937286 113.32444 -59.895233 C 135.339905 -58.812256 115.675995 -16.679321 78.294739 15.641846 C 51.810234 38.541626 77.674355 50.161896 103.072311 36.488861 C 133.765457 19.966248 157.690598 31.021759 118.07811 67.250763 C 78.46563 103.481781 18.317574 130.142227 -14.491009 123.306473 C -47.298077 116.470718 31.591671 95.592865 34.72237 67.937378 C 37.797443 40.763245 -10.047266 95.621674 -34.993725 77.372437 C -59.207058 59.661163 -6.657711 39.391541 26.426426 7.298859 Z M 425.63797 110.038422 C 421.615387 90.361877 470.711975 28.366852 530.919678 12.022247 C 591.440369 -4.406342 648.340942 -10.795135 650.781982 3.414337 C 653.205872 17.540894 614.820435 28.212128 567.135559 51.074493 C 544.080078 62.127014 568.472839 71.441711 583.481628 65.471069 C 633.122803 45.725739 629.244812 75.899628 587.332336 97.17337 C 554.581909 113.798126 526.879944 122.518265 510.469055 126.51857 C 486.667786 132.320862 481.706299 116.94751 495.29538 108.272369 C 521.820862 91.338226 509.06601 75.70697 485.321381 88.847107 C 470.282227 97.16983 432.146088 141.862625 425.63797 110.038452 Z M 403.485962 126.946808 C 417.560944 121.312881 421.212433 131.638794 421.212433 139.98175 C 421.212433 148.326736 407.135406 151.453888 399.313721 146.76088 C 391.492065 142.068878 393.683838 130.868256 403.485962 126.946289 Z M 7.391464 162.536209 C 12.759953 150.112015 72.940376 148.126511 117.690796 107.994293 C 133.791214 93.554749 153.526917 111.19223 148.842499 124.727707 C 144.16011 138.262711 129.849533 141.830246 107.450813 150.538254 C 85.054108 159.247772 113.534218 170.855911 150.489258 153.417664 C 171.628021 143.444626 194.277512 160.256958 168.753647 177.57132 C 147.419235 192.041672 98.262482 196.19017 99.60537 208.60321 C 100.348091 215.497116 136.032547 198.913345 142.516922 213.774521 C 147.907654 226.125381 135.133591 240.31868 99.438522 243.200623 C 63.073029 246.136658 34.790604 238.656754 34.367416 220.792297 C 33.888111 200.567154 76.553421 195.086426 57.383476 188.833633 C 38.10635 182.549988 -2.069882 184.439438 7.391464 162.536697 Z M 223.384109 119.255585 C 230.571274 124.253464 230.794739 130.626602 223.155579 139.468079 C 213.252319 150.93364 196.724167 150.400726 191.869873 146.207764 C 187.015579 142.014282 197.989685 131.15596 202.179108 124.899628 C 206.369553 118.645309 214.131058 112.822296 223.384109 119.255585 Z M 222.942719 188.134903 C 265.553436 177.948517 289.529633 195.025757 279.98587 206.694061 C 269.676636 219.293701 245.000671 219.264877 243.061676 243.933746 C 239.438019 290.091248 194.034363 298.259277 213.407547 266.034668 C 220.193756 254.744568 210.228821 247.590271 204.387589 262.025208 C 200.860504 270.736786 184.133133 282.691772 175.293671 287.112244 C 135.175583 307.170013 103.188614 278.027557 131.882584 269.928314 C 150.554001 264.658936 167.327896 251.984955 178.042633 222.961334 C 183.750885 207.494949 204.226303 192.609985 222.942719 188.135391 Z M 95.980736 281.671448 C 112.132233 302.320313 62.234768 303.47406 43.80756 309.676819 C 25.379341 315.880554 63.354176 319.029968 96.76088 318.682617 C 130.171127 318.335297 125.115601 343.993103 87.142799 356.562408 C 28.801765 375.870392 -23.205074 355.819153 21.499853 343.007721 C 38.172115 338.226715 26.32128 324.43692 7.814693 326.425934 C -27.132584 330.182556 -53.034634 312.933411 -47.153454 299.458069 C -40.516403 284.250061 -24.092907 294.488007 -7.484346 295.624603 C 9.124712 296.762207 -5.251607 280.483307 -26.757936 269.274078 C -63.698818 250.020721 -32.794838 217.272827 -1.074311 246.877899 C 44.120026 289.058838 83.887222 266.210144 95.980247 281.671478 Z M 263.547699 331.731232 C 239.699417 380.429871 190.735809 375.645355 197.609985 359.022156 C 204.482651 342.399445 176.208313 355.941528 163.111176 352.910431 C 150.016052 349.882874 142.25 327.117096 190.878387 322.735016 C 250.790833 317.33316 252.19136 258.235229 272.199097 270.5755 C 285.956543 279.057983 272.388184 313.679688 263.54718 331.73172 Z M 621.21991 111.346436 C 661.162537 104.481354 670.008606 118.23526 653.378784 129.243271 C 643.066528 136.071945 602.909485 157.847748 632.238525 159.980896 C 661.571594 162.114548 639.711304 190.002075 605.264587 215.963791 C 570.818848 241.92601 495.563873 255.951431 498.852325 234.056808 C 502.142761 212.162674 590.760803 201.656754 574.80304 178.550186 C 567.872192 168.513962 533.975586 210.139252 518.926819 186.188828 C 503.877014 162.238419 596.18042 115.647598 621.21936 111.346436 Z M 361.248932 152.376129 C 373.998199 141.583008 400.072174 157.16925 376.619232 178.558273 C 371.191101 183.509644 357.237976 188.250671 365.573334 193.137329 C 390.758453 207.898407 467.51709 131.219666 480.215302 156.376953 C 486.320953 168.473007 455.707214 195.525299 422.291901 212.425079 C 397.624023 224.899841 406.618195 247.755127 443.230957 225.236557 C 479.845734 202.716995 486.305786 229.261154 466.023529 246.68222 C 445.742249 264.101257 316.164307 324.433868 307.335449 292.191559 C 300.464325 267.115143 372.860077 271.708557 363.851257 255.507019 C 357.237976 243.618256 306.888519 275.185089 289.065979 254.684921 C 271.817352 234.848587 336.383362 221.705444 332.249054 209.811615 C 328.984375 200.42662 298.088989 213.650665 297.490845 190.675064 C 297.028229 172.867722 330.392456 178.491028 361.248413 152.376129 Z M 540.372986 312.675537 C 548.12384 271.90271 619.940247 233.892471 647.49408 223.671722 C 690.849548 207.597092 736.151611 212.955963 710.578186 226.108231 C 685.004761 239.263504 617.781311 282.821716 652.381226 285.81134 C 669.409912 287.282654 688.657227 299.915649 652.381226 329.878174 C 629.353516 348.899475 549.096619 375.184784 544.713562 358.377533 C 540.330017 341.57077 636.777771 312.340332 606.820801 309.415924 C 576.863831 306.493561 536.751282 331.741821 540.372986 312.675537 Z M 434.617981 298.040344 C 458.018799 286.343231 479.659149 272.176758 504.570679 266.829468 C 537.059753 259.857208 505.015625 303.815369 473.828003 318.076385 C 459.859711 324.463165 476.585571 332.975006 490.02652 326.449158 C 526.55127 308.718689 542.436829 322.340149 504.718842 347.42514 C 495.341431 353.662262 466.367828 368.428894 431.186951 372.93988 C 395.672394 377.49588 396.595123 364.420959 407.5849 359.519653 C 423.389557 352.472565 434.215515 337.193756 391.842468 350.098267 C 316.096558 373.165405 271.227325 369.324341 288.470398 350.098267 C 304.575867 332.144287 358.87207 335.900909 434.618011 298.040344 Z"/>
        <path id="path3" fill="#ffffff" fill-opacity="0.54118" fill-rule="evenodd" stroke="none" opacity="0.1" d="M 420.825623 7.26651 C 413.012543 32.868744 333.968109 46.866852 332.53772 69.195801 C 331.105865 91.526794 412.816864 42.004456 418.661621 55.124359 C 424.506439 68.24527 334.273987 134.521255 286.518768 153.894928 C 257.74234 165.568283 235.04129 149.070984 268.173431 123.537018 C 290.340088 106.454712 279.907471 91.776031 259.511444 101.816315 C 239.115417 111.858612 228.263672 85.961609 256.441437 63.828827 C 284.618713 41.697083 429.664551 -21.707581 420.825623 7.26651 Z M 206.374115 73.189087 C 184.492615 105.835876 142.661041 85.469666 169.174866 51.234802 C 192.635864 20.947662 267.991425 -10.4422 271.673767 6.4151 C 274.377716 18.794769 232.117905 34.776917 206.374115 73.189087 Z M 26.425938 7.29837 C 62.046684 -27.258057 92.136131 -60.937286 113.32444 -59.895233 C 135.339905 -58.812256 115.675995 -16.679321 78.294739 15.641846 C 51.810234 38.541626 77.674355 50.161896 103.072311 36.488861 C 133.765457 19.966248 157.690598 31.021759 118.07811 67.250763 C 78.46563 103.481781 18.317574 130.142227 -14.491009 123.306473 C -47.298077 116.470718 31.591671 95.592865 34.72237 67.937378 C 37.797443 40.763245 -10.047266 95.621674 -34.993725 77.372437 C -59.207058 59.661163 -6.657711 39.391541 26.426426 7.298859 Z M 425.63797 110.038422 C 421.615387 90.361877 470.711975 28.366852 530.919678 12.022247 C 591.440369 -4.406342 648.340942 -10.795135 650.781982 3.414337 C 653.205872 17.540894 614.820435 28.212128 567.135559 51.074493 C 544.080078 62.127014 568.472839 71.441711 583.481628 65.471069 C 633.122803 45.725739 629.244812 75.899628 587.332336 97.17337 C 554.581909 113.798126 526.879944 122.518265 510.469055 126.51857 C 486.667786 132.320862 481.706299 116.94751 495.29538 108.272369 C 521.820862 91.338226 509.06601 75.70697 485.321381 88.847107 C 470.282227 97.16983 432.146088 141.862625 425.63797 110.038452 Z M 403.485962 126.946808 C 417.560944 121.312881 421.212433 131.638794 421.212433 139.98175 C 421.212433 148.326736 407.135406 151.453888 399.313721 146.76088 C 391.492065 142.068878 393.683838 130.868256 403.485962 126.946289 Z M 7.391464 162.536209 C 12.759953 150.112015 72.940376 148.126511 117.690796 107.994293 C 133.791214 93.554749 153.526917 111.19223 148.842499 124.727707 C 144.16011 138.262711 129.849533 141.830246 107.450813 150.538254 C 85.054108 159.247772 113.534218 170.855911 150.489258 153.417664 C 171.628021 143.444626 194.277512 160.256958 168.753647 177.57132 C 147.419235 192.041672 98.262482 196.19017 99.60537 208.60321 C 100.348091 215.497116 136.032547 198.913345 142.516922 213.774521 C 147.907654 226.125381 135.133591 240.31868 99.438522 243.200623 C 63.073029 246.136658 34.790604 238.656754 34.367416 220.792297 C 33.888111 200.567154 76.553421 195.086426 57.383476 188.833633 C 38.10635 182.549988 -2.069882 184.439438 7.391464 162.536697 Z M 223.384109 119.255585 C 230.571274 124.253464 230.794739 130.626602 223.155579 139.468079 C 213.252319 150.93364 196.724167 150.400726 191.869873 146.207764 C 187.015579 142.014282 197.989685 131.15596 202.179108 124.899628 C 206.369553 118.645309 214.131058 112.822296 223.384109 119.255585 Z M 222.942719 188.134903 C 265.553436 177.948517 289.529633 195.025757 279.98587 206.694061 C 269.676636 219.293701 245.000671 219.264877 243.061676 243.933746 C 239.438019 290.091248 194.034363 298.259277 213.407547 266.034668 C 220.193756 254.744568 210.228821 247.590271 204.387589 262.025208 C 200.860504 270.736786 184.133133 282.691772 175.293671 287.112244 C 135.175583 307.170013 103.188614 278.027557 131.882584 269.928314 C 150.554001 264.658936 167.327896 251.984955 178.042633 222.961334 C 183.750885 207.494949 204.226303 192.609985 222.942719 188.135391 Z M 95.980736 281.671448 C 112.132233 302.320313 62.234768 303.47406 43.80756 309.676819 C 25.379341 315.880554 63.354176 319.029968 96.76088 318.682617 C 130.171127 318.335297 125.115601 343.993103 87.142799 356.562408 C 28.801765 375.870392 -23.205074 355.819153 21.499853 343.007721 C 38.172115 338.226715 26.32128 324.43692 7.814693 326.425934 C -27.132584 330.182556 -53.034634 312.933411 -47.153454 299.458069 C -40.516403 284.250061 -24.092907 294.488007 -7.484346 295.624603 C 9.124712 296.762207 -5.251607 280.483307 -26.757936 269.274078 C -63.698818 250.020721 -32.794838 217.272827 -1.074311 246.877899 C 44.120026 289.058838 83.887222 266.210144 95.980247 281.671478 Z M 263.547699 331.731232 C 239.699417 380.429871 190.735809 375.645355 197.609985 359.022156 C 204.482651 342.399445 176.208313 355.941528 163.111176 352.910431 C 150.016052 349.882874 142.25 327.117096 190.878387 322.735016 C 250.790833 317.33316 252.19136 258.235229 272.199097 270.5755 C 285.956543 279.057983 272.388184 313.679688 263.54718 331.73172 Z M 621.21991 111.346436 C 661.162537 104.481354 670.008606 118.23526 653.378784 129.243271 C 643.066528 136.071945 602.909485 157.847748 632.238525 159.980896 C 661.571594 162.114548 639.711304 190.002075 605.264587 215.963791 C 570.818848 241.92601 495.563873 255.951431 498.852325 234.056808 C 502.142761 212.162674 590.760803 201.656754 574.80304 178.550186 C 567.872192 168.513962 533.975586 210.139252 518.926819 186.188828 C 503.877014 162.238419 596.18042 115.647598 621.21936 111.346436 Z M 361.248932 152.376129 C 373.998199 141.583008 400.072174 157.16925 376.619232 178.558273 C 371.191101 183.509644 357.237976 188.250671 365.573334 193.137329 C 390.758453 207.898407 467.51709 131.219666 480.215302 156.376953 C 486.320953 168.473007 455.707214 195.525299 422.291901 212.425079 C 397.624023 224.899841 406.618195 247.755127 443.230957 225.236557 C 479.845734 202.716995 486.305786 229.261154 466.023529 246.68222 C 445.742249 264.101257 316.164307 324.433868 307.335449 292.191559 C 300.464325 267.115143 372.860077 271.708557 363.851257 255.507019 C 357.237976 243.618256 306.888519 275.185089 289.065979 254.684921 C 271.817352 234.848587 336.383362 221.705444 332.249054 209.811615 C 328.984375 200.42662 298.088989 213.650665 297.490845 190.675064 C 297.028229 172.867722 330.392456 178.491028 361.248413 152.376129 Z M 540.372986 312.675537 C 548.12384 271.90271 619.940247 233.892471 647.49408 223.671722 C 690.849548 207.597092 736.151611 212.955963 710.578186 226.108231 C 685.004761 239.263504 617.781311 282.821716 652.381226 285.81134 C 669.409912 287.282654 688.657227 299.915649 652.381226 329.878174 C 629.353516 348.899475 549.096619 375.184784 544.713562 358.377533 C 540.330017 341.57077 636.777771 312.340332 606.820801 309.415924 C 576.863831 306.493561 536.751282 331.741821 540.372986 312.675537 Z M 434.617981 298.040344 C 458.018799 286.343231 479.659149 272.176758 504.570679 266.829468 C 537.059753 259.857208 505.015625 303.815369 473.828003 318.076385 C 459.859711 324.463165 476.585571 332.975006 490.02652 326.449158 C 526.55127 308.718689 542.436829 322.340149 504.718842 347.42514 C 495.341431 353.662262 466.367828 368.428894 431.186951 372.93988 C 395.672394 377.49588 396.595123 364.420959 407.5849 359.519653 C 423.389557 352.472565 434.215515 337.193756 391.842468 350.098267 C 316.096558 373.165405 271.227325 369.324341 288.470398 350.098267 C 304.575867 332.144287 358.87207 335.900909 434.618011 298.040344 Z"/>
    </g>
    <g id="--2">
        <path id="path4" fill="#4fb4f8" fill-rule="evenodd" stroke="none" d="M 171 239.037796 L 171 274.898254 L 392.139526 274.898254 L 428 239.037796 L 171 239.037796 Z"/>
        <path id="-" fill="#4fb4f8" fill-rule="evenodd" stroke="none" d="M 428 167.316864 L 428 203.177322 L 206.860458 203.177322 L 171 167.316864 L 428 167.316864 Z"/>
        <path id="path5" fill="#4fb4f8" fill-rule="evenodd" stroke="none" d="M 428 131.45639 L 428 95.595917 L 206.860458 95.595917 L 171 131.45639 L 428 131.45639 Z"/>
        <path id="path6" fill="#2e74ba" fill-rule="evenodd" stroke="none" d="M 392.139526 239.037796 L 392.139526 203.177322 L 428 203.177322 L 428 239.037796 Z"/>
        <path id="--3" fill="#2e74ba" fill-rule="evenodd" stroke="none" d="M 171 167.316864 L 171 131.45639 L 206.860474 131.45639 L 206.860474 167.316864 Z"/>
        <path id="path7" fill="#ff0000" fill-rule="evenodd" stroke="none" d="M 197.895355 248.002899 C 202.846649 248.002899 206.860458 252.016724 206.860458 256.968018 C 206.860458 261.919312 202.846649 265.933136 197.895355 265.933136 C 192.944046 265.933136 188.930237 261.919312 188.930237 256.968018 C 188.930237 252.016724 192.944046 248.002899 197.895355 248.002899 Z"/>
        <path id="path8" fill="#ffd900" fill-rule="evenodd" stroke="none" d="M 235.25 248.002899 C 240.201294 248.002899 244.215118 252.016724 244.215118 256.968018 C 244.215118 261.919312 240.201294 265.933136 235.25 265.933136 C 230.298706 265.933136 226.284882 261.919312 226.284882 256.968018 C 226.284882 252.016724 230.298706 248.002899 235.25 248.002899 Z"/>
        <path id="path9" fill="#4dff00" fill-rule="evenodd" stroke="none" d="M 272.604645 248.002899 C 277.555939 248.002899 281.569763 252.016724 281.569763 256.968018 C 281.569763 261.919312 277.555939 265.933136 272.604645 265.933136 C 267.653351 265.933136 263.639526 261.919312 263.639526 256.968018 C 263.639526 252.016724 267.653351 248.002899 272.604645 248.002899 Z"/>
        <path id="path10" fill="#00ff8c" fill-rule="evenodd" stroke="none" d="M 309.95929 248.002899 C 314.910614 248.002899 318.924408 252.016724 318.924408 256.968018 C 318.924408 261.919312 314.910614 265.933136 309.95929 265.933136 C 305.007996 265.933136 300.994171 261.919312 300.994171 256.968018 C 300.994171 252.016724 305.007996 248.002899 309.95929 248.002899 Z"/>
        <path id="--4" fill="#0099ff" fill-rule="evenodd" stroke="none" d="M 347.313965 248.002899 C 352.265259 248.002899 356.279083 252.016724 356.279083 256.968018 C 356.279083 261.919312 352.265259 265.933136 347.313965 265.933136 C 342.362671 265.933136 338.348846 261.919312 338.348846 256.968018 C 338.348846 252.016724 342.362671 248.002899 347.313965 248.002899 Z"/>
        <path id="--5" fill="#4000ff" fill-rule="evenodd" stroke="none" d="M 384.66861 248.002899 C 389.619904 248.002899 393.633728 252.016724 393.633728 256.968018 C 393.633728 261.919312 389.619904 265.933136 384.66861 265.933136 C 379.717316 265.933136 375.703491 261.919312 375.703491 256.968018 C 375.703491 252.016724 379.717316 248.002899 384.66861 248.002899 Z"/>
        <path id="--6" fill="#ff00e6" fill-rule="evenodd" stroke="none" d="M 401.104645 176.281982 C 406.055939 176.281982 410.069763 180.295792 410.069763 185.247086 C 410.069763 190.198395 406.055939 194.212204 401.104645 194.212204 C 396.153351 194.212204 392.139526 190.198395 392.139526 185.247086 C 392.139526 180.295792 396.153351 176.281982 401.104645 176.281982 Z"/>
        <path id="--7" fill="#ff0000" fill-rule="evenodd" stroke="none" d="M 363.75 176.281982 C 368.701294 176.281982 372.715118 180.295792 372.715118 185.247086 C 372.715118 190.198395 368.701294 194.212204 363.75 194.212204 C 358.798706 194.212204 354.784882 190.198395 354.784882 185.247086 C 354.784882 180.295792 358.798706 176.281982 363.75 176.281982 Z"/>
        <path id="--8" fill="#ffd900" fill-rule="evenodd" stroke="none" d="M 326.395355 176.281982 C 331.346649 176.281982 335.360474 180.295792 335.360474 185.247086 C 335.360474 190.198395 331.346649 194.212204 326.395355 194.212204 C 321.444061 194.212204 317.430237 190.198395 317.430237 185.247086 C 317.430237 180.295792 321.444061 176.281982 326.395355 176.281982 Z"/>
        <path id="--9" fill="#4dff00" fill-rule="evenodd" stroke="none" d="M 289.04071 176.281982 C 293.992004 176.281982 298.005829 180.295792 298.005829 185.247086 C 298.005829 190.198395 293.992004 194.212204 289.04071 194.212204 C 284.089386 194.212204 280.075592 190.198395 280.075592 185.247086 C 280.075592 180.295792 284.089386 176.281982 289.04071 176.281982 Z"/>
        <path id="--10" fill="#00ff8c" fill-rule="evenodd" stroke="none" d="M 251.68605 176.281982 C 256.637329 176.281982 260.651154 180.295792 260.651154 185.247086 C 260.651154 190.198395 256.637329 194.212204 251.68605 194.212204 C 246.734756 194.212204 242.720932 190.198395 242.720932 185.247086 C 242.720932 180.295792 246.734756 176.281982 251.68605 176.281982 Z"/>
        <path id="--11" fill="#0099ff" fill-rule="evenodd" stroke="none" d="M 214.33139 176.281982 C 219.2827 176.281982 223.296509 180.295792 223.296509 185.247086 C 223.296509 190.198395 219.2827 194.212204 214.33139 194.212204 C 209.380096 194.212204 205.366272 190.198395 205.366272 185.247086 C 205.366272 180.295792 209.380096 176.281982 214.33139 176.281982 Z"/>
        <path id="--17" fill="#4000ff" fill-rule="evenodd" stroke="none" d="M 401.104645 104.561035 C 406.055939 104.561035 410.069763 108.57486 410.069763 113.526154 C 410.069763 118.477463 406.055939 122.491272 401.104645 122.491272 C 396.153351 122.491272 392.139526 118.477463 392.139526 113.526154 C 392.139526 108.57486 396.153351 104.561035 401.104645 104.561035 Z"/>
        <path id="--16" fill="#ff00e6" fill-rule="evenodd" stroke="none" d="M 363.75 104.561035 C 368.701294 104.561035 372.715118 108.57486 372.715118 113.526154 C 372.715118 118.477463 368.701294 122.491272 363.75 122.491272 C 358.798706 122.491272 354.784882 118.477463 354.784882 113.526154 C 354.784882 108.57486 358.798706 104.561035 363.75 104.561035 Z"/>
        <path id="--15" fill="#ff0000" fill-rule="evenodd" stroke="none" d="M 326.395355 104.561035 C 331.346649 104.561035 335.360474 108.57486 335.360474 113.526154 C 335.360474 118.477463 331.346649 122.491272 326.395355 122.491272 C 321.444061 122.491272 317.430237 118.477463 317.430237 113.526154 C 317.430237 108.57486 321.444061 104.561035 326.395355 104.561035 Z"/>
        <path id="--14" fill="#ffd900" fill-rule="evenodd" stroke="none" d="M 289.04071 104.561035 C 293.992004 104.561035 298.005829 108.57486 298.005829 113.526154 C 298.005829 118.477463 293.992004 122.491272 289.04071 122.491272 C 284.089386 122.491272 280.075592 118.477463 280.075592 113.526154 C 280.075592 108.57486 284.089386 104.561035 289.04071 104.561035 Z"/>
        <path id="--13" fill="#4dff00" fill-rule="evenodd" stroke="none" d="M 251.68605 104.561035 C 256.637329 104.561035 260.651154 108.57486 260.651154 113.526154 C 260.651154 118.477463 256.637329 122.491272 251.68605 122.491272 C 246.734756 122.491272 242.720932 118.477463 242.720932 113.526154 C 242.720932 108.57486 246.734756 104.561035 251.68605 104.561035 Z"/>
        <path id="--12" fill="#00ff8c" fill-rule="evenodd" stroke="none" d="M 214.33139 104.561035 C 219.2827 104.561035 223.296509 108.57486 223.296509 113.526154 C 223.296509 118.477463 219.2827 122.491272 214.33139 122.491272 C 209.380096 122.491272 205.366272 118.477463 205.366272 113.526154 C 205.366272 108.57486 209.380096 104.561035 214.33139 104.561035 Z"/>
        <path id="path11" fill="#00ff8c" fill-rule="evenodd" stroke="none" d="M 305.476746 313 L 305.476746 290.587219 L 314.441864 290.587219 L 314.441864 313 Z"/>
        <path id="path12" fill="#00ff8c" fill-rule="evenodd" stroke="none" d="M 335.12793 306.073517 L 322.272461 287.71402 L 329.616272 282.571838 L 342.47171 300.931335 Z"/>
        <path id="path13" fill="#00ff8c" fill-rule="evenodd" stroke="none" d="M 277.446899 300.931335 L 290.302338 282.571838 L 297.646118 287.71402 L 284.79068 306.073517 Z"/>
        <path id="path14" fill="#ffd900" fill-rule="evenodd" stroke="none" d="M 284.558136 57.696838 L 284.558136 80.109619 L 293.523254 80.109619 L 293.523254 57.696838 Z"/>
        <path id="path15" fill="#ffd900" fill-rule="evenodd" stroke="none" d="M 314.20932 64.623352 L 301.353882 82.982819 L 308.697662 88.125 L 321.553101 69.765503 Z"/>
        <path id="path16" fill="#ffd900" fill-rule="evenodd" stroke="none" d="M 256.52829 69.765503 L 269.383728 88.125 L 276.727539 82.982819 L 263.87207 64.623352 Z"/>
    </g>
</svg>
