<?xml version="1.0" encoding="UTF-8"?>
<!-- Generated by Pixelmator Pro 3.7.1 -->
<svg width="80" height="80" viewBox="0 0 80 80" xmlns="http://www.w3.org/2000/svg">
    <path id="path1" fill="#ffffff" fill-rule="evenodd" stroke="none" d="M 12 68 L 68 68 L 68 12 L 12 12 Z"/>
    <path id="path2" fill="#d5d5d5" fill-rule="evenodd" stroke="none" d="M 60 40 C 60 28.954308 51.045692 20 40 20 C 28.954304 20 20 28.954308 20 40 C 20 51.045696 28.954304 60 40 60 C 51.045692 60 60 51.045696 60 40 Z"/>
    <g id="g1">
        <path id="path3" fill="#ff0000" fill-rule="evenodd" stroke="none" d="M 41 34 C 41 30.134007 37.865993 27 34 27 C 30.134007 27 27 30.134007 27 34 C 27 37.865993 30.134007 41 34 41 C 37.865993 41 41 37.865993 41 34 Z"/>
        <radialGradient id="radialGradient1" cx="34" cy="34" r="11.2" fx="34" fy="34" gradientUnits="userSpaceOnUse">
            <stop offset="0" stop-color="#ff0000" stop-opacity="1"/>
            <stop offset="1" stop-color="#ff0000" stop-opacity="0"/>
        </radialGradient>
        <path id="path4" fill="url(#radialGradient1)" fill-rule="evenodd" stroke="none" d="M 60.976746 34 C 60.976746 19.101156 48.898846 7.023256 34 7.023256 C 19.101156 7.023256 7.023256 19.101156 7.023256 34 C 7.023256 48.898846 19.101156 60.976746 34 60.976746 C 48.898846 60.976746 60.976746 48.898846 60.976746 34 Z M 21.023256 34 C 21.023256 26.833143 26.833143 21.023256 34 21.023256 C 41.166859 21.023256 46.976746 26.833143 46.976746 34 C 46.976746 41.166859 41.166859 46.976746 34 46.976746 C 26.833143 46.976746 21.023256 41.166859 21.023256 34 Z"/>
    </g>
    <g id="-">
        <path id="path5" fill="#00ff00" fill-rule="evenodd" stroke="none" d="M 56 38 C 56 34.134007 52.865993 31 49 31 C 45.134007 31 42 34.134007 42 38 C 42 41.865993 45.134007 45 49 45 C 52.865993 45 56 41.865993 56 38 Z"/>
        <radialGradient id="radialGradient2" cx="49" cy="38" r="11.2" fx="49" fy="38" gradientUnits="userSpaceOnUse">
            <stop offset="0" stop-color="#00ff00" stop-opacity="1"/>
            <stop offset="1" stop-color="#00ff00" stop-opacity="0"/>
        </radialGradient>
        <path id="path6" fill="url(#radialGradient2)" fill-rule="evenodd" stroke="none" d="M 76 38 C 76 23.088312 63.91169 11 49 11 C 34.08831 11 22 23.088312 22 38 C 22 52.91169 34.08831 65 49 65 C 63.91169 65 76 52.91169 76 38 Z M 36 38 C 36 30.820299 41.820297 25 49 25 C 56.179703 25 62 30.820299 62 38 C 62 45.179703 56.179703 51 49 51 C 41.820297 51 36 45.179703 36 38 Z"/>
    </g>
    <g id="--2">
        <path id="path7" fill="#0000ff" fill-rule="evenodd" stroke="none" d="M 44 49 C 44 45.134007 40.865993 42 37 42 C 33.134007 42 30 45.134007 30 49 C 30 52.865993 33.134007 56 37 56 C 40.865993 56 44 52.865993 44 49 Z"/>
        <radialGradient id="radialGradient3" cx="37" cy="49" r="11.2" fx="37" fy="49" gradientUnits="userSpaceOnUse">
            <stop offset="0" stop-color="#0000ff" stop-opacity="1"/>
            <stop offset="1" stop-color="#0000ff" stop-opacity="0"/>
        </radialGradient>
        <path id="path8" fill="url(#radialGradient3)" fill-rule="evenodd" stroke="none" d="M 64 49 C 64 34.08831 51.91169 22 37 22 C 22.088312 22 10 34.08831 10 49 C 10 63.91169 22.088312 76 37 76 C 51.91169 76 64 63.91169 64 49 Z M 24 49 C 24 41.820297 29.820299 36 37 36 C 44.179703 36 50 41.820297 50 49 C 50 56.179703 44.179703 62 37 62 C 29.820299 62 24 56.179703 24 49 Z"/>
    </g>
</svg>
