<?xml version="1.0" encoding="UTF-8"?>
<!-- Generated by Pixelmator Pro 3.7.1 -->
<svg width="24" height="24" viewBox="0 0 24 24" xmlns="http://www.w3.org/2000/svg">
    <path id="path1" fill="#0b8e69" stroke="none" d="M 22.68 12.2 C 22.377878 12.596321 21.908344 12.82924 21.41 12.83 L 13.72 12.83 C 13.124725 12.799079 12.596748 12.437807 12.352315 11.894153 C 12.107881 11.350499 12.188055 10.715795 12.56 10.25 L 13.68 8.84 C 12.753194 8.229491 11.6441 7.957516 10.54 8.07 C 9.816367 8.163089 9.128209 8.438352 8.54 8.87 C 7.949986 9.319819 7.488006 9.916256 7.2 10.6 C 6.619558 12.136375 6.820891 13.858896 7.74 15.22 C 8.689398 16.678282 10.264751 17.61018 12 17.74 L 12 17.74 C 13.248163 17.784184 14.224183 18.831837 14.18 20.08 C 14.135818 21.328163 13.088163 22.304182 11.84 22.26 C 8.620752 22.191113 5.620991 20.613461 3.74 18 C 1.773276 15.351947 1.217484 11.912746 2.25 8.78 C 2.814133 7.175793 3.790083 5.748079 5.08 4.639999 C 6.396239 3.54311 7.974142 2.805836 9.66 2.5 C 12.353527 2.050512 15.116839 2.651855 17.379999 4.18 L 18.459999 2.83 C 18.758841 2.449665 19.216309 2.22831 19.700001 2.23 C 20.42906 2.235355 21.062305 2.732904 21.24 3.440001 L 22.940001 10.81 C 23.078714 11.288345 22.982237 11.804134 22.68 12.2 Z"/>
    <path id="path2" fill="#ffffff" stroke="none" d="M 21.379999 11.83 L 13.77 11.83 C 13.532158 11.832323 13.31618 11.691603 13.222222 11.473095 C 13.128263 11.254586 13.174701 11.001027 13.34 10.83 L 15.09 8.64 C 13.831419 7.448616 12.112683 6.870829 10.39 7.059999 C 8.541971 7.282112 6.96424 8.499001 6.28 10.23 C 5.593208 12.082575 5.862486 14.154519 7 15.77 C 8.118263 17.47175 9.968379 18.552217 12 18.690001 C 12.723493 18.712091 13.292091 19.316507 13.27 20.040001 C 13.247909 20.763493 12.643493 21.332092 11.92 21.309999 C 9.006883 21.258299 6.286358 19.844366 4.57 17.49 C 2.761137 15.097474 2.238181 11.970944 3.17 9.12 C 3.667168 7.674366 4.544572 6.389349 5.71 5.4 C 6.887649 4.410223 8.30518 3.748018 9.82 3.48 C 12.580934 3.020803 15.405734 3.775297 17.57 5.549999 L 19.24 3.450001 C 19.380663 3.29306 19.594357 3.223066 19.80061 3.26638 C 20.006863 3.309692 20.174351 3.459734 20.24 3.66 L 22 11.08 C 22.053528 11.266999 22.01145 11.468366 21.88752 11.618282 C 21.763588 11.768199 21.57373 11.847401 21.379999 11.83 Z"/>
</svg>
