<?xml version="1.0" encoding="UTF-8"?>
<!-- Generated by Pixelmator Pro 3.7.1 -->
<svg width="24" height="24" viewBox="0 0 24 24" xmlns="http://www.w3.org/2000/svg">
    <path id="path1" fill="#0b8e69" stroke="none" d="M 20.34 18.209999 C 18.451595 20.809555 15.452538 22.372026 12.24 22.43 C 10.991837 22.474182 9.944182 21.498163 9.9 20.25 C 9.855817 19.001837 10.831837 17.954184 12.08 17.91 L 12.08 17.91 C 13.813468 17.774876 15.384879 16.839424 16.33 15.38 C 17.249109 14.018896 17.450441 12.296376 16.870001 10.76 C 16.592102 10.067646 16.136848 9.460642 15.55 9 C 14.961791 8.568352 14.273633 8.293089 13.55 8.2 C 12.439049 8.093957 11.325723 8.376706 10.4 9 L 11.52 10.41 C 11.897828 10.875701 11.981492 11.514367 11.736366 12.061674 C 11.491241 12.60898 10.959029 12.971811 10.36 13 L 2.67 13 C 2.173696 13.002389 1.705871 12.768476 1.41 12.37 C 1.102769 11.984471 0.998676 11.47516 1.13 11 L 2.85 3.57 C 3.038885 2.880327 3.66493 2.401587 4.38 2.4 C 4.863691 2.39831 5.32116 2.619665 5.62 3 L 6.7 4.35 C 8.963161 2.821854 11.726473 2.220512 14.42 2.67 C 16.106417 2.974079 17.68475 3.711554 19 4.809999 C 20.300428 5.929018 21.277584 7.375761 21.83 9 C 22.869476 12.128927 22.313028 15.568438 20.34 18.209999 Z"/>
    <path id="path2" fill="#ffffff" stroke="none" d="M 19.559999 17.65 C 17.846798 20.009361 15.125285 21.427509 12.21 21.48 C 11.486507 21.50209 10.882092 20.933493 10.86 20.209999 C 10.837909 19.486507 11.406507 18.882092 12.13 18.860001 C 14.160686 18.719181 16.00955 17.639442 17.129999 15.94 C 18.232391 14.320186 18.482077 12.2668 17.799999 10.43 C 17.449118 9.58041 16.88409 8.836228 16.16 8.27 C 15.434409 7.726587 14.579587 7.381901 13.68 7.27 C 11.964926 7.078697 10.252725 7.65309 9 8.84 L 10.74 11 C 10.905299 11.171027 10.951736 11.424586 10.857778 11.643094 C 10.76382 11.861603 10.547842 12.002323 10.31 12 L 2.7 12 C 2.511104 12.006026 2.33041 11.9227 2.212347 11.775122 C 2.094285 11.627544 2.052656 11.432966 2.1 11.25 L 3.81 3.83 C 3.875649 3.629734 4.043137 3.479692 4.24939 3.43638 C 4.455643 3.393066 4.669337 3.46306 4.81 3.619999 L 6.48 5.719999 C 8.644266 3.945297 11.469067 3.190804 14.23 3.65 C 15.747211 3.919949 17.167496 4.581829 18.35 5.57 C 19.509266 6.56488 20.385437 7.848091 20.889999 9.29 C 21.841614 12.126392 21.344843 15.248953 19.559999 17.65 Z"/>
</svg>
