<?xml version="1.0" encoding="UTF-8" standalone="no"?>
<!DOCTYPE svg PUBLIC "-//W3C//DTD SVG 1.1//EN" "http://www.w3.org/Graphics/SVG/1.1/DTD/svg11.dtd">
<!-- Created with Vectornator (http://vectornator.io/) -->
<svg height="100%" stroke-miterlimit="10" style="fill-rule:nonzero;clip-rule:evenodd;stroke-linecap:round;stroke-linejoin:round;" version="1.1" viewBox="0 0 40 40" width="100%" xml:space="preserve" xmlns="http://www.w3.org/2000/svg" xmlns:xlink="http://www.w3.org/1999/xlink">
<defs/>
<g id="microbit-block-icon">
<g opacity="1">
<path d="M22.61 6.1083L22.61 6.9983L17.28 6.9983L17.28 6.1083L17.72 6.1083L17.72 6.3283L18.17 6.3283L18.17 6.1083L21.72 6.1083L21.72 6.3283L22.17 6.3283L22.17 6.1083L22.61 6.1083Z" fill="#e6e7e8" fill-rule="nonzero" opacity="1" stroke="#7c87a5" stroke-linecap="round" stroke-linejoin="round" stroke-width="0.22"/>
<path d="M34.16 6.9983L5.72 6.9983C4.74083 6.99828 3.9455 7.78914 3.94 8.7683L3.94 30.9983C3.94125 31.7684 4.43759 32.4503 5.17 32.6883C5.34872 32.7404 5.53384 32.7674 5.72 32.7683L34.16 32.7683C34.3462 32.7674 34.5313 32.7404 34.71 32.6883C35.4424 32.4503 35.9387 31.7684 35.94 30.9983L35.94 8.7683C35.9345 7.78914 35.1392 6.99828 34.16 6.9983ZM6.61 29.5383C6.21344 29.5383 5.84699 29.3267 5.64871 28.9833C5.45043 28.6399 5.45043 28.2167 5.64871 27.8733C5.84699 27.5299 6.21344 27.3183 6.61 27.3183C7.00656 27.3183 7.37301 27.5299 7.57129 27.8733C7.76957 28.2167 7.76957 28.6399 7.57129 28.9833C7.37301 29.3267 7.00656 29.5383 6.61 29.5383ZM12.88 29.5383C12.4301 29.5383 12.0248 29.2667 11.8536 28.8507C11.6824 28.4347 11.7792 27.9565 12.0987 27.6399C12.4183 27.3232 12.8973 27.2307 13.3118 27.4057C13.7262 27.5807 13.9941 27.9885 13.99 28.4383C13.9845 29.0474 13.4892 29.5383 12.88 29.5383ZM19.94 29.5383C19.4901 29.5383 19.0848 29.2667 18.9136 28.8507C18.7424 28.4347 18.8392 27.9565 19.1587 27.6399C19.4783 27.3232 19.9573 27.2307 20.3718 27.4057C20.7862 27.5807 21.0541 27.9885 21.05 28.4383C21.0445 29.0474 20.5492 29.5383 19.94 29.5383ZM27 29.5383C26.6034 29.5383 26.237 29.3267 26.0387 28.9833C25.8404 28.6399 25.8404 28.2167 26.0387 27.8733C26.237 27.5299 26.6034 27.3183 27 27.3183C27.3966 27.3183 27.763 27.5299 27.9613 27.8733C28.1596 28.2167 28.1596 28.6399 27.9613 28.9833C27.763 29.3267 27.3966 29.5383 27 29.5383ZM33.27 29.5383C32.8201 29.5383 32.4148 29.2667 32.2436 28.8507C32.0724 28.4347 32.1692 27.9565 32.4887 27.6399C32.8083 27.3232 33.2873 27.2307 33.7018 27.4057C34.1162 27.5807 34.3841 27.9885 34.38 28.4383C34.3745 29.0474 33.8792 29.5383 33.27 29.5383Z" fill="#231f20" fill-rule="nonzero" opacity="0.1" stroke="#231f20" stroke-linecap="butt" stroke-linejoin="miter" stroke-width="0.89"/>
<path d="M5.71875 6.9983C4.73958 6.99828 3.943 7.80039 3.9375 8.77955L3.9375 30.9983C3.93875 31.7684 4.42384 32.4479 5.15625 32.6858C5.26573 32.7177 5.38694 32.7355 5.5 32.7483C5.5077 32.7421 5.52448 32.7243 5.53125 32.717C5.53741 32.71 5.52602 32.6935 5.53125 32.6858C5.53341 32.6826 5.56049 32.689 5.5625 32.6858C5.56912 32.6749 5.55788 32.6667 5.5625 32.6545C5.64224 32.4278 5.87023 32.2483 6.125 32.2483L7.125 32.2483C7.34775 32.2483 7.55712 32.3778 7.65625 32.5608C7.67041 32.5868 7.6775 32.6262 7.6875 32.6545C7.69212 32.6669 7.71213 32.6747 7.71875 32.6858C7.72414 32.6943 7.74339 32.7095 7.75 32.717L7.6875 32.7795L11.7812 32.7795C11.7922 32.7739 11.8026 32.7557 11.8125 32.7483C11.8202 32.7421 11.837 32.7243 11.8438 32.717C11.8499 32.71 11.8385 32.6935 11.8438 32.6858C11.8459 32.6826 11.873 32.689 11.875 32.6858C11.8816 32.6749 11.8704 32.6667 11.875 32.6545C11.9547 32.4278 12.1827 32.2483 12.4375 32.2483L13.4688 32.2483C13.6915 32.2483 13.8696 32.3778 13.9688 32.5608C13.9829 32.5868 13.99 32.6262 14 32.6545C14.0046 32.6669 14.0246 32.6747 14.0312 32.6858C14.0366 32.6943 14.0559 32.7095 14.0625 32.717L14 32.7795L18.7812 32.7795C18.7922 32.7739 18.8026 32.7557 18.8125 32.7483C18.8202 32.7421 18.837 32.7243 18.8438 32.717C18.8499 32.71 18.8385 32.6935 18.8438 32.6858C18.8459 32.6826 18.873 32.689 18.875 32.6858C18.8816 32.6749 18.8704 32.6667 18.875 32.6545C18.9547 32.4278 19.1827 32.2483 19.4375 32.2483L20.4688 32.2483C20.6915 32.2483 20.8696 32.3778 20.9688 32.5608C20.9829 32.5868 20.99 32.6262 21 32.6545C21.0046 32.6669 21.0246 32.6747 21.0312 32.6858C21.0366 32.6943 21.0559 32.7095 21.0625 32.717L21 32.7795L25.8438 32.7795C25.8547 32.7739 25.8651 32.7557 25.875 32.7483C25.8827 32.7421 25.8995 32.7243 25.9062 32.717C25.9089 32.7144 25.935 32.7198 25.9375 32.717C25.9437 32.71 25.9323 32.6935 25.9375 32.6858C25.9441 32.6749 25.9641 32.6667 25.9688 32.6545C26.0485 32.4278 26.2452 32.2483 26.5 32.2483L27.5312 32.2483C27.754 32.2483 27.9634 32.3778 28.0625 32.5608C28.0767 32.5868 28.0838 32.6262 28.0938 32.6545C28.0984 32.6669 28.1184 32.6747 28.125 32.6858C28.1304 32.6943 28.1184 32.7095 28.125 32.717L28.0938 32.7795L32.0938 32.7795C32.1047 32.7739 32.1464 32.7557 32.1562 32.7483C32.1639 32.7421 32.1495 32.7243 32.1562 32.717C32.1589 32.7144 32.185 32.7198 32.1875 32.717C32.1937 32.71 32.1823 32.6935 32.1875 32.6858C32.1941 32.6749 32.2141 32.6667 32.2188 32.6545C32.2985 32.4278 32.5265 32.2483 32.7812 32.2483L33.7812 32.2483C34.004 32.2483 34.2134 32.3778 34.3125 32.5608C34.3267 32.5868 34.3337 32.6262 34.3438 32.6545C34.3484 32.6669 34.3684 32.6747 34.375 32.6858C34.3804 32.6943 34.3684 32.7095 34.375 32.717C34.3773 32.7198 34.4038 32.7144 34.4062 32.717L34.375 32.7483C34.4881 32.7355 34.6093 32.7177 34.7188 32.6858C35.4512 32.4478 35.9362 31.7684 35.9375 30.9983L35.9375 8.77955C35.932 7.80039 35.1354 6.99828 34.1562 6.9983L5.71875 6.9983ZM6.625 27.3108C7.02156 27.3108 7.36422 27.5299 7.5625 27.8733C7.76078 28.2167 7.76078 28.6549 7.5625 28.9983C7.36422 29.3417 7.02156 29.5295 6.625 29.5295C6.22844 29.5295 5.85453 29.3417 5.65625 28.9983C5.45797 28.6549 5.45797 28.2167 5.65625 27.8733C5.85453 27.5299 6.22844 27.3108 6.625 27.3108ZM27 27.3108C27.3966 27.3108 27.7705 27.5299 27.9688 27.8733C28.167 28.2167 28.167 28.6549 27.9688 28.9983C27.7705 29.3417 27.3966 29.5295 27 29.5295C26.6034 29.5295 26.2295 29.3417 26.0312 28.9983C25.833 28.6549 25.833 28.2167 26.0312 27.8733C26.2295 27.5299 26.6034 27.3108 27 27.3108ZM13.3125 27.4045C13.7269 27.5795 14.0041 27.986 14 28.4358C13.9945 29.0449 13.4842 29.5296 12.875 29.5295C12.4251 29.5295 12.015 29.2581 11.8438 28.842C11.6725 28.426 11.7742 27.9712 12.0938 27.6545C12.4133 27.3379 12.8981 27.2296 13.3125 27.4045ZM20.375 27.4045C20.7894 27.5795 21.0666 27.986 21.0625 28.4358C21.057 29.0449 20.5467 29.5296 19.9375 29.5295C19.4876 29.5295 19.0775 29.2581 18.9062 28.842C18.735 28.426 18.8367 27.9712 19.1562 27.6545C19.4758 27.3379 19.9606 27.2296 20.375 27.4045ZM33.6875 27.4045C34.1019 27.5795 34.3791 27.986 34.375 28.4358C34.3695 29.0449 33.8904 29.5296 33.2812 29.5295C32.8314 29.5295 32.4212 29.2581 32.25 28.842C32.0788 28.426 32.1805 27.9712 32.5 27.6545C32.8195 27.3379 33.2731 27.2296 33.6875 27.4045Z" fill="#414757" fill-rule="nonzero" opacity="1" stroke="none"/>
<path d="M3.94 14.9983L3.94 8.7683C3.9455 7.78914 4.74083 6.99828 5.72 6.9983L11.94 6.9983L3.94 14.9983Z" fill="#ffcc00" fill-rule="nonzero" opacity="1" stroke="none"/>
<path d="M11.94 10.5583L11.94 6.9983L15.5 6.9983L11.94 10.5583Z" fill="#ffcc00" fill-rule="nonzero" opacity="1" stroke="none"/>
<path d="M15.5 9.6683L15.5 6.9983L18.17 6.9983L15.5 9.6683Z" fill="#ffcc00" fill-rule="nonzero" opacity="1" stroke="none"/>
<path d="M31.94 15.8883L31.94 13.2183L34.61 13.2183L31.94 15.8883Z" fill="#ffcc00" fill-rule="nonzero" opacity="1" stroke="#ffcc00" stroke-linecap="round" stroke-linejoin="round" stroke-width="0.22"/>
<path d="M7.95 22.1083L7.95 24.7783L5.28 24.7783L7.95 22.1083Z" fill="#ffcc00" fill-rule="nonzero" opacity="1" stroke="#ffcc00" stroke-linecap="round" stroke-linejoin="round" stroke-width="0.22"/>
<path d="M4.83 18.5583L4.95 18.5583C5.19301 18.5583 5.39 18.7553 5.39 18.9983L5.39 19.1183C5.39 19.3613 5.19301 19.5583 4.95 19.5583L4.83 19.5583C4.58699 19.5583 4.39 19.3613 4.39 19.1183L4.39 18.9983C4.39 18.7553 4.58699 18.5583 4.83 18.5583Z" fill="#ffffff" fill-rule="nonzero" opacity="1" stroke="none"/>
<path d="M35.05 18.5583L35.17 18.5583C35.413 18.5583 35.61 18.7553 35.61 18.9983L35.61 19.1183C35.61 19.3613 35.413 19.5583 35.17 19.5583L35.05 19.5583C34.807 19.5583 34.61 19.3613 34.61 19.1183L34.61 18.9983C34.61 18.7553 34.807 18.5583 35.05 18.5583Z" fill="#ffffff" fill-rule="nonzero" opacity="1" stroke="none"/>
<path d="M21.06 11.5583C21.2312 11.5583 21.37 11.4195 21.37 11.2483C21.37 11.0771 21.2312 10.9383 21.06 10.9383C20.8888 10.9383 20.75 11.0771 20.75 11.2483C20.75 11.4195 20.8888 11.5583 21.06 11.5583" fill="#ffcc00" fill-rule="nonzero" opacity="1" stroke="none"/>
<path d="M18.8 10.9383C18.6892 10.9383 18.5869 10.9974 18.5315 11.0933C18.4762 11.1892 18.4762 11.3074 18.5315 11.4033C18.5869 11.4992 18.6892 11.5583 18.8 11.5583C18.9712 11.5583 19.11 11.4195 19.11 11.2483C19.11 11.0771 18.9712 10.9383 18.8 10.9383" fill="#ffcc00" fill-rule="nonzero" opacity="1" stroke="none"/>
<path d="M18.8 10.3283C18.4503 10.2917 18.1102 10.4576 17.9239 10.7559C17.7376 11.0541 17.7376 11.4325 17.9239 11.7307C18.1102 12.029 18.4503 12.1949 18.8 12.1583L21.08 12.1583C21.4297 12.1949 21.7698 12.029 21.9561 11.7307C22.1424 11.4325 22.1424 11.0541 21.9561 10.7559C21.7698 10.4576 21.4297 10.2917 21.08 10.3283L18.8 10.3283M21.08 12.7683L18.8 12.7683C18.2056 12.8657 17.6098 12.6029 17.2809 12.0984C16.952 11.5939 16.952 10.9427 17.2809 10.4382C17.6098 9.93365 18.2056 9.67092 18.8 9.7683L21.08 9.7683C21.6744 9.67092 22.2702 9.93365 22.5991 10.4382C22.928 10.9427 22.928 11.5939 22.5991 12.0984C22.2702 12.6029 21.6744 12.8657 21.08 12.7683" fill="#ffcc00" fill-rule="nonzero" opacity="1" stroke="none"/>
<path d="M6.16 16.7783L9.72 16.7783C9.96301 16.7783 10.16 16.9753 10.16 17.2183L10.16 20.7783C10.16 21.0213 9.96301 21.2183 9.72 21.2183L6.16 21.2183C5.91699 21.2183 5.72 21.0213 5.72 20.7783L5.72 17.2183C5.72 16.9753 5.91699 16.7783 6.16 16.7783Z" fill="#231f20" fill-rule="nonzero" opacity="0.25" stroke="#231f20" stroke-linecap="round" stroke-linejoin="round" stroke-width="0.89"/>
<path d="M6.16 16.7783L9.72 16.7783C9.96301 16.7783 10.16 16.9753 10.16 17.2183L10.16 20.7783C10.16 21.0213 9.96301 21.2183 9.72 21.2183L6.16 21.2183C5.91699 21.2183 5.72 21.0213 5.72 20.7783L5.72 17.2183C5.72 16.9753 5.91699 16.7783 6.16 16.7783Z" fill="#e6e7e8" fill-rule="nonzero" opacity="1" stroke="#7c87a5" stroke-linecap="round" stroke-linejoin="round" stroke-width="0.22"/>
<path d="M6.94 18.9983C6.94 18.446 7.38772 17.9983 7.94 17.9983C8.49228 17.9983 8.94 18.446 8.94 18.9983C8.94 19.5506 8.49228 19.9983 7.94 19.9983C7.38772 19.9983 6.94 19.5506 6.94 18.9983Z" fill="#231f20" fill-rule="nonzero" opacity="0.1" stroke="#231f20" stroke-linecap="butt" stroke-linejoin="miter" stroke-width="0.67"/>
<path d="M6.94 18.9983C6.94 18.446 7.38772 17.9983 7.94 17.9983C8.49228 17.9983 8.94 18.446 8.94 18.9983C8.94 19.5506 8.49228 19.9983 7.94 19.9983C7.38772 19.9983 6.94 19.5506 6.94 18.9983Z" fill="#414757" fill-rule="nonzero" opacity="1" stroke="#414757" stroke-linecap="butt" stroke-linejoin="miter" stroke-width="0.22"/>
<path d="M30.16 16.7783L33.72 16.7783C33.963 16.7783 34.16 16.9753 34.16 17.2183L34.16 20.7783C34.16 21.0213 33.963 21.2183 33.72 21.2183L30.16 21.2183C29.917 21.2183 29.72 21.0213 29.72 20.7783L29.72 17.2183C29.72 16.9753 29.917 16.7783 30.16 16.7783Z" fill="#231f20" fill-rule="nonzero" opacity="0.25" stroke="#231f20" stroke-linecap="round" stroke-linejoin="round" stroke-width="0.89"/>
<path d="M30.16 16.7783L33.72 16.7783C33.963 16.7783 34.16 16.9753 34.16 17.2183L34.16 20.7783C34.16 21.0213 33.963 21.2183 33.72 21.2183L30.16 21.2183C29.917 21.2183 29.72 21.0213 29.72 20.7783L29.72 17.2183C29.72 16.9753 29.917 16.7783 30.16 16.7783Z" fill="#e6e7e8" fill-rule="nonzero" opacity="1" stroke="#7c87a5" stroke-linecap="round" stroke-linejoin="round" stroke-width="0.22"/>
<path d="M30.94 18.9983C30.94 18.446 31.3877 17.9983 31.94 17.9983C32.4923 17.9983 32.94 18.446 32.94 18.9983C32.94 19.5506 32.4923 19.9983 31.94 19.9983C31.3877 19.9983 30.94 19.5506 30.94 18.9983Z" fill="#231f20" fill-rule="nonzero" opacity="0.1" stroke="#231f20" stroke-linecap="butt" stroke-linejoin="miter" stroke-width="0.67"/>
<path d="M30.94 18.9983C30.94 18.446 31.3877 17.9983 31.94 17.9983C32.4923 17.9983 32.94 18.446 32.94 18.9983C32.94 19.5506 32.4923 19.9983 31.94 19.9983C31.3877 19.9983 30.94 19.5506 30.94 18.9983Z" fill="#414757" fill-rule="nonzero" opacity="1" stroke="#414757" stroke-linecap="butt" stroke-linejoin="miter" stroke-width="0.22"/>
<path d="M14.65 14.7783L15.57 14.7783C15.5921 14.7783 15.61 14.7962 15.61 14.8183L15.61 15.7383C15.61 15.7604 15.5921 15.7783 15.57 15.7783L14.65 15.7783C14.6279 15.7783 14.61 15.7604 14.61 15.7383L14.61 14.8183C14.61 14.7962 14.6279 14.7783 14.65 14.7783Z" fill="#e6e7e8" fill-rule="nonzero" opacity="0.5" stroke="none"/>
<path d="M14.65 15.4383L15.57 15.4383C15.5921 15.4383 15.61 15.4562 15.61 15.4783L15.61 16.3983C15.61 16.4204 15.5921 16.4383 15.57 16.4383L14.65 16.4383C14.6279 16.4383 14.61 16.4204 14.61 16.3983L14.61 15.4783C14.61 15.4562 14.6279 15.4383 14.65 15.4383Z" fill="#231f20" fill-rule="nonzero" opacity="0.25" stroke="none"/>
<path d="M14.65 14.9983L15.57 14.9983C15.5921 14.9983 15.61 15.0162 15.61 15.0383L15.61 15.9583C15.61 15.9804 15.5921 15.9983 15.57 15.9983L14.65 15.9983C14.6279 15.9983 14.61 15.9804 14.61 15.9583L14.61 15.0383C14.61 15.0162 14.6279 14.9983 14.65 14.9983Z" fill="#e6e7e8" fill-rule="nonzero" opacity="1" stroke="none"/>
<path d="M17.21 14.7783L18.13 14.7783C18.1521 14.7783 18.17 14.7962 18.17 14.8183L18.17 15.7383C18.17 15.7604 18.1521 15.7783 18.13 15.7783L17.21 15.7783C17.1879 15.7783 17.17 15.7604 17.17 15.7383L17.17 14.8183C17.17 14.7962 17.1879 14.7783 17.21 14.7783Z" fill="#e6e7e8" fill-rule="nonzero" opacity="0.5" stroke="none"/>
<path d="M17.21 15.4383L18.13 15.4383C18.1521 15.4383 18.17 15.4562 18.17 15.4783L18.17 16.3983C18.17 16.4204 18.1521 16.4383 18.13 16.4383L17.21 16.4383C17.1879 16.4383 17.17 16.4204 17.17 16.3983L17.17 15.4783C17.17 15.4562 17.1879 15.4383 17.21 15.4383Z" fill="#231f20" fill-rule="nonzero" opacity="0.25" stroke="none"/>
<path d="M17.21 14.9983L18.13 14.9983C18.1521 14.9983 18.17 15.0162 18.17 15.0383L18.17 15.9583C18.17 15.9804 18.1521 15.9983 18.13 15.9983L17.21 15.9983C17.1879 15.9983 17.17 15.9804 17.17 15.9583L17.17 15.0383C17.17 15.0162 17.1879 14.9983 17.21 14.9983Z" fill="#e6e7e8" fill-rule="nonzero" opacity="1" stroke="none"/>
<path d="M19.76 14.7783L20.68 14.7783C20.7021 14.7783 20.72 14.7962 20.72 14.8183L20.72 15.7383C20.72 15.7604 20.7021 15.7783 20.68 15.7783L19.76 15.7783C19.7379 15.7783 19.72 15.7604 19.72 15.7383L19.72 14.8183C19.72 14.7962 19.7379 14.7783 19.76 14.7783Z" fill="#e6e7e8" fill-rule="nonzero" opacity="0.5" stroke="none"/>
<path d="M19.76 15.4383L20.68 15.4383C20.7021 15.4383 20.72 15.4562 20.72 15.4783L20.72 16.3983C20.72 16.4204 20.7021 16.4383 20.68 16.4383L19.76 16.4383C19.7379 16.4383 19.72 16.4204 19.72 16.3983L19.72 15.4783C19.72 15.4562 19.7379 15.4383 19.76 15.4383Z" fill="#231f20" fill-rule="nonzero" opacity="0.25" stroke="none"/>
<path d="M19.76 14.9983L20.68 14.9983C20.7021 14.9983 20.72 15.0162 20.72 15.0383L20.72 15.9583C20.72 15.9804 20.7021 15.9983 20.68 15.9983L19.76 15.9983C19.7379 15.9983 19.72 15.9804 19.72 15.9583L19.72 15.0383C19.72 15.0162 19.7379 14.9983 19.76 14.9983Z" fill="#e6e7e8" fill-rule="nonzero" opacity="1" stroke="none"/>
<path d="M22.32 14.7783L23.24 14.7783C23.2621 14.7783 23.28 14.7962 23.28 14.8183L23.28 15.7383C23.28 15.7604 23.2621 15.7783 23.24 15.7783L22.32 15.7783C22.2979 15.7783 22.28 15.7604 22.28 15.7383L22.28 14.8183C22.28 14.7962 22.2979 14.7783 22.32 14.7783Z" fill="#e6e7e8" fill-rule="nonzero" opacity="0.5" stroke="none"/>
<path d="M22.32 15.4383L23.24 15.4383C23.2621 15.4383 23.28 15.4562 23.28 15.4783L23.28 16.3983C23.28 16.4204 23.2621 16.4383 23.24 16.4383L22.32 16.4383C22.2979 16.4383 22.28 16.4204 22.28 16.3983L22.28 15.4783C22.28 15.4562 22.2979 15.4383 22.32 15.4383Z" fill="#231f20" fill-rule="nonzero" opacity="0.25" stroke="none"/>
<path d="M22.32 14.9983L23.24 14.9983C23.2621 14.9983 23.28 15.0162 23.28 15.0383L23.28 15.9583C23.28 15.9804 23.2621 15.9983 23.24 15.9983L22.32 15.9983C22.2979 15.9983 22.28 15.9804 22.28 15.9583L22.28 15.0383C22.28 15.0162 22.2979 14.9983 22.32 14.9983Z" fill="#e6e7e8" fill-rule="nonzero" opacity="1" stroke="none"/>
<path d="M24.87 14.7783L25.79 14.7783C25.8121 14.7783 25.83 14.7962 25.83 14.8183L25.83 15.7383C25.83 15.7604 25.8121 15.7783 25.79 15.7783L24.87 15.7783C24.8479 15.7783 24.83 15.7604 24.83 15.7383L24.83 14.8183C24.83 14.7962 24.8479 14.7783 24.87 14.7783Z" fill="#e6e7e8" fill-rule="nonzero" opacity="0.5" stroke="none"/>
<path d="M24.87 15.4383L25.79 15.4383C25.8121 15.4383 25.83 15.4562 25.83 15.4783L25.83 16.3983C25.83 16.4204 25.8121 16.4383 25.79 16.4383L24.87 16.4383C24.8479 16.4383 24.83 16.4204 24.83 16.3983L24.83 15.4783C24.83 15.4562 24.8479 15.4383 24.87 15.4383Z" fill="#231f20" fill-rule="nonzero" opacity="0.25" stroke="none"/>
<path d="M24.87 14.9983L25.79 14.9983C25.8121 14.9983 25.83 15.0162 25.83 15.0383L25.83 15.9583C25.83 15.9804 25.8121 15.9983 25.79 15.9983L24.87 15.9983C24.8479 15.9983 24.83 15.9804 24.83 15.9583L24.83 15.0383C24.83 15.0162 24.8479 14.9983 24.87 14.9983Z" fill="#e6e7e8" fill-rule="nonzero" opacity="1" stroke="none"/>
<path d="M14.65 17.2783L15.57 17.2783C15.5921 17.2783 15.61 17.2962 15.61 17.3183L15.61 18.2383C15.61 18.2604 15.5921 18.2783 15.57 18.2783L14.65 18.2783C14.6279 18.2783 14.61 18.2604 14.61 18.2383L14.61 17.3183C14.61 17.2962 14.6279 17.2783 14.65 17.2783Z" fill="#e6e7e8" fill-rule="nonzero" opacity="0.5" stroke="none"/>
<path d="M14.65 17.9383L15.57 17.9383C15.5921 17.9383 15.61 17.9562 15.61 17.9783L15.61 18.8983C15.61 18.9204 15.5921 18.9383 15.57 18.9383L14.65 18.9383C14.6279 18.9383 14.61 18.9204 14.61 18.8983L14.61 17.9783C14.61 17.9562 14.6279 17.9383 14.65 17.9383Z" fill="#231f20" fill-rule="nonzero" opacity="0.25" stroke="none"/>
<path d="M14.65 17.4983L15.57 17.4983C15.5921 17.4983 15.61 17.5162 15.61 17.5383L15.61 18.4583C15.61 18.4804 15.5921 18.4983 15.57 18.4983L14.65 18.4983C14.6279 18.4983 14.61 18.4804 14.61 18.4583L14.61 17.5383C14.61 17.5162 14.6279 17.4983 14.65 17.4983Z" fill="#e6e7e8" fill-rule="nonzero" opacity="1" stroke="none"/>
<path d="M17.21 17.2783L18.13 17.2783C18.1521 17.2783 18.17 17.2962 18.17 17.3183L18.17 18.2383C18.17 18.2604 18.1521 18.2783 18.13 18.2783L17.21 18.2783C17.1879 18.2783 17.17 18.2604 17.17 18.2383L17.17 17.3183C17.17 17.2962 17.1879 17.2783 17.21 17.2783Z" fill="#e6e7e8" fill-rule="nonzero" opacity="0.5" stroke="none"/>
<path d="M17.21 17.9383L18.13 17.9383C18.1521 17.9383 18.17 17.9562 18.17 17.9783L18.17 18.8983C18.17 18.9204 18.1521 18.9383 18.13 18.9383L17.21 18.9383C17.1879 18.9383 17.17 18.9204 17.17 18.8983L17.17 17.9783C17.17 17.9562 17.1879 17.9383 17.21 17.9383Z" fill="#231f20" fill-rule="nonzero" opacity="0.25" stroke="none"/>
<path d="M17.21 17.4983L18.13 17.4983C18.1521 17.4983 18.17 17.5162 18.17 17.5383L18.17 18.4583C18.17 18.4804 18.1521 18.4983 18.13 18.4983L17.21 18.4983C17.1879 18.4983 17.17 18.4804 17.17 18.4583L17.17 17.5383C17.17 17.5162 17.1879 17.4983 17.21 17.4983Z" fill="#e6e7e8" fill-rule="nonzero" opacity="1" stroke="none"/>
<path d="M19.76 17.2783L20.68 17.2783C20.7021 17.2783 20.72 17.2962 20.72 17.3183L20.72 18.2383C20.72 18.2604 20.7021 18.2783 20.68 18.2783L19.76 18.2783C19.7379 18.2783 19.72 18.2604 19.72 18.2383L19.72 17.3183C19.72 17.2962 19.7379 17.2783 19.76 17.2783Z" fill="#e6e7e8" fill-rule="nonzero" opacity="0.5" stroke="none"/>
<path d="M19.76 17.9383L20.68 17.9383C20.7021 17.9383 20.72 17.9562 20.72 17.9783L20.72 18.8983C20.72 18.9204 20.7021 18.9383 20.68 18.9383L19.76 18.9383C19.7379 18.9383 19.72 18.9204 19.72 18.8983L19.72 17.9783C19.72 17.9562 19.7379 17.9383 19.76 17.9383Z" fill="#231f20" fill-rule="nonzero" opacity="0.25" stroke="none"/>
<path d="M19.76 17.4983L20.68 17.4983C20.7021 17.4983 20.72 17.5162 20.72 17.5383L20.72 18.4583C20.72 18.4804 20.7021 18.4983 20.68 18.4983L19.76 18.4983C19.7379 18.4983 19.72 18.4804 19.72 18.4583L19.72 17.5383C19.72 17.5162 19.7379 17.4983 19.76 17.4983Z" fill="#e6e7e8" fill-rule="nonzero" opacity="1" stroke="none"/>
<path d="M22.32 17.2783L23.24 17.2783C23.2621 17.2783 23.28 17.2962 23.28 17.3183L23.28 18.2383C23.28 18.2604 23.2621 18.2783 23.24 18.2783L22.32 18.2783C22.2979 18.2783 22.28 18.2604 22.28 18.2383L22.28 17.3183C22.28 17.2962 22.2979 17.2783 22.32 17.2783Z" fill="#e6e7e8" fill-rule="nonzero" opacity="0.5" stroke="none"/>
<path d="M22.32 17.9383L23.24 17.9383C23.2621 17.9383 23.28 17.9562 23.28 17.9783L23.28 18.8983C23.28 18.9204 23.2621 18.9383 23.24 18.9383L22.32 18.9383C22.2979 18.9383 22.28 18.9204 22.28 18.8983L22.28 17.9783C22.28 17.9562 22.2979 17.9383 22.32 17.9383Z" fill="#231f20" fill-rule="nonzero" opacity="0.25" stroke="none"/>
<path d="M22.32 17.4983L23.24 17.4983C23.2621 17.4983 23.28 17.5162 23.28 17.5383L23.28 18.4583C23.28 18.4804 23.2621 18.4983 23.24 18.4983L22.32 18.4983C22.2979 18.4983 22.28 18.4804 22.28 18.4583L22.28 17.5383C22.28 17.5162 22.2979 17.4983 22.32 17.4983Z" fill="#e6e7e8" fill-rule="nonzero" opacity="1" stroke="none"/>
<path d="M24.87 17.2783L25.79 17.2783C25.8121 17.2783 25.83 17.2962 25.83 17.3183L25.83 18.2383C25.83 18.2604 25.8121 18.2783 25.79 18.2783L24.87 18.2783C24.8479 18.2783 24.83 18.2604 24.83 18.2383L24.83 17.3183C24.83 17.2962 24.8479 17.2783 24.87 17.2783Z" fill="#e6e7e8" fill-rule="nonzero" opacity="0.5" stroke="none"/>
<path d="M24.87 17.9383L25.79 17.9383C25.8121 17.9383 25.83 17.9562 25.83 17.9783L25.83 18.8983C25.83 18.9204 25.8121 18.9383 25.79 18.9383L24.87 18.9383C24.8479 18.9383 24.83 18.9204 24.83 18.8983L24.83 17.9783C24.83 17.9562 24.8479 17.9383 24.87 17.9383Z" fill="#231f20" fill-rule="nonzero" opacity="0.25" stroke="none"/>
<path d="M24.87 17.4983L25.79 17.4983C25.8121 17.4983 25.83 17.5162 25.83 17.5383L25.83 18.4583C25.83 18.4804 25.8121 18.4983 25.79 18.4983L24.87 18.4983C24.8479 18.4983 24.83 18.4804 24.83 18.4583L24.83 17.5383C24.83 17.5162 24.8479 17.4983 24.87 17.4983Z" fill="#e6e7e8" fill-rule="nonzero" opacity="1" stroke="none"/>
<path d="M14.65 19.7783L15.57 19.7783C15.5921 19.7783 15.61 19.7962 15.61 19.8183L15.61 20.7383C15.61 20.7604 15.5921 20.7783 15.57 20.7783L14.65 20.7783C14.6279 20.7783 14.61 20.7604 14.61 20.7383L14.61 19.8183C14.61 19.7962 14.6279 19.7783 14.65 19.7783Z" fill="#e6e7e8" fill-rule="nonzero" opacity="0.5" stroke="none"/>
<path d="M14.65 20.4383L15.57 20.4383C15.5921 20.4383 15.61 20.4562 15.61 20.4783L15.61 21.3983C15.61 21.4204 15.5921 21.4383 15.57 21.4383L14.65 21.4383C14.6279 21.4383 14.61 21.4204 14.61 21.3983L14.61 20.4783C14.61 20.4562 14.6279 20.4383 14.65 20.4383Z" fill="#231f20" fill-rule="nonzero" opacity="0.25" stroke="none"/>
<path d="M14.65 19.9983L15.57 19.9983C15.5921 19.9983 15.61 20.0162 15.61 20.0383L15.61 20.9583C15.61 20.9804 15.5921 20.9983 15.57 20.9983L14.65 20.9983C14.6279 20.9983 14.61 20.9804 14.61 20.9583L14.61 20.0383C14.61 20.0162 14.6279 19.9983 14.65 19.9983Z" fill="#e6e7e8" fill-rule="nonzero" opacity="1" stroke="none"/>
<path d="M17.21 19.7783L18.13 19.7783C18.1521 19.7783 18.17 19.7962 18.17 19.8183L18.17 20.7383C18.17 20.7604 18.1521 20.7783 18.13 20.7783L17.21 20.7783C17.1879 20.7783 17.17 20.7604 17.17 20.7383L17.17 19.8183C17.17 19.7962 17.1879 19.7783 17.21 19.7783Z" fill="#e6e7e8" fill-rule="nonzero" opacity="0.5" stroke="none"/>
<path d="M17.21 20.4383L18.13 20.4383C18.1521 20.4383 18.17 20.4562 18.17 20.4783L18.17 21.3983C18.17 21.4204 18.1521 21.4383 18.13 21.4383L17.21 21.4383C17.1879 21.4383 17.17 21.4204 17.17 21.3983L17.17 20.4783C17.17 20.4562 17.1879 20.4383 17.21 20.4383Z" fill="#231f20" fill-rule="nonzero" opacity="0.25" stroke="none"/>
<path d="M17.21 19.9983L18.13 19.9983C18.1521 19.9983 18.17 20.0162 18.17 20.0383L18.17 20.9583C18.17 20.9804 18.1521 20.9983 18.13 20.9983L17.21 20.9983C17.1879 20.9983 17.17 20.9804 17.17 20.9583L17.17 20.0383C17.17 20.0162 17.1879 19.9983 17.21 19.9983Z" fill="#e6e7e8" fill-rule="nonzero" opacity="1" stroke="none"/>
<path d="M19.76 19.7783L20.68 19.7783C20.7021 19.7783 20.72 19.7962 20.72 19.8183L20.72 20.7383C20.72 20.7604 20.7021 20.7783 20.68 20.7783L19.76 20.7783C19.7379 20.7783 19.72 20.7604 19.72 20.7383L19.72 19.8183C19.72 19.7962 19.7379 19.7783 19.76 19.7783Z" fill="#e6e7e8" fill-rule="nonzero" opacity="0.5" stroke="none"/>
<path d="M19.76 20.4383L20.68 20.4383C20.7021 20.4383 20.72 20.4562 20.72 20.4783L20.72 21.3983C20.72 21.4204 20.7021 21.4383 20.68 21.4383L19.76 21.4383C19.7379 21.4383 19.72 21.4204 19.72 21.3983L19.72 20.4783C19.72 20.4562 19.7379 20.4383 19.76 20.4383Z" fill="#231f20" fill-rule="nonzero" opacity="0.25" stroke="none"/>
<path d="M19.76 19.9983L20.68 19.9983C20.7021 19.9983 20.72 20.0162 20.72 20.0383L20.72 20.9583C20.72 20.9804 20.7021 20.9983 20.68 20.9983L19.76 20.9983C19.7379 20.9983 19.72 20.9804 19.72 20.9583L19.72 20.0383C19.72 20.0162 19.7379 19.9983 19.76 19.9983Z" fill="#e6e7e8" fill-rule="nonzero" opacity="1" stroke="none"/>
<path d="M22.32 19.7783L23.24 19.7783C23.2621 19.7783 23.28 19.7962 23.28 19.8183L23.28 20.7383C23.28 20.7604 23.2621 20.7783 23.24 20.7783L22.32 20.7783C22.2979 20.7783 22.28 20.7604 22.28 20.7383L22.28 19.8183C22.28 19.7962 22.2979 19.7783 22.32 19.7783Z" fill="#e6e7e8" fill-rule="nonzero" opacity="0.5" stroke="none"/>
<path d="M22.32 20.4383L23.24 20.4383C23.2621 20.4383 23.28 20.4562 23.28 20.4783L23.28 21.3983C23.28 21.4204 23.2621 21.4383 23.24 21.4383L22.32 21.4383C22.2979 21.4383 22.28 21.4204 22.28 21.3983L22.28 20.4783C22.28 20.4562 22.2979 20.4383 22.32 20.4383Z" fill="#231f20" fill-rule="nonzero" opacity="0.25" stroke="none"/>
<path d="M22.32 19.9983L23.24 19.9983C23.2621 19.9983 23.28 20.0162 23.28 20.0383L23.28 20.9583C23.28 20.9804 23.2621 20.9983 23.24 20.9983L22.32 20.9983C22.2979 20.9983 22.28 20.9804 22.28 20.9583L22.28 20.0383C22.28 20.0162 22.2979 19.9983 22.32 19.9983Z" fill="#e6e7e8" fill-rule="nonzero" opacity="1" stroke="none"/>
<path d="M24.87 19.7783L25.79 19.7783C25.8121 19.7783 25.83 19.7962 25.83 19.8183L25.83 20.7383C25.83 20.7604 25.8121 20.7783 25.79 20.7783L24.87 20.7783C24.8479 20.7783 24.83 20.7604 24.83 20.7383L24.83 19.8183C24.83 19.7962 24.8479 19.7783 24.87 19.7783Z" fill="#e6e7e8" fill-rule="nonzero" opacity="0.5" stroke="none"/>
<path d="M24.87 20.4383L25.79 20.4383C25.8121 20.4383 25.83 20.4562 25.83 20.4783L25.83 21.3983C25.83 21.4204 25.8121 21.4383 25.79 21.4383L24.87 21.4383C24.8479 21.4383 24.83 21.4204 24.83 21.3983L24.83 20.4783C24.83 20.4562 24.8479 20.4383 24.87 20.4383Z" fill="#231f20" fill-rule="nonzero" opacity="0.25" stroke="none"/>
<path d="M24.87 19.9983L25.79 19.9983C25.8121 19.9983 25.83 20.0162 25.83 20.0383L25.83 20.9583C25.83 20.9804 25.8121 20.9983 25.79 20.9983L24.87 20.9983C24.8479 20.9983 24.83 20.9804 24.83 20.9583L24.83 20.0383C24.83 20.0162 24.8479 19.9983 24.87 19.9983Z" fill="#e6e7e8" fill-rule="nonzero" opacity="1" stroke="none"/>
<path d="M14.65 22.2783L15.57 22.2783C15.5921 22.2783 15.61 22.2962 15.61 22.3183L15.61 23.2383C15.61 23.2604 15.5921 23.2783 15.57 23.2783L14.65 23.2783C14.6279 23.2783 14.61 23.2604 14.61 23.2383L14.61 22.3183C14.61 22.2962 14.6279 22.2783 14.65 22.2783Z" fill="#e6e7e8" fill-rule="nonzero" opacity="0.5" stroke="none"/>
<path d="M14.65 22.9383L15.57 22.9383C15.5921 22.9383 15.61 22.9562 15.61 22.9783L15.61 23.8983C15.61 23.9204 15.5921 23.9383 15.57 23.9383L14.65 23.9383C14.6279 23.9383 14.61 23.9204 14.61 23.8983L14.61 22.9783C14.61 22.9562 14.6279 22.9383 14.65 22.9383Z" fill="#231f20" fill-rule="nonzero" opacity="0.25" stroke="none"/>
<path d="M14.65 22.4983L15.57 22.4983C15.5921 22.4983 15.61 22.5162 15.61 22.5383L15.61 23.4583C15.61 23.4804 15.5921 23.4983 15.57 23.4983L14.65 23.4983C14.6279 23.4983 14.61 23.4804 14.61 23.4583L14.61 22.5383C14.61 22.5162 14.6279 22.4983 14.65 22.4983Z" fill="#e6e7e8" fill-rule="nonzero" opacity="1" stroke="none"/>
<path d="M17.21 22.2783L18.13 22.2783C18.1521 22.2783 18.17 22.2962 18.17 22.3183L18.17 23.2383C18.17 23.2604 18.1521 23.2783 18.13 23.2783L17.21 23.2783C17.1879 23.2783 17.17 23.2604 17.17 23.2383L17.17 22.3183C17.17 22.2962 17.1879 22.2783 17.21 22.2783Z" fill="#e6e7e8" fill-rule="nonzero" opacity="0.5" stroke="none"/>
<path d="M17.21 22.9383L18.13 22.9383C18.1521 22.9383 18.17 22.9562 18.17 22.9783L18.17 23.8983C18.17 23.9204 18.1521 23.9383 18.13 23.9383L17.21 23.9383C17.1879 23.9383 17.17 23.9204 17.17 23.8983L17.17 22.9783C17.17 22.9562 17.1879 22.9383 17.21 22.9383Z" fill="#231f20" fill-rule="nonzero" opacity="0.25" stroke="none"/>
<path d="M17.21 22.4983L18.13 22.4983C18.1521 22.4983 18.17 22.5162 18.17 22.5383L18.17 23.4583C18.17 23.4804 18.1521 23.4983 18.13 23.4983L17.21 23.4983C17.1879 23.4983 17.17 23.4804 17.17 23.4583L17.17 22.5383C17.17 22.5162 17.1879 22.4983 17.21 22.4983Z" fill="#e6e7e8" fill-rule="nonzero" opacity="1" stroke="none"/>
<path d="M19.76 22.2783L20.68 22.2783C20.7021 22.2783 20.72 22.2962 20.72 22.3183L20.72 23.2383C20.72 23.2604 20.7021 23.2783 20.68 23.2783L19.76 23.2783C19.7379 23.2783 19.72 23.2604 19.72 23.2383L19.72 22.3183C19.72 22.2962 19.7379 22.2783 19.76 22.2783Z" fill="#e6e7e8" fill-rule="nonzero" opacity="0.5" stroke="none"/>
<path d="M19.76 22.9383L20.68 22.9383C20.7021 22.9383 20.72 22.9562 20.72 22.9783L20.72 23.8983C20.72 23.9204 20.7021 23.9383 20.68 23.9383L19.76 23.9383C19.7379 23.9383 19.72 23.9204 19.72 23.8983L19.72 22.9783C19.72 22.9562 19.7379 22.9383 19.76 22.9383Z" fill="#231f20" fill-rule="nonzero" opacity="0.25" stroke="none"/>
<path d="M19.76 22.4983L20.68 22.4983C20.7021 22.4983 20.72 22.5162 20.72 22.5383L20.72 23.4583C20.72 23.4804 20.7021 23.4983 20.68 23.4983L19.76 23.4983C19.7379 23.4983 19.72 23.4804 19.72 23.4583L19.72 22.5383C19.72 22.5162 19.7379 22.4983 19.76 22.4983Z" fill="#e6e7e8" fill-rule="nonzero" opacity="1" stroke="none"/>
<path d="M22.32 22.2783L23.24 22.2783C23.2621 22.2783 23.28 22.2962 23.28 22.3183L23.28 23.2383C23.28 23.2604 23.2621 23.2783 23.24 23.2783L22.32 23.2783C22.2979 23.2783 22.28 23.2604 22.28 23.2383L22.28 22.3183C22.28 22.2962 22.2979 22.2783 22.32 22.2783Z" fill="#e6e7e8" fill-rule="nonzero" opacity="0.5" stroke="none"/>
<path d="M22.32 22.9383L23.24 22.9383C23.2621 22.9383 23.28 22.9562 23.28 22.9783L23.28 23.8983C23.28 23.9204 23.2621 23.9383 23.24 23.9383L22.32 23.9383C22.2979 23.9383 22.28 23.9204 22.28 23.8983L22.28 22.9783C22.28 22.9562 22.2979 22.9383 22.32 22.9383Z" fill="#231f20" fill-rule="nonzero" opacity="0.25" stroke="none"/>
<path d="M22.32 22.4983L23.24 22.4983C23.2621 22.4983 23.28 22.5162 23.28 22.5383L23.28 23.4583C23.28 23.4804 23.2621 23.4983 23.24 23.4983L22.32 23.4983C22.2979 23.4983 22.28 23.4804 22.28 23.4583L22.28 22.5383C22.28 22.5162 22.2979 22.4983 22.32 22.4983Z" fill="#e6e7e8" fill-rule="nonzero" opacity="1" stroke="none"/>
<path d="M24.87 22.2783L25.79 22.2783C25.8121 22.2783 25.83 22.2962 25.83 22.3183L25.83 23.2383C25.83 23.2604 25.8121 23.2783 25.79 23.2783L24.87 23.2783C24.8479 23.2783 24.83 23.2604 24.83 23.2383L24.83 22.3183C24.83 22.2962 24.8479 22.2783 24.87 22.2783Z" fill="#e6e7e8" fill-rule="nonzero" opacity="0.5" stroke="none"/>
<path d="M24.87 22.9383L25.79 22.9383C25.8121 22.9383 25.83 22.9562 25.83 22.9783L25.83 23.8983C25.83 23.9204 25.8121 23.9383 25.79 23.9383L24.87 23.9383C24.8479 23.9383 24.83 23.9204 24.83 23.8983L24.83 22.9783C24.83 22.9562 24.8479 22.9383 24.87 22.9383Z" fill="#231f20" fill-rule="nonzero" opacity="0.25" stroke="none"/>
<path d="M24.87 22.4983L25.79 22.4983C25.8121 22.4983 25.83 22.5162 25.83 22.5383L25.83 23.4583C25.83 23.4804 25.8121 23.4983 25.79 23.4983L24.87 23.4983C24.8479 23.4983 24.83 23.4804 24.83 23.4583L24.83 22.5383C24.83 22.5162 24.8479 22.4983 24.87 22.4983Z" fill="#e6e7e8" fill-rule="nonzero" opacity="1" stroke="none"/>
<path d="M14.65 24.7783L15.57 24.7783C15.5921 24.7783 15.61 24.7962 15.61 24.8183L15.61 25.7383C15.61 25.7604 15.5921 25.7783 15.57 25.7783L14.65 25.7783C14.6279 25.7783 14.61 25.7604 14.61 25.7383L14.61 24.8183C14.61 24.7962 14.6279 24.7783 14.65 24.7783Z" fill="#e6e7e8" fill-rule="nonzero" opacity="0.5" stroke="none"/>
<path d="M14.65 25.4383L15.57 25.4383C15.5921 25.4383 15.61 25.4562 15.61 25.4783L15.61 26.3983C15.61 26.4204 15.5921 26.4383 15.57 26.4383L14.65 26.4383C14.6279 26.4383 14.61 26.4204 14.61 26.3983L14.61 25.4783C14.61 25.4562 14.6279 25.4383 14.65 25.4383Z" fill="#231f20" fill-rule="nonzero" opacity="0.25" stroke="none"/>
<path d="M14.65 24.9983L15.57 24.9983C15.5921 24.9983 15.61 25.0162 15.61 25.0383L15.61 25.9583C15.61 25.9804 15.5921 25.9983 15.57 25.9983L14.65 25.9983C14.6279 25.9983 14.61 25.9804 14.61 25.9583L14.61 25.0383C14.61 25.0162 14.6279 24.9983 14.65 24.9983Z" fill="#e6e7e8" fill-rule="nonzero" opacity="1" stroke="none"/>
<path d="M17.21 24.7783L18.13 24.7783C18.1521 24.7783 18.17 24.7962 18.17 24.8183L18.17 25.7383C18.17 25.7604 18.1521 25.7783 18.13 25.7783L17.21 25.7783C17.1879 25.7783 17.17 25.7604 17.17 25.7383L17.17 24.8183C17.17 24.7962 17.1879 24.7783 17.21 24.7783Z" fill="#e6e7e8" fill-rule="nonzero" opacity="0.5" stroke="none"/>
<path d="M17.21 25.4383L18.13 25.4383C18.1521 25.4383 18.17 25.4562 18.17 25.4783L18.17 26.3983C18.17 26.4204 18.1521 26.4383 18.13 26.4383L17.21 26.4383C17.1879 26.4383 17.17 26.4204 17.17 26.3983L17.17 25.4783C17.17 25.4562 17.1879 25.4383 17.21 25.4383Z" fill="#231f20" fill-rule="nonzero" opacity="0.25" stroke="none"/>
<path d="M17.21 24.9983L18.13 24.9983C18.1521 24.9983 18.17 25.0162 18.17 25.0383L18.17 25.9583C18.17 25.9804 18.1521 25.9983 18.13 25.9983L17.21 25.9983C17.1879 25.9983 17.17 25.9804 17.17 25.9583L17.17 25.0383C17.17 25.0162 17.1879 24.9983 17.21 24.9983Z" fill="#e6e7e8" fill-rule="nonzero" opacity="1" stroke="none"/>
<path d="M19.76 24.7783L20.68 24.7783C20.7021 24.7783 20.72 24.7962 20.72 24.8183L20.72 25.7383C20.72 25.7604 20.7021 25.7783 20.68 25.7783L19.76 25.7783C19.7379 25.7783 19.72 25.7604 19.72 25.7383L19.72 24.8183C19.72 24.7962 19.7379 24.7783 19.76 24.7783Z" fill="#e6e7e8" fill-rule="nonzero" opacity="0.5" stroke="none"/>
<path d="M19.76 25.4383L20.68 25.4383C20.7021 25.4383 20.72 25.4562 20.72 25.4783L20.72 26.3983C20.72 26.4204 20.7021 26.4383 20.68 26.4383L19.76 26.4383C19.7379 26.4383 19.72 26.4204 19.72 26.3983L19.72 25.4783C19.72 25.4562 19.7379 25.4383 19.76 25.4383Z" fill="#231f20" fill-rule="nonzero" opacity="0.25" stroke="none"/>
<path d="M19.76 24.9983L20.68 24.9983C20.7021 24.9983 20.72 25.0162 20.72 25.0383L20.72 25.9583C20.72 25.9804 20.7021 25.9983 20.68 25.9983L19.76 25.9983C19.7379 25.9983 19.72 25.9804 19.72 25.9583L19.72 25.0383C19.72 25.0162 19.7379 24.9983 19.76 24.9983Z" fill="#e6e7e8" fill-rule="nonzero" opacity="1" stroke="none"/>
<path d="M22.32 24.7783L23.24 24.7783C23.2621 24.7783 23.28 24.7962 23.28 24.8183L23.28 25.7383C23.28 25.7604 23.2621 25.7783 23.24 25.7783L22.32 25.7783C22.2979 25.7783 22.28 25.7604 22.28 25.7383L22.28 24.8183C22.28 24.7962 22.2979 24.7783 22.32 24.7783Z" fill="#e6e7e8" fill-rule="nonzero" opacity="0.5" stroke="none"/>
<path d="M22.32 25.4383L23.24 25.4383C23.2621 25.4383 23.28 25.4562 23.28 25.4783L23.28 26.3983C23.28 26.4204 23.2621 26.4383 23.24 26.4383L22.32 26.4383C22.2979 26.4383 22.28 26.4204 22.28 26.3983L22.28 25.4783C22.28 25.4562 22.2979 25.4383 22.32 25.4383Z" fill="#231f20" fill-rule="nonzero" opacity="0.25" stroke="none"/>
<path d="M22.32 24.9983L23.24 24.9983C23.2621 24.9983 23.28 25.0162 23.28 25.0383L23.28 25.9583C23.28 25.9804 23.2621 25.9983 23.24 25.9983L22.32 25.9983C22.2979 25.9983 22.28 25.9804 22.28 25.9583L22.28 25.0383C22.28 25.0162 22.2979 24.9983 22.32 24.9983Z" fill="#e6e7e8" fill-rule="nonzero" opacity="1" stroke="none"/>
<path d="M24.87 24.7783L25.79 24.7783C25.8121 24.7783 25.83 24.7962 25.83 24.8183L25.83 25.7383C25.83 25.7604 25.8121 25.7783 25.79 25.7783L24.87 25.7783C24.8479 25.7783 24.83 25.7604 24.83 25.7383L24.83 24.8183C24.83 24.7962 24.8479 24.7783 24.87 24.7783Z" fill="#e6e7e8" fill-rule="nonzero" opacity="0.5" stroke="none"/>
<path d="M24.87 25.4383L25.79 25.4383C25.8121 25.4383 25.83 25.4562 25.83 25.4783L25.83 26.3983C25.83 26.4204 25.8121 26.4383 25.79 26.4383L24.87 26.4383C24.8479 26.4383 24.83 26.4204 24.83 26.3983L24.83 25.4783C24.83 25.4562 24.8479 25.4383 24.87 25.4383Z" fill="#231f20" fill-rule="nonzero" opacity="0.25" stroke="none"/>
<path d="M24.87 24.9983L25.79 24.9983C25.8121 24.9983 25.83 25.0162 25.83 25.0383L25.83 25.9583C25.83 25.9804 25.8121 25.9983 25.79 25.9983L24.87 25.9983C24.8479 25.9983 24.83 25.9804 24.83 25.9583L24.83 25.0383C24.83 25.0162 24.8479 24.9983 24.87 24.9983Z" fill="#e6e7e8" fill-rule="nonzero" opacity="1" stroke="none"/>
<path d="M4.94 29.6683L4.94 32.5783C4.73871 32.4768 4.55878 32.3376 4.41 32.1683L4.41 29.6683L4.94 29.6683Z" fill="#ffbf00" fill-rule="nonzero" opacity="1" stroke="none"/>
<path d="M7.83829 29.6683L8.53 29.6683L8.53 29.6683L8.53 32.7683L8.53 32.7683L7.83829 32.7683L7.83829 32.7683L7.83829 29.6683L7.83829 29.6683Z" fill="#ffbf00" fill-rule="nonzero" opacity="1" stroke="none"/>
<path d="M8.31 29.6683L9.31 29.6683L9.31 29.6683L9.31 32.7683L9.31 32.7683L8.31 32.7683L8.31 32.7683L8.31 29.6683L8.31 29.6683Z" fill="#ffbf00" fill-rule="nonzero" opacity="1" stroke="none"/>
<path d="M9.09 29.6683L10.09 29.6683L10.09 29.6683L10.09 32.7683L10.09 32.7683L9.09 32.7683L9.09 32.7683L9.09 29.6683L9.09 29.6683Z" fill="#ffbf00" fill-rule="nonzero" opacity="1" stroke="none"/>
<path d="M9.88 29.6683L10.88 29.6683L10.88 29.6683L10.88 32.7683L10.88 32.7683L9.88 32.7683L9.88 32.7683L9.88 29.6683L9.88 29.6683Z" fill="#ffbf00" fill-rule="nonzero" opacity="1" stroke="none"/>
<path d="M10.66 29.6683L11.66 29.6683L11.66 29.6683L11.66 32.7683L11.66 32.7683L10.66 32.7683L10.66 32.7683L10.66 29.6683L10.66 29.6683Z" fill="#ffbf00" fill-rule="nonzero" opacity="1" stroke="none"/>
<path d="M14.185 29.6683L14.8 29.6683L14.8 29.6683L14.8 32.7683L14.8 32.7683L14.185 32.7683L14.185 32.7683L14.185 29.6683L14.185 29.6683Z" fill="#ffbf00" fill-rule="nonzero" opacity="1" stroke="none"/>
<path d="M14.58 29.6683L15.58 29.6683L15.58 29.6683L15.58 32.7683L15.58 32.7683L14.58 32.7683L14.58 32.7683L14.58 29.6683L14.58 29.6683Z" fill="#ffbf00" fill-rule="nonzero" opacity="1" stroke="none"/>
<path d="M15.37 29.6683L16.37 29.6683L16.37 29.6683L16.37 32.7683L16.37 32.7683L15.37 32.7683L15.37 32.7683L15.37 29.6683L15.37 29.6683Z" fill="#ffbf00" fill-rule="nonzero" opacity="1" stroke="none"/>
<path d="M16.15 29.6683L17.15 29.6683L17.15 29.6683L17.15 32.7683L17.15 32.7683L16.15 32.7683L16.15 32.7683L16.15 29.6683L16.15 29.6683Z" fill="#ffbf00" fill-rule="nonzero" opacity="1" stroke="none"/>
<path d="M16.94 29.6683L17.94 29.6683L17.94 29.6683L17.94 32.7683L17.94 32.7683L16.94 32.7683L16.94 32.7683L16.94 29.6683L16.94 29.6683Z" fill="#ffbf00" fill-rule="nonzero" opacity="1" stroke="none"/>
<path d="M17.72 29.6683L18.72 29.6683L18.72 29.6683L18.72 32.7683L18.72 32.7683L17.72 32.7683L17.72 32.7683L17.72 29.6683L17.72 29.6683Z" fill="#ffbf00" fill-rule="nonzero" opacity="1" stroke="none"/>
<path d="M21.0739 29.6683L21.86 29.6683L21.86 29.6683L21.86 32.7683L21.86 32.7683L21.0739 32.7683L21.0739 32.7683L21.0739 29.6683L21.0739 29.6683Z" fill="#ffbf00" fill-rule="nonzero" opacity="1" stroke="none"/>
<path d="M21.64 29.6683L22.64 29.6683L22.64 29.6683L22.64 32.7683L22.64 32.7683L21.64 32.7683L21.64 32.7683L21.64 29.6683L21.64 29.6683Z" fill="#ffbf00" fill-rule="nonzero" opacity="1" stroke="none"/>
<path d="M22.43 29.6683L23.43 29.6683L23.43 29.6683L23.43 32.7683L23.43 32.7683L22.43 32.7683L22.43 32.7683L22.43 29.6683L22.43 29.6683Z" fill="#ffbf00" fill-rule="nonzero" opacity="1" stroke="none"/>
<path d="M23.21 29.6683L24.21 29.6683L24.21 29.6683L24.21 32.7683L24.21 32.7683L23.21 32.7683L23.21 32.7683L23.21 29.6683L23.21 29.6683Z" fill="#ffbf00" fill-rule="nonzero" opacity="1" stroke="none"/>
<path d="M24 29.6683L25 29.6683L25 29.6683L25 32.7683L25 32.7683L24 32.7683L24 32.7683L24 29.6683L24 29.6683Z" fill="#ffbf00" fill-rule="nonzero" opacity="1" stroke="none"/>
<path d="M24.78 29.6683L25.78 29.6683L25.78 29.6683L25.78 32.7683L25.78 32.7683L24.78 32.7683L24.78 32.7683L24.78 29.6683L24.78 29.6683Z" fill="#ffbf00" fill-rule="nonzero" opacity="1" stroke="none"/>
<path d="M28.2276 29.6683L28.92 29.6683L28.92 29.6683L28.92 32.7683L28.92 32.7683L28.2276 32.7683L28.2276 32.7683L28.2276 29.6683L28.2276 29.6683Z" fill="#ffbf00" fill-rule="nonzero" opacity="1" stroke="none"/>
<path d="M28.7 29.6683L29.7 29.6683L29.7 29.6683L29.7 32.7683L29.7 32.7683L28.7 32.7683L28.7 32.7683L28.7 29.6683L28.7 29.6683Z" fill="#ffbf00" fill-rule="nonzero" opacity="1" stroke="none"/>
<path d="M29.49 29.6683L30.49 29.6683L30.49 29.6683L30.49 32.7683L30.49 32.7683L29.49 32.7683L29.49 32.7683L29.49 29.6683L29.49 29.6683Z" fill="#ffbf00" fill-rule="nonzero" opacity="1" stroke="none"/>
<path d="M30.27 29.6683L31.27 29.6683L31.27 29.6683L31.27 32.7683L31.27 32.7683L30.27 32.7683L30.27 32.7683L30.27 29.6683L30.27 29.6683Z" fill="#ffbf00" fill-rule="nonzero" opacity="1" stroke="none"/>
<path d="M31.06 29.6683L32.06 29.6683L32.06 29.6683L32.06 32.7683L32.06 32.7683L31.06 32.7683L31.06 32.7683L31.06 29.6683L31.06 29.6683Z" fill="#ffbf00" fill-rule="nonzero" opacity="1" stroke="none"/>
<path d="M35.5 29.6683L35.5 32.1683C35.3512 32.3376 35.1713 32.4768 34.97 32.5783L34.97 29.6683L35.5 29.6683Z" fill="#ffbf00" fill-rule="nonzero" opacity="1" stroke="none"/>
<path d="M6.59375 27.1233C5.84494 27.1233 5.2186 27.6896 5.15625 28.4358L5.15625 32.6858L5.5 32.7483C5.5077 32.7421 5.52448 32.7243 5.53125 32.717C5.53741 32.71 5.52602 32.6935 5.53125 32.6858C5.53341 32.6826 5.56049 32.689 5.5625 32.6858C5.56912 32.6749 5.55788 32.6667 5.5625 32.6545C5.64224 32.4278 5.87023 32.2483 6.125 32.2483L7.125 32.2483C7.34775 32.2483 7.55712 32.3778 7.65625 32.5608C7.67041 32.5868 7.6775 32.6262 7.6875 32.6545C7.69212 32.6669 7.71213 32.6747 7.71875 32.6858C7.72414 32.6943 7.74339 32.7095 7.75 32.717L7.6875 32.7795L8.03125 32.7795L8.03125 28.4358C7.9689 27.6896 7.34256 27.1233 6.59375 27.1233ZM6.625 27.3108C7.02156 27.3108 7.36422 27.5299 7.5625 27.8733C7.76078 28.2167 7.76078 28.6549 7.5625 28.9983C7.36422 29.3417 7.02156 29.5295 6.625 29.5295C6.22844 29.5295 5.85453 29.3417 5.65625 28.9983C5.45797 28.6549 5.45797 28.2167 5.65625 27.8733C5.85453 27.5299 6.22844 27.3108 6.625 27.3108Z" fill="#ffbf00" fill-rule="nonzero" opacity="1" stroke="none"/>
<path d="M12.375 27.1233C11.8378 27.3417 11.4753 27.8559 11.4688 28.4358L11.4688 32.7795L11.7812 32.7795C11.7922 32.7739 11.8026 32.7557 11.8125 32.7483C11.8202 32.7421 11.837 32.7243 11.8438 32.717C11.8499 32.71 11.8385 32.6935 11.8438 32.6858C11.8459 32.6826 11.873 32.689 11.875 32.6858C11.8816 32.6749 11.8704 32.6667 11.875 32.6545C11.9547 32.4278 12.1827 32.2483 12.4375 32.2483L13.4688 32.2483C13.6915 32.2483 13.8696 32.3778 13.9688 32.5608C13.9829 32.5868 13.99 32.6262 14 32.6545C14.0046 32.6669 14.0246 32.6747 14.0312 32.6858C14.0366 32.6943 14.0559 32.7095 14.0625 32.717L14 32.7795L14.375 32.7795L14.375 28.4358C14.3717 28.0602 14.2034 27.701 13.9375 27.4358C13.5282 27.025 12.9122 26.9049 12.375 27.1233ZM13.2812 27.4045C13.7037 27.5691 13.9953 27.9825 14 28.4358C13.9945 29.0449 13.4842 29.5296 12.875 29.5295C12.4513 29.5238 12.0557 29.2926 11.875 28.9045C11.6836 28.4936 11.7524 28.0165 12.0625 27.6858C12.3726 27.3551 12.8588 27.24 13.2812 27.4045Z" fill="#ffbf00" fill-rule="nonzero" opacity="1" stroke="none"/>
<path d="M19.375 27.1233C18.8378 27.3417 18.4753 27.8559 18.4688 28.4358L18.4688 32.7795L18.7812 32.7795C18.7922 32.7739 18.8026 32.7557 18.8125 32.7483C18.8202 32.7421 18.837 32.7243 18.8438 32.717C18.8499 32.71 18.8385 32.6935 18.8438 32.6858C18.8459 32.6826 18.873 32.689 18.875 32.6858C18.8816 32.6749 18.8704 32.6667 18.875 32.6545C18.9547 32.4278 19.1827 32.2483 19.4375 32.2483L20.4688 32.2483C20.6915 32.2483 20.8696 32.3778 20.9688 32.5608C20.9829 32.5868 20.99 32.6262 21 32.6545C21.0046 32.6669 21.0246 32.6747 21.0312 32.6858C21.0366 32.6943 21.0559 32.7095 21.0625 32.717L21 32.7795L21.375 32.7795L21.375 28.4358C21.3717 28.0602 21.2034 27.701 20.9375 27.4358C20.5282 27.025 19.9122 26.9049 19.375 27.1233ZM20.375 27.4045C20.7894 27.5795 21.0666 27.986 21.0625 28.4358C21.057 29.0449 20.5467 29.5296 19.9375 29.5295C19.4876 29.5295 19.0775 29.2581 18.9062 28.842C18.735 28.426 18.8367 27.9712 19.1562 27.6545C19.4758 27.3379 19.9606 27.2296 20.375 27.4045Z" fill="#ffbf00" fill-rule="nonzero" opacity="1" stroke="none"/>
<path d="M26.4688 27.1233C25.9315 27.3417 25.5691 27.8559 25.5625 28.4358L25.5625 32.7795L25.8438 32.7795C25.8547 32.7739 25.8651 32.7557 25.875 32.7483C25.8827 32.7421 25.8995 32.7243 25.9062 32.717C25.9089 32.7144 25.935 32.7198 25.9375 32.717C25.9437 32.71 25.9323 32.6935 25.9375 32.6858C25.9441 32.6749 25.9641 32.6667 25.9688 32.6545C26.0485 32.4278 26.2452 32.2483 26.5 32.2483L27.5312 32.2483C27.754 32.2483 27.9634 32.3778 28.0625 32.5608C28.0767 32.5868 28.0838 32.6262 28.0938 32.6545C28.0984 32.6669 28.1184 32.6747 28.125 32.6858C28.1304 32.6943 28.1184 32.7095 28.125 32.717C28.1273 32.7198 28.1538 32.7144 28.1562 32.717L28.0938 32.7795L28.4375 32.7795L28.4375 28.4358C28.4342 28.0602 28.2971 27.701 28.0312 27.4358C27.6219 27.025 27.006 26.9049 26.4688 27.1233ZM27.0312 27.342C27.6443 27.342 28.125 27.8228 28.125 28.4358C28.125 29.0488 27.6443 29.5608 27.0312 29.5608C26.4182 29.5608 25.9063 29.0488 25.9062 28.4358C25.9062 27.8228 26.4182 27.342 27.0312 27.342Z" fill="#ffbf00" fill-rule="nonzero" opacity="1" stroke="none"/>
<path d="M32.75 27.1233C32.2171 27.3408 31.8542 27.8603 31.8438 28.4358L31.8438 32.7795L32.0938 32.7795C32.1047 32.7739 32.1464 32.7557 32.1562 32.7483C32.1639 32.7421 32.1495 32.7243 32.1562 32.717C32.1589 32.7144 32.185 32.7198 32.1875 32.717C32.1937 32.71 32.1823 32.6935 32.1875 32.6858C32.1941 32.6749 32.2141 32.6667 32.2188 32.6545C32.2985 32.4278 32.5265 32.2483 32.7812 32.2483L33.7812 32.2483C34.004 32.2483 34.2134 32.3778 34.3125 32.5608C34.3267 32.5868 34.3337 32.6262 34.3438 32.6545C34.3484 32.6669 34.3684 32.6747 34.375 32.6858C34.3804 32.6943 34.3684 32.7095 34.375 32.717C34.3773 32.7198 34.4038 32.7144 34.4062 32.717L34.375 32.7483L34.7188 32.6858L34.7188 28.4358C34.7155 28.0602 34.5471 27.701 34.2812 27.4358C33.8711 27.032 33.2829 26.9058 32.75 27.1233ZM33.6875 27.4045C34.105 27.572 34.3709 27.986 34.375 28.4358C34.3695 29.0449 33.8904 29.5296 33.2812 29.5295L33.2812 29.5608C32.8315 29.5689 32.4287 29.3174 32.25 28.9045C32.0713 28.4917 32.155 28.0082 32.4688 27.6858C32.7825 27.3634 33.27 27.2371 33.6875 27.4045Z" fill="#ffbf00" fill-rule="nonzero" opacity="1" stroke="none"/>
<path d="M6.48093 30.8265C6.48093 30.8487 6.48167 30.8755 6.48315 30.9069C6.48463 30.9384 6.48925 30.9687 6.49702 30.998C6.5048 31.0272 6.51719 31.0522 6.53421 31.0729C6.55123 31.0936 6.57565 31.104 6.60747 31.104C6.64003 31.104 6.665 31.0936 6.68239 31.0729C6.69979 31.0522 6.71236 31.0272 6.72013 30.998C6.72791 30.9687 6.73253 30.9384 6.73401 30.9069C6.73549 30.8755 6.73623 30.8487 6.73623 30.8265C6.73623 30.8131 6.73604 30.7971 6.73568 30.7782C6.73531 30.7593 6.73383 30.7399 6.73123 30.7199C6.72864 30.6999 6.72495 30.6801 6.72013 30.6605C6.71532 30.6409 6.70811 30.6233 6.69849 30.6078C6.68887 30.5923 6.67666 30.5797 6.66186 30.5701C6.64706 30.5604 6.62893 30.5556 6.60747 30.5556C6.58601 30.5556 6.56807 30.5604 6.55363 30.5701C6.5392 30.5797 6.52737 30.5923 6.51811 30.6078C6.50886 30.6233 6.50165 30.6409 6.49647 30.6605C6.49129 30.6801 6.48759 30.6999 6.48537 30.7199C6.48315 30.7399 6.48185 30.7593 6.48149 30.7782C6.48111 30.7971 6.48093 30.8131 6.48093 30.8265ZM6.32331 30.8265C6.32331 30.751 6.33089 30.6875 6.34606 30.6361C6.36124 30.5847 6.38177 30.5434 6.40767 30.5123C6.43357 30.4813 6.46372 30.4591 6.49813 30.4457C6.53255 30.4324 6.56899 30.4258 6.60747 30.4258C6.64669 30.4258 6.6835 30.4324 6.71791 30.4457C6.75233 30.4591 6.78266 30.4813 6.80893 30.5123C6.83521 30.5434 6.85592 30.5847 6.8711 30.6361C6.88627 30.6875 6.89385 30.751 6.89385 30.8265C6.89385 30.9042 6.88627 30.9691 6.8711 31.0213C6.85592 31.0734 6.83521 31.1151 6.80893 31.1461C6.78266 31.1772 6.75233 31.1994 6.71791 31.2127C6.6835 31.2261 6.64669 31.2327 6.60747 31.2327C6.56899 31.2327 6.53255 31.2261 6.49813 31.2127C6.46372 31.1994 6.43357 31.1772 6.40767 31.1461C6.38177 31.1151 6.36124 31.0734 6.34606 31.0213C6.33089 30.9691 6.32331 30.9042 6.32331 30.8265Z" fill="#575e75" fill-rule="evenodd" opacity="1" stroke="none"/>
<path d="M7.23639 24.2319L7.44174 24.2319L7.34184 23.9411L7.33962 23.9411L7.23639 24.2319ZM7.25304 23.7458L7.43175 23.7458L7.72812 24.5383L7.54719 24.5383L7.48725 24.3618L7.19088 24.3618L7.12872 24.5383L6.95334 24.5383L7.25304 23.7458Z" fill="#575e75" fill-rule="evenodd" opacity="1" stroke="none"/>
<path d="M32.3209 13.7965L32.4973 13.7965C32.5284 13.7965 32.554 13.7891 32.5739 13.7743C32.5939 13.7595 32.6039 13.7355 32.6039 13.7022C32.6039 13.6837 32.6006 13.6685 32.5939 13.6567C32.5873 13.6448 32.5784 13.6356 32.5673 13.6289C32.5562 13.6223 32.5434 13.6177 32.529 13.6151C32.5146 13.6125 32.4996 13.6112 32.484 13.6112L32.3209 13.6112L32.3209 13.7965ZM32.1466 13.4758L32.5195 13.4758C32.5573 13.4758 32.5917 13.4791 32.6228 13.4857C32.6539 13.4924 32.6805 13.5033 32.7027 13.5185C32.7249 13.5337 32.7421 13.5538 32.7543 13.579C32.7665 13.6041 32.7726 13.6352 32.7726 13.6722C32.7726 13.7122 32.7636 13.7455 32.7454 13.7721C32.7273 13.7988 32.7005 13.8206 32.665 13.8376C32.7138 13.8517 32.7502 13.8763 32.7743 13.9114C32.7983 13.9466 32.8104 13.9889 32.8104 14.0385C32.8104 14.0785 32.8026 14.1131 32.7871 14.1423C32.7715 14.1715 32.7506 14.1954 32.7243 14.2139C32.6981 14.2324 32.6681 14.2461 32.6344 14.255C32.6008 14.2639 32.5662 14.2683 32.5307 14.2683L32.1466 14.2683L32.1466 13.4758ZM32.3209 14.1329L32.5073 14.1329C32.5244 14.1329 32.5406 14.1312 32.5562 14.1279C32.5717 14.1246 32.5854 14.119 32.5973 14.1112C32.6091 14.1035 32.6185 14.0929 32.6256 14.0796C32.6326 14.0663 32.6361 14.0493 32.6361 14.0285C32.6361 13.9878 32.6246 13.9588 32.6017 13.9414C32.5787 13.924 32.5484 13.9153 32.5107 13.9153L32.3209 13.9153L32.3209 14.1329Z" fill="#575e75" fill-rule="evenodd" opacity="1" stroke="none"/>
<path d="M12.9551 31.2183L12.7975 31.2183L12.7975 30.7144L12.6021 30.7144L12.6021 30.5956C12.6295 30.5963 12.656 30.5943 12.6815 30.5895C12.707 30.5847 12.73 30.5762 12.7503 30.564C12.7707 30.5517 12.7879 30.5356 12.8019 30.5157C12.816 30.4957 12.8252 30.4709 12.8297 30.4413L12.9551 30.4413L12.9551 31.2183Z" fill="#575e75" fill-rule="evenodd" opacity="1" stroke="none"/>
<path d="M19.6811 30.7399C19.6796 30.6955 19.6848 30.6542 19.6966 30.6161C19.7085 30.578 19.7262 30.5447 19.7499 30.5162C19.7736 30.4877 19.8034 30.4655 19.8392 30.4496C19.8751 30.4337 19.9164 30.4258 19.963 30.4258C19.9985 30.4258 20.0324 30.4313 20.0646 30.4424C20.0968 30.4535 20.1251 30.4694 20.1495 30.4901C20.1739 30.5109 20.1933 30.5364 20.2078 30.5667C20.2222 30.5971 20.2294 30.6311 20.2294 30.6688C20.2294 30.7081 20.2231 30.7417 20.2105 30.7699C20.198 30.798 20.1813 30.823 20.1606 30.8448C20.1399 30.8666 20.1164 30.8864 20.0901 30.9042C20.0638 30.9219 20.0374 30.9395 20.0107 30.9569C19.9841 30.9743 19.9582 30.993 19.933 31.0129C19.9079 31.0329 19.8857 31.0562 19.8664 31.0829L20.2339 31.0829L20.2339 31.2183L19.6633 31.2183C19.6633 31.1732 19.6698 31.1339 19.6827 31.1006C19.6957 31.0673 19.7133 31.0376 19.7355 31.0113C19.7577 30.985 19.7837 30.9608 19.8137 30.9386C19.8437 30.9164 19.8753 30.8938 19.9086 30.8709C19.9256 30.859 19.9438 30.847 19.963 30.8348C19.9823 30.8226 19.9998 30.8091 20.0157 30.7943C20.0316 30.7795 20.045 30.7628 20.0557 30.7443C20.0664 30.7258 20.0718 30.7047 20.0718 30.6811C20.0718 30.6433 20.0609 30.6139 20.039 30.5928C20.0172 30.5717 19.9893 30.5612 19.9552 30.5612C19.9323 30.5612 19.9129 30.5665 19.897 30.5773C19.8811 30.588 19.8683 30.6021 19.8587 30.6195C19.849 30.6368 19.8422 30.6561 19.8381 30.6772C19.8341 30.6983 19.832 30.7192 19.832 30.7399L19.6811 30.7399Z" fill="#575e75" fill-rule="evenodd" opacity="1" stroke="none"/>
<path d="M26.7131 30.7554C26.7301 30.7569 26.7482 30.7569 26.7675 30.7554C26.7867 30.7539 26.8047 30.7497 26.8213 30.7427C26.838 30.7356 26.8516 30.7255 26.8624 30.7121C26.8731 30.6988 26.8785 30.6811 26.8785 30.6589C26.8785 30.6256 26.8674 30.6 26.8452 30.5823C26.823 30.5645 26.7974 30.5556 26.7686 30.5556C26.7286 30.5556 26.6985 30.5688 26.6781 30.595C26.6578 30.6213 26.648 30.6544 26.6487 30.6944L26.4989 30.6944C26.5003 30.6544 26.5075 30.618 26.5205 30.585C26.5334 30.5521 26.5516 30.5238 26.5749 30.5001C26.5982 30.4764 26.6261 30.4581 26.6587 30.4452C26.6913 30.4322 26.7275 30.4258 26.7675 30.4258C26.7986 30.4258 26.8296 30.4304 26.8607 30.4396C26.8918 30.4489 26.9197 30.4628 26.9445 30.4813C26.9693 30.4998 26.9895 30.5223 27.005 30.549C27.0206 30.5756 27.0283 30.6063 27.0283 30.6411C27.0283 30.6788 27.0193 30.7121 27.0011 30.741C26.983 30.7699 26.9558 30.7895 26.9195 30.7998L26.9195 30.802C26.9625 30.8117 26.9961 30.8324 27.0206 30.8642C27.045 30.896 27.0572 30.9341 27.0572 30.9785C27.0572 31.0192 27.0492 31.0555 27.0333 31.0873C27.0174 31.1191 26.9961 31.1458 26.9695 31.1672C26.9428 31.1887 26.9121 31.205 26.8774 31.2161C26.8426 31.2272 26.8063 31.2327 26.7686 31.2327C26.7249 31.2327 26.6851 31.2264 26.6493 31.2139C26.6134 31.2013 26.5828 31.183 26.5577 31.1589C26.5325 31.1349 26.5131 31.1054 26.4994 31.0707C26.4857 31.0359 26.4792 30.9959 26.48 30.9508L26.6298 30.9508C26.6306 30.9715 26.6339 30.9913 26.6398 31.0102C26.6457 31.029 26.6542 31.0453 26.6654 31.059C26.6765 31.0727 26.6903 31.0836 26.707 31.0918C26.7236 31.0999 26.7434 31.104 26.7664 31.104C26.8019 31.104 26.8318 31.0931 26.8563 31.0712C26.8807 31.0494 26.8929 31.0196 26.8929 30.9819C26.8929 30.9523 26.8872 30.9297 26.8757 30.9142C26.8642 30.8986 26.8496 30.8873 26.8318 30.8803C26.8141 30.8733 26.7947 30.8692 26.7736 30.8681C26.7525 30.867 26.7323 30.8664 26.7131 30.8664L26.7131 30.7554ZM27.4546 31.2183L27.2792 31.2183L27.0827 30.6444L27.2481 30.6444L27.3691 31.0363L27.3713 31.0363L27.4923 30.6444L27.6488 30.6444L27.4546 31.2183Z" fill="#575e75" fill-rule="evenodd" opacity="1" stroke="none"/>
<path d="M32.6793 31.1284C32.6483 31.1683 32.6139 31.1963 32.5761 31.2122C32.5384 31.2281 32.5003 31.2361 32.4618 31.2361C32.4011 31.2361 32.3465 31.2255 32.2981 31.2044C32.2496 31.1833 32.2087 31.1543 32.1754 31.1173C32.1421 31.0803 32.1166 31.0368 32.0988 30.9869C32.0811 30.9369 32.0722 30.8831 32.0722 30.8254C32.0722 30.7662 32.0811 30.7112 32.0988 30.6605C32.1166 30.6098 32.1421 30.5656 32.1754 30.5279C32.2087 30.4901 32.2496 30.4605 32.2981 30.4391C32.3465 30.4176 32.4011 30.4069 32.4618 30.4069C32.5025 30.4069 32.5419 30.413 32.58 30.4252C32.6181 30.4374 32.6525 30.4554 32.6832 30.479C32.7139 30.5027 32.7393 30.5319 32.7593 30.5667C32.7793 30.6015 32.7915 30.6415 32.7959 30.6866L32.6294 30.6866C32.619 30.6422 32.5991 30.6089 32.5695 30.5867C32.5399 30.5645 32.504 30.5534 32.4618 30.5534C32.4226 30.5534 32.3893 30.561 32.3619 30.5762C32.3345 30.5913 32.3123 30.6117 32.2953 30.6372C32.2783 30.6627 32.2659 30.6918 32.2581 30.7243C32.2503 30.7569 32.2464 30.7906 32.2464 30.8254C32.2464 30.8587 32.2503 30.891 32.2581 30.9225C32.2659 30.9539 32.2783 30.9822 32.2953 31.0074C32.3123 31.0326 32.3345 31.0527 32.3619 31.0679C32.3893 31.0831 32.4226 31.0906 32.4618 31.0906C32.5195 31.0906 32.5641 31.076 32.5955 31.0468C32.627 31.0176 32.6453 30.9752 32.6505 30.9197L32.4751 30.9197L32.4751 30.7898L32.8081 30.7898L32.8081 31.2183L32.6971 31.2183L32.6793 31.1284ZM32.9491 30.4258L33.1222 30.4258L33.453 30.9574L33.4552 30.9574L33.4552 30.4258L33.6184 30.4258L33.6184 31.2183L33.4441 31.2183L33.1145 30.6877L33.1123 30.6877L33.1123 31.2183L32.9491 31.2183L32.9491 30.4258ZM33.9459 31.0718L34.1013 31.0718C34.1264 31.0718 34.1508 31.0677 34.1745 31.0596C34.1982 31.0514 34.2193 31.0379 34.2378 31.0191C34.2563 31.0002 34.2711 30.9756 34.2822 30.9452C34.2933 30.9149 34.2988 30.8779 34.2988 30.8342C34.2988 30.7943 34.295 30.7582 34.2872 30.726C34.2794 30.6938 34.2667 30.6663 34.2489 30.6433C34.2311 30.6204 34.2076 30.6028 34.1784 30.5906C34.1492 30.5784 34.1131 30.5723 34.0702 30.5723L33.9459 30.5723L33.9459 31.0718ZM33.7716 30.4258L34.1135 30.4258C34.1645 30.4258 34.2121 30.4339 34.2561 30.4502C34.3001 30.4665 34.3382 30.4909 34.3704 30.5234C34.4026 30.556 34.4278 30.5967 34.4459 30.6455C34.464 30.6944 34.4731 30.7517 34.4731 30.8176C34.4731 30.8753 34.4657 30.9286 34.4509 30.9774C34.4361 31.0263 34.4137 31.0684 34.3838 31.104C34.3538 31.1395 34.3164 31.1674 34.2716 31.1878C34.2269 31.2081 34.1742 31.2183 34.1135 31.2183L33.7716 31.2183L33.7716 30.4258Z" fill="#575e75" fill-rule="evenodd" opacity="1" stroke="none"/>
</g>
</g>
</svg>
