<?xml version="1.0" encoding="UTF-8"?>
<!-- Generated by Pixelmator Pro 3.7.1 -->
<svg width="600" height="370" viewBox="0 0 600 370" xmlns="http://www.w3.org/2000/svg">
    <g id="g1">
        <path id="path1" fill="#72c09d" stroke="none" d="M -0.03613 370 L -0.03613 -0.044556 L 600 -0.044556 C 600 -0.044556 600 162.220398 600 229.383057 C 600 281.96347 600 370 600 370 Z"/>
        <g id="g2">
            <path id="path2" fill="#000000" fill-opacity="0.07059" fill-rule="evenodd" stroke="none" d="M 507.942871 92.388397 L 507.942871 0 L 600.331238 92.388397 Z"/>
            <path id="path3" fill="#000000" fill-opacity="0.07059" fill-rule="evenodd" stroke="none" d="M 507.942871 184.786438 L 507.942871 92.398071 L 600.331238 184.786438 Z"/>
            <path id="path4" fill="#000000" fill-opacity="0.07059" fill-rule="evenodd" stroke="none" d="M 507.942871 277.18454 L 507.942871 184.796173 L 600.331238 277.18454 Z"/>
            <path id="path5" fill="#000000" fill-opacity="0.07059" fill-rule="evenodd" stroke="none" d="M 507.942871 369.582611 L 507.942871 277.194214 L 600.331238 369.582611 Z"/>
            <path id="path6" fill="#000000" fill-opacity="0.07059" fill-rule="evenodd" stroke="none" d="M 415.554596 92.388397 L 415.554596 0 L 507.942963 92.388397 Z"/>
            <path id="path7" fill="#000000" fill-opacity="0.07059" fill-rule="evenodd" stroke="none" d="M 415.554596 184.786438 L 415.554596 92.398071 L 507.942963 184.786438 Z"/>
            <path id="path8" fill="#000000" fill-opacity="0.07059" fill-rule="evenodd" stroke="none" d="M 415.554596 277.18454 L 415.554596 184.796173 L 507.942963 277.18454 Z"/>
            <path id="path9" fill="#000000" fill-opacity="0.07059" fill-rule="evenodd" stroke="none" d="M 323.166229 92.388397 L 323.166229 0 L 415.554596 92.388397 Z"/>
            <path id="path10" fill="#000000" fill-opacity="0.07059" fill-rule="evenodd" stroke="none" d="M 323.166229 184.786438 L 323.166229 92.398071 L 415.554596 184.786438 Z"/>
            <path id="path11" fill="#000000" fill-opacity="0.07059" fill-rule="evenodd" stroke="none" d="M 230.748764 92.388397 L 230.748764 0 L 323.137115 92.388397 Z"/>
            <path id="path12" fill="#000000" fill-opacity="0.07059" fill-rule="evenodd" stroke="none" d="M 276.942993 138.572891 L 276.942993 92.398102 L 323.156555 138.572891 Z"/>
            <path id="path13" fill="#000000" fill-opacity="0.07059" fill-rule="evenodd" stroke="none" d="M 276.942993 184.747665 L 276.942993 138.572891 L 323.156555 184.747665 Z"/>
            <path id="path14" fill="#000000" fill-opacity="0.07059" fill-rule="evenodd" stroke="none" d="M 230.748764 184.757355 L 230.748764 138.582565 L 276.962341 184.757355 Z"/>
            <path id="path15" fill="#000000" fill-opacity="0.07059" fill-rule="evenodd" stroke="none" d="M 230.748764 138.572891 L 230.748764 92.398102 L 276.962341 138.572891 Z"/>
            <path id="path16" fill="#000000" fill-opacity="0.07059" fill-rule="evenodd" stroke="none" d="M 369.350708 230.985504 L 369.350708 184.810745 L 415.564301 230.985504 Z"/>
            <path id="path17" fill="#000000" fill-opacity="0.07059" fill-rule="evenodd" stroke="none" d="M 369.350708 277.160278 L 369.350708 230.985504 L 415.564301 277.160278 Z"/>
            <path id="path18" fill="#000000" fill-opacity="0.07059" fill-rule="evenodd" stroke="none" d="M 323.156525 277.169983 L 323.156525 230.995209 L 369.370117 277.169983 Z"/>
            <path id="path19" fill="#000000" fill-opacity="0.07059" fill-rule="evenodd" stroke="none" d="M 323.156525 230.985504 L 323.156525 184.810745 L 369.370117 230.985504 Z"/>
            <path id="path20" fill="#000000" fill-opacity="0.07059" fill-rule="evenodd" stroke="none" d="M 276.933289 230.985504 L 276.933289 184.810745 L 323.146851 230.985504 Z"/>
            <path id="path21" fill="#000000" fill-opacity="0.07059" fill-rule="evenodd" stroke="none" d="M 276.933289 277.160278 L 276.933289 230.985504 L 323.146851 277.160278 Z"/>
            <path id="path22" fill="#000000" fill-opacity="0.07059" fill-rule="evenodd" stroke="none" d="M 230.739029 277.169983 L 230.739029 230.995209 L 276.952606 277.169983 Z"/>
            <path id="path23" fill="#000000" fill-opacity="0.07059" fill-rule="evenodd" stroke="none" d="M 230.739029 230.985504 L 230.739029 184.810745 L 276.952606 230.985504 Z"/>
            <path id="path24" fill="#000000" fill-opacity="0.07059" fill-rule="evenodd" stroke="none" d="M 276.933289 323.401367 L 276.933289 277.226563 L 323.146851 323.401367 Z"/>
            <path id="path25" fill="#000000" fill-opacity="0.07059" fill-rule="evenodd" stroke="none" d="M 276.933289 369.576141 L 276.933289 323.401367 L 323.146851 369.576141 Z"/>
            <path id="path26" fill="#000000" fill-opacity="0.07059" fill-rule="evenodd" stroke="none" d="M 230.739029 369.585815 L 230.739029 323.411011 L 276.952606 369.585815 Z"/>
            <path id="path27" fill="#000000" fill-opacity="0.07059" fill-rule="evenodd" stroke="none" d="M 230.739029 323.401367 L 230.739029 277.226563 L 276.952606 323.401367 Z"/>
            <path id="path28" fill="#000000" fill-opacity="0.07059" fill-rule="evenodd" stroke="none" d="M 369.350708 323.383575 L 369.350708 277.208801 L 415.564301 323.383575 Z"/>
            <path id="path29" fill="#000000" fill-opacity="0.07059" fill-rule="evenodd" stroke="none" d="M 369.350708 369.55835 L 369.350708 323.383575 L 415.564301 369.55835 Z"/>
            <path id="path30" fill="#000000" fill-opacity="0.07059" fill-rule="evenodd" stroke="none" d="M 323.156525 369.568054 L 323.156525 323.39328 L 369.370117 369.568054 Z"/>
            <path id="path31" fill="#000000" fill-opacity="0.07059" fill-rule="evenodd" stroke="none" d="M 323.156525 323.383575 L 323.156525 277.208801 L 369.370117 323.383575 Z"/>
            <path id="path32" fill="#000000" fill-opacity="0.07059" fill-rule="evenodd" stroke="none" d="M 461.768188 369.55835 L 461.768188 323.383575 L 507.98175 369.55835 Z"/>
            <path id="path33" fill="#000000" fill-opacity="0.07059" fill-rule="evenodd" stroke="none" d="M 415.574036 369.568054 L 415.574036 323.39328 L 461.787598 369.568054 Z"/>
            <path id="path34" fill="#000000" fill-opacity="0.07059" fill-rule="evenodd" stroke="none" d="M 415.574036 323.383575 L 415.574036 277.208801 L 461.787598 323.383575 Z"/>
            <path id="path35" fill="#000000" fill-opacity="0.07059" fill-rule="evenodd" stroke="none" d="M 184.515747 138.585846 L 184.515747 92.411041 L 230.729324 138.585846 Z"/>
            <path id="path36" fill="#000000" fill-opacity="0.07059" fill-rule="evenodd" stroke="none" d="M 184.515747 184.760605 L 184.515747 138.585846 L 230.729324 184.760605 Z"/>
            <path id="path37" fill="#000000" fill-opacity="0.07059" fill-rule="evenodd" stroke="none" d="M 138.321594 184.770309 L 138.321594 138.59552 L 184.535187 184.770309 Z"/>
            <path id="path38" fill="#000000" fill-opacity="0.07059" fill-rule="evenodd" stroke="none" d="M 138.321594 138.585846 L 138.321594 92.411041 L 184.535187 138.585846 Z"/>
            <path id="path39" fill="#000000" fill-opacity="0.07059" fill-rule="evenodd" stroke="none" d="M 184.506042 46.187744 L 184.506042 0.01297 L 230.71962 46.187744 Z"/>
            <path id="path40" fill="#000000" fill-opacity="0.07059" fill-rule="evenodd" stroke="none" d="M 184.506042 92.362549 L 184.506042 46.187744 L 230.71962 92.362549 Z"/>
            <path id="path41" fill="#000000" fill-opacity="0.07059" fill-rule="evenodd" stroke="none" d="M 138.311905 92.372223 L 138.311905 46.197449 L 184.525482 92.372223 Z"/>
            <path id="path42" fill="#000000" fill-opacity="0.07059" fill-rule="evenodd" stroke="none" d="M 138.311905 46.187744 L 138.311905 0.01297 L 184.525482 46.187744 Z"/>
            <path id="path43" fill="#000000" fill-opacity="0.07059" fill-rule="evenodd" stroke="none" d="M 92.088615 46.187744 L 92.088615 0.01297 L 138.3022 46.187744 Z"/>
            <path id="path44" fill="#000000" fill-opacity="0.07059" fill-rule="evenodd" stroke="none" d="M 92.088615 92.362549 L 92.088615 46.187744 L 138.3022 92.362549 Z"/>
            <path id="path45" fill="#000000" fill-opacity="0.07059" fill-rule="evenodd" stroke="none" d="M 45.894413 92.372223 L 45.894413 46.197449 L 92.107994 92.372223 Z"/>
            <path id="path46" fill="#000000" fill-opacity="0.07059" fill-rule="evenodd" stroke="none" d="M 45.894413 46.187744 L 45.894413 0.01297 L 92.107994 46.187744 Z"/>
            <path id="path47" fill="#000000" fill-opacity="0.07059" fill-rule="evenodd" stroke="none" d="M -0.328868 46.187744 L -0.328868 0.01297 L 45.884735 46.187744 Z"/>
            <path id="path48" fill="#000000" fill-opacity="0.07059" fill-rule="evenodd" stroke="none" d="M -0.328868 92.362549 L -0.328868 46.187744 L 45.884735 92.362549 Z"/>
            <path id="path49" fill="#000000" fill-opacity="0.07059" fill-rule="evenodd" stroke="none" d="M 92.093483 138.585846 L 92.093483 92.411041 L 138.307068 138.585846 Z"/>
            <path id="path50" fill="#000000" fill-opacity="0.07059" fill-rule="evenodd" stroke="none" d="M 92.093483 184.760605 L 92.093483 138.585846 L 138.307068 184.760605 Z"/>
            <path id="path51" fill="#000000" fill-opacity="0.07059" fill-rule="evenodd" stroke="none" d="M 45.899284 184.770309 L 45.899284 138.59552 L 92.112869 184.770309 Z"/>
            <path id="path52" fill="#000000" fill-opacity="0.07059" fill-rule="evenodd" stroke="none" d="M 45.899284 138.585846 L 45.899284 92.411041 L 92.112869 138.585846 Z"/>
            <path id="path53" fill="#000000" fill-opacity="0.07059" fill-rule="evenodd" stroke="none" d="M 184.517395 230.983887 L 184.517395 184.809082 L 230.730972 230.983887 Z"/>
            <path id="path54" fill="#000000" fill-opacity="0.07059" fill-rule="evenodd" stroke="none" d="M 184.517395 277.158661 L 184.517395 230.983887 L 230.730972 277.158661 Z"/>
            <path id="path55" fill="#000000" fill-opacity="0.07059" fill-rule="evenodd" stroke="none" d="M 138.323227 277.168365 L 138.323227 230.993576 L 184.536835 277.168365 Z"/>
            <path id="path56" fill="#000000" fill-opacity="0.07059" fill-rule="evenodd" stroke="none" d="M 138.323227 230.983887 L 138.323227 184.809082 L 184.536835 230.983887 Z"/>
            <path id="path57" fill="#000000" fill-opacity="0.07059" fill-rule="evenodd" stroke="none" d="M 22.791609 115.478226 L 22.791609 92.390839 L 45.917801 115.478226 Z"/>
            <path id="path58" fill="#000000" fill-opacity="0.07059" fill-rule="evenodd" stroke="none" d="M 22.791609 138.570465 L 22.791609 115.483078 L 45.917801 138.570465 Z"/>
            <path id="path59" fill="#000000" fill-opacity="0.07059" fill-rule="evenodd" stroke="none" d="M -0.310229 138.575333 L -0.310229 115.48793 L 22.815952 138.575333 Z"/>
            <path id="path60" fill="#000000" fill-opacity="0.07059" fill-rule="evenodd" stroke="none" d="M -0.310229 115.478226 L -0.310229 92.390839 L 22.815952 115.478226 Z"/>
            <path id="path61" fill="#000000" fill-opacity="0.07059" fill-rule="evenodd" stroke="none" d="M 22.778694 161.682068 L 22.778694 138.594681 L 45.904884 161.682068 Z"/>
            <path id="path62" fill="#000000" fill-opacity="0.07059" fill-rule="evenodd" stroke="none" d="M 22.778694 184.774307 L 22.778694 161.68692 L 45.904884 184.774307 Z"/>
            <path id="path63" fill="#000000" fill-opacity="0.07059" fill-rule="evenodd" stroke="none" d="M -0.3232 184.77916 L -0.3232 161.691772 L 22.802982 184.77916 Z"/>
            <path id="path64" fill="#000000" fill-opacity="0.07059" fill-rule="evenodd" stroke="none" d="M -0.3232 161.682068 L -0.3232 138.594681 L 22.802982 161.682068 Z"/>
            <path id="path65" fill="#000000" fill-opacity="0.07059" fill-rule="evenodd" stroke="none" d="M 115.193001 207.873062 L 115.193001 184.78566 L 138.319199 207.873062 Z"/>
            <path id="path66" fill="#000000" fill-opacity="0.07059" fill-rule="evenodd" stroke="none" d="M 115.193001 230.965302 L 115.193001 207.877899 L 138.319199 230.965302 Z"/>
            <path id="path67" fill="#000000" fill-opacity="0.07059" fill-rule="evenodd" stroke="none" d="M 92.091019 230.970154 L 92.091019 207.882751 L 115.217216 230.970154 Z"/>
            <path id="path68" fill="#000000" fill-opacity="0.07059" fill-rule="evenodd" stroke="none" d="M 92.091019 207.873062 L 92.091019 184.78566 L 115.217216 207.873062 Z"/>
            <path id="path69" fill="#000000" fill-opacity="0.07059" fill-rule="evenodd" stroke="none" d="M 68.985886 207.864975 L 68.985886 184.777588 L 92.112076 207.864975 Z"/>
            <path id="path70" fill="#000000" fill-opacity="0.07059" fill-rule="evenodd" stroke="none" d="M 68.985886 230.957214 L 68.985886 207.869827 L 92.112076 230.957214 Z"/>
            <path id="path71" fill="#000000" fill-opacity="0.07059" fill-rule="evenodd" stroke="none" d="M 45.883831 230.962067 L 45.883831 207.874664 L 69.010025 230.962067 Z"/>
            <path id="path72" fill="#000000" fill-opacity="0.07059" fill-rule="evenodd" stroke="none" d="M 45.883831 207.864975 L 45.883831 184.777588 L 69.010025 207.864975 Z"/>
            <path id="path73" fill="#000000" fill-opacity="0.07059" fill-rule="evenodd" stroke="none" d="M 115.180069 254.076935 L 115.180069 230.989548 L 138.306244 254.076935 Z"/>
            <path id="path74" fill="#000000" fill-opacity="0.07059" fill-rule="evenodd" stroke="none" d="M 115.180069 277.169189 L 115.180069 254.081787 L 138.306244 277.169189 Z"/>
            <path id="path75" fill="#000000" fill-opacity="0.07059" fill-rule="evenodd" stroke="none" d="M 92.07811 277.174011 L 92.07811 254.086639 L 115.2043 277.174011 Z"/>
            <path id="path76" fill="#000000" fill-opacity="0.07059" fill-rule="evenodd" stroke="none" d="M 92.07811 254.076935 L 92.07811 230.989548 L 115.2043 254.076935 Z"/>
            <path id="path77" fill="#000000" fill-opacity="0.07059" fill-rule="evenodd" stroke="none" d="M 68.972954 254.068848 L 68.972954 230.981461 L 92.099144 254.068848 Z"/>
            <path id="path78" fill="#000000" fill-opacity="0.07059" fill-rule="evenodd" stroke="none" d="M 68.972954 277.161102 L 68.972954 254.0737 L 92.099144 277.161102 Z"/>
            <path id="path79" fill="#000000" fill-opacity="0.07059" fill-rule="evenodd" stroke="none" d="M 45.870934 277.165955 L 45.870934 254.078552 L 68.997108 277.165955 Z"/>
            <path id="path80" fill="#000000" fill-opacity="0.07059" fill-rule="evenodd" stroke="none" d="M 45.870934 254.068848 L 45.870934 230.981461 L 68.997108 254.068848 Z"/>
            <path id="path81" fill="#000000" fill-opacity="0.07059" fill-rule="evenodd" stroke="none" d="M 22.783545 207.928024 L 22.783545 184.840637 L 45.909737 207.928024 Z"/>
            <path id="path82" fill="#000000" fill-opacity="0.07059" fill-rule="evenodd" stroke="none" d="M 22.783545 231.020264 L 22.783545 207.932877 L 45.909737 231.020264 Z"/>
            <path id="path83" fill="#000000" fill-opacity="0.07059" fill-rule="evenodd" stroke="none" d="M -0.31835 231.025116 L -0.31835 207.937729 L 22.807831 231.025116 Z"/>
            <path id="path84" fill="#000000" fill-opacity="0.07059" fill-rule="evenodd" stroke="none" d="M -0.31835 207.928024 L -0.31835 184.840637 L 22.807831 207.928024 Z"/>
            <path id="path85" fill="#000000" fill-opacity="0.07059" fill-rule="evenodd" stroke="none" d="M 22.77063 254.131897 L 22.77063 231.04451 L 45.89682 254.131897 Z"/>
            <path id="path86" fill="#000000" fill-opacity="0.07059" fill-rule="evenodd" stroke="none" d="M 22.77063 277.224152 L 22.77063 254.136749 L 45.89682 277.224152 Z"/>
            <path id="path87" fill="#000000" fill-opacity="0.07059" fill-rule="evenodd" stroke="none" d="M -0.331246 277.229004 L -0.331246 254.141602 L 22.794935 277.229004 Z"/>
            <path id="path88" fill="#000000" fill-opacity="0.07059" fill-rule="evenodd" stroke="none" d="M -0.331246 254.131897 L -0.331246 231.04451 L 22.794935 254.131897 Z"/>
            <path id="path89" fill="#000000" fill-opacity="0.07059" fill-rule="evenodd" stroke="none" d="M 22.91769 300.335785 L 22.91769 277.248413 L 46.04388 300.335785 Z"/>
            <path id="path90" fill="#000000" fill-opacity="0.07059" fill-rule="evenodd" stroke="none" d="M 22.91769 323.42804 L 22.91769 300.340637 L 46.04388 323.42804 Z"/>
            <path id="path91" fill="#000000" fill-opacity="0.07059" fill-rule="evenodd" stroke="none" d="M -0.184148 323.432892 L -0.184148 300.34549 L 22.942053 323.432892 Z"/>
            <path id="path92" fill="#000000" fill-opacity="0.07059" fill-rule="evenodd" stroke="none" d="M -0.184148 300.335785 L -0.184148 277.248413 L 22.942053 300.335785 Z"/>
            <path id="path93" fill="#000000" fill-opacity="0.07059" fill-rule="evenodd" stroke="none" d="M 22.904776 346.539673 L 22.904776 323.452301 L 46.030968 346.539673 Z"/>
            <path id="path94" fill="#000000" fill-opacity="0.07059" fill-rule="evenodd" stroke="none" d="M 22.904776 369.631927 L 22.904776 346.544525 L 46.030968 369.631927 Z"/>
            <path id="path95" fill="#000000" fill-opacity="0.07059" fill-rule="evenodd" stroke="none" d="M -0.197081 369.63678 L -0.197081 346.549377 L 22.9291 369.63678 Z"/>
            <path id="path96" fill="#000000" fill-opacity="0.07059" fill-rule="evenodd" stroke="none" d="M -0.197081 346.539673 L -0.197081 323.452301 L 22.9291 346.539673 Z"/>
            <path id="path97" fill="#000000" fill-opacity="0.07059" fill-rule="evenodd" stroke="none" d="M 115.275429 300.290527 L 115.275429 277.203125 L 138.401627 300.290527 Z"/>
            <path id="path98" fill="#000000" fill-opacity="0.07059" fill-rule="evenodd" stroke="none" d="M 115.275429 323.382782 L 115.275429 300.29538 L 138.401627 323.382782 Z"/>
            <path id="path99" fill="#000000" fill-opacity="0.07059" fill-rule="evenodd" stroke="none" d="M 92.173531 323.387604 L 92.173531 300.300171 L 115.299698 323.387604 Z"/>
            <path id="path100" fill="#000000" fill-opacity="0.07059" fill-rule="evenodd" stroke="none" d="M 92.173531 300.290527 L 92.173531 277.203125 L 115.299698 300.290527 Z"/>
            <path id="path101" fill="#000000" fill-opacity="0.07059" fill-rule="evenodd" stroke="none" d="M 69.068275 300.28244 L 69.068275 277.195038 L 92.194473 300.28244 Z"/>
            <path id="path102" fill="#000000" fill-opacity="0.07059" fill-rule="evenodd" stroke="none" d="M 69.068275 323.374664 L 69.068275 300.287262 L 92.194473 323.374664 Z"/>
            <path id="path103" fill="#000000" fill-opacity="0.07059" fill-rule="evenodd" stroke="none" d="M 45.966339 323.379547 L 45.966339 300.292145 L 69.092529 323.379547 Z"/>
            <path id="path104" fill="#000000" fill-opacity="0.07059" fill-rule="evenodd" stroke="none" d="M 45.966339 300.28244 L 45.966339 277.195038 L 69.092529 300.28244 Z"/>
            <path id="path105" fill="#000000" fill-opacity="0.07059" fill-rule="evenodd" stroke="none" d="M 115.26252 346.494354 L 115.26252 323.406982 L 138.388702 346.494354 Z"/>
            <path id="path106" fill="#000000" fill-opacity="0.07059" fill-rule="evenodd" stroke="none" d="M 115.26252 369.586639 L 115.26252 346.499176 L 138.388702 369.586639 Z"/>
            <path id="path107" fill="#000000" fill-opacity="0.07059" fill-rule="evenodd" stroke="none" d="M 92.160538 369.591522 L 92.160538 346.504059 L 115.286728 369.591522 Z"/>
            <path id="path108" fill="#000000" fill-opacity="0.07059" fill-rule="evenodd" stroke="none" d="M 92.160538 346.494354 L 92.160538 323.406982 L 115.286728 346.494354 Z"/>
            <path id="path109" fill="#000000" fill-opacity="0.07059" fill-rule="evenodd" stroke="none" d="M 69.055405 346.486298 L 69.055405 323.398926 L 92.181595 346.486298 Z"/>
            <path id="path110" fill="#000000" fill-opacity="0.07059" fill-rule="evenodd" stroke="none" d="M 69.055405 369.578583 L 69.055405 346.49118 L 92.181595 369.578583 Z"/>
            <path id="path111" fill="#000000" fill-opacity="0.07059" fill-rule="evenodd" stroke="none" d="M 45.953442 369.583405 L 45.953442 346.495972 L 69.079636 369.583405 Z"/>
            <path id="path112" fill="#000000" fill-opacity="0.07059" fill-rule="evenodd" stroke="none" d="M 45.953442 346.486298 L 45.953442 323.398926 L 69.079636 346.486298 Z"/>
            <path id="path113" fill="#000000" fill-opacity="0.07059" fill-rule="evenodd" stroke="none" d="M 207.66214 300.277588 L 207.66214 277.190186 L 230.788345 300.277588 Z"/>
            <path id="path114" fill="#000000" fill-opacity="0.07059" fill-rule="evenodd" stroke="none" d="M 207.66214 323.369812 L 207.66214 300.28244 L 230.788345 323.369812 Z"/>
            <path id="path115" fill="#000000" fill-opacity="0.07059" fill-rule="evenodd" stroke="none" d="M 184.560181 323.374664 L 184.560181 300.287262 L 207.686386 323.374664 Z"/>
            <path id="path116" fill="#000000" fill-opacity="0.07059" fill-rule="evenodd" stroke="none" d="M 184.560181 300.277588 L 184.560181 277.190186 L 207.686386 300.277588 Z"/>
            <path id="path117" fill="#000000" fill-opacity="0.07059" fill-rule="evenodd" stroke="none" d="M 161.455078 300.269501 L 161.455078 277.182129 L 184.581268 300.269501 Z"/>
            <path id="path118" fill="#000000" fill-opacity="0.07059" fill-rule="evenodd" stroke="none" d="M 161.455078 323.361725 L 161.455078 300.274353 L 184.581268 323.361725 Z"/>
            <path id="path119" fill="#000000" fill-opacity="0.07059" fill-rule="evenodd" stroke="none" d="M 138.353134 323.366608 L 138.353134 300.279175 L 161.47934 323.366608 Z"/>
            <path id="path120" fill="#000000" fill-opacity="0.07059" fill-rule="evenodd" stroke="none" d="M 138.353134 300.269501 L 138.353134 277.182129 L 161.47934 300.269501 Z"/>
            <path id="path121" fill="#000000" fill-opacity="0.07059" fill-rule="evenodd" stroke="none" d="M 207.649246 346.481445 L 207.649246 323.394073 L 230.775421 346.481445 Z"/>
            <path id="path122" fill="#000000" fill-opacity="0.07059" fill-rule="evenodd" stroke="none" d="M 207.649246 369.5737 L 207.649246 346.486298 L 230.775421 369.5737 Z"/>
            <path id="path123" fill="#000000" fill-opacity="0.07059" fill-rule="evenodd" stroke="none" d="M 184.547287 369.578583 L 184.547287 346.49118 L 207.673462 369.578583 Z"/>
            <path id="path124" fill="#000000" fill-opacity="0.07059" fill-rule="evenodd" stroke="none" d="M 184.547287 346.481445 L 184.547287 323.394073 L 207.673462 346.481445 Z"/>
            <path id="path125" fill="#000000" fill-opacity="0.07059" fill-rule="evenodd" stroke="none" d="M 161.442154 346.473389 L 161.442154 323.386017 L 184.568344 346.473389 Z"/>
            <path id="path126" fill="#000000" fill-opacity="0.07059" fill-rule="evenodd" stroke="none" d="M 161.442154 369.565613 L 161.442154 346.478241 L 184.568344 369.565613 Z"/>
            <path id="path127" fill="#000000" fill-opacity="0.07059" fill-rule="evenodd" stroke="none" d="M 138.340195 369.570496 L 138.340195 346.483093 L 161.466385 369.570496 Z"/>
            <path id="path128" fill="#000000" fill-opacity="0.07059" fill-rule="evenodd" stroke="none" d="M 138.340195 346.473389 L 138.340195 323.386017 L 161.466385 346.473389 Z"/>
        </g>
    </g>
    <path id="path179" fill="#000000" fill-opacity="0.596094" fill-rule="evenodd" stroke="none" d="M 390 305 C 390 298.372589 349.705627 293 300 293 C 250.294373 293 210 298.372589 210 305 C 210 311.627411 250.294373 317 300 317 C 349.705627 317 390 311.627411 390 305 Z"/>
    <g id="g3">
        <path id="path129" fill="#333333" fill-rule="evenodd" stroke="none" d="M 221.591248 57 L 378.158752 57 C 384.698517 57 390 63.151581 390 70.73996 L 390 272.26001 C 390 279.848419 384.698517 286 378.158752 286 L 221.591248 286 C 215.051483 286 209.75 279.848419 209.75 272.26001 L 209.75 70.73996 C 209.75 63.151581 215.051483 57 221.591248 57 Z M 223 62 C 227.418274 62 231 65.581726 231 70 C 231 74.418274 227.418274 78 223 78 C 218.581726 78 215 74.418274 215 70 C 215 65.581726 218.581726 62 223 62 Z M 385 70 C 385 65.581726 381.418274 62 377 62 C 372.581726 62 369 65.581726 369 70 C 369 74.418274 372.581726 78 377 78 C 381.418274 78 385 74.418274 385 70 Z"/>
        <g id="g4">
            <g id="g5">
                <path id="path131" fill="#dddddd" stroke="none" d="M 221.676025 114.697998 L 250.7117 114.697998 C 252.356415 114.697998 253.689713 116.031326 253.689713 117.67601 L 253.689713 146.7117 C 253.689713 148.356384 252.356415 149.689713 250.7117 149.689713 L 221.676025 149.689713 C 220.031296 149.689713 218.697998 148.356384 218.697998 146.7117 L 218.697998 117.67601 C 218.697998 116.031326 220.031296 114.697998 221.676025 114.697998 Z"/>
                <path id="path132" fill="#333333" stroke="none" d="M 223.165024 116.931519 L 249.222687 116.931519 C 250.456223 116.931519 251.456192 117.931488 251.456192 119.165024 L 251.456192 145.222687 C 251.456192 146.456223 250.456223 147.456192 249.222687 147.456192 L 223.165024 147.456192 C 221.931488 147.456192 220.931519 146.456223 220.931519 145.222687 L 220.931519 119.165024 C 220.931519 117.931488 221.931488 116.931519 223.165024 116.931519 Z"/>
                <path id="path133" fill="none" stroke="#dddddd" stroke-width="2.791892" d="M 237.139389 140.480179 L 237.139389 123.237427 C 237.139984 124.161621 236.693344 125.046448 235.90181 125.689255 C 235.110214 126.33197 234.041504 126.677765 232.940369 126.647339"/>
            </g>
            <g id="g6">
                <path id="path134" fill="#dddddd" stroke="none" d="M 264.112793 114.697998 L 293.148468 114.697998 C 294.793213 114.697998 296.126465 116.031326 296.126465 117.67601 L 296.126465 146.7117 C 296.126465 148.356384 294.793213 149.689713 293.148468 149.689713 L 264.112793 149.689713 C 262.468048 149.689713 261.134735 148.356384 261.134735 146.7117 L 261.134735 117.67601 C 261.134735 116.031326 262.468048 114.697998 264.112793 114.697998 Z"/>
                <path id="path135" fill="#333333" stroke="none" d="M 265.601776 116.931519 L 291.659424 116.931519 C 292.892975 116.931519 293.892944 117.931488 293.892944 119.165024 L 293.892944 145.222687 C 293.892944 146.456223 292.892975 147.456192 291.659424 147.456192 L 265.601776 147.456192 C 264.368225 147.456192 263.368256 146.456223 263.368256 145.222687 L 263.368256 119.165024 C 263.368256 117.931488 264.368225 116.931519 265.601776 116.931519 Z"/>
                <path id="path136" fill="none" stroke="#dddddd" stroke-width="2.791892" d="M 284.445221 139.415527 L 275.496216 139.415527 C 275.494751 138.385437 275.873901 137.391098 276.560883 136.623596 C 278.35141 134.967758 280.063171 133.228622 281.690521 131.412079 C 282.58197 130.587769 283.088837 129.42868 283.088837 128.214478 C 283.088837 127.000305 282.58197 125.841187 281.690521 125.016815 C 280.486481 123.903427 278.628571 123.903427 277.42453 125.016815 C 276.307922 126.048584 275.655518 127.48764 275.615387 129.007355"/>
            </g>
            <g id="g7">
                <path id="path137" fill="#dddddd" stroke="none" d="M 306.54953 114.697998 L 335.585205 114.697998 C 337.229919 114.697998 338.563263 116.031326 338.563263 117.67601 L 338.563263 146.7117 C 338.563263 148.356384 337.229919 149.689713 335.585205 149.689713 L 306.54953 149.689713 C 304.904785 149.689713 303.571533 148.356384 303.571533 146.7117 L 303.571533 117.67601 C 303.571533 116.031326 304.904785 114.697998 306.54953 114.697998 Z"/>
                <path id="path138" fill="#333333" stroke="none" d="M 308.038574 116.931519 L 334.096222 116.931519 C 335.329773 116.931519 336.329742 117.931488 336.329742 119.165024 L 336.329742 145.222687 C 336.329742 146.456223 335.329773 147.456192 334.096222 147.456192 L 308.038574 147.456192 C 306.805023 147.456192 305.805054 146.456223 305.805054 145.222687 L 305.805054 119.165024 C 305.805054 117.931488 306.805023 116.931519 308.038574 116.931519 Z"/>
                <path id="path139" fill="none" stroke="#dddddd" stroke-width="2.791892" d="M 318.424347 128.352173 C 318.423523 126.857452 319.103058 125.443588 320.270813 124.51059 C 321.292053 123.69574 322.74115 123.69574 323.762482 124.51059 C 325.080383 125.564743 325.589111 127.336227 325.031372 128.929001 C 324.473663 130.521912 322.970978 131.58902 321.283295 131.590744 C 322.735962 131.418091 324.146729 132.15004 324.84198 133.437195 C 325.601868 134.842422 325.601868 136.536194 324.84198 137.941422 C 324.240234 139.049622 323.080322 139.739594 321.819336 139.739594 C 320.55835 139.739594 319.398407 139.049622 318.7966 137.941422 C 318.299377 137.02475 318.038452 135.998718 318.037292 134.955917"/>
            </g>
            <g id="g8">
                <path id="path140" fill="#dddddd" stroke="none" d="M 348.986298 114.697998 L 378.022003 114.697998 C 379.666687 114.697998 381 116.031326 381 117.67601 L 381 146.7117 C 381 148.356384 379.666687 149.689713 378.022003 149.689713 L 348.986298 149.689713 C 347.341614 149.689713 346.008301 148.356384 346.008301 146.7117 L 346.008301 117.67601 C 346.008301 116.031326 347.341614 114.697998 348.986298 114.697998 Z"/>
                <path id="path141" fill="#d0d0d0" stroke="none" d="M 350.475311 116.931519 L 376.532959 116.931519 C 377.76651 116.931519 378.766479 117.931488 378.766479 119.165024 L 378.766479 145.222687 C 378.766479 146.456223 377.76651 147.456192 376.532959 147.456192 L 350.475311 147.456192 C 349.24176 147.456192 348.241791 146.456223 348.241791 145.222687 L 348.241791 119.165024 C 348.241791 117.931488 349.24176 116.931519 350.475311 116.931519 Z"/>
                <path id="path142" fill="none" stroke="#333333" stroke-width="2.791892" d="M 358.664856 140.830078 L 358.664856 140.45784 L 363.50412 123.52037 L 363.50412 123.148117 M 363.50412 123.52037 L 368.343445 140.45784 L 368.343445 140.830078 M 366.668304 134.233765 L 359.967743 134.233765"/>
            </g>
            <g id="g9">
                <path id="path143" fill="#dddddd" stroke="none" d="M 221.676025 157.13475 L 250.7117 157.13475 C 252.356415 157.13475 253.689713 158.468079 253.689713 160.112778 L 253.689713 189.148453 C 253.689713 190.793137 252.356415 192.126465 250.7117 192.126465 L 221.676025 192.126465 C 220.031296 192.126465 218.697998 190.793137 218.697998 189.148453 L 218.697998 160.112778 C 218.697998 158.468079 220.031296 157.13475 221.676025 157.13475 Z"/>
                <path id="path144" fill="#333333" stroke="none" d="M 223.165024 159.368271 L 249.222687 159.368271 C 250.456223 159.368271 251.456192 160.36824 251.456192 161.601776 L 251.456192 187.659454 C 251.456192 188.892975 250.456223 189.89296 249.222687 189.89296 L 223.165024 189.89296 C 221.931488 189.89296 220.931519 188.892975 220.931519 187.659454 L 220.931519 161.601776 C 220.931519 160.36824 221.931488 159.368271 223.165024 159.368271 Z"/>
                <path id="path145" fill="none" stroke="#dddddd" stroke-width="2.791892" d="M 230.788742 177.53421 L 241.889343 177.53421 M 238.509262 183.021194 L 238.509262 165.808258 M 231.957626 176.901382 L 238.285904 166.627182"/>
            </g>
            <g id="g10">
                <path id="path146" fill="#dddddd" stroke="none" d="M 264.112793 157.13475 L 293.148468 157.13475 C 294.793213 157.13475 296.126465 158.468079 296.126465 160.112778 L 296.126465 189.148453 C 296.126465 190.793137 294.793213 192.126465 293.148468 192.126465 L 264.112793 192.126465 C 262.468048 192.126465 261.134735 190.793137 261.134735 189.148453 L 261.134735 160.112778 C 261.134735 158.468079 262.468048 157.13475 264.112793 157.13475 Z"/>
                <path id="path147" fill="#333333" stroke="none" d="M 265.601776 159.368271 L 291.659424 159.368271 C 292.892975 159.368271 293.892944 160.36824 293.892944 161.601776 L 293.892944 187.659454 C 293.892944 188.892975 292.892975 189.89296 291.659424 189.89296 L 265.601776 189.89296 C 264.368225 189.89296 263.368256 188.892975 263.368256 187.659454 L 263.368256 161.601776 C 263.368256 160.36824 264.368225 159.368271 265.601776 159.368271 Z"/>
                <path id="path148" fill="none" stroke="#dddddd" stroke-width="2.791892" d="M 284.110168 167.126038 L 276.553467 167.126038 L 275.823822 174.719955 C 276.513672 173.628357 277.560913 172.809967 278.786987 172.404556 C 279.612183 172.131638 280.512482 172.201965 281.28537 172.599579 C 282.058289 172.997192 282.638885 173.688889 282.896606 174.518906 C 283.517365 176.512405 283.243011 178.677032 282.144653 180.452606 C 281.490265 181.448029 280.395874 182.066559 279.205536 182.113831 C 278.015259 182.161087 276.875244 181.631256 276.143951 180.690887 C 275.731934 179.804886 275.55014 178.829254 275.615387 177.854279"/>
            </g>
            <g id="g11">
                <path id="path149" fill="#dddddd" stroke="none" d="M 306.54953 157.13475 L 335.585205 157.13475 C 337.229919 157.13475 338.563263 158.468079 338.563263 160.112778 L 338.563263 189.148453 C 338.563263 190.793137 337.229919 192.126465 335.585205 192.126465 L 306.54953 192.126465 C 304.904785 192.126465 303.571533 190.793137 303.571533 189.148453 L 303.571533 160.112778 C 303.571533 158.468079 304.904785 157.13475 306.54953 157.13475 Z"/>
                <path id="path150" fill="#333333" stroke="none" d="M 308.038574 159.368271 L 334.096222 159.368271 C 335.329773 159.368271 336.329742 160.36824 336.329742 161.601776 L 336.329742 187.659454 C 336.329742 188.892975 335.329773 189.89296 334.096222 189.89296 L 308.038574 189.89296 C 306.805023 189.89296 305.805054 188.892975 305.805054 187.659454 L 305.805054 161.601776 C 305.805054 160.36824 306.805023 159.368271 308.038574 159.368271 Z"/>
                <path id="path151" fill="none" stroke="#dddddd" stroke-width="2.791892" d="M 325.370636 171.146286 C 325.37085 170.063354 324.913971 169.030548 324.112396 168.302322 C 323.4245 167.64624 322.460785 167.365341 321.528076 167.548904 C 320.595337 167.732483 319.810028 168.357666 319.422058 169.225494 C 317.79071 173.071075 317.726654 177.401779 319.243378 181.293884 C 319.71817 182.343933 320.763763 183.018646 321.916138 183.018646 C 323.068512 183.018646 324.114105 182.343933 324.588867 181.293884 C 325.56488 179.141083 325.56488 176.671814 324.588867 174.518906 C 324.012329 173.573471 322.967926 173.015564 321.861511 173.061996 C 320.755005 173.108337 319.761047 173.751785 319.265656 174.742294 C 318.449341 176.632095 318.367004 178.758484 319.034912 180.705795"/>
            </g>
            <g id="g12">
                <path id="path152" fill="#dddddd" stroke="none" d="M 348.986298 157.13475 L 378.022003 157.13475 C 379.666687 157.13475 381 158.468079 381 160.112778 L 381 189.148453 C 381 190.793137 379.666687 192.126465 378.022003 192.126465 L 348.986298 192.126465 C 347.341614 192.126465 346.008301 190.793137 346.008301 189.148453 L 346.008301 160.112778 C 346.008301 158.468079 347.341614 157.13475 348.986298 157.13475 Z"/>
                <path id="path153" fill="#d0d0d0" stroke="none" d="M 350.475311 159.368271 L 376.532959 159.368271 C 377.76651 159.368271 378.766479 160.36824 378.766479 161.601776 L 378.766479 187.659454 C 378.766479 188.892975 377.76651 189.89296 376.532959 189.89296 L 350.475311 189.89296 C 349.24176 189.89296 348.241791 188.892975 348.241791 187.659454 L 348.241791 161.601776 C 348.241791 160.36824 349.24176 159.368271 350.475311 159.368271 Z"/>
                <path id="path154" fill="none" stroke="#333333" stroke-width="2.791892" d="M 360.258118 166.932465 L 360.258118 181.815094 L 364.404968 181.815094 C 366.530792 181.815094 368.254089 180.091797 368.254089 177.965973 C 368.254089 175.840164 366.530792 174.116943 364.404968 174.116943 L 360.258118 174.116943 L 364.404968 174.116943 C 366.388916 174.116943 367.997253 172.508606 367.997253 170.524643 C 367.997253 168.54071 366.388916 166.932465 364.404968 166.932465 Z"/>
            </g>
            <g id="g13">
                <path id="path155" fill="#dddddd" stroke="none" d="M 221.676025 199.571518 L 250.7117 199.571518 C 252.356415 199.571518 253.689713 200.904846 253.689713 202.54953 L 253.689713 231.585205 C 253.689713 233.229904 252.356415 234.563232 250.7117 234.563232 L 221.676025 234.563232 C 220.031296 234.563232 218.697998 233.229904 218.697998 231.585205 L 218.697998 202.54953 C 218.697998 200.904846 220.031296 199.571518 221.676025 199.571518 Z"/>
                <path id="path156" fill="#333333" stroke="none" d="M 223.165024 201.805038 L 249.222687 201.805038 C 250.456223 201.805038 251.456192 202.805008 251.456192 204.038544 L 251.456192 230.096207 C 251.456192 231.329742 250.456223 232.329712 249.222687 232.329712 L 223.165024 232.329712 C 221.931488 232.329712 220.931519 231.329742 220.931519 230.096207 L 220.931519 204.038544 C 220.931519 202.805008 221.931488 201.805038 223.165024 201.805038 Z"/>
                <path id="path157" fill="none" stroke="#dddddd" stroke-width="2.791892" d="M 231.667252 209.369232 L 239.827042 209.369232 L 239.827042 210.597687 L 235.248322 224.743256 L 235.248322 225.189941"/>
            </g>
            <g id="g14">
                <path id="path158" fill="#dddddd" stroke="none" d="M 264.112793 199.571518 L 293.148468 199.571518 C 294.793213 199.571518 296.126465 200.904846 296.126465 202.54953 L 296.126465 231.585205 C 296.126465 233.229904 294.793213 234.563232 293.148468 234.563232 L 264.112793 234.563232 C 262.468048 234.563232 261.134735 233.229904 261.134735 231.585205 L 261.134735 202.54953 C 261.134735 200.904846 262.468048 199.571518 264.112793 199.571518 Z"/>
                <path id="path159" fill="#333333" stroke="none" d="M 265.601776 201.805038 L 291.659424 201.805038 C 292.892975 201.805038 293.892944 202.805008 293.892944 204.038544 L 293.892944 230.096207 C 293.892944 231.329742 292.892975 232.329712 291.659424 232.329712 L 265.601776 232.329712 C 264.368225 232.329712 263.368256 231.329742 263.368256 230.096207 L 263.368256 204.038544 C 263.368256 202.805008 264.368225 201.805038 265.601776 201.805038 Z"/>
                <path id="path160" fill="none" stroke="#dddddd" stroke-width="2.791892" d="M 274.863434 213.233154 C 274.863434 215.313705 276.550079 217.000381 278.630615 217.000381 C 280.711182 217.000381 282.397827 215.313705 282.397827 213.233154 C 282.397827 211.152603 280.711182 209.466019 278.630615 209.466019 C 276.550079 209.466019 274.863434 211.152603 274.863434 213.233154 M 274.684753 220.938766 C 274.684753 223.118027 276.451355 224.884674 278.630615 224.884674 C 280.809875 224.884674 282.576477 223.118027 282.576477 220.938766 C 282.576477 218.759598 280.809875 216.99295 278.630615 216.99295 C 276.451355 216.99295 274.684753 218.759598 274.684753 220.938766"/>
            </g>
            <g id="g15">
                <path id="path161" fill="#dddddd" stroke="none" d="M 306.54953 199.571518 L 335.585205 199.571518 C 337.229919 199.571518 338.563263 200.904846 338.563263 202.54953 L 338.563263 231.585205 C 338.563263 233.229904 337.229919 234.563232 335.585205 234.563232 L 306.54953 234.563232 C 304.904785 234.563232 303.571533 233.229904 303.571533 231.585205 L 303.571533 202.54953 C 303.571533 200.904846 304.904785 199.571518 306.54953 199.571518 Z"/>
                <path id="path162" fill="#333333" stroke="none" d="M 308.038574 201.805038 L 334.096222 201.805038 C 335.329773 201.805038 336.329742 202.805008 336.329742 204.038544 L 336.329742 230.096207 C 336.329742 231.329742 335.329773 232.329712 334.096222 232.329712 L 308.038574 232.329712 C 306.805023 232.329712 305.805054 231.329742 305.805054 230.096207 L 305.805054 204.038544 C 305.805054 202.805008 306.805023 201.805038 308.038574 201.805038 Z"/>
                <path id="path163" fill="none" stroke="#dddddd" stroke-width="2.791892" d="M 316.76413 220.551682 C 316.763947 221.634644 317.220856 222.667435 318.0224 223.39566 C 318.710297 224.051727 319.673981 224.332657 320.60672 224.149078 C 321.539429 223.9655 322.324707 223.340317 322.712708 222.472488 C 324.344025 218.626907 324.408112 214.296188 322.891388 210.404099 C 322.416626 209.35405 321.371033 208.679337 320.218658 208.679337 C 319.066254 208.679337 318.02066 209.35405 317.545868 210.404099 C 316.569916 212.5569 316.569916 215.026169 317.545868 217.179077 C 318.122467 218.124527 319.16687 218.682434 320.273254 218.635986 C 321.37973 218.589645 322.373718 217.946198 322.86911 216.955673 C 323.685425 215.065887 323.767761 212.939514 323.099854 210.992188"/>
            </g>
            <g id="g16">
                <path id="path164" fill="#dddddd" stroke="none" d="M 348.986298 199.571518 L 378.022003 199.571518 C 379.666687 199.571518 381 200.904846 381 202.54953 L 381 231.585205 C 381 233.229904 379.666687 234.563232 378.022003 234.563232 L 348.986298 234.563232 C 347.341614 234.563232 346.008301 233.229904 346.008301 231.585205 L 346.008301 202.54953 C 346.008301 200.904846 347.341614 199.571518 348.986298 199.571518 Z"/>
                <path id="path165" fill="#d0d0d0" stroke="none" d="M 350.475311 201.805038 L 376.532959 201.805038 C 377.76651 201.805038 378.766479 202.805008 378.766479 204.038544 L 378.766479 230.096207 C 378.766479 231.329742 377.76651 232.329712 376.532959 232.329712 L 350.475311 232.329712 C 349.24176 232.329712 348.241791 231.329742 348.241791 230.096207 L 348.241791 204.038544 C 348.241791 202.805008 349.24176 201.805038 350.475311 201.805038 Z"/>
                <path id="path166" fill="none" stroke="#333333" stroke-width="2.791892" d="M 368.559357 214.863663 C 368.561005 213.516525 368.178833 212.19693 367.45752 211.059265 C 366.829407 210.068558 365.738007 209.468277 364.565094 209.468277 C 363.39209 209.468277 362.30069 210.068558 361.672699 211.059265 C 359.208618 214.931732 359.208618 219.880539 361.672699 223.753021 C 362.27124 224.693466 363.308838 225.262909 364.423584 225.262909 C 365.538422 225.262909 366.575928 224.693466 367.174591 223.753021 C 368.12085 222.270004 368.603058 220.538345 368.559357 218.77977"/>
            </g>
            <g id="g17">
                <path id="path167" fill="#dddddd" stroke="none" d="M 221.676025 242.00827 L 250.7117 242.00827 C 252.356415 242.00827 253.689713 243.341614 253.689713 244.986298 L 253.689713 274.021973 C 253.689713 275.666687 252.356415 277 250.7117 277 L 221.676025 277 C 220.031296 277 218.697998 275.666687 218.697998 274.021973 L 218.697998 244.986298 C 218.697998 243.341614 220.031296 242.00827 221.676025 242.00827 Z"/>
                <path id="path168" fill="#d0d0d0" stroke="none" d="M 223.165024 244.241791 L 249.222687 244.241791 C 250.456223 244.241791 251.456192 245.24176 251.456192 246.475311 L 251.456192 272.532959 C 251.456192 273.76651 250.456223 274.766479 249.222687 274.766479 L 223.165024 274.766479 C 221.931488 274.766479 220.931519 273.76651 220.931519 272.532959 L 220.931519 246.475311 C 220.931519 245.24176 221.931488 244.241791 223.165024 244.241791 Z"/>
                <path id="path169" fill="none" stroke="#333333" stroke-width="1.675135" d="M 232.605347 254.389404 L 239.127213 264.946533 M 232.605347 264.946533 L 239.127213 254.389404 M 241.866974 259.667908 L 229.858109 259.667908"/>
            </g>
            <g id="g18">
                <path id="path170" fill="#dddddd" stroke="none" d="M 264.112793 242.00827 L 293.148468 242.00827 C 294.793213 242.00827 296.126465 243.341614 296.126465 244.986298 L 296.126465 274.021973 C 296.126465 275.666687 294.793213 277 293.148468 277 L 264.112793 277 C 262.468048 277 261.134735 275.666687 261.134735 274.021973 L 261.134735 244.986298 C 261.134735 243.341614 262.468048 242.00827 264.112793 242.00827 Z"/>
                <path id="path171" fill="#333333" stroke="none" d="M 265.601776 244.241791 L 291.659424 244.241791 C 292.892975 244.241791 293.892944 245.24176 293.892944 246.475311 L 293.892944 272.532959 C 293.892944 273.76651 292.892975 274.766479 291.659424 274.766479 L 265.601776 274.766479 C 264.368225 274.766479 263.368256 273.76651 263.368256 272.532959 L 263.368256 246.475311 C 263.368256 245.24176 264.368225 244.241791 265.601776 244.241791 Z"/>
                <path id="path172" fill="none" stroke="#dddddd" stroke-width="2.791892" d="M 274.476257 259.50415 C 274.476257 263.722778 276.336243 267.142761 278.630615 267.142761 C 280.924988 267.142761 282.784943 263.722778 282.784943 259.50415 C 282.784943 255.285492 280.924988 251.865509 278.630615 251.865509 C 276.336243 251.865509 274.476257 255.285492 274.476257 259.50415"/>
            </g>
            <g id="g19">
                <path id="path173" fill="#dddddd" stroke="none" d="M 306.54953 242.00827 L 335.585205 242.00827 C 337.229919 242.00827 338.563263 243.341614 338.563263 244.986298 L 338.563263 274.021973 C 338.563263 275.666687 337.229919 277 335.585205 277 L 306.54953 277 C 304.904785 277 303.571533 275.666687 303.571533 274.021973 L 303.571533 244.986298 C 303.571533 243.341614 304.904785 242.00827 306.54953 242.00827 Z"/>
                <path id="path174" fill="#d0d0d0" stroke="none" d="M 308.038574 244.241791 L 334.096222 244.241791 C 335.329773 244.241791 336.329742 245.24176 336.329742 246.475311 L 336.329742 272.532959 C 336.329742 273.76651 335.329773 274.766479 334.096222 274.766479 L 308.038574 274.766479 C 306.805023 274.766479 305.805054 273.76651 305.805054 272.532959 L 305.805054 246.475311 C 305.805054 245.24176 306.805023 244.241791 308.038574 244.241791 Z"/>
                <path id="path175" fill="none" stroke="#333333" stroke-width="1.675135" d="M 318.431793 266.100433 L 320.218658 253.510834 M 321.93103 266.100433 L 323.717865 253.510834 M 316.793915 257.546082 L 325.281311 257.546082 M 316.793915 261.879059 L 325.281311 261.879059"/>
            </g>
            <g id="g20">
                <path id="path176" fill="#dddddd" stroke="none" d="M 348.986298 242.00827 L 378.022003 242.00827 C 379.666687 242.00827 381 243.341614 381 244.986298 L 381 274.021973 C 381 275.666687 379.666687 277 378.022003 277 L 348.986298 277 C 347.341614 277 346.008301 275.666687 346.008301 274.021973 L 346.008301 244.986298 C 346.008301 243.341614 347.341614 242.00827 348.986298 242.00827 Z"/>
                <path id="path177" fill="#d0d0d0" stroke="none" d="M 350.475311 244.241791 L 376.532959 244.241791 C 377.76651 244.241791 378.766479 245.24176 378.766479 246.475311 L 378.766479 272.532959 C 378.766479 273.76651 377.76651 274.766479 376.532959 274.766479 L 350.475311 274.766479 C 349.24176 274.766479 348.241791 273.76651 348.241791 272.532959 L 348.241791 246.475311 C 348.241791 245.24176 349.24176 244.241791 350.475311 244.241791 Z"/>
                <path id="path178" fill="none" stroke="#333333" stroke-width="2.791892" d="M 360.042175 252.260117 L 360.042175 267.023621 L 363.459442 267.023621 C 365.321167 267.026245 366.965454 265.811066 367.509583 264.030701 C 368.37677 261.194458 368.37677 258.163727 367.509583 255.327469 C 366.957642 253.503662 365.275604 252.257294 363.370087 252.260117 Z"/>
            </g>
        </g>
        <g id="-">
            <path id="path130" fill="none" stroke="#bebcb8" stroke-width="2.225216" stroke-linecap="round" stroke-linejoin="round" d="M 310.230774 74.326935 L 310.230774 85.634613"/>
            <path id="path180" fill="none" stroke="#bebcb8" stroke-width="2.225216" stroke-linecap="round" stroke-linejoin="round" d="M 303.230774 74.326935 L 303.230774 85.634613"/>
            <path id="--2" fill="none" stroke="#bebcb8" stroke-width="2.225216" stroke-linecap="round" stroke-linejoin="round" d="M 296.230774 74.326935 L 296.230774 85.634613"/>
            <path id="--3" fill="none" stroke="#bebcb8" stroke-width="2.225216" stroke-linecap="round" stroke-linejoin="round" d="M 289.769226 74.326935 L 289.769226 85.634613"/>
            <path id="path181" fill="#f1ebd3" fill-rule="evenodd" stroke="none" d="M 279 53.865387 L 279 78.096161 L 321 78.096161 L 321 53.865387 Z"/>
        </g>
        <g id="g21">
            <path id="--8" fill="none" stroke="#bebcb8" stroke-width="0.86593" stroke-linecap="round" stroke-linejoin="round" d="M 331 75.01767 L 331 72.077728"/>
            <path id="--9" fill="none" stroke="#bebcb8" stroke-width="0.86593" stroke-linecap="round" stroke-linejoin="round" d="M 334 75.01767 L 334 72.077728"/>
            <path id="--10" fill="none" stroke="#bebcb8" stroke-width="0.86593" stroke-linecap="round" stroke-linejoin="round" d="M 337 75.01767 L 337 72.077728"/>
            <path id="--11" fill="none" stroke="#bebcb8" stroke-width="0.86593" stroke-linecap="round" stroke-linejoin="round" d="M 340.02475 75.01767 L 340.02475 72.077728"/>
            <path id="--15" fill="none" stroke="#bebcb8" stroke-width="0.86593" stroke-linecap="round" stroke-linejoin="round" d="M 331 91.922272 L 331 88.98233"/>
            <path id="--14" fill="none" stroke="#bebcb8" stroke-width="0.86593" stroke-linecap="round" stroke-linejoin="round" d="M 334 91.922272 L 334 88.98233"/>
            <path id="--13" fill="none" stroke="#bebcb8" stroke-width="0.86593" stroke-linecap="round" stroke-linejoin="round" d="M 337 91.922272 L 337 88.98233"/>
            <path id="--12" fill="none" stroke="#bebcb8" stroke-width="0.86593" stroke-linecap="round" stroke-linejoin="round" d="M 340.02475 91.922272 L 340.02475 88.98233"/>
            <path id="--23" fill="none" stroke="#bebcb8" stroke-width="0.86593" stroke-linecap="round" stroke-linejoin="round" d="M 343 75.01767 L 343 72.077728"/>
            <path id="--22" fill="none" stroke="#bebcb8" stroke-width="0.86593" stroke-linecap="round" stroke-linejoin="round" d="M 346 75.01767 L 346 72.077728"/>
            <path id="--21" fill="none" stroke="#bebcb8" stroke-width="0.86593" stroke-linecap="round" stroke-linejoin="round" d="M 348.991516 75.01767 L 348.991516 72.077728"/>
            <path id="--20" fill="none" stroke="#bebcb8" stroke-width="0.86593" stroke-linecap="round" stroke-linejoin="round" d="M 352 75.01767 L 352 72.077728"/>
            <path id="--19" fill="none" stroke="#bebcb8" stroke-width="0.86593" stroke-linecap="round" stroke-linejoin="round" d="M 343 91.922272 L 343 88.98233"/>
            <path id="--18" fill="none" stroke="#bebcb8" stroke-width="0.86593" stroke-linecap="round" stroke-linejoin="round" d="M 346 91.922272 L 346 88.98233"/>
            <path id="--17" fill="none" stroke="#bebcb8" stroke-width="0.86593" stroke-linecap="round" stroke-linejoin="round" d="M 348.991516 91.922272 L 348.991516 88.98233"/>
            <path id="--16" fill="none" stroke="#bebcb8" stroke-width="0.86593" stroke-linecap="round" stroke-linejoin="round" d="M 352 91.922272 L 352 88.98233"/>
            <path id="path182" fill="#292d2f" fill-rule="evenodd" stroke="none" d="M 329 88.98233 L 355 88.98233 L 355 75.01767 L 329 75.01767 Z"/>
        </g>
    </g>
</svg>
