<?xml version="1.0" encoding="UTF-8"?>
<!-- Generated by Pixelmator Pro 3.6.17 -->
<svg width="600" height="370" viewBox="0 0 600 370" xmlns="http://www.w3.org/2000/svg">
    <path id="path1" fill="#672687" stroke="none" d="M -70 369.999634 L -70 0 L 669.999268 0 L 669.999268 369.999634 Z"/>
    <path id="path2" fill="#5c1f79" stroke="none" d="M 415.517609 369.999695 L 669.999268 115.518066 L 669.999268 369.999695 Z"/>
    <path id="path3" fill="#581d75" stroke="none" d="M -70 115.518387 L 184.481598 370 L -70 370 Z"/>
    <path id="path4" fill="#5e217c" stroke="none" d="M -33.000038 369.999695 L 336.999603 9.2e-05 L 658.899231 9.2e-05 L 288.899628 369.999695 Z"/>
    <path id="path5" fill="#571d74" stroke="none" d="M 509.666077 369.999695 L 139.666458 9.2e-05 L 280.266296 9.2e-05 L 650.26593 369.999695 Z"/>
    <g id="g1">
        <path id="path6" fill="#ffffff" stroke="none" d="M 234.69606 192.221893 L 236.79541 197.207855 L 241.256546 187.367142 L 264.568115 142.099854 L 267.717133 140.875229 L 285.211731 140.875229 L 285.211731 226.861221 L 267.629639 226.861221 L 267.979553 169.653854 L 245.192841 213.871475 C 244.493042 215.271042 243.530853 216.276978 242.34996 217.020508 C 241.169067 217.720276 239.769501 218.070175 238.238724 218.070175 L 235.527054 218.070175 C 233.996277 218.070175 232.640442 217.720276 231.415848 217.020508 C 230.23494 216.320724 229.272736 215.271042 228.572968 213.871475 L 205.567551 169.566376 L 206.048645 226.904953 L 188.466553 226.904953 L 188.466553 140.918945 L 205.961166 140.918945 L 209.110214 142.143585 Z"/>
        <path id="path7" fill="#ffffff" stroke="none" d="M 379.50769 183.86821 C 379.50769 187.585815 379.114075 191.128479 378.370544 194.539917 C 377.583282 197.951385 376.489868 201.144135 375.0466 204.11824 C 373.603241 207.092316 371.85379 209.891449 369.710724 212.428162 C 367.611389 215.008621 365.205872 217.239182 362.537903 219.207336 L 384.318695 243 L 367.917511 243 C 365.555725 243 363.412628 242.693848 361.488251 242.125275 C 359.563843 241.556686 357.858093 240.41954 356.371094 238.670074 L 345.65564 226.730011 L 334.852692 227.867157 C 328.161041 227.867157 322.081635 226.730011 316.570862 224.499451 C 311.060028 222.268875 306.336487 219.163589 302.443939 215.183578 C 298.50766 211.247284 295.489838 206.567474 293.346741 201.231628 C 291.203644 195.895767 290.110229 190.078796 290.110229 183.86821 C 290.110229 177.657639 291.203644 171.884415 293.346741 166.504822 C 295.489838 161.168976 298.50766 156.489151 302.443939 152.552872 C 306.380249 148.616577 311.060028 145.511276 316.570862 143.280731 C 322.081635 141.050171 328.161041 139.913025 334.852692 139.913025 C 341.544403 139.913025 347.623779 141.050171 353.134583 143.324463 C 358.645386 145.598755 363.325165 148.704056 367.217712 152.64035 C 371.110291 156.57663 374.128082 161.212692 376.271179 166.592285 C 378.414276 171.928146 379.50769 177.657639 379.50769 183.86821 Z M 359.082764 183.86821 C 359.082764 179.625778 358.51416 175.776962 357.420746 172.365509 C 356.327332 168.954056 354.752838 166.067459 352.653473 163.705673 C 350.59787 161.343918 348.061127 159.55072 345.087067 158.282349 C 342.112946 157.013992 338.701508 156.401688 334.852692 156.401688 C 331.003876 156.401688 327.548706 157.013992 324.530914 158.282349 C 321.513062 159.55072 318.976349 161.343918 316.920746 163.705673 C 314.865112 166.067459 313.290619 168.954056 312.153442 172.365509 C 311.060028 175.776962 310.491455 179.582047 310.491455 183.86821 C 310.491455 188.154404 311.060028 192.00322 312.153442 195.414658 C 313.246857 198.826111 314.821381 201.712723 316.920746 204.074493 C 318.976349 206.436264 321.513062 208.229462 324.530914 209.497818 C 327.548706 210.722443 330.960144 211.378494 334.852692 211.378494 C 338.657776 211.378494 342.069244 210.766174 345.087067 209.497818 C 348.061127 208.273193 350.59787 206.436264 352.653473 204.074493 C 354.709106 201.712723 356.2836 198.826111 357.420746 195.414658 C 358.51416 192.00322 359.082764 188.154404 359.082764 183.86821 Z"/>
        <path id="path8" fill="#ffffff" stroke="none" d="M 443.581696 140.875229 L 443.581696 156.707825 L 420.270111 156.707825 L 420.270111 226.904953 L 400.326294 226.904953 L 400.326294 156.707825 L 377.014709 156.707825 L 377.014709 140.875229 Z"/>
        <path id="path9" fill="#ffffff" stroke="none" d="M 519.901917 140.875229 L 519.901917 156.707825 L 495.715607 156.707825 L 495.715607 226.904953 L 475.771759 226.904953 L 475.771759 156.707825 L 452.460236 156.707825 L 452.460236 140.875229 Z"/>
        <path id="path10" fill="#ffffff" stroke="none" d="M 80.262421 189.55397 L 80 223.4935 C 80 225.942749 82.011879 227.954636 84.461128 227.954636 L 119.406593 227.954636 C 119.100449 206.742416 101.649567 189.55397 80.262421 189.55397 Z"/>
        <path id="path11" fill="#ffffff" stroke="none" d="M 80.262421 161.562592 L 80 175.995651 C 108.822372 176.126862 132.265137 199.30722 132.571304 227.954636 L 147.52919 227.954636 C 147.266769 191.303421 117.176041 161.562592 80.262421 161.562592 Z"/>
        <path id="path12" fill="#ffffff" stroke="none" d="M 168.741394 223.537247 L 168.741394 192.877945 C 158.594528 168.035599 138.169571 148.441635 112.714912 139.256973 L 84.461128 139.256973 C 82.011879 139.256973 80 141.26886 80 143.718094 L 80 148.004272 C 124.348824 148.135483 160.431458 183.86821 160.693893 227.954636 L 164.280273 227.954636 C 166.729523 227.954636 168.741394 225.986481 168.741394 223.537247 Z"/>
        <path id="path13" fill="#ffffff" stroke="none" d="M 157.063751 151.634399 C 161.174973 155.745636 165.373688 160.950272 168.741394 165.542618 L 168.741394 143.674347 C 168.741394 141.225098 166.773254 139.256973 164.324005 139.256973 L 141.799698 139.256973 C 147.004333 142.887085 152.427673 147.042068 157.063751 151.634399 Z"/>
    </g>
</svg>
