<?xml version="1.0" encoding="UTF-8"?>
<!-- Generated by Pixelmator Pro 3.6.17 -->
<svg width="80" height="80" viewBox="0 0 80 80" xmlns="http://www.w3.org/2000/svg">
    <g id="g6666-">
        <linearGradient id="linearGradient1" x1="49.64828" y1="28.809281" x2="67.379173" y2="9.548903" gradientUnits="userSpaceOnUse">
            <stop offset="1e-05" stop-color="#ffffff" stop-opacity="1"/>
            <stop offset="1" stop-color="#ffffff" stop-opacity="0"/>
        </linearGradient>
        <clipPath id="clipPath1">
            <path d="M 18.372227 12.217842 L 62.083094 12.217842 C 66.019869 12.217842 69.211275 15.589531 69.211275 19.748764 L 69.211275 61.655636 C 69.211275 65.814865 66.019869 69.186554 62.083094 69.186554 L 18.372227 69.186554 C 14.435455 69.186554 11.244051 65.814865 11.244051 61.655636 L 11.244051 19.748764 C 11.244051 15.589531 14.435455 12.217842 18.372227 12.217842 Z"/>
        </clipPath>
        <filter id="filter1" x="0" y="0" width="80" height="80" filterUnits="userSpaceOnUse" primitiveUnits="userSpaceOnUse" color-interpolation-filters="sRGB">
            <feGaussianBlur stdDeviation="0.428845"/>
        </filter>
        <path id="rect5036" fill="url(#linearGradient1)" stroke="none" clip-path="url(#clipPath1)" filter="url(#filter1)" d="M 10.715894 12.307655 L 64.738129 12.307655 L 64.738129 69.492577 L 10.715894 69.492577 Z"/>
        <linearGradient id="linearGradient2" x1="25.933115" y1="50.573666" x2="77.92424" y2="6.426924" gradientUnits="userSpaceOnUse">
            <stop offset="1e-05" stop-color="#8d89c2" stop-opacity="1"/>
            <stop offset="1" stop-color="#fffff9" stop-opacity="0.982759"/>
        </linearGradient>
        <clipPath id="clipPath2">
            <path d="M 18.691599 12.217834 L 61.763708 12.217834 C 65.876883 12.217834 69.211256 15.589569 69.211256 19.748787 L 69.211256 61.655628 C 69.211256 65.81485 65.876883 69.186584 61.763708 69.186584 L 18.691599 69.186584 C 14.578424 69.186584 11.244047 65.81485 11.244047 61.655628 L 11.244047 19.748787 C 11.244047 15.589569 14.578424 12.217834 18.691599 12.217834 Z"/>
        </clipPath>
        <filter id="filter2" x="0" y="0" width="80" height="80" filterUnits="userSpaceOnUse" primitiveUnits="userSpaceOnUse" color-interpolation-filters="sRGB">
            <feGaussianBlur stdDeviation="0.428687"/>
        </filter>
        <path id="rect6113" fill="url(#linearGradient2)" stroke="none" clip-path="url(#clipPath2)" filter="url(#filter2)" d="M 6.973675 12.499405 L 68.396721 12.499405 L 68.396721 74.730171 L 6.973675 74.730171 Z"/>
        <linearGradient id="linearGradient3" x1="69.567658" y1="10.868287" x2="39.10682" y2="41.144141" gradientUnits="userSpaceOnUse">
            <stop offset="1e-05" stop-color="#8d89c2" stop-opacity="1"/>
            <stop offset="1" stop-color="#fffff9" stop-opacity="0.982759"/>
        </linearGradient>
        <clipPath id="clipPath3">
            <path d="M 18.747747 12.217819 L 61.707628 12.217819 C 65.851786 12.217819 69.211313 15.589531 69.211313 19.748741 L 69.211313 61.655621 C 69.211313 65.814835 65.851786 69.186546 61.707628 69.186546 L 18.747747 69.186546 C 14.603594 69.186546 11.244066 65.814835 11.244066 61.655621 L 11.244066 19.748741 C 11.244066 15.589531 14.603594 12.217819 18.747747 12.217819 Z"/>
        </clipPath>
        <filter id="filter3" x="0" y="0" width="80" height="80" filterUnits="userSpaceOnUse" primitiveUnits="userSpaceOnUse" color-interpolation-filters="sRGB">
            <feGaussianBlur stdDeviation="0.428681"/>
        </filter>
        <path id="path5872" fill="url(#linearGradient3)" stroke="#807ead" stroke-width="2" stroke-linejoin="round" clip-path="url(#clipPath3)" filter="url(#filter3)" d="M 9.734156 -3.532745 C 51.000248 -3.532745 84.48378 29.982868 84.594048 71.398712 L 9.734156 71.599411 Z"/>
        <linearGradient id="linearGradient4" x1="57.604236" y1="23.737031" x2="26.967412" y2="53.536608" gradientUnits="userSpaceOnUse">
            <stop offset="1e-05" stop-color="#8d89c2" stop-opacity="1"/>
            <stop offset="1" stop-color="#fffff9" stop-opacity="0.982759"/>
        </linearGradient>
        <clipPath id="clipPath4">
            <path d="M 18.389246 12.217812 L 62.066001 12.217812 C 66.012252 12.217812 69.211211 15.589523 69.211211 19.748722 L 69.211211 61.655624 C 69.211211 65.814842 66.012252 69.186539 62.066001 69.186539 L 18.389246 69.186539 C 14.443073 69.186539 11.244033 65.814842 11.244033 61.655624 L 11.244033 19.748722 C 11.244033 15.589523 14.443073 12.217812 18.389246 12.217812 Z"/>
        </clipPath>
        <filter id="filter4" x="0" y="0" width="80" height="80" filterUnits="userSpaceOnUse" primitiveUnits="userSpaceOnUse" color-interpolation-filters="sRGB">
            <feGaussianBlur stdDeviation="0.428831"/>
        </filter>
        <path id="path5876" fill="url(#linearGradient4)" stroke="#807ead" stroke-width="2" stroke-linejoin="round" clip-path="url(#clipPath4)" filter="url(#filter4)" d="M 10.102884 9.680115 C 43.569958 9.680115 70.725327 38.224941 70.814751 73.498291 L 10.102884 73.66922 Z"/>
        <linearGradient id="linearGradient5" x1="44.73685" y1="34.448092" x2="19.500811" y2="57.619667" gradientUnits="userSpaceOnUse">
            <stop offset="1e-05" stop-color="#8d89c2" stop-opacity="1"/>
            <stop offset="1" stop-color="#fffff9" stop-opacity="0.982759"/>
        </linearGradient>
        <clipPath id="clipPath5">
            <path d="M 18.508251 12.217819 L 61.947067 12.217819 C 65.958977 12.217819 69.211273 15.589523 69.211273 19.748734 L 69.211273 61.655624 C 69.211273 65.81485 65.958977 69.186546 61.947067 69.186546 L 18.508251 69.186546 C 14.496347 69.186546 11.244049 65.81485 11.244049 61.655624 L 11.244049 19.748734 C 11.244049 15.589523 14.496347 12.217819 18.508251 12.217819 Z"/>
        </clipPath>
        <filter id="filter5" x="0" y="0" width="80" height="80" filterUnits="userSpaceOnUse" primitiveUnits="userSpaceOnUse" color-interpolation-filters="sRGB">
            <feGaussianBlur stdDeviation="0.428752"/>
        </filter>
        <path id="path5026" fill="url(#linearGradient5)" stroke="#807ead" stroke-width="2" stroke-linejoin="round" clip-path="url(#clipPath5)" filter="url(#filter5)" d="M 9.630861 24.294209 C 34.171803 24.294209 54.084454 44.882942 54.150024 70.324806 L 9.630861 70.44809 Z"/>
        <linearGradient id="linearGradient6" x1="31.109546" y1="48.714003" x2="10.704685" y2="69.495544" gradientUnits="userSpaceOnUse">
            <stop offset="1e-05" stop-color="#6f1171" stop-opacity="1"/>
            <stop offset="1" stop-color="#bea1c7" stop-opacity="1"/>
        </linearGradient>
        <clipPath id="clipPath6">
            <path d="M 18.635492 12.217819 L 61.819844 12.217819 C 65.902017 12.217819 69.211228 15.589523 69.211228 19.748741 L 69.211228 61.655624 C 69.211228 65.814842 65.902017 69.186546 61.819844 69.186546 L 18.635492 69.186546 C 14.553313 69.186546 11.244058 65.814842 11.244058 61.655624 L 11.244058 19.748741 C 11.244058 15.589523 14.553313 12.217819 18.635492 12.217819 Z"/>
        </clipPath>
        <filter id="filter6" x="0" y="0" width="80" height="80" filterUnits="userSpaceOnUse" primitiveUnits="userSpaceOnUse" color-interpolation-filters="sRGB">
            <feGaussianBlur stdDeviation="0.4287"/>
        </filter>
        <path id="path5849" fill="url(#linearGradient6)" stroke="none" clip-path="url(#clipPath6)" filter="url(#filter6)" d="M 9.037301 37.328037 C 27.385347 37.328037 42.273052 52.456253 42.322075 71.150459 L 9.037301 71.241051 Z"/>
        <path id="rect6215-8" fill="none" stroke="#6f1171" stroke-width="1.451218" stroke-linecap="round" stroke-linejoin="round" d="M 18.255014 11.819923 L 61.152168 11.819923 C 65.313652 11.819923 68.687195 15.19165 68.687195 19.350834 L 68.687195 61.257717 C 68.687195 65.416962 65.313652 68.788681 61.152168 68.788681 L 18.255014 68.788681 C 14.09353 68.788681 10.719989 65.416962 10.719989 61.257717 L 10.719989 19.350834 C 10.719989 15.19165 14.09353 11.819923 18.255014 11.819923 Z"/>
    </g>
</svg>
