<?xml version="1.0" encoding="UTF-8"?>
<!-- Generated by Pixelmator Pro 3.7.1 -->
<svg width="600" height="370" viewBox="0 0 600 370" xmlns="http://www.w3.org/2000/svg">
    <path id="path1" fill="#ff6161" stroke="none" d="M 2e-05 370 L 2e-05 0 L 600 0 C 600 0 600 162.245422 600 229.399994 C 600 281.97406 600 370 600 370 Z"/>
    <g id="g1">
        <path id="path2" fill="#ffffff" fill-opacity="0.73333" fill-rule="evenodd" stroke="none" opacity="0.1" d="M 377.768707 28.816803 C 370.870697 51.420502 301.083954 63.779144 299.821106 83.49292 C 298.556946 103.208496 370.697937 59.486237 375.858154 71.069519 C 381.018402 82.653717 301.354004 141.167419 259.191895 158.272049 C 233.785797 168.578217 213.743484 154.013077 242.995193 131.469666 C 262.565674 116.388031 253.354935 103.428558 235.347702 112.292908 C 217.340454 121.159027 207.759674 98.295105 232.637238 78.754517 C 257.514374 59.214844 385.572418 3.236176 377.768707 28.816803 Z M 188.433823 87.018494 C 169.115097 115.841675 132.182846 97.860779 155.59137 67.635498 C 176.304596 40.895599 242.834503 13.182129 246.085556 28.065094 C 248.472824 38.994873 211.162491 53.105164 188.433823 87.018494 Z M 29.561239 28.84494 C 61.010071 -1.664246 87.575432 -31.398956 106.282158 -30.478943 C 125.71917 -29.522797 108.358299 7.675507 75.355148 36.211212 C 51.972519 56.428955 74.807426 66.688263 97.230766 54.616608 C 124.329117 40.029144 145.452133 49.789825 110.47908 81.775696 C 75.506027 113.763306 22.402531 137.30127 -6.5635 131.266113 C -35.528191 125.230972 34.12196 106.79834 36.88599 82.381866 C 39.60091 58.390381 -2.64021 106.823761 -24.66493 90.711884 C -46.042389 75.074982 0.35236 57.179321 29.56167 28.845367 Z M 382.017426 119.552032 C 378.465973 102.180023 421.812347 47.445862 474.968506 33.015533 C 528.401001 18.511078 578.637329 12.870544 580.79248 25.415802 C 582.932495 37.887848 549.042786 47.309265 506.942749 67.493988 C 486.587524 77.252014 508.123444 85.4758 521.37439 80.204407 C 565.201538 62.771667 561.777771 89.411591 524.774109 108.193756 C 495.859406 122.871384 471.401886 130.570221 456.913055 134.10202 C 435.899414 139.224747 431.519012 125.651917 443.516541 117.992828 C 466.935333 103.041992 455.674347 89.241516 434.710693 100.842651 C 421.432922 108.190613 387.763306 147.648972 382.017426 119.552048 Z M 362.459869 134.480103 C 374.886383 129.506012 378.110199 138.622559 378.110199 145.988388 C 378.110199 153.356003 365.681885 156.116898 358.776276 151.973541 C 351.870697 147.83107 353.805756 137.942261 362.459869 134.479645 Z M 12.75609 165.90126 C 17.495819 154.93219 70.627892 153.17923 110.137123 117.747299 C 124.35186 104.998932 141.776108 120.570709 137.640335 132.520905 C 133.506348 144.470673 120.871834 147.620377 101.096451 155.308502 C 81.322861 162.997955 106.467369 173.246552 139.094223 157.850677 C 157.757202 149.045685 177.753983 163.888947 155.219482 179.175446 C 136.383759 191.951035 92.984261 195.613647 94.169868 206.572876 C 94.825607 212.659363 126.330688 198.017883 132.055603 211.138519 C 136.814972 222.042847 125.537018 234.573822 94.022568 237.118225 C 61.91621 239.710388 36.946232 233.106537 36.572609 217.334366 C 36.149441 199.477997 73.817772 194.639175 56.893021 189.118713 C 39.873638 183.571014 4.40286 185.239166 12.75609 165.901688 Z M 203.451599 127.689667 C 209.796997 132.102203 209.994293 137.728912 203.249832 145.534866 C 194.506454 155.657578 179.914078 155.187088 175.628326 151.485199 C 171.34256 147.782867 181.031387 138.196274 184.730133 132.672684 C 188.429794 127.150879 195.282272 122.009842 203.451599 127.689667 Z M 203.061905 188.501816 C 240.682037 179.508469 261.850128 194.585617 253.424133 204.887329 C 244.322327 216.011292 222.536423 215.98584 220.824524 237.765488 C 217.625275 278.517029 177.539307 285.728394 194.643494 257.277954 C 200.634903 247.310135 191.837067 240.993759 186.679962 253.738083 C 183.565964 261.429321 168.797714 271.984131 160.99353 275.886902 C 125.574089 293.59549 97.333443 267.866211 122.666771 260.715576 C 139.151382 256.063324 153.960709 244.873734 163.420532 219.249374 C 168.460236 205.594406 186.537567 192.452774 203.061905 188.502258 Z M 90.969757 271.083344 C 105.229584 289.313782 61.176128 290.332428 44.90712 295.808716 C 28.63722 301.285858 62.164429 304.066406 91.658531 303.759735 C 121.155762 303.453094 116.692337 326.105865 83.166924 337.203033 C 31.65881 354.249664 -14.25697 336.546844 25.212099 325.23587 C 39.931702 321.014832 29.46884 308.840088 13.12975 310.596161 C -17.724489 313.912811 -40.59288 298.683899 -35.400509 286.786804 C -29.540791 273.359924 -15.04082 282.398804 -0.37746 283.402283 C 14.28634 284.406677 1.59378 270.034363 -17.393721 260.137939 C -50.008072 243.139557 -22.723579 214.227097 5.28183 240.364822 C 45.182991 277.60553 80.292641 257.432861 90.969322 271.083374 Z M 238.911224 315.28009 C 217.856049 358.275146 174.627075 354.050995 180.696152 339.374695 C 186.763885 324.698853 161.801056 336.654877 150.237854 333.97879 C 138.676437 331.305817 131.819946 311.20636 174.75296 307.337524 C 227.648438 302.568329 228.884933 250.391983 246.549347 261.286926 C 258.695526 268.77597 246.716293 299.342743 238.910767 315.280518 Z M 554.692749 120.706848 C 589.957275 114.645798 597.767273 126.788849 583.085144 136.507599 C 573.980652 142.536499 538.526855 161.761902 564.420837 163.645218 C 590.31842 165.528976 571.018433 190.150314 540.606079 213.071381 C 510.194672 235.992889 443.753571 248.375656 446.656891 229.045334 C 449.561951 209.715454 527.801025 200.439987 513.712219 180.039673 C 507.593109 171.178894 477.666473 207.929016 464.380219 186.783676 C 451.093079 165.638336 532.585876 124.504257 554.692261 120.706848 Z M 325.169647 156.931122 C 336.42572 147.4021 359.445892 161.162872 338.739777 180.046814 C 333.947388 184.418274 321.628448 188.604034 328.987579 192.918365 C 351.222992 205.950623 418.991638 138.252518 430.202637 160.463379 C 435.593201 171.142731 408.564941 195.026657 379.063232 209.947128 C 357.284485 220.960831 365.22525 241.139297 397.549896 221.258118 C 429.876343 201.376053 435.579803 224.811356 417.673004 240.192062 C 399.76709 255.570969 285.365356 308.837402 277.570526 280.371338 C 271.50415 258.231873 335.420898 262.287292 327.467194 247.983292 C 321.628448 237.486954 277.175934 265.356659 261.440796 247.257477 C 246.212326 229.744385 303.216339 218.140564 299.566254 207.639755 C 296.683929 199.353928 269.407013 211.029175 268.878937 190.744476 C 268.47049 175.022736 297.927094 179.987442 325.169189 156.931122 Z M 483.314606 298.456207 C 490.157715 262.45871 553.562927 228.900253 577.889648 219.876556 C 616.167297 205.684586 656.163574 210.415833 633.585327 222.027695 C 611.00708 233.642227 551.65686 272.098877 582.204407 274.738342 C 597.238708 276.037354 614.23175 287.190765 582.204407 313.644073 C 561.873718 330.437592 491.016571 353.644348 487.14682 338.805573 C 483.276672 323.967224 568.428467 298.160278 541.980042 295.578369 C 515.531677 292.99826 480.117126 315.289459 483.314606 298.456207 Z M 389.945679 285.535095 C 410.605804 275.207947 429.711609 262.700653 451.705505 257.979675 C 480.389435 251.82399 452.098328 290.633728 424.563416 303.224518 C 412.23111 308.863281 426.998016 316.378204 438.864746 310.616669 C 471.111725 294.962799 485.136749 306.988892 451.836304 329.135925 C 443.55719 334.642548 417.97699 347.679718 386.916504 351.662384 C 355.561432 355.684784 356.376068 344.141205 366.078735 339.813934 C 380.032349 333.592194 389.590363 320.102844 352.180054 331.495972 C 285.305542 351.861481 245.691391 348.470276 260.914948 331.495972 C 275.134155 315.644775 323.071167 318.961426 389.945709 285.535095 Z"/>
        <path id="path3" fill="#ffffff" fill-opacity="0.54118" fill-rule="evenodd" stroke="none" opacity="0.1" d="M 377.768707 28.816803 C 370.870697 51.420502 301.083954 63.779144 299.821106 83.49292 C 298.556946 103.208496 370.697937 59.486237 375.858154 71.069519 C 381.018402 82.653717 301.354004 141.167419 259.191895 158.272049 C 233.785797 168.578217 213.743484 154.013077 242.995193 131.469666 C 262.565674 116.388031 253.354935 103.428558 235.347702 112.292908 C 217.340454 121.159027 207.759674 98.295105 232.637238 78.754517 C 257.514374 59.214844 385.572418 3.236176 377.768707 28.816803 Z M 188.433823 87.018494 C 169.115097 115.841675 132.182846 97.860779 155.59137 67.635498 C 176.304596 40.895599 242.834503 13.182129 246.085556 28.065094 C 248.472824 38.994873 211.162491 53.105164 188.433823 87.018494 Z M 29.561239 28.84494 C 61.010071 -1.664246 87.575432 -31.398956 106.282158 -30.478943 C 125.71917 -29.522797 108.358299 7.675507 75.355148 36.211212 C 51.972519 56.428955 74.807426 66.688263 97.230766 54.616608 C 124.329117 40.029144 145.452133 49.789825 110.47908 81.775696 C 75.506027 113.763306 22.402531 137.30127 -6.5635 131.266113 C -35.528191 125.230972 34.12196 106.79834 36.88599 82.381866 C 39.60091 58.390381 -2.64021 106.823761 -24.66493 90.711884 C -46.042389 75.074982 0.35236 57.179321 29.56167 28.845367 Z M 382.017426 119.552032 C 378.465973 102.180023 421.812347 47.445862 474.968506 33.015533 C 528.401001 18.511078 578.637329 12.870544 580.79248 25.415802 C 582.932495 37.887848 549.042786 47.309265 506.942749 67.493988 C 486.587524 77.252014 508.123444 85.4758 521.37439 80.204407 C 565.201538 62.771667 561.777771 89.411591 524.774109 108.193756 C 495.859406 122.871384 471.401886 130.570221 456.913055 134.10202 C 435.899414 139.224747 431.519012 125.651917 443.516541 117.992828 C 466.935333 103.041992 455.674347 89.241516 434.710693 100.842651 C 421.432922 108.190613 387.763306 147.648972 382.017426 119.552048 Z M 362.459869 134.480103 C 374.886383 129.506012 378.110199 138.622559 378.110199 145.988388 C 378.110199 153.356003 365.681885 156.116898 358.776276 151.973541 C 351.870697 147.83107 353.805756 137.942261 362.459869 134.479645 Z M 12.75609 165.90126 C 17.495819 154.93219 70.627892 153.17923 110.137123 117.747299 C 124.35186 104.998932 141.776108 120.570709 137.640335 132.520905 C 133.506348 144.470673 120.871834 147.620377 101.096451 155.308502 C 81.322861 162.997955 106.467369 173.246552 139.094223 157.850677 C 157.757202 149.045685 177.753983 163.888947 155.219482 179.175446 C 136.383759 191.951035 92.984261 195.613647 94.169868 206.572876 C 94.825607 212.659363 126.330688 198.017883 132.055603 211.138519 C 136.814972 222.042847 125.537018 234.573822 94.022568 237.118225 C 61.91621 239.710388 36.946232 233.106537 36.572609 217.334366 C 36.149441 199.477997 73.817772 194.639175 56.893021 189.118713 C 39.873638 183.571014 4.40286 185.239166 12.75609 165.901688 Z M 203.451599 127.689667 C 209.796997 132.102203 209.994293 137.728912 203.249832 145.534866 C 194.506454 155.657578 179.914078 155.187088 175.628326 151.485199 C 171.34256 147.782867 181.031387 138.196274 184.730133 132.672684 C 188.429794 127.150879 195.282272 122.009842 203.451599 127.689667 Z M 203.061905 188.501816 C 240.682037 179.508469 261.850128 194.585617 253.424133 204.887329 C 244.322327 216.011292 222.536423 215.98584 220.824524 237.765488 C 217.625275 278.517029 177.539307 285.728394 194.643494 257.277954 C 200.634903 247.310135 191.837067 240.993759 186.679962 253.738083 C 183.565964 261.429321 168.797714 271.984131 160.99353 275.886902 C 125.574089 293.59549 97.333443 267.866211 122.666771 260.715576 C 139.151382 256.063324 153.960709 244.873734 163.420532 219.249374 C 168.460236 205.594406 186.537567 192.452774 203.061905 188.502258 Z M 90.969757 271.083344 C 105.229584 289.313782 61.176128 290.332428 44.90712 295.808716 C 28.63722 301.285858 62.164429 304.066406 91.658531 303.759735 C 121.155762 303.453094 116.692337 326.105865 83.166924 337.203033 C 31.65881 354.249664 -14.25697 336.546844 25.212099 325.23587 C 39.931702 321.014832 29.46884 308.840088 13.12975 310.596161 C -17.724489 313.912811 -40.59288 298.683899 -35.400509 286.786804 C -29.540791 273.359924 -15.04082 282.398804 -0.37746 283.402283 C 14.28634 284.406677 1.59378 270.034363 -17.393721 260.137939 C -50.008072 243.139557 -22.723579 214.227097 5.28183 240.364822 C 45.182991 277.60553 80.292641 257.432861 90.969322 271.083374 Z M 238.911224 315.28009 C 217.856049 358.275146 174.627075 354.050995 180.696152 339.374695 C 186.763885 324.698853 161.801056 336.654877 150.237854 333.97879 C 138.676437 331.305817 131.819946 311.20636 174.75296 307.337524 C 227.648438 302.568329 228.884933 250.391983 246.549347 261.286926 C 258.695526 268.77597 246.716293 299.342743 238.910767 315.280518 Z M 554.692749 120.706848 C 589.957275 114.645798 597.767273 126.788849 583.085144 136.507599 C 573.980652 142.536499 538.526855 161.761902 564.420837 163.645218 C 590.31842 165.528976 571.018433 190.150314 540.606079 213.071381 C 510.194672 235.992889 443.753571 248.375656 446.656891 229.045334 C 449.561951 209.715454 527.801025 200.439987 513.712219 180.039673 C 507.593109 171.178894 477.666473 207.929016 464.380219 186.783676 C 451.093079 165.638336 532.585876 124.504257 554.692261 120.706848 Z M 325.169647 156.931122 C 336.42572 147.4021 359.445892 161.162872 338.739777 180.046814 C 333.947388 184.418274 321.628448 188.604034 328.987579 192.918365 C 351.222992 205.950623 418.991638 138.252518 430.202637 160.463379 C 435.593201 171.142731 408.564941 195.026657 379.063232 209.947128 C 357.284485 220.960831 365.22525 241.139297 397.549896 221.258118 C 429.876343 201.376053 435.579803 224.811356 417.673004 240.192062 C 399.76709 255.570969 285.365356 308.837402 277.570526 280.371338 C 271.50415 258.231873 335.420898 262.287292 327.467194 247.983292 C 321.628448 237.486954 277.175934 265.356659 261.440796 247.257477 C 246.212326 229.744385 303.216339 218.140564 299.566254 207.639755 C 296.683929 199.353928 269.407013 211.029175 268.878937 190.744476 C 268.47049 175.022736 297.927094 179.987442 325.169189 156.931122 Z M 483.314606 298.456207 C 490.157715 262.45871 553.562927 228.900253 577.889648 219.876556 C 616.167297 205.684586 656.163574 210.415833 633.585327 222.027695 C 611.00708 233.642227 551.65686 272.098877 582.204407 274.738342 C 597.238708 276.037354 614.23175 287.190765 582.204407 313.644073 C 561.873718 330.437592 491.016571 353.644348 487.14682 338.805573 C 483.276672 323.967224 568.428467 298.160278 541.980042 295.578369 C 515.531677 292.99826 480.117126 315.289459 483.314606 298.456207 Z M 389.945679 285.535095 C 410.605804 275.207947 429.711609 262.700653 451.705505 257.979675 C 480.389435 251.82399 452.098328 290.633728 424.563416 303.224518 C 412.23111 308.863281 426.998016 316.378204 438.864746 310.616669 C 471.111725 294.962799 485.136749 306.988892 451.836304 329.135925 C 443.55719 334.642548 417.97699 347.679718 386.916504 351.662384 C 355.561432 355.684784 356.376068 344.141205 366.078735 339.813934 C 380.032349 333.592194 389.590363 320.102844 352.180054 331.495972 C 285.305542 351.861481 245.691391 348.470276 260.914948 331.495972 C 275.134155 315.644775 323.071167 318.961426 389.945709 285.535095 Z"/>
    </g>
    <g id="g2">
        <path id="path179-" fill="#000000" fill-opacity="0.596094" fill-rule="evenodd" stroke="none" d="M 501.175568 260.610687 C 501.175568 255.306763 410.882355 251.00708 299.5 251.00708 C 188.117661 251.00708 97.824425 255.306763 97.824425 260.610687 C 97.824425 265.914612 188.117661 270.214294 299.5 270.214294 C 410.882355 270.214294 501.175568 265.914612 501.175568 260.610687 Z"/>
        <path id="path4" fill="#161817" fill-rule="evenodd" stroke="none" d="M 97.824425 226.801529 C 97.824425 234.183594 103.808777 240.167938 111.190842 240.167938 L 487.809174 240.167938 C 495.191223 240.167938 501.175568 234.183594 501.175568 226.801529 L 501.175568 114.366409 C 501.175568 106.984344 495.191223 101 487.809174 101 L 111.190842 101 C 103.808777 101 97.824425 106.984344 97.824425 114.366409 L 97.824425 226.801529 Z M 123.770996 118.297714 C 123.770996 113.086853 119.546745 108.86261 114.335876 108.86261 C 109.125008 108.86261 104.900764 113.086853 104.900764 118.297714 C 104.900764 123.508575 109.125008 127.732819 114.335876 127.732819 C 119.546745 127.732819 123.770996 123.508575 123.770996 118.297714 Z M 484.664124 108.86261 C 489.875 108.86261 494.099243 113.086853 494.099243 118.297714 C 494.099243 123.508575 489.875 127.732819 484.664124 127.732819 C 479.453247 127.732819 475.229004 123.508575 475.229004 118.297714 C 475.229004 113.086853 479.453247 108.86261 484.664124 108.86261 Z"/>
        <g id="g3">
            <path id="-" fill="#d0d9d8" fill-rule="evenodd" stroke="none" d="M 115.122139 233.091599 C 109.042786 233.091599 104.114502 228.163315 104.114502 222.083969 L 104.114502 148.175568 L 126.129768 148.175568 L 126.129768 193.778625 L 141.854965 193.778625 L 141.854965 233.091599 L 115.122139 233.091599 Z"/>
            <path id="path5" fill="#d0d9d8" fill-rule="evenodd" stroke="none" d="M 192.175568 233.091599 L 154.43512 233.091599 L 154.43512 148.175568 L 176.450378 148.175568 L 176.450378 193.778625 L 192.175568 193.778625 L 192.175568 233.091599 Z"/>
            <path id="path6" fill="#d0d9d8" fill-rule="evenodd" stroke="none" d="M 242.496185 233.091599 L 204.755722 233.091599 L 204.755722 148.175568 L 226.770996 148.175568 L 226.770996 193.778625 L 242.496185 193.778625 L 242.496185 233.091599 Z"/>
            <path id="--2" fill="#d0d9d8" fill-rule="evenodd" stroke="none" d="M 292.816803 233.091599 L 255.07634 233.091599 L 255.07634 148.175568 L 277.091614 148.175568 L 277.091614 193.778625 L 292.816803 193.778625 L 292.816803 233.091599 Z"/>
            <path id="--3" fill="#d0d9d8" fill-rule="evenodd" stroke="none" d="M 343.13739 233.091599 L 305.396942 233.091599 L 305.396942 148.175568 L 327.412201 148.175568 L 327.412201 193.778625 L 343.13739 193.778625 L 343.13739 233.091599 Z"/>
            <path id="--4" fill="#d0d9d8" fill-rule="evenodd" stroke="none" d="M 393.458008 233.091599 L 355.71756 233.091599 L 355.71756 148.175568 L 377.732819 148.175568 L 377.732819 193.778625 L 393.458008 193.778625 L 393.458008 233.091599 Z"/>
            <path id="--5" fill="#d0d9d8" fill-rule="evenodd" stroke="none" d="M 443.778625 233.091599 L 406.038177 233.091599 L 406.038177 148.175568 L 428.053436 148.175568 L 428.053436 193.778625 L 443.778625 193.778625 L 443.778625 233.091599 Z"/>
            <path id="path7" fill="#d0d9d8" fill-rule="evenodd" stroke="none" d="M 483.331482 233.091599 L 456.358765 233.091599 L 456.358765 148.175568 L 478.374054 148.175568 L 478.374054 193.778625 L 494.099243 193.778625 L 494.099243 224.38031 C 493.042999 229.357407 488.623322 233.091599 483.331482 233.091599 Z"/>
            <text id="1" xml:space="preserve" x="117" y="221" font-family="Yuanti SC" font-size="15.725191" font-weight="700" fill="#161817">1</text>
            <text id="2" xml:space="preserve" x="166" y="221" font-family="Yuanti SC" font-size="15.725191" font-weight="700" fill="#161817">2</text>
            <text id="3" xml:space="preserve" x="217" y="221" font-family="Yuanti SC" font-size="15.725191" font-weight="700" fill="#161817">3</text>
            <text id="4" xml:space="preserve" x="267" y="221" font-family="Yuanti SC" font-size="15.725191" font-weight="700" fill="#161817">4</text>
            <text id="5" xml:space="preserve" x="317" y="221" font-family="Yuanti SC" font-size="15.725191" font-weight="700" fill="#161817">5</text>
            <text id="6" xml:space="preserve" x="368" y="221" font-family="Yuanti SC" font-size="15.725191" font-weight="700" fill="#161817">6</text>
            <text id="7" xml:space="preserve" x="418" y="221" font-family="Yuanti SC" font-size="15.725191" font-weight="700" fill="#161817">7</text>
            <text id="8" xml:space="preserve" x="468" y="221" font-family="Yuanti SC" font-size="15.725191" font-weight="700" fill="#161817">8</text>
        </g>
    </g>
    <g id="g4">
        <path id="path8" fill="none" stroke="#bebcb8" stroke-width="2.225216" stroke-linecap="round" stroke-linejoin="round" d="M 310.230774 119.32692 L 310.230774 130.634613"/>
        <path id="path9" fill="none" stroke="#bebcb8" stroke-width="2.225216" stroke-linecap="round" stroke-linejoin="round" d="M 303.230774 119.32692 L 303.230774 130.634613"/>
        <path id="path10" fill="none" stroke="#bebcb8" stroke-width="2.225216" stroke-linecap="round" stroke-linejoin="round" d="M 296.230774 119.32692 L 296.230774 130.634613"/>
        <path id="path11" fill="none" stroke="#bebcb8" stroke-width="2.225216" stroke-linecap="round" stroke-linejoin="round" d="M 289.769226 119.32692 L 289.769226 130.634613"/>
        <path id="path12" fill="#f1ebd3" fill-rule="evenodd" stroke="none" d="M 279 98.865387 L 279 123.096161 L 321 123.096161 L 321 98.865387 Z"/>
    </g>
    <g id="g5">
        <path id="--8" fill="none" stroke="#bebcb8" stroke-width="0.86593" stroke-linecap="round" stroke-linejoin="round" d="M 331 118.01767 L 331 115.077744"/>
        <path id="--9" fill="none" stroke="#bebcb8" stroke-width="0.86593" stroke-linecap="round" stroke-linejoin="round" d="M 334 118.01767 L 334 115.077744"/>
        <path id="--10" fill="none" stroke="#bebcb8" stroke-width="0.86593" stroke-linecap="round" stroke-linejoin="round" d="M 337 118.01767 L 337 115.077744"/>
        <path id="--11" fill="none" stroke="#bebcb8" stroke-width="0.86593" stroke-linecap="round" stroke-linejoin="round" d="M 340.02475 118.01767 L 340.02475 115.077744"/>
        <path id="--15" fill="none" stroke="#bebcb8" stroke-width="0.86593" stroke-linecap="round" stroke-linejoin="round" d="M 331 134.922256 L 331 131.98233"/>
        <path id="--14" fill="none" stroke="#bebcb8" stroke-width="0.86593" stroke-linecap="round" stroke-linejoin="round" d="M 334 134.922256 L 334 131.98233"/>
        <path id="--13" fill="none" stroke="#bebcb8" stroke-width="0.86593" stroke-linecap="round" stroke-linejoin="round" d="M 337 134.922256 L 337 131.98233"/>
        <path id="--12" fill="none" stroke="#bebcb8" stroke-width="0.86593" stroke-linecap="round" stroke-linejoin="round" d="M 340.02475 134.922256 L 340.02475 131.98233"/>
        <path id="--23" fill="none" stroke="#bebcb8" stroke-width="0.86593" stroke-linecap="round" stroke-linejoin="round" d="M 343 118.01767 L 343 115.077744"/>
        <path id="--22" fill="none" stroke="#bebcb8" stroke-width="0.86593" stroke-linecap="round" stroke-linejoin="round" d="M 346 118.01767 L 346 115.077744"/>
        <path id="--21" fill="none" stroke="#bebcb8" stroke-width="0.86593" stroke-linecap="round" stroke-linejoin="round" d="M 348.991516 118.01767 L 348.991516 115.077744"/>
        <path id="--20" fill="none" stroke="#bebcb8" stroke-width="0.86593" stroke-linecap="round" stroke-linejoin="round" d="M 352 118.01767 L 352 115.077744"/>
        <path id="--19" fill="none" stroke="#bebcb8" stroke-width="0.86593" stroke-linecap="round" stroke-linejoin="round" d="M 343 134.922256 L 343 131.98233"/>
        <path id="--18" fill="none" stroke="#bebcb8" stroke-width="0.86593" stroke-linecap="round" stroke-linejoin="round" d="M 346 134.922256 L 346 131.98233"/>
        <path id="--17" fill="none" stroke="#bebcb8" stroke-width="0.86593" stroke-linecap="round" stroke-linejoin="round" d="M 348.991516 134.922256 L 348.991516 131.98233"/>
        <path id="--16" fill="none" stroke="#bebcb8" stroke-width="0.86593" stroke-linecap="round" stroke-linejoin="round" d="M 352 134.922256 L 352 131.98233"/>
        <path id="path13" fill="#292d2f" fill-rule="evenodd" stroke="none" d="M 329 131.98233 L 355 131.98233 L 355 118.01767 L 329 118.01767 Z"/>
    </g>
</svg>
