<?xml version="1.0" encoding="UTF-8"?>
<!-- Generated by Pixelmator Pro 3.7.1 -->
<svg width="80" height="80" viewBox="0 0 80 80" xmlns="http://www.w3.org/2000/svg">
    <path id="path1" fill="#ffffff" fill-rule="evenodd" stroke="none" d="M 5 71.5 C 5 73.432999 6.567003 75 8.5 75 L 71.5 75 C 73.432999 75 75 73.432999 75 71.5 L 75 8.5 C 75 6.567001 73.432999 5 71.5 5 L 8.5 5 C 6.567003 5 5 6.567001 5 8.5 Z"/>
    <filter id="filter1" x="0" y="0" width="80" height="80" filterUnits="userSpaceOnUse" primitiveUnits="userSpaceOnUse" color-interpolation-filters="sRGB">
        <feGaussianBlur stdDeviation="0.875"/>
        <feOffset dx="-0" dy="0.35" result="offsetblur"/>
        <feFlood flood-color="#000000" flood-opacity="0.5"/>
        <feComposite in2="offsetblur" operator="in"/>
        <feMerge>
            <feMergeNode/>
            <feMergeNode in="SourceGraphic"/>
        </feMerge>
    </filter>
    <path id="path2" fill="#000000" fill-rule="evenodd" stroke="none" filter="url(#filter1)" d="M 71.464645 75 L 8.535354 75 C 6.582832 75 5 73.432999 5 71.5 L 5 8.5 C 5 6.567001 6.582832 5 8.535354 5 L 71.464645 5 C 73.417168 5 75 6.567001 75 8.5 L 75 71.5 C 75 73.432999 73.417168 75 71.464645 75 Z M 8.2621 71.454338 L 21.118324 71.454338 L 21.118324 51.16581 L 16.497347 51.16581 L 16.497347 8.545662 L 8.2621 8.545662 L 8.2621 71.454338 Z M 37.991367 71.454338 L 37.991367 51.16581 L 33.370846 51.16581 L 33.370846 8.545662 L 29.353798 8.545662 L 29.353798 51.16581 L 25.13537 51.16581 L 25.13537 71.454338 L 37.991367 71.454338 Z M 54.864403 71.454338 L 54.864403 51.16581 L 50.243664 51.16581 L 50.243664 8.545662 L 46.226612 8.545662 L 46.226612 51.16581 L 42.008183 51.16581 L 42.008183 71.454338 L 54.864403 71.454338 Z M 58.881454 71.454338 L 71.737679 71.454338 L 71.737679 8.545662 L 63.09988 8.545662 L 63.09988 51.16581 L 58.881454 51.16581 L 58.881454 71.454338 Z"/>
</svg>
