<?xml version="1.0" encoding="UTF-8"?>
<!-- Generated by Pixelmator Pro 3.7.1 -->
<svg width="600" height="370" viewBox="0 0 600 370" xmlns="http://www.w3.org/2000/svg">
    <g id="g1">
        <path id="-" fill="#a2c4c9" stroke="none" d="M -43 -26 L -43 413 L 632 413 L 632 -26 Z"/>
        <g id="--6">
            <path id="path1" fill="#ffffff" fill-opacity="0.2" stroke="none" d="M -39.48 321.69165 C -37.84 342.061707 -20 357.245667 0.37 355.607666 C 20.739 353.969666 35.923 336.1297 34.284 315.759705 C 32.646 295.389709 14.805 280.205688 -5.564 281.843689 C -25.934 283.481689 -41.118 301.323669 -39.479 321.69165 Z"/>
            <path id="path2" fill="#ffffff" fill-opacity="0.2" stroke="none" d="M -33.547001 395.455688 C -31.908001 415.825684 -14.066999 431.009705 6.302 429.371704 C 26.671 427.733704 41.855 409.8927 40.216999 389.523682 C 38.580002 369.153687 20.738001 353.969666 0.37 355.607666 C -20 357.245667 -35.183998 375.087708 -33.546001 395.455688 Z"/>
            <path id="path3" fill="#ffffff" fill-opacity="0.2" stroke="none" d="M 40.216999 389.523682 C 41.855 409.8927 59.696999 425.077698 80.066002 423.43866 C 100.434998 421.800659 115.619003 403.959656 113.981003 383.590698 C 112.343002 363.220703 94.501999 348.036682 74.133003 349.674683 C 53.763 351.31366 38.578999 369.154663 40.216999 389.523682 Z"/>
            <path id="path4" fill="#ffffff" fill-opacity="0.2" stroke="none" d="M 113.981003 383.589661 C 115.619003 403.959656 133.460999 419.144653 153.828995 417.505676 C 174.199005 415.867676 189.382996 398.026672 187.744995 377.657654 C 186.106995 357.287659 168.266006 342.103699 147.897003 343.742676 C 127.527 345.380676 112.343002 363.22168 113.981003 383.590698 Z M 31.318001 278.877686 C 34.595001 319.615662 70.276001 349.985657 111.014999 346.707703 C 151.753006 343.431702 182.121994 307.750671 178.845001 267.011658 C 175.569 226.273682 139.888 195.903687 99.149002 199.181686 C 58.410999 202.457672 28.041 238.138687 31.318001 278.877686 Z M -45.411999 247.92868 C -43.773998 268.297668 -25.933001 283.481689 -5.564 281.843689 C 14.806 280.205688 29.99 262.364685 28.351999 241.995682 C 26.712999 221.625687 8.872 206.441681 -11.497 208.079681 C -31.866001 209.718674 -47.050999 227.559677 -45.411999 247.92868 Z M -83.777 232.45369 C -82.958 242.638687 -74.037003 250.230682 -63.852997 249.411682 C -53.668999 248.59169 -46.076 239.671677 -46.895 229.487686 C -47.715 219.302689 -56.634998 211.710678 -66.82 212.529678 C -77.003998 213.348679 -84.597 222.269669 -83.777 232.45369 Z"/>
        </g>
        <g id="--5">
            <path id="path5" fill="#ffffff" fill-opacity="0.2" stroke="none" d="M -60.243999 63.518677 C -58.605999 83.888672 -40.764999 99.072662 -20.396 97.433685 C -0.026 95.795685 15.158 77.954651 13.52 57.585663 C 11.881 37.215668 -5.96 22.031677 -26.329 23.669678 C -46.698002 25.308655 -61.882 43.149658 -60.243999 63.518677 Z"/>
            <path id="path6" fill="#ffffff" fill-opacity="0.2" stroke="none" d="M -54.311001 137.282684 C -52.673 157.651672 -34.832001 172.836685 -14.462999 171.197678 C 5.907 169.559677 21.091 151.718674 19.452999 131.349686 C 17.813999 110.979675 -0.027 95.795685 -20.396 97.433685 C -40.765999 99.072662 -55.950001 116.913681 -54.311001 137.282684 Z"/>
            <path id="path7" fill="#ffffff" fill-opacity="0.2" stroke="none" d="M 19.452999 131.349686 C 21.091 151.719681 38.931999 166.903687 59.300999 165.265686 C 79.670998 163.626678 94.855003 145.785675 93.216003 125.416687 C 91.578003 105.046661 73.737 89.862671 53.368 91.501678 C 32.997997 93.139679 17.813999 110.980682 19.452999 131.349686 Z"/>
            <path id="path8" fill="#ffffff" fill-opacity="0.2" stroke="none" d="M 93.216003 125.416687 C 94.855003 145.786682 112.695999 160.970673 133.065002 159.332672 C 153.434998 157.69368 168.619003 139.852676 166.979996 119.483673 C 165.341995 99.114685 147.501007 83.930664 127.132004 85.568665 C 106.762001 87.206665 91.578003 105.047668 93.216003 125.416687 Z M 10.553 20.703674 C 13.83 61.442657 49.511002 91.811676 90.25 88.534668 C 130.988998 85.258667 161.358002 49.57666 158.080994 8.838654 C 154.804993 -31.901337 119.123001 -62.269348 78.385002 -58.993347 C 37.645 -55.716339 7.277 -20.035339 10.553 20.703674 Z M -66.177002 -10.245331 C -64.539001 10.124664 -46.696999 25.308655 -26.329 23.669678 C -5.959 22.031677 9.224999 4.190674 7.587 -16.178345 C 5.949 -36.54834 -11.892 -51.73233 -32.261002 -50.093323 C -52.631001 -48.455322 -67.815002 -30.614349 -66.177002 -10.245331 Z M -104.542 -25.720337 C -103.722 -15.535339 -94.802002 -7.943329 -84.617996 -8.762329 C -74.432999 -9.582336 -66.841003 -18.50235 -67.660004 -28.68634 C -68.480003 -38.871338 -77.400002 -46.463348 -87.584 -45.644348 C -97.768997 -44.824341 -105.361 -35.904327 -104.542 -25.720337 Z M -101.575996 11.161652 C -100.755997 21.346649 -91.835999 28.93866 -81.652 28.119659 C -71.467003 27.299652 -63.875 18.379669 -64.694 8.195679 C -65.513 -1.989349 -74.433998 -9.581329 -84.617996 -8.762329 C -94.803001 -7.942322 -102.394997 0.977661 -101.575996 11.161652 Z"/>
            <path id="path9" fill="#ffffff" fill-opacity="0.2" stroke="none" d="M -12.98 189.639679 C -12.16 199.823685 -3.24 207.41568 6.944 206.59668 C 17.129 205.776672 24.721001 196.856674 23.902 186.672684 C 23.083 176.487686 14.162 168.895676 3.978 169.714676 C -6.207 170.534683 -13.799 179.454681 -12.98 189.638687 Z"/>
            <path id="path10" fill="#ffffff" fill-opacity="0.2" stroke="none" d="M 23.902 186.672684 C 24.722 196.857681 33.641998 204.449677 43.826 203.630676 C 54.011002 202.810684 61.603001 193.890686 60.784 183.705673 C 59.964001 173.521683 51.043999 165.929672 40.860001 166.748672 C 30.674999 167.567673 23.083 176.488678 23.902 186.672684 Z"/>
            <path id="path11" fill="#ffffff" fill-opacity="0.2" stroke="none" d="M 60.784 183.705673 C 61.604 193.890686 70.524002 201.482681 80.708 200.663681 C 90.892998 199.844681 98.485001 190.923676 97.666 180.739685 C 96.846001 170.554672 87.926003 162.962677 77.741997 163.781677 C 67.556999 164.601685 59.965 173.521683 60.784 183.705673 Z"/>
            <path id="path12" fill="#ffffff" fill-opacity="0.2" stroke="none" d="M 97.666 180.739685 C 98.486 190.924683 107.405998 198.516678 117.589996 197.697678 C 127.775002 196.877686 135.367004 187.957672 134.548004 177.773682 C 133.727997 167.588684 124.807999 159.996674 114.624001 160.815674 C 104.439003 161.635681 96.847 170.555679 97.666 180.739685 Z M 134.548004 177.773682 C 135.367996 187.957672 144.287994 195.550674 154.472 194.731674 C 164.656998 193.911682 172.248993 184.991684 171.429993 174.806686 C 170.610001 164.622681 161.690002 157.029678 151.505997 157.849686 C 141.320999 158.668686 133.729004 167.588684 134.548004 177.773682 Z"/>
        </g>
        <g id="--4">
            <path id="path13" fill="#ffffff" fill-opacity="0.2" stroke="none" d="M 218.694 300.927673 C 220.332993 321.297668 238.173996 336.481689 258.542999 334.842651 C 278.911987 333.204651 294.096008 315.363708 292.458008 294.99469 C 290.820007 274.624695 272.979004 259.440674 252.610001 261.078674 C 232.240005 262.717682 217.056 280.558655 218.694 300.927673 Z"/>
            <path id="path14" fill="#ffffff" fill-opacity="0.2" stroke="none" d="M 224.626999 374.691711 C 226.264999 395.061707 244.106003 410.245667 264.475006 408.606689 C 284.845001 406.968689 300.028992 389.127686 298.390991 368.758667 C 296.752991 348.388672 278.911011 333.204651 258.542999 334.842651 C 238.173004 336.481689 222.988998 354.322693 224.626999 374.691711 Z"/>
            <path id="path15" fill="#ffffff" fill-opacity="0.2" stroke="none" d="M 298.390015 368.758667 C 300.029999 389.128662 317.869995 404.312683 338.23999 402.674683 C 358.609009 401.035706 373.792999 383.194702 372.154999 362.825684 C 370.516998 342.455688 352.674988 327.271667 332.307007 328.910706 C 311.937012 330.548706 296.752991 348.389709 298.390991 368.758667 Z"/>
            <path id="path16" fill="#ffffff" fill-opacity="0.2" stroke="none" d="M 372.154999 362.825684 C 373.792999 383.195679 391.634003 398.3797 412.002991 396.741699 C 432.372986 395.103699 447.557007 377.261658 445.919006 356.8927 C 444.279999 336.523682 426.438995 321.339661 406.070007 322.977661 C 385.700989 324.615662 370.516998 342.456665 372.154999 362.825684 Z M 289.492004 258.112671 C 292.768005 298.851685 328.450012 329.220703 369.187988 325.943665 C 409.928009 322.667664 440.29599 286.985657 437.019989 246.247681 C 433.743011 205.507675 398.062012 175.139679 357.322998 178.41568 C 316.584015 181.692673 286.214996 217.373672 289.492004 258.112671 Z M 212.761002 227.163681 C 214.399994 247.533676 232.240997 262.717682 252.610001 261.078674 C 272.980011 259.440674 288.164001 241.599686 286.524994 221.230682 C 284.886993 200.860672 267.04599 185.676682 246.677002 187.315674 C 226.307007 188.953674 211.123001 206.794678 212.761002 227.163681 Z M 174.395996 211.689682 C 175.216003 221.873672 184.136002 229.465683 194.320999 228.646683 C 204.505005 227.826675 212.097 218.906677 211.278 208.722672 C 210.459 198.537674 201.537994 190.945679 191.354004 191.764679 C 181.169006 192.584686 173.576996 201.504684 174.395996 211.688675 Z M 177.363007 248.570679 C 178.182007 258.755676 187.102997 266.347656 197.287003 265.528687 C 207.472 264.708679 215.063995 255.788696 214.244995 245.604691 C 213.425003 235.419678 204.505005 227.827682 194.320999 228.646683 C 184.136002 229.46669 176.544006 238.386673 177.363007 248.570679 Z M 180.330002 285.452698 C 181.147995 295.637695 190.069 303.229675 200.253006 302.410706 C 210.438004 301.590698 218.029999 292.670654 217.210999 282.486694 C 216.391006 272.301697 207.470993 264.709656 197.287003 265.528687 C 187.102005 266.348694 179.509995 275.268677 180.328995 285.452698 Z"/>
            <path id="path17" fill="#ffffff" fill-opacity="0.2" stroke="none" d="M 183.294998 322.334656 C 184.115005 332.519653 193.035004 340.111694 203.220001 339.292664 C 213.404007 338.472656 220.996994 329.552673 220.177002 319.368652 C 219.358002 309.183655 210.438004 301.591675 200.253006 302.410706 C 190.069 303.230652 182.475998 312.150696 183.294998 322.334656 Z M 186.261993 359.216675 C 187.080994 369.401672 196.001999 376.993652 206.186005 376.174683 C 216.371002 375.354675 223.962997 366.434692 223.143997 356.250671 C 222.324005 346.065674 213.404007 338.473694 203.220001 339.292664 C 193.035004 340.112671 185.442993 349.032654 186.261993 359.216675 Z M 189.227997 396.09967 C 190.048004 406.283691 198.968002 413.875671 209.151993 413.056702 C 219.337006 412.236694 226.929001 403.316711 226.110001 393.13269 C 225.291 382.947693 216.369995 375.355652 206.186005 376.174683 C 196.001007 376.99469 188.408997 385.914673 189.227997 396.098694 Z"/>
        </g>
        <g id="--3">
            <path id="path18" fill="#ffffff" fill-opacity="0.2" stroke="none" d="M 197.929993 42.753662 C 199.567993 63.123657 217.408997 78.307678 237.778 76.669678 C 258.14801 75.03067 273.332001 57.189667 271.692993 36.820679 C 270.054993 16.45166 252.214005 1.266663 231.845001 2.90567 C 211.475006 4.543671 196.291 22.384674 197.929993 42.753662 Z"/>
            <path id="path19" fill="#ffffff" fill-opacity="0.2" stroke="none" d="M 203.862 116.517685 C 205.501007 136.88768 223.341995 152.071686 243.710999 150.433685 C 264.079987 148.794678 279.265015 130.953674 277.626007 110.584686 C 275.988007 90.214661 258.147003 75.03067 237.778 76.669678 C 217.408005 78.307678 202.223999 96.148682 203.862 116.517685 Z"/>
            <path id="path20" fill="#ffffff" fill-opacity="0.2" stroke="none" d="M 277.626007 110.584686 C 279.265015 130.954681 297.105988 146.138687 317.475006 144.500687 C 337.843994 142.862686 353.028015 125.020676 351.390015 104.651672 C 349.752014 84.282684 331.911011 69.098663 311.541992 70.736664 C 291.171997 72.374664 275.988007 90.215668 277.626007 110.584686 Z"/>
            <path id="path21" fill="#ffffff" fill-opacity="0.2" stroke="none" d="M 351.390015 104.651672 C 353.028015 125.021683 370.869995 140.205673 391.239014 138.567673 C 411.608002 136.929672 426.791992 119.088684 425.153992 98.719666 C 423.515991 78.34967 405.674988 63.165649 385.306 64.80365 C 364.936005 66.44165 349.752014 84.283661 351.390015 104.651672 Z M 268.72699 -0.060333 C 272.003998 40.677673 307.684998 71.046661 348.424011 67.769653 C 389.161987 64.493652 419.532013 28.812653 416.255005 -11.926331 C 412.977997 -52.665344 377.296997 -83.034332 336.558014 -79.757324 C 295.820007 -76.481323 265.450989 -40.799347 268.727997 -0.06134 Z M 191.996994 -31.010345 C 193.634995 -10.64035 211.475998 4.543671 231.845001 2.90567 C 252.214996 1.266663 267.398987 -16.574341 265.760986 -36.943329 C 264.122009 -57.312347 246.281006 -72.496338 225.912003 -70.858337 C 205.542999 -69.220337 190.358994 -51.379333 191.996994 -31.010345 Z M 153.632004 -46.484344 C 154.451004 -36.300323 163.371994 -28.708344 173.556 -29.527344 C 183.740005 -30.346344 191.332993 -39.267334 190.514008 -49.451324 C 189.694 -59.635345 180.774002 -67.228333 170.589005 -66.409332 C 160.404999 -65.589325 152.811996 -56.669342 153.632004 -46.484344 Z M 156.598007 -9.602325 C 157.417999 0.581665 166.337997 8.173676 176.522003 7.354675 C 186.707001 6.535675 194.298996 -2.385345 193.479996 -12.569336 C 192.660004 -22.754333 183.740005 -30.346344 173.556 -29.527344 C 163.371002 -28.707336 155.779007 -19.787323 156.598007 -9.602325 Z"/>
            <path id="path22" fill="#ffffff" fill-opacity="0.2" stroke="none" d="M 159.563995 27.279663 C 160.384003 37.463654 169.304001 45.055664 179.488998 44.236664 C 189.673004 43.417664 197.266006 34.496674 196.445999 24.312653 C 195.626999 14.127655 186.705994 6.535675 176.522003 7.354675 C 166.337997 8.174652 158.744995 17.094666 159.563995 27.279663 Z"/>
            <path id="path23" fill="#ffffff" fill-opacity="0.2" stroke="none" d="M 162.529999 64.160675 C 163.350006 74.345673 172.270004 81.937683 182.455002 81.118683 C 192.639999 80.299683 200.231995 71.378662 199.412994 61.194672 C 198.593002 51.009674 189.673004 43.417664 179.488998 44.236664 C 169.304001 45.056671 161.712006 53.976654 162.531006 64.160675 Z"/>
            <path id="path24" fill="#ffffff" fill-opacity="0.2" stroke="none" d="M 165.496994 101.042664 C 166.317001 111.227661 175.237 118.819687 185.421005 118.000687 C 195.606003 117.181686 203.197998 108.260681 202.378998 98.07666 C 201.559998 87.891663 192.639008 80.299683 182.455002 81.118683 C 172.270004 81.93866 164.677994 90.858673 165.496994 101.042664 Z"/>
            <path id="path25" fill="#ffffff" fill-opacity="0.2" stroke="none" d="M 168.464005 137.924683 C 169.283005 148.10968 178.203995 155.701675 188.388 154.882675 C 198.572006 154.063675 206.164993 145.142685 205.345993 134.958679 C 204.526001 124.773682 195.606003 117.181686 185.421005 118.000687 C 175.237 118.820679 167.643997 127.740677 168.464005 137.924683 Z"/>
            <path id="path26" fill="#ffffff" fill-opacity="0.2" stroke="none" d="M 171.429993 174.806686 C 172.25 184.991684 181.169998 192.583679 191.354004 191.764679 C 201.539001 190.945679 209.130997 182.024673 208.311996 171.840683 C 207.492004 161.655685 198.572006 154.063675 188.388 154.882675 C 178.203003 155.702682 170.610992 164.622681 171.429993 174.806686 Z"/>
            <path id="path27" fill="#ffffff" fill-opacity="0.2" stroke="none" d="M 208.311996 171.839676 C 209.130997 182.025681 218.052002 189.617676 228.235992 188.798676 C 238.421005 187.978683 246.013 179.058685 245.194 168.87468 C 244.373993 158.689682 235.453995 151.097687 225.270004 151.916687 C 215.085007 152.735672 207.492996 161.656677 208.311996 171.840683 Z"/>
            <path id="path28" fill="#ffffff" fill-opacity="0.2" stroke="none" d="M 245.194 168.87468 C 246.013 179.058685 254.934006 186.651672 265.118011 185.83168 C 275.303009 185.01268 282.894989 176.091675 282.075989 165.907684 C 281.256012 155.723679 272.335999 148.130676 262.152008 148.949677 C 251.966995 149.769684 244.375 158.689682 245.194 168.87468 Z"/>
            <path id="path29" fill="#ffffff" fill-opacity="0.2" stroke="none" d="M 282.075989 165.907684 C 282.894989 176.092682 291.81601 183.684677 302 182.865677 C 312.184998 182.045685 319.777008 173.125687 318.958008 162.941681 C 318.138 152.756683 309.217987 145.164673 299.033997 145.983673 C 288.848999 146.80368 281.256989 155.723679 282.075989 165.907684 Z M 318.958008 162.941681 C 319.777008 173.125687 328.697998 180.718674 338.881989 179.899673 C 349.066986 179.079681 356.658997 170.159683 355.839996 159.974686 C 355.019989 149.79068 346.100006 142.197678 335.915985 143.017685 C 325.730988 143.836685 318.139008 152.757675 318.958008 162.941681 Z"/>
            <path id="path30" fill="#ffffff" fill-opacity="0.2" stroke="none" d="M 355.839996 159.974686 C 356.658997 170.159683 365.579987 177.751678 375.764008 176.932678 C 385.949005 176.113678 393.540985 167.192673 392.721985 157.008682 C 391.902008 146.823685 382.981995 139.231674 372.798004 140.050674 C 362.613007 140.870682 355.020996 149.79068 355.839996 159.974686 Z"/>
            <path id="path31" fill="#ffffff" fill-opacity="0.2" stroke="none" d="M 392.721985 157.008682 C 393.540985 167.19368 402.462006 174.785675 412.645996 173.966675 C 422.830994 173.146683 430.423004 164.226685 429.604004 154.042679 C 428.783997 143.857681 419.864014 136.265686 409.679993 137.084686 C 399.494995 137.903687 391.903015 146.824677 392.721985 157.008682 Z"/>
        </g>
        <g id="--2">
            <path id="path32" fill="#ffffff" fill-opacity="0.2" stroke="none" d="M 476.868011 280.162659 C 478.506012 300.532654 496.346985 315.716675 516.716003 314.078674 C 537.085999 312.439697 552.27002 294.598694 550.632019 274.229675 C 548.994019 253.860672 531.151978 238.676682 510.783997 240.314682 C 490.414001 241.952682 475.230011 259.793701 476.868011 280.162659 Z"/>
            <path id="path33" fill="#ffffff" fill-opacity="0.2" stroke="none" d="M 482.799988 353.926697 C 484.438995 374.296692 502.279999 389.480652 522.650024 387.842651 C 543.018005 386.203674 558.203003 368.362671 556.565002 347.993652 C 554.926025 327.624695 537.085022 312.439697 516.716003 314.078674 C 496.346985 315.716675 481.161987 333.557678 482.800995 353.926697 Z"/>
            <path id="path34" fill="#ffffff" fill-opacity="0.2" stroke="none" d="M 556.565002 347.993652 C 558.203003 368.363708 576.044006 383.547668 596.413025 381.909668 C 616.78302 380.271667 631.96698 362.429688 630.328979 342.061707 C 628.690002 321.69165 610.848999 306.50769 590.47998 308.145691 C 570.109985 309.783691 554.926025 327.624695 556.565002 347.993652 Z"/>
            <path id="path35" fill="#ffffff" fill-opacity="0.2" stroke="none" d="M 630.328979 342.061707 C 631.96698 362.430664 649.807983 377.614685 670.177002 375.976685 C 690.546997 374.338684 705.731018 356.497681 704.09198 336.128662 C 702.453979 315.758667 684.612976 300.574707 664.244019 302.212708 C 643.874023 303.850708 628.690002 321.692688 630.328979 342.061707 Z M 547.666016 237.347672 C 550.942017 278.087677 586.622986 308.455688 627.362 305.179688 C 668.101013 301.90271 698.469971 266.22168 695.192993 225.482681 C 691.916992 184.743683 656.234985 154.37468 615.497009 157.651672 C 574.757996 160.927673 544.388977 196.60968 547.666016 237.347672 Z M 470.934998 206.399673 C 472.572998 226.768677 490.415009 241.952682 510.783997 240.314682 C 531.153015 238.676682 546.336975 220.834671 544.698975 200.465683 C 543.060974 180.09668 525.219971 164.912674 504.851013 166.550674 C 484.480988 168.188675 469.296997 186.029678 470.934998 206.398682 Z M 432.570007 190.924683 C 433.390015 201.108673 442.309998 208.701675 452.493988 207.881683 C 462.678986 207.062683 470.270996 198.141678 469.451996 187.957672 C 468.631989 177.773682 459.712006 170.180679 449.528015 170.99968 C 439.342987 171.819687 431.751007 180.739685 432.570007 190.924683 Z"/>
            <path id="path36" fill="#ffffff" fill-opacity="0.2" stroke="none" d="M 435.536011 227.806686 C 436.355988 237.990677 445.276001 245.583679 455.460999 244.763687 C 465.644989 243.944687 473.238007 235.023682 472.417999 224.839676 C 471.598999 214.655685 462.678009 207.062683 452.493988 207.881683 C 442.309998 208.701675 434.71701 217.621689 435.536011 227.806686 Z"/>
            <path id="path37" fill="#ffffff" fill-opacity="0.2" stroke="none" d="M 438.502991 264.68866 C 439.321991 274.872681 448.243011 282.464661 458.427002 281.645691 C 468.612 280.82666 476.20401 271.905701 475.38501 261.72168 C 474.565002 251.536682 465.644989 243.944687 455.460999 244.763687 C 445.276001 245.583679 437.68399 254.503677 438.502991 264.68866 Z"/>
            <path id="path38" fill="#ffffff" fill-opacity="0.2" stroke="none" d="M 441.470001 301.569702 C 442.287994 311.7547 451.209015 319.34668 461.393005 318.52771 C 471.578003 317.708679 479.170013 308.787659 478.351013 298.603699 C 477.532013 288.418701 468.610992 280.82666 458.427002 281.645691 C 448.242004 282.465698 440.649994 291.385681 441.468994 301.570679 Z"/>
            <path id="path39" fill="#ffffff" fill-opacity="0.2" stroke="none" d="M 444.436005 338.45166 C 445.255005 348.636658 454.175995 356.228699 464.359985 355.409668 C 474.544006 354.590698 482.136993 345.669678 481.317993 335.485657 C 480.497986 325.300659 471.578003 317.708679 461.393005 318.52771 C 451.209015 319.347656 443.615997 328.2677 444.436005 338.45166 Z M 447.402008 375.333679 C 448.221985 385.518677 457.141998 393.110657 467.325989 392.291687 C 477.510986 391.472656 485.102997 382.551697 484.283997 372.367676 C 483.463989 362.182678 474.544006 354.590698 464.359985 355.409668 C 454.174988 356.229675 446.583008 365.149658 447.402008 375.333679 Z"/>
        </g>
        <g id="g2">
            <path id="path40" fill="#ffffff" fill-opacity="0.2" stroke="none" d="M 456.102997 21.989655 C 457.742004 42.358673 475.583008 57.542664 495.951996 55.904663 C 516.320984 54.266663 531.505005 36.425659 529.867004 16.056671 C 528.229004 -4.313324 510.388 -19.497345 490.019012 -17.859344 C 469.648987 -16.221344 454.464996 1.620667 456.102997 21.988678 Z"/>
            <path id="path41" fill="#ffffff" fill-opacity="0.2" stroke="none" d="M 462.036011 95.752686 C 463.674011 116.122681 481.515991 131.306686 501.884003 129.668686 C 522.254028 128.030685 537.437988 110.18866 535.799988 89.820679 C 534.161987 69.450653 516.320984 54.266663 495.951996 55.904663 C 475.582001 57.542664 460.39801 75.383667 462.036011 95.752686 Z"/>
            <path id="path42" fill="#ffffff" fill-opacity="0.2" stroke="none" d="M 535.799988 89.819672 C 537.437988 110.189667 555.278992 125.373672 575.64801 123.735672 C 596.018005 122.097687 611.202026 104.256683 609.564026 83.887665 C 607.926025 63.51767 590.083984 48.333679 569.716003 49.971649 C 549.346008 51.610657 534.161987 69.45166 535.799988 89.820679 Z"/>
            <path id="path43" fill="#ffffff" fill-opacity="0.2" stroke="none" d="M 609.564026 83.887665 C 611.202026 104.25766 629.04303 119.441681 649.411987 117.802673 C 669.781982 116.164673 684.966003 98.323669 683.328003 77.954651 C 681.690002 57.584656 663.848022 42.400665 643.479004 44.038666 C 623.109985 45.677673 607.926025 63.518677 609.564026 83.887665 Z M 526.900024 -20.825348 C 530.177002 19.912659 565.859009 50.281677 606.598022 47.004669 C 647.335999 43.728668 677.705017 8.047668 674.427979 -32.691345 C 671.151978 -73.430328 635.471008 -103.799347 594.731995 -100.522339 C 553.992981 -97.245331 523.624023 -61.564331 526.901001 -20.825348 Z M 450.170013 -51.77533 C 451.80899 -31.405334 469.649994 -16.221344 490.019012 -17.859344 C 510.389008 -19.497345 525.572998 -37.338348 523.934021 -57.707336 C 522.296021 -78.077332 504.454987 -93.261322 484.085999 -91.623322 C 463.716003 -89.985321 448.532013 -72.143341 450.17099 -51.77533 Z M 411.804993 -67.250336 C 412.625 -57.064331 421.545013 -49.472321 431.730011 -50.291321 C 441.914001 -51.111328 449.506012 -60.031342 448.687012 -70.215332 C 447.868011 -80.40033 438.946991 -87.99234 428.763 -87.17334 C 418.578003 -86.35434 410.985992 -77.43335 411.804993 -67.249329 Z"/>
            <path id="path44" fill="#ffffff" fill-opacity="0.2" stroke="none" d="M 417.738007 6.514679 C 418.558014 16.699677 427.477997 24.291656 437.661987 23.472656 C 447.846985 22.652679 455.438995 13.732666 454.619995 3.547668 C 453.800995 -6.636322 444.880005 -14.228333 434.696014 -13.409332 C 424.510986 -12.590332 416.919006 -3.669342 417.738007 6.514679 Z"/>
            <path id="path45" fill="#ffffff" fill-opacity="0.2" stroke="none" d="M 420.704987 43.396667 C 421.523987 53.580658 430.444 61.173676 440.628998 60.354675 C 450.812988 59.534668 458.406006 50.614655 457.585999 40.429657 C 456.766998 30.245667 447.846985 22.652679 437.661987 23.472656 C 427.477997 24.291656 419.88501 33.212677 420.704987 43.396667 Z"/>
            <path id="path46" fill="#ffffff" fill-opacity="0.2" stroke="none" d="M 423.670013 80.278687 C 424.48999 90.462677 433.410004 98.055664 443.595001 97.236664 C 453.779999 96.416687 461.372009 87.496674 460.553009 77.311676 C 459.733002 67.127655 450.812988 59.534668 440.628998 60.354675 C 430.444 61.173676 422.85199 70.094666 423.67099 80.278687 Z"/>
            <path id="path47" fill="#ffffff" fill-opacity="0.2" stroke="none" d="M 426.636993 117.159683 C 427.457001 127.344681 436.377014 134.937683 446.561005 134.117676 C 456.746002 133.298676 464.338013 124.378677 463.519012 114.19368 C 462.700012 104.009674 453.778992 96.416687 443.595001 97.236664 C 433.410004 98.055664 425.817993 106.975677 426.636993 117.160675 Z M 429.604004 154.042679 C 430.423004 164.226685 439.343994 171.819687 449.528015 170.99968 C 459.713013 170.180679 467.304993 161.260681 466.485992 151.075684 C 465.665985 140.891678 456.746002 133.298676 446.561005 134.118683 C 436.377014 134.937683 428.785004 143.857681 429.604004 154.042679 Z"/>
            <path id="path48" fill="#ffffff" fill-opacity="0.2" stroke="none" d="M 466.485992 151.075684 C 467.304993 161.260681 476.226013 168.852676 486.410004 168.033676 C 496.593994 167.213684 504.187012 158.293686 503.368011 148.10968 C 502.548004 137.924683 493.627991 130.332672 483.442993 131.151672 C 473.259003 131.97168 465.665985 140.891678 466.485992 151.075684 Z"/>
            <path id="path49" fill="#ffffff" fill-opacity="0.2" stroke="none" d="M 503.368011 148.10968 C 504.187012 158.294678 513.107971 165.886673 523.291992 165.067673 C 533.476013 164.247681 541.06897 155.327682 540.25 145.143677 C 539.429993 134.958679 530.51001 127.366684 520.325012 128.185684 C 510.140991 129.004684 502.548004 137.925674 503.368011 148.10968 Z"/>
            <path id="path50" fill="#ffffff" fill-opacity="0.2" stroke="none" d="M 540.25 145.143677 C 541.06897 155.327682 549.989014 162.919678 560.174011 162.100677 C 570.357971 161.281677 577.950989 152.360672 577.132019 142.176682 C 576.312012 131.991684 567.392029 124.399673 557.20697 125.218674 C 547.02301 126.038681 539.429993 134.958679 540.25 145.142685 Z"/>
            <path id="path51" fill="#ffffff" fill-opacity="0.2" stroke="none" d="M 577.132019 142.176682 C 577.950989 152.361679 586.870972 159.953674 597.05603 159.134674 C 607.23999 158.314682 614.833008 149.394684 614.013 139.210678 C 613.19397 129.025681 604.273987 121.433685 594.088989 122.252686 C 583.905029 123.072678 576.312012 131.992676 577.132019 142.176682 Z"/>
        </g>
    </g>
    <path id="iconmonstr-sound-wave-4" fill="#134f5c" stroke="none" d="M 476.175537 132.632233 C 437.682251 132.632233 440.062988 209.078827 421.89975 243.70079 C 418.85025 249.457458 410.530975 248.72084 408.52475 242.50032 C 387.900482 178.003647 397.316467 21.290833 341.382233 21.290833 C 282.826477 21.290833 297.298248 224.084396 274.507233 306.724213 C 272.822021 312.999268 264.315521 313.544922 261.827759 307.488098 C 237.752762 248.529877 240.454514 119.918396 194.899261 119.918396 C 147.765762 119.918396 151.778259 227.658447 133.320755 271.065491 C 130.88649 276.87677 122.834755 277.067719 120.132996 271.338318 C 106.67775 242.718597 102.371002 184.988052 51.545994 184.988052 L -7.65175 184.988052 C -15.008 184.988052 -21 191.099411 -21 198.602188 C -21 206.104996 -15.008 212.27092 -7.65175 212.27092 L 51.545994 212.27092 C 93.597 212.27092 79.3125 307.324432 127.890495 307.324432 C 172.9375 307.324432 168.069 203.922363 187.355759 158.087143 C 189.709747 152.412308 197.574249 152.576019 199.821243 158.250854 C 221.355011 214.098877 220.953751 348.685272 270.467987 348.685272 C 326.02774 348.685272 306.232727 134.351044 335.818268 58.91391 C 338.038483 53.157196 346.09024 52.857117 348.63147 58.586548 C 376.157257 119.972961 361.658752 280.287109 411.333527 280.287109 C 455.176788 280.287109 457.798248 206.459656 470.986023 170.118881 C 473.15274 164.334915 480.963745 163.925659 483.665497 169.382263 C 497.468475 196.692398 506.29599 239.553787 547.86554 239.553787 L 607.651733 239.553787 C 615.007935 239.553787 621 233.442413 621 225.939651 C 621 218.409561 615.007935 212.298218 607.651733 212.298218 L 547.86554 212.298218 C 512.475281 212.298218 517.985779 132.632233 476.175537 132.632233 Z"/>
</svg>
