<?xml version="1.0" encoding="UTF-8"?>
<!-- Generated by Pixelmator Pro 3.7 -->
<svg width="600" height="370" viewBox="0 0 600 370" xmlns="http://www.w3.org/2000/svg">
    <g id="g1">
        <g id="g2">
            <path id="path1" fill="#e6282a" stroke="none" d="M -0.00015 370 L -0.00015 0 L 599.999878 0 L 599.999878 370 Z"/>
            <path id="path2" fill="none" stroke="#ff4346" stroke-width="5" d="M -63.97345 160.865921 C -42.37944 138.883286 -19.136141 122.669769 8.12319 120.017868 C 100.637146 111.017853 146.893753 256.817871 239.406204 266.017883 C 331.920166 275.217865 391.556488 153.017868 470.68924 166.017868 C 549.823486 179.017868 607.401428 300.017853 640.278259 333.017853"/>
            <path id="path3" fill="none" stroke="#ff4346" stroke-width="5" d="M -62.306789 242.330032 C 15.25074 216.723724 61.147213 133.388382 145.497482 131.017868 C 238.007721 128.417877 284.264313 224.417862 376.780487 235.017868 C 469.290741 245.617874 556.403503 167.617874 608.063538 184.017868 C 629.607483 190.858002 640.408813 209.501358 642.028137 232.008011"/>
            <path id="path4" fill="none" stroke="#ff4346" stroke-width="5" d="M 655.726196 184.189011 C 645.32782 184.36351 635.208191 185.24675 625.570068 187.017868 C 533.055481 204.017868 486.798859 306.617859 394.287048 308.017853 C 301.77243 309.417877 255.515839 202.217865 163.004013 194.017868 C 70.489418 185.817871 -22.023781 252.417862 -68.278999 267.017883"/>
            <path id="path5" fill="none" stroke="#ff4346" stroke-width="5" d="M 485.300323 -6.740387 C 455.770996 21.683655 422.743164 46.183563 379.784241 58.672913 C 245.192352 97.801544 152.372162 1.108307 15.97073 31.92984 C 3.45982 34.756805 -8.897659 38.282227 -21.073721 42.382141"/>
            <path id="path6" fill="none" stroke="#ff4346" stroke-width="5" d="M 598.443359 1.134094 C 559.381653 35.559601 519.802429 67.634827 467.75174 71.301666 C 397.702789 76.236145 350.241272 28.311554 296.236542 -8.286469"/>
            <path id="path7" fill="none" stroke="#ff4346" stroke-width="5" d="M -13.98275 377.612762 C 20.20241 345.288849 56.45575 319.288544 101.142296 319.213074 C 146.555969 319.136353 183.25975 345.369781 217.9366 377.886322"/>
        </g>
        <linearGradient id="linearGradient1" x1="0" y1="185.391514" x2="600" y2="185.391514" gradientUnits="userSpaceOnUse">
            <stop offset="0" stop-color="#ff8500" stop-opacity="1"/>
            <stop offset="1" stop-color="#ffc900" stop-opacity="1"/>
        </linearGradient>
        <path id="-" fill="url(#linearGradient1)" fill-rule="evenodd" stroke="none" d="M 0 155.543442 C 26.666698 60.922485 46.232746 46.413971 58.777111 43.969513 C 65.404343 42.629089 75.266273 44.127258 84.654839 58.714691 C 102.95858 87.100922 115.660736 130.232361 127.968422 172.02327 C 135.70018 198.044022 143.510849 224.61676 152.189316 245.039124 C 152.741608 244.329498 153.372772 243.541016 153.925034 242.831329 C 170.887512 221.383926 188.402344 199.305679 206.469421 184.797104 C 221.380661 172.811768 239.921051 172.811768 262.958588 184.718262 C 294.990143 131.020859 328.047333 77.086853 364.023682 72.355865 C 377.041382 70.621124 389.428009 75.431 400.78894 86.470123 C 427.534454 112.569763 448.994019 159.959106 469.743591 205.771439 C 473.609467 214.287323 477.55423 222.88205 481.420044 231.240265 C 493.333282 207.742706 505.798798 183.929733 523.392456 167.923019 C 531.439758 160.58989 540.670593 158.066681 550.059143 160.58989 C 565.996033 164.926697 582.80072 184.245163 600 218.151001 L 600 273.346558 C 589.664673 292.191956 576.646912 308.75061 560.552246 319.237732 C 554.082825 323.495697 547.455566 325.624725 540.828308 325.624725 C 537.751404 325.624725 534.753357 325.15155 531.75531 324.28418 C 511.873688 318.449249 495.463409 294.163208 478.974396 261.597839 C 472.662689 273.188873 466.11438 283.676025 458.619324 292.03421 C 444.260376 307.962128 428.323456 313.481659 409.940826 308.908295 C 385.483215 302.836792 357.238647 277.210327 327.33728 250.006775 C 308.007904 232.423004 288.362915 214.602722 270.138062 202.538544 C 244.812607 244.881439 220.828384 283.991455 197.238647 294.005493 C 188.007874 297.948029 179.013779 297.948029 170.650864 294.005493 C 161.735672 289.747528 154.161728 281.310516 147.376709 269.719421 C 122.130173 300.471313 95.779099 327.201691 65.956604 327.201691 C 59.802757 327.201691 53.570019 326.097778 47.179489 323.653442 C 29.191349 316.872253 13.254435 304.571503 0.078896 287.618591 Z M 12.386588 168.632675 C 7.731749 185.664474 3.629193 202.617416 0.078896 217.914459 L 0.078896 266.880798 C 13.491123 289.510986 30.690367 304.965759 51.360935 312.771973 C 67.534508 318.922333 83.786987 314.822144 102.485184 299.761597 C 115.660736 289.195587 128.678482 274.213928 141.459549 258.443787 C 131.203156 236.759781 122.603523 207.663834 113.372765 176.281219 C 101.301773 135.51535 88.915169 93.408997 71.873764 66.915161 C 69.270218 62.893768 65.404343 58.241547 61.854034 58.951202 C 56.962517 59.8974 39.053249 70.699951 12.386588 168.632675 Z M 552.18927 306.227386 C 572.465454 293.059326 587.376709 268.063599 598.106445 241.333115 C 583.589661 209.083176 564.733704 176.754349 546.982239 171.86557 C 541.459473 170.367416 536.489136 171.786728 531.281982 176.517776 C 514.398438 191.814819 502.090668 216.258591 490.17749 239.834991 L 487.810547 244.56604 C 503.747467 277.367981 519.921082 304.650391 536.094604 309.381409 C 541.380615 310.958435 546.508789 309.93335 552.18927 306.227386 Z M 412.781036 297.396057 C 440.078888 304.256104 456.173553 280.04892 472.583832 248.508575 C 467.061218 236.996368 461.538422 224.695633 455.858002 211.921768 C 435.660675 167.371094 414.832367 121.322205 390.138031 97.272705 C 382.169617 89.545288 374.358978 86.312439 366.074921 87.416382 C 337.356964 91.201202 305.088745 144.03125 276.213013 192.36676 C 295.463501 204.982941 315.660736 223.355164 335.305725 241.175446 C 362.761322 266.171204 391.242584 292.03421 412.781036 297.396057 Z M 191.242584 279.891205 C 210.335297 271.769592 233.925064 233.369202 256.962524 194.732315 C 240.473312 186.295258 225.640991 184.402847 213.806686 193.864944 C 196.765259 207.506149 179.723862 229.111237 163.155823 250.006775 C 161.42012 252.214569 159.605515 254.501251 157.790924 256.787903 C 163.708099 268.378998 170.177475 276.81604 177.199203 280.127747 C 181.538437 282.177887 186.035522 282.098999 191.242584 279.891205 Z"/>
    </g>
</svg>
