<?xml version="1.0" encoding="UTF-8"?>
<!-- Generated by Pixelmator Pro 3.7 -->
<svg width="80" height="80" viewBox="0 0 80 80" xmlns="http://www.w3.org/2000/svg">
    <radialGradient id="radialGradient1" cx="40.000473" cy="36.549217" r="42.418961" fx="40.000473" fy="36.549217" gradientUnits="userSpaceOnUse">
        <stop offset="0" stop-color="#dd52e5" stop-opacity="1"/>
        <stop offset="1" stop-color="#81b5f9" stop-opacity="1"/>
    </radialGradient>
    <path id="path1" fill="url(#radialGradient1)" stroke="none" d="M 80.534126 46.444252 C 75.050705 46.444252 71.857933 38.523132 68.770737 30.862183 C 65.215988 22.040825 61.538704 12.91877 53.51012 12.91877 C 45.472107 12.91877 41.975803 23.833759 38.341873 35.524551 C 35.154758 38.559898 32.274948 41.118259 26.4814 41.118259 C 20.567188 41.118259 17.692093 37.928322 14.363582 34.235001 C 13.175838 32.917168 11.944731 31.560692 10.54112 30.337128 L 10.495872 30.275852 C 9.814682 29.332813 9.058413 28.446342 8.234446 27.625111 C 8.125029 27.519043 8.003167 27.426617 7.871523 27.349854 C 5.668541 24.63784 2.985748 22.883564 -0.533179 22.883564 C -1.574406 22.883564 -2.418487 23.727642 -2.418487 24.768867 C -2.418487 25.810097 -1.574406 26.654175 -0.533179 26.654175 C 4.949296 26.654175 8.141123 34.575298 11.228315 42.236244 C 14.783063 51.057606 18.459414 60.179668 26.487055 60.179668 C 34.524124 60.179668 38.020428 49.267502 41.653416 37.578594 C 44.843353 34.541363 47.722221 31.980171 53.506348 31.980171 C 59.423382 31.980171 62.295654 35.165398 65.622276 38.853062 C 66.814743 40.17466 68.050552 41.535854 69.46077 42.762245 L 69.505074 42.822578 C 70.186264 43.765621 70.942528 44.652084 71.766495 45.47332 C 71.873962 45.579842 71.997452 45.668449 72.127533 45.747631 C 74.331459 48.460594 77.014252 50.21487 80.534126 50.21487 C 81.575348 50.21487 82.419434 49.370789 82.419434 48.329563 C 82.419434 47.288338 81.575348 46.444252 80.534126 46.444252 Z M 53.51012 16.689381 C 57.030933 16.689381 59.605316 19.961334 61.814899 24.325825 C 59.608143 22.303825 56.936665 20.966206 53.505402 20.966206 C 50.840523 20.966206 48.643196 21.864552 46.760719 23.302101 C 48.645081 19.398571 50.828266 16.689381 53.51012 16.689381 Z M 34.170628 43.269398 C 32.115643 46.28212 29.733555 48.362556 26.4814 48.362556 C 22.671192 48.362556 20.059097 45.858864 17.77976 42.449287 C 20.072292 43.896263 22.851238 44.888878 26.4814 44.888878 C 29.594982 44.889816 32.077934 44.248817 34.170628 43.269398 Z M 26.486115 56.410938 C 22.969069 56.410938 20.396566 53.144642 18.187929 48.785805 C 20.389969 50.801201 23.056736 52.134113 26.4814 52.134113 C 29.150995 52.134113 31.351151 51.235767 33.235512 49.798218 C 31.351151 53.701748 29.167963 56.410938 26.486115 56.410938 Z M 45.828426 29.829979 C 47.882469 26.817253 50.260788 24.737762 53.505402 24.737762 C 57.316559 24.737762 59.931477 27.241447 62.213642 30.651031 C 59.920166 29.204056 57.140278 28.210499 53.505402 28.210499 C 50.398415 28.210499 47.919235 28.851501 45.828426 29.829979 Z"/>
</svg>
