<?xml version="1.0" encoding="UTF-8"?>
<!-- Generated by Pixelmator Pro 3.7.1 -->
<svg width="600" height="370" viewBox="0 0 600 370" xmlns="http://www.w3.org/2000/svg">
    <g id="g1">
        <path id="path1" fill="#3c69fd" stroke="none" d="M 0 370 L 0 0 L 600 0 C 600 0 600 162.245438 600 229.400024 C 600 281.97406 600 370 600 370 Z"/>
        <path id="path2" fill="#ffffff" fill-opacity="0.73333" fill-rule="evenodd" stroke="none" opacity="0.1" d="M 223.731339 337.183228 C 230.629349 314.579559 300.416107 302.220886 301.678925 282.507141 C 302.943115 262.791565 230.802109 306.513794 225.641876 294.930511 C 220.481644 283.346344 300.146027 224.832642 342.308136 207.727997 C 367.714264 197.421829 387.756561 211.986969 358.504852 234.530396 C 338.934357 249.612015 348.145111 262.571503 366.152344 253.707153 C 384.159576 244.841034 393.740356 267.704956 368.862793 287.245544 C 343.985657 306.785217 215.927612 362.763885 223.731339 337.183258 Z M 413.066223 278.981567 C 432.384949 250.158371 469.3172 268.139282 445.908661 298.364563 C 425.195435 325.104462 358.665527 352.817932 355.41449 337.934937 C 353.027222 327.005157 390.337555 312.894897 413.066223 278.981567 Z M 571.938782 337.15506 C 540.48999 367.664246 513.924622 397.398956 495.217865 396.478943 C 475.780884 395.522797 493.141754 358.324493 526.144897 329.788788 C 549.527527 309.571045 526.692627 299.311737 504.269257 311.383392 C 477.170929 325.970856 456.047913 316.210175 491.020966 284.224335 C 525.994019 252.236694 579.097534 228.69873 608.063538 234.733887 C 637.028259 240.769028 567.378052 259.20166 564.614075 283.618134 C 561.899109 307.609619 604.140259 259.176208 626.164978 275.288116 C 647.542419 290.925018 601.147705 308.820679 571.938354 337.154633 Z M 219.48262 246.448013 C 223.034073 263.820038 179.687698 318.554169 126.531532 332.984528 C 73.099052 347.488953 22.862701 353.129486 20.707541 340.584259 C 18.56756 328.112213 52.457241 318.690765 94.557297 298.506073 C 114.912529 288.748047 93.37661 280.524292 80.125618 285.795654 C 36.298492 303.228394 39.722271 276.588501 76.725937 257.806305 C 105.640633 243.128677 130.09816 235.42984 144.586975 231.898026 C 165.600632 226.775299 169.981018 240.348129 157.98349 248.007233 C 134.564713 262.958069 145.825699 276.758545 166.789352 265.15741 C 180.067123 257.809448 213.73674 218.351074 219.48262 246.447998 Z M 239.040176 231.519943 C 226.613663 236.494034 223.389847 227.377487 223.389847 220.011658 C 223.389847 212.644043 235.818146 209.883148 242.723755 214.026505 C 249.629349 218.168976 247.694275 228.057785 239.040176 231.520401 Z M 588.743958 200.098785 C 584.004211 211.067856 530.872131 212.820816 491.362915 248.252747 C 477.148193 261.001099 459.723938 245.429352 463.859711 233.479141 C 467.993683 221.529373 480.628204 218.379669 500.403595 210.691544 C 520.177185 203.00209 495.032684 192.753494 462.405823 208.149384 C 443.742828 216.954361 423.746063 202.111115 446.280548 186.8246 C 465.116272 174.049011 508.515778 170.386414 507.33017 159.42717 C 506.674438 153.340698 475.169342 167.982162 469.444427 154.861526 C 464.685059 143.957199 475.963013 131.426239 507.477478 128.881836 C 539.583801 126.289658 564.553833 132.893509 564.927429 148.66568 C 565.350586 166.522049 527.682251 171.360886 544.606995 176.881332 C 561.626404 182.429031 597.097168 180.760895 588.743958 200.098358 Z M 398.048431 238.310379 C 391.703064 233.897842 391.505737 228.271133 398.250214 220.465179 C 406.993591 210.342468 421.585968 210.812958 425.871735 214.514847 C 430.157471 218.217178 420.468658 227.803787 416.769897 233.327377 C 413.070251 238.849167 406.217773 243.990204 398.048431 238.310379 Z M 398.438141 177.498215 C 360.817993 186.491562 339.649902 171.414413 348.075897 161.112701 C 357.177734 149.988739 378.963623 150.014191 380.675507 128.234543 C 383.874756 87.483002 423.960754 80.271637 406.856537 108.722107 C 400.865143 118.689911 409.662964 125.006271 414.820068 112.261932 C 417.934082 104.570709 432.702332 94.0159 440.5065 90.113129 C 475.925964 72.404541 504.166595 98.13382 478.833282 105.284485 C 462.348663 109.936707 447.539337 121.126282 438.079498 146.750671 C 433.039795 160.405624 414.962494 173.547256 398.438141 177.497772 Z M 510.530273 94.916656 C 496.270447 76.686249 540.323914 75.667572 556.592896 70.191284 C 572.862793 64.714142 539.335632 61.933594 509.841522 62.240265 C 480.344269 62.546936 484.807709 39.894135 518.33313 28.796967 C 569.841248 11.750366 615.757019 29.453156 576.287964 40.76416 C 561.568359 44.985168 572.031189 57.159943 588.3703 55.403839 C 619.224548 52.087189 642.092896 67.316132 636.900574 79.213226 C 631.040833 92.640076 616.540833 83.601196 601.877502 82.597717 C 587.213684 81.593353 599.90625 95.965668 618.893738 105.862061 C 651.508118 122.860443 624.223633 151.772919 596.218201 125.635193 C 556.317078 88.394501 521.207397 108.567139 510.530731 94.916656 Z M 362.588806 50.719971 C 383.643982 7.724884 426.872955 11.949036 420.803894 26.625336 C 414.736145 41.301208 439.699005 29.345184 451.262177 32.021271 C 462.823608 34.694244 469.680115 54.793671 426.74707 58.662506 C 373.851593 63.431702 372.615112 115.608063 354.950714 104.713104 C 342.804535 97.224091 354.783752 66.657318 362.589264 50.719513 Z M 46.80732 245.293213 C 11.54278 251.354248 3.73279 239.211197 18.4149 229.492462 C 27.5194 223.463562 62.973209 204.238144 37.07922 202.354828 C 11.18165 200.471085 30.48163 175.849731 60.893951 152.92868 C 91.305382 130.007156 157.74646 117.62439 154.843155 136.954712 C 151.93808 156.284607 73.699005 165.560074 87.787849 185.960373 C 93.906921 194.821152 123.833572 158.071045 137.119827 179.21637 C 150.406967 200.36171 68.914169 241.495789 46.80777 245.293198 Z M 276.330383 209.068924 C 265.07431 218.597946 242.054138 204.837173 262.760223 185.953247 C 267.552643 181.581787 279.871582 177.396011 272.512451 173.08168 C 250.277023 160.049423 182.508392 227.747528 171.297394 205.536667 C 165.906815 194.857315 192.935089 170.973404 222.436783 156.052917 C 244.215546 145.039215 236.274765 124.860764 203.950119 144.741928 C 171.623688 164.623993 165.920212 141.18869 183.827011 125.807983 C 201.732925 110.429077 316.134674 57.162659 323.929474 85.628723 C 329.99588 107.768188 266.079132 103.712769 274.032837 118.016754 C 279.871582 128.513092 324.324097 100.643402 340.059235 118.742584 C 355.287689 136.255676 298.283691 147.859497 301.933777 158.360291 C 304.816101 166.646118 332.092987 154.970886 332.621094 175.255585 C 333.02951 190.977325 303.572906 186.012604 276.330841 209.068924 Z M 118.18544 67.543823 C 111.342331 103.541351 47.93713 137.099792 23.61039 146.123505 C -14.667259 160.315475 -54.663513 155.584213 -32.08527 143.972351 C -9.50703 132.357819 49.843201 93.901184 19.29562 91.261688 C 4.26132 89.962708 -12.73173 78.809296 19.29562 52.355957 C 39.626301 35.562469 110.483482 12.355713 114.35321 27.194489 C 118.223381 42.032837 33.07156 67.839783 59.51997 70.421692 C 85.968384 73.001801 121.382912 50.710571 118.18544 67.543823 Z M 211.554352 80.464935 C 190.894241 90.792114 171.788437 103.299408 149.794525 108.020386 C 121.110619 114.176056 149.401703 75.366302 176.936615 62.775543 C 189.268936 57.13678 174.502029 49.621857 162.635284 55.383362 C 130.388321 71.037262 116.363289 59.011139 149.663727 36.864136 C 157.942856 31.357513 183.523056 18.320343 214.583527 14.337677 C 245.938614 10.315277 245.123962 21.858826 235.421295 26.186096 C 221.467697 32.407837 211.909668 45.897217 249.319992 34.504089 C 316.194519 14.13858 355.808655 17.529785 340.585083 34.504089 C 326.365875 50.355286 278.428864 47.038635 211.554337 80.464935 Z"/>
    </g>
    <g id="g2">
        <path id="path3" fill="#2a2f35" fill-rule="evenodd" stroke="none" d="M 201.840332 278 C 190.330536 278 181 268.669464 181 257.159668 L 181 112.840332 C 181 101.330536 190.330536 92 201.840332 92 L 396.697479 92 C 408.207275 92 417.537811 101.330536 417.537811 112.840332 L 417.537811 257.159668 C 417.537811 268.669464 408.207275 278 396.697479 278 L 363.873932 278 C 352.364136 278 343.0336 268.669464 343.0336 257.159668 L 343.0336 254.033615 L 255.504196 254.033615 L 255.504196 257.159668 C 255.504196 268.669464 246.17366 278 234.663864 278 L 201.840332 278 Z M 217.386551 257.243713 C 217.386551 248.899094 210.621918 242.13446 202.277313 242.13446 C 193.932709 242.13446 187.16806 248.899094 187.16806 257.243713 C 187.16806 265.588318 193.932709 272.352936 202.277313 272.352936 C 210.621918 272.352936 217.386551 265.588318 217.386551 257.243713 Z M 396.260498 241.13446 C 404.605103 241.13446 411.369751 247.899094 411.369751 256.243713 C 411.369751 264.588318 404.605103 271.352936 396.260498 271.352936 C 387.915894 271.352936 381.151245 264.588318 381.151245 256.243713 C 381.151245 247.899094 387.915894 241.13446 396.260498 241.13446 Z M 217.386551 113.235291 C 217.386551 104.890686 210.621918 98.126038 202.277313 98.126038 C 193.932709 98.126038 187.16806 104.890686 187.16806 113.235291 C 187.16806 121.579895 193.932709 128.344543 202.277313 128.344543 C 210.621918 128.344543 217.386551 121.579895 217.386551 113.235291 Z M 396.260498 98.126038 C 404.605103 98.126038 411.369751 104.890686 411.369751 113.235291 C 411.369751 121.579895 404.605103 128.344543 396.260498 128.344543 C 387.915894 128.344543 381.151245 121.579895 381.151245 113.235291 C 381.151245 104.890686 387.915894 98.126038 396.260498 98.126038 Z"/>
        <path id="path4" fill="#151515" fill-rule="evenodd" stroke="none" d="M 222.680679 214.957977 L 375.336121 214.957977 L 375.336121 123.781509 L 222.680679 123.781509 Z"/>
        <path id="-" fill="#000000" fill-rule="evenodd" stroke="none" d="M 222.680679 214.436981 L 375.336121 214.436981 L 375.336121 233.193283 L 222.680679 233.193283 Z"/>
        <path id="--2" fill="#262626" fill-rule="evenodd" stroke="none" d="M 254.9832 218.405884 L 343.03363 218.405884 L 343.03363 233.193283 L 254.9832 233.193283 Z"/>
        <path id="HELLO-" fill="#ffffff" fill-rule="evenodd" stroke="none" d="M 347.393555 166.607422 C 347.243164 166.785156 347.051758 166.887695 346.819336 166.915039 C 346.791992 166.915039 346.757813 166.915039 346.716797 166.915039 C 346.525391 166.915039 346.354492 166.853516 346.204102 166.730469 C 346.012695 166.59375 345.889648 166.416016 345.834961 166.197266 C 345.821289 166.128906 345.814453 166.060547 345.814453 165.992188 C 345.814453 165.841797 345.855469 165.691406 345.9375 165.541016 L 346.839844 164.00293 C 346.894531 163.907227 346.874023 163.838867 346.77832 163.797852 L 345.178711 163.080078 C 344.959961 162.984375 344.802734 162.833984 344.707031 162.628906 C 344.652344 162.505859 344.625 162.382813 344.625 162.259766 C 344.625 162.164063 344.638672 162.068359 344.666016 161.972656 C 344.748047 161.753906 344.884766 161.589844 345.076172 161.480469 C 345.226563 161.398438 345.376953 161.357422 345.527344 161.357422 C 345.595703 161.357422 345.664063 161.364258 345.732422 161.37793 L 347.475586 161.767578 C 347.571289 161.794922 347.625977 161.753906 347.639648 161.644531 L 347.803711 159.860352 C 347.831055 159.62793 347.930176 159.433105 348.101074 159.275879 C 348.271973 159.118652 348.477051 159.040039 348.716309 159.040039 C 348.955566 159.040039 349.160645 159.118652 349.331543 159.275879 C 349.502441 159.433105 349.601563 159.62793 349.628906 159.860352 L 349.792969 161.644531 C 349.792969 161.753906 349.847656 161.794922 349.957031 161.767578 L 351.700195 161.37793 C 351.768555 161.364258 351.836914 161.357422 351.905273 161.357422 C 352.055664 161.357422 352.199219 161.398438 352.335938 161.480469 C 352.527344 161.589844 352.664063 161.753906 352.746094 161.972656 C 352.773438 162.068359 352.787109 162.164063 352.787109 162.259766 C 352.787109 162.382813 352.759766 162.505859 352.705078 162.628906 C 352.609375 162.833984 352.458984 162.984375 352.253906 163.080078 L 350.613281 163.797852 C 350.517578 163.838867 350.49707 163.907227 350.551758 164.00293 L 351.454102 165.541016 C 351.549805 165.691406 351.597656 165.841797 351.597656 165.992188 C 351.597656 166.060547 351.59082 166.128906 351.577148 166.197266 C 351.522461 166.416016 351.399414 166.59375 351.208008 166.730469 C 351.057617 166.853516 350.886719 166.915039 350.695313 166.915039 C 350.667969 166.915039 350.633789 166.915039 350.592773 166.915039 C 350.360352 166.887695 350.168945 166.785156 350.018555 166.607422 L 348.808594 165.233398 C 348.740234 165.165039 348.671875 165.165039 348.603516 165.233398 Z M 332.689453 179.28125 C 332.443359 179.28125 332.231445 179.192383 332.053711 179.014648 C 331.875977 178.836914 331.787109 178.621582 331.787109 178.368652 C 331.787109 178.115723 331.875977 177.900391 332.053711 177.722656 C 332.231445 177.544922 332.443359 177.456055 332.689453 177.456055 L 342.225586 177.456055 C 342.485352 177.456055 342.700684 177.544922 342.871582 177.722656 C 343.04248 177.900391 343.12793 178.115723 343.12793 178.368652 C 343.12793 178.621582 343.04248 178.836914 342.871582 179.014648 C 342.700684 179.192383 342.485352 179.28125 342.225586 179.28125 Z M 321.594727 169.416992 C 321.307617 169.416992 321.082031 169.300781 320.917969 169.068359 C 320.822266 168.917969 320.774414 168.767578 320.774414 168.617188 C 320.774414 168.507813 320.794922 168.405273 320.835938 168.30957 L 323.604492 161.172852 C 323.741211 160.831055 323.959961 160.557617 324.260742 160.352539 C 324.561523 160.147461 324.896484 160.044922 325.265625 160.044922 L 325.388672 160.044922 C 325.744141 160.044922 326.072266 160.147461 326.373047 160.352539 C 326.673828 160.557617 326.892578 160.831055 327.029297 161.172852 L 329.818359 168.30957 C 329.859375 168.405273 329.879883 168.507813 329.879883 168.617188 C 329.879883 168.767578 329.832031 168.917969 329.736328 169.068359 C 329.572266 169.300781 329.34668 169.416992 329.05957 169.416992 L 328.916016 169.416992 C 328.546875 169.416992 328.215332 169.314453 327.921387 169.109375 C 327.627441 168.904297 327.412109 168.630859 327.275391 168.289063 L 326.455078 166.053711 L 325.388672 162.875 C 325.375 162.847656 325.351074 162.833984 325.316895 162.833984 C 325.282715 162.833984 325.258789 162.847656 325.245117 162.875 L 324.178711 166.053711 L 323.358398 168.289063 C 323.235352 168.630859 323.026855 168.904297 322.73291 169.109375 C 322.438965 169.314453 322.107422 169.416992 321.738281 169.416992 Z M 311.320313 174.092773 C 310.048828 175.555664 308.374023 176.287109 306.295898 176.287109 C 304.217773 176.287109 302.539551 175.555664 301.26123 174.092773 C 299.98291 172.629883 299.34375 170.654312 299.34375 168.166016 C 299.34375 165.677719 299.979492 163.722656 301.250977 162.300781 C 302.522461 160.878906 304.204102 160.167969 306.295898 160.167969 C 308.387695 160.167969 310.069336 160.878906 311.34082 162.300781 C 312.612305 163.722656 313.248047 165.677719 313.248047 168.166016 C 313.248047 170.654312 312.605469 172.629883 311.320313 174.092773 Z M 303.547852 172.124023 C 304.231445 173.108398 305.150879 173.600586 306.306152 173.600586 C 307.461426 173.600586 308.380859 173.108398 309.064453 172.124023 C 309.748047 171.139648 310.089844 169.820328 310.089844 168.166016 C 310.089844 166.511719 309.748047 165.209473 309.064453 164.259277 C 308.380859 163.309082 307.458008 162.833984 306.295898 162.833984 C 305.133789 162.833984 304.214355 163.309082 303.537598 164.259277 C 302.86084 165.209473 302.522461 166.511719 302.522461 168.166016 C 302.522461 169.820328 302.864258 171.139648 303.547852 172.124023 Z M 289.992188 176 C 289.664063 176 289.380371 175.880371 289.141113 175.641113 C 288.901855 175.401855 288.782227 175.118164 288.782227 174.790039 L 288.782227 161.665039 C 288.782227 161.336914 288.901855 161.053223 289.141113 160.813965 C 289.380371 160.574707 289.664063 160.455078 289.992188 160.455078 L 290.689453 160.455078 C 291.017578 160.455078 291.30127 160.574707 291.540527 160.813965 C 291.779785 161.053223 291.899414 161.336914 291.899414 161.665039 L 291.899414 173.251953 C 291.899414 173.347656 291.947266 173.395508 292.042969 173.395508 L 296.985352 173.395508 C 297.313477 173.395508 297.597168 173.515137 297.836426 173.754395 C 298.075684 173.993652 298.195313 174.277344 298.195313 174.605469 L 298.195313 174.790039 C 298.195313 175.118164 298.075684 175.401855 297.836426 175.641113 C 297.597168 175.880371 297.313477 176 296.985352 176 Z M 277.892578 176 C 277.564453 176 277.280762 175.880371 277.041504 175.641113 C 276.802246 175.401855 276.682617 175.118164 276.682617 174.790039 L 276.682617 161.665039 C 276.682617 161.336914 276.802246 161.053223 277.041504 160.813965 C 277.280762 160.574707 277.564453 160.455078 277.892578 160.455078 L 278.589844 160.455078 C 278.917969 160.455078 279.20166 160.574707 279.440918 160.813965 C 279.680176 161.053223 279.799805 161.336914 279.799805 161.665039 L 279.799805 173.251953 C 279.799805 173.347656 279.847656 173.395508 279.943359 173.395508 L 284.885742 173.395508 C 285.213867 173.395508 285.497559 173.515137 285.736816 173.754395 C 285.976074 173.993652 286.095703 174.277344 286.095703 174.605469 L 286.095703 174.790039 C 286.095703 175.118164 285.976074 175.401855 285.736816 175.641113 C 285.497559 175.880371 285.213867 176 284.885742 176 Z M 264.993164 176 C 264.665039 176 264.381348 175.880371 264.14209 175.641113 C 263.902832 175.401855 263.783203 175.118164 263.783203 174.790039 L 263.783203 161.665039 C 263.783203 161.336914 263.902832 161.053223 264.14209 160.813965 C 264.381348 160.574707 264.665039 160.455078 264.993164 160.455078 L 272.109375 160.455078 C 272.451172 160.455078 272.738281 160.574707 272.970703 160.813965 C 273.203125 161.053223 273.319336 161.336914 273.319336 161.665039 L 273.319336 161.829102 C 273.319336 162.170898 273.203125 162.458008 272.970703 162.69043 C 272.738281 162.922852 272.451172 163.039063 272.109375 163.039063 L 267.043945 163.039063 C 266.948242 163.039063 266.900391 163.09375 266.900391 163.203125 L 266.900391 166.484375 C 266.900391 166.580078 266.948242 166.62793 267.043945 166.62793 L 271.145508 166.62793 C 271.473633 166.62793 271.757324 166.747559 271.996582 166.986816 C 272.23584 167.226074 272.355469 167.509766 272.355469 167.837891 L 272.355469 168.022461 C 272.355469 168.364258 272.23584 168.651367 271.996582 168.883789 C 271.757324 169.116211 271.473633 169.232422 271.145508 169.232422 L 267.043945 169.232422 C 266.948242 169.232422 266.900391 169.287109 266.900391 169.396484 L 266.900391 173.251953 C 266.900391 173.347656 266.948242 173.395508 267.043945 173.395508 L 272.334961 173.395508 C 272.676758 173.395508 272.963867 173.515137 273.196289 173.754395 C 273.428711 173.993652 273.544922 174.277344 273.544922 174.605469 L 273.544922 174.790039 C 273.544922 175.118164 273.428711 175.401855 273.196289 175.641113 C 272.963867 175.880371 272.676758 176 272.334961 176 Z M 249.099609 176 C 248.771484 176 248.487793 175.880371 248.248535 175.641113 C 248.009277 175.401855 247.889648 175.118164 247.889648 174.790039 L 247.889648 161.665039 C 247.889648 161.336914 248.009277 161.053223 248.248535 160.813965 C 248.487793 160.574707 248.771484 160.455078 249.099609 160.455078 L 249.796875 160.455078 C 250.125 160.455078 250.408691 160.574707 250.647949 160.813965 C 250.887207 161.053223 251.006836 161.336914 251.006836 161.665039 L 251.006836 166.422852 C 251.006836 166.518555 251.054688 166.566406 251.150391 166.566406 L 256.728516 166.566406 C 256.824219 166.566406 256.87207 166.518555 256.87207 166.422852 L 256.87207 161.665039 C 256.87207 161.336914 256.991699 161.053223 257.230957 160.813965 C 257.470215 160.574707 257.753906 160.455078 258.082031 160.455078 L 258.758789 160.455078 C 259.086914 160.455078 259.370605 160.574707 259.609863 160.813965 C 259.849121 161.053223 259.96875 161.336914 259.96875 161.665039 L 259.96875 174.790039 C 259.96875 175.118164 259.849121 175.401855 259.609863 175.641113 C 259.370605 175.880371 259.086914 176 258.758789 176 L 258.082031 176 C 257.753906 176 257.470215 175.880371 257.230957 175.641113 C 256.991699 175.401855 256.87207 175.118164 256.87207 174.790039 L 256.87207 169.4375 C 256.87207 169.328125 256.824219 169.273438 256.728516 169.273438 L 251.150391 169.273438 C 251.054688 169.273438 251.006836 169.328125 251.006836 169.4375 L 251.006836 174.790039 C 251.006836 175.118164 250.887207 175.401855 250.647949 175.641113 C 250.408691 175.880371 250.125 176 249.796875 176 Z"/>
        <path id="OLED" fill="#ffffff" fill-rule="evenodd" stroke="none" d="M 307.363831 249 C 307.168457 249 306.999542 248.928772 306.857086 248.786316 C 306.7146 248.643845 306.643372 248.474915 306.643372 248.279541 L 306.643372 240.464417 C 306.643372 240.269043 306.7146 240.100113 306.857086 239.957657 C 306.999542 239.815186 307.168457 239.743958 307.363831 239.743958 L 309.183289 239.743958 C 310.632355 239.743958 311.757813 240.126572 312.559692 240.8918 C 313.361542 241.657043 313.762482 242.804871 313.762482 244.335342 C 313.762482 245.857681 313.365601 247.015686 312.571899 247.809418 C 311.778168 248.603149 310.681213 249 309.280975 249 Z M 308.499481 247.424774 C 308.499481 247.48175 308.527954 247.510239 308.584961 247.510239 L 309.073395 247.510239 C 310.937653 247.510239 311.869751 246.45195 311.869751 244.335342 C 311.869751 243.244476 311.629608 242.452805 311.149292 241.960281 C 310.668976 241.467758 309.97702 241.221512 309.073395 241.221512 L 308.584961 241.221512 C 308.527954 241.221512 308.499481 241.254074 308.499481 241.319199 Z M 299.683044 249 C 299.487671 249 299.318726 248.928772 299.17627 248.786316 C 299.033813 248.643845 298.962585 248.474915 298.962585 248.279541 L 298.962585 240.464417 C 298.962585 240.269043 299.033813 240.100113 299.17627 239.957657 C 299.318726 239.815186 299.487671 239.743958 299.683044 239.743958 L 303.920288 239.743958 C 304.12381 239.743958 304.294769 239.815186 304.433167 239.957657 C 304.571564 240.100113 304.640747 240.269043 304.640747 240.464417 L 304.640747 240.562103 C 304.640747 240.765625 304.571564 240.936584 304.433167 241.074982 C 304.294769 241.213364 304.12381 241.282562 303.920288 241.282562 L 300.904144 241.282562 C 300.847168 241.282562 300.818665 241.315125 300.818665 241.380249 L 300.818665 243.33403 C 300.818665 243.391022 300.847168 243.41951 300.904144 243.41951 L 303.346375 243.41951 C 303.541748 243.41951 303.710663 243.490738 303.853149 243.633209 C 303.995605 243.775665 304.066833 243.944595 304.066833 244.139969 L 304.066833 244.249863 C 304.066833 244.453384 303.995605 244.624344 303.853149 244.762741 C 303.710663 244.901123 303.541748 244.970322 303.346375 244.970322 L 300.904144 244.970322 C 300.847168 244.970322 300.818665 245.002884 300.818665 245.068008 L 300.818665 247.363708 C 300.818665 247.420685 300.847168 247.449188 300.904144 247.449188 L 304.054626 247.449188 C 304.258148 247.449188 304.429108 247.520416 304.567505 247.662872 C 304.705872 247.805344 304.775085 247.974274 304.775085 248.169647 L 304.775085 248.279541 C 304.775085 248.474915 304.705872 248.643845 304.567505 248.786316 C 304.429108 248.928772 304.258148 249 304.054626 249 Z M 292.478455 249 C 292.283081 249 292.114166 248.928772 291.97171 248.786316 C 291.829254 248.643845 291.757996 248.474915 291.757996 248.279541 L 291.757996 240.464417 C 291.757996 240.269043 291.829254 240.100113 291.97171 239.957657 C 292.114166 239.815186 292.283081 239.743958 292.478455 239.743958 L 292.893646 239.743958 C 293.08902 239.743958 293.257935 239.815186 293.400421 239.957657 C 293.542877 240.100113 293.614105 240.269043 293.614105 240.464417 L 293.614105 247.363708 C 293.614105 247.420685 293.642609 247.449188 293.699585 247.449188 L 296.642456 247.449188 C 296.83783 247.449188 297.006775 247.520416 297.149231 247.662872 C 297.291687 247.805344 297.362915 247.974274 297.362915 248.169647 L 297.362915 248.279541 C 297.362915 248.474915 297.291687 248.643845 297.149231 248.786316 C 297.006775 248.928772 296.83783 249 296.642456 249 Z M 288.802917 247.864365 C 288.045807 248.735428 287.048584 249.170959 285.811188 249.170959 C 284.573792 249.170959 283.574524 248.735428 282.813354 247.864365 C 282.052185 246.993301 281.6716 245.816971 281.6716 244.335342 C 281.6716 242.853729 282.05014 241.689606 282.807251 240.842957 C 283.564331 239.996323 284.565643 239.572998 285.811188 239.572998 C 287.056732 239.572998 288.058044 239.996323 288.815125 240.842957 C 289.572205 241.689606 289.950775 242.853729 289.950775 244.335342 C 289.950775 245.816971 289.568146 246.993301 288.802917 247.864365 Z M 284.174896 246.692093 C 284.58194 247.278229 285.129395 247.571289 285.817291 247.571289 C 286.505188 247.571289 287.052643 247.278229 287.459686 246.692093 C 287.86673 246.105957 288.070251 245.320389 288.070251 244.335342 C 288.070251 243.350311 287.86673 242.574905 287.459686 242.009125 C 287.052643 241.443344 286.503143 241.160446 285.811188 241.160446 C 285.119232 241.160446 284.571747 241.443344 284.168793 242.009125 C 283.765808 242.574905 283.564331 243.350311 283.564331 244.335342 C 283.564331 245.320389 283.767853 246.105957 284.174896 246.692093 Z"/>
        <g id="g3">
            <path id="path5" fill="#cfbc83" fill-rule="evenodd" stroke="none" d="M 280.512604 108.151276 L 269.050415 108.151276 L 269.050415 96.689087 L 280.512604 96.689087 L 280.512604 108.151276 Z M 274.781525 99.815125 C 276.220245 99.815125 277.386566 100.981445 277.386566 102.420166 C 277.386566 103.858887 276.220245 105.025208 274.781525 105.025208 C 273.342773 105.025208 272.176483 103.858887 272.176483 102.420166 C 272.176483 100.981445 273.342773 99.815125 274.781525 99.815125 Z"/>
            <path id="path6" fill="#cfbc83" fill-rule="evenodd" stroke="none" d="M 292.495789 96.689087 C 295.66098 96.689087 298.226898 99.254974 298.226898 102.420166 C 298.226898 105.585358 295.66098 108.151276 292.495789 108.151276 C 289.330597 108.151276 286.764709 105.585358 286.764709 102.420166 C 286.764709 99.254974 289.330597 96.689087 292.495789 96.689087 Z M 292.495789 99.815125 C 293.934509 99.815125 295.10083 100.981445 295.10083 102.420166 C 295.10083 103.858887 293.934509 105.025208 292.495789 105.025208 C 291.057068 105.025208 289.890747 103.858887 289.890747 102.420166 C 289.890747 100.981445 291.057068 99.815125 292.495789 99.815125 Z"/>
            <path id="path7" fill="#cfbc83" fill-rule="evenodd" stroke="none" d="M 308.126038 96.689087 C 311.29126 96.689087 313.857147 99.254974 313.857147 102.420166 C 313.857147 105.585358 311.29126 108.151276 308.126038 108.151276 C 304.960846 108.151276 302.394958 105.585358 302.394958 102.420166 C 302.394958 99.254974 304.960846 96.689087 308.126038 96.689087 Z M 308.126038 99.815125 C 309.564789 99.815125 310.731079 100.981445 310.731079 102.420166 C 310.731079 103.858887 309.564789 105.025208 308.126038 105.025208 C 306.687317 105.025208 305.520996 103.858887 305.520996 102.420166 C 305.520996 100.981445 306.687317 99.815125 308.126038 99.815125 Z"/>
            <path id="path8" fill="#cfbc83" fill-rule="evenodd" stroke="none" d="M 323.756317 96.689087 C 326.921509 96.689087 329.487396 99.254974 329.487396 102.420166 C 329.487396 105.585358 326.921509 108.151276 323.756317 108.151276 C 320.591095 108.151276 318.025208 105.585358 318.025208 102.420166 C 318.025208 99.254974 320.591095 96.689087 323.756317 96.689087 Z M 323.756317 99.815125 C 325.195038 99.815125 326.361359 100.981445 326.361359 102.420166 C 326.361359 103.858887 325.195038 105.025208 323.756317 105.025208 C 322.317566 105.025208 321.151276 103.858887 321.151276 102.420166 C 321.151276 100.981445 322.317566 99.815125 323.756317 99.815125 Z"/>
            <path id="GND" fill="#ffffff" fill-rule="evenodd" stroke="none" d="M 278.821564 116 C 278.707611 116 278.60907 115.958435 278.52597 115.875336 C 278.442871 115.792236 278.401306 115.693695 278.401306 115.579742 L 278.401306 111.020905 C 278.401306 110.906952 278.442871 110.808411 278.52597 110.725311 C 278.60907 110.642181 278.707611 110.600647 278.821564 110.600647 L 279.882935 110.600647 C 280.72821 110.600647 281.384735 110.823822 281.852478 111.270233 C 282.320251 111.716614 282.554108 112.386169 282.554108 113.278961 C 282.554108 114.166992 282.322601 114.842499 281.859619 115.305481 C 281.396606 115.768494 280.756714 116 279.939911 116 Z M 279.484039 115.081116 C 279.484039 115.114349 279.500641 115.130981 279.533905 115.130981 L 279.818817 115.130981 C 280.906281 115.130981 281.450012 114.513641 281.450012 113.278961 C 281.450012 112.642609 281.309937 112.180786 281.029755 111.893494 C 280.749573 111.606201 280.345947 111.462555 279.818817 111.462555 L 279.533905 111.462555 C 279.500641 111.462555 279.484039 111.481537 279.484039 111.519531 Z M 273.365234 116 C 273.251251 116 273.15271 115.958435 273.069611 115.875336 C 272.986511 115.792236 272.944946 115.693695 272.944946 115.579742 L 272.944946 111.020905 C 272.944946 110.906952 272.986511 110.808411 273.069611 110.725311 C 273.15271 110.642181 273.251251 110.600647 273.365234 110.600647 L 273.628784 110.600647 C 273.756989 110.600647 273.876892 110.633881 273.988495 110.700378 C 274.100098 110.766846 274.186768 110.857086 274.248505 110.971039 L 275.61615 113.478394 L 276.150391 114.625244 C 276.155121 114.639465 276.163452 114.646606 276.175323 114.646606 C 276.187195 114.646606 276.193115 114.639465 276.193115 114.625244 C 276.098145 113.751465 276.050659 113.126984 276.050659 112.751831 L 276.050659 111.020905 C 276.050659 110.906952 276.092224 110.808411 276.175323 110.725311 C 276.258423 110.642181 276.356964 110.600647 276.470917 110.600647 L 276.656128 110.600647 C 276.770111 110.600647 276.868622 110.642181 276.951752 110.725311 C 277.034851 110.808411 277.076385 110.906952 277.076385 111.020905 L 277.076385 115.579742 C 277.076385 115.693695 277.034851 115.792236 276.951752 115.875336 C 276.868622 115.958435 276.770111 116 276.656128 116 L 276.399689 116 C 276.271484 116 276.151581 115.966766 276.039978 115.900269 C 275.928375 115.833801 275.841705 115.743561 275.779968 115.629608 L 274.419464 113.108002 L 273.878082 111.968292 C 273.873352 111.958801 273.865021 111.954041 273.853149 111.954041 C 273.841278 111.954041 273.835358 111.958801 273.835358 111.968292 C 273.844849 112.03952 273.8591 112.184357 273.878082 112.402802 C 273.897095 112.621246 273.911346 112.788635 273.920837 112.904999 C 273.930328 113.021332 273.94101 113.169739 273.952881 113.350189 C 273.964752 113.53064 273.970703 113.692108 273.970703 113.834564 L 273.970703 115.579742 C 273.970703 115.693695 273.929138 115.792236 273.846039 115.875336 C 273.762939 115.958435 273.664398 116 273.550415 116 Z M 270.038696 116.099731 C 269.668304 116.099731 269.326385 116.039185 269.01297 115.918091 C 268.699554 115.796997 268.426514 115.621277 268.193817 115.390961 C 267.961121 115.160645 267.77829 114.868591 267.645325 114.514832 C 267.51236 114.161041 267.445892 113.763336 267.445892 113.321686 C 267.445892 112.889557 267.51355 112.494232 267.648895 112.135681 C 267.784241 111.777161 267.969421 111.479156 268.204498 111.24173 C 268.439575 111.004303 268.713806 110.821472 269.027222 110.693237 C 269.340637 110.565033 269.677795 110.500916 270.038696 110.500916 C 270.546844 110.500916 270.997955 110.640991 271.39212 110.921173 C 271.491821 110.992432 271.541687 111.096893 271.541687 111.234619 C 271.541687 111.339081 271.506073 111.431671 271.434845 111.512421 L 271.399231 111.555145 C 271.328003 111.640625 271.235413 111.68811 271.121429 111.697601 C 271.107178 111.697601 271.092926 111.697601 271.078705 111.697601 C 270.978973 111.697601 270.886353 111.671478 270.800903 111.619263 C 270.587189 111.491028 270.345001 111.426941 270.074341 111.426941 C 269.618439 111.426941 269.250427 111.59433 268.970245 111.929108 C 268.690063 112.263916 268.549957 112.716217 268.549957 113.286072 C 268.549957 113.88443 268.685303 114.347412 268.955994 114.675079 C 269.226685 115.002747 269.623199 115.166595 270.145569 115.166595 C 270.406738 115.166595 270.620422 115.109619 270.786652 114.995636 C 270.810394 114.976624 270.822266 114.948151 270.822266 114.910156 L 270.822266 113.955658 C 270.822266 113.917664 270.805634 113.898682 270.7724 113.898682 L 270.288025 113.898682 C 270.174042 113.898682 270.0755 113.858307 269.992401 113.777588 C 269.909302 113.696838 269.867767 113.597107 269.867767 113.478394 L 269.867767 113.435669 C 269.867767 113.321686 269.909302 113.223145 269.992401 113.140045 C 270.0755 113.056946 270.174042 113.015381 270.288025 113.015381 L 271.370728 113.015381 C 271.484711 113.015381 271.583252 113.056946 271.666351 113.140045 C 271.749451 113.223145 271.791016 113.321686 271.791016 113.435669 L 271.791016 115.03125 C 271.791016 115.344666 271.679413 115.570221 271.456207 115.707947 C 271.04306 115.969147 270.570587 116.099731 270.038696 116.099731 Z"/>
            <path id="VCC" fill="#ffffff" fill-rule="evenodd" stroke="none" d="M 296.943481 116.099731 C 296.601563 116.099731 296.282196 116.039185 295.985413 115.918091 C 295.688599 115.796997 295.427429 115.621277 295.201874 115.390961 C 294.976288 115.160645 294.798218 114.868591 294.667633 114.514832 C 294.537018 114.161041 294.471741 113.763336 294.471741 113.321686 C 294.471741 112.889557 294.538208 112.494232 294.671173 112.135681 C 294.804138 111.777161 294.985779 111.479156 295.216095 111.24173 C 295.446411 111.004303 295.713531 110.821472 296.017456 110.693237 C 296.321381 110.565033 296.644287 110.500916 296.986206 110.500916 C 297.442108 110.500916 297.862366 110.640991 298.247009 110.921173 C 298.351501 110.992432 298.403717 111.096893 298.403717 111.234619 C 298.403717 111.339081 298.368103 111.434052 298.296875 111.519531 L 298.268372 111.555145 C 298.197144 111.640625 298.102173 111.68811 297.983459 111.697601 C 297.969208 111.697601 297.954956 111.697601 297.940704 111.697601 C 297.841003 111.697601 297.750763 111.671478 297.670044 111.619263 C 297.46109 111.491028 297.240265 111.426941 297.007568 111.426941 C 296.589691 111.426941 296.246582 111.59433 295.978271 111.929108 C 295.709991 112.263916 295.575836 112.716217 295.575836 113.286072 C 295.575836 113.870178 295.70285 114.32962 295.956909 114.664398 C 296.210968 114.999207 296.554077 115.166595 296.986206 115.166595 C 297.271149 115.166595 297.537079 115.081116 297.783997 114.910156 C 297.864746 114.85318 297.957336 114.824677 298.061798 114.824677 C 298.07132 114.824677 298.080811 114.824677 298.090302 114.824677 C 298.204285 114.829437 298.296875 114.874542 298.368103 114.960022 L 298.396606 114.988525 C 298.472595 115.073975 298.510559 115.173706 298.510559 115.287689 C 298.510559 115.420654 298.463074 115.525116 298.368103 115.601105 C 297.969208 115.933533 297.494324 116.099731 296.943481 116.099731 Z M 292.427399 116.099731 C 292.08548 116.099731 291.766113 116.039185 291.46933 115.918091 C 291.172516 115.796997 290.911346 115.621277 290.685791 115.390961 C 290.460205 115.160645 290.282135 114.868591 290.15155 114.514832 C 290.020935 114.161041 289.955658 113.763336 289.955658 113.321686 C 289.955658 112.889557 290.022125 112.494232 290.15509 112.135681 C 290.288055 111.777161 290.469696 111.479156 290.700012 111.24173 C 290.930328 111.004303 291.197449 110.821472 291.501373 110.693237 C 291.805298 110.565033 292.128204 110.500916 292.470123 110.500916 C 292.926025 110.500916 293.346283 110.640991 293.730927 110.921173 C 293.835388 110.992432 293.887634 111.096893 293.887634 111.234619 C 293.887634 111.339081 293.85202 111.434052 293.780792 111.519531 L 293.752289 111.555145 C 293.681061 111.640625 293.58609 111.68811 293.467377 111.697601 C 293.453125 111.697601 293.438873 111.697601 293.424622 111.697601 C 293.324921 111.697601 293.23468 111.671478 293.153961 111.619263 C 292.945007 111.491028 292.724182 111.426941 292.491486 111.426941 C 292.073608 111.426941 291.730499 111.59433 291.462189 111.929108 C 291.193909 112.263916 291.059753 112.716217 291.059753 113.286072 C 291.059753 113.870178 291.186768 114.32962 291.440826 114.664398 C 291.694885 114.999207 292.037994 115.166595 292.470123 115.166595 C 292.755066 115.166595 293.020996 115.081116 293.267914 114.910156 C 293.348663 114.85318 293.441254 114.824677 293.545715 114.824677 C 293.555237 114.824677 293.564728 114.824677 293.574219 114.824677 C 293.688202 114.829437 293.780792 114.874542 293.85202 114.960022 L 293.880524 114.988525 C 293.956482 115.073975 293.994476 115.173706 293.994476 115.287689 C 293.994476 115.420654 293.946991 115.525116 293.85202 115.601105 C 293.453125 115.933533 292.978241 116.099731 292.427399 116.099731 Z M 287.163361 116 C 287.039917 116 286.928314 115.963196 286.828583 115.889587 C 286.728851 115.815979 286.660004 115.719818 286.622009 115.601105 L 285.21875 111.006653 C 285.209259 110.973419 285.204498 110.940186 285.204498 110.906952 C 285.204498 110.845215 285.225861 110.785858 285.268616 110.728851 C 285.330353 110.643372 285.413452 110.600647 285.517914 110.600647 L 285.809967 110.600647 C 285.933441 110.600647 286.043854 110.638641 286.141205 110.7146 C 286.238556 110.790588 286.303833 110.887939 286.337097 111.006653 L 286.942566 113.229095 C 286.994781 113.414307 287.0672 113.695648 287.159821 114.073181 C 287.252411 114.450714 287.32959 114.743958 287.391327 114.952881 C 287.396057 114.967133 287.404388 114.974274 287.41626 114.974274 C 287.428131 114.974274 287.434052 114.967133 287.434052 114.952881 C 287.486298 114.762939 287.561096 114.479218 287.658447 114.101685 C 287.755798 113.724152 287.832947 113.433289 287.889923 113.229095 L 288.481171 111.006653 C 288.514404 110.887939 288.579681 110.790588 288.677032 110.7146 C 288.774384 110.638641 288.884796 110.600647 289.00827 110.600647 L 289.264709 110.600647 C 289.369171 110.600647 289.452271 110.643372 289.514008 110.728851 C 289.556763 110.785858 289.578125 110.845215 289.578125 110.906952 C 289.578125 110.940186 289.573364 110.973419 289.563873 111.006653 L 288.153503 115.601105 C 288.115509 115.719818 288.046631 115.815979 287.94693 115.889587 C 287.847198 115.963196 287.735596 116 287.612122 116 Z"/>
            <path id="SCL" fill="#ffffff" fill-rule="evenodd" stroke="none" d="M 311.647064 116 C 311.533081 116 311.43454 115.958435 311.35144 115.875336 C 311.268341 115.792236 311.226807 115.693695 311.226807 115.579742 L 311.226807 111.020905 C 311.226807 110.906952 311.268341 110.808411 311.35144 110.725311 C 311.43454 110.642181 311.533081 110.600647 311.647064 110.600647 L 311.889252 110.600647 C 312.003204 110.600647 312.101746 110.642181 312.184845 110.725311 C 312.267975 110.808411 312.309509 110.906952 312.309509 111.020905 L 312.309509 115.045502 C 312.309509 115.078735 312.326141 115.095367 312.359375 115.095367 L 314.07605 115.095367 C 314.190033 115.095367 314.288574 115.136902 314.371674 115.220001 C 314.454773 115.303131 314.496338 115.401642 314.496338 115.515625 L 314.496338 115.579742 C 314.496338 115.693695 314.454773 115.792236 314.371674 115.875336 C 314.288574 115.958435 314.190033 116 314.07605 116 Z M 308.641083 116.099731 C 308.299164 116.099731 307.979828 116.039185 307.683014 115.918091 C 307.38623 115.796997 307.125031 115.621277 306.899475 115.390961 C 306.673889 115.160645 306.495819 114.868591 306.365234 114.514832 C 306.23465 114.161041 306.169342 113.763336 306.169342 113.321686 C 306.169342 112.889557 306.23584 112.494232 306.368805 112.135681 C 306.50177 111.777161 306.683411 111.479156 306.913727 111.24173 C 307.144043 111.004303 307.411163 110.821472 307.715088 110.693237 C 308.018982 110.565033 308.341919 110.500916 308.683838 110.500916 C 309.139709 110.500916 309.559967 110.640991 309.944611 110.921173 C 310.049103 110.992432 310.101318 111.096893 310.101318 111.234619 C 310.101318 111.339081 310.065704 111.434052 309.994476 111.519531 L 309.966003 111.555145 C 309.894775 111.640625 309.799774 111.68811 309.681061 111.697601 C 309.666809 111.697601 309.652588 111.697601 309.638336 111.697601 C 309.538605 111.697601 309.448364 111.671478 309.367645 111.619263 C 309.158691 111.491028 308.937897 111.426941 308.7052 111.426941 C 308.287292 111.426941 307.944214 111.59433 307.675903 111.929108 C 307.407593 112.263916 307.273438 112.716217 307.273438 113.286072 C 307.273438 113.870178 307.400452 114.32962 307.654541 114.664398 C 307.9086 114.999207 308.251678 115.166595 308.683838 115.166595 C 308.96875 115.166595 309.23468 115.081116 309.481628 114.910156 C 309.562347 114.85318 309.654938 114.824677 309.75943 114.824677 C 309.768921 114.824677 309.778412 114.824677 309.787903 114.824677 C 309.901886 114.829437 309.994476 114.874542 310.065704 114.960022 L 310.094208 114.988525 C 310.170197 115.073975 310.208191 115.173706 310.208191 115.287689 C 310.208191 115.420654 310.160706 115.525116 310.065704 115.601105 C 309.666809 115.933533 309.191956 116.099731 308.641083 116.099731 Z M 303.50528 116.099731 C 302.906921 116.099731 302.36084 115.926392 301.866943 115.579742 C 301.771973 115.513245 301.719757 115.420654 301.710236 115.301941 C 301.705505 115.287689 301.703125 115.275818 301.703125 115.266327 C 301.703125 115.161835 301.738739 115.069244 301.809967 114.988525 L 301.888336 114.895905 C 301.959564 114.805695 302.054535 114.755829 302.173248 114.746338 C 302.1875 114.746338 302.204132 114.746338 302.223114 114.746338 C 302.318085 114.746338 302.408325 114.77243 302.493805 114.824677 C 302.840454 115.052612 303.187103 115.166595 303.533783 115.166595 C 303.809204 115.166595 304.020538 115.111969 304.167725 115.002747 C 304.314941 114.893524 304.38855 114.741577 304.38855 114.546875 C 304.38855 114.371155 304.331573 114.23938 304.21759 114.15155 C 304.103638 114.06369 303.908936 113.960388 303.633514 113.841675 C 303.609772 113.832184 303.59314 113.825073 303.583649 113.820313 L 302.857086 113.514008 C 302.543671 113.381042 302.283661 113.195862 302.077087 112.958405 C 301.870514 112.720978 301.767242 112.421814 301.767242 112.060883 C 301.767242 111.614502 301.942932 111.24292 302.294342 110.946106 C 302.645752 110.649323 303.092133 110.500916 303.633514 110.500916 C 304.136871 110.500916 304.592743 110.640991 305.00116 110.921173 C 305.100861 110.987671 305.155487 111.082642 305.164978 111.206116 C 305.164978 111.215607 305.164978 111.227478 305.164978 111.24173 C 305.164978 111.346191 305.129364 111.438812 305.058136 111.519531 L 305.043884 111.540894 C 304.972656 111.631134 304.877686 111.68335 304.758972 111.697601 C 304.735229 111.702362 304.711487 111.704742 304.687744 111.704742 C 304.597504 111.704742 304.512024 111.681 304.431305 111.633514 C 304.184357 111.495789 303.918427 111.426941 303.633514 111.426941 C 303.396057 111.426941 303.206116 111.476807 303.06366 111.576508 C 302.921173 111.676239 302.849945 111.816315 302.849945 111.996796 C 302.849945 112.087006 302.868958 112.165375 302.906952 112.231842 C 302.944916 112.29834 303.007843 112.360077 303.095703 112.417053 C 303.183563 112.47403 303.261902 112.519135 303.33078 112.552399 C 303.399628 112.585632 303.50528 112.628357 303.647736 112.680603 C 303.671478 112.690094 303.68811 112.697235 303.697601 112.701965 L 304.402802 113.00116 C 304.758972 113.148376 305.029633 113.337128 305.214844 113.567444 C 305.400055 113.79776 305.492645 114.098114 305.492645 114.468506 C 305.492645 114.929138 305.313385 115.316162 304.954834 115.629608 C 304.596313 115.943024 304.113129 116.099731 303.50528 116.099731 Z"/>
            <path id="SDA" fill="#ffffff" fill-rule="evenodd" stroke="none" d="M 327.699097 113.720581 C 327.694366 113.734833 327.695557 113.747894 327.702667 113.759766 C 327.709778 113.771637 327.720459 113.777588 327.734711 113.777588 L 328.910034 113.777588 C 328.924286 113.777588 328.936157 113.771637 328.945648 113.759766 C 328.955139 113.747894 328.95752 113.734833 328.952789 113.720581 L 328.803192 113.18634 C 328.741455 112.972656 328.655975 112.65567 328.546753 112.235413 C 328.437531 111.815155 328.366302 111.548035 328.333069 111.434052 C 328.333069 111.424561 328.328308 111.4198 328.318817 111.4198 C 328.309326 111.4198 328.302185 111.424561 328.297455 111.434052 C 328.159729 112.013397 328.007782 112.597504 327.841553 113.18634 Z M 329.999878 116 C 329.876404 116 329.764832 115.962006 329.6651 115.886017 C 329.565369 115.810059 329.498901 115.712708 329.465637 115.593994 L 329.216339 114.667969 C 329.206848 114.629974 329.183105 114.610992 329.145111 114.610992 L 327.499664 114.610992 C 327.4664 114.610992 327.445038 114.629974 327.435547 114.667969 L 327.179108 115.593994 C 327.145874 115.712708 327.080566 115.810059 326.983215 115.886017 C 326.885864 115.962006 326.775482 116 326.652008 116 L 326.395569 116 C 326.291077 116 326.207977 115.957275 326.14624 115.871796 C 326.108276 115.81955 326.089264 115.762573 326.089264 115.700836 C 326.089264 115.667572 326.094025 115.634338 326.103516 115.601105 L 327.578003 110.999542 C 327.615997 110.880829 327.684845 110.784668 327.784576 110.71106 C 327.884308 110.637451 327.998291 110.600647 328.126495 110.600647 L 328.553894 110.600647 C 328.677338 110.600647 328.790131 110.637451 328.892242 110.71106 C 328.994324 110.784668 329.064362 110.880829 329.102356 110.999542 L 330.583984 115.601105 C 330.593475 115.634338 330.598236 115.667572 330.598236 115.700836 C 330.598236 115.762573 330.576874 115.81955 330.534119 115.871796 C 330.472382 115.957275 330.391663 116 330.291931 116 Z M 321.950714 116 C 321.836731 116 321.73822 115.958435 321.65509 115.875336 C 321.571991 115.792236 321.530457 115.693695 321.530457 115.579742 L 321.530457 111.020905 C 321.530457 110.906952 321.571991 110.808411 321.65509 110.725311 C 321.73822 110.642181 321.836731 110.600647 321.950714 110.600647 L 323.012054 110.600647 C 323.857361 110.600647 324.513855 110.823822 324.981628 111.270233 C 325.449371 111.716614 325.683258 112.386169 325.683258 113.278961 C 325.683258 114.166992 325.451752 114.842499 324.988739 115.305481 C 324.525726 115.768494 323.885834 116 323.069061 116 Z M 322.613159 115.081116 C 322.613159 115.114349 322.629791 115.130981 322.663025 115.130981 L 322.947968 115.130981 C 324.035431 115.130981 324.579163 114.513641 324.579163 113.278961 C 324.579163 112.642609 324.439087 112.180786 324.158905 111.893494 C 323.878723 111.606201 323.475067 111.462555 322.947968 111.462555 L 322.663025 111.462555 C 322.629791 111.462555 322.613159 111.481537 322.613159 111.519531 Z M 318.595703 116.099731 C 317.997345 116.099731 317.451263 115.926392 316.957367 115.579742 C 316.862396 115.513245 316.81015 115.420654 316.800659 115.301941 C 316.795929 115.287689 316.793549 115.275818 316.793549 115.266327 C 316.793549 115.161835 316.829163 115.069244 316.900391 114.988525 L 316.97876 114.895905 C 317.049988 114.805695 317.144958 114.755829 317.263672 114.746338 C 317.277924 114.746338 317.294525 114.746338 317.313538 114.746338 C 317.408508 114.746338 317.498749 114.77243 317.584229 114.824677 C 317.930878 115.052612 318.277527 115.166595 318.624207 115.166595 C 318.899628 115.166595 319.110931 115.111969 319.258148 115.002747 C 319.405365 114.893524 319.478973 114.741577 319.478973 114.546875 C 319.478973 114.371155 319.421997 114.23938 319.308014 114.15155 C 319.194061 114.06369 318.999359 113.960388 318.723907 113.841675 C 318.700165 113.832184 318.683563 113.825073 318.674072 113.820313 L 317.94751 113.514008 C 317.634064 113.381042 317.374084 113.195862 317.167511 112.958405 C 316.960938 112.720978 316.857666 112.421814 316.857666 112.060883 C 316.857666 111.614502 317.033356 111.24292 317.384766 110.946106 C 317.736176 110.649323 318.182556 110.500916 318.723907 110.500916 C 319.227295 110.500916 319.683167 110.640991 320.091553 110.921173 C 320.191284 110.987671 320.245911 111.082642 320.255402 111.206116 C 320.255402 111.215607 320.255402 111.227478 320.255402 111.24173 C 320.255402 111.346191 320.219788 111.438812 320.14856 111.519531 L 320.134308 111.540894 C 320.06308 111.631134 319.968109 111.68335 319.849365 111.697601 C 319.825623 111.702362 319.80188 111.704742 319.778137 111.704742 C 319.687927 111.704742 319.602448 111.681 319.521729 111.633514 C 319.27478 111.495789 319.00885 111.426941 318.723907 111.426941 C 318.486481 111.426941 318.296539 111.476807 318.154053 111.576508 C 318.011597 111.676239 317.940369 111.816315 317.940369 111.996796 C 317.940369 112.087006 317.959381 112.165375 317.997345 112.231842 C 318.035339 112.29834 318.098267 112.360077 318.186127 112.417053 C 318.273987 112.47403 318.352325 112.519135 318.421173 112.552399 C 318.490051 112.585632 318.595703 112.628357 318.738159 112.680603 C 318.761902 112.690094 318.778534 112.697235 318.788025 112.701965 L 319.493225 113.00116 C 319.849396 113.148376 320.120056 113.337128 320.305267 113.567444 C 320.490479 113.79776 320.583069 114.098114 320.583069 114.468506 C 320.583069 114.929138 320.403809 115.316162 320.045258 115.629608 C 319.686737 115.943024 319.203552 116.099731 318.595703 116.099731 Z"/>
        </g>
    </g>
    <g id="g4">
        <path id="path9" fill="#ffffff" fill-rule="evenodd" stroke="#000000" stroke-width="10" stroke-opacity="0.12941" d="M 343.773224 223.279663 C 346.02301 222.676163 347.78009 220.919098 348.383575 218.669296 L 349.758667 213.554703 C 350.411835 211.136856 353.841949 211.136856 354.491302 213.554703 L 355.870209 218.669296 C 356.473724 220.919098 358.230774 222.676163 360.476776 223.279663 L 365.59137 224.654755 C 368.009216 225.307922 368.009216 228.738037 365.59137 229.39119 L 360.476776 230.766296 C 358.230774 231.369797 356.473724 233.126862 355.870209 235.372849 L 354.491302 240.487427 C 353.841949 242.905304 350.411835 242.905304 349.758667 240.487427 L 348.383575 235.372849 C 347.78009 233.126862 346.02301 231.369797 343.773224 230.766296 L 338.65863 229.39119 C 336.240753 228.738037 336.240753 225.307922 338.65863 224.654755 Z"/>
        <path id="path10" fill="#ffffff" fill-rule="evenodd" stroke="none" d="M 343.773224 223.279663 C 346.02301 222.676163 347.78009 220.919098 348.383575 218.669296 L 349.758667 213.554703 C 350.411835 211.136856 353.841949 211.136856 354.491302 213.554703 L 355.870209 218.669296 C 356.473724 220.919098 358.230774 222.676163 360.476776 223.279663 L 365.59137 224.654755 C 368.009216 225.307922 368.009216 228.738037 365.59137 229.39119 L 360.476776 230.766296 C 358.230774 231.369797 356.473724 233.126862 355.870209 235.372849 L 354.491302 240.487427 C 353.841949 242.905304 350.411835 242.905304 349.758667 240.487427 L 348.383575 235.372849 C 347.78009 233.126862 346.02301 231.369797 343.773224 230.766296 L 338.65863 229.39119 C 336.240753 228.738037 336.240753 225.307922 338.65863 224.654755 Z"/>
    </g>
    <g id="g5">
        <path id="path11" fill="#ffffff" fill-rule="evenodd" stroke="#000000" stroke-width="10" stroke-opacity="0.12941" d="M 397.33371 134.876862 C 400.577423 134.006744 403.110657 131.47348 403.980774 128.229797 L 405.963348 120.855804 C 406.90506 117.369827 411.850433 117.369827 412.786652 120.855804 L 414.774719 128.229797 C 415.644806 131.47348 418.178101 134.006744 421.41629 134.876862 L 428.790283 136.859421 C 432.276276 137.801117 432.276276 142.746521 428.790283 143.688217 L 421.41629 145.670792 C 418.178101 146.540894 415.644836 149.074158 414.774719 152.312347 L 412.786652 159.686356 C 411.850433 163.172333 406.90506 163.172333 405.963348 159.686356 L 403.980774 152.312347 C 403.110657 149.074158 400.577393 146.540909 397.33371 145.670792 L 389.959717 143.688217 C 386.473724 142.746521 386.473724 137.801117 389.959717 136.859421 Z"/>
        <path id="path12" fill="#ffffff" fill-rule="evenodd" stroke="none" d="M 397.33371 134.876862 C 400.577423 134.006744 403.110657 131.47348 403.980774 128.229797 L 405.963348 120.855804 C 406.90506 117.369827 411.850433 117.369827 412.786652 120.855804 L 414.774719 128.229797 C 415.644806 131.47348 418.178101 134.006744 421.41629 134.876862 L 428.790283 136.859421 C 432.276276 137.801117 432.276276 142.746521 428.790283 143.688217 L 421.41629 145.670792 C 418.178101 146.540894 415.644836 149.074158 414.774719 152.312347 L 412.786652 159.686356 C 411.850433 163.172333 406.90506 163.172333 405.963348 159.686356 L 403.980774 152.312347 C 403.110657 149.074158 400.577393 146.540909 397.33371 145.670792 L 389.959717 143.688217 C 386.473724 142.746521 386.473724 137.801117 389.959717 136.859421 Z"/>
    </g>
    <g id="g6">
        <path id="path13" fill="#ffffff" fill-rule="evenodd" stroke="#000000" stroke-width="10" stroke-opacity="0.12941" d="M 231.273209 78.779663 C 233.52301 78.176178 235.28009 76.419098 235.883575 74.169281 L 237.258667 69.054718 C 237.911835 66.636841 241.341949 66.636841 241.991302 69.054718 L 243.370209 74.169281 C 243.973724 76.419098 245.730774 78.176147 247.976776 78.779663 L 253.09137 80.154755 C 255.509216 80.807922 255.509216 84.238037 253.09137 84.891205 L 247.976776 86.266296 C 245.730774 86.869781 243.973724 88.626862 243.370209 90.872864 L 241.991302 95.987457 C 241.341949 98.405304 237.911835 98.405304 237.258667 95.987457 L 235.883575 90.872864 C 235.28009 88.626862 233.52301 86.869812 231.273209 86.266296 L 226.15863 84.891205 C 223.740753 84.238037 223.740753 80.807922 226.15863 80.154755 Z"/>
        <path id="path14" fill="#ffffff" fill-rule="evenodd" stroke="none" d="M 231.273209 78.779663 C 233.52301 78.176178 235.28009 76.419098 235.883575 74.169281 L 237.258667 69.054718 C 237.911835 66.636841 241.341949 66.636841 241.991302 69.054718 L 243.370209 74.169281 C 243.973724 76.419098 245.730774 78.176147 247.976776 78.779663 L 253.09137 80.154755 C 255.509216 80.807922 255.509216 84.238037 253.09137 84.891205 L 247.976776 86.266296 C 245.730774 86.869781 243.973724 88.626862 243.370209 90.872864 L 241.991302 95.987457 C 241.341949 98.405304 237.911835 98.405304 237.258667 95.987457 L 235.883575 90.872864 C 235.28009 88.626862 233.52301 86.869812 231.273209 86.266296 L 226.15863 84.891205 C 223.740753 84.238037 223.740753 80.807922 226.15863 80.154755 Z"/>
    </g>
</svg>
