<?xml version="1.0" encoding="UTF-8"?>
<!-- Generated by Pixelmator Pro 3.7.1 -->
<svg width="80" height="80" viewBox="0 0 80 80" xmlns="http://www.w3.org/2000/svg">
    <g id="-">
        <path id="path1" fill="#2a2f35" fill-rule="evenodd" stroke="none" d="M 11.954382 66.571426 C 8.665868 66.571426 6 63.905563 6 60.617046 L 6 19.382954 C 6 16.094437 8.665868 13.428574 11.954382 13.428574 L 67.627853 13.428574 C 70.916367 13.428574 73.58223 16.094437 73.58223 19.382954 L 73.58223 60.617046 C 73.58223 63.905563 70.916367 66.571426 67.627853 66.571426 L 58.249699 66.571426 C 54.961185 66.571426 52.295319 63.905563 52.295319 60.617046 L 52.295319 59.723892 L 27.286915 59.723892 L 27.286915 60.617046 C 27.286915 63.905563 24.621048 66.571426 21.332533 66.571426 L 11.954382 66.571426 Z M 16.82473 60.212486 C 16.82473 57.828312 14.891975 55.895557 12.507803 55.895557 C 10.123631 55.895557 8.190876 57.828312 8.190876 60.212486 C 8.190876 62.596657 10.123631 64.529411 12.507803 64.529411 C 14.891975 64.529411 16.82473 62.596657 16.82473 60.212486 Z M 67.074432 55.895557 C 69.458603 55.895557 71.391357 57.828312 71.391357 60.212486 C 71.391357 62.596657 69.458603 64.529411 67.074432 64.529411 C 64.690254 64.529411 62.757504 62.596657 62.757504 60.212486 C 62.757504 57.828312 64.690254 55.895557 67.074432 55.895557 Z M 16.82473 19.638657 C 16.82473 17.254482 14.891975 15.321732 12.507803 15.321732 C 10.123631 15.321732 8.190876 17.254482 8.190876 19.638657 C 8.190876 22.022827 10.123631 23.955582 12.507803 23.955582 C 14.891975 23.955582 16.82473 22.022827 16.82473 19.638657 Z M 67.074432 15.321732 C 69.458603 15.321732 71.391357 17.254482 71.391357 19.638657 C 71.391357 22.022827 69.458603 23.955582 67.074432 23.955582 C 64.690254 23.955582 62.757504 22.022827 62.757504 19.638657 C 62.757504 17.254482 64.690254 15.321732 67.074432 15.321732 Z"/>
        <path id="path2" fill="#151515" fill-rule="evenodd" stroke="none" d="M 17.908764 48.559425 L 61.524609 48.559425 L 61.524609 22.509003 L 17.908764 22.509003 Z"/>
        <path id="path3" fill="#000000" fill-rule="evenodd" stroke="none" d="M 17.908764 48.410564 L 61.524609 48.410564 L 61.524609 53.769508 L 17.908764 53.769508 Z"/>
        <path id="--2" fill="#262626" fill-rule="evenodd" stroke="none" d="M 27.138056 49.54454 L 52.295319 49.54454 L 52.295319 53.769508 L 27.138056 53.769508 Z"/>
        <path id="HELLO-" fill="#ffffff" fill-rule="evenodd" stroke="none" d="M 48.024647 34.831993 C 47.911514 34.965694 47.767529 35.042831 47.592686 35.0634 C 47.572113 35.0634 47.546402 35.0634 47.515549 35.0634 C 47.371559 35.0634 47.243 35.01712 47.129864 34.924557 C 46.985878 34.821709 46.893314 34.688004 46.852173 34.523445 C 46.841888 34.472023 46.836746 34.420597 46.836746 34.369171 C 46.836746 34.256039 46.867599 34.142906 46.92931 34.029774 L 47.608112 32.872723 C 47.64925 32.800728 47.633823 32.749306 47.561829 32.718452 L 46.358498 32.178493 C 46.193943 32.106499 46.075665 31.993366 46.00367 31.839092 C 45.962532 31.746529 45.941963 31.653965 45.941963 31.561401 C 45.941963 31.489407 45.952248 31.417416 45.972816 31.345421 C 46.034527 31.180862 46.137375 31.057442 46.281364 30.975166 C 46.394497 30.913456 46.507629 30.882599 46.620762 30.882599 C 46.672188 30.882599 46.723614 30.887745 46.775036 30.898029 L 48.086357 31.191147 C 48.158352 31.211716 48.199493 31.180862 48.209778 31.098583 L 48.333195 29.756409 C 48.353764 29.581566 48.428329 29.435005 48.556892 29.31673 C 48.685452 29.198452 48.839725 29.139313 49.019711 29.139313 C 49.199696 29.139313 49.35397 29.198452 49.482529 29.31673 C 49.611092 29.435005 49.685658 29.581566 49.706226 29.756409 L 49.829643 31.098583 C 49.829643 31.180862 49.870785 31.211716 49.953064 31.191147 L 51.264385 30.898029 C 51.315807 30.887745 51.367233 30.882599 51.418655 30.882599 C 51.531792 30.882599 51.639782 30.913456 51.74263 30.975166 C 51.88662 31.057442 51.989468 31.180862 52.051178 31.345421 C 52.071747 31.417416 52.082031 31.489407 52.082031 31.561401 C 52.082031 31.653965 52.061462 31.746529 52.020321 31.839092 C 51.948326 31.993366 51.835194 32.106499 51.68092 32.178493 L 50.446735 32.718452 C 50.374741 32.749306 50.359314 32.800728 50.400455 32.872723 L 51.079258 34.029774 C 51.151249 34.142906 51.187248 34.256039 51.187248 34.369171 C 51.187248 34.420597 51.182106 34.472023 51.171822 34.523445 C 51.13068 34.688004 51.038116 34.821709 50.894127 34.924557 C 50.780994 35.01712 50.652435 35.0634 50.508446 35.0634 C 50.487877 35.0634 50.462162 35.0634 50.431309 35.0634 C 50.256466 35.042831 50.112476 34.965694 49.999344 34.831993 L 49.089134 33.798363 C 49.037708 33.746937 48.986286 33.746937 48.93486 33.798363 Z M 36.963268 44.36607 C 36.778141 44.36607 36.618725 44.299217 36.48502 44.165516 C 36.351318 44.031811 36.284466 43.869823 36.284466 43.679554 C 36.284466 43.489285 36.351318 43.327297 36.48502 43.193596 C 36.618725 43.059891 36.778141 42.993038 36.963268 42.993038 L 44.136967 42.993038 C 44.332378 42.993038 44.494366 43.059891 44.622929 43.193596 C 44.751488 43.327297 44.815769 43.489285 44.815769 43.679554 C 44.815769 43.869823 44.751488 44.031811 44.622929 44.165516 C 44.494366 44.299217 44.332378 44.36607 44.136967 44.36607 Z M 28.617092 36.945534 C 28.40111 36.945534 28.231409 36.858112 28.10799 36.68327 C 28.035997 36.570137 28 36.457001 28 36.343868 C 28 36.261589 28.015427 36.184452 28.046282 36.112457 L 30.128969 30.743755 C 30.231817 30.486633 30.396376 30.280937 30.622643 30.126663 C 30.848909 29.972389 31.100889 29.895252 31.37858 29.895252 L 31.471146 29.895252 C 31.738552 29.895252 31.985388 29.972389 32.211655 30.126663 C 32.437923 30.280937 32.602482 30.486633 32.70533 30.743755 L 34.803444 36.112457 C 34.834297 36.184452 34.849728 36.261589 34.849728 36.343868 C 34.849728 36.457001 34.813728 36.570137 34.741734 36.68327 C 34.618317 36.858112 34.448616 36.945534 34.232632 36.945534 L 34.124641 36.945534 C 33.846951 36.945534 33.597542 36.868397 33.376419 36.714123 C 33.155293 36.559853 32.993305 36.354153 32.890457 36.097031 L 32.273365 34.415455 L 31.471146 32.024223 C 31.460859 32.003651 31.442862 31.993366 31.417149 31.993366 C 31.391438 31.993366 31.373438 32.003651 31.363153 32.024223 L 30.560934 34.415455 L 29.943842 36.097031 C 29.851276 36.354153 29.694433 36.559853 29.473309 36.714123 C 29.252184 36.868397 29.002775 36.945534 28.725084 36.945534 Z"/>
        <path id="OLED" fill="#ffffff" fill-rule="evenodd" stroke="none" d="M 42.103951 58.285713 C 42.04813 58.285713 41.99987 58.265366 41.959167 58.224659 C 41.918457 58.183956 41.898106 58.135693 41.898106 58.079868 L 41.898106 55.846977 C 41.898106 55.791153 41.918457 55.742889 41.959167 55.702187 C 41.99987 55.661484 42.04813 55.641129 42.103951 55.641129 L 42.623798 55.641129 C 43.037815 55.641129 43.359375 55.75045 43.588482 55.969086 C 43.817585 56.187729 43.932137 56.515678 43.932137 56.952957 C 43.932137 57.387909 43.818745 57.718765 43.591972 57.945549 C 43.365192 58.172325 43.051777 58.285713 42.651707 58.285713 Z M 42.428425 57.835648 C 42.428425 57.851929 42.436558 57.860069 42.452847 57.860069 L 42.5924 57.860069 C 43.125042 57.860069 43.391357 57.557701 43.391357 56.952957 C 43.391357 56.641281 43.322746 56.415085 43.185513 56.274368 C 43.048279 56.133644 42.850578 56.06329 42.5924 56.06329 L 42.452847 56.06329 C 42.436558 56.06329 42.428425 56.072594 42.428425 56.091202 Z M 39.909443 58.285713 C 39.853619 58.285713 39.805351 58.265366 39.764648 58.224659 C 39.723946 58.183956 39.703594 58.135693 39.703594 58.079868 L 39.703594 55.846977 C 39.703594 55.791153 39.723946 55.742889 39.764648 55.702187 C 39.805351 55.661484 39.853619 55.641129 39.909443 55.641129 L 41.120083 55.641129 C 41.17823 55.641129 41.227077 55.661484 41.266621 55.702187 C 41.30616 55.742889 41.325928 55.791153 41.325928 55.846977 L 41.325928 55.874886 C 41.325928 55.933037 41.30616 55.98188 41.266621 56.021423 C 41.227077 56.060959 41.17823 56.080734 41.120083 56.080734 L 40.258327 56.080734 C 40.242046 56.080734 40.233906 56.090034 40.233906 56.108643 L 40.233906 56.666866 C 40.233906 56.683151 40.242046 56.691288 40.258327 56.691288 L 40.956108 56.691288 C 41.011929 56.691288 41.060188 56.711639 41.100899 56.752346 C 41.141602 56.793045 41.161953 56.841312 41.161953 56.897133 L 41.161953 56.928532 C 41.161953 56.986679 41.141602 57.035526 41.100899 57.075069 C 41.060188 57.114609 41.011929 57.134377 40.956108 57.134377 L 40.258327 57.134377 C 40.242046 57.134377 40.233906 57.143681 40.233906 57.162289 L 40.233906 57.818203 C 40.233906 57.834484 40.242046 57.842625 40.258327 57.842625 L 41.158466 57.842625 C 41.216614 57.842625 41.265461 57.862976 41.305 57.903679 C 41.344536 57.944382 41.364311 57.992645 41.364311 58.04847 L 41.364311 58.079868 C 41.364311 58.135693 41.344536 58.183956 41.305 58.224659 C 41.265461 58.265366 41.216614 58.285713 41.158466 58.285713 Z M 37.850986 58.285713 C 37.795166 58.285713 37.746906 58.265366 37.706203 58.224659 C 37.665501 58.183956 37.645142 58.135693 37.645142 58.079868 L 37.645142 55.846977 C 37.645142 55.791153 37.665501 55.742889 37.706203 55.702187 C 37.746906 55.661484 37.795166 55.641129 37.850986 55.641129 L 37.969612 55.641129 C 38.025433 55.641129 38.073696 55.661484 38.114407 55.702187 C 38.155109 55.742889 38.175457 55.791153 38.175457 55.846977 L 38.175457 57.818203 C 38.175457 57.834484 38.183601 57.842625 38.199883 57.842625 L 39.040703 57.842625 C 39.096523 57.842625 39.144794 57.862976 39.185493 57.903679 C 39.226196 57.944382 39.246548 57.992645 39.246548 58.04847 L 39.246548 58.079868 C 39.246548 58.135693 39.226196 58.183956 39.185493 58.224659 C 39.144794 58.265366 39.096523 58.285713 39.040703 58.285713 Z M 36.800835 57.961246 C 36.584515 58.210121 36.299595 58.33456 35.946053 58.33456 C 35.59251 58.33456 35.307007 58.210121 35.089531 57.961246 C 34.872051 57.712372 34.763313 57.376278 34.763313 56.952957 C 34.763313 56.529636 34.871468 56.197029 35.087788 55.955132 C 35.304096 55.713234 35.590183 55.592285 35.946053 55.592285 C 36.301922 55.592285 36.588013 55.713234 36.804321 55.955132 C 37.02063 56.197029 37.128792 56.529636 37.128792 56.952957 C 37.128792 57.376278 37.01947 57.712372 36.800835 57.961246 Z M 35.478542 57.626312 C 35.594841 57.793781 35.751255 57.877514 35.947796 57.877514 C 36.144341 57.877514 36.300755 57.793781 36.417053 57.626312 C 36.533352 57.458847 36.591499 57.234398 36.591499 56.952957 C 36.591499 56.671516 36.533352 56.449974 36.417053 56.288322 C 36.300755 56.126671 36.143757 56.045841 35.946053 56.045841 C 35.748352 56.045841 35.591927 56.126671 35.476799 56.288322 C 35.36166 56.449974 35.304096 56.671516 35.304096 56.952957 C 35.304096 57.234398 35.362244 57.458847 35.478542 57.626312 Z"/>
        <g id="g1">
            <path id="path4" fill="#cfbc83" fill-rule="evenodd" stroke="none" d="M 34.432175 18.043217 L 31.157263 18.043217 L 31.157263 14.768311 L 34.432175 14.768311 L 34.432175 18.043217 Z M 32.79472 15.661461 C 33.205784 15.661461 33.539017 15.994698 33.539017 16.405762 C 33.539017 16.816826 33.205784 17.150059 32.79472 17.150059 C 32.383652 17.150059 32.050419 16.816826 32.050419 16.405762 C 32.050419 15.994698 32.383652 15.661461 32.79472 15.661461 Z"/>
            <path id="path5" fill="#cfbc83" fill-rule="evenodd" stroke="none" d="M 37.855942 14.768311 C 38.760284 14.768311 39.493397 15.501419 39.493397 16.405762 C 39.493397 17.310104 38.760284 18.043217 37.855942 18.043217 C 36.951599 18.043217 36.218487 17.310104 36.218487 16.405762 C 36.218487 15.501419 36.951599 14.768311 37.855942 14.768311 Z M 37.855942 15.661461 C 38.267006 15.661461 38.600239 15.994698 38.600239 16.405762 C 38.600239 16.816826 38.267006 17.150059 37.855942 17.150059 C 37.444878 17.150059 37.111645 16.816826 37.111645 16.405762 C 37.111645 15.994698 37.444878 15.661461 37.855942 15.661461 Z"/>
            <path id="path6" fill="#cfbc83" fill-rule="evenodd" stroke="none" d="M 42.321728 14.768311 C 43.22607 14.768311 43.959183 15.501419 43.959183 16.405762 C 43.959183 17.310104 43.22607 18.043217 42.321728 18.043217 C 41.417389 18.043217 40.684273 17.310104 40.684273 16.405762 C 40.684273 15.501419 41.417389 14.768311 42.321728 14.768311 Z M 42.321728 15.661461 C 42.732792 15.661461 43.066025 15.994698 43.066025 16.405762 C 43.066025 16.816826 42.732792 17.150059 42.321728 17.150059 C 41.910664 17.150059 41.577431 16.816826 41.577431 16.405762 C 41.577431 15.994698 41.910664 15.661461 42.321728 15.661461 Z"/>
            <path id="path7" fill="#cfbc83" fill-rule="evenodd" stroke="none" d="M 46.787514 14.768311 C 47.691856 14.768311 48.424969 15.501419 48.424969 16.405762 C 48.424969 17.310104 47.691856 18.043217 46.787514 18.043217 C 45.883175 18.043217 45.150059 17.310104 45.150059 16.405762 C 45.150059 15.501419 45.883175 14.768311 46.787514 14.768311 Z M 46.787514 15.661461 C 47.198578 15.661461 47.531815 15.994698 47.531815 16.405762 C 47.531815 16.816826 47.198578 17.150059 46.787514 17.150059 C 46.37645 17.150059 46.043217 16.816826 46.043217 16.405762 C 46.043217 15.994698 46.37645 15.661461 46.787514 15.661461 Z"/>
            <path id="GND" fill="#ffffff" fill-rule="evenodd" stroke="none" d="M 33.949017 20.285713 C 33.916462 20.285713 33.888306 20.273838 33.864563 20.250095 C 33.84082 20.226353 33.828945 20.1982 33.828945 20.165642 L 33.828945 18.863117 C 33.828945 18.830559 33.84082 18.802402 33.864563 18.77866 C 33.888306 18.75491 33.916462 18.743042 33.949017 18.743042 L 34.252266 18.743042 C 34.493774 18.743042 34.681355 18.806805 34.814995 18.934353 C 34.948643 19.06189 35.015461 19.253193 35.015461 19.508274 C 35.015461 19.761997 34.949314 19.954998 34.817036 20.08728 C 34.684746 20.21957 34.501919 20.285713 34.268547 20.285713 Z M 34.138298 20.023174 C 34.138298 20.032673 34.14304 20.037422 34.152546 20.037422 L 34.233948 20.037422 C 34.544651 20.037422 34.700005 19.861042 34.700005 19.508274 C 34.700005 19.326458 34.659981 19.194511 34.579929 19.112427 C 34.499878 19.030342 34.384556 18.9893 34.233948 18.9893 L 34.152546 18.9893 C 34.14304 18.9893 34.138298 18.994724 34.138298 19.005581 Z M 32.390068 20.285713 C 32.357506 20.285713 32.32935 20.273838 32.305607 20.250095 C 32.281864 20.226353 32.269989 20.1982 32.269989 20.165642 L 32.269989 18.863117 C 32.269989 18.830559 32.281864 18.802402 32.305607 18.77866 C 32.32935 18.75491 32.357506 18.743042 32.390068 18.743042 L 32.465366 18.743042 C 32.502003 18.743042 32.536259 18.752537 32.568146 18.771538 C 32.600033 18.790527 32.62479 18.816311 32.642429 18.848869 L 33.033184 19.565254 L 33.185825 19.892925 C 33.187183 19.896992 33.189556 19.899029 33.192951 19.899029 C 33.196342 19.899029 33.198036 19.896992 33.198036 19.892925 C 33.170902 19.643276 33.15733 19.464851 33.15733 19.357666 L 33.15733 18.863117 C 33.15733 18.830559 33.169209 18.802402 33.192951 18.77866 C 33.216694 18.75491 33.244846 18.743042 33.277409 18.743042 L 33.330322 18.743042 C 33.362888 18.743042 33.391041 18.75491 33.414787 18.77866 C 33.43853 18.802402 33.450401 18.830559 33.450401 18.863117 L 33.450401 20.165642 C 33.450401 20.1982 33.43853 20.226353 33.414787 20.250095 C 33.391041 20.273838 33.362888 20.285713 33.330322 20.285713 L 33.257057 20.285713 C 33.220425 20.285713 33.186165 20.276218 33.154278 20.257221 C 33.122398 20.238228 33.097633 20.212444 33.079994 20.17989 L 32.691277 19.459431 L 32.536598 19.133797 C 32.535244 19.131084 32.532867 19.129726 32.529476 19.129726 C 32.526085 19.129726 32.524387 19.131084 32.524387 19.133797 C 32.527103 19.154148 32.53117 19.19553 32.536598 19.257942 C 32.542027 19.320354 32.546101 19.368183 32.548809 19.401428 C 32.551525 19.434666 32.554577 19.47707 32.557972 19.528625 C 32.561363 19.580181 32.563057 19.626316 32.563057 19.667019 L 32.563057 20.165642 C 32.563057 20.1982 32.551186 20.226353 32.527443 20.250095 C 32.503696 20.273838 32.475548 20.285713 32.442982 20.285713 Z M 31.439632 20.314209 C 31.333801 20.314209 31.236115 20.296909 31.146566 20.26231 C 31.057016 20.227715 30.979004 20.177509 30.912519 20.111702 C 30.846035 20.045898 30.793802 19.962456 30.755812 19.861382 C 30.717821 19.760296 30.698826 19.646667 30.698826 19.520481 C 30.698826 19.397015 30.718157 19.284065 30.756826 19.181622 C 30.795498 19.079189 30.84841 18.994045 30.915571 18.926208 C 30.982737 18.858372 31.061087 18.806133 31.150635 18.769497 C 31.240187 18.732868 31.336517 18.714546 31.439632 18.714546 C 31.584812 18.714546 31.713705 18.75457 31.826321 18.834621 C 31.854811 18.85498 31.869059 18.884827 31.869059 18.924175 C 31.869059 18.954021 31.858883 18.980476 31.838531 19.003548 L 31.828356 19.015755 C 31.808001 19.04018 31.781546 19.053745 31.748983 19.056458 C 31.744913 19.056458 31.740841 19.056458 31.736773 19.056458 C 31.708279 19.056458 31.68182 19.048992 31.6574 19.034077 C 31.596344 18.997437 31.527147 18.979126 31.449812 18.979126 C 31.319559 18.979126 31.214407 19.026951 31.134356 19.122601 C 31.054304 19.218262 31.014278 19.347492 31.014278 19.510307 C 31.014278 19.681267 31.052948 19.813545 31.130283 19.907166 C 31.207624 20.000786 31.320913 20.0476 31.470163 20.0476 C 31.544786 20.0476 31.605839 20.031319 31.65333 19.998753 C 31.660112 19.99332 31.663504 19.985188 31.663504 19.974331 L 31.663504 19.701618 C 31.663504 19.690762 31.658756 19.685337 31.649258 19.685337 L 31.510864 19.685337 C 31.478302 19.685337 31.450148 19.673801 31.426405 19.650738 C 31.402662 19.627666 31.390791 19.599174 31.390791 19.565254 L 31.390791 19.553047 C 31.390791 19.520481 31.402662 19.492329 31.426405 19.468586 C 31.450148 19.444843 31.478302 19.432964 31.510864 19.432964 L 31.820211 19.432964 C 31.852779 19.432964 31.88093 19.444843 31.904676 19.468586 C 31.928419 19.492329 31.94029 19.520481 31.94029 19.553047 L 31.94029 20.00893 C 31.94029 20.098476 31.908403 20.162922 31.844635 20.202271 C 31.726593 20.276897 31.591597 20.314209 31.439632 20.314209 Z"/>
            <path id="VCC" fill="#ffffff" fill-rule="evenodd" stroke="none" d="M 39.126709 20.314209 C 39.029018 20.314209 38.937771 20.296909 38.852974 20.26231 C 38.768169 20.227715 38.69355 20.177509 38.629108 20.111702 C 38.564655 20.045898 38.513775 19.962456 38.476467 19.861382 C 38.439148 19.760296 38.420498 19.646667 38.420498 19.520481 C 38.420498 19.397015 38.439487 19.284065 38.477478 19.181622 C 38.515469 19.079189 38.567364 18.994045 38.633171 18.926208 C 38.698975 18.858372 38.775295 18.806133 38.862129 18.769497 C 38.948967 18.732868 39.041225 18.714546 39.138916 18.714546 C 39.269173 18.714546 39.389248 18.75457 39.499146 18.834621 C 39.528999 18.85498 39.543919 18.884827 39.543919 18.924175 C 39.543919 18.954021 39.533745 18.981159 39.513393 19.005581 L 39.505249 19.015755 C 39.484898 19.04018 39.457764 19.053745 39.423847 19.056458 C 39.419773 19.056458 39.415703 19.056458 39.411629 19.056458 C 39.383144 19.056458 39.357361 19.048992 39.334297 19.034077 C 39.274597 18.997437 39.211506 18.979126 39.14502 18.979126 C 39.025627 18.979126 38.927593 19.026951 38.850933 19.122601 C 38.774284 19.218262 38.735954 19.347492 38.735954 19.510307 C 38.735954 19.677193 38.772243 19.808464 38.84483 19.904114 C 38.917419 19.999775 39.01545 20.0476 39.138916 20.0476 C 39.220329 20.0476 39.296307 20.023174 39.366856 19.974331 C 39.389927 19.95805 39.416382 19.949909 39.446228 19.949909 C 39.448948 19.949909 39.45166 19.949909 39.454372 19.949909 C 39.486938 19.951267 39.513393 19.964153 39.533745 19.988579 L 39.541889 19.996723 C 39.563599 20.021137 39.574444 20.049629 39.574444 20.082195 C 39.574444 20.120186 39.560879 20.150032 39.533745 20.171745 C 39.419773 20.266724 39.284092 20.314209 39.126709 20.314209 Z M 37.836399 20.314209 C 37.738708 20.314209 37.647461 20.296909 37.562664 20.26231 C 37.477863 20.227715 37.40324 20.177509 37.338799 20.111702 C 37.274345 20.045898 37.223469 19.962456 37.186157 19.861382 C 37.148838 19.760296 37.130188 19.646667 37.130188 19.520481 C 37.130188 19.397015 37.149178 19.284065 37.187168 19.181622 C 37.225159 19.079189 37.277058 18.994045 37.342861 18.926208 C 37.408665 18.858372 37.484985 18.806133 37.571819 18.769497 C 37.658657 18.732868 37.750916 18.714546 37.848606 18.714546 C 37.978863 18.714546 38.098938 18.75457 38.208836 18.834621 C 38.238682 18.85498 38.253609 18.884827 38.253609 18.924175 C 38.253609 18.954021 38.243435 18.981159 38.223083 19.005581 L 38.214939 19.015755 C 38.194588 19.04018 38.167454 19.053745 38.133537 19.056458 C 38.129463 19.056458 38.125393 19.056458 38.121319 19.056458 C 38.092834 19.056458 38.067051 19.048992 38.043987 19.034077 C 37.984287 18.997437 37.921196 18.979126 37.85471 18.979126 C 37.735317 18.979126 37.637287 19.026951 37.560627 19.122601 C 37.483974 19.218262 37.445644 19.347492 37.445644 19.510307 C 37.445644 19.677193 37.481934 19.808464 37.554523 19.904114 C 37.62711 19.999775 37.72514 20.0476 37.848606 20.0476 C 37.930019 20.0476 38.006001 20.023174 38.076546 19.974331 C 38.099617 19.95805 38.126072 19.949909 38.155918 19.949909 C 38.158638 19.949909 38.16135 19.949909 38.164063 19.949909 C 38.196629 19.951267 38.223083 19.964153 38.243435 19.988579 L 38.251579 19.996723 C 38.273281 20.021137 38.284138 20.049629 38.284138 20.082195 C 38.284138 20.120186 38.270569 20.150032 38.243435 20.171745 C 38.129463 20.266724 37.993782 20.314209 37.836399 20.314209 Z M 36.33239 20.285713 C 36.297119 20.285713 36.265232 20.2752 36.236736 20.254169 C 36.208244 20.233135 36.188572 20.205662 36.177715 20.171745 L 35.776787 18.859043 C 35.774075 18.849548 35.772713 18.840054 35.772713 18.830559 C 35.772713 18.81292 35.778816 18.795959 35.791035 18.779671 C 35.808674 18.755249 35.832417 18.743042 35.862263 18.743042 L 35.945705 18.743042 C 35.980984 18.743042 36.012531 18.753899 36.040344 18.7756 C 36.068157 18.79731 36.086811 18.825127 36.096313 18.859043 L 36.269306 19.494026 C 36.284222 19.546944 36.304913 19.627327 36.331379 19.735195 C 36.35783 19.84306 36.379883 19.926846 36.397522 19.986538 C 36.398872 19.990608 36.401253 19.992649 36.404644 19.992649 C 36.408039 19.992649 36.409729 19.990608 36.409729 19.986538 C 36.424656 19.93227 36.446026 19.851204 36.473843 19.74334 C 36.501656 19.635471 36.523701 19.552368 36.539978 19.494026 L 36.708904 18.859043 C 36.718403 18.825127 36.737053 18.79731 36.764866 18.7756 C 36.792683 18.753899 36.824226 18.743042 36.859505 18.743042 L 36.932774 18.743042 C 36.96262 18.743042 36.986362 18.755249 37.004002 18.779671 C 37.016216 18.795959 37.02232 18.81292 37.02232 18.830559 C 37.02232 18.840054 37.020962 18.849548 37.01825 18.859043 L 36.615288 20.171745 C 36.604431 20.205662 36.584751 20.233135 36.556267 20.254169 C 36.527771 20.2752 36.495884 20.285713 36.460606 20.285713 Z"/>
            <path id="SCL" fill="#ffffff" fill-rule="evenodd" stroke="none" d="M 43.327732 20.285713 C 43.295166 20.285713 43.26701 20.273838 43.243267 20.250095 C 43.219524 20.226353 43.207661 20.1982 43.207661 20.165642 L 43.207661 18.863117 C 43.207661 18.830559 43.219524 18.802402 43.243267 18.77866 C 43.26701 18.75491 43.295166 18.743042 43.327732 18.743042 L 43.396931 18.743042 C 43.429485 18.743042 43.457642 18.75491 43.481384 18.77866 C 43.505135 18.802402 43.517002 18.830559 43.517002 18.863117 L 43.517002 20.013 C 43.517002 20.022495 43.521755 20.027248 43.53125 20.027248 L 44.021729 20.027248 C 44.054295 20.027248 44.082451 20.039116 44.106194 20.062859 C 44.129936 20.086609 44.141811 20.114754 44.141811 20.14732 L 44.141811 20.165642 C 44.141811 20.1982 44.129936 20.226353 44.106194 20.250095 C 44.082451 20.273838 44.054295 20.285713 44.021729 20.285713 Z M 42.46888 20.314209 C 42.371189 20.314209 42.279949 20.296909 42.195148 20.26231 C 42.110352 20.227715 42.035725 20.177509 41.971279 20.111702 C 41.906826 20.045898 41.855949 19.962456 41.818638 19.861382 C 41.78133 19.760296 41.762669 19.646667 41.762669 19.520481 C 41.762669 19.397015 41.78167 19.284065 41.81966 19.181622 C 41.857647 19.079189 41.909546 18.994045 41.975349 18.926208 C 42.041157 18.858372 42.117474 18.806133 42.204311 18.769497 C 42.291138 18.732868 42.383404 18.714546 42.481098 18.714546 C 42.611347 18.714546 42.731419 18.75457 42.841316 18.834621 C 42.871174 18.85498 42.886089 18.884827 42.886089 18.924175 C 42.886089 18.954021 42.875916 18.981159 42.855564 19.005581 L 42.847431 19.015755 C 42.82708 19.04018 42.799934 19.053745 42.766018 19.056458 C 42.761944 19.056458 42.757881 19.056458 42.753811 19.056458 C 42.725315 19.056458 42.699532 19.048992 42.676472 19.034077 C 42.616768 18.997437 42.553684 18.979126 42.487202 18.979126 C 42.367798 18.979126 42.269775 19.026951 42.193115 19.122601 C 42.116455 19.218262 42.078125 19.347492 42.078125 19.510307 C 42.078125 19.677193 42.114414 19.808464 42.187012 19.904114 C 42.259602 19.999775 42.357624 20.0476 42.481098 20.0476 C 42.5625 20.0476 42.638481 20.023174 42.709038 19.974331 C 42.732098 19.95805 42.758553 19.949909 42.78841 19.949909 C 42.791119 19.949909 42.793831 19.949909 42.796543 19.949909 C 42.829109 19.951267 42.855564 19.964153 42.875916 19.988579 L 42.88406 19.996723 C 42.905769 20.021137 42.916626 20.049629 42.916626 20.082195 C 42.916626 20.120186 42.903057 20.150032 42.875916 20.171745 C 42.761944 20.266724 42.626274 20.314209 42.46888 20.314209 Z M 41.001507 20.314209 C 40.830547 20.314209 40.674526 20.264683 40.533413 20.165642 C 40.506279 20.146641 40.49136 20.120186 40.48864 20.086269 C 40.487286 20.082195 40.486607 20.078804 40.486607 20.076092 C 40.486607 20.046238 40.496784 20.019783 40.517132 19.996723 L 40.539524 19.970257 C 40.559875 19.944485 40.587009 19.930237 40.62093 19.927525 C 40.625 19.927525 40.629753 19.927525 40.635174 19.927525 C 40.662312 19.927525 40.688091 19.934978 40.712517 19.949909 C 40.811558 20.015034 40.910603 20.0476 41.009651 20.0476 C 41.088345 20.0476 41.148724 20.03199 41.190777 20.000786 C 41.232841 19.969578 41.253872 19.926167 41.253872 19.870537 C 41.253872 19.820332 41.237591 19.782681 41.205025 19.757587 C 41.172466 19.732483 41.11684 19.702969 41.038147 19.669048 C 41.031364 19.66634 41.026611 19.664307 41.023899 19.662945 L 40.816311 19.575432 C 40.726765 19.537441 40.652473 19.484531 40.593452 19.416687 C 40.534431 19.34885 40.504925 19.263374 40.504925 19.160252 C 40.504925 19.032715 40.555122 18.926548 40.655525 18.841743 C 40.755928 18.75695 40.883465 18.714546 41.038147 18.714546 C 41.181965 18.714546 41.312214 18.75457 41.428902 18.834621 C 41.45739 18.853619 41.472996 18.880756 41.475708 18.916035 C 41.475708 18.918743 41.475708 18.922138 41.475708 18.926208 C 41.475708 18.956055 41.465534 18.982517 41.445183 19.005581 L 41.441109 19.011684 C 41.420757 19.037468 41.393623 19.052387 41.359707 19.056458 C 41.352924 19.057819 41.346138 19.058498 41.339355 19.058498 C 41.313572 19.058498 41.28915 19.051716 41.266087 19.038147 C 41.19553 18.998798 41.119549 18.979126 41.038147 18.979126 C 40.970303 18.979126 40.916035 18.993374 40.875332 19.021858 C 40.834621 19.050354 40.81427 19.090374 40.81427 19.141941 C 40.81427 19.167717 40.819702 19.190105 40.830559 19.209099 C 40.841404 19.228096 40.859383 19.245735 40.884487 19.262016 C 40.909588 19.278294 40.931973 19.29118 40.951653 19.300686 C 40.971321 19.310181 41.001507 19.322388 41.04221 19.337315 C 41.048992 19.340027 41.053745 19.342068 41.056458 19.343418 L 41.257942 19.428902 C 41.359707 19.470966 41.437038 19.524895 41.489956 19.590698 C 41.542873 19.656502 41.569328 19.742317 41.569328 19.848145 C 41.569328 19.979755 41.518108 20.090332 41.415668 20.17989 C 41.313232 20.269436 41.175179 20.314209 41.001507 20.314209 Z"/>
            <path id="SDA" fill="#ffffff" fill-rule="evenodd" stroke="none" d="M 47.914028 19.634453 C 47.912678 19.638523 47.913017 19.642254 47.915047 19.645649 C 47.91708 19.64904 47.920132 19.650738 47.924202 19.650738 L 48.26001 19.650738 C 48.26408 19.650738 48.267475 19.64904 48.270184 19.645649 C 48.272896 19.642254 48.273579 19.638523 48.272224 19.634453 L 48.229485 19.481812 C 48.211845 19.420757 48.18742 19.330193 48.156216 19.210117 C 48.125008 19.090046 48.104656 19.013725 48.095161 18.981159 C 48.095161 18.978447 48.093803 18.977085 48.091091 18.977085 C 48.088379 18.977085 48.086338 18.978447 48.084988 18.981159 C 48.045635 19.146687 48.002224 19.313572 47.954731 19.481812 Z M 48.571392 20.285713 C 48.536114 20.285713 48.504238 20.27486 48.475742 20.253147 C 48.447247 20.231445 48.428257 20.203632 48.418755 20.169712 L 48.347527 19.905132 C 48.344814 19.894279 48.338032 19.888855 48.327175 19.888855 L 47.857048 19.888855 C 47.847542 19.888855 47.841438 19.894279 47.838726 19.905132 L 47.765461 20.169712 C 47.755962 20.203632 47.737305 20.231445 47.709492 20.253147 C 47.681675 20.27486 47.650139 20.285713 47.614861 20.285713 L 47.541592 20.285713 C 47.511738 20.285713 47.487995 20.273506 47.470356 20.249084 C 47.459507 20.234158 47.454075 20.217876 47.454075 20.200237 C 47.454075 20.190735 47.455437 20.18124 47.458149 20.171745 L 47.879429 18.857014 C 47.890285 18.823093 47.909954 18.79562 47.93845 18.77459 C 47.966946 18.753559 47.999512 18.743042 48.03614 18.743042 L 48.158257 18.743042 C 48.193523 18.743042 48.22575 18.753559 48.254925 18.77459 C 48.284092 18.79562 48.304104 18.823093 48.31496 18.857014 L 48.738281 20.171745 C 48.740993 20.18124 48.742352 20.190735 48.742352 20.200237 C 48.742352 20.217876 48.736248 20.234158 48.724033 20.249084 C 48.706394 20.273506 48.683331 20.285713 48.654839 20.285713 Z M 46.271633 20.285713 C 46.239067 20.285713 46.210918 20.273838 46.187168 20.250095 C 46.163425 20.226353 46.151558 20.1982 46.151558 20.165642 L 46.151558 18.863117 C 46.151558 18.830559 46.163425 18.802402 46.187168 18.77866 C 46.210918 18.75491 46.239067 18.743042 46.271633 18.743042 L 46.574871 18.743042 C 46.816387 18.743042 47.00396 18.806805 47.137608 18.934353 C 47.271248 19.06189 47.338074 19.253193 47.338074 19.508274 C 47.338074 19.761997 47.271931 19.954998 47.139641 20.08728 C 47.007351 20.21957 46.824524 20.285713 46.59116 20.285713 Z M 46.460903 20.023174 C 46.460903 20.032673 46.465656 20.037422 46.475151 20.037422 L 46.556561 20.037422 C 46.867268 20.037422 47.022617 19.861042 47.022617 19.508274 C 47.022617 19.326458 46.982597 19.194511 46.902546 19.112427 C 46.822491 19.030342 46.707161 18.9893 46.556561 18.9893 L 46.475151 18.9893 C 46.465656 18.9893 46.460903 18.994724 46.460903 19.005581 Z M 45.313057 20.314209 C 45.142097 20.314209 44.986076 20.264683 44.844963 20.165642 C 44.817829 20.146641 44.802898 20.120186 44.80019 20.086269 C 44.798836 20.082195 44.798157 20.078804 44.798157 20.076092 C 44.798157 20.046238 44.808331 20.019783 44.828682 19.996723 L 44.851074 19.970257 C 44.871426 19.944485 44.89856 19.930237 44.932476 19.927525 C 44.93655 19.927525 44.941292 19.927525 44.946724 19.927525 C 44.973858 19.927525 44.999641 19.934978 45.024067 19.949909 C 45.123108 20.015034 45.222149 20.0476 45.321201 20.0476 C 45.399895 20.0476 45.460266 20.03199 45.502327 20.000786 C 45.544392 19.969578 45.565422 19.926167 45.565422 19.870537 C 45.565422 19.820332 45.549141 19.782681 45.516575 19.757587 C 45.484016 19.732483 45.428387 19.702969 45.349689 19.669048 C 45.342903 19.66634 45.338161 19.664307 45.335449 19.662945 L 45.127861 19.575432 C 45.038303 19.537441 44.964024 19.484531 44.905003 19.416687 C 44.845982 19.34885 44.816475 19.263374 44.816475 19.160252 C 44.816475 19.032715 44.866673 18.926548 44.967075 18.841743 C 45.067478 18.75695 45.195015 18.714546 45.349689 18.714546 C 45.493511 18.714546 45.62376 18.75457 45.740444 18.834621 C 45.76894 18.853619 45.784546 18.880756 45.787258 18.916035 C 45.787258 18.918743 45.787258 18.922138 45.787258 18.926208 C 45.787258 18.956055 45.777081 18.982517 45.756733 19.005581 L 45.752659 19.011684 C 45.732307 19.037468 45.705173 19.052387 45.671246 19.056458 C 45.664463 19.057819 45.657681 19.058498 45.650898 19.058498 C 45.625122 19.058498 45.6007 19.051716 45.577637 19.038147 C 45.50708 18.998798 45.431099 18.979126 45.349689 18.979126 C 45.281853 18.979126 45.227581 18.993374 45.186871 19.021858 C 45.146172 19.050354 45.12582 19.090374 45.12582 19.141941 C 45.12582 19.167717 45.131252 19.190105 45.142097 19.209099 C 45.152954 19.228096 45.170933 19.245735 45.196037 19.262016 C 45.221138 19.278294 45.243523 19.29118 45.263191 19.300686 C 45.282871 19.310181 45.313057 19.322388 45.35376 19.337315 C 45.360542 19.340027 45.365295 19.342068 45.368008 19.343418 L 45.569492 19.428902 C 45.671257 19.470966 45.748589 19.524895 45.801506 19.590698 C 45.854424 19.656502 45.880878 19.742317 45.880878 19.848145 C 45.880878 19.979755 45.829659 20.090332 45.727215 20.17989 C 45.624783 20.269436 45.486729 20.314209 45.313057 20.314209 Z"/>
        </g>
    </g>
</svg>
