<?xml version="1.0" encoding="UTF-8"?>
<!-- Generated by Pixelmator Pro 3.7.1 -->
<svg width="600" height="370" viewBox="0 0 600 370" xmlns="http://www.w3.org/2000/svg">
    <g id="g1">
        <path id="path1" fill="#ac8661" stroke="none" d="M 0 370 L 0 0 L 600 0 L 600 370 Z"/>
        <path id="path2" fill="#9d7852" stroke="none" d="M 361.40918 9.462708 C 361.40918 4.357117 365.548065 0.218201 370.653656 0.218201 L 413.794586 0.218201 C 418.900208 0.218201 423.039063 4.357117 423.039063 9.462708 L 423.039063 52.603607 C 423.039063 57.709229 418.900208 61.848083 413.794586 61.848083 L 370.653656 61.848083 C 365.548065 61.848083 361.40918 57.709229 361.40918 52.603607 Z M 484.668945 9.461487 C 484.668945 4.355896 488.807831 0.21701 493.913452 0.21701 L 537.054382 0.21701 C 542.159973 0.21701 546.298828 4.355896 546.298828 9.461487 L 546.298828 52.602417 C 546.298828 57.707977 542.159973 61.846863 537.054382 61.846863 L 493.913452 61.846863 C 488.807831 61.846863 484.668945 57.707977 484.668945 52.602417 Z M 607.928711 9.461487 C 607.928711 4.355896 612.067627 0.21701 617.173218 0.21701 L 660.314148 0.21701 C 665.419739 0.21701 669.558594 4.355896 669.558594 9.461487 L 669.558594 52.602417 C 669.558594 57.707977 665.419739 61.846863 660.314148 61.846863 L 617.173218 61.846863 C 612.067627 61.846863 607.928711 57.707977 607.928711 52.602417 Z M -70 194.353592 C -70 189.248001 -65.861107 185.1091 -60.755516 185.1091 L -17.614599 185.1091 C -12.509012 185.1091 -8.370116 189.248001 -8.370116 194.353592 L -8.370116 237.494507 C -8.370116 242.600098 -12.509012 246.738983 -17.614599 246.738983 L -60.755516 246.738983 C -65.861107 246.738983 -70 242.600098 -70 237.494507 Z M 176.519531 194.353592 C 176.519531 189.248001 180.658432 185.1091 185.764023 185.1091 L 228.904938 185.1091 C 234.010529 185.1091 238.149414 189.248001 238.149414 194.353592 L 238.149414 237.494507 C 238.149414 242.600098 234.010529 246.738983 228.904938 246.738983 L 185.764023 246.738983 C 180.658432 246.738983 176.519531 242.600098 176.519531 237.494507 Z M 299.779297 194.352371 C 299.779297 189.24678 303.918182 185.10788 309.023773 185.10788 L 352.164703 185.10788 C 357.270325 185.10788 361.40918 189.24678 361.40918 194.352371 L 361.40918 237.493286 C 361.40918 242.598877 357.270325 246.737762 352.164703 246.737762 L 309.023773 246.737762 C 303.918182 246.737762 299.779297 242.598877 299.779297 237.493286 Z M 53.259769 194.353592 C 53.259769 189.248001 57.398663 185.1091 62.50425 185.1091 L 105.645172 185.1091 C 110.750755 185.1091 114.889648 189.248001 114.889648 194.353592 L 114.889648 237.494507 C 114.889648 242.600098 110.750755 246.738983 105.645172 246.738983 L 62.50425 246.738983 C 57.398663 246.738983 53.259769 242.600098 53.259769 237.494507 Z M -8.370116 9.465179 C -8.370116 4.359589 -4.23122 0.220703 0.874366 0.220703 L 44.015285 0.220703 C 49.120872 0.220703 53.259769 4.359589 53.259769 9.465179 L 53.259769 52.60611 C 53.259769 57.71167 49.120872 61.850586 44.015285 61.850586 L 0.874366 61.850586 C -4.23122 61.850586 -8.370116 57.71167 -8.370116 52.60611 Z M 114.889648 9.465179 C 114.889648 4.359589 119.028549 0.220703 124.134132 0.220703 L 167.275055 0.220703 C 172.380646 0.220703 176.519531 4.359589 176.519531 9.465179 L 176.519531 52.60611 C 176.519531 57.71167 172.380646 61.850586 167.275055 61.850586 L 124.134132 61.850586 C 119.028549 61.850586 114.889648 57.71167 114.889648 52.60611 Z M 238.149414 9.463928 C 238.149414 4.358368 242.288315 0.219452 247.393906 0.219452 L 290.534821 0.219452 C 295.640411 0.219452 299.779297 4.358368 299.779297 9.463928 L 299.779297 52.604858 C 299.779297 57.710449 295.640411 61.849335 290.534821 61.849335 L 247.393906 61.849335 C 242.288315 61.849335 238.149414 57.710449 238.149414 52.604858 Z M 423.039063 194.352371 C 423.039063 189.24678 427.177948 185.10788 432.283539 185.10788 L 475.424469 185.10788 C 480.53009 185.10788 484.668945 189.24678 484.668945 194.352371 L 484.668945 237.493286 C 484.668945 242.598877 480.53009 246.737762 475.424469 246.737762 L 432.283539 246.737762 C 427.177948 246.737762 423.039063 242.598877 423.039063 237.493286 Z M 546.298828 194.352371 C 546.298828 189.24678 550.437744 185.10788 555.543335 185.10788 L 598.684265 185.10788 C 603.789856 185.10788 607.928711 189.24678 607.928711 194.352371 L 607.928711 237.493286 C 607.928711 242.598877 603.789856 246.737762 598.684265 246.737762 L 555.543335 246.737762 C 550.437744 246.737762 546.298828 242.598877 546.298828 237.493286 Z M -70 71.095062 C -70 65.989471 -65.861107 61.850586 -60.755516 61.850586 L -17.614599 61.850586 C -12.509012 61.850586 -8.370116 65.989471 -8.370116 71.095062 L -8.370116 114.235977 C -8.370798 119.341095 -12.509492 123.479218 -17.614599 123.479218 L -60.755516 123.479218 C -65.861107 123.479218 -70 119.340347 -70 114.234741 Z M 176.519531 71.09259 C 176.519531 65.987 180.658432 61.848083 185.764023 61.848083 L 228.904938 61.848083 C 234.010529 61.848083 238.149414 65.987 238.149414 71.09259 L 238.149414 114.233521 C 238.149734 116.685532 237.175919 119.037201 235.4422 120.771149 C 233.708511 122.505081 231.356949 123.479218 228.904938 123.479218 L 185.764023 123.479218 C 180.658432 123.479218 176.519531 119.340347 176.519531 114.234741 Z M 299.779297 71.09259 C 299.779297 65.987 303.918182 61.848083 309.023773 61.848083 L 352.164703 61.848083 C 357.270325 61.848083 361.40918 65.987 361.40918 71.09259 L 361.40918 114.233521 C 361.40918 119.339111 357.270325 123.477997 352.164703 123.477997 L 309.023773 123.477997 C 303.918182 123.477997 299.779297 119.339111 299.779297 114.233521 Z M 53.259769 71.095062 C 53.259769 65.989471 57.398663 61.850586 62.50425 61.850586 L 105.645172 61.850586 C 110.750755 61.850586 114.889648 65.989471 114.889648 71.095062 L 114.889648 114.235977 C 114.888977 119.341095 110.750267 123.479218 105.645172 123.479218 L 62.50425 123.479218 C 57.398663 123.479218 53.259769 119.340347 53.259769 114.234741 Z M 361.40918 255.982254 C 361.40918 250.876663 365.548065 246.737762 370.653656 246.737762 L 413.794586 246.737762 C 418.900208 246.737762 423.039063 250.876663 423.039063 255.982254 L 423.039063 299.123169 C 423.039063 304.22876 418.900208 308.367645 413.794586 308.367645 L 370.653656 308.367645 C 365.548065 308.367645 361.40918 304.22876 361.40918 299.123169 Z M 484.668945 255.981018 C 484.668945 250.875427 488.807831 246.736526 493.913452 246.736526 L 537.054382 246.736526 C 542.159973 246.736526 546.298828 250.875427 546.298828 255.981018 L 546.298828 299.121918 C 546.298828 304.227509 542.159973 308.366394 537.054382 308.366394 L 493.913452 308.366394 C 488.807831 308.366394 484.668945 304.227509 484.668945 299.121918 Z M 607.928711 255.981018 C 607.928711 250.875427 612.067627 246.736526 617.173218 246.736526 L 660.314148 246.736526 C 665.419739 246.736526 669.558594 250.875427 669.558594 255.981018 L 669.558594 299.121918 C 669.558594 304.227509 665.419739 308.366394 660.314148 308.366394 L 617.173218 308.366394 C 612.067627 308.366394 607.928711 304.227509 607.928711 299.121918 Z M 423.039063 71.09259 C 423.039063 65.987 427.177948 61.848083 432.283539 61.848083 L 475.424469 61.848083 C 480.53009 61.848083 484.668945 65.987 484.668945 71.09259 L 484.668945 114.233521 C 484.668945 119.339111 480.53009 123.477997 475.424469 123.477997 L 432.283539 123.477997 C 427.177948 123.477997 423.039063 119.339111 423.039063 114.233521 Z M 546.298828 71.09259 C 546.298828 65.987 550.437744 61.848083 555.543335 61.848083 L 598.684265 61.848083 C 603.789856 61.848083 607.928711 65.987 607.928711 71.09259 L 607.928711 114.233521 C 607.928711 119.339111 603.789856 123.477997 598.684265 123.477997 L 555.543335 123.477997 C 550.437744 123.477997 546.298828 119.339111 546.298828 114.233521 Z M -8.370116 255.983475 C -8.370116 250.877884 -4.23122 246.738983 0.874366 246.738983 L 44.015285 246.738983 C 49.120872 246.738983 53.259769 250.877884 53.259769 255.983475 L 53.259769 299.12439 C 53.259769 304.22998 49.120872 308.368866 44.015285 308.368866 L 0.874366 308.368866 C -4.23122 308.368866 -8.370116 304.22998 -8.370116 299.12439 Z M 114.889648 255.983475 C 114.889648 250.877884 119.028549 246.738983 124.134132 246.738983 L 167.275055 246.738983 C 172.380646 246.738983 176.519531 250.877884 176.519531 255.983475 L 176.519531 299.12439 C 176.519531 304.22998 172.380646 308.368866 167.275055 308.368866 L 124.134132 308.368866 C 119.028549 308.368866 114.889648 304.22998 114.889648 299.12439 Z M 238.149414 255.983475 C 238.149414 250.877884 242.288315 246.738983 247.393906 246.738983 L 290.534821 246.738983 C 295.640411 246.738983 299.779297 250.877884 299.779297 255.983475 L 299.779297 299.12439 C 299.779297 304.22998 295.640411 308.368866 290.534821 308.368866 L 247.393906 308.368866 C 242.288315 308.368866 238.149414 304.22998 238.149414 299.12439 Z M 361.40918 132.722488 C 361.40918 127.616898 365.548065 123.477997 370.653656 123.477997 L 413.794586 123.477997 C 418.900208 123.477997 423.039063 127.616898 423.039063 132.722488 L 423.039063 175.863403 C 423.039063 180.968994 418.900208 185.10788 413.794586 185.10788 L 370.653656 185.10788 C 365.548065 185.10788 361.40918 180.968994 361.40918 175.863403 Z M 484.668945 132.721268 C 484.669617 127.61615 488.808319 123.477997 493.913452 123.477997 L 537.054382 123.477997 C 542.159485 123.477997 546.298157 127.61615 546.298828 132.721268 L 546.298828 175.862167 C 546.298828 180.967743 542.159973 185.106644 537.054382 185.106644 L 493.913452 185.106644 C 488.807831 185.106644 484.668945 180.967743 484.668945 175.862167 Z M 607.928711 132.721268 C 607.929382 127.61615 612.068115 123.477997 617.173218 123.477997 L 660.314148 123.477997 C 665.419189 123.477997 669.557922 127.61615 669.558594 132.721268 L 669.558594 175.862167 C 669.558594 180.967743 665.419739 185.106644 660.314148 185.106644 L 617.173218 185.106644 C 612.067627 185.106644 607.928711 180.967743 607.928711 175.862167 Z M -70 317.614594 C -70 312.509003 -65.861107 308.370117 -60.755516 308.370117 L -17.614599 308.370117 C -12.509012 308.370117 -8.370116 312.509003 -8.370116 317.614594 L -8.370116 360.755524 C -8.370116 365.861084 -12.509012 370 -17.614599 370 L -60.755516 370 C -65.861107 370 -70 365.861084 -70 360.755524 Z M 176.519531 317.613342 C 176.519531 312.507782 180.658432 308.368866 185.764023 308.368866 L 228.904938 308.368866 C 234.010529 308.368866 238.149414 312.507782 238.149414 317.613342 L 238.149414 360.754272 C 238.149414 365.859894 234.010529 369.998749 228.904938 369.998749 L 185.764023 369.998749 C 180.658432 369.998749 176.519531 365.859894 176.519531 360.754272 Z M 299.779297 317.612122 C 299.779297 312.506561 303.918182 308.367645 309.023773 308.367645 L 352.164703 308.367645 C 357.270325 308.367645 361.40918 312.506561 361.40918 317.612122 L 361.40918 360.753021 C 361.40918 365.858643 357.270325 369.997528 352.164703 369.997528 L 309.023773 369.997528 C 303.918182 369.997528 299.779297 365.858643 299.779297 360.753021 Z M 53.259769 317.614594 C 53.259769 312.509003 57.398663 308.370117 62.50425 308.370117 L 105.645172 308.370117 C 110.750755 308.370117 114.889648 312.509003 114.889648 317.614594 L 114.889648 360.755524 C 114.889648 365.861084 110.750755 370 105.645172 370 L 62.50425 370 C 57.398663 370 53.259769 365.861084 53.259769 360.755524 Z M -8.370116 132.723709 C -8.370116 127.618134 -4.23122 123.479218 0.874366 123.479218 L 44.015285 123.479218 C 49.120872 123.479218 53.259769 127.618134 53.259769 132.723709 L 53.259769 175.864624 C 53.259769 180.970215 49.120872 185.1091 44.015285 185.1091 L 0.874366 185.1091 C -4.23122 185.1091 -8.370116 180.970215 -8.370116 175.864624 Z M 114.889648 132.723709 C 114.889648 127.618134 119.028549 123.479218 124.134132 123.479218 L 167.275055 123.479218 C 172.380646 123.479218 176.519531 127.618134 176.519531 132.723709 L 176.519531 175.864624 C 176.519531 180.970215 172.380646 185.1091 167.275055 185.1091 L 124.134132 185.1091 C 119.028549 185.1091 114.889648 180.970215 114.889648 175.864624 Z M 238.149414 132.723709 C 238.149414 127.618134 242.288315 123.479218 247.393906 123.479218 L 290.534821 123.479218 C 295.640411 123.479218 299.779297 127.618134 299.779297 132.723709 L 299.779297 175.864624 C 299.779297 180.970215 295.640411 185.1091 290.534821 185.1091 L 247.393906 185.1091 C 242.288315 185.1091 238.149414 180.970215 238.149414 175.864624 Z M 423.039063 317.612122 C 423.039063 312.506561 427.177948 308.367645 432.283539 308.367645 L 475.424469 308.367645 C 480.53009 308.367645 484.668945 312.506561 484.668945 317.612122 L 484.668945 360.753021 C 484.668945 365.858643 480.53009 369.997528 475.424469 369.997528 L 432.283539 369.997528 C 427.177948 369.997528 423.039063 365.858643 423.039063 360.753021 Z M 546.298828 317.612122 C 546.298828 312.506561 550.437744 308.367645 555.543335 308.367645 L 598.684265 308.367645 C 603.789856 308.367645 607.928711 312.506561 607.928711 317.612122 L 607.928711 360.753021 C 607.928711 365.858643 603.789856 369.997528 598.684265 369.997528 L 555.543335 369.997528 C 550.437744 369.997528 546.298828 365.858643 546.298828 360.753021 Z"/>
    </g>
    <path id="path3" fill="#333333" fill-rule="evenodd" stroke="none" opacity="0.658049" d="M 463 300.277771 C 463 285.519501 392.260986 273.555542 305 273.555542 C 217.738998 273.555542 147 285.519501 147 300.277771 C 147 315.036041 217.738998 327 305 327 C 392.260986 327 463 315.036041 463 300.277771 Z"/>
    <g id="g2">
        <path id="path4" fill="#181a1f" fill-rule="evenodd" stroke="none" d="M 423 295 C 432.941132 295 441 286.941132 441 277 L 441 47 C 441 37.058868 432.941132 29 423 29 L 271 29 C 261.058868 29 253 37.058868 253 47 L 253 277 C 253 286.941132 261.058868 295 271 295 L 423 295 Z M 413 279 C 413 272.372589 418.372589 267 425 267 C 431.627411 267 437 272.372589 437 279 C 437 285.627411 431.627411 291 425 291 C 418.372589 291 413 285.627411 413 279 Z M 425 35 C 418.372589 35 413 40.372589 413 47 C 413 53.627411 418.372589 59 425 59 C 431.627411 59 437 53.627411 437 47 C 437 40.372589 431.627411 35 425 35 Z M 271 266 C 264.372589 266 259 271.372589 259 278 C 259 284.627411 264.372589 290 271 290 C 277.627411 290 283 284.627411 283 278 C 283 271.372589 277.627411 266 271 266 Z M 259 47 C 259 40.372589 264.372589 35 271 35 C 277.627411 35 283 40.372589 283 47 C 283 53.627411 277.627411 59 271 59 C 264.372589 59 259 53.627411 259 47 Z"/>
        <g id="-">
            <path id="path5" fill="none" stroke="#bebcb8" stroke-width="2.655898" stroke-linecap="round" stroke-linejoin="round" d="M 301.641022 270.282043 L 301.641022 253.858978"/>
            <path id="path6" fill="none" stroke="#bebcb8" stroke-width="2.655898" stroke-linecap="round" stroke-linejoin="round" d="M 311.807678 270.282043 L 311.807678 253.858978"/>
            <path id="--2" fill="none" stroke="#bebcb8" stroke-width="2.655898" stroke-linecap="round" stroke-linejoin="round" d="M 321.974365 270.282043 L 321.974365 253.858978"/>
            <path id="--3" fill="none" stroke="#bebcb8" stroke-width="2.655898" stroke-linecap="round" stroke-linejoin="round" d="M 331.358978 270.282043 L 331.358978 253.858978"/>
            <path id="path7" fill="#f1ebd3" fill-rule="evenodd" stroke="none" d="M 347 300 L 347 264.807678 L 286 264.807678 L 286 300 Z"/>
        </g>
        <g id="g3">
            <path id="--5" fill="none" stroke="#bebcb8" stroke-width="2.628543" stroke-linecap="round" stroke-linejoin="round" d="M 319.573761 71 L 319.573761 55.16394"/>
            <path id="--4" fill="none" stroke="#bebcb8" stroke-width="2.628543" stroke-linecap="round" stroke-linejoin="round" d="M 328.622955 71 L 328.622955 55.16394"/>
            <path id="path8" fill="#f1ebd3" fill-rule="evenodd" stroke="none" d="M 343.459015 61.196716 L 343.459015 25 L 305 25 L 305 61.196716 Z"/>
        </g>
        <g id="g4">
            <path id="path9" fill="none" stroke="#bebcb8" stroke-width="2.628543" stroke-linecap="round" stroke-linejoin="round" d="M 294 168.426224 L 278.16394 168.426224"/>
            <path id="path10" fill="none" stroke="#bebcb8" stroke-width="2.628543" stroke-linecap="round" stroke-linejoin="round" d="M 294 159.377045 L 278.16394 159.377045"/>
            <path id="path11" fill="#f1ebd3" fill-rule="evenodd" stroke="none" d="M 284.196716 144.540985 L 248 144.540985 L 248 183 L 284.196716 183 Z"/>
        </g>
        <g id="g5">
            <path id="path12" fill="none" stroke="#bebcb8" stroke-width="2.628543" stroke-linecap="round" stroke-linejoin="round" d="M 400 159.573776 L 415.83606 159.573776"/>
            <path id="path13" fill="none" stroke="#bebcb8" stroke-width="2.628543" stroke-linecap="round" stroke-linejoin="round" d="M 400 168.622955 L 415.83606 168.622955"/>
            <path id="path14" fill="#f1ebd3" fill-rule="evenodd" stroke="none" d="M 409.803284 183.459015 L 446 183.459015 L 446 145 L 409.803284 145 Z"/>
        </g>
        <g id="g6">
            <path id="path15" fill="none" stroke="#bebcb8" stroke-width="2.628543" stroke-linecap="round" stroke-linejoin="round" d="M 366.573761 71 L 366.573761 55.16394"/>
            <path id="path16" fill="none" stroke="#bebcb8" stroke-width="2.628543" stroke-linecap="round" stroke-linejoin="round" d="M 375.622955 71 L 375.622955 55.16394"/>
            <path id="path17" fill="#f1ebd3" fill-rule="evenodd" stroke="none" d="M 390.459015 61.196716 L 390.459015 25 L 352 25 L 352 61.196716 Z"/>
        </g>
        <path id="path18" fill="#e2e5ea" fill-rule="evenodd" stroke="none" d="M 358 167.945129 C 360.569061 166.698898 363.452911 166 366.5 166 C 377.269562 166 386 174.730438 386 185.5 C 386 196.269547 377.269562 205 366.5 205 C 363.452911 205 360.569061 204.301102 358 203.054871 L 358 167.945129 Z"/>
        <path id="path19" fill="#000000" fill-rule="evenodd" stroke="none" d="M 358 203.054871 C 351.489044 199.896454 347 193.222473 347 185.5 C 347 177.777542 351.489044 171.103546 358 167.945129 L 358 203.054871 Z"/>
        <g id="--10">
            <path id="path20" fill="none" stroke="#bebcb8" stroke-width="2.628543" stroke-linecap="round" stroke-linejoin="round" d="M 390.426239 254 L 390.426239 269.83606"/>
            <path id="path21" fill="none" stroke="#bebcb8" stroke-width="2.628543" stroke-linecap="round" stroke-linejoin="round" d="M 381.377045 254 L 381.377045 269.83606"/>
            <path id="path22" fill="#f1ebd3" fill-rule="evenodd" stroke="none" d="M 366.540985 263.803284 L 366.540985 300 L 405 300 L 405 263.803284 Z"/>
        </g>
        <g id="--6">
            <path id="path23" fill="none" stroke="#bebcb8" stroke-width="2.655898" stroke-linecap="round" stroke-linejoin="round" d="M 416.282043 247.358978 L 399.858978 247.358978"/>
            <path id="path24" fill="none" stroke="#bebcb8" stroke-width="2.655898" stroke-linecap="round" stroke-linejoin="round" d="M 416.282043 237.192307 L 399.858978 237.192307"/>
            <path id="path25" fill="none" stroke="#bebcb8" stroke-width="2.655898" stroke-linecap="round" stroke-linejoin="round" d="M 416.282043 227.025635 L 399.858978 227.025635"/>
            <path id="path26" fill="none" stroke="#bebcb8" stroke-width="2.655898" stroke-linecap="round" stroke-linejoin="round" d="M 416.282043 217.641022 L 399.858978 217.641022"/>
            <path id="path27" fill="none" stroke="#bebcb8" stroke-width="2.655898" stroke-linecap="round" stroke-linejoin="round" d="M 416.282043 209.025635 L 399.858978 209.025635"/>
            <path id="path28" fill="none" stroke="#bebcb8" stroke-width="2.655898" stroke-linecap="round" stroke-linejoin="round" d="M 416.282043 199.641022 L 399.858978 199.641022"/>
            <path id="path29" fill="#f1ebd3" fill-rule="evenodd" stroke="none" d="M 446 186 L 410.807678 186 L 410.807678 263 L 446 263 Z"/>
        </g>
        <g id="--8">
            <path id="path30" fill="none" stroke="#bebcb8" stroke-width="2.655898" stroke-linecap="round" stroke-linejoin="round" d="M 277.717957 201.641022 L 294.141022 201.641022"/>
            <path id="path31" fill="none" stroke="#bebcb8" stroke-width="2.655898" stroke-linecap="round" stroke-linejoin="round" d="M 277.717957 211.807693 L 294.141022 211.807693"/>
            <path id="path32" fill="none" stroke="#bebcb8" stroke-width="2.655898" stroke-linecap="round" stroke-linejoin="round" d="M 277.717957 221.974365 L 294.141022 221.974365"/>
            <path id="path33" fill="none" stroke="#bebcb8" stroke-width="2.655898" stroke-linecap="round" stroke-linejoin="round" d="M 277.717957 231.358978 L 294.141022 231.358978"/>
            <path id="path34" fill="none" stroke="#bebcb8" stroke-width="2.655898" stroke-linecap="round" stroke-linejoin="round" d="M 277.717957 239.974365 L 294.141022 239.974365"/>
            <path id="path35" fill="none" stroke="#bebcb8" stroke-width="2.655898" stroke-linecap="round" stroke-linejoin="round" d="M 277.717957 249.358978 L 294.141022 249.358978"/>
            <path id="path36" fill="#f1ebd3" fill-rule="evenodd" stroke="none" d="M 248 263 L 283.192322 263 L 283.192322 186 L 248 186 Z"/>
        </g>
        <g id="--9">
            <path id="path37" fill="none" stroke="#bebcb8" stroke-width="2.655898" stroke-linecap="round" stroke-linejoin="round" d="M 277.717957 79.641022 L 294.141022 79.641022"/>
            <path id="path38" fill="none" stroke="#bebcb8" stroke-width="2.655898" stroke-linecap="round" stroke-linejoin="round" d="M 277.717957 89.807678 L 294.141022 89.807678"/>
            <path id="path39" fill="none" stroke="#bebcb8" stroke-width="2.655898" stroke-linecap="round" stroke-linejoin="round" d="M 277.717957 99.974365 L 294.141022 99.974365"/>
            <path id="path40" fill="none" stroke="#bebcb8" stroke-width="2.655898" stroke-linecap="round" stroke-linejoin="round" d="M 277.717957 109.358978 L 294.141022 109.358978"/>
            <path id="path41" fill="none" stroke="#bebcb8" stroke-width="2.655898" stroke-linecap="round" stroke-linejoin="round" d="M 277.717957 117.974365 L 294.141022 117.974365"/>
            <path id="path42" fill="none" stroke="#bebcb8" stroke-width="2.655898" stroke-linecap="round" stroke-linejoin="round" d="M 277.717957 127.358978 L 294.141022 127.358978"/>
            <path id="path43" fill="#f1ebd3" fill-rule="evenodd" stroke="none" d="M 248 141 L 283.192322 141 L 283.192322 64 L 248 64 Z"/>
        </g>
        <g id="--7">
            <path id="path44" fill="none" stroke="#bebcb8" stroke-width="2.655898" stroke-linecap="round" stroke-linejoin="round" d="M 416.282043 125.358978 L 399.858978 125.358978"/>
            <path id="path45" fill="none" stroke="#bebcb8" stroke-width="2.655898" stroke-linecap="round" stroke-linejoin="round" d="M 416.282043 115.192307 L 399.858978 115.192307"/>
            <path id="path46" fill="none" stroke="#bebcb8" stroke-width="2.655898" stroke-linecap="round" stroke-linejoin="round" d="M 416.282043 105.025635 L 399.858978 105.025635"/>
            <path id="path47" fill="none" stroke="#bebcb8" stroke-width="2.655898" stroke-linecap="round" stroke-linejoin="round" d="M 416.282043 95.641022 L 399.858978 95.641022"/>
            <path id="path48" fill="none" stroke="#bebcb8" stroke-width="2.655898" stroke-linecap="round" stroke-linejoin="round" d="M 416.282043 87.025635 L 399.858978 87.025635"/>
            <path id="path49" fill="none" stroke="#bebcb8" stroke-width="2.655898" stroke-linecap="round" stroke-linejoin="round" d="M 416.282043 77.641022 L 399.858978 77.641022"/>
            <path id="path50" fill="#f1ebd3" fill-rule="evenodd" stroke="none" d="M 446 64 L 410.807678 64 L 410.807678 141 L 446 141 Z"/>
        </g>
        <g id="g7">
            <path id="path51" fill="none" stroke="#bebcb8" stroke-width="2.628543" stroke-linecap="round" stroke-linejoin="round" d="M 310.000031 130 L 310 136"/>
            <path id="path52" fill="none" stroke="#bebcb8" stroke-width="2.628543" stroke-linecap="round" stroke-linejoin="round" d="M 316.000031 130 L 316 136"/>
            <path id="path53" fill="none" stroke="#bebcb8" stroke-width="2.628543" stroke-linecap="round" stroke-linejoin="round" d="M 322.000031 130 L 322 136"/>
            <path id="path54" fill="none" stroke="#bebcb8" stroke-width="2.628543" stroke-linecap="round" stroke-linejoin="round" d="M 328.000031 130 L 328 136"/>
            <path id="--13" fill="none" stroke="#bebcb8" stroke-width="2.628543" stroke-linecap="round" stroke-linejoin="round" d="M 310.000031 156 L 310 162"/>
            <path id="--12" fill="none" stroke="#bebcb8" stroke-width="2.628543" stroke-linecap="round" stroke-linejoin="round" d="M 316.000031 156 L 316 162"/>
            <path id="--11" fill="none" stroke="#bebcb8" stroke-width="2.628543" stroke-linecap="round" stroke-linejoin="round" d="M 322.000031 156 L 322 162"/>
            <path id="path55" fill="none" stroke="#bebcb8" stroke-width="2.628543" stroke-linecap="round" stroke-linejoin="round" d="M 328.000031 156 L 328 162"/>
            <path id="path56" fill="#36353b" fill-rule="evenodd" stroke="none" d="M 331 155 L 331 136 L 306 136 L 306 155 Z"/>
        </g>
        <g id="g8">
            <path id="path57" fill="none" stroke="#bebcb8" stroke-width="2.628543" stroke-linecap="round" stroke-linejoin="round" d="M 310.000031 76 L 310 82"/>
            <path id="path58" fill="none" stroke="#bebcb8" stroke-width="2.628543" stroke-linecap="round" stroke-linejoin="round" d="M 316.000031 76 L 316 82"/>
            <path id="path59" fill="none" stroke="#bebcb8" stroke-width="2.628543" stroke-linecap="round" stroke-linejoin="round" d="M 322.000031 76 L 322 82"/>
            <path id="path60" fill="none" stroke="#bebcb8" stroke-width="2.628543" stroke-linecap="round" stroke-linejoin="round" d="M 328.000031 76 L 328 82"/>
            <path id="path61" fill="none" stroke="#bebcb8" stroke-width="2.628543" stroke-linecap="round" stroke-linejoin="round" d="M 310.000031 102 L 310 108"/>
            <path id="path62" fill="none" stroke="#bebcb8" stroke-width="2.628543" stroke-linecap="round" stroke-linejoin="round" d="M 316.000031 102 L 316 108"/>
            <path id="path63" fill="none" stroke="#bebcb8" stroke-width="2.628543" stroke-linecap="round" stroke-linejoin="round" d="M 322.000031 102 L 322 108"/>
            <path id="path64" fill="none" stroke="#bebcb8" stroke-width="2.628543" stroke-linecap="round" stroke-linejoin="round" d="M 328.000031 102 L 328 108"/>
            <path id="path65" fill="#36353b" fill-rule="evenodd" stroke="none" d="M 331 101 L 331 82 L 306 82 L 306 101 Z"/>
        </g>
        <g id="g9">
            <path id="path66" fill="none" stroke="#bebcb8" stroke-width="2.628543" stroke-linecap="round" stroke-linejoin="round" d="M 355.000031 76 L 355 82"/>
            <path id="path67" fill="none" stroke="#bebcb8" stroke-width="2.628543" stroke-linecap="round" stroke-linejoin="round" d="M 361.000031 76 L 361 82"/>
            <path id="path68" fill="none" stroke="#bebcb8" stroke-width="2.628543" stroke-linecap="round" stroke-linejoin="round" d="M 367.000031 76 L 367 82"/>
            <path id="path69" fill="none" stroke="#bebcb8" stroke-width="2.628543" stroke-linecap="round" stroke-linejoin="round" d="M 373.000031 76 L 373 82"/>
            <path id="path70" fill="none" stroke="#bebcb8" stroke-width="2.628543" stroke-linecap="round" stroke-linejoin="round" d="M 355.000031 102 L 355 108"/>
            <path id="path71" fill="none" stroke="#bebcb8" stroke-width="2.628543" stroke-linecap="round" stroke-linejoin="round" d="M 361.000031 102 L 361 108"/>
            <path id="path72" fill="none" stroke="#bebcb8" stroke-width="2.628543" stroke-linecap="round" stroke-linejoin="round" d="M 367.000031 102 L 367 108"/>
            <path id="path73" fill="none" stroke="#bebcb8" stroke-width="2.628543" stroke-linecap="round" stroke-linejoin="round" d="M 373.000031 102 L 373 108"/>
            <path id="path74" fill="#36353b" fill-rule="evenodd" stroke="none" d="M 376 101 L 376 82 L 351 82 L 351 101 Z"/>
        </g>
        <g id="g10">
            <path id="path75" fill="none" stroke="#bebcb8" stroke-width="2.628543" stroke-linecap="round" stroke-linejoin="round" d="M 355.000031 130 L 355 136"/>
            <path id="path76" fill="none" stroke="#bebcb8" stroke-width="2.628543" stroke-linecap="round" stroke-linejoin="round" d="M 361.000031 130 L 361 136"/>
            <path id="path77" fill="none" stroke="#bebcb8" stroke-width="2.628543" stroke-linecap="round" stroke-linejoin="round" d="M 367.000031 130 L 367 136"/>
            <path id="path78" fill="none" stroke="#bebcb8" stroke-width="2.628543" stroke-linecap="round" stroke-linejoin="round" d="M 373.000031 130 L 373 136"/>
            <path id="path79" fill="none" stroke="#bebcb8" stroke-width="2.628543" stroke-linecap="round" stroke-linejoin="round" d="M 355.000031 156 L 355 162"/>
            <path id="path80" fill="none" stroke="#bebcb8" stroke-width="2.628543" stroke-linecap="round" stroke-linejoin="round" d="M 361.000031 156 L 361 162"/>
            <path id="path81" fill="none" stroke="#bebcb8" stroke-width="2.628543" stroke-linecap="round" stroke-linejoin="round" d="M 367.000031 156 L 367 162"/>
            <path id="path82" fill="none" stroke="#bebcb8" stroke-width="2.628543" stroke-linecap="round" stroke-linejoin="round" d="M 373.000031 156 L 373 162"/>
            <path id="path83" fill="#36353b" fill-rule="evenodd" stroke="none" d="M 376 155 L 376 136 L 351 136 L 351 155 Z"/>
        </g>
    </g>
    <g id="g11">
        <g id="g12">
            <path id="path84" fill="#222222" fill-rule="evenodd" stroke="none" d="M 267.296936 222.653046 C 267.296936 189.315521 240.271561 162.290131 206.934036 162.290131 C 173.596527 162.290131 146.571136 189.315521 146.571136 222.653046 C 146.571136 255.990555 173.596527 283.015961 206.934036 283.015961 C 240.271561 283.015961 267.296936 255.990555 267.296936 222.653046 Z"/>
            <path id="path85" fill="none" stroke="#ffffff" stroke-width="1.949303" stroke-linecap="round" stroke-linejoin="round" d="M 207.26033 170.773575 L 207.26033 177.299286"/>
            <path id="path86" fill="none" stroke="#ffffff" stroke-width="1.949303" stroke-linecap="round" stroke-linejoin="round" d="M 216.264145 171.618393 L 215.130966 178.044968"/>
            <path id="path87" fill="none" stroke="#ffffff" stroke-width="1.949303" stroke-linecap="round" stroke-linejoin="round" d="M 224.984482 174.013885 L 222.752548 180.146057"/>
            <path id="path88" fill="none" stroke="#ffffff" stroke-width="1.949303" stroke-linecap="round" stroke-linejoin="round" d="M 233.156357 177.887238 L 229.893494 183.538681"/>
            <path id="path89" fill="none" stroke="#ffffff" stroke-width="1.949303" stroke-linecap="round" stroke-linejoin="round" d="M 240.531479 183.120789 L 236.336823 188.119781"/>
            <path id="path90" fill="none" stroke="#ffffff" stroke-width="1.949303" stroke-linecap="round" stroke-linejoin="round" d="M 246.885757 189.555511 L 241.886765 193.750168"/>
            <path id="path91" fill="none" stroke="#ffffff" stroke-width="1.949303" stroke-linecap="round" stroke-linejoin="round" d="M 252.026123 196.99588 L 246.37468 200.258743"/>
            <path id="path92" fill="none" stroke="#ffffff" stroke-width="1.949303" stroke-linecap="round" stroke-linejoin="round" d="M 255.796402 205.21582 L 249.66423 207.447754"/>
            <path id="path93" fill="none" stroke="#ffffff" stroke-width="1.949303" stroke-linecap="round" stroke-linejoin="round" d="M 258.082001 213.965591 L 251.655426 215.09877"/>
            <path id="path94" fill="none" stroke="#ffffff" stroke-width="1.949303" stroke-linecap="round" stroke-linejoin="round" d="M 258.813507 222.979324 L 252.287796 222.979324"/>
            <path id="path95" fill="none" stroke="#ffffff" stroke-width="1.949303" stroke-linecap="round" stroke-linejoin="round" d="M 257.968689 231.983154 L 251.542114 230.84996"/>
            <path id="path96" fill="none" stroke="#ffffff" stroke-width="1.949303" stroke-linecap="round" stroke-linejoin="round" d="M 255.573196 240.703476 L 249.441025 238.471542"/>
            <path id="path97" fill="none" stroke="#ffffff" stroke-width="1.949303" stroke-linecap="round" stroke-linejoin="round" d="M 251.699844 248.875351 L 246.048401 245.612488"/>
            <path id="path98" fill="none" stroke="#ffffff" stroke-width="1.949303" stroke-linecap="round" stroke-linejoin="round" d="M 246.466293 256.250488 L 241.4673 252.055817"/>
            <path id="path99" fill="none" stroke="#ffffff" stroke-width="1.949303" stroke-linecap="round" stroke-linejoin="round" d="M 240.03157 262.604767 L 235.836929 257.605774"/>
            <path id="path100" fill="none" stroke="#ffffff" stroke-width="1.949303" stroke-linecap="round" stroke-linejoin="round" d="M 232.591202 267.745117 L 229.328339 262.093689"/>
            <path id="path101" fill="none" stroke="#ffffff" stroke-width="1.949303" stroke-linecap="round" stroke-linejoin="round" d="M 224.371262 271.515381 L 222.139328 265.38324"/>
            <path id="path102" fill="none" stroke="#ffffff" stroke-width="1.949303" stroke-linecap="round" stroke-linejoin="round" d="M 215.62149 273.801025 L 214.488312 267.37442"/>
            <path id="path103" fill="none" stroke="#ffffff" stroke-width="1.949303" stroke-linecap="round" stroke-linejoin="round" d="M 206.607758 274.532532 L 206.607758 268.006805"/>
            <path id="path104" fill="none" stroke="#ffffff" stroke-width="1.949303" stroke-linecap="round" stroke-linejoin="round" d="M 197.603943 273.687683 L 198.737122 267.261108"/>
            <path id="path105" fill="none" stroke="#ffffff" stroke-width="1.949303" stroke-linecap="round" stroke-linejoin="round" d="M 188.883606 271.292206 L 191.11554 265.160034"/>
            <path id="path106" fill="none" stroke="#ffffff" stroke-width="1.949303" stroke-linecap="round" stroke-linejoin="round" d="M 180.711731 267.418823 L 183.974594 261.767395"/>
            <path id="path107" fill="none" stroke="#ffffff" stroke-width="1.949303" stroke-linecap="round" stroke-linejoin="round" d="M 173.336609 262.185303 L 177.531265 257.18631"/>
            <path id="path108" fill="none" stroke="#ffffff" stroke-width="1.949303" stroke-linecap="round" stroke-linejoin="round" d="M 166.98233 255.75058 L 171.981323 251.555923"/>
            <path id="path109" fill="none" stroke="#ffffff" stroke-width="1.949303" stroke-linecap="round" stroke-linejoin="round" d="M 161.841949 248.310211 L 167.493393 245.047348"/>
            <path id="path110" fill="none" stroke="#ffffff" stroke-width="1.949303" stroke-linecap="round" stroke-linejoin="round" d="M 158.071686 240.090256 L 164.203857 237.858337"/>
            <path id="path111" fill="none" stroke="#ffffff" stroke-width="1.949303" stroke-linecap="round" stroke-linejoin="round" d="M 155.786072 231.340485 L 162.212662 230.207306"/>
            <path id="path112" fill="none" stroke="#ffffff" stroke-width="1.949303" stroke-linecap="round" stroke-linejoin="round" d="M 155.054565 222.326752 L 161.580292 222.326752"/>
            <path id="path113" fill="none" stroke="#ffffff" stroke-width="1.949303" stroke-linecap="round" stroke-linejoin="round" d="M 155.899399 213.322937 L 162.325974 214.456116"/>
            <path id="path114" fill="none" stroke="#ffffff" stroke-width="1.949303" stroke-linecap="round" stroke-linejoin="round" d="M 158.294876 204.602615 L 164.427048 206.834534"/>
            <path id="path115" fill="none" stroke="#ffffff" stroke-width="1.949303" stroke-linecap="round" stroke-linejoin="round" d="M 162.168243 196.43074 L 167.819687 199.693588"/>
            <path id="path116" fill="none" stroke="#ffffff" stroke-width="1.949303" stroke-linecap="round" stroke-linejoin="round" d="M 167.401794 189.055603 L 172.400787 193.250259"/>
            <path id="path117" fill="none" stroke="#ffffff" stroke-width="1.949303" stroke-linecap="round" stroke-linejoin="round" d="M 173.836502 182.701324 L 178.031158 187.700317"/>
            <path id="path118" fill="none" stroke="#ffffff" stroke-width="1.949303" stroke-linecap="round" stroke-linejoin="round" d="M 181.276871 177.560959 L 184.539734 183.212402"/>
            <path id="path119" fill="none" stroke="#ffffff" stroke-width="1.949303" stroke-linecap="round" stroke-linejoin="round" d="M 189.496826 173.790695 L 191.72876 179.922852"/>
            <path id="path120" fill="none" stroke="#ffffff" stroke-width="1.949303" stroke-linecap="round" stroke-linejoin="round" d="M 198.246597 171.505081 L 199.379776 177.931656"/>
        </g>
        <g id="icon-">
            <g id="drill-tool">
                <g id="g13">
                    <g id="g14">
                        <path id="path121" fill="#666666" fill-rule="evenodd" stroke="none" d="M 333.112701 270.627075 L 358.372375 270.627563 C 361.348724 270.627075 363.75296 268.222809 363.753448 265.246521 C 363.772064 262.250122 361.348755 259.826813 358.353333 259.846375 L 333.093628 259.845917 C 330.117279 259.846375 327.713043 262.25061 327.712555 265.226929 C 327.693939 268.223297 330.117279 270.646667 333.112701 270.627075 Z"/>
                    </g>
                    <g id="g15">
                        <path id="path122" fill="#b6b6b6" fill-rule="evenodd" stroke="none" d="M 315.690796 289.308136 C 315.690796 289.308136 312.529816 289.307678 319.436981 289.308167 C 327.26001 289.307678 333.595123 282.972595 333.595581 275.149567 C 333.614655 268.9104 333.614166 261.582123 333.614685 255.324341 C 333.614166 247.500412 327.279572 241.165771 319.456543 241.166229 C 312.529816 241.185333 315.68988 241.184875 315.68988 241.184875 L 315.690796 289.308136 Z"/>
                    </g>
                    <g id="g16">
                        <path id="path123" fill="#888888" fill-rule="evenodd" stroke="none" d="M 333.614166 266.009552 C 333.614685 273.833527 327.280029 280.168152 319.456055 280.167694 C 312.529816 280.149078 315.709473 280.168182 315.709473 280.168182 L 315.68988 241.184875 L 315.690796 289.308136 C 315.690796 289.308136 312.529816 289.307678 319.436981 289.308167 C 327.26001 289.307678 333.595123 282.972595 333.595581 275.149567 L 333.614166 266.009552 Z"/>
                    </g>
                    <g id="g17">
                        <path id="path124" fill="#c8c8c8" fill-rule="evenodd" stroke="none" d="M 315.70993 255.591293 L 319.456055 255.591293 C 327.279114 255.590836 333.614685 261.926392 333.614166 269.74939 L 333.595581 275.149567 C 333.614655 268.9104 333.614166 261.582123 333.614685 255.324341 C 333.614166 247.500412 327.279572 241.165771 319.456543 241.166229 C 312.529816 241.185349 315.68988 241.184875 315.68988 241.184875 L 315.70993 255.591293 Z"/>
                    </g>
                    <g id="g18">
                        <path id="path125" fill="#25b736" fill-rule="evenodd" stroke="none" d="M 193.63884 221.893997 C 187.342407 221.893997 181.29335 224.39328 176.828171 228.858475 C 172.382095 233.30455 169.882797 239.353607 169.882797 245.650024 C 169.901428 257.842285 169.882324 272.630676 169.901901 284.823853 C 169.882813 291.139404 172.401657 297.16983 176.846802 301.61499 C 181.312439 306.080627 187.323303 308.579895 193.657471 308.579437 C 230.522537 308.579926 260.736786 308.579895 295.388123 308.580383 C 306.608124 308.579895 315.690796 299.497223 315.690826 288.277679 C 315.708984 274.405151 315.709442 256.087433 315.690338 242.214874 C 315.690338 230.995316 306.608124 221.913101 295.38858 221.913132 C 260.736786 221.913086 230.523026 221.912628 193.63884 221.893997 Z"/>
                    </g>
                    <g id="g19">
                        <path id="path126" fill="#1c8928" fill-rule="evenodd" stroke="none" d="M 315.690369 274.233673 C 315.690338 285.453217 306.607666 294.535919 295.388123 294.535919 C 260.736298 294.535919 230.522537 294.535461 193.63884 294.555481 C 187.342407 294.555481 181.312439 292.036163 176.847733 287.571472 C 172.401657 283.125366 169.882339 277.095398 169.882324 270.79895 L 169.901901 284.823853 C 169.882813 291.139404 172.401657 297.16983 176.846802 301.61499 C 181.312439 306.080627 187.323303 308.579895 193.657471 308.579437 C 230.522537 308.579926 260.736786 308.579895 295.388123 308.580383 C 306.608124 308.579895 315.690796 299.497253 315.690826 288.277679 L 315.690369 274.233673 Z"/>
                    </g>
                    <g id="g20">
                        <path id="path127" fill="#5cc968" fill-rule="evenodd" stroke="none" d="M 169.882797 245.650024 C 169.901428 257.842285 169.882339 266.028687 169.882339 266.028687 C 169.882797 259.731781 172.401657 253.702255 176.847717 249.256195 C 181.312439 244.791473 187.341934 242.272629 193.63884 242.272141 C 230.522552 242.29126 260.736298 242.291718 295.388123 242.291733 C 306.607666 242.291718 315.68988 251.373962 315.690796 262.594421 L 315.690338 242.214874 C 315.690338 230.995316 306.608124 221.913101 295.38858 221.913116 C 260.736755 221.913101 230.523026 221.912643 193.63884 221.893997 C 187.342407 221.893997 181.293335 224.39328 176.828171 228.858475 C 172.382095 233.30455 169.882797 239.353607 169.882797 245.650024 Z"/>
                    </g>
                    <g id="g21">
                        <path id="path128" fill="#f2af0d" fill-rule="evenodd" stroke="none" d="M 197.6297 250.068024 C 195.42688 250.068024 193.310593 250.942413 191.748428 252.504578 C 190.192947 254.060059 189.318558 256.176331 189.318558 258.379181 C 189.325089 262.644684 189.318405 267.818481 189.325256 272.08429 C 189.318558 274.293823 190.199799 276.403595 191.754944 277.95874 C 193.317261 279.521057 195.420197 280.395447 197.63623 280.395264 C 210.533615 280.395447 235.140289 280.395447 247.263199 280.39563 C 251.188568 280.395447 254.36618 277.217834 254.36618 273.292633 C 254.372528 268.43927 254.372696 262.030731 254.366013 257.177368 C 254.366013 253.252167 251.188568 250.074722 247.263367 250.074722 C 235.140289 250.074707 210.533783 250.074554 197.6297 250.068024 Z"/>
                    </g>
                    <g id="g22">
                        <path id="path129" fill="#f5c34a" fill-rule="evenodd" stroke="none" d="M 189.32962 272.668427 C 189.463318 270.665741 190.30278 268.756683 191.733871 267.325592 C 193.298203 265.761261 195.416412 264.90271 197.630142 264.90271 C 210.52861 264.90271 235.14415 264.90271 247.241348 264.90271 C 251.172653 264.903168 254.35907 268.0896 254.358612 272.019958 L 254.358139 257.174713 C 254.339508 253.263428 251.171722 250.095642 247.260437 250.077026 C 235.124588 250.076553 210.510452 250.077011 197.61058 250.076538 C 195.416885 250.095642 193.298676 250.954208 191.733871 252.518997 C 190.188187 254.064697 189.310516 256.202026 189.310532 258.376587 C 189.310516 262.651245 189.310516 267.84082 189.310989 272.077728 C 189.310532 272.26825 189.311462 272.459259 189.32962 272.668427 Z"/>
                    </g>
                    <g id="g23">
                        <path id="path130" fill="#15671e" fill-rule="evenodd" stroke="none" d="M 276.878937 278.546082 L 296.150726 278.545593 C 299.127991 278.546051 301.551331 276.122742 301.550842 273.145477 C 301.551331 270.169128 299.12796 267.745789 296.151642 267.746277 L 276.859863 267.764893 C 273.883545 267.76535 271.479279 270.169617 271.478821 273.145935 C 271.479279 276.123169 273.902649 278.546539 276.878937 278.546082 Z"/>
                    </g>
                    <g id="g24">
                        <path id="path131" fill="#15671e" fill-rule="evenodd" stroke="none" d="M 276.878967 295.48999 L 296.151642 295.490448 C 299.127991 295.48999 301.551331 293.06662 301.551788 290.090302 C 301.550873 287.113525 299.127502 284.690155 296.151642 284.690155 L 276.878937 284.689697 C 273.902649 284.690155 271.479279 287.113525 271.478821 290.089844 C 271.479279 293.067078 273.902649 295.490448 276.878967 295.48999 Z"/>
                    </g>
                    <g id="g25">
                        <path id="path132" fill="#15671e" fill-rule="evenodd" stroke="none" d="M 276.860321 244.67688 L 296.151184 244.657318 C 299.146606 244.676865 301.550873 242.272614 301.550842 239.257645 C 301.551331 236.281326 299.146606 233.876602 296.170288 233.877075 L 276.860321 233.876602 C 273.884003 233.877075 271.460632 236.30043 271.460175 239.276749 C 271.459717 242.253052 273.883087 244.676407 276.860321 244.67688 Z"/>
                    </g>
                    <g id="g26">
                        <path id="path133" fill="#15671e" fill-rule="evenodd" stroke="none" d="M 276.879425 261.601685 L 296.150726 261.601685 C 299.12796 261.602173 301.551331 259.178802 301.550873 256.201538 C 301.551331 253.22522 299.146606 250.820511 296.170288 250.820984 L 276.859863 250.820984 C 273.883545 250.821442 271.479279 253.225708 271.479279 256.201538 C 271.460663 259.197906 273.883087 261.620331 276.879425 261.601685 Z"/>
                    </g>
                </g>
            </g>
        </g>
    </g>
</svg>
