<?xml version="1.0" encoding="UTF-8"?>
<!-- Generated by Pixelmator Pro 3.7.1 -->
<svg width="80" height="80" viewBox="0 0 80 80" xmlns="http://www.w3.org/2000/svg">
    <g id="--2">
        <path id="path1" fill="#222222" fill-rule="evenodd" stroke="none" d="M 43.885712 34.628571 C 43.885712 22.951691 34.419735 13.485718 22.742857 13.485718 C 11.06598 13.485718 1.6 22.951691 1.6 34.628571 C 1.6 46.30545 11.06598 55.771431 22.742857 55.771431 C 34.419735 55.771431 43.885712 46.30545 43.885712 34.628571 Z"/>
        <path id="path2" fill="none" stroke="#ffffff" stroke-width="1.142857" stroke-linecap="round" stroke-linejoin="round" d="M 22.857143 16.457142 L 22.857143 18.742859"/>
        <path id="-" fill="none" stroke="#ffffff" stroke-width="1.142857" stroke-linecap="round" stroke-linejoin="round" d="M 26.010841 16.753052 L 25.613932 19.004044"/>
        <path id="path3" fill="none" stroke="#ffffff" stroke-width="1.142857" stroke-linecap="round" stroke-linejoin="round" d="M 29.065245 17.592102 L 28.283485 19.739971"/>
        <path id="--3" fill="none" stroke="#ffffff" stroke-width="1.142857" stroke-linecap="round" stroke-linejoin="round" d="M 31.927546 18.948795 L 30.784689 20.928284"/>
        <path id="--4" fill="none" stroke="#ffffff" stroke-width="1.142857" stroke-linecap="round" stroke-linejoin="round" d="M 34.510773 20.78191 L 33.041546 22.532871"/>
        <path id="--5" fill="none" stroke="#ffffff" stroke-width="1.142857" stroke-linecap="round" stroke-linejoin="round" d="M 36.736439 23.035751 L 34.985481 24.504978"/>
        <path id="--6" fill="none" stroke="#ffffff" stroke-width="1.142857" stroke-linecap="round" stroke-linejoin="round" d="M 38.536919 25.64183 L 36.55743 26.784687"/>
        <path id="--7" fill="none" stroke="#ffffff" stroke-width="1.142857" stroke-linecap="round" stroke-linejoin="round" d="M 39.857502 28.520969 L 37.709633 29.302731"/>
        <path id="--8" fill="none" stroke="#ffffff" stroke-width="1.142857" stroke-linecap="round" stroke-linejoin="round" d="M 40.658066 31.585686 L 38.407078 31.982597"/>
        <path id="--9" fill="none" stroke="#ffffff" stroke-width="1.142857" stroke-linecap="round" stroke-linejoin="round" d="M 40.914288 34.742859 L 38.628571 34.742859"/>
        <path id="path4" fill="none" stroke="#ffffff" stroke-width="1.142857" stroke-linecap="round" stroke-linejoin="round" d="M 40.618374 37.896557 L 38.367386 37.499645"/>
        <path id="path5" fill="none" stroke="#ffffff" stroke-width="1.142857" stroke-linecap="round" stroke-linejoin="round" d="M 39.779327 40.950958 L 37.631458 40.169201"/>
        <path id="path6" fill="none" stroke="#ffffff" stroke-width="1.142857" stroke-linecap="round" stroke-linejoin="round" d="M 38.422634 43.813259 L 36.443146 42.670403"/>
        <path id="path7" fill="none" stroke="#ffffff" stroke-width="1.142857" stroke-linecap="round" stroke-linejoin="round" d="M 36.589516 46.396488 L 34.838558 44.927261"/>
        <path id="path8" fill="none" stroke="#ffffff" stroke-width="1.142857" stroke-linecap="round" stroke-linejoin="round" d="M 34.335678 48.622154 L 32.866451 46.871197"/>
        <path id="path9" fill="none" stroke="#ffffff" stroke-width="1.142857" stroke-linecap="round" stroke-linejoin="round" d="M 31.729597 50.42263 L 30.58674 48.443146"/>
        <path id="path10" fill="none" stroke="#ffffff" stroke-width="1.142857" stroke-linecap="round" stroke-linejoin="round" d="M 28.850458 51.743217 L 28.068699 49.595348"/>
        <path id="path11" fill="none" stroke="#ffffff" stroke-width="1.142857" stroke-linecap="round" stroke-linejoin="round" d="M 25.785744 52.543781 L 25.388832 50.292793"/>
        <path id="path12" fill="none" stroke="#ffffff" stroke-width="1.142857" stroke-linecap="round" stroke-linejoin="round" d="M 22.628571 52.799999 L 22.628571 50.514286"/>
        <path id="path13" fill="none" stroke="#ffffff" stroke-width="1.142857" stroke-linecap="round" stroke-linejoin="round" d="M 19.474873 52.504089 L 19.871782 50.253101"/>
        <path id="path14" fill="none" stroke="#ffffff" stroke-width="1.142857" stroke-linecap="round" stroke-linejoin="round" d="M 16.420469 51.665039 L 17.202229 49.517174"/>
        <path id="path15" fill="none" stroke="#ffffff" stroke-width="1.142857" stroke-linecap="round" stroke-linejoin="round" d="M 13.558168 50.30835 L 14.701026 48.328861"/>
        <path id="path16" fill="none" stroke="#ffffff" stroke-width="1.142857" stroke-linecap="round" stroke-linejoin="round" d="M 10.97494 48.475231 L 12.444169 46.724274"/>
        <path id="path17" fill="none" stroke="#ffffff" stroke-width="1.142857" stroke-linecap="round" stroke-linejoin="round" d="M 8.749274 46.221394 L 10.500233 44.752163"/>
        <path id="path18" fill="none" stroke="#ffffff" stroke-width="1.142857" stroke-linecap="round" stroke-linejoin="round" d="M 6.948795 43.615311 L 8.928282 42.472454"/>
        <path id="path19" fill="none" stroke="#ffffff" stroke-width="1.142857" stroke-linecap="round" stroke-linejoin="round" d="M 5.628212 40.736172 L 7.776081 39.954411"/>
        <path id="path20" fill="none" stroke="#ffffff" stroke-width="1.142857" stroke-linecap="round" stroke-linejoin="round" d="M 4.827648 37.671459 L 7.078637 37.274548"/>
        <path id="path21" fill="none" stroke="#ffffff" stroke-width="1.142857" stroke-linecap="round" stroke-linejoin="round" d="M 4.571429 34.514286 L 6.857143 34.514286"/>
        <path id="path22" fill="none" stroke="#ffffff" stroke-width="1.142857" stroke-linecap="round" stroke-linejoin="round" d="M 4.867339 31.360588 L 7.118328 31.757496"/>
        <path id="path23" fill="none" stroke="#ffffff" stroke-width="1.142857" stroke-linecap="round" stroke-linejoin="round" d="M 5.706388 28.306183 L 7.854257 29.087944"/>
        <path id="path24" fill="none" stroke="#ffffff" stroke-width="1.142857" stroke-linecap="round" stroke-linejoin="round" d="M 7.063081 25.443882 L 9.042568 26.586739"/>
        <path id="path25" fill="none" stroke="#ffffff" stroke-width="1.142857" stroke-linecap="round" stroke-linejoin="round" d="M 8.896196 22.860653 L 10.647156 24.329884"/>
        <path id="path26" fill="none" stroke="#ffffff" stroke-width="1.142857" stroke-linecap="round" stroke-linejoin="round" d="M 11.150036 20.634987 L 12.619265 22.385948"/>
        <path id="path27" fill="none" stroke="#ffffff" stroke-width="1.142857" stroke-linecap="round" stroke-linejoin="round" d="M 13.756117 18.834511 L 14.898974 20.813995"/>
        <path id="path28" fill="none" stroke="#ffffff" stroke-width="1.142857" stroke-linecap="round" stroke-linejoin="round" d="M 16.635256 17.513927 L 17.417017 19.661797"/>
        <path id="path29" fill="none" stroke="#ffffff" stroke-width="1.142857" stroke-linecap="round" stroke-linejoin="round" d="M 19.69997 16.713364 L 20.096882 18.964352"/>
    </g>
    <g id="icon-">
        <g id="drill-tool">
            <g id="g2">
                <g id="g3">
                    <path id="path30" fill="#666666" fill-rule="evenodd" stroke="none" d="M 66.938499 51.432076 L 75.786018 51.43224 C 76.828514 51.432072 77.670624 50.589951 77.670799 49.547462 C 77.677315 48.49794 76.828522 47.649143 75.779335 47.655998 L 66.931808 47.655834 C 65.889313 47.655998 65.047195 48.498116 65.047028 49.5406 C 65.040504 50.590118 65.88932 51.438927 66.938499 51.432076 Z"/>
                </g>
                <g id="g4">
                    <path id="path31" fill="#b6b6b6" fill-rule="evenodd" stroke="none" d="M 60.836258 57.975342 C 60.836258 57.975342 59.729088 57.975189 62.148403 57.975349 C 64.888519 57.975189 67.107468 55.756241 67.107628 53.016129 C 67.114319 50.830788 67.114143 48.263962 67.114319 46.072102 C 67.114143 43.331669 64.89537 41.112885 62.155262 41.113045 C 59.729088 41.119736 60.835941 41.119576 60.835941 41.119576 L 60.836258 57.975342 Z"/>
                </g>
                <g id="g5">
                    <path id="path32" fill="#888888" fill-rule="evenodd" stroke="none" d="M 67.114143 49.814728 C 67.114319 52.555168 64.895531 54.773956 62.15509 54.773792 C 59.729088 54.767265 60.842796 54.77396 60.842796 54.77396 L 60.835941 41.119576 L 60.836258 57.975342 C 60.836258 57.975342 59.729088 57.975189 62.148403 57.975349 C 64.888519 57.975189 67.107468 55.756241 67.107628 53.016129 L 67.114143 49.814728 Z"/>
                </g>
                <g id="g6">
                    <path id="path33" fill="#c8c8c8" fill-rule="evenodd" stroke="none" d="M 60.842957 46.1656 L 62.15509 46.1656 C 64.89521 46.165443 67.114319 48.384544 67.114143 51.124657 L 67.107628 53.016129 C 67.114319 50.830788 67.114143 48.263962 67.114319 46.072102 C 67.114143 43.331669 64.89537 41.112885 62.155262 41.113045 C 59.729084 41.11974 60.835941 41.119576 60.835941 41.119576 L 60.842957 46.1656 Z"/>
                </g>
                <g id="g7">
                    <path id="path34" fill="#25b736" fill-rule="evenodd" stroke="none" d="M 18.086048 34.362705 C 15.880645 34.362705 13.761886 35.23811 12.197901 36.802101 C 10.640607 38.359394 9.765198 40.478149 9.765201 42.683552 C 9.771727 46.954041 9.765037 52.133865 9.77189 56.404671 C 9.765203 58.616764 10.647462 60.729004 12.204429 62.285969 C 13.768573 63.850113 15.873955 64.725517 18.092577 64.725357 C 31.00502 64.725525 41.587933 64.725517 53.724998 64.725685 C 57.654942 64.725517 60.836258 61.544205 60.836269 57.614414 C 60.842628 52.755383 60.842793 46.339382 60.836098 41.480343 C 60.836102 37.550556 57.654942 34.369396 53.725155 34.369408 C 41.587933 34.369392 31.005192 34.369232 18.086048 34.362705 Z"/>
                </g>
                <g id="g8">
                    <path id="path35" fill="#1c8928" fill-rule="evenodd" stroke="none" d="M 60.836105 52.695328 C 60.836094 56.625114 57.654781 59.806442 53.724995 59.806442 C 41.587761 59.806435 31.005022 59.806274 18.08605 59.813293 C 15.880643 59.813293 13.768575 58.93087 12.204755 57.36705 C 10.647463 55.809761 9.765038 53.697685 9.765035 51.492279 L 9.77189 56.404671 C 9.765203 58.616764 10.647462 60.729004 12.204431 62.285969 C 13.768574 63.850113 15.873955 64.725517 18.092577 64.725357 C 31.00502 64.725525 41.587933 64.725517 53.724998 64.725685 C 57.654945 64.725517 60.836262 61.544205 60.836269 57.614414 L 60.836105 52.695328 Z"/>
                </g>
                <g id="g9">
                    <path id="path36" fill="#5cc968" fill-rule="evenodd" stroke="none" d="M 9.765201 42.683552 C 9.771727 46.954041 9.765038 49.821423 9.765038 49.821423 C 9.765199 47.61586 10.647463 45.503944 12.20475 43.946659 C 13.768575 42.382832 15.880477 41.500576 18.086046 41.500404 C 31.005024 41.507103 41.587769 41.507263 53.724991 41.507267 C 57.654778 41.507263 60.835941 44.688427 60.836262 48.618538 L 60.836098 41.480343 C 60.836094 37.550556 57.654942 34.369396 53.725159 34.369404 C 41.587929 34.369396 31.00519 34.369236 18.086048 34.362705 C 15.880645 34.362705 13.761884 35.238113 12.197901 36.802101 C 10.640607 38.359394 9.765198 40.478149 9.765201 42.683552 Z"/>
                </g>
                <g id="g10">
                    <path id="path37" fill="#f2af0d" fill-rule="evenodd" stroke="none" d="M 19.483898 44.231014 C 18.712332 44.23101 17.971075 44.537277 17.42391 45.084442 C 16.879084 45.629269 16.572817 46.370525 16.572817 47.142094 C 16.575102 48.636139 16.572762 50.448322 16.575159 51.942482 C 16.572817 52.716393 16.881479 53.455368 17.426191 54.000076 C 17.973412 54.547298 18.70999 54.853561 19.486185 54.853508 C 24.003651 54.853565 32.622448 54.853565 36.868645 54.853622 C 38.243553 54.853565 39.356552 53.740566 39.356552 52.365715 C 39.358776 50.665764 39.358833 48.421097 39.356495 46.721146 C 39.356495 45.346298 38.243553 44.233353 36.868702 44.233353 C 32.622444 44.233349 24.003712 44.233295 19.483898 44.231014 Z"/>
                </g>
                <g id="g11">
                    <path id="path38" fill="#f5c34a" fill-rule="evenodd" stroke="none" d="M 16.576689 52.147079 C 16.62352 51.445618 16.917551 50.776947 17.41881 50.275688 C 17.966736 49.72776 18.708666 49.42704 19.484049 49.42704 C 24.0019 49.42704 32.623795 49.42704 36.860992 49.42704 C 38.23798 49.427208 39.354061 50.543282 39.353901 51.919952 L 39.353733 46.720215 C 39.34721 45.350239 38.237656 44.240685 36.86768 44.234161 C 32.616943 44.233994 23.995539 44.234158 19.4772 44.233994 C 18.70883 44.240685 17.9669 44.541405 17.418812 45.089493 C 16.877415 45.63089 16.57 46.379517 16.570004 47.141193 C 16.570002 48.638435 16.570002 50.45615 16.570164 51.940186 C 16.570004 52.00692 16.570328 52.073818 16.576689 52.147079 Z"/>
                </g>
                <g id="g12">
                    <path id="path39" fill="#15671e" fill-rule="evenodd" stroke="none" d="M 47.241928 54.205799 L 53.992107 54.205635 C 55.034927 54.205795 55.883732 53.356991 55.883568 52.314171 C 55.883732 51.271675 55.034924 50.422867 53.992428 50.423031 L 47.235241 50.429558 C 46.192749 50.429718 45.350628 51.271843 45.350464 52.314335 C 45.350628 53.357147 46.19944 54.205959 47.241928 54.205799 Z"/>
                </g>
                <g id="g13">
                    <path id="path40" fill="#15671e" fill-rule="evenodd" stroke="none" d="M 47.241932 60.14061 L 53.992428 60.140774 C 55.034927 60.140614 55.883736 59.291801 55.883896 58.249306 C 55.883572 57.20665 55.034763 56.357841 53.992432 56.357841 L 47.241928 56.357681 C 46.19944 56.357841 45.350628 57.206657 45.350468 58.249146 C 45.350628 59.291962 46.199436 60.140774 47.241932 60.14061 Z"/>
                </g>
                <g id="g14">
                    <path id="path41" fill="#15671e" fill-rule="evenodd" stroke="none" d="M 47.235401 42.342697 L 53.992271 42.335838 C 55.041451 42.34269 55.883572 41.500568 55.883568 40.444542 C 55.883736 39.40205 55.041451 38.559761 53.998955 38.559929 L 47.235405 38.559761 C 46.192909 38.559929 45.344101 39.408737 45.343937 40.451233 C 45.343777 41.493717 46.192585 42.342525 47.235401 42.342697 Z"/>
                </g>
                <g id="g15">
                    <path id="path42" fill="#15671e" fill-rule="evenodd" stroke="none" d="M 47.242096 48.270821 L 53.992104 48.270821 C 55.034924 48.270985 55.883732 47.422173 55.883572 46.379353 C 55.883736 45.336861 55.041451 44.494576 53.998959 44.49474 L 47.235237 44.494743 C 46.192749 44.494904 45.350628 45.337025 45.350628 46.379353 C 45.344101 47.428864 46.192585 48.277344 47.242096 48.270821 Z"/>
                </g>
            </g>
        </g>
    </g>
</svg>
