<?xml version="1.0" encoding="UTF-8"?>
<!-- Generated by Pixelmator Pro 3.7 -->
<svg width="80" height="80" viewBox="0 0 80 80" xmlns="http://www.w3.org/2000/svg">
    <g id="layer1">
        <g id="g4257">
            <path id="rect3973" fill="#49a1d1" stroke="none" d="M 15.797606 5.270424 L 65.000313 5.270424 C 66.619232 5.270424 67.93161 6.582809 67.93161 8.201706 L 67.93161 71.468712 C 67.93161 73.087616 66.619232 74.400002 65.000313 74.400002 L 15.797606 74.400002 C 14.178702 74.400002 12.866326 73.087616 12.866326 71.468712 L 12.866326 8.201706 C 12.866326 6.582809 14.178702 5.270424 15.797606 5.270424 Z"/>
            <path id="rect3975" fill="#3a3037" stroke="none" d="M 29.43359 10.045731 L 33.486008 10.045731 L 33.486008 16.354988 L 29.43359 16.354988 Z"/>
            <path id="rect3975-8" fill="#3a3037" stroke="none" d="M 38.015182 9.995926 L 42.067604 9.995926 L 42.067604 16.354988 L 38.015182 16.354988 Z"/>
            <path id="rect3975-4" fill="#3a3037" stroke="none" d="M 46.754395 7.741562 L 50.806816 7.741562 L 50.806816 16.354988 L 46.754395 16.354988 Z"/>
            <path id="rect3975-4-3" fill="#3a3037" stroke="none" d="M 46.649658 21.567467 L 50.834709 21.567467 L 50.834709 26.366859 L 46.649658 26.366859 Z"/>
            <path id="rect3975-4-3-6" fill="#3a3037" stroke="none" d="M 46.649658 31.042992 L 50.834709 31.042992 L 50.834709 35.842377 L 46.649658 35.842377 Z"/>
            <path id="rect3975-4-3-5" fill="#3a3037" stroke="none" d="M 46.649658 39.147839 L 50.834709 39.147839 L 50.834709 43.947227 L 46.649658 43.947227 Z"/>
            <path id="rect3975-4-3-6-9" fill="#3a3037" stroke="none" d="M 46.649715 47.729439 L 50.83477 47.729439 L 50.83477 52.528828 L 46.649715 52.528828 Z"/>
            <path id="rect3975-4-3-6-9-8" fill="#3a3037" stroke="none" d="M 46.888054 56.549423 L 51.073109 56.549423 L 51.073109 61.348808 L 46.888054 61.348808 Z"/>
            <path id="rect3975-4-3-3" fill="#3a3037" stroke="none" d="M 37.948875 21.567467 L 42.133926 21.567467 L 42.133926 26.366859 L 37.948875 26.366859 Z"/>
            <path id="rect3975-4-3-6-7" fill="#3a3037" stroke="none" d="M 37.948875 30.864204 L 42.133926 30.864204 L 42.133926 35.663593 L 37.948875 35.663593 Z"/>
            <path id="rect3975-4-3-5-9" fill="#3a3037" stroke="none" d="M 37.948875 38.969055 L 42.133926 38.969055 L 42.133926 43.76844 L 37.948875 43.76844 Z"/>
            <path id="rect3975-4-3-6-9-4" fill="#3a3037" stroke="none" d="M 37.948933 47.550659 L 42.133984 47.550659 L 42.133984 52.350044 L 37.948933 52.350044 Z"/>
            <path id="rect3975-4-3-6-9-8-8" fill="#3a3037" stroke="none" d="M 38.187271 56.37064 L 42.372322 56.37064 L 42.372322 61.170025 L 38.187271 61.170025 Z"/>
            <path id="rect3975-4-3-7" fill="#3a3037" stroke="none" d="M 28.53294 21.567467 L 32.717995 21.567467 L 32.717995 26.366859 L 28.53294 26.366859 Z"/>
            <path id="rect3975-4-3-6-94" fill="#3a3037" stroke="none" d="M 28.53294 31.102585 L 32.717995 31.102585 L 32.717995 35.90197 L 28.53294 35.90197 Z"/>
            <path id="rect3975-4-3-5-8" fill="#3a3037" stroke="none" d="M 28.53294 39.207436 L 32.717995 39.207436 L 32.717995 44.006817 L 28.53294 44.006817 Z"/>
            <path id="rect3975-4-3-6-9-43" fill="#3a3037" stroke="none" d="M 28.532999 47.789036 L 32.718052 47.789036 L 32.718052 52.588421 L 28.532999 52.588421 Z"/>
            <path id="rect3975-4-3-6-9-8-3" fill="#3a3037" stroke="none" d="M 28.771338 56.609016 L 32.95639 56.609016 L 32.95639 61.408401 L 28.771338 61.408401 Z"/>
            <path id="rect3975-4-3-1" fill="#3a3037" stroke="none" d="M 15.064588 21.567467 L 23.534714 21.567467 L 23.534714 26.366859 L 15.064588 26.366859 Z"/>
            <path id="rect3975-4-3-6-4" fill="#3a3037" stroke="none" d="M 15.064588 31.102585 L 23.534714 31.102585 L 23.534714 35.90197 L 15.064588 35.90197 Z"/>
            <path id="rect3975-4-3-5-86" fill="#3a3037" stroke="none" d="M 15.064588 39.207436 L 23.534714 39.207436 L 23.534714 44.006817 L 15.064588 44.006817 Z"/>
            <path id="rect3975-4-3-6-9-2" fill="#3a3037" stroke="none" d="M 15.064646 47.789036 L 23.534771 47.789036 L 23.534771 52.588421 L 15.064646 52.588421 Z"/>
            <path id="rect3975-4-3-6-9-8-1" fill="#3a3037" stroke="none" d="M 15.547085 56.609016 L 24.01721 56.609016 L 24.01721 61.408401 L 15.547085 61.408401 Z"/>
            <path id="rect3975-4-3-0" fill="#3a3037" stroke="none" d="M 56.184761 21.567467 L 65.218704 21.567467 L 65.218704 26.366859 L 56.184761 26.366859 Z"/>
            <path id="rect3975-4-3-69" fill="#4089b7" stroke="none" d="M 62.866589 21.558495 L 67.885963 21.558495 L 67.885963 26.372784 L 62.866589 26.372784 Z"/>
            <path id="rect3975-4-3-6-8" fill="#3a3037" stroke="none" d="M 56.184761 31.102585 L 65.218704 31.102585 L 65.218704 35.90197 L 56.184761 35.90197 Z"/>
            <path id="rect3975-4-3-6-1" fill="#4089b7" stroke="none" d="M 62.866589 31.075134 L 67.915756 31.075134 L 67.915756 35.90432 L 62.866589 35.90432 Z"/>
            <path id="rect3975-4-3-5-5" fill="#3a3037" stroke="none" d="M 56.184761 39.207436 L 65.218704 39.207436 L 65.218704 44.006817 L 56.184761 44.006817 Z"/>
            <path id="rect3975-4-3-5-6" fill="#4089b7" stroke="none" d="M 62.866589 39.220573 L 67.915756 39.220573 L 67.915756 44.019962 L 62.866589 44.019962 Z"/>
            <path id="rect3975-4-3-6-9-7" fill="#3a3037" stroke="none" d="M 56.184822 47.789036 L 65.218788 47.789036 L 65.218788 52.588421 L 56.184822 52.588421 Z"/>
            <path id="rect3975-4-3-6-9-5" fill="#4089b7" stroke="none" d="M 62.866646 47.719452 L 67.915817 47.719452 L 67.915817 52.57843 L 62.866646 52.57843 Z"/>
            <path id="rect3975-4-3-6-9-8-10" fill="#3a3037" stroke="none" d="M 56.699364 56.609016 L 65.733307 56.609016 L 65.733307 61.408401 L 56.699364 61.408401 Z"/>
            <path id="rect3975-4-3-6-9-8-6" fill="#4089b7" stroke="none" d="M 63.104988 56.539421 L 67.290039 56.539421 L 67.290039 61.33881 L 63.104988 61.33881 Z"/>
            <path id="rect3975-4-3-31" fill="#3f8ab9" stroke="none" d="M 12.8 21.567467 L 16.985052 21.567467 L 16.985052 26.366859 L 12.8 26.366859 Z"/>
            <path id="rect3975-4-3-6-5" fill="#3f8ab9" stroke="none" d="M 12.8 31.102585 L 16.985052 31.102585 L 16.985052 35.90197 L 12.8 35.90197 Z"/>
            <path id="rect3975-4-3-5-97" fill="#3f8ab9" stroke="none" d="M 12.8 39.207436 L 16.985052 39.207436 L 16.985052 44.006817 L 12.8 44.006817 Z"/>
            <path id="rect3975-4-3-6-9-0" fill="#3f8ab9" stroke="none" d="M 12.800058 47.789036 L 16.985109 47.789036 L 16.985109 52.588421 L 12.800058 52.588421 Z"/>
            <path id="rect3975-4-3-6-9-8-0" fill="#3f8ab9" stroke="none" d="M 13.038397 56.609016 L 17.223448 56.609016 L 17.223448 61.408401 L 13.038397 61.408401 Z"/>
            <path id="rect3975-4-3-2" fill="#3f8ab9" stroke="none" d="M 46.751118 5.363708 L 50.803535 5.363708 L 50.803535 10.163101 L 46.751118 10.163101 Z"/>
            <path id="rect3975-4-3-3-2" fill="#3f8ab9" stroke="none" d="M 38.064785 5.259422 L 42.117207 5.259422 L 42.117207 9.984314 L 38.064785 9.984314 Z"/>
            <path id="rect3975-4-3-7-8" fill="#3f8ab9" stroke="none" d="M 29.449011 5.259422 L 33.501431 5.259422 L 33.501431 10.043907 L 29.449011 10.043907 Z"/>
        </g>
    </g>
</svg>
