<?xml version="1.0" encoding="UTF-8"?>
<!-- Generated by Pixelmator Pro 3.6.17 -->
<svg width="600" height="370" viewBox="0 0 600 370" xmlns="http://www.w3.org/2000/svg">
    <g id="g1">
        <g id="g2">
            <path id="path1" fill="#307eff" stroke="none" d="M -85.941574 457.208008 L -85.941574 -87.208008 L 681.257202 -87.208008 L 681.257202 457.208008 Z"/>
            <path id="path2" fill="none" stroke="#2665cc" stroke-width="60.490669" stroke-linecap="round" d="M 430.859833 46.878357 C 430.859833 46.878357 464.737305 76.296234 483.471405 109.167572 C 496.031799 131.20636 499.336792 154.797531 499.336792 172.116013 C 499.336792 191.516205 499.326813 219.922485 485.986511 246.335342 C 467.591187 282.756836 434.213196 315.387848 434.213196 315.387848"/>
            <path id="path3" fill="#2665cc" stroke="none" d="M 324.558075 88.217834 C 327.862885 96.297913 333.370972 116.49086 334.563568 124.570938 L 335.205353 128.977371 L 294.723602 128.977371 L 254.241913 128.977371 L 254.241913 126.683136 C 254.241913 122.918533 261.215576 96.848694 264.338379 89.046448 C 270.76123 72.891113 278.563477 61.233215 286.183777 56.366974 C 299.221069 48.104889 313.082184 59.671783 324.558075 88.217834 Z"/>
            <path id="path4" fill="#2665cc" stroke="none" d="M 258.643555 58.29718 C 258.825562 58.29718 257.814972 60.040588 256.531342 62.152802 C 248.178299 75.554138 239.734207 100.340302 235.236755 124.388916 L 234.412949 128.517532 L 205.316101 128.795349 C 189.342789 128.886337 176.214478 128.795349 176.214478 128.517532 C 176.214478 127.597961 180.898697 118.694077 183.374954 114.747452 C 199.16626 90.148041 223.856674 70.501068 250.937103 60.955383 C 255.06572 59.484985 258.461548 58.292389 258.643555 58.29718 Z"/>
            <path id="path5" fill="#2665cc" stroke="none" d="M 330.339111 58.388184 L 334.285736 59.580811 C 359.991547 67.751862 383.211578 84.184998 399.644684 106.030365 C 405.15274 113.372833 413.046021 126.496353 413.046021 128.426559 C 413.046021 128.699554 400.013489 128.977371 384.131134 128.977371 C 361.734985 128.977371 355.125305 128.704361 354.847504 127.78476 C 354.574524 127.233963 353.381927 121.539108 352.002502 115.20726 C 347.960083 96.020111 339.793823 73.528137 332.724335 62.239014 Z"/>
            <path id="path6" fill="#2665cc" stroke="none" d="M 168.867233 147.340714 L 200.536087 147.340714 L 232.204956 147.340714 L 231.563141 156.244598 C 230.643555 167.902481 230.643555 203.240173 231.563141 214.074249 L 232.295944 222.609329 L 200.536087 222.609329 L 168.867233 222.609329 L 167.947632 220.315125 C 165.011597 212.603851 163.818985 202.320572 163.818985 184.972641 C 163.818985 167.62468 165.016388 157.250427 168.043427 149.448151 Z"/>
            <path id="path7" fill="#2665cc" stroke="none" d="M 251.669907 147.335922 L 294.627838 147.335922 L 337.590576 147.335922 L 338.050385 149.357132 C 338.419189 150.549744 339.061005 158.993805 339.70282 168.266495 C 340.713409 184.053024 339.793823 213.887466 338.050385 220.497116 L 337.590576 222.609329 L 294.627838 222.609329 L 251.669907 222.609329 L 251.210098 220.497116 C 250.841293 219.395523 250.199478 210.951431 249.557678 201.678757 C 248.733871 188.828262 248.733871 181.116989 249.557678 168.175491 C 250.199478 158.993805 250.841293 150.549744 251.210098 149.357132 Z"/>
            <path id="path8" fill="#2665cc" stroke="none" d="M 357.050751 147.335922 L 388.719604 147.335922 L 420.388489 147.335922 L 421.217102 149.448151 C 424.248901 157.250397 425.441498 167.62468 425.441498 184.972626 C 425.441498 202.320572 424.248901 212.694839 421.217102 220.497101 L 420.388489 222.609329 L 388.719604 222.609329 L 357.050751 222.609329 L 357.692535 213.614441 C 358.152344 208.748215 358.425385 195.80191 358.425385 184.972626 C 358.425385 174.138535 358.152344 161.197021 357.692535 156.239792 Z"/>
            <path id="path9" fill="#2665cc" stroke="none" d="M 205.311325 241.154678 L 234.408173 241.427689 L 236.520386 251.52417 C 241.017807 273.005554 247.905258 293.107513 254.696915 304.583405 C 256.531342 307.615234 257.723938 310.273438 257.450958 310.642242 C 256.536133 311.466064 245.151245 307.064423 234.503967 301.738373 C 215.781387 292.187897 198.428665 277.043182 186.679764 259.695251 C 181.722534 252.443787 176.214478 242.898102 176.214478 241.427689 C 176.214478 241.149872 189.337982 241.058899 205.311325 241.154678 Z"/>
            <path id="path10" fill="#2665cc" stroke="none" d="M 254.05513 240.96788 L 294.627838 240.96788 L 335.200592 240.96788 L 334.558777 245.283295 C 333.461975 252.994568 327.953918 273.278534 324.922089 280.898804 C 316.018219 303.481781 305.002136 316.241272 294.627838 316.241272 C 284.253571 316.241272 273.237457 303.481781 264.333588 280.898804 C 261.30658 273.283325 255.798508 252.994568 254.696915 245.283295 Z"/>
            <path id="path11" fill="#2665cc" stroke="none" d="M 384.135956 240.972656 C 400.01828 240.972656 413.050812 241.159454 413.050812 241.432465 C 413.050812 242.81189 407.542755 252.448547 402.863312 259.427032 C 393.403809 273.288147 379.178741 287.053467 364.766815 296.235107 C 356.595734 301.465363 344.109253 307.251221 334.381561 310.278229 L 330.434937 311.470825 L 332.82016 307.706207 C 339.793823 296.412354 347.964844 273.92514 352.002533 254.737976 C 353.377106 248.406128 354.574524 242.711288 354.847504 242.069489 C 355.125336 241.240891 361.730225 240.96788 384.135956 240.972656 Z"/>
            <path id="path12" fill="none" stroke="#2665cc" stroke-width="60.490669" stroke-linecap="round" d="M 156.645493 315.387848 C 156.645493 315.387848 123.267509 282.756836 104.872169 246.335327 C 91.531906 219.922485 91.521935 191.51619 91.521935 172.116013 C 91.521935 154.797531 94.826874 131.20636 107.387291 109.167572 C 126.121414 76.296234 159.998886 46.878357 159.998886 46.878357"/>
            <path id="path13" fill="none" stroke="#2665cc" stroke-width="60.490669" stroke-linecap="round" d="M 67.765099 364.167206 C 67.765099 364.167206 23.221136 320.620026 -1.32802 272.014404 C -19.131052 236.765625 -19.144348 198.856506 -19.144348 172.96637 C -19.144348 149.854309 -14.73377 118.37114 2.028485 88.959686 C 27.02976 45.091858 72.240326 5.832794 72.240326 5.832794"/>
            <path id="path14" fill="none" stroke="#2665cc" stroke-width="60.490669" stroke-linecap="round" d="M 517.020203 5.832794 C 517.020203 5.832794 562.230774 45.091858 587.232056 88.959686 C 603.994263 118.37114 608.404907 149.854309 608.404907 172.96637 C 608.404907 198.856506 608.391602 236.765625 590.588562 272.014404 C 566.039429 320.620026 521.495422 364.167206 521.495422 364.167206"/>
            <path id="path15" fill="none" stroke="#2665cc" stroke-width="60.490669" stroke-linecap="round" d="M 590.617004 -87.208008 C 590.617004 -87.208008 650.173889 -27.56189 683.108582 39.086334 C 705.18988 83.771027 711 131.603302 711 166.717377 C 711 206.052155 710.982483 263.647308 687.530151 317.200623 C 655.190979 391.046997 596.512268 457.208008 596.512268 457.208008"/>
        </g>
        <g id="g3">
            <g id="g4">
                <g id="path16">
                    <path id="path17" fill="#44d7b6" stroke="none" d="M 325.117889 114.014572 L 332.034912 105.115143 L 399.835907 105.115143 L 399.835907 80 L 451.17865 128.148117 L 399.835907 176.310486 L 399.835907 151.18103 L 354.554413 151.18103 L 259.570282 273.391113 L 252.653259 282.276245 L 163.102921 282.276245 C 150.381317 282.276245 140.069977 271.964905 140.069977 259.243317 L 140.169815 257.032715 C 141.296494 245.352234 151.12294 236.22464 163.088654 236.22464 L 230.119492 236.22464 L 325.117889 114.014572 Z"/>
                    <path id="path18" fill="#ffffff" fill-opacity="0.204815" stroke="none" d="M 321.170288 110.945953 L 227.673218 231.22464 L 163.088654 231.22464 C 148.619232 231.22464 136.573822 242.236526 135.192917 256.552643 C 135.184753 256.637299 135.178741 256.722168 135.174911 256.807129 L 135.075073 259.017731 C 135.071671 259.092865 135.069977 259.168091 135.069977 259.243317 C 135.069977 274.726318 147.619904 287.276245 163.102921 287.276245 L 252.653259 287.276245 C 254.195435 287.276245 255.651306 286.564606 256.598663 285.347717 L 263.515686 276.462585 L 357.000885 156.18103 L 394.835907 156.18103 L 394.835907 176.310486 C 394.835907 180.688385 400.063721 182.952332 403.256683 179.957153 L 454.599426 131.794785 C 456.705261 129.819397 456.705017 126.476013 454.598907 124.500938 L 403.256165 76.352821 C 400.063019 73.35836 394.835907 75.622444 394.835907 80 L 394.835907 100.115143 L 332.034912 100.115143 C 330.491364 100.115143 329.034363 100.828041 328.087128 102.046753 L 321.170288 110.945953 Z M 332.034912 105.115143 L 325.117889 114.014572 L 230.119492 236.22464 L 163.088654 236.22464 C 151.12294 236.22464 141.296494 245.352234 140.169815 257.032715 L 140.069977 259.243317 C 140.069977 271.964905 150.381317 282.276245 163.102921 282.276245 L 252.653259 282.276245 L 259.570282 273.391113 L 354.554413 151.18103 L 399.835907 151.18103 L 399.835907 176.310486 L 451.17865 128.148117 L 399.835907 80 L 399.835907 105.115143 L 332.034912 105.115143 Z"/>
                </g>
            </g>
            <g id="g5">
                <g id="g6">
                    <path id="path19" fill="#126eb9" stroke="none" d="M 263.478027 114.014572 L 256.561035 105.115143 L 188.76004 105.115143 L 188.76004 80 L 137.417267 128.148117 L 188.76004 176.310486 L 188.76004 151.18103 L 234.041504 151.18103 L 329.025635 273.391113 L 335.942657 282.276245 L 425.493011 282.276245 C 438.2146 282.276245 448.52594 271.964905 448.52594 259.243317 L 448.426086 257.032715 C 447.31369 245.352234 437.473022 236.22464 425.507294 236.22464 L 358.47641 236.22464 L 263.478027 114.014572 Z"/>
                    <path id="path20" fill="#ffffff" fill-opacity="0.204815" stroke="none" d="M 267.425812 110.94619 L 260.50882 102.046761 C 259.561584 100.828049 258.104584 100.115143 256.561035 100.115143 L 193.76004 100.115143 L 193.76004 80 C 193.76004 75.622452 188.532944 73.35836 185.339798 76.352821 L 133.997025 124.500938 C 131.8909 126.476013 131.890656 129.819397 133.99649 131.7948 L 185.339264 179.957169 C 188.532211 182.952332 193.76004 180.688385 193.76004 176.310486 L 193.76004 156.18103 L 231.595001 156.18103 L 325.07782 276.459442 L 331.997253 285.347717 C 332.944611 286.564606 334.400482 287.276245 335.942657 287.276245 L 425.493011 287.276245 C 440.976013 287.276245 453.52594 274.726318 453.52594 259.243317 C 453.52594 259.168091 453.524231 259.092865 453.520844 259.0177 L 453.42099 256.807098 C 453.417236 256.724152 453.411438 256.641327 453.403564 256.558685 C 452.040222 242.243286 439.982208 231.22464 425.507294 231.22464 L 360.922668 231.22464 L 267.425812 110.94619 Z M 256.561035 105.115143 L 263.478027 114.014572 L 358.47641 236.22464 L 425.507294 236.22464 C 437.473022 236.22464 447.31369 245.352234 448.426086 257.032715 L 448.52594 259.243317 C 448.52594 271.964905 438.2146 282.276245 425.493011 282.276245 L 335.942657 282.276245 L 329.025635 273.391113 L 234.041504 151.18103 L 188.76004 151.18103 L 188.76004 176.310486 L 137.417267 128.148117 L 188.76004 80 L 188.76004 105.115143 L 256.561035 105.115143 Z"/>
                </g>
            </g>
        </g>
    </g>
</svg>
