<?xml version="1.0" standalone="no"?><!DOCTYPE svg PUBLIC "-//W3C//DTD SVG 1.1//EN" "http://www.w3.org/Graphics/SVG/1.1/DTD/svg11.dtd"><svg t="1742884880219" class="icon" viewBox="0 0 1024 1024" version="1.1" xmlns="http://www.w3.org/2000/svg" p-id="3731" width="80" height="80" xmlns:xlink="http://www.w3.org/1999/xlink"><path d="M853.333333 896c0 23.466667-19.2 42.666667-42.666666 42.666667h-128c-23.466667 0-42.666667-19.2-42.666667-42.666667V128c0-23.466667 19.2-42.666667 42.666667-42.666667h128c23.466667 0 42.666667 19.2 42.666666 42.666667v768zM298.666667 896c0 23.466667-19.2 42.666667-42.666667 42.666667H128c-23.466667 0-42.666667-19.2-42.666667-42.666667V128c0-23.466667 19.2-42.666667 42.666667-42.666667h128c23.466667 0 42.666667 19.2 42.666667 42.666667v768z" fill="#9CC0FA" p-id="3732"></path><path d="M384 896c0 23.466667-23.04 42.666667-51.2 42.666667H179.2C151.04 938.666667 128 919.466667 128 896V128c0-23.466667 23.04-42.666667 51.2-42.666667h153.6c28.16 0 51.2 19.2 51.2 42.666667v768z" fill="#588AE8" p-id="3733"></path><path d="M277.333333 426.666667c11.946667 0 21.333333-9.386667 21.333334-21.333334V192c0-11.946667-9.386667-21.333333-21.333334-21.333333h-42.666666c-11.946667 0-21.333333 9.386667-21.333334 21.333333v213.333333c0 11.946667 9.386667 21.333333 21.333334 21.333334h42.666666z" fill="#FFFFFF" p-id="3734"></path><path d="M938.666667 896c0 23.466667-23.04 42.666667-51.2 42.666667h-153.6c-28.16 0-51.2-19.2-51.2-42.666667V128c0-23.466667 23.04-42.666667 51.2-42.666667h153.6c28.16 0 51.2 19.2 51.2 42.666667v768z" fill="#4382F7" p-id="3735"></path><path d="M832 853.333333c11.946667 0 21.333333-9.386667 21.333333-21.333333V618.666667c0-11.946667-9.386667-21.333333-21.333333-21.333334h-42.666667c-11.946667 0-21.333333 9.386667-21.333333 21.333334v213.333333c0 11.946667 9.386667 21.333333 21.333333 21.333333h42.666667zM213.333333 810.666667c0-23.466667 19.2-42.666667 42.666667-42.666667s42.666667 19.2 42.666667 42.666667-19.2 42.666667-42.666667 42.666666-42.666667-19.2-42.666667-42.666666zM768 213.333333c0-23.466667 19.2-42.666667 42.666667-42.666666s42.666667 19.2 42.666666 42.666666-19.2 42.666667-42.666666 42.666667-42.666667-19.2-42.666667-42.666667z" fill="#FFFFFF" p-id="3736"></path><path d="M462.186667 412.202667c15.68 15.68 42.538667 4.522667 42.538666-17.813334V273.706667c0-22.314667-26.858667-33.493333-42.538666-17.792l-47.978667 47.957333a42.794667 42.794667 0 0 0 0 60.352l47.978667 47.957333zM547.306667 753.536c-15.68 15.68-42.538667 4.522667-42.538667-17.813333V615.04c0-22.314667 26.858667-33.493333 42.538667-17.792l48 47.957333c16.576 16.597333 16.576 43.754667 0 60.352l-48 47.957334z" fill="#9CC0FA" p-id="3737"></path><path d="M469.333333 358.4h128v-42.666667h-128v42.666667zM426.666667 695.466667h85.333333v-42.666667h-85.333333v42.666667z" fill="#9CC0FA" p-id="3738"></path></svg>